<?xml version="1.0" encoding="UTF-8" standalone="no"?>
<!DOCTYPE svg PUBLIC "-//W3C//DTD SVG 1.1//EN"
 "http://www.w3.org/Graphics/SVG/1.1/DTD/svg11.dtd">
<!-- Generated by graphviz version 14.0.4 (0)
 -->
<!-- Title: ce_low Pages: 1 -->
<svg width="313pt" height="146pt"
 viewBox="0.00 0.00 313.00 146.00" xmlns="http://www.w3.org/2000/svg" xmlns:xlink="http://www.w3.org/1999/xlink">
<g id="graph0" class="graph" transform="scale(1 1) rotate(0) translate(4 141.75)">
<title>ce_low</title>
<!-- Node1 -->
<g id="Node000001" class="node">
<title>Node1</title>
<g id="a_Node000001"><a xlink:title=" ">
<polygon fill="#999999" stroke="#666666" points="305.25,-58.75 255.5,-58.75 255.5,-38 305.25,-38 305.25,-58.75"/>
<text xml:space="preserve" text-anchor="middle" x="280.38" y="-45.25" font-family="Helvetica,sans-Serif" font-size="10.00">ce_low</text>
</a>
</g>
</g>
<!-- Node2 -->
<g id="Node000002" class="node">
<title>Node2</title>
<g id="a_Node000002"><a xlink:href="carrinho_2nrf24__avr_8c.html#ab6fb4c1aa834152310116e7dec65d8e3" target="_top" xlink:title=" ">
<polygon fill="white" stroke="#666666" points="200.38,-97.75 126.62,-97.75 126.62,-77 200.38,-77 200.38,-97.75"/>
<text xml:space="preserve" text-anchor="middle" x="163.5" y="-84.25" font-family="Helvetica,sans-Serif" font-size="10.00">nrf24_begin</text>
</a>
</g>
</g>
<!-- Node1&#45;&gt;Node2 -->
<g id="edge1_Node000001_Node000002" class="edge">
<title>Node1&#45;&gt;Node2</title>
<g id="a_edge1_Node000001_Node000002"><a xlink:title=" ">
<path fill="none" stroke="#63b8ff" d="M244.38,-60.26C229.05,-65.46 211.19,-71.52 196.25,-76.6"/>
<polygon fill="#63b8ff" stroke="#63b8ff" points="245.24,-63.66 253.58,-57.13 242.99,-57.03 245.24,-63.66"/>
</a>
</g>
</g>
<!-- Node6 -->
<g id="Node000006" class="node">
<title>Node6</title>
<g id="a_Node000006"><a xlink:href="carrinho_2nrf24__avr_8c.html#a33899bc3c0f4d2293f37c306d0b8e297" target="_top" xlink:title=" ">
<polygon fill="white" stroke="#666666" points="219.5,-58.75 107.5,-58.75 107.5,-38 219.5,-38 219.5,-58.75"/>
<text xml:space="preserve" text-anchor="middle" x="163.5" y="-45.25" font-family="Helvetica,sans-Serif" font-size="10.00">nrf24_stopListening</text>
</a>
</g>
</g>
<!-- Node1&#45;&gt;Node6 -->
<g id="edge5_Node000001_Node000006" class="edge">
<title>Node1&#45;&gt;Node6</title>
<g id="a_edge5_Node000001_Node000006"><a xlink:title=" ">
<path fill="none" stroke="#63b8ff" d="M243.6,-48.38C235.96,-48.38 227.72,-48.38 219.55,-48.38"/>
<polygon fill="#63b8ff" stroke="#63b8ff" points="243.5,-51.88 253.5,-48.38 243.5,-44.88 243.5,-51.88"/>
</a>
</g>
</g>
<!-- Node7 -->
<g id="Node000007" class="node">
<title>Node7</title>
<g id="a_Node000007"><a xlink:href="carrinho_2nrf24__avr_8c.html#a8232e1982aabc6f52408c318402cb578" target="_top" xlink:title=" ">
<polygon fill="white" stroke="#666666" points="71.5,-20.75 0,-20.75 0,0 71.5,0 71.5,-20.75"/>
<text xml:space="preserve" text-anchor="middle" x="35.75" y="-7.25" font-family="Helvetica,sans-Serif" font-size="10.00">nrf24_write</text>
</a>
</g>
</g>
<!-- Node1&#45;&gt;Node7 -->
<g id="edge8_Node000001_Node000007" class="edge">
<title>Node1&#45;&gt;Node7</title>
<g id="a_edge8_Node000001_Node000007"><a xlink:title=" ">
<path fill="none" stroke="#63b8ff" d="M244.27,-35.92C236.22,-33.43 227.63,-31.07 219.5,-29.38 168.76,-18.8 108.8,-14 71.77,-11.9"/>
<polygon fill="#63b8ff" stroke="#63b8ff" points="243.17,-39.25 253.76,-39 245.33,-32.59 243.17,-39.25"/>
</a>
</g>
</g>
<!-- Node3 -->
<g id="Node000003" class="node">
<title>Node3</title>
<g id="a_Node000003"><a xlink:href="carrinho_8c.html#ae66f6b31b5ad750f1fe042a706a4e3d4" target="_top" xlink:title=" ">
<polygon fill="white" stroke="#666666" points="56.12,-137.75 15.38,-137.75 15.38,-117 56.12,-117 56.12,-137.75"/>
<text xml:space="preserve" text-anchor="middle" x="35.75" y="-124.25" font-family="Helvetica,sans-Serif" font-size="10.00">main</text>
</a>
</g>
</g>
<!-- Node2&#45;&gt;Node3 -->
<g id="edge2_Node000002_Node000003" class="edge">
<title>Node2&#45;&gt;Node3</title>
<g id="a_edge2_Node000002_Node000003"><a xlink:title=" ">
<path fill="none" stroke="#63b8ff" d="M117.79,-101.6C96.73,-108.3 72.7,-115.94 56.31,-121.15"/>
<polygon fill="#63b8ff" stroke="#63b8ff" points="118.56,-105.03 127.03,-98.66 116.44,-98.35 118.56,-105.03"/>
</a>
</g>
</g>
<!-- Node4 -->
<g id="Node000004" class="node">
<title>Node4</title>
<g id="a_Node000004"><a xlink:href="main_8c.html#a840291bc02cba5474a4cb46a9b9566fe" target="_top" xlink:title=" ">
<polygon fill="white" stroke="#666666" points="56.12,-98.75 15.38,-98.75 15.38,-78 56.12,-78 56.12,-98.75"/>
<text xml:space="preserve" text-anchor="middle" x="35.75" y="-85.25" font-family="Helvetica,sans-Serif" font-size="10.00">main</text>
</a>
</g>
</g>
<!-- Node2&#45;&gt;Node4 -->
<g id="edge3_Node000002_Node000004" class="edge">
<title>Node2&#45;&gt;Node4</title>
<g id="a_edge3_Node000002_Node000004"><a xlink:title=" ">
<path fill="none" stroke="#63b8ff" d="M114.81,-87.75C94.49,-87.92 71.92,-88.1 56.29,-88.22"/>
<polygon fill="#63b8ff" stroke="#63b8ff" points="114.64,-91.26 124.61,-87.68 114.59,-84.26 114.64,-91.26"/>
</a>
</g>
</g>
<!-- Node5 -->
<g id="Node000005" class="node">
<title>Node5</title>
<g id="a_Node000005"><a xlink:href="controle_8c.html#a4fc01d736fe50cf5b977f755b675f11d" target="_top" xlink:title=" ">
<polygon fill="white" stroke="#666666" points="57.25,-59.75 14.25,-59.75 14.25,-39 57.25,-39 57.25,-59.75"/>
<text xml:space="preserve" text-anchor="middle" x="35.75" y="-46.25" font-family="Helvetica,sans-Serif" font-size="10.00">setup</text>
</a>
</g>
</g>
<!-- Node2&#45;&gt;Node5 -->
<g id="edge4_Node000002_Node000005" class="edge">
<title>Node2&#45;&gt;Node5</title>
<g id="a_edge4_Node000002_Node000005"><a xlink:title=" ">
<path fill="none" stroke="#63b8ff" d="M115.96,-73.31C95.9,-67.25 73.46,-60.47 57.59,-55.67"/>
<polygon fill="#63b8ff" stroke="#63b8ff" points="114.77,-76.61 125.35,-76.15 116.79,-69.91 114.77,-76.61"/>
</a>
</g>
</g>
<!-- Node6&#45;&gt;Node5 -->
<g id="edge7_Node000006_Node000005" class="edge">
<title>Node6&#45;&gt;Node5</title>
<g id="a_edge7_Node000006_Node000005"><a xlink:title=" ">
<path fill="none" stroke="#63b8ff" d="M96.1,-48.9C82.07,-49.01 68.27,-49.12 57.52,-49.21"/>
<polygon fill="#63b8ff" stroke="#63b8ff" points="95.86,-52.41 105.83,-48.83 95.8,-45.41 95.86,-52.41"/>
</a>
</g>
</g>
<!-- Node6&#45;&gt;Node7 -->
<g id="edge6_Node000006_Node000007" class="edge">
<title>Node6&#45;&gt;Node7</title>
<g id="a_edge6_Node000006_Node000007"><a xlink:title=" ">
<path fill="none" stroke="#63b8ff" d="M115.91,-34.3C101.27,-29.87 85.36,-25.06 71.67,-20.93"/>
<polygon fill="#63b8ff" stroke="#63b8ff" points="114.77,-37.61 125.35,-37.15 116.79,-30.91 114.77,-37.61"/>
</a>
</g>
</g>
</g>
</svg>
