<?xml version="1.0" encoding="UTF-8" standalone="no"?>
<!DOCTYPE svg PUBLIC "-//W3C//DTD SVG 1.1//EN"
 "http://www.w3.org/Graphics/SVG/1.1/DTD/svg11.dtd">
<!-- Generated by graphviz version 14.0.5 (0)
 -->
<!-- Title: hit Pages: 1 -->
<svg width="253pt" height="96pt"
 viewBox="0.00 0.00 253.00 96.00" xmlns="http://www.w3.org/2000/svg" xmlns:xlink="http://www.w3.org/1999/xlink">

<svg id="main" version="1.1" xmlns="http://www.w3.org/2000/svg" xmlns:xlink="http://www.w3.org/1999/xlink" xml:space="preserve">

<style type="text/css"><![CDATA[
.node, .edge {opacity: 0.7;}
.node.selected, .edge.selected {opacity: 1;}
.edge:hover path { stroke: red; }
.edge:hover polygon { stroke: red; fill: red; }
]]></style>
<script type="application/ecmascript" xlink:href="svg.min.js"/>
<svg id="graph" class="graph">
<g id="graph0" class="graph" transform="scale(1 1) rotate(0) translate(4 91.75)">
<title>hit</title>
<!-- Node1 -->
<g id="Node000001" class="node">
<title>Node1</title>
<g id="a_Node000001"><a xlink:title="Reduz a vida e executa a penalidade de dano.">
<polygon fill="#999999" stroke="#666666" points="28.8,-67.75 0,-67.75 0,-47 28.8,-47 28.8,-67.75"/>
<text xml:space="preserve" text-anchor="middle" x="14.4" y="-54.25" font-family="Helvetica,sans-Serif" font-size="10.00">hit</text>
</a>
</g>
</g>
<!-- Node2 -->
<g id="Node000002" class="node">
<title>Node2</title>
<g id="a_Node000002"><a xlink:href="carrinho_8c.html#aca98ea6592036069ef7f48edf7f8c826" target="_top" xlink:title=" ">
<polygon fill="white" stroke="#666666" points="129.55,-87.75 64.8,-87.75 64.8,-67 129.55,-67 129.55,-87.75"/>
<text xml:space="preserve" text-anchor="middle" x="97.18" y="-74.25" font-family="Helvetica,sans-Serif" font-size="10.00">delay_sec</text>
</a>
</g>
</g>
<!-- Node1&#45;&gt;Node2 -->
<g id="edge1_Node000001_Node000002" class="edge">
<title>Node1&#45;&gt;Node2</title>
<g id="a_edge1_Node000001_Node000002"><a xlink:title=" ">
<path fill="none" stroke="#63b8ff" d="M29.1,-60.77C35.94,-62.46 44.62,-64.61 53.45,-66.8"/>
<polygon fill="#63b8ff" stroke="#63b8ff" points="52.57,-70.18 63.12,-69.19 54.26,-63.39 52.57,-70.18"/>
</a>
</g>
</g>
<!-- Node3 -->
<g id="Node000003" class="node">
<title>Node3</title>
<g id="a_Node000003"><a xlink:href="carrinho_8c.html#a83f9abde8522ce95dd4c5ce5ba3d9d39" target="_top" xlink:title="Controla um motor no sentido desejado e com PWM.">
<polygon fill="white" stroke="#666666" points="119.8,-48.75 74.55,-48.75 74.55,-28 119.8,-28 119.8,-48.75"/>
<text xml:space="preserve" text-anchor="middle" x="97.18" y="-35.25" font-family="Helvetica,sans-Serif" font-size="10.00">motor</text>
</a>
</g>
</g>
<!-- Node1&#45;&gt;Node3 -->
<g id="edge2_Node000001_Node000003" class="edge">
<title>Node1&#45;&gt;Node3</title>
<g id="a_edge2_Node000001_Node000003"><a xlink:title=" ">
<path fill="none" stroke="#63b8ff" d="M29.1,-54.15C38.45,-51.95 51.25,-48.94 63.16,-46.14"/>
<polygon fill="#63b8ff" stroke="#63b8ff" points="63.76,-49.6 72.69,-43.9 62.16,-42.78 63.76,-49.6"/>
</a>
</g>
</g>
<!-- Node4 -->
<g id="Node000004" class="node">
<title>Node4</title>
<g id="a_Node000004"><a xlink:href="carrinho_8c.html#ac7c0935e24e573b2929d0df7f9e6b82f" target="_top" xlink:title="Define o duty de um PWM em uma das saídas configuradas.">
<polygon fill="white" stroke="#666666" points="244.55,-77.75 165.55,-77.75 165.55,-57 244.55,-57 244.55,-77.75"/>
<text xml:space="preserve" text-anchor="middle" x="205.05" y="-64.25" font-family="Helvetica,sans-Serif" font-size="10.00">analog_write</text>
</a>
</g>
</g>
<!-- Node3&#45;&gt;Node4 -->
<g id="edge3_Node000003_Node000004" class="edge">
<title>Node3&#45;&gt;Node4</title>
<g id="a_edge3_Node000003_Node000004"><a xlink:title=" ">
<path fill="none" stroke="#63b8ff" d="M120.11,-44.38C130.13,-47.13 142.43,-50.5 154.5,-53.8"/>
<polygon fill="#63b8ff" stroke="#63b8ff" points="153.41,-57.13 163.98,-56.4 155.26,-50.38 153.41,-57.13"/>
</a>
</g>
</g>
<!-- Node5 -->
<g id="Node000005" class="node">
<title>Node5</title>
<g id="a_Node000005"><a xlink:href="carrinho__ino_8ino.html#a83f9abde8522ce95dd4c5ce5ba3d9d39" target="_top" xlink:title=" ">
<polygon fill="white" stroke="#666666" points="227.68,-20.75 182.43,-20.75 182.43,0 227.68,0 227.68,-20.75"/>
<text xml:space="preserve" text-anchor="middle" x="205.05" y="-7.25" font-family="Helvetica,sans-Serif" font-size="10.00">motor</text>
</a>
</g>
</g>
<!-- Node3&#45;&gt;Node5 -->
<g id="edge4_Node000003_Node000005" class="edge">
<title>Node3&#45;&gt;Node5</title>
<g id="a_edge4_Node000003_Node000005"><a xlink:title=" ">
<path fill="none" stroke="#63b8ff" d="M120.11,-32.57C134.88,-28.67 154.61,-23.45 171.23,-19.05"/>
<polygon fill="#63b8ff" stroke="#63b8ff" points="171.9,-22.5 180.68,-16.56 170.11,-15.73 171.9,-22.5"/>
</a>
</g>
</g>
<!-- Node5&#45;&gt;Node5 -->
<g id="edge5_Node000005_Node000005" class="edge">
<title>Node5&#45;&gt;Node5</title>
<g id="a_edge5_Node000005_Node000005"><a xlink:title=" ">
<path fill="none" stroke="#63b8ff" d="M187.67,-21.15C180.71,-29.81 186.51,-38.75 205.05,-38.75 214.9,-38.75 221.15,-36.23 223.81,-32.56"/>
<polygon fill="#63b8ff" stroke="#63b8ff" points="227.28,-32.16 222.61,-22.65 220.33,-33 227.28,-32.16"/>
</a>
</g>
</g>
</g>
</svg>
</svg>

<style type='text/css'>
<![CDATA[
[data-mouse-over-selected='false'] { opacity: 0.7; }
[data-mouse-over-selected='true']  { opacity: 1.0; }
]]>
</style>
<script type="application/ecmascript"><![CDATA[
document.addEventListener('DOMContentLoaded', (event) => {
  highlightEdges();
  highlightAdjacentNodes();
});
]]></script>
</svg>
