<?xml version="1.0" encoding="UTF-8" standalone="no"?>
<!DOCTYPE svg PUBLIC "-//W3C//DTD SVG 1.1//EN"
 "http://www.w3.org/Graphics/SVG/1.1/DTD/svg11.dtd">
<!-- Generated by graphviz version 14.0.4 (0)
 -->
<!-- Title: csn_low Pages: 1 -->
<!--zoomable 534 -->

<svg id="main" version="1.1" xmlns="http://www.w3.org/2000/svg" xmlns:xlink="http://www.w3.org/1999/xlink" xml:space="preserve" onload="init(evt)">

<style type="text/css"><![CDATA[
.node, .edge {opacity: 0.7;}
.node.selected, .edge.selected {opacity: 1;}
.edge:hover path { stroke: red; }
.edge:hover polygon { stroke: red; fill: red; }
]]></style>

<defs>
  <circle id="rim" cx="0" cy="0" r="7"/>
  <circle id="rim2" cx="0" cy="0" r="3.5"/>
  <g id="zoomPlus">
    <use xlink:href="#rim" fill="#404040"><set attributeName="fill" to="#808080" begin="zoomplus.mouseover" end="zoomplus.mouseout"/></use>
    <path d="M-4,0h8M0,-4v8" fill="none" stroke="white" stroke-width="1.5" pointer-events="none"/>
  </g>
  <g id="zoomMin">
    <use xlink:href="#rim" fill="#404040"><set attributeName="fill" to="#808080" begin="zoomminus.mouseover" end="zoomminus.mouseout"/></use>
    <path d="M-4,0h8" fill="none" stroke="white" stroke-width="1.5" pointer-events="none"/>
  </g>
  <g id="arrowUp" transform="translate(30 24)">
    <use xlink:href="#rim"/>
    <path pointer-events="none" fill="none" stroke="white" stroke-width="1.5" d="M0,-3.0v7 M-2.5,-0.5L0,-3.0L2.5,-0.5"/>
  </g>
  <g id="arrowRight" transform="rotate(90) translate(36 -43)">
    <use xlink:href="#rim"/>
    <path pointer-events="none" fill="none" stroke="white" stroke-width="1.5" d="M0,-3.0v7 M-2.5,-0.5L0,-3.0L2.5,-0.5"/>
  </g>
  <g id="arrowDown" transform="rotate(180) translate(-30 -48)">
    <use xlink:href="#rim"/>
    <path pointer-events="none" fill="none" stroke="white" stroke-width="1.5" d="M0,-3.0v7 M-2.5,-0.5L0,-3.0L2.5,-0.5"/>
  </g>
  <g id="arrowLeft" transform="rotate(270) translate(-36 17)">
    <use xlink:href="#rim"/>
    <path pointer-events="none" fill="none" stroke="white" stroke-width="1.5" d="M0,-3.0v7 M-2.5,-0.5L0,-3.0L2.5,-0.5"/>
  </g>
  <g id="resetDef">
    <use xlink:href="#rim2" fill="#404040"><set attributeName="fill" to="#808080" begin="reset.mouseover" end="reset.mouseout"/></use>
  </g>
</defs>
<script type="application/ecmascript">
var viewWidth = 757;
var viewHeight = 534;
var sectionId = 'dynsection-8';
</script>
<script type="application/ecmascript" xlink:href="svg.min.js"/>
<svg id="graph" class="graph">
<g id="viewport">
<title>csn_low</title>
<!-- Node1 -->
<g id="Node000001" class="node">
<title>Node1</title>
<g id="a_Node000001"><a xlink:title=" ">
<polygon fill="#999999" stroke="#666666" points="748.5,-190.75 693.5,-190.75 693.5,-170 748.5,-170 748.5,-190.75"/>
<text xml:space="preserve" text-anchor="middle" x="721" y="-177.25" font-family="Helvetica,sans-Serif" font-size="10.00">csn_low</text>
</a>
</g>
</g>
<!-- Node2 -->
<g id="Node000002" class="node">
<title>Node2</title>
<g id="a_Node000002"><a xlink:href="carrinho_2nrf24__avr_8c.html#a9351c150d32184a95db9ab4a802ed860" target="_top" xlink:title=" ">
<polygon fill="white" stroke="#666666" points="653.75,-402.75 568,-402.75 568,-382 653.75,-382 653.75,-402.75"/>
<text xml:space="preserve" text-anchor="middle" x="610.88" y="-389.25" font-family="Helvetica,sans-Serif" font-size="10.00">nrf24_flush_rx</text>
</a>
</g>
</g>
<!-- Node1&#45;&gt;Node2 -->
<g id="edge1_Node000001_Node000002" class="edge">
<title>Node1&#45;&gt;Node2</title>
<g id="a_edge1_Node000001_Node000002"><a xlink:title=" ">
<path fill="none" stroke="#63b8ff" d="M718.6,-202.25C714.99,-241.18 702.22,-323.02 657.5,-372.38 654.13,-376.09 649.95,-379.15 645.49,-381.66"/>
<polygon fill="#63b8ff" stroke="#63b8ff" points="722.07,-202.76 719.37,-192.52 715.09,-202.21 722.07,-202.76"/>
</a>
</g>
</g>
<!-- Node3 -->
<g id="Node000003" class="node">
<title>Node3</title>
<g id="a_Node000003"><a xlink:href="carrinho_2nrf24__avr_8c.html#a617ab4b2604d6f482796e35da85369ad" target="_top" xlink:title=" ">
<polygon fill="white" stroke="#666666" points="510.62,-20.75 424.88,-20.75 424.88,0 510.62,0 510.62,-20.75"/>
<text xml:space="preserve" text-anchor="middle" x="467.75" y="-7.25" font-family="Helvetica,sans-Serif" font-size="10.00">nrf24_flush_tx</text>
</a>
</g>
</g>
<!-- Node1&#45;&gt;Node3 -->
<g id="edge2_Node000001_Node000003" class="edge">
<title>Node1&#45;&gt;Node3</title>
<g id="a_edge2_Node000001_Node000003"><a xlink:title=" ">
<path fill="none" stroke="#63b8ff" d="M694.45,-163.57C683.33,-156.59 670,-148.67 657.5,-142.38 617.53,-122.24 598.79,-132.83 564.25,-104.38 541.7,-85.8 548.9,-70.04 528.25,-49.38 516.9,-38.02 501.73,-28.14 489.55,-21.16"/>
<polygon fill="#63b8ff" stroke="#63b8ff" points="692.37,-166.4 702.68,-168.83 696.14,-160.5 692.37,-166.4"/>
</a>
</g>
</g>
<!-- Node7 -->
<g id="Node000007" class="node">
<title>Node7</title>
<g id="a_Node000007"><a xlink:href="carrinho_2nrf24__avr_8c.html#a9a23f602a6077c795322702d0a42f48c" target="_top" xlink:title=" ">
<polygon fill="white" stroke="#666666" points="657.5,-95.75 564.25,-95.75 564.25,-75 657.5,-75 657.5,-95.75"/>
<text xml:space="preserve" text-anchor="middle" x="610.88" y="-82.25" font-family="Helvetica,sans-Serif" font-size="10.00">nrf24_getStatus</text>
</a>
</g>
</g>
<!-- Node1&#45;&gt;Node7 -->
<g id="edge6_Node000001_Node000007" class="edge">
<title>Node1&#45;&gt;Node7</title>
<g id="a_edge6_Node000001_Node000007"><a xlink:title=" ">
<path fill="none" stroke="#63b8ff" d="M705.74,-160.53C694.03,-145.21 676.35,-124.2 657.5,-109.38 651.03,-104.28 643.32,-99.75 636.09,-96.04"/>
<polygon fill="#63b8ff" stroke="#63b8ff" points="702.85,-162.5 711.62,-168.44 708.46,-158.33 702.85,-162.5"/>
</a>
</g>
</g>
<!-- Node8 -->
<g id="Node000008" class="node">
<title>Node8</title>
<g id="a_Node000008"><a xlink:href="carrinho_2nrf24__avr_8c.html#ac4a676257b5b86b05f4ea608636cb2cf" target="_top" xlink:title=" ">
<polygon fill="white" stroke="#666666" points="651.88,-363.75 569.88,-363.75 569.88,-343 651.88,-343 651.88,-363.75"/>
<text xml:space="preserve" text-anchor="middle" x="610.88" y="-350.25" font-family="Helvetica,sans-Serif" font-size="10.00">read_payload</text>
</a>
</g>
</g>
<!-- Node1&#45;&gt;Node8 -->
<g id="edge7_Node000001_Node000008" class="edge">
<title>Node1&#45;&gt;Node8</title>
<g id="a_edge7_Node000001_Node000008"><a xlink:title=" ">
<path fill="none" stroke="#63b8ff" d="M716.47,-202.08C710.13,-234.58 693.91,-296.03 657.5,-333.38 653.88,-337.09 649.45,-340.16 644.79,-342.69"/>
<polygon fill="#63b8ff" stroke="#63b8ff" points="719.84,-203.11 718.17,-192.65 712.95,-201.87 719.84,-203.11"/>
</a>
</g>
</g>
<!-- Node13 -->
<g id="Node000013" class="node">
<title>Node13</title>
<g id="a_Node000013"><a xlink:href="carrinho_2nrf24__avr_8c.html#abefdb1d58b989853c0646a6c8b18b7d3" target="_top" xlink:title=" ">
<polygon fill="white" stroke="#666666" points="640.25,-210.75 581.5,-210.75 581.5,-190 640.25,-190 640.25,-210.75"/>
<text xml:space="preserve" text-anchor="middle" x="610.88" y="-197.25" font-family="Helvetica,sans-Serif" font-size="10.00">read_reg</text>
</a>
</g>
</g>
<!-- Node1&#45;&gt;Node13 -->
<g id="edge12_Node000001_Node000013" class="edge">
<title>Node1&#45;&gt;Node13</title>
<g id="a_edge12_Node000001_Node000013"><a xlink:title=" ">
<path fill="none" stroke="#63b8ff" d="M682.23,-187.36C668.55,-189.89 653.34,-192.71 640.57,-195.07"/>
<polygon fill="#63b8ff" stroke="#63b8ff" points="682.59,-190.85 691.78,-185.59 681.31,-183.97 682.59,-190.85"/>
</a>
</g>
</g>
<!-- Node17 -->
<g id="Node000017" class="node">
<title>Node17</title>
<g id="a_Node000017"><a xlink:href="carrinho_2nrf24__avr_8c.html#a31d6889b046799ad06c03ce52c9bb640" target="_top" xlink:title=" ">
<polygon fill="white" stroke="#666666" points="650.75,-56.75 571,-56.75 571,-36 650.75,-36 650.75,-56.75"/>
<text xml:space="preserve" text-anchor="middle" x="610.88" y="-43.25" font-family="Helvetica,sans-Serif" font-size="10.00">read_reg_buf</text>
</a>
</g>
</g>
<!-- Node1&#45;&gt;Node17 -->
<g id="edge23_Node000001_Node000017" class="edge">
<title>Node1&#45;&gt;Node17</title>
<g id="a_edge23_Node000001_Node000017"><a xlink:title=" ">
<path fill="none" stroke="#63b8ff" d="M713.17,-159.22C704.09,-134.09 685.82,-92.29 657.5,-66.38 653.54,-62.75 648.83,-59.71 643.95,-57.19"/>
<polygon fill="#63b8ff" stroke="#63b8ff" points="709.75,-160.03 716.31,-168.35 716.37,-157.76 709.75,-160.03"/>
</a>
</g>
</g>
<!-- Node18 -->
<g id="Node000018" class="node">
<title>Node18</title>
<g id="a_Node000018"><a xlink:href="carrinho_2nrf24__avr_8c.html#a3c9fd94e9894bf0792d4ff5891c16436" target="_top" xlink:title=" ">
<polygon fill="white" stroke="#666666" points="653.38,-171.75 568.38,-171.75 568.38,-151 653.38,-151 653.38,-171.75"/>
<text xml:space="preserve" text-anchor="middle" x="610.88" y="-158.25" font-family="Helvetica,sans-Serif" font-size="10.00">write_payload</text>
</a>
</g>
</g>
<!-- Node1&#45;&gt;Node18 -->
<g id="edge24_Node000001_Node000018" class="edge">
<title>Node1&#45;&gt;Node18</title>
<g id="a_edge24_Node000001_Node000018"><a xlink:title=" ">
<path fill="none" stroke="#63b8ff" d="M682.15,-173.72C673.01,-172.12 663.18,-170.39 653.87,-168.75"/>
<polygon fill="#63b8ff" stroke="#63b8ff" points="681.33,-177.13 691.78,-175.42 682.54,-170.24 681.33,-177.13"/>
</a>
</g>
</g>
<!-- Node19 -->
<g id="Node000019" class="node">
<title>Node19</title>
<g id="a_Node000019"><a xlink:href="carrinho_2nrf24__avr_8c.html#a08bc978021db604d02a6da754f73e7e2" target="_top" xlink:title=" ">
<polygon fill="white" stroke="#666666" points="641.75,-324.75 580,-324.75 580,-304 641.75,-304 641.75,-324.75"/>
<text xml:space="preserve" text-anchor="middle" x="610.88" y="-311.25" font-family="Helvetica,sans-Serif" font-size="10.00">write_reg</text>
</a>
</g>
</g>
<!-- Node1&#45;&gt;Node19 -->
<g id="edge26_Node000001_Node000019" class="edge">
<title>Node1&#45;&gt;Node19</title>
<g id="a_edge26_Node000001_Node000019"><a xlink:title=" ">
<path fill="none" stroke="#63b8ff" d="M704.51,-199.57C681.47,-228.12 638.92,-280.85 620.62,-303.54"/>
<polygon fill="#63b8ff" stroke="#63b8ff" points="707.01,-202.05 710.57,-192.07 701.56,-197.65 707.01,-202.05"/>
</a>
</g>
</g>
<!-- Node4 -->
<g id="Node000004" class="node">
<title>Node4</title>
<g id="a_Node000004"><a xlink:href="carrinho_2nrf24__avr_8c.html#a8232e1982aabc6f52408c318402cb578" target="_top" xlink:title=" ">
<polygon fill="white" stroke="#666666" points="341.25,-96.75 269.75,-96.75 269.75,-76 341.25,-76 341.25,-96.75"/>
<text xml:space="preserve" text-anchor="middle" x="305.5" y="-83.25" font-family="Helvetica,sans-Serif" font-size="10.00">nrf24_write</text>
</a>
</g>
</g>
<!-- Node3&#45;&gt;Node4 -->
<g id="edge3_Node000003_Node000004" class="edge">
<title>Node3&#45;&gt;Node4</title>
<g id="a_edge3_Node000003_Node000004"><a xlink:title=" ">
<path fill="none" stroke="#63b8ff" d="M427.79,-25.48C420.9,-28.33 413.83,-31.36 407.25,-34.38 378.44,-47.58 346.02,-64.75 325.92,-75.66"/>
<polygon fill="#63b8ff" stroke="#63b8ff" points="429.02,-28.76 436.97,-21.77 426.39,-22.28 429.02,-28.76"/>
</a>
</g>
</g>
<!-- Node5 -->
<g id="Node000005" class="node">
<title>Node5</title>
<g id="a_Node000005"><a xlink:href="controle_8c.html#afe461d27b9c48d5921c00d521181f12f" target="_top" xlink:title=" ">
<polygon fill="white" stroke="#666666" points="158.75,-96.75 121.75,-96.75 121.75,-76 158.75,-76 158.75,-96.75"/>
<text xml:space="preserve" text-anchor="middle" x="140.25" y="-83.25" font-family="Helvetica,sans-Serif" font-size="10.00">loop</text>
</a>
</g>
</g>
<!-- Node4&#45;&gt;Node5 -->
<g id="edge4_Node000004_Node000005" class="edge">
<title>Node4&#45;&gt;Node5</title>
<g id="a_edge4_Node000004_Node000005"><a xlink:title=" ">
<path fill="none" stroke="#63b8ff" d="M258.26,-86.38C225.27,-86.38 182.72,-86.38 159.09,-86.38"/>
<polygon fill="#63b8ff" stroke="#63b8ff" points="257.97,-89.88 267.97,-86.38 257.97,-82.88 257.97,-89.88"/>
</a>
</g>
</g>
<!-- Node6 -->
<g id="Node000006" class="node">
<title>Node6</title>
<g id="a_Node000006"><a xlink:href="controle_8c.html#ae66f6b31b5ad750f1fe042a706a4e3d4" target="_top" xlink:title=" ">
<polygon fill="white" stroke="#666666" points="40.75,-134.75 0,-134.75 0,-114 40.75,-114 40.75,-134.75"/>
<text xml:space="preserve" text-anchor="middle" x="20.38" y="-121.25" font-family="Helvetica,sans-Serif" font-size="10.00">main</text>
</a>
</g>
</g>
<!-- Node5&#45;&gt;Node6 -->
<g id="edge5_Node000005_Node000006" class="edge">
<title>Node5&#45;&gt;Node6</title>
<g id="a_edge5_Node000005_Node000006"><a xlink:title=" ">
<path fill="none" stroke="#63b8ff" d="M110.54,-95.63C88.97,-102.58 60,-111.92 41.02,-118.04"/>
<polygon fill="#63b8ff" stroke="#63b8ff" points="111.46,-99.01 119.91,-92.61 109.32,-92.35 111.46,-99.01"/>
</a>
</g>
</g>
<!-- Node9 -->
<g id="Node000009" class="node">
<title>Node9</title>
<g id="a_Node000009"><a xlink:href="carrinho_2nrf24__avr_8c.html#aa0767db791fc0b45ebadab011c1900bf" target="_top" xlink:title=" ">
<polygon fill="white" stroke="#666666" points="502,-477.75 433.5,-477.75 433.5,-457 502,-457 502,-477.75"/>
<text xml:space="preserve" text-anchor="middle" x="467.75" y="-464.25" font-family="Helvetica,sans-Serif" font-size="10.00">nrf24_read</text>
</a>
</g>
</g>
<!-- Node8&#45;&gt;Node9 -->
<g id="edge8_Node000008_Node000009" class="edge">
<title>Node8&#45;&gt;Node9</title>
<g id="a_edge8_Node000008_Node000009"><a xlink:title=" ">
<path fill="none" stroke="#63b8ff" d="M568.09,-370.07C566.74,-371.11 565.46,-372.21 564.25,-373.38 537.88,-398.72 555.72,-423.23 528.25,-447.38 520.97,-453.78 511.55,-458.15 502.38,-461.12"/>
<polygon fill="#63b8ff" stroke="#63b8ff" points="569.79,-373.14 576.36,-364.83 566.04,-367.23 569.79,-373.14"/>
</a>
</g>
</g>
<!-- Node10 -->
<g id="Node000010" class="node">
<title>Node10</title>
<g id="a_Node000010"><a xlink:href="carrinho_8c.html#afe461d27b9c48d5921c00d521181f12f" target="_top" xlink:title=" ">
<polygon fill="white" stroke="#666666" points="324,-247.75 287,-247.75 287,-227 324,-227 324,-247.75"/>
<text xml:space="preserve" text-anchor="middle" x="305.5" y="-234.25" font-family="Helvetica,sans-Serif" font-size="10.00">loop</text>
</a>
</g>
</g>
<!-- Node9&#45;&gt;Node10 -->
<g id="edge9_Node000009_Node000010" class="edge">
<title>Node9&#45;&gt;Node10</title>
<g id="a_edge9_Node000009_Node000010"><a xlink:title=" ">
<path fill="none" stroke="#63b8ff" d="M422.52,-458.56C416.75,-455.79 411.41,-452.15 407.25,-447.38 350.78,-382.58 428.52,-321.46 371.25,-257.38 359.41,-244.13 339.01,-239.55 324.27,-238.02"/>
<polygon fill="#63b8ff" stroke="#63b8ff" points="421.2,-461.8 431.79,-462.12 423.71,-455.27 421.2,-461.8"/>
</a>
</g>
</g>
<!-- Node12 -->
<g id="Node000012" class="node">
<title>Node12</title>
<g id="a_Node000012"><a xlink:href="main_8c.html#a840291bc02cba5474a4cb46a9b9566fe" target="_top" xlink:title=" ">
<polygon fill="white" stroke="#666666" points="160.62,-362.75 119.88,-362.75 119.88,-342 160.62,-342 160.62,-362.75"/>
<text xml:space="preserve" text-anchor="middle" x="140.25" y="-349.25" font-family="Helvetica,sans-Serif" font-size="10.00">main</text>
</a>
</g>
</g>
<!-- Node9&#45;&gt;Node12 -->
<g id="edge11_Node000009_Node000012" class="edge">
<title>Node9&#45;&gt;Node12</title>
<g id="a_edge11_Node000009_Node000012"><a xlink:title=" ">
<path fill="none" stroke="#63b8ff" d="M421.86,-467.93C374.59,-466.93 298.93,-460.76 239.75,-434.38 201.54,-417.34 166.33,-381.1 150.32,-363.05"/>
<polygon fill="#63b8ff" stroke="#63b8ff" points="421.69,-471.43 431.73,-468.06 421.78,-464.43 421.69,-471.43"/>
</a>
</g>
</g>
<!-- Node11 -->
<g id="Node000011" class="node">
<title>Node11</title>
<g id="a_Node000011"><a xlink:href="carrinho_8c.html#ae66f6b31b5ad750f1fe042a706a4e3d4" target="_top" xlink:title=" ">
<polygon fill="white" stroke="#666666" points="160.62,-286.75 119.88,-286.75 119.88,-266 160.62,-266 160.62,-286.75"/>
<text xml:space="preserve" text-anchor="middle" x="140.25" y="-273.25" font-family="Helvetica,sans-Serif" font-size="10.00">main</text>
</a>
</g>
</g>
<!-- Node10&#45;&gt;Node11 -->
<g id="edge10_Node000010_Node000011" class="edge">
<title>Node10&#45;&gt;Node11</title>
<g id="a_edge10_Node000010_Node000011"><a xlink:title=" ">
<path fill="none" stroke="#63b8ff" d="M275.56,-244.29C242.59,-252.16 189.61,-264.82 161.04,-271.65"/>
<polygon fill="#63b8ff" stroke="#63b8ff" points="276.33,-247.7 285.25,-241.97 274.71,-240.89 276.33,-247.7"/>
</a>
</g>
</g>
<!-- Node13&#45;&gt;Node4 -->
<g id="edge22_Node000013_Node000004" class="edge">
<title>Node13&#45;&gt;Node4</title>
<g id="a_edge22_Node000013_Node000004"><a xlink:title=" ">
<path fill="none" stroke="#63b8ff" d="M571.52,-186.15C568.91,-184.42 566.45,-182.5 564.25,-180.38 537.66,-154.68 558.67,-126.39 528.25,-105.38 472.29,-66.73 388.46,-72.24 341.54,-79.46"/>
<polygon fill="#63b8ff" stroke="#63b8ff" points="569.64,-189.11 580.09,-190.88 573.03,-182.98 569.64,-189.11"/>
</a>
</g>
</g>
<!-- Node14 -->
<g id="Node000014" class="node">
<title>Node14</title>
<g id="a_Node000014"><a xlink:href="carrinho_2nrf24__avr_8c.html#a0f64caa74329fd5799a33f30bd8ebf82" target="_top" xlink:title=" ">
<polygon fill="white" stroke="#666666" points="513.62,-286.75 421.88,-286.75 421.88,-266 513.62,-266 513.62,-286.75"/>
<text xml:space="preserve" text-anchor="middle" x="467.75" y="-273.25" font-family="Helvetica,sans-Serif" font-size="10.00">nrf24_available</text>
</a>
</g>
</g>
<!-- Node13&#45;&gt;Node14 -->
<g id="edge13_Node000013_Node000014" class="edge">
<title>Node13&#45;&gt;Node14</title>
<g id="a_edge13_Node000013_Node000014"><a xlink:title=" ">
<path fill="none" stroke="#63b8ff" d="M580.08,-216.42C552.53,-231.26 512.37,-252.88 488.57,-265.7"/>
<polygon fill="#63b8ff" stroke="#63b8ff" points="581.48,-219.64 588.62,-211.82 578.16,-213.48 581.48,-219.64"/>
</a>
</g>
</g>
<!-- Node15 -->
<g id="Node000015" class="node">
<title>Node15</title>
<g id="a_Node000015"><a xlink:href="carrinho_2nrf24__avr_8c.html#a71c5628e9583f6a6fd0871b3ae1bf6df" target="_top" xlink:title=" ">
<polygon fill="white" stroke="#666666" points="362.25,-208.75 248.75,-208.75 248.75,-188 362.25,-188 362.25,-208.75"/>
<text xml:space="preserve" text-anchor="middle" x="305.5" y="-195.25" font-family="Helvetica,sans-Serif" font-size="10.00">nrf24_startListening</text>
</a>
</g>
</g>
<!-- Node13&#45;&gt;Node15 -->
<g id="edge16_Node000013_Node000015" class="edge">
<title>Node13&#45;&gt;Node15</title>
<g id="a_edge16_Node000013_Node000015"><a xlink:title=" ">
<path fill="none" stroke="#63b8ff" d="M569.73,-200.11C516.58,-199.76 422.57,-199.14 362.47,-198.74"/>
<polygon fill="#63b8ff" stroke="#63b8ff" points="569.52,-203.61 579.55,-200.18 569.57,-196.61 569.52,-203.61"/>
</a>
</g>
</g>
<!-- Node16 -->
<g id="Node000016" class="node">
<title>Node16</title>
<g id="a_Node000016"><a xlink:href="carrinho_2nrf24__avr_8c.html#a33899bc3c0f4d2293f37c306d0b8e297" target="_top" xlink:title=" ">
<polygon fill="white" stroke="#666666" points="523.75,-134.75 411.75,-134.75 411.75,-114 523.75,-114 523.75,-134.75"/>
<text xml:space="preserve" text-anchor="middle" x="467.75" y="-121.25" font-family="Helvetica,sans-Serif" font-size="10.00">nrf24_stopListening</text>
</a>
</g>
</g>
<!-- Node13&#45;&gt;Node16 -->
<g id="edge19_Node000013_Node000016" class="edge">
<title>Node13&#45;&gt;Node16</title>
<g id="a_edge19_Node000013_Node000016"><a xlink:title=" ">
<path fill="none" stroke="#63b8ff" d="M571.38,-184.56C568.92,-183.23 566.52,-181.83 564.25,-180.38 546.23,-168.83 546.44,-159.66 528.25,-148.38 519.92,-143.21 510.29,-138.76 501.23,-135.14"/>
<polygon fill="#63b8ff" stroke="#63b8ff" points="569.78,-187.68 580.3,-188.99 572.89,-181.41 569.78,-187.68"/>
</a>
</g>
</g>
<!-- Node14&#45;&gt;Node10 -->
<g id="edge14_Node000014_Node000010" class="edge">
<title>Node14&#45;&gt;Node10</title>
<g id="a_edge14_Node000014_Node000010"><a xlink:title=" ">
<path fill="none" stroke="#63b8ff" d="M411.16,-262.85C380.71,-255.43 345.01,-246.75 324.16,-241.67"/>
<polygon fill="#63b8ff" stroke="#63b8ff" points="410.1,-266.19 420.64,-265.15 411.75,-259.39 410.1,-266.19"/>
</a>
</g>
</g>
<!-- Node14&#45;&gt;Node12 -->
<g id="edge15_Node000014_Node000012" class="edge">
<title>Node14&#45;&gt;Node12</title>
<g id="a_edge15_Node000014_Node000012"><a xlink:title=" ">
<path fill="none" stroke="#63b8ff" d="M410.5,-289.51C336.29,-306.84 209.42,-336.46 160.91,-347.78"/>
<polygon fill="#63b8ff" stroke="#63b8ff" points="411.07,-292.97 420.02,-287.29 409.48,-286.15 411.07,-292.97"/>
</a>
</g>
</g>
<!-- Node15&#45;&gt;Node11 -->
<g id="edge17_Node000015_Node000011" class="edge">
<title>Node15&#45;&gt;Node11</title>
<g id="a_edge17_Node000015_Node000011"><a xlink:title=" ">
<path fill="none" stroke="#63b8ff" d="M253.37,-212.94C248.71,-214.63 244.11,-216.45 239.75,-218.38 209.07,-231.92 175.97,-252.86 157.02,-265.53"/>
<polygon fill="#63b8ff" stroke="#63b8ff" points="254.48,-216.26 262.81,-209.71 252.22,-209.63 254.48,-216.26"/>
</a>
</g>
</g>
<!-- Node15&#45;&gt;Node12 -->
<g id="edge18_Node000015_Node000012" class="edge">
<title>Node15&#45;&gt;Node12</title>
<g id="a_edge18_Node000015_Node000012"><a xlink:title=" ">
<path fill="none" stroke="#63b8ff" d="M244.37,-214.79C242.76,-215.91 241.21,-217.1 239.75,-218.38 211.26,-243.19 226.14,-264.95 203.75,-295.38 190.17,-313.83 169.93,-330.96 156.19,-341.52"/>
<polygon fill="#63b8ff" stroke="#63b8ff" points="245.91,-217.94 252.85,-209.94 242.43,-211.87 245.91,-217.94"/>
</a>
</g>
</g>
<!-- Node16&#45;&gt;Node4 -->
<g id="edge21_Node000016_Node000004" class="edge">
<title>Node16&#45;&gt;Node4</title>
<g id="a_edge21_Node000016_Node000004"><a xlink:title=" ">
<path fill="none" stroke="#63b8ff" d="M410.3,-110.99C387.44,-105.57 361.76,-99.48 341.66,-94.71"/>
<polygon fill="#63b8ff" stroke="#63b8ff" points="409.25,-114.34 419.78,-113.24 410.86,-107.53 409.25,-114.34"/>
</a>
</g>
</g>
<!-- Node16&#45;&gt;Node6 -->
<g id="edge20_Node000016_Node000006" class="edge">
<title>Node16&#45;&gt;Node6</title>
<g id="a_edge20_Node000016_Node000006"><a xlink:title=" ">
<path fill="none" stroke="#63b8ff" d="M400.46,-124.38C297.11,-124.38 102.97,-124.38 40.95,-124.38"/>
<polygon fill="#63b8ff" stroke="#63b8ff" points="400.18,-127.88 410.18,-124.38 400.18,-120.88 400.18,-127.88"/>
</a>
</g>
</g>
<!-- Node18&#45;&gt;Node4 -->
<g id="edge25_Node000018_Node000004" class="edge">
<title>Node18&#45;&gt;Node4</title>
<g id="a_edge25_Node000018_Node000004"><a xlink:title=" ">
<path fill="none" stroke="#63b8ff" d="M573.46,-144.82C570.16,-142.57 567.02,-140.09 564.25,-137.38 540.65,-114.28 556.7,-89.14 528.25,-72.38 466.6,-36.05 377.86,-59.72 333.66,-75.51"/>
<polygon fill="#63b8ff" stroke="#63b8ff" points="571.36,-147.64 581.74,-149.77 574.96,-141.63 571.36,-147.64"/>
</a>
</g>
</g>
<!-- Node19&#45;&gt;Node4 -->
<g id="edge44_Node000019_Node000004" class="edge">
<title>Node19&#45;&gt;Node4</title>
<g id="a_edge44_Node000019_Node000004"><a xlink:title=" ">
<path fill="none" stroke="#63b8ff" d="M596.71,-294.19C581.91,-272.59 556.27,-238.21 528.25,-214.38 519.43,-206.87 377.88,-126.68 325.66,-97.18"/>
<polygon fill="#63b8ff" stroke="#63b8ff" points="593.75,-296.06 602.22,-302.42 599.56,-292.16 593.75,-296.06"/>
</a>
</g>
</g>
<!-- Node19&#45;&gt;Node9 -->
<g id="edge35_Node000019_Node000009" class="edge">
<title>Node19&#45;&gt;Node9</title>
<g id="a_edge35_Node000019_Node000009"><a xlink:title=" ">
<path fill="none" stroke="#63b8ff" d="M569.88,-329.23C567.84,-330.78 565.94,-332.5 564.25,-334.38 528.98,-373.55 565.22,-409.81 528.25,-447.38 521.29,-454.44 511.76,-459.01 502.37,-461.97"/>
<polygon fill="#63b8ff" stroke="#63b8ff" points="571.51,-332.34 578.21,-324.14 567.86,-326.37 571.51,-332.34"/>
</a>
</g>
</g>
<!-- Node19&#45;&gt;Node15 -->
<g id="edge42_Node000019_Node000015" class="edge">
<title>Node19&#45;&gt;Node15</title>
<g id="a_edge42_Node000019_Node000015"><a xlink:title=" ">
<path fill="none" stroke="#63b8ff" d="M588.57,-296.36C572.8,-283.84 550.32,-267.63 528.25,-257.38 474.6,-232.45 408.57,-216.59 362.58,-207.67"/>
<polygon fill="#63b8ff" stroke="#63b8ff" points="586.31,-299.04 596.28,-302.63 590.73,-293.61 586.31,-299.04"/>
</a>
</g>
</g>
<!-- Node19&#45;&gt;Node16 -->
<g id="edge43_Node000019_Node000016" class="edge">
<title>Node19&#45;&gt;Node16</title>
<g id="a_edge43_Node000019_Node000016"><a xlink:title=" ">
<path fill="none" stroke="#63b8ff" d="M599.88,-293.56C578.73,-249.6 531.17,-151.09 528.25,-148.38 522.29,-142.84 514.89,-138.51 507.36,-135.15"/>
<polygon fill="#63b8ff" stroke="#63b8ff" points="596.61,-294.84 604.1,-302.34 602.92,-291.81 596.61,-294.84"/>
</a>
</g>
</g>
<!-- Node20 -->
<g id="Node000020" class="node">
<title>Node20</title>
<g id="a_Node000020"><a xlink:href="carrinho_2nrf24__avr_8c.html#ab6fb4c1aa834152310116e7dec65d8e3" target="_top" xlink:title=" ">
<polygon fill="white" stroke="#666666" points="342.38,-401.75 268.62,-401.75 268.62,-381 342.38,-381 342.38,-401.75"/>
<text xml:space="preserve" text-anchor="middle" x="305.5" y="-388.25" font-family="Helvetica,sans-Serif" font-size="10.00">nrf24_begin</text>
</a>
</g>
</g>
<!-- Node19&#45;&gt;Node20 -->
<g id="edge27_Node000019_Node000020" class="edge">
<title>Node19&#45;&gt;Node20</title>
<g id="a_edge27_Node000019_Node000020"><a xlink:title=" ">
<path fill="none" stroke="#63b8ff" d="M574.94,-329.56C553.93,-338.65 530.77,-348.61 528.25,-349.38 464.35,-368.87 387.2,-381.03 342.8,-386.97"/>
<polygon fill="#63b8ff" stroke="#63b8ff" points="576.12,-332.86 583.9,-325.67 573.34,-326.44 576.12,-332.86"/>
</a>
</g>
</g>
<!-- Node21 -->
<g id="Node000021" class="node">
<title>Node21</title>
<g id="a_Node000021"><a xlink:href="carrinho_2nrf24__avr_8c.html#a5af2f11537aed8a56d8489355af0ff16" target="_top" xlink:title=" ">
<polygon fill="white" stroke="#666666" points="371.25,-362.75 239.75,-362.75 239.75,-342 371.25,-342 371.25,-362.75"/>
<text xml:space="preserve" text-anchor="middle" x="305.5" y="-349.25" font-family="Helvetica,sans-Serif" font-size="10.00">nrf24_openReadingPipe</text>
</a>
</g>
</g>
<!-- Node19&#45;&gt;Node21 -->
<g id="edge30_Node000019_Node000021" class="edge">
<title>Node19&#45;&gt;Node21</title>
<g id="a_edge30_Node000019_Node000021"><a xlink:title=" ">
<path fill="none" stroke="#63b8ff" d="M568.38,-322.01C555.54,-324.23 541.33,-326.55 528.25,-328.38 475.71,-335.72 415.9,-342.07 371.64,-346.4"/>
<polygon fill="#63b8ff" stroke="#63b8ff" points="568.98,-325.45 578.22,-320.27 567.76,-318.56 568.98,-325.45"/>
</a>
</g>
</g>
<!-- Node22 -->
<g id="Node000022" class="node">
<title>Node22</title>
<g id="a_Node000022"><a xlink:href="carrinho_2nrf24__avr_8c.html#a21d638882f746748de35324bdc21f448" target="_top" xlink:title=" ">
<polygon fill="white" stroke="#666666" points="203.75,-458.75 76.75,-458.75 76.75,-438 203.75,-438 203.75,-458.75"/>
<text xml:space="preserve" text-anchor="middle" x="140.25" y="-445.25" font-family="Helvetica,sans-Serif" font-size="10.00">nrf24_openWritingPipe</text>
</a>
</g>
</g>
<!-- Node19&#45;&gt;Node22 -->
<g id="edge33_Node000019_Node000022" class="edge">
<title>Node19&#45;&gt;Node22</title>
<g id="a_edge33_Node000019_Node000022"><a xlink:title=" ">
<path fill="none" stroke="#63b8ff" d="M570.36,-328.57C568.11,-330.3 566.04,-332.22 564.25,-334.38 519.79,-387.69 582.7,-443.31 528.25,-486.38 415.99,-575.15 224.26,-490.83 161.67,-459.22"/>
<polygon fill="#63b8ff" stroke="#63b8ff" points="571.69,-331.86 578.41,-323.66 568.05,-325.88 571.69,-331.86"/>
</a>
</g>
</g>
<!-- Node23 -->
<g id="Node000023" class="node">
<title>Node23</title>
<g id="a_Node000023"><a xlink:href="carrinho_2nrf24__avr_8c.html#a49aa88b1042d6d62114cfbca271d9e2b" target="_top" xlink:title=" ">
<polygon fill="white" stroke="#666666" points="356.25,-286.75 254.75,-286.75 254.75,-266 356.25,-266 356.25,-286.75"/>
<text xml:space="preserve" text-anchor="middle" x="305.5" y="-273.25" font-family="Helvetica,sans-Serif" font-size="10.00">nrf24_setChannel</text>
</a>
</g>
</g>
<!-- Node19&#45;&gt;Node23 -->
<g id="edge36_Node000019_Node000023" class="edge">
<title>Node19&#45;&gt;Node23</title>
<g id="a_edge36_Node000019_Node000023"><a xlink:title=" ">
<path fill="none" stroke="#63b8ff" d="M568.12,-311.6C527.06,-308.6 462.66,-303.18 407.25,-295.38 390.68,-293.04 372.7,-289.86 356.57,-286.77"/>
<polygon fill="#63b8ff" stroke="#63b8ff" points="567.83,-315.09 578.05,-312.31 568.33,-308.1 567.83,-315.09"/>
</a>
</g>
</g>
<!-- Node24 -->
<g id="Node000024" class="node">
<title>Node24</title>
<g id="a_Node000024"><a xlink:href="carrinho_2nrf24__avr_8c.html#aaf2900e7932ebbf7f0ecdc6bce5840e1" target="_top" xlink:title=" ">
<polygon fill="white" stroke="#666666" points="528.25,-438.75 407.25,-438.75 407.25,-418 528.25,-418 528.25,-438.75"/>
<text xml:space="preserve" text-anchor="middle" x="467.75" y="-425.25" font-family="Helvetica,sans-Serif" font-size="10.00">nrf24_setPayloadSize</text>
</a>
</g>
</g>
<!-- Node19&#45;&gt;Node24 -->
<g id="edge39_Node000019_Node000024" class="edge">
<title>Node19&#45;&gt;Node24</title>
<g id="a_edge39_Node000019_Node000024"><a xlink:title=" ">
<path fill="none" stroke="#63b8ff" d="M570.06,-329.7C568,-331.13 566.04,-332.69 564.25,-334.38 538.76,-358.34 554.09,-380.8 528.25,-404.38 522.24,-409.86 514.82,-414.16 507.29,-417.52"/>
<polygon fill="#63b8ff" stroke="#63b8ff" points="571.42,-332.96 578.3,-324.9 567.89,-326.91 571.42,-332.96"/>
</a>
</g>
</g>
<!-- Node20&#45;&gt;Node11 -->
<g id="edge28_Node000020_Node000011" class="edge">
<title>Node20&#45;&gt;Node11</title>
<g id="a_edge28_Node000020_Node000011"><a xlink:title=" ">
<path fill="none" stroke="#63b8ff" d="M257.63,-380.08C251.39,-377.67 245.26,-374.8 239.75,-371.38 219.99,-359.1 220.36,-349.67 203.75,-333.38 186.77,-316.71 166.25,-298.31 153.47,-287.05"/>
<polygon fill="#63b8ff" stroke="#63b8ff" points="256.11,-383.25 266.7,-383.2 258.39,-376.64 256.11,-383.25"/>
</a>
</g>
</g>
<!-- Node20&#45;&gt;Node12 -->
<g id="edge29_Node000020_Node000012" class="edge">
<title>Node20&#45;&gt;Node12</title>
<g id="a_edge29_Node000020_Node000012"><a xlink:title=" ">
<path fill="none" stroke="#63b8ff" d="M257.36,-380.11C225.39,-372.48 184.77,-362.77 161.02,-357.1"/>
<polygon fill="#63b8ff" stroke="#63b8ff" points="256.26,-383.45 266.8,-382.37 257.88,-376.64 256.26,-383.45"/>
</a>
</g>
</g>
<!-- Node21&#45;&gt;Node11 -->
<g id="edge31_Node000021_Node000011" class="edge">
<title>Node21&#45;&gt;Node11</title>
<g id="a_edge31_Node000021_Node000011"><a xlink:title=" ">
<path fill="none" stroke="#63b8ff" d="M271.35,-336.94C238.26,-321.54 188.5,-298.37 161.1,-285.62"/>
<polygon fill="#63b8ff" stroke="#63b8ff" points="269.54,-339.96 280.08,-341.01 272.5,-333.61 269.54,-339.96"/>
</a>
</g>
</g>
<!-- Node21&#45;&gt;Node12 -->
<g id="edge32_Node000021_Node000012" class="edge">
<title>Node21&#45;&gt;Node12</title>
<g id="a_edge32_Node000021_Node000012"><a xlink:title=" ">
<path fill="none" stroke="#63b8ff" d="M228.2,-352.38C203.42,-352.38 177.98,-352.38 161.07,-352.38"/>
<polygon fill="#63b8ff" stroke="#63b8ff" points="228,-355.88 238,-352.38 228,-348.88 228,-355.88"/>
</a>
</g>
</g>
<!-- Node22&#45;&gt;Node6 -->
<g id="edge34_Node000022_Node000006" class="edge">
<title>Node22&#45;&gt;Node6</title>
<g id="a_edge34_Node000022_Node000006"><a xlink:title=" ">
<path fill="none" stroke="#63b8ff" d="M119.58,-429.39C105.59,-414.79 87.44,-393.45 76.75,-371.38 35.55,-286.35 24.5,-169.92 22.01,-134.81"/>
<polygon fill="#63b8ff" stroke="#63b8ff" points="117.06,-431.83 126.59,-436.48 122.04,-426.91 117.06,-431.83"/>
</a>
</g>
</g>
<!-- Node23&#45;&gt;Node11 -->
<g id="edge37_Node000023_Node000011" class="edge">
<title>Node23&#45;&gt;Node11</title>
<g id="a_edge37_Node000023_Node000011"><a xlink:title=" ">
<path fill="none" stroke="#63b8ff" d="M243.29,-276.38C214.21,-276.38 181.44,-276.38 161.06,-276.38"/>
<polygon fill="#63b8ff" stroke="#63b8ff" points="243.12,-279.88 253.12,-276.38 243.12,-272.88 243.12,-279.88"/>
</a>
</g>
</g>
<!-- Node23&#45;&gt;Node12 -->
<g id="edge38_Node000023_Node000012" class="edge">
<title>Node23&#45;&gt;Node12</title>
<g id="a_edge38_Node000023_Node000012"><a xlink:title=" ">
<path fill="none" stroke="#63b8ff" d="M262.36,-291.09C254.76,-293.99 246.97,-297.15 239.75,-300.38 211.15,-313.16 179.3,-330.59 159.77,-341.66"/>
<polygon fill="#63b8ff" stroke="#63b8ff" points="263.32,-294.46 271.46,-287.69 260.87,-287.9 263.32,-294.46"/>
</a>
</g>
</g>
<!-- Node24&#45;&gt;Node12 -->
<g id="edge40_Node000024_Node000012" class="edge">
<title>Node24&#45;&gt;Node12</title>
<g id="a_edge40_Node000024_Node000012"><a xlink:title=" ">
<path fill="none" stroke="#63b8ff" d="M395.78,-430.87C350.22,-430.51 290.32,-426.33 239.75,-410.38 206.82,-399.98 173.15,-376.92 154.96,-363.22"/>
<polygon fill="#63b8ff" stroke="#63b8ff" points="395.52,-434.37 405.53,-430.88 395.53,-427.37 395.52,-434.37"/>
</a>
</g>
</g>
<!-- Node24&#45;&gt;Node20 -->
<g id="edge41_Node000024_Node000020" class="edge">
<title>Node24&#45;&gt;Node20</title>
<g id="a_edge41_Node000024_Node000020"><a xlink:title=" ">
<path fill="none" stroke="#63b8ff" d="M408.99,-415.04C386.83,-409.92 362.2,-404.24 342.64,-399.72"/>
<polygon fill="#63b8ff" stroke="#63b8ff" points="407.96,-418.39 418.49,-417.23 409.54,-411.57 407.96,-418.39"/>
</a>
</g>
</g>
</g>
</svg>

<g id="navigator" transform="translate(0 0)" fill="#404254">
  <rect fill="#f2f5e9" fill-opacity="0.5" stroke="#606060" stroke-width=".5" x="0" y="0" width="60" height="60"/>
  <use id="zoomplus" xlink:href="#zoomPlus" x="17" y="9" onmousedown="handleZoom(evt,'in')"/>
  <use id="zoomminus" xlink:href="#zoomMin" x="42" y="9" onmousedown="handleZoom(evt,'out')"/>
  <use id="reset" xlink:href="#resetDef" x="30" y="36" onmousedown="handleReset()"/>
   <use id="arrowup" xlink:href="#arrowUp" x="0" y="0" onmousedown="handlePan(0,-1)"/>
  <use id="arrowright" xlink:href="#arrowRight" x="0" y="0" onmousedown="handlePan(1,0)"/>
  <use id="arrowdown" xlink:href="#arrowDown" x="0" y="0" onmousedown="handlePan(0,1)"/>
  <use id="arrowleft" xlink:href="#arrowLeft" x="0" y="0" onmousedown="handlePan(-1,0)"/>
</g>
<svg viewBox="0 0 15 15" width="100%" height="30px" preserveAspectRatio="xMaxYMin meet">
 <g id="arrow_out" transform="scale(0.3 0.3)">
  <a xlink:href="carrinho_2nrf24__avr_8c_a42f8c1120431b7c37e116a4e1eac1cc2_icgraph_org.svg" target="_base">
   <rect id="button" ry="5" rx="5" y="6" x="6" height="38" width="38"
        fill="#f2f5e9" fill-opacity="0.5" stroke="#606060" stroke-width="1.0"/>
   <path id="arrow"
     d="M 11.500037,31.436501 C 11.940474,20.09759 22.043105,11.32322 32.158766,21.979434 L 37.068811,17.246167 C 37.068811,17.246167 37.088388,32 37.088388,32 L 22.160133,31.978069 C 22.160133,31.978069 26.997745,27.140456 26.997745,27.140456 C 18.528582,18.264221 13.291696,25.230495 11.500037,31.436501 z"
     style="fill:#404040;"/>
  </a>
 </g>
</svg>

<style type='text/css'>
<![CDATA[
[data-mouse-over-selected='false'] { opacity: 0.7; }
[data-mouse-over-selected='true']  { opacity: 1.0; }
]]>
</style>
<script type="application/ecmascript"><![CDATA[
document.addEventListener('DOMContentLoaded', (event) => {
  highlightEdges();
  highlightAdjacentNodes();
});
]]></script>
</svg>
