<?xml version="1.0" encoding="UTF-8" standalone="no"?>
<!DOCTYPE svg PUBLIC "-//W3C//DTD SVG 1.1//EN"
 "http://www.w3.org/Graphics/SVG/1.1/DTD/svg11.dtd">
<!-- Generated by graphviz version 14.0.4 (0)
 -->
<!-- Title: setup Pages: 1 -->
<svg width="132pt" height="86pt"
 viewBox="0.00 0.00 132.00 86.00" xmlns="http://www.w3.org/2000/svg" xmlns:xlink="http://www.w3.org/1999/xlink">

<svg id="main" version="1.1" xmlns="http://www.w3.org/2000/svg" xmlns:xlink="http://www.w3.org/1999/xlink" xml:space="preserve">

<style type="text/css"><![CDATA[
.node, .edge {opacity: 0.7;}
.node.selected, .edge.selected {opacity: 1;}
.edge:hover path { stroke: red; }
.edge:hover polygon { stroke: red; fill: red; }
]]></style>
<script type="application/ecmascript" xlink:href="svg.min.js"/>
<svg id="graph" class="graph">
<g id="graph0" class="graph" transform="scale(1 1) rotate(0) translate(4 81.75)">
<title>setup</title>
<!-- Node1 -->
<g id="Node000001" class="node">
<title>Node1</title>
<g id="a_Node000001"><a xlink:title=" ">
<polygon fill="#999999" stroke="#666666" points="43,-39.75 0,-39.75 0,-19 43,-19 43,-39.75"/>
<text xml:space="preserve" text-anchor="middle" x="21.5" y="-26.25" font-family="Helvetica,sans-Serif" font-size="10.00">setup</text>
</a>
</g>
</g>
<!-- Node2 -->
<g id="Node000002" class="node">
<title>Node2</title>
<g id="a_Node000002"><a xlink:href="carrinho__ino_8ino.html#a83f9abde8522ce95dd4c5ce5ba3d9d39" target="_top" xlink:title=" ">
<polygon fill="white" stroke="#666666" points="124.25,-59.75 79,-59.75 79,-39 124.25,-39 124.25,-59.75"/>
<text xml:space="preserve" text-anchor="middle" x="101.62" y="-46.25" font-family="Helvetica,sans-Serif" font-size="10.00">motor</text>
</a>
</g>
</g>
<!-- Node1&#45;&gt;Node2 -->
<g id="edge1_Node000001_Node000002" class="edge">
<title>Node1&#45;&gt;Node2</title>
<g id="a_edge1_Node000001_Node000002"><a xlink:title=" ">
<path fill="none" stroke="#63b8ff" d="M43.44,-34.73C50.81,-36.62 59.29,-38.79 67.42,-40.88"/>
<polygon fill="#63b8ff" stroke="#63b8ff" points="66.52,-44.26 77.07,-43.35 68.25,-37.47 66.52,-44.26"/>
</a>
</g>
</g>
<!-- Node3 -->
<g id="Node000003" class="node">
<title>Node3</title>
<g id="a_Node000003"><a xlink:href="carrinho__ino_8ino.html#a53cdd46f95419ffdcd44d3f0d6147b54" target="_top" xlink:title=" ">
<polygon fill="white" stroke="#666666" points="122,-20.75 81.25,-20.75 81.25,0 122,0 122,-20.75"/>
<text xml:space="preserve" text-anchor="middle" x="101.62" y="-7.25" font-family="Helvetica,sans-Serif" font-size="10.00">radio</text>
</a>
</g>
</g>
<!-- Node1&#45;&gt;Node3 -->
<g id="edge3_Node000001_Node000003" class="edge">
<title>Node1&#45;&gt;Node3</title>
<g id="a_edge3_Node000001_Node000003"><a xlink:title=" ">
<path fill="none" stroke="#63b8ff" d="M43.44,-24.28C51.54,-22.31 60.99,-20.01 69.84,-17.86"/>
<polygon fill="#63b8ff" stroke="#63b8ff" points="70.62,-21.28 79.5,-15.51 68.96,-14.47 70.62,-21.28"/>
</a>
</g>
</g>
<!-- Node2&#45;&gt;Node2 -->
<g id="edge2_Node000002_Node000002" class="edge">
<title>Node2&#45;&gt;Node2</title>
<g id="a_edge2_Node000002_Node000002"><a xlink:title=" ">
<path fill="none" stroke="#63b8ff" d="M88.71,-60.15C83.55,-68.81 87.85,-77.75 101.62,-77.75 108.94,-77.75 113.59,-75.23 115.56,-71.56"/>
<polygon fill="#63b8ff" stroke="#63b8ff" points="119.05,-71.3 114.67,-61.65 112.08,-71.93 119.05,-71.3"/>
</a>
</g>
</g>
</g>
</svg>
</svg>

<style type='text/css'>
<![CDATA[
[data-mouse-over-selected='false'] { opacity: 0.7; }
[data-mouse-over-selected='true']  { opacity: 1.0; }
]]>
</style>
<script type="application/ecmascript"><![CDATA[
document.addEventListener('DOMContentLoaded', (event) => {
  highlightEdges();
  highlightAdjacentNodes();
});
]]></script>
</svg>
