<?xml version="1.0" encoding="UTF-8" standalone="no"?>
<!DOCTYPE svg PUBLIC "-//W3C//DTD SVG 1.1//EN"
 "http://www.w3.org/Graphics/SVG/1.1/DTD/svg11.dtd">
<!-- Generated by graphviz version 14.0.4 (0)
 -->
<!-- Title: analog_write Pages: 1 -->
<svg width="348pt" height="87pt"
 viewBox="0.00 0.00 348.00 87.00" xmlns="http://www.w3.org/2000/svg" xmlns:xlink="http://www.w3.org/1999/xlink">
<g id="graph0" class="graph" transform="scale(1 1) rotate(0) translate(4 82.75)">
<title>analog_write</title>
<!-- Node1 -->
<g id="Node000001" class="node">
<title>Node1</title>
<g id="a_Node000001"><a xlink:title=" ">
<polygon fill="#999999" stroke="#666666" points="340,-39.75 261,-39.75 261,-19 340,-19 340,-39.75"/>
<text xml:space="preserve" text-anchor="middle" x="300.5" y="-26.25" font-family="Helvetica,sans-Serif" font-size="10.00">analog_write</text>
</a>
</g>
</g>
<!-- Node2 -->
<g id="Node000002" class="node">
<title>Node2</title>
<g id="a_Node000002"><a xlink:href="carrinho_8c.html#a83f9abde8522ce95dd4c5ce5ba3d9d39" target="_top" xlink:title=" ">
<polygon fill="white" stroke="#666666" points="225,-39.75 179.75,-39.75 179.75,-19 225,-19 225,-39.75"/>
<text xml:space="preserve" text-anchor="middle" x="202.38" y="-26.25" font-family="Helvetica,sans-Serif" font-size="10.00">motor</text>
</a>
</g>
</g>
<!-- Node1&#45;&gt;Node2 -->
<g id="edge1_Node000001_Node000002" class="edge">
<title>Node1&#45;&gt;Node2</title>
<g id="a_edge1_Node000001_Node000002"><a xlink:title=" ">
<path fill="none" stroke="#63b8ff" d="M249.31,-29.38C240.94,-29.38 232.65,-29.38 225.47,-29.38"/>
<polygon fill="#63b8ff" stroke="#63b8ff" points="249.17,-32.88 259.17,-29.38 249.17,-25.88 249.17,-32.88"/>
</a>
</g>
</g>
<!-- Node2&#45;&gt;Node2 -->
<g id="edge6_Node000002_Node000002" class="edge">
<title>Node2&#45;&gt;Node2</title>
<g id="a_edge6_Node000002_Node000002"><a xlink:title=" ">
<path fill="none" stroke="#63b8ff" d="M218.39,-51.56C216.13,-55.23 210.79,-57.75 202.38,-57.75 186.54,-57.75 181.59,-48.81 187.53,-40.15"/>
<polygon fill="#63b8ff" stroke="#63b8ff" points="221.88,-51.24 217.37,-41.65 214.92,-51.96 221.88,-51.24"/>
</a>
</g>
</g>
<!-- Node3 -->
<g id="Node000003" class="node">
<title>Node3</title>
<g id="a_Node000003"><a xlink:href="carrinho_8c.html#a026d019671eda0cfe729200fc24d23ba" target="_top" xlink:title=" ">
<polygon fill="white" stroke="#666666" points="143.75,-78.75 76.75,-78.75 76.75,-58 143.75,-58 143.75,-78.75"/>
<text xml:space="preserve" text-anchor="middle" x="110.25" y="-65.25" font-family="Helvetica,sans-Serif" font-size="10.00">gameOver</text>
</a>
</g>
</g>
<!-- Node2&#45;&gt;Node3 -->
<g id="edge2_Node000002_Node000003" class="edge">
<title>Node2&#45;&gt;Node3</title>
<g id="a_edge2_Node000002_Node000003"><a xlink:title=" ">
<path fill="none" stroke="#63b8ff" d="M169.22,-43.29C158.43,-47.96 146.55,-53.1 136.37,-57.5"/>
<polygon fill="#63b8ff" stroke="#63b8ff" points="170.38,-46.6 178.17,-39.42 167.6,-40.18 170.38,-46.6"/>
</a>
</g>
</g>
<!-- Node4 -->
<g id="Node000004" class="node">
<title>Node4</title>
<g id="a_Node000004"><a xlink:href="carrinho_8c.html#afe461d27b9c48d5921c00d521181f12f" target="_top" xlink:title=" ">
<polygon fill="white" stroke="#666666" points="128.75,-39.75 91.75,-39.75 91.75,-19 128.75,-19 128.75,-39.75"/>
<text xml:space="preserve" text-anchor="middle" x="110.25" y="-26.25" font-family="Helvetica,sans-Serif" font-size="10.00">loop</text>
</a>
</g>
</g>
<!-- Node2&#45;&gt;Node4 -->
<g id="edge3_Node000002_Node000004" class="edge">
<title>Node2&#45;&gt;Node4</title>
<g id="a_edge3_Node000002_Node000004"><a xlink:title=" ">
<path fill="none" stroke="#63b8ff" d="M168.43,-29.38C155.19,-29.38 140.43,-29.38 129.23,-29.38"/>
<polygon fill="#63b8ff" stroke="#63b8ff" points="168.04,-32.88 178.04,-29.38 168.04,-25.88 168.04,-32.88"/>
</a>
</g>
</g>
<!-- Node5 -->
<g id="Node000005" class="node">
<title>Node5</title>
<g id="a_Node000005"><a xlink:href="carrinho_8c.html#ae66f6b31b5ad750f1fe042a706a4e3d4" target="_top" xlink:title=" ">
<polygon fill="white" stroke="#666666" points="40.75,-20.75 0,-20.75 0,0 40.75,0 40.75,-20.75"/>
<text xml:space="preserve" text-anchor="middle" x="20.38" y="-7.25" font-family="Helvetica,sans-Serif" font-size="10.00">main</text>
</a>
</g>
</g>
<!-- Node2&#45;&gt;Node5 -->
<g id="edge5_Node000002_Node000005" class="edge">
<title>Node2&#45;&gt;Node5</title>
<g id="a_edge5_Node000002_Node000005"><a xlink:title=" ">
<path fill="none" stroke="#63b8ff" d="M168.56,-16.56C160.57,-14 151.95,-11.69 143.75,-10.38 107.88,-4.61 65.33,-6.55 41.03,-8.47"/>
<polygon fill="#63b8ff" stroke="#63b8ff" points="167.32,-19.84 177.92,-19.79 169.6,-13.22 167.32,-19.84"/>
</a>
</g>
</g>
<!-- Node4&#45;&gt;Node5 -->
<g id="edge4_Node000004_Node000005" class="edge">
<title>Node4&#45;&gt;Node5</title>
<g id="a_edge4_Node000004_Node000005"><a xlink:title=" ">
<path fill="none" stroke="#63b8ff" d="M80.32,-23.12C67.41,-20.33 52.54,-17.11 40.97,-14.61"/>
<polygon fill="#63b8ff" stroke="#63b8ff" points="79.47,-26.52 89.99,-25.21 80.95,-19.68 79.47,-26.52"/>
</a>
</g>
</g>
</g>
</svg>
