<?xml version="1.0" encoding="UTF-8" standalone="no"?>
<!DOCTYPE svg PUBLIC "-//W3C//DTD SVG 1.1//EN"
 "http://www.w3.org/Graphics/SVG/1.1/DTD/svg11.dtd">
<!-- Generated by graphviz version 14.0.4 (0)
 -->
<!-- Title: nrf24_setChannel Pages: 1 -->
<svg width="189pt" height="107pt"
 viewBox="0.00 0.00 189.00 107.00" xmlns="http://www.w3.org/2000/svg" xmlns:xlink="http://www.w3.org/1999/xlink">
<g id="graph0" class="graph" transform="scale(1 1) rotate(0) translate(4 102.75)">
<title>nrf24_setChannel</title>
<!-- Node1 -->
<g id="Node000001" class="node">
<title>Node1</title>
<g id="a_Node000001"><a xlink:title=" ">
<polygon fill="#999999" stroke="#666666" points="180.5,-59.75 79,-59.75 79,-39 180.5,-39 180.5,-59.75"/>
<text xml:space="preserve" text-anchor="middle" x="129.75" y="-46.25" font-family="Helvetica,sans-Serif" font-size="10.00">nrf24_setChannel</text>
</a>
</g>
</g>
<!-- Node2 -->
<g id="Node000002" class="node">
<title>Node2</title>
<g id="a_Node000002"><a xlink:href="carrinho_8c.html#ae66f6b31b5ad750f1fe042a706a4e3d4" target="_top" xlink:title=" ">
<polygon fill="white" stroke="#666666" points="41.88,-98.75 1.12,-98.75 1.12,-78 41.88,-78 41.88,-98.75"/>
<text xml:space="preserve" text-anchor="middle" x="21.5" y="-85.25" font-family="Helvetica,sans-Serif" font-size="10.00">main</text>
</a>
</g>
</g>
<!-- Node1&#45;&gt;Node2 -->
<g id="edge1_Node000001_Node000002" class="edge">
<title>Node1&#45;&gt;Node2</title>
<g id="a_edge1_Node000001_Node000002"><a xlink:title=" ">
<path fill="none" stroke="#63b8ff" d="M88.52,-64.14C72.67,-69.96 55.2,-76.37 42.21,-81.14"/>
<polygon fill="#63b8ff" stroke="#63b8ff" points="89.55,-67.49 97.73,-60.76 87.14,-60.92 89.55,-67.49"/>
</a>
</g>
</g>
<!-- Node3 -->
<g id="Node000003" class="node">
<title>Node3</title>
<g id="a_Node000003"><a xlink:href="main_8c.html#a840291bc02cba5474a4cb46a9b9566fe" target="_top" xlink:title=" ">
<polygon fill="white" stroke="#666666" points="41.88,-59.75 1.12,-59.75 1.12,-39 41.88,-39 41.88,-59.75"/>
<text xml:space="preserve" text-anchor="middle" x="21.5" y="-46.25" font-family="Helvetica,sans-Serif" font-size="10.00">main</text>
</a>
</g>
</g>
<!-- Node1&#45;&gt;Node3 -->
<g id="edge2_Node000001_Node000003" class="edge">
<title>Node1&#45;&gt;Node3</title>
<g id="a_edge2_Node000001_Node000003"><a xlink:title=" ">
<path fill="none" stroke="#63b8ff" d="M67.25,-49.38C58.25,-49.38 49.58,-49.38 42.31,-49.38"/>
<polygon fill="#63b8ff" stroke="#63b8ff" points="67.22,-52.88 77.22,-49.38 67.22,-45.88 67.22,-52.88"/>
</a>
</g>
</g>
<!-- Node4 -->
<g id="Node000004" class="node">
<title>Node4</title>
<g id="a_Node000004"><a xlink:href="controle_8c.html#a4fc01d736fe50cf5b977f755b675f11d" target="_top" xlink:title=" ">
<polygon fill="white" stroke="#666666" points="43,-20.75 0,-20.75 0,0 43,0 43,-20.75"/>
<text xml:space="preserve" text-anchor="middle" x="21.5" y="-7.25" font-family="Helvetica,sans-Serif" font-size="10.00">setup</text>
</a>
</g>
</g>
<!-- Node1&#45;&gt;Node4 -->
<g id="edge3_Node000001_Node000004" class="edge">
<title>Node1&#45;&gt;Node4</title>
<g id="a_edge3_Node000001_Node000004"><a xlink:title=" ">
<path fill="none" stroke="#63b8ff" d="M88.74,-34.69C73.23,-29 56.13,-22.72 43.19,-17.97"/>
<polygon fill="#63b8ff" stroke="#63b8ff" points="87.14,-37.83 97.73,-37.99 89.55,-31.26 87.14,-37.83"/>
</a>
</g>
</g>
</g>
</svg>
