<?xml version="1.0" encoding="UTF-8" standalone="no"?>
<!DOCTYPE svg PUBLIC "-//W3C//DTD SVG 1.1//EN"
 "http://www.w3.org/Graphics/SVG/1.1/DTD/svg11.dtd">
<!-- Generated by graphviz version 14.0.4 (0)
 -->
<!-- Title: nrf24_stopListening Pages: 1 -->
<svg width="228pt" height="68pt"
 viewBox="0.00 0.00 228.00 68.00" xmlns="http://www.w3.org/2000/svg" xmlns:xlink="http://www.w3.org/1999/xlink">
<g id="graph0" class="graph" transform="scale(1 1) rotate(0) translate(4 63.75)">
<title>nrf24_stopListening</title>
<!-- Node1 -->
<g id="Node000001" class="node">
<title>Node1</title>
<g id="a_Node000001"><a xlink:title=" ">
<polygon fill="#999999" stroke="#666666" points="219.5,-39.75 107.5,-39.75 107.5,-19 219.5,-19 219.5,-39.75"/>
<text xml:space="preserve" text-anchor="middle" x="163.5" y="-26.25" font-family="Helvetica,sans-Serif" font-size="10.00">nrf24_stopListening</text>
</a>
</g>
</g>
<!-- Node2 -->
<g id="Node000002" class="node">
<title>Node2</title>
<g id="a_Node000002"><a xlink:href="carrinho_2nrf24__avr_8c.html#a8232e1982aabc6f52408c318402cb578" target="_top" xlink:title=" ">
<polygon fill="white" stroke="#666666" points="71.5,-59.75 0,-59.75 0,-39 71.5,-39 71.5,-59.75"/>
<text xml:space="preserve" text-anchor="middle" x="35.75" y="-46.25" font-family="Helvetica,sans-Serif" font-size="10.00">nrf24_write</text>
</a>
</g>
</g>
<!-- Node1&#45;&gt;Node2 -->
<g id="edge1_Node000001_Node000002" class="edge">
<title>Node1&#45;&gt;Node2</title>
<g id="a_edge1_Node000001_Node000002"><a xlink:title=" ">
<path fill="none" stroke="#63b8ff" d="M96.03,-39.95C87.73,-41.27 79.51,-42.57 71.96,-43.78"/>
<polygon fill="#63b8ff" stroke="#63b8ff" points="96.52,-43.41 105.85,-38.39 95.42,-36.5 96.52,-43.41"/>
</a>
</g>
</g>
<!-- Node3 -->
<g id="Node000003" class="node">
<title>Node3</title>
<g id="a_Node000003"><a xlink:href="controle_8c.html#a4fc01d736fe50cf5b977f755b675f11d" target="_top" xlink:title=" ">
<polygon fill="white" stroke="#666666" points="57.25,-20.75 14.25,-20.75 14.25,0 57.25,0 57.25,-20.75"/>
<text xml:space="preserve" text-anchor="middle" x="35.75" y="-7.25" font-family="Helvetica,sans-Serif" font-size="10.00">setup</text>
</a>
</g>
</g>
<!-- Node1&#45;&gt;Node3 -->
<g id="edge2_Node000001_Node000003" class="edge">
<title>Node1&#45;&gt;Node3</title>
<g id="a_edge2_Node000001_Node000003"><a xlink:title=" ">
<path fill="none" stroke="#63b8ff" d="M96.1,-19.34C82.07,-17.22 68.27,-15.14 57.52,-13.51"/>
<polygon fill="#63b8ff" stroke="#63b8ff" points="95.44,-22.78 105.85,-20.82 96.48,-15.86 95.44,-22.78"/>
</a>
</g>
</g>
</g>
</svg>
