<?xml version="1.0" encoding="UTF-8" standalone="no"?>
<!DOCTYPE svg PUBLIC "-//W3C//DTD SVG 1.1//EN"
 "http://www.w3.org/Graphics/SVG/1.1/DTD/svg11.dtd">
<!-- Generated by graphviz version 14.0.4 (0)
 -->
<!-- Title: gameOver Pages: 1 -->
<svg width="353pt" height="47pt"
 viewBox="0.00 0.00 353.00 47.00" xmlns="http://www.w3.org/2000/svg" xmlns:xlink="http://www.w3.org/1999/xlink">

<svg id="main" version="1.1" xmlns="http://www.w3.org/2000/svg" xmlns:xlink="http://www.w3.org/1999/xlink" xml:space="preserve">

<style type="text/css"><![CDATA[
.node, .edge {opacity: 0.7;}
.node.selected, .edge.selected {opacity: 1;}
.edge:hover path { stroke: red; }
.edge:hover polygon { stroke: red; fill: red; }
]]></style>
<script type="application/ecmascript" xlink:href="svg.min.js"/>
<svg id="graph" class="graph">
<g id="graph0" class="graph" transform="scale(1 1) rotate(0) translate(4 42.75)">
<title>gameOver</title>
<!-- Node1 -->
<g id="Node000001" class="node">
<title>Node1</title>
<g id="a_Node000001"><a xlink:title=" ">
<polygon fill="#999999" stroke="#666666" points="67,-20.75 0,-20.75 0,0 67,0 67,-20.75"/>
<text xml:space="preserve" text-anchor="middle" x="33.5" y="-7.25" font-family="Helvetica,sans-Serif" font-size="10.00">gameOver</text>
</a>
</g>
</g>
<!-- Node2 -->
<g id="Node000002" class="node">
<title>Node2</title>
<g id="a_Node000002"><a xlink:href="carrinho__ino_8ino.html#a83f9abde8522ce95dd4c5ce5ba3d9d39" target="_top" xlink:title=" ">
<polygon fill="white" stroke="#666666" points="148.25,-20.75 103,-20.75 103,0 148.25,0 148.25,-20.75"/>
<text xml:space="preserve" text-anchor="middle" x="125.62" y="-7.25" font-family="Helvetica,sans-Serif" font-size="10.00">motor</text>
</a>
</g>
</g>
<!-- Node1&#45;&gt;Node2 -->
<g id="edge1_Node000001_Node000002" class="edge">
<title>Node1&#45;&gt;Node2</title>
<g id="a_edge1_Node000001_Node000002"><a xlink:title=" ">
<path fill="none" stroke="#63b8ff" d="M67.29,-10.38C75.11,-10.38 83.47,-10.38 91.31,-10.38"/>
<polygon fill="#63b8ff" stroke="#63b8ff" points="91.18,-13.88 101.18,-10.38 91.18,-6.88 91.18,-13.88"/>
</a>
</g>
</g>
<!-- Node3 -->
<g id="Node000003" class="node">
<title>Node3</title>
<g id="a_Node000003"><a xlink:href="carrinho_8c.html#a83f9abde8522ce95dd4c5ce5ba3d9d39" target="_top" xlink:title=" ">
<polygon fill="white" stroke="#666666" points="229.5,-20.75 184.25,-20.75 184.25,0 229.5,0 229.5,-20.75"/>
<text xml:space="preserve" text-anchor="middle" x="206.88" y="-7.25" font-family="Helvetica,sans-Serif" font-size="10.00">motor</text>
</a>
</g>
</g>
<!-- Node2&#45;&gt;Node3 -->
<g id="edge2_Node000002_Node000003" class="edge">
<title>Node2&#45;&gt;Node3</title>
<g id="a_edge2_Node000002_Node000003"><a xlink:title=" ">
<path fill="none" stroke="#63b8ff" d="M148.7,-10.38C156.09,-10.38 164.49,-10.38 172.54,-10.38"/>
<polygon fill="#63b8ff" stroke="#63b8ff" points="172.4,-13.88 182.4,-10.38 172.4,-6.88 172.4,-13.88"/>
</a>
</g>
</g>
<!-- Node3&#45;&gt;Node3 -->
<g id="edge4_Node000003_Node000003" class="edge">
<title>Node3&#45;&gt;Node3</title>
<g id="a_edge4_Node000003_Node000003"><a xlink:title=" ">
<path fill="none" stroke="#63b8ff" d="M193.78,-21.15C188.55,-29.81 192.91,-38.75 206.88,-38.75 214.29,-38.75 219,-36.23 221,-32.56"/>
<polygon fill="#63b8ff" stroke="#63b8ff" points="224.49,-32.3 220.1,-22.65 217.52,-32.93 224.49,-32.3"/>
</a>
</g>
</g>
<!-- Node4 -->
<g id="Node000004" class="node">
<title>Node4</title>
<g id="a_Node000004"><a xlink:href="carrinho_8c.html#ac7c0935e24e573b2929d0df7f9e6b82f" target="_top" xlink:title=" ">
<polygon fill="white" stroke="#666666" points="344.5,-20.75 265.5,-20.75 265.5,0 344.5,0 344.5,-20.75"/>
<text xml:space="preserve" text-anchor="middle" x="305" y="-7.25" font-family="Helvetica,sans-Serif" font-size="10.00">analog_write</text>
</a>
</g>
</g>
<!-- Node3&#45;&gt;Node4 -->
<g id="edge3_Node000003_Node000004" class="edge">
<title>Node3&#45;&gt;Node4</title>
<g id="a_edge3_Node000003_Node000004"><a xlink:title=" ">
<path fill="none" stroke="#63b8ff" d="M229.69,-10.38C236.92,-10.38 245.3,-10.38 253.77,-10.38"/>
<polygon fill="#63b8ff" stroke="#63b8ff" points="253.77,-13.88 263.77,-10.38 253.77,-6.88 253.77,-13.88"/>
</a>
</g>
</g>
</g>
</svg>
</svg>

<style type='text/css'>
<![CDATA[
[data-mouse-over-selected='false'] { opacity: 0.7; }
[data-mouse-over-selected='true']  { opacity: 1.0; }
]]>
</style>
<script type="application/ecmascript"><![CDATA[
document.addEventListener('DOMContentLoaded', (event) => {
  highlightEdges();
  highlightAdjacentNodes();
});
]]></script>
</svg>
