<?xml version="1.0" encoding="UTF-8" standalone="no"?>
<!DOCTYPE svg PUBLIC "-//W3C//DTD SVG 1.1//EN"
 "http://www.w3.org/Graphics/SVG/1.1/DTD/svg11.dtd">
<!-- Generated by graphviz version 14.0.4 (0)
 -->
<!-- Title: csn_high Pages: 1 -->
<svg width="682pt" height="543pt"
 viewBox="0.00 0.00 682.00 543.00" xmlns="http://www.w3.org/2000/svg" xmlns:xlink="http://www.w3.org/1999/xlink">
<g id="graph0" class="graph" transform="scale(1 1) rotate(0) translate(4 539.21)">
<title>csn_high</title>
<!-- Node1 -->
<g id="Node000001" class="node">
<title>Node1</title>
<g id="a_Node000001"><a xlink:title=" ">
<polygon fill="#999999" stroke="#666666" points="674.25,-295.75 615.5,-295.75 615.5,-275 674.25,-275 674.25,-295.75"/>
<text xml:space="preserve" text-anchor="middle" x="644.88" y="-282.25" font-family="Helvetica,sans-Serif" font-size="10.00">csn_high</text>
</a>
</g>
</g>
<!-- Node2 -->
<g id="Node000002" class="node">
<title>Node2</title>
<g id="a_Node000002"><a xlink:href="carrinho_2nrf24__avr_8c.html#ab6fb4c1aa834152310116e7dec65d8e3" target="_top" xlink:title=" ">
<polygon fill="white" stroke="#666666" points="258.38,-208.75 184.62,-208.75 184.62,-188 258.38,-188 258.38,-208.75"/>
<text xml:space="preserve" text-anchor="middle" x="221.5" y="-195.25" font-family="Helvetica,sans-Serif" font-size="10.00">nrf24_begin</text>
</a>
</g>
</g>
<!-- Node1&#45;&gt;Node2 -->
<g id="edge1_Node000001_Node000002" class="edge">
<title>Node1&#45;&gt;Node2</title>
<g id="a_edge1_Node000001_Node000002"><a xlink:title=" ">
<path fill="none" stroke="#63b8ff" d="M604.38,-273.05C596.19,-270.68 587.6,-268.34 579.5,-266.38 463.3,-238.23 323.51,-214.49 258.73,-204.06"/>
<polygon fill="#63b8ff" stroke="#63b8ff" points="603.16,-276.34 613.75,-275.82 605.15,-269.63 603.16,-276.34"/>
</a>
</g>
</g>
<!-- Node7 -->
<g id="Node000007" class="node">
<title>Node7</title>
<g id="a_Node000007"><a xlink:href="carrinho_2nrf24__avr_8c.html#a9351c150d32184a95db9ab4a802ed860" target="_top" xlink:title=" ">
<polygon fill="white" stroke="#666666" points="575.75,-410.75 490,-410.75 490,-390 575.75,-390 575.75,-410.75"/>
<text xml:space="preserve" text-anchor="middle" x="532.88" y="-397.25" font-family="Helvetica,sans-Serif" font-size="10.00">nrf24_flush_rx</text>
</a>
</g>
</g>
<!-- Node1&#45;&gt;Node7 -->
<g id="edge6_Node000001_Node000007" class="edge">
<title>Node1&#45;&gt;Node7</title>
<g id="a_edge6_Node000001_Node000007"><a xlink:title=" ">
<path fill="none" stroke="#63b8ff" d="M633.04,-306.07C621.78,-326.04 602.58,-356.14 579.5,-376.38 573.58,-381.57 566.33,-386.02 559.38,-389.64"/>
<polygon fill="#63b8ff" stroke="#63b8ff" points="636.01,-307.93 637.73,-297.48 629.87,-304.58 636.01,-307.93"/>
</a>
</g>
</g>
<!-- Node8 -->
<g id="Node000008" class="node">
<title>Node8</title>
<g id="a_Node000008"><a xlink:href="carrinho_2nrf24__avr_8c.html#a617ab4b2604d6f482796e35da85369ad" target="_top" xlink:title=" ">
<polygon fill="white" stroke="#666666" points="429.62,-515.75 343.88,-515.75 343.88,-495 429.62,-495 429.62,-515.75"/>
<text xml:space="preserve" text-anchor="middle" x="386.75" y="-502.25" font-family="Helvetica,sans-Serif" font-size="10.00">nrf24_flush_tx</text>
</a>
</g>
</g>
<!-- Node1&#45;&gt;Node8 -->
<g id="edge7_Node000001_Node000008" class="edge">
<title>Node1&#45;&gt;Node8</title>
<g id="a_edge7_Node000001_Node000008"><a xlink:title=" ">
<path fill="none" stroke="#63b8ff" d="M626.34,-304.28C614.12,-316.63 596.93,-332.44 579.5,-343.38 541.59,-367.15 517.5,-349.34 486.25,-381.38 454.72,-413.69 481,-443.32 450.25,-476.38 442.92,-484.26 433.02,-490.18 423.26,-494.55"/>
<polygon fill="#63b8ff" stroke="#63b8ff" points="628.83,-306.74 633.25,-297.1 623.79,-301.88 628.83,-306.74"/>
</a>
</g>
</g>
<!-- Node11 -->
<g id="Node000011" class="node">
<title>Node11</title>
<g id="a_Node000011"><a xlink:href="carrinho_2nrf24__avr_8c.html#a9a23f602a6077c795322702d0a42f48c" target="_top" xlink:title=" ">
<polygon fill="white" stroke="#666666" points="579.5,-334.75 486.25,-334.75 486.25,-314 579.5,-314 579.5,-334.75"/>
<text xml:space="preserve" text-anchor="middle" x="532.88" y="-321.25" font-family="Helvetica,sans-Serif" font-size="10.00">nrf24_getStatus</text>
</a>
</g>
</g>
<!-- Node1&#45;&gt;Node11 -->
<g id="edge11_Node000001_Node000011" class="edge">
<title>Node1&#45;&gt;Node11</title>
<g id="a_edge11_Node000001_Node000011"><a xlink:title=" ">
<path fill="none" stroke="#63b8ff" d="M604.52,-299.33C591.28,-304.02 576.72,-309.19 564.27,-313.6"/>
<polygon fill="#63b8ff" stroke="#63b8ff" points="605.58,-302.67 613.83,-296.03 603.24,-296.07 605.58,-302.67"/>
</a>
</g>
</g>
<!-- Node12 -->
<g id="Node000012" class="node">
<title>Node12</title>
<g id="a_Node000012"><a xlink:href="carrinho_2nrf24__avr_8c.html#ac4a676257b5b86b05f4ea608636cb2cf" target="_top" xlink:title=" ">
<polygon fill="white" stroke="#666666" points="573.88,-67.75 491.88,-67.75 491.88,-47 573.88,-47 573.88,-67.75"/>
<text xml:space="preserve" text-anchor="middle" x="532.88" y="-54.25" font-family="Helvetica,sans-Serif" font-size="10.00">read_payload</text>
</a>
</g>
</g>
<!-- Node1&#45;&gt;Node12 -->
<g id="edge12_Node000001_Node000012" class="edge">
<title>Node1&#45;&gt;Node12</title>
<g id="a_edge12_Node000001_Node000012"><a xlink:title=" ">
<path fill="none" stroke="#63b8ff" d="M635.94,-264.07C624.6,-234.28 602.57,-178.72 579.5,-133.38 567.29,-109.37 550.45,-82.67 541.02,-68.18"/>
<polygon fill="#63b8ff" stroke="#63b8ff" points="632.66,-265.29 639.46,-273.41 639.21,-262.82 632.66,-265.29"/>
</a>
</g>
</g>
<!-- Node15 -->
<g id="Node000015" class="node">
<title>Node15</title>
<g id="a_Node000015"><a xlink:href="carrinho_2nrf24__avr_8c.html#abefdb1d58b989853c0646a6c8b18b7d3" target="_top" xlink:title=" ">
<polygon fill="white" stroke="#666666" points="562.25,-295.75 503.5,-295.75 503.5,-275 562.25,-275 562.25,-295.75"/>
<text xml:space="preserve" text-anchor="middle" x="532.88" y="-282.25" font-family="Helvetica,sans-Serif" font-size="10.00">read_reg</text>
</a>
</g>
</g>
<!-- Node1&#45;&gt;Node15 -->
<g id="edge17_Node000001_Node000015" class="edge">
<title>Node1&#45;&gt;Node15</title>
<g id="a_edge17_Node000001_Node000015"><a xlink:title=" ">
<path fill="none" stroke="#63b8ff" d="M603.75,-285.38C590.16,-285.38 575.26,-285.38 562.73,-285.38"/>
<polygon fill="#63b8ff" stroke="#63b8ff" points="603.75,-288.88 613.75,-285.38 603.75,-281.88 603.75,-288.88"/>
</a>
</g>
</g>
<!-- Node19 -->
<g id="Node000019" class="node">
<title>Node19</title>
<g id="a_Node000019"><a xlink:href="carrinho_2nrf24__avr_8c.html#a31d6889b046799ad06c03ce52c9bb640" target="_top" xlink:title=" ">
<polygon fill="white" stroke="#666666" points="572.75,-201.75 493,-201.75 493,-181 572.75,-181 572.75,-201.75"/>
<text xml:space="preserve" text-anchor="middle" x="532.88" y="-188.25" font-family="Helvetica,sans-Serif" font-size="10.00">read_reg_buf</text>
</a>
</g>
</g>
<!-- Node1&#45;&gt;Node19 -->
<g id="edge28_Node000001_Node000019" class="edge">
<title>Node1&#45;&gt;Node19</title>
<g id="a_edge28_Node000001_Node000019"><a xlink:title=" ">
<path fill="none" stroke="#63b8ff" d="M629.02,-265.86C616.86,-250.78 598.61,-230.07 579.5,-215.38 572.97,-210.35 565.25,-205.84 558.02,-202.12"/>
<polygon fill="#63b8ff" stroke="#63b8ff" points="626.21,-267.94 635.14,-273.64 631.71,-263.62 626.21,-267.94"/>
</a>
</g>
</g>
<!-- Node20 -->
<g id="Node000020" class="node">
<title>Node20</title>
<g id="a_Node000020"><a xlink:href="carrinho_2nrf24__avr_8c.html#a3c9fd94e9894bf0792d4ff5891c16436" target="_top" xlink:title=" ">
<polygon fill="white" stroke="#666666" points="575.38,-505.75 490.38,-505.75 490.38,-485 575.38,-485 575.38,-505.75"/>
<text xml:space="preserve" text-anchor="middle" x="532.88" y="-492.25" font-family="Helvetica,sans-Serif" font-size="10.00">write_payload</text>
</a>
</g>
</g>
<!-- Node1&#45;&gt;Node20 -->
<g id="edge29_Node000001_Node000020" class="edge">
<title>Node1&#45;&gt;Node20</title>
<g id="a_edge29_Node000001_Node000020"><a xlink:title=" ">
<path fill="none" stroke="#63b8ff" d="M634.53,-306.35C622.5,-332.98 600.62,-380.19 579.5,-419.38 566.65,-443.22 549.9,-470.2 540.69,-484.73"/>
<polygon fill="#63b8ff" stroke="#63b8ff" points="637.67,-307.9 638.57,-297.35 631.28,-305.04 637.67,-307.9"/>
</a>
</g>
</g>
<!-- Node21 -->
<g id="Node000021" class="node">
<title>Node21</title>
<g id="a_Node000021"><a xlink:href="carrinho_2nrf24__avr_8c.html#a08bc978021db604d02a6da754f73e7e2" target="_top" xlink:title=" ">
<polygon fill="white" stroke="#666666" points="563.75,-162.75 502,-162.75 502,-142 563.75,-142 563.75,-162.75"/>
<text xml:space="preserve" text-anchor="middle" x="532.88" y="-149.25" font-family="Helvetica,sans-Serif" font-size="10.00">write_reg</text>
</a>
</g>
</g>
<!-- Node1&#45;&gt;Node21 -->
<g id="edge31_Node000001_Node000021" class="edge">
<title>Node1&#45;&gt;Node21</title>
<g id="a_edge31_Node000001_Node000021"><a xlink:title=" ">
<path fill="none" stroke="#63b8ff" d="M636.48,-264.03C626.87,-239.07 607.89,-197.94 579.5,-172.38 575,-168.32 569.55,-164.99 564.01,-162.29"/>
<polygon fill="#63b8ff" stroke="#63b8ff" points="633.09,-264.94 639.82,-273.12 639.66,-262.53 633.09,-264.94"/>
</a>
</g>
</g>
<!-- Node3 -->
<g id="Node000003" class="node">
<title>Node3</title>
<g id="a_Node000003"><a xlink:href="carrinho_8c.html#ae66f6b31b5ad750f1fe042a706a4e3d4" target="_top" xlink:title="Função principal: inicializa periféricos e roda loop().">
<polygon fill="white" stroke="#666666" points="118.62,-208.75 77.88,-208.75 77.88,-188 118.62,-188 118.62,-208.75"/>
<text xml:space="preserve" text-anchor="middle" x="98.25" y="-195.25" font-family="Helvetica,sans-Serif" font-size="10.00">main</text>
</a>
</g>
</g>
<!-- Node2&#45;&gt;Node3 -->
<g id="edge2_Node000002_Node000003" class="edge">
<title>Node2&#45;&gt;Node3</title>
<g id="a_edge2_Node000002_Node000003"><a xlink:title=" ">
<path fill="none" stroke="#63b8ff" d="M172.99,-198.38C154.11,-198.38 133.45,-198.38 118.81,-198.38"/>
<polygon fill="#63b8ff" stroke="#63b8ff" points="172.94,-201.88 182.94,-198.38 172.94,-194.88 172.94,-201.88"/>
</a>
</g>
</g>
<!-- Node4 -->
<g id="Node000004" class="node">
<title>Node4</title>
<g id="a_Node000004"><a xlink:href="main_8c.html#a840291bc02cba5474a4cb46a9b9566fe" target="_top" xlink:title=" ">
<polygon fill="white" stroke="#666666" points="118.62,-169.75 77.88,-169.75 77.88,-149 118.62,-149 118.62,-169.75"/>
<text xml:space="preserve" text-anchor="middle" x="98.25" y="-156.25" font-family="Helvetica,sans-Serif" font-size="10.00">main</text>
</a>
</g>
</g>
<!-- Node2&#45;&gt;Node4 -->
<g id="edge3_Node000002_Node000004" class="edge">
<title>Node2&#45;&gt;Node4</title>
<g id="a_edge3_Node000002_Node000004"><a xlink:title=" ">
<path fill="none" stroke="#63b8ff" d="M173.95,-184.15C167.82,-182.23 161.63,-180.27 155.75,-178.38 143.54,-174.44 129.9,-169.86 119.08,-166.18"/>
<polygon fill="#63b8ff" stroke="#63b8ff" points="172.79,-187.45 183.38,-187.08 174.87,-180.77 172.79,-187.45"/>
</a>
</g>
</g>
<!-- Node5 -->
<g id="Node000005" class="node">
<title>Node5</title>
<g id="a_Node000005"><a xlink:href="controle_8c.html#a4fc01d736fe50cf5b977f755b675f11d" target="_top" xlink:title="Inicializações principais (ADC, PWM, entradas e rádio).">
<polygon fill="white" stroke="#666666" points="119.75,-386.75 76.75,-386.75 76.75,-366 119.75,-366 119.75,-386.75"/>
<text xml:space="preserve" text-anchor="middle" x="98.25" y="-373.25" font-family="Helvetica,sans-Serif" font-size="10.00">setup</text>
</a>
</g>
</g>
<!-- Node2&#45;&gt;Node5 -->
<g id="edge4_Node000002_Node000005" class="edge">
<title>Node2&#45;&gt;Node5</title>
<g id="a_edge4_Node000002_Node000005"><a xlink:title=" ">
<path fill="none" stroke="#63b8ff" d="M173.85,-206.96C167.19,-209.76 160.88,-213.46 155.75,-218.38 112.19,-260.07 102.13,-337.64 99.88,-365.81"/>
<polygon fill="#63b8ff" stroke="#63b8ff" points="174.73,-210.36 183.03,-203.77 172.43,-203.74 174.73,-210.36"/>
</a>
</g>
</g>
<!-- Node6 -->
<g id="Node000006" class="node">
<title>Node6</title>
<g id="a_Node000006"><a xlink:href="controle_8c.html#ae66f6b31b5ad750f1fe042a706a4e3d4" target="_top" xlink:title="Função principal do firmware.">
<polygon fill="white" stroke="#666666" points="40.75,-414.75 0,-414.75 0,-394 40.75,-394 40.75,-414.75"/>
<text xml:space="preserve" text-anchor="middle" x="20.38" y="-401.25" font-family="Helvetica,sans-Serif" font-size="10.00">main</text>
</a>
</g>
</g>
<!-- Node5&#45;&gt;Node6 -->
<g id="edge5_Node000005_Node000006" class="edge">
<title>Node5&#45;&gt;Node6</title>
<g id="a_edge5_Node000005_Node000006"><a xlink:title=" ">
<path fill="none" stroke="#63b8ff" d="M65.87,-387.96C57.46,-391.06 48.61,-394.32 41.04,-397.12"/>
<polygon fill="#63b8ff" stroke="#63b8ff" points="66.93,-391.3 75.1,-384.55 64.5,-384.73 66.93,-391.3"/>
</a>
</g>
</g>
<!-- Node9 -->
<g id="Node000009" class="node">
<title>Node9</title>
<g id="a_Node000009"><a xlink:href="carrinho_2nrf24__avr_8c.html#a8232e1982aabc6f52408c318402cb578" target="_top" xlink:title=" ">
<polygon fill="white" stroke="#666666" points="257.25,-458.75 185.75,-458.75 185.75,-438 257.25,-438 257.25,-458.75"/>
<text xml:space="preserve" text-anchor="middle" x="221.5" y="-445.25" font-family="Helvetica,sans-Serif" font-size="10.00">nrf24_write</text>
</a>
</g>
</g>
<!-- Node8&#45;&gt;Node9 -->
<g id="edge8_Node000008_Node000009" class="edge">
<title>Node8&#45;&gt;Node9</title>
<g id="a_edge8_Node000008_Node000009"><a xlink:title=" ">
<path fill="none" stroke="#63b8ff" d="M343.91,-490.77C315.7,-480.92 279.09,-468.13 253.47,-459.19"/>
<polygon fill="#63b8ff" stroke="#63b8ff" points="342.64,-494.03 353.23,-494.02 344.94,-487.42 342.64,-494.03"/>
</a>
</g>
</g>
<!-- Node10 -->
<g id="Node000010" class="node">
<title>Node10</title>
<g id="a_Node000010"><a xlink:href="controle_8c.html#afe461d27b9c48d5921c00d521181f12f" target="_top" xlink:title="Loop principal: lê controles, aplica deadzone, envia por RF e atualiza LEDs.">
<polygon fill="white" stroke="#666666" points="116.75,-443.75 79.75,-443.75 79.75,-423 116.75,-423 116.75,-443.75"/>
<text xml:space="preserve" text-anchor="middle" x="98.25" y="-430.25" font-family="Helvetica,sans-Serif" font-size="10.00">loop</text>
</a>
</g>
</g>
<!-- Node9&#45;&gt;Node10 -->
<g id="edge9_Node000009_Node000010" class="edge">
<title>Node9&#45;&gt;Node10</title>
<g id="a_edge9_Node000009_Node000010"><a xlink:title=" ">
<path fill="none" stroke="#63b8ff" d="M174.02,-442.63C154.11,-440.16 132.04,-437.43 117.08,-435.58"/>
<polygon fill="#63b8ff" stroke="#63b8ff" points="173.57,-446.1 183.93,-443.85 174.43,-439.15 173.57,-446.1"/>
</a>
</g>
</g>
<!-- Node10&#45;&gt;Node6 -->
<g id="edge10_Node000010_Node000006" class="edge">
<title>Node10&#45;&gt;Node6</title>
<g id="a_edge10_Node000010_Node000006"><a xlink:title=" ">
<path fill="none" stroke="#63b8ff" d="M68.61,-422.43C59.44,-418.92 49.48,-415.12 41.09,-411.91"/>
<polygon fill="#63b8ff" stroke="#63b8ff" points="67.26,-425.66 77.85,-425.96 69.76,-419.12 67.26,-425.66"/>
</a>
</g>
</g>
<!-- Node13 -->
<g id="Node000013" class="node">
<title>Node13</title>
<g id="a_Node000013"><a xlink:href="carrinho_2nrf24__avr_8c.html#aa0767db791fc0b45ebadab011c1900bf" target="_top" xlink:title=" ">
<polygon fill="white" stroke="#666666" points="421,-20.75 352.5,-20.75 352.5,0 421,0 421,-20.75"/>
<text xml:space="preserve" text-anchor="middle" x="386.75" y="-7.25" font-family="Helvetica,sans-Serif" font-size="10.00">nrf24_read</text>
</a>
</g>
</g>
<!-- Node12&#45;&gt;Node13 -->
<g id="edge13_Node000012_Node000013" class="edge">
<title>Node12&#45;&gt;Node13</title>
<g id="a_edge13_Node000012_Node000013"><a xlink:title=" ">
<path fill="none" stroke="#63b8ff" d="M487.9,-43.04C466.25,-35.98 440.59,-27.61 420.66,-21.11"/>
<polygon fill="#63b8ff" stroke="#63b8ff" points="486.78,-46.35 497.37,-46.12 488.95,-39.7 486.78,-46.35"/>
</a>
</g>
</g>
<!-- Node13&#45;&gt;Node4 -->
<g id="edge16_Node000013_Node000004" class="edge">
<title>Node13&#45;&gt;Node4</title>
<g id="a_edge16_Node000013_Node000004"><a xlink:title=" ">
<path fill="none" stroke="#63b8ff" d="M340.83,-16.53C291.64,-25.06 212.24,-44.2 155.75,-84.38 131.57,-101.57 113.22,-132.22 104.62,-148.51"/>
<polygon fill="#63b8ff" stroke="#63b8ff" points="341.26,-20.01 350.56,-14.93 340.12,-13.1 341.26,-20.01"/>
</a>
</g>
</g>
<!-- Node14 -->
<g id="Node000014" class="node">
<title>Node14</title>
<g id="a_Node000014"><a xlink:href="carrinho_8c.html#afe461d27b9c48d5921c00d521181f12f" target="_top" xlink:title="Laço principal contendo toda a lógica do robô.">
<polygon fill="white" stroke="#666666" points="240,-286.75 203,-286.75 203,-266 240,-266 240,-286.75"/>
<text xml:space="preserve" text-anchor="middle" x="221.5" y="-273.25" font-family="Helvetica,sans-Serif" font-size="10.00">loop</text>
</a>
</g>
</g>
<!-- Node13&#45;&gt;Node14 -->
<g id="edge14_Node000013_Node000014" class="edge">
<title>Node13&#45;&gt;Node14</title>
<g id="a_edge14_Node000013_Node000014"><a xlink:title=" ">
<path fill="none" stroke="#63b8ff" d="M369.94,-29.91C355.77,-48.34 335.4,-77.26 323.25,-105.38 295.88,-168.7 334.41,-206.02 287.25,-256.38 275.19,-269.26 255.03,-273.91 240.41,-275.55"/>
<polygon fill="#63b8ff" stroke="#63b8ff" points="372.54,-32.27 375.96,-22.24 367.03,-27.95 372.54,-32.27"/>
</a>
</g>
</g>
<!-- Node14&#45;&gt;Node3 -->
<g id="edge15_Node000014_Node000003" class="edge">
<title>Node14&#45;&gt;Node3</title>
<g id="a_edge15_Node000014_Node000003"><a xlink:title=" ">
<path fill="none" stroke="#63b8ff" d="M191.71,-270.76C179.99,-267.67 166.66,-263.05 155.75,-256.38 135.12,-243.76 116.71,-221.91 106.85,-208.94"/>
<polygon fill="#63b8ff" stroke="#63b8ff" points="190.73,-274.13 201.27,-273.03 192.35,-267.32 190.73,-274.13"/>
</a>
</g>
</g>
<!-- Node15&#45;&gt;Node9 -->
<g id="edge27_Node000015_Node000009" class="edge">
<title>Node15&#45;&gt;Node9</title>
<g id="a_edge27_Node000015_Node000009"><a xlink:title=" ">
<path fill="none" stroke="#63b8ff" d="M493.21,-298.99C490.64,-300.86 488.27,-302.98 486.25,-305.38 443.92,-355.41 501.94,-408.08 450.25,-448.38 393.18,-492.86 301.32,-473.74 253.57,-459.23"/>
<polygon fill="#63b8ff" stroke="#63b8ff" points="494.95,-302.03 501.86,-294 491.45,-295.97 494.95,-302.03"/>
</a>
</g>
</g>
<!-- Node16 -->
<g id="Node000016" class="node">
<title>Node16</title>
<g id="a_Node000016"><a xlink:href="carrinho_2nrf24__avr_8c.html#a0f64caa74329fd5799a33f30bd8ebf82" target="_top" xlink:title=" ">
<polygon fill="white" stroke="#666666" points="432.62,-324.75 340.88,-324.75 340.88,-304 432.62,-304 432.62,-324.75"/>
<text xml:space="preserve" text-anchor="middle" x="386.75" y="-311.25" font-family="Helvetica,sans-Serif" font-size="10.00">nrf24_available</text>
</a>
</g>
</g>
<!-- Node15&#45;&gt;Node16 -->
<g id="edge18_Node000015_Node000016" class="edge">
<title>Node15&#45;&gt;Node16</title>
<g id="a_edge18_Node000015_Node000016"><a xlink:title=" ">
<path fill="none" stroke="#63b8ff" d="M491.89,-293.42C473.61,-297.1 451.86,-301.48 432.98,-305.27"/>
<polygon fill="#63b8ff" stroke="#63b8ff" points="492.46,-296.88 501.57,-291.47 491.08,-290.01 492.46,-296.88"/>
</a>
</g>
</g>
<!-- Node17 -->
<g id="Node000017" class="node">
<title>Node17</title>
<g id="a_Node000017"><a xlink:href="carrinho_2nrf24__avr_8c.html#a71c5628e9583f6a6fd0871b3ae1bf6df" target="_top" xlink:title=" ">
<polygon fill="white" stroke="#666666" points="278.25,-247.75 164.75,-247.75 164.75,-227 278.25,-227 278.25,-247.75"/>
<text xml:space="preserve" text-anchor="middle" x="221.5" y="-234.25" font-family="Helvetica,sans-Serif" font-size="10.00">nrf24_startListening</text>
</a>
</g>
</g>
<!-- Node15&#45;&gt;Node17 -->
<g id="edge21_Node000015_Node000017" class="edge">
<title>Node15&#45;&gt;Node17</title>
<g id="a_edge21_Node000015_Node000017"><a xlink:title=" ">
<path fill="none" stroke="#63b8ff" d="M491.82,-279.16C437.5,-270.73 340.23,-255.64 278.65,-246.09"/>
<polygon fill="#63b8ff" stroke="#63b8ff" points="491.13,-282.6 501.55,-280.67 492.21,-275.68 491.13,-282.6"/>
</a>
</g>
</g>
<!-- Node18 -->
<g id="Node000018" class="node">
<title>Node18</title>
<g id="a_Node000018"><a xlink:href="carrinho_2nrf24__avr_8c.html#a33899bc3c0f4d2293f37c306d0b8e297" target="_top" xlink:title=" ">
<polygon fill="white" stroke="#666666" points="442.75,-439.75 330.75,-439.75 330.75,-419 442.75,-419 442.75,-439.75"/>
<text xml:space="preserve" text-anchor="middle" x="386.75" y="-426.25" font-family="Helvetica,sans-Serif" font-size="10.00">nrf24_stopListening</text>
</a>
</g>
</g>
<!-- Node15&#45;&gt;Node18 -->
<g id="edge24_Node000015_Node000018" class="edge">
<title>Node15&#45;&gt;Node18</title>
<g id="a_edge24_Node000015_Node000018"><a xlink:title=" ">
<path fill="none" stroke="#63b8ff" d="M493.27,-299.36C490.72,-301.14 488.34,-303.14 486.25,-305.38 454,-339.89 483.3,-371.62 450.25,-405.38 444.8,-410.94 437.92,-415.24 430.74,-418.54"/>
<polygon fill="#63b8ff" stroke="#63b8ff" points="494.78,-302.53 501.74,-294.54 491.32,-296.44 494.78,-302.53"/>
</a>
</g>
</g>
<!-- Node16&#45;&gt;Node4 -->
<g id="edge20_Node000016_Node000004" class="edge">
<title>Node16&#45;&gt;Node4</title>
<g id="a_edge20_Node000016_Node000004"><a xlink:title=" ">
<path fill="none" stroke="#63b8ff" d="M329.47,-325.95C278.53,-333 204.27,-334.3 155.75,-295.38 113.65,-261.59 147.93,-225.41 119.75,-179.38 117.67,-175.98 114.89,-172.76 112.05,-169.93"/>
<polygon fill="#63b8ff" stroke="#63b8ff" points="329.75,-329.45 339.11,-324.49 328.7,-322.53 329.75,-329.45"/>
</a>
</g>
</g>
<!-- Node16&#45;&gt;Node14 -->
<g id="edge19_Node000016_Node000014" class="edge">
<title>Node16&#45;&gt;Node14</title>
<g id="a_edge19_Node000016_Node000014"><a xlink:title=" ">
<path fill="none" stroke="#63b8ff" d="M329.89,-301.37C298.55,-294.08 261.55,-285.47 240.18,-280.49"/>
<polygon fill="#63b8ff" stroke="#63b8ff" points="328.7,-304.69 339.23,-303.55 330.29,-297.87 328.7,-304.69"/>
</a>
</g>
</g>
<!-- Node17&#45;&gt;Node3 -->
<g id="edge22_Node000017_Node000003" class="edge">
<title>Node17&#45;&gt;Node3</title>
<g id="a_edge22_Node000017_Node000003"><a xlink:title=" ">
<path fill="none" stroke="#63b8ff" d="M173.95,-223.15C167.82,-221.23 161.63,-219.27 155.75,-217.38 143.54,-213.44 129.9,-208.86 119.08,-205.18"/>
<polygon fill="#63b8ff" stroke="#63b8ff" points="172.79,-226.45 183.38,-226.08 174.87,-219.77 172.79,-226.45"/>
</a>
</g>
</g>
<!-- Node17&#45;&gt;Node4 -->
<g id="edge23_Node000017_Node000004" class="edge">
<title>Node17&#45;&gt;Node4</title>
<g id="a_edge23_Node000017_Node000004"><a xlink:title=" ">
<path fill="none" stroke="#63b8ff" d="M164.45,-222.12C161.44,-220.67 158.51,-219.09 155.75,-217.38 135.99,-205.1 136.08,-195.95 119.75,-179.38 116.68,-176.26 113.3,-172.92 110.18,-169.88"/>
<polygon fill="#63b8ff" stroke="#63b8ff" points="162.99,-225.31 173.56,-225.99 165.72,-218.86 162.99,-225.31"/>
</a>
</g>
</g>
<!-- Node18&#45;&gt;Node5 -->
<g id="edge26_Node000018_Node000005" class="edge">
<title>Node18&#45;&gt;Node5</title>
<g id="a_edge26_Node000018_Node000005"><a xlink:title=" ">
<path fill="none" stroke="#63b8ff" d="M319.27,-417.08C255.03,-405.19 161.55,-387.9 120.23,-380.26"/>
<polygon fill="#63b8ff" stroke="#63b8ff" points="318.55,-420.5 329.02,-418.88 319.83,-413.62 318.55,-420.5"/>
</a>
</g>
</g>
<!-- Node18&#45;&gt;Node9 -->
<g id="edge25_Node000018_Node000009" class="edge">
<title>Node18&#45;&gt;Node9</title>
<g id="a_edge25_Node000018_Node000009"><a xlink:title=" ">
<path fill="none" stroke="#63b8ff" d="M319.29,-437.11C298.21,-439.56 275.73,-442.18 257.75,-444.27"/>
<polygon fill="#63b8ff" stroke="#63b8ff" points="319.45,-440.62 328.98,-435.98 318.64,-433.66 319.45,-440.62"/>
</a>
</g>
</g>
<!-- Node20&#45;&gt;Node9 -->
<g id="edge30_Node000020_Node000009" class="edge">
<title>Node20&#45;&gt;Node9</title>
<g id="a_edge30_Node000020_Node000009"><a xlink:title=" ">
<path fill="none" stroke="#63b8ff" d="M497.77,-510.42C483.4,-515.98 466.31,-521.61 450.25,-524.38 394.63,-533.96 376.77,-542.3 323.25,-524.38 284.4,-511.36 248.55,-476.81 232.04,-459.13"/>
<polygon fill="#63b8ff" stroke="#63b8ff" points="498.8,-513.78 506.77,-506.79 496.18,-507.29 498.8,-513.78"/>
</a>
</g>
</g>
<!-- Node21&#45;&gt;Node2 -->
<g id="edge32_Node000021_Node000002" class="edge">
<title>Node21&#45;&gt;Node2</title>
<g id="a_edge32_Node000021_Node000002"><a xlink:title=" ">
<path fill="none" stroke="#63b8ff" d="M490.53,-158.52C429.51,-167.6 316.35,-184.42 258.53,-193.02"/>
<polygon fill="#63b8ff" stroke="#63b8ff" points="490.77,-162.02 500.15,-157.09 489.74,-155.1 490.77,-162.02"/>
</a>
</g>
</g>
<!-- Node21&#45;&gt;Node9 -->
<g id="edge47_Node000021_Node000009" class="edge">
<title>Node21&#45;&gt;Node9</title>
<g id="a_edge47_Node000021_Node000009"><a xlink:title=" ">
<path fill="none" stroke="#63b8ff" d="M492.4,-166.32C490.12,-168.11 488.03,-170.12 486.25,-172.38 430.31,-243.29 510.42,-305.02 450.25,-372.38 411,-416.31 379.07,-391.52 323.25,-410.38 298.1,-418.87 269.85,-429.63 249.68,-437.53"/>
<polygon fill="#63b8ff" stroke="#63b8ff" points="493.97,-169.47 500.67,-161.27 490.31,-163.5 493.97,-169.47"/>
</a>
</g>
</g>
<!-- Node21&#45;&gt;Node13 -->
<g id="edge38_Node000021_Node000013" class="edge">
<title>Node21&#45;&gt;Node13</title>
<g id="a_edge38_Node000021_Node000013"><a xlink:title=" ">
<path fill="none" stroke="#63b8ff" d="M519.73,-131.85C501.69,-101.93 468.04,-48.36 450.25,-34.38 441.84,-27.77 431.41,-22.81 421.48,-19.17"/>
<polygon fill="#63b8ff" stroke="#63b8ff" points="516.7,-133.6 524.84,-140.39 522.71,-130.01 516.7,-133.6"/>
</a>
</g>
</g>
<!-- Node21&#45;&gt;Node17 -->
<g id="edge45_Node000021_Node000017" class="edge">
<title>Node21&#45;&gt;Node17</title>
<g id="a_edge45_Node000021_Node000017"><a xlink:title=" ">
<path fill="none" stroke="#63b8ff" d="M496.87,-167.75C477,-176.41 455.13,-185.81 450.25,-187.38 392.82,-205.81 325.09,-219.72 278.5,-228.13"/>
<polygon fill="#63b8ff" stroke="#63b8ff" points="498.13,-171.02 505.89,-163.81 495.33,-164.6 498.13,-171.02"/>
</a>
</g>
</g>
<!-- Node21&#45;&gt;Node18 -->
<g id="edge46_Node000021_Node000018" class="edge">
<title>Node21&#45;&gt;Node18</title>
<g id="a_edge46_Node000021_Node000018"><a xlink:title=" ">
<path fill="none" stroke="#63b8ff" d="M492.34,-166.27C490.07,-168.07 488,-170.1 486.25,-172.38 422.38,-255.44 516.03,-323.81 450.25,-405.38 445.73,-410.98 439.73,-415.28 433.23,-418.58"/>
<polygon fill="#63b8ff" stroke="#63b8ff" points="493.9,-169.42 500.58,-161.2 490.23,-163.46 493.9,-169.42"/>
</a>
</g>
</g>
<!-- Node22 -->
<g id="Node000022" class="node">
<title>Node22</title>
<g id="a_Node000022"><a xlink:href="carrinho_2nrf24__avr_8c.html#a5af2f11537aed8a56d8489355af0ff16" target="_top" xlink:title=" ">
<polygon fill="white" stroke="#666666" points="287.25,-130.75 155.75,-130.75 155.75,-110 287.25,-110 287.25,-130.75"/>
<text xml:space="preserve" text-anchor="middle" x="221.5" y="-117.25" font-family="Helvetica,sans-Serif" font-size="10.00">nrf24_openReadingPipe</text>
</a>
</g>
</g>
<!-- Node21&#45;&gt;Node22 -->
<g id="edge33_Node000021_Node000022" class="edge">
<title>Node21&#45;&gt;Node22</title>
<g id="a_edge33_Node000021_Node000022"><a xlink:title=" ">
<path fill="none" stroke="#63b8ff" d="M515.18,-133.65C500.01,-118.16 476.1,-97.3 450.25,-88.38 379.3,-63.87 289.73,-92.62 247.15,-109.62"/>
<polygon fill="#63b8ff" stroke="#63b8ff" points="512.22,-135.62 521.63,-140.5 517.32,-130.82 512.22,-135.62"/>
</a>
</g>
</g>
<!-- Node23 -->
<g id="Node000023" class="node">
<title>Node23</title>
<g id="a_Node000023"><a xlink:href="carrinho_2nrf24__avr_8c.html#a21d638882f746748de35324bdc21f448" target="_top" xlink:title=" ">
<polygon fill="white" stroke="#666666" points="450.25,-363.75 323.25,-363.75 323.25,-343 450.25,-343 450.25,-363.75"/>
<text xml:space="preserve" text-anchor="middle" x="386.75" y="-350.25" font-family="Helvetica,sans-Serif" font-size="10.00">nrf24_openWritingPipe</text>
</a>
</g>
</g>
<!-- Node21&#45;&gt;Node23 -->
<g id="edge36_Node000021_Node000023" class="edge">
<title>Node21&#45;&gt;Node23</title>
<g id="a_edge36_Node000021_Node000023"><a xlink:title=" ">
<path fill="none" stroke="#63b8ff" d="M492.33,-166.55C490.09,-168.28 488.03,-170.21 486.25,-172.38 439.64,-228.98 499.72,-279.26 450.25,-333.38 446.87,-337.07 442.8,-340.09 438.39,-342.56"/>
<polygon fill="#63b8ff" stroke="#63b8ff" points="493.66,-169.84 500.36,-161.63 490.01,-163.87 493.66,-169.84"/>
</a>
</g>
</g>
<!-- Node24 -->
<g id="Node000024" class="node">
<title>Node24</title>
<g id="a_Node000024"><a xlink:href="carrinho_2nrf24__avr_8c.html#a49aa88b1042d6d62114cfbca271d9e2b" target="_top" xlink:title=" ">
<polygon fill="white" stroke="#666666" points="272.25,-169.75 170.75,-169.75 170.75,-149 272.25,-149 272.25,-169.75"/>
<text xml:space="preserve" text-anchor="middle" x="221.5" y="-156.25" font-family="Helvetica,sans-Serif" font-size="10.00">nrf24_setChannel</text>
</a>
</g>
</g>
<!-- Node21&#45;&gt;Node24 -->
<g id="edge39_Node000021_Node000024" class="edge">
<title>Node21&#45;&gt;Node24</title>
<g id="a_edge39_Node000021_Node000024"><a xlink:title=" ">
<path fill="none" stroke="#63b8ff" d="M509.11,-134.9C493.48,-124.06 471.76,-111.13 450.25,-105.38 395.72,-90.8 375.7,-84.52 323.25,-105.38 302.8,-113.51 306.26,-128.28 287.25,-139.38 281.05,-142.99 274.13,-146.02 267.18,-148.54"/>
<polygon fill="#63b8ff" stroke="#63b8ff" points="507.04,-137.73 517.2,-140.75 511.14,-132.05 507.04,-137.73"/>
</a>
</g>
</g>
<!-- Node25 -->
<g id="Node000025" class="node">
<title>Node25</title>
<g id="a_Node000025"><a xlink:href="carrinho_2nrf24__avr_8c.html#aaf2900e7932ebbf7f0ecdc6bce5840e1" target="_top" xlink:title=" ">
<polygon fill="white" stroke="#666666" points="447.25,-134.75 326.25,-134.75 326.25,-114 447.25,-114 447.25,-134.75"/>
<text xml:space="preserve" text-anchor="middle" x="386.75" y="-121.25" font-family="Helvetica,sans-Serif" font-size="10.00">nrf24_setPayloadSize</text>
</a>
</g>
</g>
<!-- Node21&#45;&gt;Node25 -->
<g id="edge42_Node000021_Node000025" class="edge">
<title>Node21&#45;&gt;Node25</title>
<g id="a_edge42_Node000021_Node000025"><a xlink:title=" ">
<path fill="none" stroke="#63b8ff" d="M490.44,-144.33C475.83,-141.49 459.15,-138.25 443.54,-135.21"/>
<polygon fill="#63b8ff" stroke="#63b8ff" points="489.69,-147.75 500.18,-146.22 491.03,-140.87 489.69,-147.75"/>
</a>
</g>
</g>
<!-- Node22&#45;&gt;Node3 -->
<g id="edge34_Node000022_Node000003" class="edge">
<title>Node22&#45;&gt;Node3</title>
<g id="a_edge34_Node000022_Node000003"><a xlink:title=" ">
<path fill="none" stroke="#63b8ff" d="M164.45,-135.63C161.44,-137.08 158.51,-138.66 155.75,-140.38 135.99,-152.65 136.08,-161.8 119.75,-178.38 116.68,-181.49 113.3,-184.83 110.18,-187.87"/>
<polygon fill="#63b8ff" stroke="#63b8ff" points="165.72,-138.89 173.56,-131.76 162.99,-132.44 165.72,-138.89"/>
</a>
</g>
</g>
<!-- Node22&#45;&gt;Node4 -->
<g id="edge35_Node000022_Node000004" class="edge">
<title>Node22&#45;&gt;Node4</title>
<g id="a_edge35_Node000022_Node000004"><a xlink:title=" ">
<path fill="none" stroke="#63b8ff" d="M173.95,-134.6C167.82,-136.52 161.63,-138.48 155.75,-140.38 143.54,-144.31 129.9,-148.89 119.08,-152.57"/>
<polygon fill="#63b8ff" stroke="#63b8ff" points="174.87,-137.98 183.38,-131.67 172.79,-131.3 174.87,-137.98"/>
</a>
</g>
</g>
<!-- Node23&#45;&gt;Node5 -->
<g id="edge37_Node000023_Node000005" class="edge">
<title>Node23&#45;&gt;Node5</title>
<g id="a_edge37_Node000023_Node000005"><a xlink:title=" ">
<path fill="none" stroke="#63b8ff" d="M311.64,-359.32C247.72,-364.46 159.64,-371.53 120.02,-374.71"/>
<polygon fill="#63b8ff" stroke="#63b8ff" points="311.68,-362.83 321.37,-358.54 311.12,-355.86 311.68,-362.83"/>
</a>
</g>
</g>
<!-- Node24&#45;&gt;Node3 -->
<g id="edge40_Node000024_Node000003" class="edge">
<title>Node24&#45;&gt;Node3</title>
<g id="a_edge40_Node000024_Node000003"><a xlink:title=" ">
<path fill="none" stroke="#63b8ff" d="M173.95,-173.6C167.82,-175.52 161.63,-177.48 155.75,-179.38 143.54,-183.31 129.9,-187.89 119.08,-191.57"/>
<polygon fill="#63b8ff" stroke="#63b8ff" points="174.87,-176.98 183.38,-170.67 172.79,-170.3 174.87,-176.98"/>
</a>
</g>
</g>
<!-- Node24&#45;&gt;Node4 -->
<g id="edge41_Node000024_Node000004" class="edge">
<title>Node24&#45;&gt;Node4</title>
<g id="a_edge41_Node000024_Node000004"><a xlink:title=" ">
<path fill="none" stroke="#63b8ff" d="M159.33,-159.38C144.67,-159.38 130.07,-159.38 118.92,-159.38"/>
<polygon fill="#63b8ff" stroke="#63b8ff" points="158.97,-162.88 168.97,-159.38 158.97,-155.88 158.97,-162.88"/>
</a>
</g>
</g>
<!-- Node25&#45;&gt;Node2 -->
<g id="edge44_Node000025_Node000002" class="edge">
<title>Node25&#45;&gt;Node2</title>
<g id="a_edge44_Node000025_Node000002"><a xlink:title=" ">
<path fill="none" stroke="#63b8ff" d="M341.32,-139.35C335.09,-142.04 328.9,-145.06 323.25,-148.38 305.29,-158.92 305.56,-168.44 287.25,-178.38 278.46,-183.14 268.37,-186.95 258.81,-189.91"/>
<polygon fill="#63b8ff" stroke="#63b8ff" points="342.37,-142.7 350.32,-135.7 339.74,-136.21 342.37,-142.7"/>
</a>
</g>
</g>
<!-- Node25&#45;&gt;Node4 -->
<g id="edge43_Node000025_Node000004" class="edge">
<title>Node25&#45;&gt;Node4</title>
<g id="a_edge43_Node000025_Node000004"><a xlink:title=" ">
<path fill="none" stroke="#63b8ff" d="M348.03,-109.83C301.05,-94.09 219.25,-74.59 155.75,-101.38 132.95,-110.99 114.8,-134.8 105.68,-148.74"/>
<polygon fill="#63b8ff" stroke="#63b8ff" points="346.61,-113.04 357.2,-113.02 348.91,-106.43 346.61,-113.04"/>
</a>
</g>
</g>
</g>
</svg>
