<?xml version="1.0" encoding="UTF-8" standalone="no"?>
<!DOCTYPE svg PUBLIC "-//W3C//DTD SVG 1.1//EN"
 "http://www.w3.org/Graphics/SVG/1.1/DTD/svg11.dtd">
<!-- Generated by graphviz version 14.0.4 (0)
 -->
<!-- Title: loop Pages: 1 -->
<svg width="521pt" height="203pt"
 viewBox="0.00 0.00 521.00 203.00" xmlns="http://www.w3.org/2000/svg" xmlns:xlink="http://www.w3.org/1999/xlink">
<g id="graph0" class="graph" transform="scale(1 1) rotate(0) translate(4 198.75)">
<title>loop</title>
<!-- Node1 -->
<g id="Node000001" class="node">
<title>Node1</title>
<g id="a_Node000001"><a xlink:title=" ">
<polygon fill="#999999" stroke="#666666" points="37,-117.75 0,-117.75 0,-97 37,-97 37,-117.75"/>
<text xml:space="preserve" text-anchor="middle" x="18.5" y="-104.25" font-family="Helvetica,sans-Serif" font-size="10.00">loop</text>
</a>
</g>
</g>
<!-- Node2 -->
<g id="Node000002" class="node">
<title>Node2</title>
<g id="a_Node000002"><a xlink:href="carrinho_8c.html#aaa87dddb1e62142fd07ee17db1b5d673" target="_top" xlink:title=" ">
<polygon fill="white" stroke="#666666" points="135.5,-194.75 102.25,-194.75 102.25,-174 135.5,-174 135.5,-194.75"/>
<text xml:space="preserve" text-anchor="middle" x="118.88" y="-181.25" font-family="Helvetica,sans-Serif" font-size="10.00">abs</text>
</a>
</g>
</g>
<!-- Node1&#45;&gt;Node2 -->
<g id="edge1_Node000001_Node000002" class="edge">
<title>Node1&#45;&gt;Node2</title>
<g id="a_edge1_Node000001_Node000002"><a xlink:title=" ">
<path fill="none" stroke="#63b8ff" d="M27.19,-117.82C36.77,-130.26 54.2,-151 73,-164.38 78.7,-168.43 85.35,-171.94 91.76,-174.83"/>
<polygon fill="#63b8ff" stroke="#63b8ff" points="90.13,-177.95 100.71,-178.54 92.81,-171.48 90.13,-177.95"/>
</a>
</g>
</g>
<!-- Node3 -->
<g id="Node000003" class="node">
<title>Node3</title>
<g id="a_Node000003"><a xlink:href="carrinho_8c.html#a83f9abde8522ce95dd4c5ce5ba3d9d39" target="_top" xlink:title=" ">
<polygon fill="white" stroke="#666666" points="141.5,-137.75 96.25,-137.75 96.25,-117 141.5,-117 141.5,-137.75"/>
<text xml:space="preserve" text-anchor="middle" x="118.88" y="-124.25" font-family="Helvetica,sans-Serif" font-size="10.00">motor</text>
</a>
</g>
</g>
<!-- Node1&#45;&gt;Node3 -->
<g id="edge2_Node000001_Node000003" class="edge">
<title>Node1&#45;&gt;Node3</title>
<g id="a_edge2_Node000001_Node000003"><a xlink:title=" ">
<path fill="none" stroke="#63b8ff" d="M37.09,-110.95C50.34,-113.64 68.9,-117.42 84.89,-120.67"/>
<polygon fill="#63b8ff" stroke="#63b8ff" points="83.98,-124.06 94.48,-122.62 85.38,-117.2 83.98,-124.06"/>
</a>
</g>
</g>
<!-- Node5 -->
<g id="Node000005" class="node">
<title>Node5</title>
<g id="a_Node000005"><a xlink:href="carrinho_2nrf24__avr_8c.html#a0f64caa74329fd5799a33f30bd8ebf82" target="_top" xlink:title=" ">
<polygon fill="white" stroke="#666666" points="164.75,-98.75 73,-98.75 73,-78 164.75,-78 164.75,-98.75"/>
<text xml:space="preserve" text-anchor="middle" x="118.88" y="-85.25" font-family="Helvetica,sans-Serif" font-size="10.00">nrf24_available</text>
</a>
</g>
</g>
<!-- Node1&#45;&gt;Node5 -->
<g id="edge5_Node000001_Node000005" class="edge">
<title>Node1&#45;&gt;Node5</title>
<g id="a_edge5_Node000001_Node000005"><a xlink:title=" ">
<path fill="none" stroke="#63b8ff" d="M37.09,-103.98C44.08,-102.63 52.56,-100.99 61.35,-99.29"/>
<polygon fill="#63b8ff" stroke="#63b8ff" points="61.93,-102.75 71.08,-97.41 60.6,-95.87 61.93,-102.75"/>
</a>
</g>
</g>
<!-- Node11 -->
<g id="Node000011" class="node">
<title>Node11</title>
<g id="a_Node000011"><a xlink:href="carrinho_2nrf24__avr_8c.html#aa0767db791fc0b45ebadab011c1900bf" target="_top" xlink:title=" ">
<polygon fill="white" stroke="#666666" points="153.12,-59.75 84.62,-59.75 84.62,-39 153.12,-39 153.12,-59.75"/>
<text xml:space="preserve" text-anchor="middle" x="118.88" y="-46.25" font-family="Helvetica,sans-Serif" font-size="10.00">nrf24_read</text>
</a>
</g>
</g>
<!-- Node1&#45;&gt;Node11 -->
<g id="edge12_Node000001_Node000011" class="edge">
<title>Node1&#45;&gt;Node11</title>
<g id="a_edge12_Node000001_Node000011"><a xlink:title=" ">
<path fill="none" stroke="#63b8ff" d="M33.08,-96.59C43.6,-88.51 58.75,-77.5 73,-69.38 75.62,-67.88 78.37,-66.42 81.17,-65.01"/>
<polygon fill="#63b8ff" stroke="#63b8ff" points="82.46,-68.27 89.97,-60.81 79.44,-61.95 82.46,-68.27"/>
</a>
</g>
</g>
<!-- Node3&#45;&gt;Node3 -->
<g id="edge4_Node000003_Node000003" class="edge">
<title>Node3&#45;&gt;Node3</title>
<g id="a_edge4_Node000003_Node000003"><a xlink:title=" ">
<path fill="none" stroke="#63b8ff" d="M102.7,-138.15C96.23,-146.81 101.62,-155.75 118.88,-155.75 128.04,-155.75 133.86,-153.23 136.33,-149.56"/>
<polygon fill="#63b8ff" stroke="#63b8ff" points="139.81,-149.2 135.22,-139.65 132.85,-149.98 139.81,-149.2"/>
</a>
</g>
</g>
<!-- Node4 -->
<g id="Node000004" class="node">
<title>Node4</title>
<g id="a_Node000004"><a xlink:href="carrinho_8c.html#ac7c0935e24e573b2929d0df7f9e6b82f" target="_top" xlink:title=" ">
<polygon fill="white" stroke="#666666" points="281.25,-137.75 202.25,-137.75 202.25,-117 281.25,-117 281.25,-137.75"/>
<text xml:space="preserve" text-anchor="middle" x="241.75" y="-124.25" font-family="Helvetica,sans-Serif" font-size="10.00">analog_write</text>
</a>
</g>
</g>
<!-- Node3&#45;&gt;Node4 -->
<g id="edge3_Node000003_Node000004" class="edge">
<title>Node3&#45;&gt;Node4</title>
<g id="a_edge3_Node000003_Node000004"><a xlink:title=" ">
<path fill="none" stroke="#63b8ff" d="M141.76,-127.38C155.36,-127.38 173.43,-127.38 190.4,-127.38"/>
<polygon fill="#63b8ff" stroke="#63b8ff" points="190.4,-130.88 200.4,-127.38 190.4,-123.88 190.4,-130.88"/>
</a>
</g>
</g>
<!-- Node6 -->
<g id="Node000006" class="node">
<title>Node6</title>
<g id="a_Node000006"><a xlink:href="carrinho_2nrf24__avr_8c.html#abefdb1d58b989853c0646a6c8b18b7d3" target="_top" xlink:title=" ">
<polygon fill="white" stroke="#666666" points="271.12,-98.75 212.38,-98.75 212.38,-78 271.12,-78 271.12,-98.75"/>
<text xml:space="preserve" text-anchor="middle" x="241.75" y="-85.25" font-family="Helvetica,sans-Serif" font-size="10.00">read_reg</text>
</a>
</g>
</g>
<!-- Node5&#45;&gt;Node6 -->
<g id="edge6_Node000005_Node000006" class="edge">
<title>Node5&#45;&gt;Node6</title>
<g id="a_edge6_Node000005_Node000006"><a xlink:title=" ">
<path fill="none" stroke="#63b8ff" d="M165.23,-88.38C176.86,-88.38 189.29,-88.38 200.64,-88.38"/>
<polygon fill="#63b8ff" stroke="#63b8ff" points="200.48,-91.88 210.48,-88.38 200.48,-84.88 200.48,-91.88"/>
</a>
</g>
</g>
<!-- Node7 -->
<g id="Node000007" class="node">
<title>Node7</title>
<g id="a_Node000007"><a xlink:href="carrinho_2nrf24__avr_8c.html#adaef88bc02a8e805de3b3a82bf317549" target="_top" xlink:title=" ">
<polygon fill="white" stroke="#666666" points="385,-59.75 326.25,-59.75 326.25,-39 385,-39 385,-59.75"/>
<text xml:space="preserve" text-anchor="middle" x="355.62" y="-46.25" font-family="Helvetica,sans-Serif" font-size="10.00">csn_high</text>
</a>
</g>
</g>
<!-- Node6&#45;&gt;Node7 -->
<g id="edge7_Node000006_Node000007" class="edge">
<title>Node6&#45;&gt;Node7</title>
<g id="a_edge7_Node000006_Node000007"><a xlink:title=" ">
<path fill="none" stroke="#63b8ff" d="M271.56,-78.33C284.87,-73.69 300.89,-68.11 315.29,-63.09"/>
<polygon fill="#63b8ff" stroke="#63b8ff" points="316.19,-66.48 324.48,-59.88 313.89,-59.87 316.19,-66.48"/>
</a>
</g>
</g>
<!-- Node9 -->
<g id="Node000009" class="node">
<title>Node9</title>
<g id="a_Node000009"><a xlink:href="carrinho_2nrf24__avr_8c.html#a42f8c1120431b7c37e116a4e1eac1cc2" target="_top" xlink:title=" ">
<polygon fill="white" stroke="#666666" points="383.12,-98.75 328.12,-98.75 328.12,-78 383.12,-78 383.12,-98.75"/>
<text xml:space="preserve" text-anchor="middle" x="355.62" y="-85.25" font-family="Helvetica,sans-Serif" font-size="10.00">csn_low</text>
</a>
</g>
</g>
<!-- Node6&#45;&gt;Node9 -->
<g id="edge9_Node000006_Node000009" class="edge">
<title>Node6&#45;&gt;Node9</title>
<g id="a_edge9_Node000006_Node000009"><a xlink:title=" ">
<path fill="none" stroke="#63b8ff" d="M271.56,-88.38C285.25,-88.38 301.8,-88.38 316.52,-88.38"/>
<polygon fill="#63b8ff" stroke="#63b8ff" points="316.32,-91.88 326.32,-88.38 316.32,-84.88 316.32,-91.88"/>
</a>
</g>
</g>
<!-- Node10 -->
<g id="Node000010" class="node">
<title>Node10</title>
<g id="a_Node000010"><a xlink:href="carrinho_2nrf24__avr_8c.html#a8d161d483c095113df5b69798e9cd725" target="_top" xlink:title=" ">
<polygon fill="white" stroke="#666666" points="392.5,-20.75 318.75,-20.75 318.75,0 392.5,0 392.5,-20.75"/>
<text xml:space="preserve" text-anchor="middle" x="355.62" y="-7.25" font-family="Helvetica,sans-Serif" font-size="10.00">spi_transfer</text>
</a>
</g>
</g>
<!-- Node6&#45;&gt;Node10 -->
<g id="edge11_Node000006_Node000010" class="edge">
<title>Node6&#45;&gt;Node10</title>
<g id="a_edge11_Node000006_Node000010"><a xlink:title=" ">
<path fill="none" stroke="#63b8ff" d="M267.66,-77.61C272.85,-74.91 278.13,-71.8 282.75,-68.38 301.44,-54.52 300.38,-44.65 318.75,-30.38 320.22,-29.23 321.77,-28.11 323.35,-27.03"/>
<polygon fill="#63b8ff" stroke="#63b8ff" points="324.78,-30.26 331.42,-22 321.08,-24.32 324.78,-30.26"/>
</a>
</g>
</g>
<!-- Node8 -->
<g id="Node000008" class="node">
<title>Node8</title>
<g id="a_Node000008"><a xlink:href="carrinho_2nrf24__avr_8c.html#a019970fc17b6b18fa4e45e0baf22c93f" target="_top" xlink:title=" ">
<polygon fill="white" stroke="#666666" points="512.75,-78.75 428.5,-78.75 428.5,-58 512.75,-58 512.75,-78.75"/>
<text xml:space="preserve" text-anchor="middle" x="470.62" y="-65.25" font-family="Helvetica,sans-Serif" font-size="10.00">digitalWrite_d</text>
</a>
</g>
</g>
<!-- Node7&#45;&gt;Node8 -->
<g id="edge8_Node000007_Node000008" class="edge">
<title>Node7&#45;&gt;Node8</title>
<g id="a_edge8_Node000007_Node000008"><a xlink:title=" ">
<path fill="none" stroke="#63b8ff" d="M385.43,-54.22C395.04,-55.83 406.07,-57.69 416.91,-59.51"/>
<polygon fill="#63b8ff" stroke="#63b8ff" points="416.14,-62.93 426.58,-61.14 417.3,-56.03 416.14,-62.93"/>
</a>
</g>
</g>
<!-- Node9&#45;&gt;Node8 -->
<g id="edge10_Node000009_Node000008" class="edge">
<title>Node9&#45;&gt;Node8</title>
<g id="a_edge10_Node000009_Node000008"><a xlink:title=" ">
<path fill="none" stroke="#63b8ff" d="M383.4,-83.64C393.49,-81.85 405.35,-79.75 416.99,-77.69"/>
<polygon fill="#63b8ff" stroke="#63b8ff" points="417.29,-81.19 426.52,-76 416.07,-74.3 417.29,-81.19"/>
</a>
</g>
</g>
<!-- Node12 -->
<g id="Node000012" class="node">
<title>Node12</title>
<g id="a_Node000012"><a xlink:href="carrinho_2nrf24__avr_8c.html#ac4a676257b5b86b05f4ea608636cb2cf" target="_top" xlink:title=" ">
<polygon fill="white" stroke="#666666" points="282.75,-20.75 200.75,-20.75 200.75,0 282.75,0 282.75,-20.75"/>
<text xml:space="preserve" text-anchor="middle" x="241.75" y="-7.25" font-family="Helvetica,sans-Serif" font-size="10.00">read_payload</text>
</a>
</g>
</g>
<!-- Node11&#45;&gt;Node12 -->
<g id="edge13_Node000011_Node000012" class="edge">
<title>Node11&#45;&gt;Node12</title>
<g id="a_edge13_Node000011_Node000012"><a xlink:title=" ">
<path fill="none" stroke="#63b8ff" d="M153.55,-38.51C166.91,-34.2 182.45,-29.18 196.69,-24.59"/>
<polygon fill="#63b8ff" stroke="#63b8ff" points="197.38,-28.05 205.82,-21.65 195.23,-21.38 197.38,-28.05"/>
</a>
</g>
</g>
<!-- Node13 -->
<g id="Node000013" class="node">
<title>Node13</title>
<g id="a_Node000013"><a xlink:href="carrinho_2nrf24__avr_8c.html#a08bc978021db604d02a6da754f73e7e2" target="_top" xlink:title=" ">
<polygon fill="white" stroke="#666666" points="272.62,-59.75 210.88,-59.75 210.88,-39 272.62,-39 272.62,-59.75"/>
<text xml:space="preserve" text-anchor="middle" x="241.75" y="-46.25" font-family="Helvetica,sans-Serif" font-size="10.00">write_reg</text>
</a>
</g>
</g>
<!-- Node11&#45;&gt;Node13 -->
<g id="edge17_Node000011_Node000013" class="edge">
<title>Node11&#45;&gt;Node13</title>
<g id="a_edge17_Node000011_Node000013"><a xlink:title=" ">
<path fill="none" stroke="#63b8ff" d="M153.55,-49.38C167.66,-49.38 184.21,-49.38 199.08,-49.38"/>
<polygon fill="#63b8ff" stroke="#63b8ff" points="199.05,-52.88 209.05,-49.38 199.05,-45.88 199.05,-52.88"/>
</a>
</g>
</g>
<!-- Node12&#45;&gt;Node7 -->
<g id="edge14_Node000012_Node000007" class="edge">
<title>Node12&#45;&gt;Node7</title>
<g id="a_edge14_Node000012_Node000007"><a xlink:title=" ">
<path fill="none" stroke="#63b8ff" d="M273.91,-21.24C286.77,-25.72 301.81,-30.96 315.41,-35.7"/>
<polygon fill="#63b8ff" stroke="#63b8ff" points="313.9,-38.89 324.5,-38.87 316.21,-32.28 313.9,-38.89"/>
</a>
</g>
</g>
<!-- Node12&#45;&gt;Node9 -->
<g id="edge15_Node000012_Node000009" class="edge">
<title>Node12&#45;&gt;Node9</title>
<g id="a_edge15_Node000012_Node000009"><a xlink:title=" ">
<path fill="none" stroke="#63b8ff" d="M267.66,-21.14C272.85,-23.84 278.13,-26.95 282.75,-30.38 301.44,-44.23 300.38,-54.1 318.75,-68.38 320.22,-69.52 321.77,-70.64 323.35,-71.72"/>
<polygon fill="#63b8ff" stroke="#63b8ff" points="321.08,-74.43 331.42,-76.75 324.78,-68.49 321.08,-74.43"/>
</a>
</g>
</g>
<!-- Node12&#45;&gt;Node10 -->
<g id="edge16_Node000012_Node000010" class="edge">
<title>Node12&#45;&gt;Node10</title>
<g id="a_edge16_Node000012_Node000010"><a xlink:title=" ">
<path fill="none" stroke="#63b8ff" d="M283.14,-10.38C290.88,-10.38 299.05,-10.38 306.99,-10.38"/>
<polygon fill="#63b8ff" stroke="#63b8ff" points="306.87,-13.88 316.87,-10.38 306.87,-6.88 306.87,-13.88"/>
</a>
</g>
</g>
<!-- Node13&#45;&gt;Node7 -->
<g id="edge18_Node000013_Node000007" class="edge">
<title>Node13&#45;&gt;Node7</title>
<g id="a_edge18_Node000013_Node000007"><a xlink:title=" ">
<path fill="none" stroke="#63b8ff" d="M273.02,-49.38C285.87,-49.38 301.01,-49.38 314.74,-49.38"/>
<polygon fill="#63b8ff" stroke="#63b8ff" points="314.35,-52.88 324.35,-49.38 314.35,-45.88 314.35,-52.88"/>
</a>
</g>
</g>
<!-- Node13&#45;&gt;Node9 -->
<g id="edge19_Node000013_Node000009" class="edge">
<title>Node13&#45;&gt;Node9</title>
<g id="a_edge19_Node000013_Node000009"><a xlink:title=" ">
<path fill="none" stroke="#63b8ff" d="M273.02,-59.93C286.64,-64.67 302.84,-70.32 317.21,-75.33"/>
<polygon fill="#63b8ff" stroke="#63b8ff" points="315.74,-78.53 326.33,-78.51 318.04,-71.92 315.74,-78.53"/>
</a>
</g>
</g>
<!-- Node13&#45;&gt;Node10 -->
<g id="edge20_Node000013_Node000010" class="edge">
<title>Node13&#45;&gt;Node10</title>
<g id="a_edge20_Node000013_Node000010"><a xlink:title=" ">
<path fill="none" stroke="#63b8ff" d="M273.02,-38.82C285.26,-34.56 299.59,-29.56 312.79,-24.96"/>
<polygon fill="#63b8ff" stroke="#63b8ff" points="313.83,-28.3 322.12,-21.71 311.52,-21.69 313.83,-28.3"/>
</a>
</g>
</g>
</g>
</svg>
