<?xml version="1.0" encoding="UTF-8" standalone="no"?>
<!DOCTYPE svg PUBLIC "-//W3C//DTD SVG 1.1//EN"
 "http://www.w3.org/Graphics/SVG/1.1/DTD/svg11.dtd">
<!-- Generated by graphviz version 14.0.4 (0)
 -->
<!-- Title: main Pages: 1 -->
<!--zoomable 505 -->

<svg id="main" version="1.1" xmlns="http://www.w3.org/2000/svg" xmlns:xlink="http://www.w3.org/1999/xlink" xml:space="preserve" onload="init(evt)">

<style type="text/css"><![CDATA[
.node, .edge {opacity: 0.7;}
.node.selected, .edge.selected {opacity: 1;}
.edge:hover path { stroke: red; }
.edge:hover polygon { stroke: red; fill: red; }
]]></style>

<defs>
  <circle id="rim" cx="0" cy="0" r="7"/>
  <circle id="rim2" cx="0" cy="0" r="3.5"/>
  <g id="zoomPlus">
    <use xlink:href="#rim" fill="#404040"><set attributeName="fill" to="#808080" begin="zoomplus.mouseover" end="zoomplus.mouseout"/></use>
    <path d="M-4,0h8M0,-4v8" fill="none" stroke="white" stroke-width="1.5" pointer-events="none"/>
  </g>
  <g id="zoomMin">
    <use xlink:href="#rim" fill="#404040"><set attributeName="fill" to="#808080" begin="zoomminus.mouseover" end="zoomminus.mouseout"/></use>
    <path d="M-4,0h8" fill="none" stroke="white" stroke-width="1.5" pointer-events="none"/>
  </g>
  <g id="arrowUp" transform="translate(30 24)">
    <use xlink:href="#rim"/>
    <path pointer-events="none" fill="none" stroke="white" stroke-width="1.5" d="M0,-3.0v7 M-2.5,-0.5L0,-3.0L2.5,-0.5"/>
  </g>
  <g id="arrowRight" transform="rotate(90) translate(36 -43)">
    <use xlink:href="#rim"/>
    <path pointer-events="none" fill="none" stroke="white" stroke-width="1.5" d="M0,-3.0v7 M-2.5,-0.5L0,-3.0L2.5,-0.5"/>
  </g>
  <g id="arrowDown" transform="rotate(180) translate(-30 -48)">
    <use xlink:href="#rim"/>
    <path pointer-events="none" fill="none" stroke="white" stroke-width="1.5" d="M0,-3.0v7 M-2.5,-0.5L0,-3.0L2.5,-0.5"/>
  </g>
  <g id="arrowLeft" transform="rotate(270) translate(-36 17)">
    <use xlink:href="#rim"/>
    <path pointer-events="none" fill="none" stroke="white" stroke-width="1.5" d="M0,-3.0v7 M-2.5,-0.5L0,-3.0L2.5,-0.5"/>
  </g>
  <g id="resetDef">
    <use xlink:href="#rim2" fill="#404040"><set attributeName="fill" to="#808080" begin="reset.mouseover" end="reset.mouseout"/></use>
  </g>
</defs>
<script type="application/ecmascript">
var viewWidth = 721;
var viewHeight = 505;
var sectionId = 'dynsection-7';
</script>
<script type="application/ecmascript" xlink:href="svg.min.js"/>
<svg id="graph" class="graph">
<g id="viewport">
<title>main</title>
<!-- Node1 -->
<g id="Node000001" class="node">
<title>Node1</title>
<g id="a_Node000001"><a xlink:title=" ">
<polygon fill="#999999" stroke="#666666" points="40.75,-362.2 0,-362.2 0,-341.45 40.75,-341.45 40.75,-362.2"/>
<text xml:space="preserve" text-anchor="middle" x="20.38" y="-348.7" font-family="Helvetica,sans-Serif" font-size="10.00">main</text>
</a>
</g>
</g>
<!-- Node2 -->
<g id="Node000002" class="node">
<title>Node2</title>
<g id="a_Node000002"><a xlink:href="carrinho_8c.html#a1fc0a8f5b026eb5e606e738ca5434d2d" target="_top" xlink:title=" ">
<polygon fill="white" stroke="#666666" points="183.12,-476.2 101.88,-476.2 101.88,-455.45 183.12,-455.45 183.12,-476.2"/>
<text xml:space="preserve" text-anchor="middle" x="142.5" y="-462.7" font-family="Helvetica,sans-Serif" font-size="10.00">analog_setup</text>
</a>
</g>
</g>
<!-- Node1&#45;&gt;Node2 -->
<g id="edge1_Node000001_Node000002" class="edge">
<title>Node1&#45;&gt;Node2</title>
<g id="a_edge1_Node000001_Node000002"><a xlink:title=" ">
<path fill="none" stroke="#63b8ff" d="M25.26,-362.57C32.54,-381.25 49.94,-419.83 76.75,-441.82 81.16,-445.44 86.16,-448.54 91.38,-451.19"/>
<polygon fill="#63b8ff" stroke="#63b8ff" points="89.67,-454.25 100.22,-455.13 92.52,-447.86 89.67,-454.25"/>
</a>
</g>
</g>
<!-- Node3 -->
<g id="Node000003" class="node">
<title>Node3</title>
<g id="a_Node000003"><a xlink:href="carrinho_8c.html#afe461d27b9c48d5921c00d521181f12f" target="_top" xlink:title=" ">
<polygon fill="white" stroke="#666666" points="161,-362.2 124,-362.2 124,-341.45 161,-341.45 161,-362.2"/>
<text xml:space="preserve" text-anchor="middle" x="142.5" y="-348.7" font-family="Helvetica,sans-Serif" font-size="10.00">loop</text>
</a>
</g>
</g>
<!-- Node1&#45;&gt;Node3 -->
<g id="edge2_Node000001_Node000003" class="edge">
<title>Node1&#45;&gt;Node3</title>
<g id="a_edge2_Node000001_Node000003"><a xlink:title=" ">
<path fill="none" stroke="#63b8ff" d="M41.21,-351.82C60.55,-351.82 90.2,-351.82 112.24,-351.82"/>
<polygon fill="#63b8ff" stroke="#63b8ff" points="112.08,-355.32 122.08,-351.82 112.08,-348.32 112.08,-355.32"/>
</a>
</g>
</g>
<!-- Node5 -->
<g id="Node000005" class="node">
<title>Node5</title>
<g id="a_Node000005"><a xlink:href="carrinho_8c.html#a83f9abde8522ce95dd4c5ce5ba3d9d39" target="_top" xlink:title=" ">
<polygon fill="white" stroke="#666666" points="327.38,-479.2 282.12,-479.2 282.12,-458.45 327.38,-458.45 327.38,-479.2"/>
<text xml:space="preserve" text-anchor="middle" x="304.75" y="-465.7" font-family="Helvetica,sans-Serif" font-size="10.00">motor</text>
</a>
</g>
</g>
<!-- Node1&#45;&gt;Node5 -->
<g id="edge23_Node000001_Node000005" class="edge">
<title>Node1&#45;&gt;Node5</title>
<g id="a_edge23_Node000001_Node000005"><a xlink:title=" ">
<path fill="none" stroke="#63b8ff" d="M30.09,-362.35C40.18,-373.88 57.85,-392.16 76.75,-402.82 110.22,-421.7 216.18,-448.28 270.68,-461.19"/>
<polygon fill="#63b8ff" stroke="#63b8ff" points="269.78,-464.57 280.32,-463.45 271.39,-457.76 269.78,-464.57"/>
</a>
</g>
</g>
<!-- Node16 -->
<g id="Node000016" class="node">
<title>Node16</title>
<g id="a_Node000016"><a xlink:href="carrinho_2nrf24__avr_8c.html#ab6fb4c1aa834152310116e7dec65d8e3" target="_top" xlink:title=" ">
<polygon fill="white" stroke="#666666" points="179.38,-133.2 105.62,-133.2 105.62,-112.45 179.38,-112.45 179.38,-133.2"/>
<text xml:space="preserve" text-anchor="middle" x="142.5" y="-119.7" font-family="Helvetica,sans-Serif" font-size="10.00">nrf24_begin</text>
</a>
</g>
</g>
<!-- Node1&#45;&gt;Node16 -->
<g id="edge24_Node000001_Node000016" class="edge">
<title>Node1&#45;&gt;Node16</title>
<g id="a_edge24_Node000001_Node000016"><a xlink:title=" ">
<path fill="none" stroke="#63b8ff" d="M25.49,-341.22C34.09,-319.37 54.98,-267.94 76.75,-226.82 92.68,-196.73 114.01,-163.6 127.75,-143"/>
<polygon fill="#63b8ff" stroke="#63b8ff" points="130.66,-144.96 133.34,-134.71 124.85,-141.05 130.66,-144.96"/>
</a>
</g>
</g>
<!-- Node22 -->
<g id="Node000022" class="node">
<title>Node22</title>
<g id="a_Node000022"><a xlink:href="carrinho_2nrf24__avr_8c.html#a5af2f11537aed8a56d8489355af0ff16" target="_top" xlink:title=" ">
<polygon fill="white" stroke="#666666" points="208.25,-305.2 76.75,-305.2 76.75,-284.45 208.25,-284.45 208.25,-305.2"/>
<text xml:space="preserve" text-anchor="middle" x="142.5" y="-291.7" font-family="Helvetica,sans-Serif" font-size="10.00">nrf24_openReadingPipe</text>
</a>
</g>
</g>
<!-- Node1&#45;&gt;Node22 -->
<g id="edge34_Node000001_Node000022" class="edge">
<title>Node1&#45;&gt;Node22</title>
<g id="a_edge34_Node000001_Node000022"><a xlink:title=" ">
<path fill="none" stroke="#63b8ff" d="M41.21,-342.41C59.45,-333.75 86.86,-320.75 108.41,-310.52"/>
<polygon fill="#63b8ff" stroke="#63b8ff" points="109.86,-313.71 117.4,-306.26 106.86,-307.38 109.86,-313.71"/>
</a>
</g>
</g>
<!-- Node23 -->
<g id="Node000023" class="node">
<title>Node23</title>
<g id="a_Node000023"><a xlink:href="carrinho_2nrf24__avr_8c.html#a49aa88b1042d6d62114cfbca271d9e2b" target="_top" xlink:title=" ">
<polygon fill="white" stroke="#666666" points="193.25,-256.2 91.75,-256.2 91.75,-235.45 193.25,-235.45 193.25,-256.2"/>
<text xml:space="preserve" text-anchor="middle" x="142.5" y="-242.7" font-family="Helvetica,sans-Serif" font-size="10.00">nrf24_setChannel</text>
</a>
</g>
</g>
<!-- Node1&#45;&gt;Node23 -->
<g id="edge36_Node000001_Node000023" class="edge">
<title>Node1&#45;&gt;Node23</title>
<g id="a_edge36_Node000001_Node000023"><a xlink:title=" ">
<path fill="none" stroke="#63b8ff" d="M26.82,-341.17C35.49,-325.14 53.79,-294.68 76.75,-275.82 83.54,-270.25 91.54,-265.46 99.55,-261.45"/>
<polygon fill="#63b8ff" stroke="#63b8ff" points="101.01,-264.63 108.62,-257.26 98.08,-258.27 101.01,-264.63"/>
</a>
</g>
</g>
<!-- Node24 -->
<g id="Node000024" class="node">
<title>Node24</title>
<g id="a_Node000024"><a xlink:href="carrinho_2nrf24__avr_8c.html#a71c5628e9583f6a6fd0871b3ae1bf6df" target="_top" xlink:title=" ">
<polygon fill="white" stroke="#666666" points="361.5,-440.2 248,-440.2 248,-419.45 361.5,-419.45 361.5,-440.2"/>
<text xml:space="preserve" text-anchor="middle" x="304.75" y="-426.7" font-family="Helvetica,sans-Serif" font-size="10.00">nrf24_startListening</text>
</a>
</g>
</g>
<!-- Node1&#45;&gt;Node24 -->
<g id="edge38_Node000001_Node000024" class="edge">
<title>Node1&#45;&gt;Node24</title>
<g id="a_edge38_Node000001_Node000024"><a xlink:title=" ">
<path fill="none" stroke="#63b8ff" d="M41.25,-359.05C51.74,-362.76 64.88,-367.25 76.75,-370.82 134.2,-388.12 200.72,-405.05 246.84,-416.31"/>
<polygon fill="#63b8ff" stroke="#63b8ff" points="245.8,-419.66 256.34,-418.61 247.45,-412.85 245.8,-419.66"/>
</a>
</g>
</g>
<!-- Node4 -->
<g id="Node000004" class="node">
<title>Node4</title>
<g id="a_Node000004"><a xlink:href="carrinho_8c.html#aaa87dddb1e62142fd07ee17db1b5d673" target="_top" xlink:title=" ">
<polygon fill="white" stroke="#666666" points="321.38,-401.2 288.12,-401.2 288.12,-380.45 321.38,-380.45 321.38,-401.2"/>
<text xml:space="preserve" text-anchor="middle" x="304.75" y="-387.7" font-family="Helvetica,sans-Serif" font-size="10.00">abs</text>
</a>
</g>
</g>
<!-- Node3&#45;&gt;Node4 -->
<g id="edge3_Node000003_Node000004" class="edge">
<title>Node3&#45;&gt;Node4</title>
<g id="a_edge3_Node000003_Node000004"><a xlink:title=" ">
<path fill="none" stroke="#63b8ff" d="M161.26,-356.14C189.28,-362.96 243.91,-376.26 276.79,-384.26"/>
<polygon fill="#63b8ff" stroke="#63b8ff" points="275.81,-387.62 286.35,-386.59 277.46,-380.82 275.81,-387.62"/>
</a>
</g>
</g>
<!-- Node3&#45;&gt;Node5 -->
<g id="edge4_Node000003_Node000005" class="edge">
<title>Node3&#45;&gt;Node5</title>
<g id="a_edge4_Node000003_Node000005"><a xlink:title=" ">
<path fill="none" stroke="#63b8ff" d="M154.52,-362.33C167.43,-374.64 189.43,-395.67 208.25,-413.82 224.31,-429.32 225.2,-437.2 244.25,-448.82 252.36,-453.77 261.85,-457.67 270.83,-460.66"/>
<polygon fill="#63b8ff" stroke="#63b8ff" points="269.77,-463.99 280.36,-463.53 271.8,-457.29 269.77,-463.99"/>
</a>
</g>
</g>
<!-- Node7 -->
<g id="Node000007" class="node">
<title>Node7</title>
<g id="a_Node000007"><a xlink:href="carrinho_2nrf24__avr_8c.html#a0f64caa74329fd5799a33f30bd8ebf82" target="_top" xlink:title=" ">
<polygon fill="white" stroke="#666666" points="350.62,-362.2 258.88,-362.2 258.88,-341.45 350.62,-341.45 350.62,-362.2"/>
<text xml:space="preserve" text-anchor="middle" x="304.75" y="-348.7" font-family="Helvetica,sans-Serif" font-size="10.00">nrf24_available</text>
</a>
</g>
</g>
<!-- Node3&#45;&gt;Node7 -->
<g id="edge7_Node000003_Node000007" class="edge">
<title>Node3&#45;&gt;Node7</title>
<g id="a_edge7_Node000003_Node000007"><a xlink:title=" ">
<path fill="none" stroke="#63b8ff" d="M161.26,-351.82C181.93,-351.82 217.08,-351.82 247.3,-351.82"/>
<polygon fill="#63b8ff" stroke="#63b8ff" points="247.08,-355.32 257.08,-351.82 247.08,-348.32 247.08,-355.32"/>
</a>
</g>
</g>
<!-- Node13 -->
<g id="Node000013" class="node">
<title>Node13</title>
<g id="a_Node000013"><a xlink:href="carrinho_2nrf24__avr_8c.html#aa0767db791fc0b45ebadab011c1900bf" target="_top" xlink:title=" ">
<polygon fill="white" stroke="#666666" points="339,-323.2 270.5,-323.2 270.5,-302.45 339,-302.45 339,-323.2"/>
<text xml:space="preserve" text-anchor="middle" x="304.75" y="-309.7" font-family="Helvetica,sans-Serif" font-size="10.00">nrf24_read</text>
</a>
</g>
</g>
<!-- Node3&#45;&gt;Node13 -->
<g id="edge14_Node000003_Node000013" class="edge">
<title>Node3&#45;&gt;Node13</title>
<g id="a_edge14_Node000003_Node000013"><a xlink:title=" ">
<path fill="none" stroke="#63b8ff" d="M161.26,-347.5C184.73,-341.79 226.89,-331.53 259.28,-323.64"/>
<polygon fill="#63b8ff" stroke="#63b8ff" points="259.93,-327.09 268.82,-321.32 258.27,-320.29 259.93,-327.09"/>
</a>
</g>
</g>
<!-- Node5&#45;&gt;Node5 -->
<g id="edge6_Node000005_Node000005" class="edge">
<title>Node5&#45;&gt;Node5</title>
<g id="a_edge6_Node000005_Node000005"><a xlink:title=" ">
<path fill="none" stroke="#63b8ff" d="M282.59,-479.59C273.73,-488.26 281.12,-497.2 304.75,-497.2 317.67,-497.2 325.74,-494.52 328.95,-490.68"/>
<polygon fill="#63b8ff" stroke="#63b8ff" points="332.43,-490.28 327.18,-481.08 325.55,-491.55 332.43,-490.28"/>
</a>
</g>
</g>
<!-- Node6 -->
<g id="Node000006" class="node">
<title>Node6</title>
<g id="a_Node000006"><a xlink:href="carrinho_8c.html#ac7c0935e24e573b2929d0df7f9e6b82f" target="_top" xlink:title=" ">
<polygon fill="white" stroke="#666666" points="481.75,-479.2 402.75,-479.2 402.75,-458.45 481.75,-458.45 481.75,-479.2"/>
<text xml:space="preserve" text-anchor="middle" x="442.25" y="-465.7" font-family="Helvetica,sans-Serif" font-size="10.00">analog_write</text>
</a>
</g>
</g>
<!-- Node5&#45;&gt;Node6 -->
<g id="edge5_Node000005_Node000006" class="edge">
<title>Node5&#45;&gt;Node6</title>
<g id="a_edge5_Node000005_Node000006"><a xlink:title=" ">
<path fill="none" stroke="#63b8ff" d="M327.82,-468.82C344.92,-468.82 369.29,-468.82 391.06,-468.82"/>
<polygon fill="#63b8ff" stroke="#63b8ff" points="390.97,-472.32 400.97,-468.82 390.97,-465.32 390.97,-472.32"/>
</a>
</g>
</g>
<!-- Node8 -->
<g id="Node000008" class="node">
<title>Node8</title>
<g id="a_Node000008"><a xlink:href="carrinho_2nrf24__avr_8c.html#abefdb1d58b989853c0646a6c8b18b7d3" target="_top" xlink:title=" ">
<polygon fill="white" stroke="#666666" points="471.62,-362.2 412.88,-362.2 412.88,-341.45 471.62,-341.45 471.62,-362.2"/>
<text xml:space="preserve" text-anchor="middle" x="442.25" y="-348.7" font-family="Helvetica,sans-Serif" font-size="10.00">read_reg</text>
</a>
</g>
</g>
<!-- Node7&#45;&gt;Node8 -->
<g id="edge8_Node000007_Node000008" class="edge">
<title>Node7&#45;&gt;Node8</title>
<g id="a_edge8_Node000007_Node000008"><a xlink:title=" ">
<path fill="none" stroke="#63b8ff" d="M350.87,-351.82C367.07,-351.82 385.21,-351.82 400.97,-351.82"/>
<polygon fill="#63b8ff" stroke="#63b8ff" points="400.97,-355.32 410.97,-351.82 400.97,-348.32 400.97,-355.32"/>
</a>
</g>
</g>
<!-- Node9 -->
<g id="Node000009" class="node">
<title>Node9</title>
<g id="a_Node000009"><a xlink:href="carrinho_2nrf24__avr_8c.html#adaef88bc02a8e805de3b3a82bf317549" target="_top" xlink:title=" ">
<polygon fill="white" stroke="#666666" points="585.5,-284.2 526.75,-284.2 526.75,-263.45 585.5,-263.45 585.5,-284.2"/>
<text xml:space="preserve" text-anchor="middle" x="556.12" y="-270.7" font-family="Helvetica,sans-Serif" font-size="10.00">csn_high</text>
</a>
</g>
</g>
<!-- Node8&#45;&gt;Node9 -->
<g id="edge9_Node000008_Node000009" class="edge">
<title>Node8&#45;&gt;Node9</title>
<g id="a_edge9_Node000008_Node000009"><a xlink:title=" ">
<path fill="none" stroke="#63b8ff" d="M468.16,-341.06C473.35,-338.36 478.63,-335.24 483.25,-331.82 501.94,-317.97 500.88,-308.09 519.25,-293.82 520.72,-292.68 522.27,-291.56 523.85,-290.47"/>
<polygon fill="#63b8ff" stroke="#63b8ff" points="525.28,-293.71 531.92,-285.45 521.58,-287.77 525.28,-293.71"/>
</a>
</g>
</g>
<!-- Node11 -->
<g id="Node000011" class="node">
<title>Node11</title>
<g id="a_Node000011"><a xlink:href="carrinho_2nrf24__avr_8c.html#a42f8c1120431b7c37e116a4e1eac1cc2" target="_top" xlink:title=" ">
<polygon fill="white" stroke="#666666" points="583.62,-323.2 528.62,-323.2 528.62,-302.45 583.62,-302.45 583.62,-323.2"/>
<text xml:space="preserve" text-anchor="middle" x="556.12" y="-309.7" font-family="Helvetica,sans-Serif" font-size="10.00">csn_low</text>
</a>
</g>
</g>
<!-- Node8&#45;&gt;Node11 -->
<g id="edge11_Node000008_Node000011" class="edge">
<title>Node8&#45;&gt;Node11</title>
<g id="a_edge11_Node000008_Node000011"><a xlink:title=" ">
<path fill="none" stroke="#63b8ff" d="M472.06,-341.78C486.02,-336.91 502.96,-331.01 517.89,-325.8"/>
<polygon fill="#63b8ff" stroke="#63b8ff" points="518.61,-329.26 526.9,-322.66 516.31,-322.65 518.61,-329.26"/>
</a>
</g>
</g>
<!-- Node12 -->
<g id="Node000012" class="node">
<title>Node12</title>
<g id="a_Node000012"><a xlink:href="carrinho_2nrf24__avr_8c.html#a8d161d483c095113df5b69798e9cd725" target="_top" xlink:title=" ">
<polygon fill="white" stroke="#666666" points="593,-362.2 519.25,-362.2 519.25,-341.45 593,-341.45 593,-362.2"/>
<text xml:space="preserve" text-anchor="middle" x="556.12" y="-348.7" font-family="Helvetica,sans-Serif" font-size="10.00">spi_transfer</text>
</a>
</g>
</g>
<!-- Node8&#45;&gt;Node12 -->
<g id="edge13_Node000008_Node000012" class="edge">
<title>Node8&#45;&gt;Node12</title>
<g id="a_edge13_Node000008_Node000012"><a xlink:title=" ">
<path fill="none" stroke="#63b8ff" d="M472.06,-351.82C482.85,-351.82 495.43,-351.82 507.47,-351.82"/>
<polygon fill="#63b8ff" stroke="#63b8ff" points="507.27,-355.32 517.27,-351.82 507.27,-348.32 507.27,-355.32"/>
</a>
</g>
</g>
<!-- Node10 -->
<g id="Node000010" class="node">
<title>Node10</title>
<g id="a_Node000010"><a xlink:href="carrinho_2nrf24__avr_8c.html#a019970fc17b6b18fa4e45e0baf22c93f" target="_top" xlink:title=" ">
<polygon fill="white" stroke="#666666" points="713.25,-303.2 629,-303.2 629,-282.45 713.25,-282.45 713.25,-303.2"/>
<text xml:space="preserve" text-anchor="middle" x="671.12" y="-289.7" font-family="Helvetica,sans-Serif" font-size="10.00">digitalWrite_d</text>
</a>
</g>
</g>
<!-- Node9&#45;&gt;Node10 -->
<g id="edge10_Node000009_Node000010" class="edge">
<title>Node9&#45;&gt;Node10</title>
<g id="a_edge10_Node000009_Node000010"><a xlink:title=" ">
<path fill="none" stroke="#63b8ff" d="M585.93,-278.67C595.54,-280.28 606.57,-282.14 617.41,-283.96"/>
<polygon fill="#63b8ff" stroke="#63b8ff" points="616.64,-287.38 627.08,-285.58 617.8,-280.47 616.64,-287.38"/>
</a>
</g>
</g>
<!-- Node11&#45;&gt;Node10 -->
<g id="edge12_Node000011_Node000010" class="edge">
<title>Node11&#45;&gt;Node10</title>
<g id="a_edge12_Node000011_Node000010"><a xlink:title=" ">
<path fill="none" stroke="#63b8ff" d="M583.9,-308.08C593.99,-306.3 605.85,-304.2 617.49,-302.14"/>
<polygon fill="#63b8ff" stroke="#63b8ff" points="617.79,-305.64 627.02,-300.45 616.57,-298.75 617.79,-305.64"/>
</a>
</g>
</g>
<!-- Node14 -->
<g id="Node000014" class="node">
<title>Node14</title>
<g id="a_Node000014"><a xlink:href="carrinho_2nrf24__avr_8c.html#ac4a676257b5b86b05f4ea608636cb2cf" target="_top" xlink:title=" ">
<polygon fill="white" stroke="#666666" points="483.25,-323.2 401.25,-323.2 401.25,-302.45 483.25,-302.45 483.25,-323.2"/>
<text xml:space="preserve" text-anchor="middle" x="442.25" y="-309.7" font-family="Helvetica,sans-Serif" font-size="10.00">read_payload</text>
</a>
</g>
</g>
<!-- Node13&#45;&gt;Node14 -->
<g id="edge15_Node000013_Node000014" class="edge">
<title>Node13&#45;&gt;Node14</title>
<g id="a_edge15_Node000013_Node000014"><a xlink:title=" ">
<path fill="none" stroke="#63b8ff" d="M339.24,-312.82C354.4,-312.82 372.66,-312.82 389.51,-312.82"/>
<polygon fill="#63b8ff" stroke="#63b8ff" points="389.39,-316.32 399.39,-312.82 389.39,-309.32 389.39,-316.32"/>
</a>
</g>
</g>
<!-- Node15 -->
<g id="Node000015" class="node">
<title>Node15</title>
<g id="a_Node000015"><a xlink:href="carrinho_2nrf24__avr_8c.html#a08bc978021db604d02a6da754f73e7e2" target="_top" xlink:title=" ">
<polygon fill="white" stroke="#666666" points="473.12,-284.2 411.38,-284.2 411.38,-263.45 473.12,-263.45 473.12,-284.2"/>
<text xml:space="preserve" text-anchor="middle" x="442.25" y="-270.7" font-family="Helvetica,sans-Serif" font-size="10.00">write_reg</text>
</a>
</g>
</g>
<!-- Node13&#45;&gt;Node15 -->
<g id="edge19_Node000013_Node000015" class="edge">
<title>Node13&#45;&gt;Node15</title>
<g id="a_edge19_Node000013_Node000015"><a xlink:title=" ">
<path fill="none" stroke="#63b8ff" d="M339.24,-303.18C357.59,-297.9 380.48,-291.31 399.92,-285.72"/>
<polygon fill="#63b8ff" stroke="#63b8ff" points="400.82,-289.1 409.46,-282.97 398.88,-282.37 400.82,-289.1"/>
</a>
</g>
</g>
<!-- Node14&#45;&gt;Node9 -->
<g id="edge16_Node000014_Node000009" class="edge">
<title>Node14&#45;&gt;Node9</title>
<g id="a_edge16_Node000014_Node000009"><a xlink:title=" ">
<path fill="none" stroke="#63b8ff" d="M474.41,-301.96C487.27,-297.48 502.31,-292.23 515.91,-287.49"/>
<polygon fill="#63b8ff" stroke="#63b8ff" points="516.71,-290.92 525,-284.32 514.4,-284.31 516.71,-290.92"/>
</a>
</g>
</g>
<!-- Node14&#45;&gt;Node11 -->
<g id="edge17_Node000014_Node000011" class="edge">
<title>Node14&#45;&gt;Node11</title>
<g id="a_edge17_Node000014_Node000011"><a xlink:title=" ">
<path fill="none" stroke="#63b8ff" d="M483.64,-312.82C494.58,-312.82 506.38,-312.82 517.18,-312.82"/>
<polygon fill="#63b8ff" stroke="#63b8ff" points="516.9,-316.32 526.9,-312.82 516.9,-309.32 516.9,-316.32"/>
</a>
</g>
</g>
<!-- Node14&#45;&gt;Node12 -->
<g id="edge18_Node000014_Node000012" class="edge">
<title>Node14&#45;&gt;Node12</title>
<g id="a_edge18_Node000014_Node000012"><a xlink:title=" ">
<path fill="none" stroke="#63b8ff" d="M474.41,-323.69C486.54,-327.91 500.6,-332.82 513.57,-337.33"/>
<polygon fill="#63b8ff" stroke="#63b8ff" points="512.1,-340.53 522.7,-340.52 514.41,-333.92 512.1,-340.53"/>
</a>
</g>
</g>
<!-- Node15&#45;&gt;Node9 -->
<g id="edge20_Node000015_Node000009" class="edge">
<title>Node15&#45;&gt;Node9</title>
<g id="a_edge20_Node000015_Node000009"><a xlink:title=" ">
<path fill="none" stroke="#63b8ff" d="M473.52,-273.82C486.37,-273.82 501.51,-273.82 515.24,-273.82"/>
<polygon fill="#63b8ff" stroke="#63b8ff" points="514.85,-277.32 524.85,-273.82 514.85,-270.32 514.85,-277.32"/>
</a>
</g>
</g>
<!-- Node15&#45;&gt;Node11 -->
<g id="edge21_Node000015_Node000011" class="edge">
<title>Node15&#45;&gt;Node11</title>
<g id="a_edge21_Node000015_Node000011"><a xlink:title=" ">
<path fill="none" stroke="#63b8ff" d="M473.52,-284.38C487.14,-289.12 503.34,-294.77 517.71,-299.78"/>
<polygon fill="#63b8ff" stroke="#63b8ff" points="516.24,-302.97 526.83,-302.96 518.54,-296.36 516.24,-302.97"/>
</a>
</g>
</g>
<!-- Node15&#45;&gt;Node12 -->
<g id="edge22_Node000015_Node000012" class="edge">
<title>Node15&#45;&gt;Node12</title>
<g id="a_edge22_Node000015_Node000012"><a xlink:title=" ">
<path fill="none" stroke="#63b8ff" d="M468.16,-284.59C473.35,-287.28 478.63,-290.4 483.25,-293.82 501.94,-307.68 500.88,-317.55 519.25,-331.82 520.72,-332.96 522.27,-334.08 523.85,-335.17"/>
<polygon fill="#63b8ff" stroke="#63b8ff" points="521.58,-337.88 531.92,-340.19 525.28,-331.94 521.58,-337.88"/>
</a>
</g>
</g>
<!-- Node16&#45;&gt;Node9 -->
<g id="edge27_Node000016_Node000009" class="edge">
<title>Node16&#45;&gt;Node9</title>
<g id="a_edge27_Node000016_Node000009"><a xlink:title=" ">
<path fill="none" stroke="#63b8ff" d="M156.81,-112.06C175.18,-97.97 209.93,-73.99 244.25,-64.82 295.56,-51.11 440.02,-33.97 483.25,-64.82 499.08,-76.12 534.93,-200.65 549.15,-251.94"/>
<polygon fill="#63b8ff" stroke="#63b8ff" points="545.77,-252.86 551.8,-261.57 552.52,-251 545.77,-252.86"/>
</a>
</g>
</g>
<!-- Node16&#45;&gt;Node15 -->
<g id="edge33_Node000016_Node000015" class="edge">
<title>Node16&#45;&gt;Node15</title>
<g id="a_edge33_Node000016_Node000015"><a xlink:title=" ">
<path fill="none" stroke="#63b8ff" d="M179.85,-129.29C234.49,-139.48 334.65,-160.16 365.25,-179.82 394.25,-198.46 417.32,-231.88 430.13,-253.44"/>
<polygon fill="#63b8ff" stroke="#63b8ff" points="426.98,-254.96 434.98,-261.91 433.05,-251.49 426.98,-254.96"/>
</a>
</g>
</g>
<!-- Node17 -->
<g id="Node000017" class="node">
<title>Node17</title>
<g id="a_Node000017"><a xlink:href="carrinho_2nrf24__avr_8c.html#a77c5f7c57c01266d04faea3052a47f49" target="_top" xlink:title=" ">
<polygon fill="white" stroke="#666666" points="581,-132.2 531.25,-132.2 531.25,-111.45 581,-111.45 581,-132.2"/>
<text xml:space="preserve" text-anchor="middle" x="556.12" y="-118.7" font-family="Helvetica,sans-Serif" font-size="10.00">ce_low</text>
</a>
</g>
</g>
<!-- Node16&#45;&gt;Node17 -->
<g id="edge25_Node000016_Node000017" class="edge">
<title>Node16&#45;&gt;Node17</title>
<g id="a_edge25_Node000016_Node000017"><a xlink:title=" ">
<path fill="none" stroke="#63b8ff" d="M151.09,-111.97C166.09,-91.58 201.79,-48.16 244.25,-31.82 343.39,6.32 387.53,14.23 483.25,-31.82 512.86,-46.07 534.08,-79.12 545.47,-100.95"/>
<polygon fill="#63b8ff" stroke="#63b8ff" points="542.29,-102.42 549.86,-109.84 548.57,-99.32 542.29,-102.42"/>
</a>
</g>
</g>
<!-- Node18 -->
<g id="Node000018" class="node">
<title>Node18</title>
<g id="a_Node000018"><a xlink:href="carrinho_2nrf24__avr_8c.html#a023289d1e49bf7f3b61e0e1c5312c8cf" target="_top" xlink:title=" ">
<polygon fill="white" stroke="#666666" points="352.88,-94.2 256.62,-94.2 256.62,-73.45 352.88,-73.45 352.88,-94.2"/>
<text xml:space="preserve" text-anchor="middle" x="304.75" y="-80.7" font-family="Helvetica,sans-Serif" font-size="10.00">nrf24_init_hwspi</text>
</a>
</g>
</g>
<!-- Node16&#45;&gt;Node18 -->
<g id="edge28_Node000016_Node000018" class="edge">
<title>Node16&#45;&gt;Node18</title>
<g id="a_edge28_Node000016_Node000018"><a xlink:title=" ">
<path fill="none" stroke="#63b8ff" d="M179.86,-113.97C200.01,-109.07 225.48,-102.87 248.07,-97.37"/>
<polygon fill="#63b8ff" stroke="#63b8ff" points="248.88,-100.78 257.77,-95.01 247.23,-93.98 248.88,-100.78"/>
</a>
</g>
</g>
<!-- Node20 -->
<g id="Node000020" class="node">
<title>Node20</title>
<g id="a_Node000020"><a xlink:href="carrinho_2nrf24__avr_8c.html#aaf2900e7932ebbf7f0ecdc6bce5840e1" target="_top" xlink:title=" ">
<polygon fill="white" stroke="#666666" points="365.25,-133.2 244.25,-133.2 244.25,-112.45 365.25,-112.45 365.25,-133.2"/>
<text xml:space="preserve" text-anchor="middle" x="304.75" y="-119.7" font-family="Helvetica,sans-Serif" font-size="10.00">nrf24_setPayloadSize</text>
</a>
</g>
</g>
<!-- Node16&#45;&gt;Node20 -->
<g id="edge30_Node000016_Node000020" class="edge">
<title>Node16&#45;&gt;Node20</title>
<g id="a_edge30_Node000016_Node000020"><a xlink:title=" ">
<path fill="none" stroke="#63b8ff" d="M179.86,-122.82C195.47,-122.82 214.26,-122.82 232.45,-122.82"/>
<polygon fill="#63b8ff" stroke="#63b8ff" points="232.45,-126.32 242.45,-122.82 232.45,-119.32 232.45,-126.32"/>
</a>
</g>
</g>
<!-- Node21 -->
<g id="Node000021" class="node">
<title>Node21</title>
<g id="a_Node000021"><a xlink:href="carrinho_2nrf24__avr_8c.html#aa3db4917fa58896ce0a8027a30795033" target="_top" xlink:title=" ">
<polygon fill="white" stroke="#666666" points="339.38,-209.2 270.12,-209.2 270.12,-188.45 339.38,-188.45 339.38,-209.2"/>
<text xml:space="preserve" text-anchor="middle" x="304.75" y="-195.7" font-family="Helvetica,sans-Serif" font-size="10.00">pinMode_d</text>
</a>
</g>
</g>
<!-- Node16&#45;&gt;Node21 -->
<g id="edge32_Node000016_Node000021" class="edge">
<title>Node16&#45;&gt;Node21</title>
<g id="a_edge32_Node000016_Node000021"><a xlink:title=" ">
<path fill="none" stroke="#63b8ff" d="M162.92,-133.53C183.02,-144.45 215.44,-161.61 244.25,-174.82 250.83,-177.84 257.9,-180.87 264.79,-183.71"/>
<polygon fill="#63b8ff" stroke="#63b8ff" points="263.39,-186.92 273.97,-187.43 266.02,-180.43 263.39,-186.92"/>
</a>
</g>
</g>
<!-- Node17&#45;&gt;Node10 -->
<g id="edge26_Node000017_Node000010" class="edge">
<title>Node17&#45;&gt;Node10</title>
<g id="a_edge26_Node000017_Node000010"><a xlink:title=" ">
<path fill="none" stroke="#63b8ff" d="M564.19,-132.52C582.66,-160.47 632.6,-236.04 656.73,-272.54"/>
<polygon fill="#63b8ff" stroke="#63b8ff" points="653.79,-274.45 662.22,-280.87 659.63,-270.59 653.79,-274.45"/>
</a>
</g>
</g>
<!-- Node19 -->
<g id="Node000019" class="node">
<title>Node19</title>
<g id="a_Node000019"><a xlink:href="carrinho_2nrf24__avr_8c.html#aa653f4dc3541758224a53eef3f04d490" target="_top" xlink:title=" ">
<polygon fill="white" stroke="#666666" points="467.88,-94.2 416.62,-94.2 416.62,-73.45 467.88,-73.45 467.88,-94.2"/>
<text xml:space="preserve" text-anchor="middle" x="442.25" y="-80.7" font-family="Helvetica,sans-Serif" font-size="10.00">spi_init</text>
</a>
</g>
</g>
<!-- Node18&#45;&gt;Node19 -->
<g id="edge29_Node000018_Node000019" class="edge">
<title>Node18&#45;&gt;Node19</title>
<g id="a_edge29_Node000018_Node000019"><a xlink:title=" ">
<path fill="none" stroke="#63b8ff" d="M353.14,-83.82C370.05,-83.82 388.82,-83.82 404.68,-83.82"/>
<polygon fill="#63b8ff" stroke="#63b8ff" points="404.64,-87.32 414.64,-83.82 404.64,-80.32 404.64,-87.32"/>
</a>
</g>
</g>
<!-- Node20&#45;&gt;Node15 -->
<g id="edge31_Node000020_Node000015" class="edge">
<title>Node20&#45;&gt;Node15</title>
<g id="a_edge31_Node000020_Node000015"><a xlink:title=" ">
<path fill="none" stroke="#63b8ff" d="M343.09,-133.57C350.96,-136.97 358.82,-141.32 365.25,-146.82 399.42,-176.05 422.39,-224.66 433.5,-252.5"/>
<polygon fill="#63b8ff" stroke="#63b8ff" points="430.15,-253.54 437,-261.63 436.69,-251.04 430.15,-253.54"/>
</a>
</g>
</g>
<!-- Node22&#45;&gt;Node15 -->
<g id="edge35_Node000022_Node000015" class="edge">
<title>Node22&#45;&gt;Node15</title>
<g id="a_edge35_Node000022_Node000015"><a xlink:title=" ">
<path fill="none" stroke="#63b8ff" d="M208.47,-290.24C266.61,-286.14 350.1,-280.25 399.68,-276.75"/>
<polygon fill="#63b8ff" stroke="#63b8ff" points="399.69,-280.26 409.42,-276.07 399.19,-273.28 399.69,-280.26"/>
</a>
</g>
</g>
<!-- Node23&#45;&gt;Node15 -->
<g id="edge37_Node000023_Node000015" class="edge">
<title>Node23&#45;&gt;Node15</title>
<g id="a_edge37_Node000023_Node000015"><a xlink:title=" ">
<path fill="none" stroke="#63b8ff" d="M193.67,-250.54C251.57,-255.98 345.73,-264.84 399.71,-269.91"/>
<polygon fill="#63b8ff" stroke="#63b8ff" points="399.12,-273.37 409.4,-270.83 399.77,-266.41 399.12,-273.37"/>
</a>
</g>
</g>
<!-- Node24&#45;&gt;Node8 -->
<g id="edge41_Node000024_Node000008" class="edge">
<title>Node24&#45;&gt;Node8</title>
<g id="a_edge41_Node000024_Node000008"><a xlink:title=" ">
<path fill="none" stroke="#63b8ff" d="M343.98,-419.04C351.22,-416.43 358.61,-413.35 365.25,-409.82 385.89,-398.86 406.81,-382.42 421.46,-369.83"/>
<polygon fill="#63b8ff" stroke="#63b8ff" points="423.38,-372.81 428.58,-363.58 418.76,-367.55 423.38,-372.81"/>
</a>
</g>
</g>
<!-- Node24&#45;&gt;Node15 -->
<g id="edge42_Node000024_Node000015" class="edge">
<title>Node24&#45;&gt;Node15</title>
<g id="a_edge42_Node000024_Node000015"><a xlink:title=" ">
<path fill="none" stroke="#63b8ff" d="M352.52,-419.08C357.22,-416.61 361.59,-413.56 365.25,-409.82 402.97,-371.21 366.31,-334.97 401.25,-293.82 401.93,-293.02 402.65,-292.25 403.41,-291.5"/>
<polygon fill="#63b8ff" stroke="#63b8ff" points="405.49,-294.32 411.32,-285.47 401.24,-288.75 405.49,-294.32"/>
</a>
</g>
</g>
<!-- Node25 -->
<g id="Node000025" class="node">
<title>Node25</title>
<g id="a_Node000025"><a xlink:href="carrinho_2nrf24__avr_8c.html#a5336963072afb877d785bed84eb6b5f4" target="_top" xlink:title=" ">
<polygon fill="white" stroke="#666666" points="582.88,-420.2 529.38,-420.2 529.38,-399.45 582.88,-399.45 582.88,-420.2"/>
<text xml:space="preserve" text-anchor="middle" x="556.12" y="-406.7" font-family="Helvetica,sans-Serif" font-size="10.00">ce_high</text>
</a>
</g>
</g>
<!-- Node24&#45;&gt;Node25 -->
<g id="edge39_Node000024_Node000025" class="edge">
<title>Node24&#45;&gt;Node25</title>
<g id="a_edge39_Node000024_Node000025"><a xlink:title=" ">
<path fill="none" stroke="#63b8ff" d="M361.71,-425.33C409.29,-421.52 476.28,-416.15 517.63,-412.83"/>
<polygon fill="#63b8ff" stroke="#63b8ff" points="517.89,-416.32 527.58,-412.03 517.33,-409.34 517.89,-416.32"/>
</a>
</g>
</g>
<!-- Node25&#45;&gt;Node10 -->
<g id="edge40_Node000025_Node000010" class="edge">
<title>Node25&#45;&gt;Node10</title>
<g id="a_edge40_Node000025_Node000010"><a xlink:title=" ">
<path fill="none" stroke="#63b8ff" d="M567.55,-399.02C586.73,-379.17 627.8,-336.65 651.75,-311.85"/>
<polygon fill="#63b8ff" stroke="#63b8ff" points="654.24,-314.31 658.67,-304.68 649.21,-309.44 654.24,-314.31"/>
</a>
</g>
</g>
</g>
</svg>

<g id="navigator" transform="translate(0 0)" fill="#404254">
  <rect fill="#f2f5e9" fill-opacity="0.5" stroke="#606060" stroke-width=".5" x="0" y="0" width="60" height="60"/>
  <use id="zoomplus" xlink:href="#zoomPlus" x="17" y="9" onmousedown="handleZoom(evt,'in')"/>
  <use id="zoomminus" xlink:href="#zoomMin" x="42" y="9" onmousedown="handleZoom(evt,'out')"/>
  <use id="reset" xlink:href="#resetDef" x="30" y="36" onmousedown="handleReset()"/>
   <use id="arrowup" xlink:href="#arrowUp" x="0" y="0" onmousedown="handlePan(0,-1)"/>
  <use id="arrowright" xlink:href="#arrowRight" x="0" y="0" onmousedown="handlePan(1,0)"/>
  <use id="arrowdown" xlink:href="#arrowDown" x="0" y="0" onmousedown="handlePan(0,1)"/>
  <use id="arrowleft" xlink:href="#arrowLeft" x="0" y="0" onmousedown="handlePan(-1,0)"/>
</g>
<svg viewBox="0 0 15 15" width="100%" height="30px" preserveAspectRatio="xMaxYMin meet">
 <g id="arrow_out" transform="scale(0.3 0.3)">
  <a xlink:href="carrinho_8c_ae66f6b31b5ad750f1fe042a706a4e3d4_cgraph_org.svg" target="_base">
   <rect id="button" ry="5" rx="5" y="6" x="6" height="38" width="38"
        fill="#f2f5e9" fill-opacity="0.5" stroke="#606060" stroke-width="1.0"/>
   <path id="arrow"
     d="M 11.500037,31.436501 C 11.940474,20.09759 22.043105,11.32322 32.158766,21.979434 L 37.068811,17.246167 C 37.068811,17.246167 37.088388,32 37.088388,32 L 22.160133,31.978069 C 22.160133,31.978069 26.997745,27.140456 26.997745,27.140456 C 18.528582,18.264221 13.291696,25.230495 11.500037,31.436501 z"
     style="fill:#404040;"/>
  </a>
 </g>
</svg>

<style type='text/css'>
<![CDATA[
[data-mouse-over-selected='false'] { opacity: 0.7; }
[data-mouse-over-selected='true']  { opacity: 1.0; }
]]>
</style>
<script type="application/ecmascript"><![CDATA[
document.addEventListener('DOMContentLoaded', (event) => {
  highlightEdges();
  highlightAdjacentNodes();
});
]]></script>
</svg>
