<?xml version="1.0" encoding="UTF-8" standalone="no"?>
<!DOCTYPE svg PUBLIC "-//W3C//DTD SVG 1.1//EN"
 "http://www.w3.org/Graphics/SVG/1.1/DTD/svg11.dtd">
<!-- Generated by graphviz version 14.0.4 (0)
 -->
<!-- Title: ce_low Pages: 1 -->
<svg width="463pt" height="146pt"
 viewBox="0.00 0.00 463.00 146.00" xmlns="http://www.w3.org/2000/svg" xmlns:xlink="http://www.w3.org/1999/xlink">

<svg id="main" version="1.1" xmlns="http://www.w3.org/2000/svg" xmlns:xlink="http://www.w3.org/1999/xlink" xml:space="preserve">

<style type="text/css"><![CDATA[
.node, .edge {opacity: 0.7;}
.node.selected, .edge.selected {opacity: 1;}
.edge:hover path { stroke: red; }
.edge:hover polygon { stroke: red; fill: red; }
]]></style>
<script type="application/ecmascript" xlink:href="svg.min.js"/>
<svg id="graph" class="graph">
<g id="graph0" class="graph" transform="scale(1 1) rotate(0) translate(4 141.75)">
<title>ce_low</title>
<!-- Node1 -->
<g id="Node000001" class="node">
<title>Node1</title>
<g id="a_Node000001"><a xlink:title=" ">
<polygon fill="#999999" stroke="#666666" points="455,-58.75 405.25,-58.75 405.25,-38 455,-38 455,-58.75"/>
<text xml:space="preserve" text-anchor="middle" x="430.12" y="-45.25" font-family="Helvetica,sans-Serif" font-size="10.00">ce_low</text>
</a>
</g>
</g>
<!-- Node2 -->
<g id="Node000002" class="node">
<title>Node2</title>
<g id="a_Node000002"><a xlink:href="carrinho_2nrf24__avr_8c.html#ab6fb4c1aa834152310116e7dec65d8e3" target="_top" xlink:title=" ">
<polygon fill="white" stroke="#666666" points="350.12,-97.75 276.38,-97.75 276.38,-77 350.12,-77 350.12,-97.75"/>
<text xml:space="preserve" text-anchor="middle" x="313.25" y="-84.25" font-family="Helvetica,sans-Serif" font-size="10.00">nrf24_begin</text>
</a>
</g>
</g>
<!-- Node1&#45;&gt;Node2 -->
<g id="edge1_Node000001_Node000002" class="edge">
<title>Node1&#45;&gt;Node2</title>
<g id="a_edge1_Node000001_Node000002"><a xlink:title=" ">
<path fill="none" stroke="#63b8ff" d="M394.13,-60.26C378.8,-65.46 360.94,-71.52 346,-76.6"/>
<polygon fill="#63b8ff" stroke="#63b8ff" points="394.99,-63.66 403.33,-57.13 392.74,-57.03 394.99,-63.66"/>
</a>
</g>
</g>
<!-- Node7 -->
<g id="Node000007" class="node">
<title>Node7</title>
<g id="a_Node000007"><a xlink:href="carrinho_2nrf24__avr_8c.html#a33899bc3c0f4d2293f37c306d0b8e297" target="_top" xlink:title=" ">
<polygon fill="white" stroke="#666666" points="369.25,-58.75 257.25,-58.75 257.25,-38 369.25,-38 369.25,-58.75"/>
<text xml:space="preserve" text-anchor="middle" x="313.25" y="-45.25" font-family="Helvetica,sans-Serif" font-size="10.00">nrf24_stopListening</text>
</a>
</g>
</g>
<!-- Node1&#45;&gt;Node7 -->
<g id="edge6_Node000001_Node000007" class="edge">
<title>Node1&#45;&gt;Node7</title>
<g id="a_edge6_Node000001_Node000007"><a xlink:title=" ">
<path fill="none" stroke="#63b8ff" d="M393.35,-48.38C385.71,-48.38 377.47,-48.38 369.3,-48.38"/>
<polygon fill="#63b8ff" stroke="#63b8ff" points="393.25,-51.88 403.25,-48.38 393.25,-44.88 393.25,-51.88"/>
</a>
</g>
</g>
<!-- Node8 -->
<g id="Node000008" class="node">
<title>Node8</title>
<g id="a_Node000008"><a xlink:href="carrinho_2nrf24__avr_8c.html#a8232e1982aabc6f52408c318402cb578" target="_top" xlink:title=" ">
<polygon fill="white" stroke="#666666" points="221.25,-20.75 149.75,-20.75 149.75,0 221.25,0 221.25,-20.75"/>
<text xml:space="preserve" text-anchor="middle" x="185.5" y="-7.25" font-family="Helvetica,sans-Serif" font-size="10.00">nrf24_write</text>
</a>
</g>
</g>
<!-- Node1&#45;&gt;Node8 -->
<g id="edge11_Node000001_Node000008" class="edge">
<title>Node1&#45;&gt;Node8</title>
<g id="a_edge11_Node000001_Node000008"><a xlink:title=" ">
<path fill="none" stroke="#63b8ff" d="M394.02,-35.92C385.97,-33.43 377.38,-31.07 369.25,-29.38 318.51,-18.8 258.55,-14 221.52,-11.9"/>
<polygon fill="#63b8ff" stroke="#63b8ff" points="392.92,-39.25 403.51,-39 395.08,-32.59 392.92,-39.25"/>
</a>
</g>
</g>
<!-- Node3 -->
<g id="Node000003" class="node">
<title>Node3</title>
<g id="a_Node000003"><a xlink:href="carrinho_8c.html#ae66f6b31b5ad750f1fe042a706a4e3d4" target="_top" xlink:title="Função principal: inicializa periféricos e roda loop().">
<polygon fill="white" stroke="#666666" points="205.88,-137.75 165.12,-137.75 165.12,-117 205.88,-117 205.88,-137.75"/>
<text xml:space="preserve" text-anchor="middle" x="185.5" y="-124.25" font-family="Helvetica,sans-Serif" font-size="10.00">main</text>
</a>
</g>
</g>
<!-- Node2&#45;&gt;Node3 -->
<g id="edge2_Node000002_Node000003" class="edge">
<title>Node2&#45;&gt;Node3</title>
<g id="a_edge2_Node000002_Node000003"><a xlink:title=" ">
<path fill="none" stroke="#63b8ff" d="M267.54,-101.6C246.48,-108.3 222.45,-115.94 206.06,-121.15"/>
<polygon fill="#63b8ff" stroke="#63b8ff" points="268.31,-105.03 276.78,-98.66 266.19,-98.35 268.31,-105.03"/>
</a>
</g>
</g>
<!-- Node4 -->
<g id="Node000004" class="node">
<title>Node4</title>
<g id="a_Node000004"><a xlink:href="main_8c.html#a840291bc02cba5474a4cb46a9b9566fe" target="_top" xlink:title=" ">
<polygon fill="white" stroke="#666666" points="205.88,-98.75 165.12,-98.75 165.12,-78 205.88,-78 205.88,-98.75"/>
<text xml:space="preserve" text-anchor="middle" x="185.5" y="-85.25" font-family="Helvetica,sans-Serif" font-size="10.00">main</text>
</a>
</g>
</g>
<!-- Node2&#45;&gt;Node4 -->
<g id="edge3_Node000002_Node000004" class="edge">
<title>Node2&#45;&gt;Node4</title>
<g id="a_edge3_Node000002_Node000004"><a xlink:title=" ">
<path fill="none" stroke="#63b8ff" d="M264.56,-87.75C244.24,-87.92 221.67,-88.1 206.04,-88.22"/>
<polygon fill="#63b8ff" stroke="#63b8ff" points="264.39,-91.26 274.36,-87.68 264.34,-84.26 264.39,-91.26"/>
</a>
</g>
</g>
<!-- Node5 -->
<g id="Node000005" class="node">
<title>Node5</title>
<g id="a_Node000005"><a xlink:href="controle_8c.html#a4fc01d736fe50cf5b977f755b675f11d" target="_top" xlink:title="Inicializações principais (ADC, PWM, entradas e rádio).">
<polygon fill="white" stroke="#666666" points="207,-59.75 164,-59.75 164,-39 207,-39 207,-59.75"/>
<text xml:space="preserve" text-anchor="middle" x="185.5" y="-46.25" font-family="Helvetica,sans-Serif" font-size="10.00">setup</text>
</a>
</g>
</g>
<!-- Node2&#45;&gt;Node5 -->
<g id="edge4_Node000002_Node000005" class="edge">
<title>Node2&#45;&gt;Node5</title>
<g id="a_edge4_Node000002_Node000005"><a xlink:title=" ">
<path fill="none" stroke="#63b8ff" d="M265.71,-73.31C245.65,-67.25 223.21,-60.47 207.34,-55.67"/>
<polygon fill="#63b8ff" stroke="#63b8ff" points="264.52,-76.61 275.1,-76.15 266.54,-69.91 264.52,-76.61"/>
</a>
</g>
</g>
<!-- Node6 -->
<g id="Node000006" class="node">
<title>Node6</title>
<g id="a_Node000006"><a xlink:href="controle_8c.html#ae66f6b31b5ad750f1fe042a706a4e3d4" target="_top" xlink:title="Função principal do firmware.">
<polygon fill="white" stroke="#666666" points="40.75,-39.75 0,-39.75 0,-19 40.75,-19 40.75,-39.75"/>
<text xml:space="preserve" text-anchor="middle" x="20.38" y="-26.25" font-family="Helvetica,sans-Serif" font-size="10.00">main</text>
</a>
</g>
</g>
<!-- Node5&#45;&gt;Node6 -->
<g id="edge5_Node000005_Node000006" class="edge">
<title>Node5&#45;&gt;Node6</title>
<g id="a_edge5_Node000005_Node000006"><a xlink:title=" ">
<path fill="none" stroke="#63b8ff" d="M152.12,-45.41C118.88,-41.33 68.25,-35.12 40.76,-31.75"/>
<polygon fill="#63b8ff" stroke="#63b8ff" points="151.65,-48.87 162.01,-46.62 152.51,-41.93 151.65,-48.87"/>
</a>
</g>
</g>
<!-- Node7&#45;&gt;Node5 -->
<g id="edge10_Node000007_Node000005" class="edge">
<title>Node7&#45;&gt;Node5</title>
<g id="a_edge10_Node000007_Node000005"><a xlink:title=" ">
<path fill="none" stroke="#63b8ff" d="M245.85,-48.9C231.82,-49.01 218.02,-49.12 207.27,-49.21"/>
<polygon fill="#63b8ff" stroke="#63b8ff" points="245.61,-52.41 255.58,-48.83 245.55,-45.41 245.61,-52.41"/>
</a>
</g>
</g>
<!-- Node7&#45;&gt;Node8 -->
<g id="edge7_Node000007_Node000008" class="edge">
<title>Node7&#45;&gt;Node8</title>
<g id="a_edge7_Node000007_Node000008"><a xlink:title=" ">
<path fill="none" stroke="#63b8ff" d="M265.66,-34.3C251.02,-29.87 235.11,-25.06 221.42,-20.93"/>
<polygon fill="#63b8ff" stroke="#63b8ff" points="264.52,-37.61 275.1,-37.15 266.54,-30.91 264.52,-37.61"/>
</a>
</g>
</g>
<!-- Node9 -->
<g id="Node000009" class="node">
<title>Node9</title>
<g id="a_Node000009"><a xlink:href="controle_8c.html#afe461d27b9c48d5921c00d521181f12f" target="_top" xlink:title="Loop principal: lê controles, aplica deadzone, envia por RF e atualiza LEDs.">
<polygon fill="white" stroke="#666666" points="113.75,-20.75 76.75,-20.75 76.75,0 113.75,0 113.75,-20.75"/>
<text xml:space="preserve" text-anchor="middle" x="95.25" y="-7.25" font-family="Helvetica,sans-Serif" font-size="10.00">loop</text>
</a>
</g>
</g>
<!-- Node8&#45;&gt;Node9 -->
<g id="edge8_Node000008_Node000009" class="edge">
<title>Node8&#45;&gt;Node9</title>
<g id="a_edge8_Node000008_Node000009"><a xlink:title=" ">
<path fill="none" stroke="#63b8ff" d="M138.14,-10.38C129.57,-10.38 121.11,-10.38 114.06,-10.38"/>
<polygon fill="#63b8ff" stroke="#63b8ff" points="137.85,-13.88 147.85,-10.38 137.85,-6.88 137.85,-13.88"/>
</a>
</g>
</g>
<!-- Node9&#45;&gt;Node6 -->
<g id="edge9_Node000009_Node000006" class="edge">
<title>Node9&#45;&gt;Node6</title>
<g id="a_edge9_Node000009_Node000006"><a xlink:title=" ">
<path fill="none" stroke="#63b8ff" d="M65.59,-17.85C57.42,-19.98 48.69,-22.25 41.17,-24.22"/>
<polygon fill="#63b8ff" stroke="#63b8ff" points="66.35,-21.27 75.14,-15.36 64.58,-14.49 66.35,-21.27"/>
</a>
</g>
</g>
</g>
</svg>
</svg>

<style type='text/css'>
<![CDATA[
[data-mouse-over-selected='false'] { opacity: 0.7; }
[data-mouse-over-selected='true']  { opacity: 1.0; }
]]>
</style>
<script type="application/ecmascript"><![CDATA[
document.addEventListener('DOMContentLoaded', (event) => {
  highlightEdges();
  highlightAdjacentNodes();
});
]]></script>
</svg>
