<?xml version="1.0" encoding="UTF-8" standalone="no"?>
<!DOCTYPE svg PUBLIC "-//W3C//DTD SVG 1.1//EN"
 "http://www.w3.org/Graphics/SVG/1.1/DTD/svg11.dtd">
<!-- Generated by graphviz version 14.0.5 (0)
 -->
<!-- Title: motor Pages: 1 -->
<svg width="294pt" height="143pt"
 viewBox="0.00 0.00 294.00 143.00" xmlns="http://www.w3.org/2000/svg" xmlns:xlink="http://www.w3.org/1999/xlink">

<svg id="main" version="1.1" xmlns="http://www.w3.org/2000/svg" xmlns:xlink="http://www.w3.org/1999/xlink" xml:space="preserve">

<style type="text/css"><![CDATA[
.node, .edge {opacity: 0.7;}
.node.selected, .edge.selected {opacity: 1;}
.edge:hover path { stroke: red; }
.edge:hover polygon { stroke: red; fill: red; }
]]></style>
<script type="application/ecmascript" xlink:href="svg.min.js"/>
<svg id="graph" class="graph">
<g id="graph0" class="graph" transform="scale(1 1) rotate(0) translate(4 138.75)">
<title>motor</title>
<!-- Node1 -->
<g id="Node000001" class="node">
<title>Node1</title>
<g id="a_Node000001"><a xlink:title=" ">
<polygon fill="#999999" stroke="#666666" points="286.05,-77.75 240.8,-77.75 240.8,-57 286.05,-57 286.05,-77.75"/>
<text xml:space="preserve" text-anchor="middle" x="263.43" y="-64.25" font-family="Helvetica,sans-Serif" font-size="10.00">motor</text>
</a>
</g>
</g>
<!-- Node1&#45;&gt;Node1 -->
<g id="edge6_Node000001_Node000001" class="edge">
<title>Node1&#45;&gt;Node1</title>
<g id="a_edge6_Node000001_Node000001"><a xlink:title=" ">
<path fill="none" stroke="#63b8ff" d="M279.44,-89.56C277.18,-93.23 271.84,-95.75 263.43,-95.75 247.59,-95.75 242.64,-86.81 248.58,-78.15"/>
<polygon fill="#63b8ff" stroke="#63b8ff" points="282.93,-89.24 278.42,-79.65 275.97,-89.96 282.93,-89.24"/>
</a>
</g>
</g>
<!-- Node2 -->
<g id="Node000002" class="node">
<title>Node2</title>
<g id="a_Node000002"><a xlink:href="carrinho__ino_8ino.html#a026d019671eda0cfe729200fc24d23ba" target="_top" xlink:title=" ">
<polygon fill="white" stroke="#666666" points="204.8,-134.75 137.8,-134.75 137.8,-114 204.8,-114 204.8,-134.75"/>
<text xml:space="preserve" text-anchor="middle" x="171.3" y="-121.25" font-family="Helvetica,sans-Serif" font-size="10.00">gameOver</text>
</a>
</g>
</g>
<!-- Node1&#45;&gt;Node2 -->
<g id="edge1_Node000001_Node000002" class="edge">
<title>Node1&#45;&gt;Node2</title>
<g id="a_edge1_Node000001_Node000002"><a xlink:title=" ">
<path fill="none" stroke="#63b8ff" d="M236.17,-83.98C221.13,-93.49 202.68,-105.16 189.48,-113.51"/>
<polygon fill="#63b8ff" stroke="#63b8ff" points="237.61,-87.21 244.19,-78.91 233.87,-81.29 237.61,-87.21"/>
</a>
</g>
</g>
<!-- Node3 -->
<g id="Node000003" class="node">
<title>Node3</title>
<g id="a_Node000003"><a xlink:href="carrinho__ino_8ino.html#ae85c96d8ab4fe9d1b125421eaaef40e2" target="_top" xlink:title=" ">
<polygon fill="white" stroke="#666666" points="101.8,-96.75 73,-96.75 73,-76 101.8,-76 101.8,-96.75"/>
<text xml:space="preserve" text-anchor="middle" x="87.4" y="-83.25" font-family="Helvetica,sans-Serif" font-size="10.00">hit</text>
</a>
</g>
</g>
<!-- Node1&#45;&gt;Node3 -->
<g id="edge4_Node000001_Node000003" class="edge">
<title>Node1&#45;&gt;Node3</title>
<g id="a_edge4_Node000001_Node000003"><a xlink:title=" ">
<path fill="none" stroke="#63b8ff" d="M229.28,-70.99C190.91,-75.18 129.51,-81.89 102.24,-84.86"/>
<polygon fill="#63b8ff" stroke="#63b8ff" points="229.32,-74.51 238.88,-69.95 228.56,-67.55 229.32,-74.51"/>
</a>
</g>
</g>
<!-- Node4 -->
<g id="Node000004" class="node">
<title>Node4</title>
<g id="a_Node000004"><a xlink:href="carrinho__ino_8ino.html#afe461d27b9c48d5921c00d521181f12f" target="_top" xlink:title=" ">
<polygon fill="white" stroke="#666666" points="37,-77.75 0,-77.75 0,-57 37,-57 37,-77.75"/>
<text xml:space="preserve" text-anchor="middle" x="18.5" y="-64.25" font-family="Helvetica,sans-Serif" font-size="10.00">loop</text>
</a>
</g>
</g>
<!-- Node1&#45;&gt;Node4 -->
<g id="edge5_Node000001_Node000004" class="edge">
<title>Node1&#45;&gt;Node4</title>
<g id="a_edge5_Node000001_Node000004"><a xlink:title=" ">
<path fill="none" stroke="#63b8ff" d="M229.15,-67.38C176.96,-67.38 77.64,-67.38 37.25,-67.38"/>
<polygon fill="#63b8ff" stroke="#63b8ff" points="228.93,-70.88 238.93,-67.38 228.93,-63.88 228.93,-70.88"/>
</a>
</g>
</g>
<!-- Node5 -->
<g id="Node000005" class="node">
<title>Node5</title>
<g id="a_Node000005"><a xlink:href="carrinho__ino_8ino.html#a4fc01d736fe50cf5b977f755b675f11d" target="_top" xlink:title=" ">
<polygon fill="white" stroke="#666666" points="192.8,-20.75 149.8,-20.75 149.8,0 192.8,0 192.8,-20.75"/>
<text xml:space="preserve" text-anchor="middle" x="171.3" y="-7.25" font-family="Helvetica,sans-Serif" font-size="10.00">setup</text>
</a>
</g>
</g>
<!-- Node1&#45;&gt;Node5 -->
<g id="edge7_Node000001_Node000005" class="edge">
<title>Node1&#45;&gt;Node5</title>
<g id="a_edge7_Node000001_Node000005"><a xlink:title=" ">
<path fill="none" stroke="#63b8ff" d="M236.17,-50.77C221.13,-41.26 202.68,-29.59 189.48,-21.24"/>
<polygon fill="#63b8ff" stroke="#63b8ff" points="233.87,-53.46 244.19,-55.84 237.61,-47.54 233.87,-53.46"/>
</a>
</g>
</g>
<!-- Node2&#45;&gt;Node3 -->
<g id="edge2_Node000002_Node000003" class="edge">
<title>Node2&#45;&gt;Node3</title>
<g id="a_edge2_Node000002_Node000003"><a xlink:title=" ">
<path fill="none" stroke="#63b8ff" d="M136.69,-108.78C124.52,-103.13 111.44,-97.07 101.98,-92.67"/>
<polygon fill="#63b8ff" stroke="#63b8ff" points="135.13,-111.92 145.68,-112.95 138.08,-105.57 135.13,-111.92"/>
</a>
</g>
</g>
<!-- Node3&#45;&gt;Node4 -->
<g id="edge3_Node000003_Node000004" class="edge">
<title>Node3&#45;&gt;Node4</title>
<g id="a_edge3_Node000003_Node000004"><a xlink:title=" ">
<path fill="none" stroke="#63b8ff" d="M61.74,-79.37C53.59,-77.06 44.69,-74.53 37.17,-72.39"/>
<polygon fill="#63b8ff" stroke="#63b8ff" points="60.51,-82.66 71.08,-82.02 62.42,-75.93 60.51,-82.66"/>
</a>
</g>
</g>
</g>
</svg>
</svg>

<style type='text/css'>
<![CDATA[
[data-mouse-over-selected='false'] { opacity: 0.7; }
[data-mouse-over-selected='true']  { opacity: 1.0; }
]]>
</style>
<script type="application/ecmascript"><![CDATA[
document.addEventListener('DOMContentLoaded', (event) => {
  highlightEdges();
  highlightAdjacentNodes();
});
]]></script>
</svg>
