<?xml version="1.0" encoding="UTF-8" standalone="no"?>
<!DOCTYPE svg PUBLIC "-//W3C//DTD SVG 1.1//EN"
 "http://www.w3.org/Graphics/SVG/1.1/DTD/svg11.dtd">
<!-- Generated by graphviz version 14.0.4 (0)
 -->
<!-- Title: digitalWrite_d Pages: 1 -->
<!--zoomable 576 -->

<svg id="main" version="1.1" xmlns="http://www.w3.org/2000/svg" xmlns:xlink="http://www.w3.org/1999/xlink" xml:space="preserve" onload="init(evt)">

<style type="text/css"><![CDATA[
.node, .edge {opacity: 0.7;}
.node.selected, .edge.selected {opacity: 1;}
.edge:hover path { stroke: red; }
.edge:hover polygon { stroke: red; fill: red; }
]]></style>

<defs>
  <circle id="rim" cx="0" cy="0" r="7"/>
  <circle id="rim2" cx="0" cy="0" r="3.5"/>
  <g id="zoomPlus">
    <use xlink:href="#rim" fill="#404040"><set attributeName="fill" to="#808080" begin="zoomplus.mouseover" end="zoomplus.mouseout"/></use>
    <path d="M-4,0h8M0,-4v8" fill="none" stroke="white" stroke-width="1.5" pointer-events="none"/>
  </g>
  <g id="zoomMin">
    <use xlink:href="#rim" fill="#404040"><set attributeName="fill" to="#808080" begin="zoomminus.mouseover" end="zoomminus.mouseout"/></use>
    <path d="M-4,0h8" fill="none" stroke="white" stroke-width="1.5" pointer-events="none"/>
  </g>
  <g id="arrowUp" transform="translate(30 24)">
    <use xlink:href="#rim"/>
    <path pointer-events="none" fill="none" stroke="white" stroke-width="1.5" d="M0,-3.0v7 M-2.5,-0.5L0,-3.0L2.5,-0.5"/>
  </g>
  <g id="arrowRight" transform="rotate(90) translate(36 -43)">
    <use xlink:href="#rim"/>
    <path pointer-events="none" fill="none" stroke="white" stroke-width="1.5" d="M0,-3.0v7 M-2.5,-0.5L0,-3.0L2.5,-0.5"/>
  </g>
  <g id="arrowDown" transform="rotate(180) translate(-30 -48)">
    <use xlink:href="#rim"/>
    <path pointer-events="none" fill="none" stroke="white" stroke-width="1.5" d="M0,-3.0v7 M-2.5,-0.5L0,-3.0L2.5,-0.5"/>
  </g>
  <g id="arrowLeft" transform="rotate(270) translate(-36 17)">
    <use xlink:href="#rim"/>
    <path pointer-events="none" fill="none" stroke="white" stroke-width="1.5" d="M0,-3.0v7 M-2.5,-0.5L0,-3.0L2.5,-0.5"/>
  </g>
  <g id="resetDef">
    <use xlink:href="#rim2" fill="#404040"><set attributeName="fill" to="#808080" begin="reset.mouseover" end="reset.mouseout"/></use>
  </g>
</defs>
<script type="application/ecmascript">
var viewWidth = 797;
var viewHeight = 576;
var sectionId = 'dynsection-9';
</script>
<script type="application/ecmascript" xlink:href="svg.min.js"/>
<svg id="graph" class="graph">
<g id="viewport">
<title>digitalWrite_d</title>
<!-- Node1 -->
<g id="Node000001" class="node">
<title>Node1</title>
<g id="a_Node000001"><a xlink:title=" ">
<polygon fill="#999999" stroke="#666666" points="788.5,-383.66 704.25,-383.66 704.25,-362.91 788.5,-362.91 788.5,-383.66"/>
<text xml:space="preserve" text-anchor="middle" x="746.38" y="-370.16" font-family="Helvetica,sans-Serif" font-size="10.00">digitalWrite_d</text>
</a>
</g>
</g>
<!-- Node2 -->
<g id="Node000002" class="node">
<title>Node2</title>
<g id="a_Node000002"><a xlink:href="carrinho_2nrf24__avr_8c.html#a5336963072afb877d785bed84eb6b5f4" target="_top" xlink:title=" ">
<polygon fill="white" stroke="#666666" points="553.62,-559.66 500.12,-559.66 500.12,-538.91 553.62,-538.91 553.62,-559.66"/>
<text xml:space="preserve" text-anchor="middle" x="526.88" y="-546.16" font-family="Helvetica,sans-Serif" font-size="10.00">ce_high</text>
</a>
</g>
</g>
<!-- Node1&#45;&gt;Node2 -->
<g id="edge1_Node000001_Node000002" class="edge">
<title>Node1&#45;&gt;Node2</title>
<g id="a_edge1_Node000001_Node000002"><a xlink:title=" ">
<path fill="none" stroke="#63b8ff" d="M728.23,-392.46C699.02,-424.24 636.59,-488.39 573.5,-529.29 567.4,-533.24 560.4,-536.75 553.73,-539.68"/>
<polygon fill="#63b8ff" stroke="#63b8ff" points="730.73,-394.92 734.86,-385.16 725.55,-390.21 730.73,-394.92"/>
</a>
</g>
</g>
<!-- Node9 -->
<g id="Node000009" class="node">
<title>Node9</title>
<g id="a_Node000009"><a xlink:href="carrinho_2nrf24__avr_8c.html#a77c5f7c57c01266d04faea3052a47f49" target="_top" xlink:title=" ">
<polygon fill="white" stroke="#666666" points="551.75,-481.66 502,-481.66 502,-460.91 551.75,-460.91 551.75,-481.66"/>
<text xml:space="preserve" text-anchor="middle" x="526.88" y="-468.16" font-family="Helvetica,sans-Serif" font-size="10.00">ce_low</text>
</a>
</g>
</g>
<!-- Node1&#45;&gt;Node9 -->
<g id="edge8_Node000001_Node000009" class="edge">
<title>Node1&#45;&gt;Node9</title>
<g id="a_edge8_Node000001_Node000009"><a xlink:title=" ">
<path fill="none" stroke="#63b8ff" d="M711.75,-388.7C677.14,-404.53 621.64,-429.81 573.5,-451.29 566.55,-454.39 558.99,-457.72 552.05,-460.76"/>
<polygon fill="#63b8ff" stroke="#63b8ff" points="712.77,-392.08 720.41,-384.74 709.86,-385.72 712.77,-392.08"/>
</a>
</g>
</g>
<!-- Node13 -->
<g id="Node000013" class="node">
<title>Node13</title>
<g id="a_Node000013"><a xlink:href="carrinho_2nrf24__avr_8c.html#adaef88bc02a8e805de3b3a82bf317549" target="_top" xlink:title=" ">
<polygon fill="white" stroke="#666666" points="668.25,-325.66 609.5,-325.66 609.5,-304.91 668.25,-304.91 668.25,-325.66"/>
<text xml:space="preserve" text-anchor="middle" x="638.88" y="-312.16" font-family="Helvetica,sans-Serif" font-size="10.00">csn_high</text>
</a>
</g>
</g>
<!-- Node1&#45;&gt;Node13 -->
<g id="edge18_Node000001_Node000013" class="edge">
<title>Node1&#45;&gt;Node13</title>
<g id="a_edge18_Node000001_Node000013"><a xlink:title=" ">
<path fill="none" stroke="#63b8ff" d="M716.01,-357.14C697.97,-347.22 675.34,-334.78 659.46,-326.05"/>
<polygon fill="#63b8ff" stroke="#63b8ff" points="714.25,-360.17 724.7,-361.92 717.62,-354.03 714.25,-360.17"/>
</a>
</g>
</g>
<!-- Node29 -->
<g id="Node000029" class="node">
<title>Node29</title>
<g id="a_Node000029"><a xlink:href="carrinho_2nrf24__avr_8c.html#a42f8c1120431b7c37e116a4e1eac1cc2" target="_top" xlink:title=" ">
<polygon fill="white" stroke="#666666" points="666.38,-364.66 611.38,-364.66 611.38,-343.91 666.38,-343.91 666.38,-364.66"/>
<text xml:space="preserve" text-anchor="middle" x="638.88" y="-351.16" font-family="Helvetica,sans-Serif" font-size="10.00">csn_low</text>
</a>
</g>
</g>
<!-- Node1&#45;&gt;Node29 -->
<g id="edge56_Node000001_Node000029" class="edge">
<title>Node1&#45;&gt;Node29</title>
<g id="a_edge56_Node000001_Node000029"><a xlink:title=" ">
<path fill="none" stroke="#63b8ff" d="M692.92,-363.84C683.78,-362.19 674.63,-360.54 666.56,-359.09"/>
<polygon fill="#63b8ff" stroke="#63b8ff" points="692.03,-367.23 702.49,-365.56 693.27,-360.35 692.03,-367.23"/>
</a>
</g>
</g>
<!-- Node3 -->
<g id="Node000003" class="node">
<title>Node3</title>
<g id="a_Node000003"><a xlink:href="carrinho_2nrf24__avr_8c.html#a71c5628e9583f6a6fd0871b3ae1bf6df" target="_top" xlink:title=" ">
<polygon fill="white" stroke="#666666" points="440.5,-364.66 327,-364.66 327,-343.91 440.5,-343.91 440.5,-364.66"/>
<text xml:space="preserve" text-anchor="middle" x="383.75" y="-351.16" font-family="Helvetica,sans-Serif" font-size="10.00">nrf24_startListening</text>
</a>
</g>
</g>
<!-- Node2&#45;&gt;Node3 -->
<g id="edge2_Node000002_Node000003" class="edge">
<title>Node2&#45;&gt;Node3</title>
<g id="a_edge2_Node000002_Node000003"><a xlink:title=" ">
<path fill="none" stroke="#63b8ff" d="M489.57,-537.05C486.12,-534.85 482.92,-532.28 480.25,-529.29 443.81,-488.31 472.98,-457.99 444.25,-411.29 432.63,-392.4 413.27,-375.49 399.8,-365.08"/>
<polygon fill="#63b8ff" stroke="#63b8ff" points="487.89,-540.12 498.38,-541.61 491.11,-533.9 487.89,-540.12"/>
</a>
</g>
</g>
<!-- Node6 -->
<g id="Node000006" class="node">
<title>Node6</title>
<g id="a_Node000006"><a xlink:href="carrinho_2nrf24__avr_8c.html#a8232e1982aabc6f52408c318402cb578" target="_top" xlink:title=" ">
<polygon fill="white" stroke="#666666" points="257.25,-497.66 185.75,-497.66 185.75,-476.91 257.25,-476.91 257.25,-497.66"/>
<text xml:space="preserve" text-anchor="middle" x="221.5" y="-484.16" font-family="Helvetica,sans-Serif" font-size="10.00">nrf24_write</text>
</a>
</g>
</g>
<!-- Node2&#45;&gt;Node6 -->
<g id="edge5_Node000002_Node000006" class="edge">
<title>Node2&#45;&gt;Node6</title>
<g id="a_edge5_Node000002_Node000006"><a xlink:title=" ">
<path fill="none" stroke="#63b8ff" d="M488.69,-558.1C447.29,-566.25 378.87,-574.71 323.25,-557.29 285.85,-545.57 250.17,-514.53 233.05,-498"/>
<polygon fill="#63b8ff" stroke="#63b8ff" points="489.31,-561.55 498.39,-556.09 487.89,-554.69 489.31,-561.55"/>
</a>
</g>
</g>
<!-- Node4 -->
<g id="Node000004" class="node">
<title>Node4</title>
<g id="a_Node000004"><a xlink:href="carrinho_8c.html#ae66f6b31b5ad750f1fe042a706a4e3d4" target="_top" xlink:title="Função principal: inicializa periféricos e roda loop().">
<polygon fill="white" stroke="#666666" points="118.62,-212.66 77.88,-212.66 77.88,-191.91 118.62,-191.91 118.62,-212.66"/>
<text xml:space="preserve" text-anchor="middle" x="98.25" y="-199.16" font-family="Helvetica,sans-Serif" font-size="10.00">main</text>
</a>
</g>
</g>
<!-- Node3&#45;&gt;Node4 -->
<g id="edge3_Node000003_Node000004" class="edge">
<title>Node3&#45;&gt;Node4</title>
<g id="a_edge3_Node000003_Node000004"><a xlink:title=" ">
<path fill="none" stroke="#63b8ff" d="M315.46,-366.25C266.65,-371.11 201.44,-369.28 155.75,-336.29 114,-306.13 102.91,-238.94 100.13,-212.89"/>
<polygon fill="#63b8ff" stroke="#63b8ff" points="315.81,-369.73 325.36,-365.14 315.03,-362.78 315.81,-369.73"/>
</a>
</g>
</g>
<!-- Node5 -->
<g id="Node000005" class="node">
<title>Node5</title>
<g id="a_Node000005"><a xlink:href="main_8c.html#a840291bc02cba5474a4cb46a9b9566fe" target="_top" xlink:title=" ">
<polygon fill="white" stroke="#666666" points="118.62,-135.66 77.88,-135.66 77.88,-114.91 118.62,-114.91 118.62,-135.66"/>
<text xml:space="preserve" text-anchor="middle" x="98.25" y="-122.16" font-family="Helvetica,sans-Serif" font-size="10.00">main</text>
</a>
</g>
</g>
<!-- Node3&#45;&gt;Node5 -->
<g id="edge4_Node000003_Node000005" class="edge">
<title>Node3&#45;&gt;Node5</title>
<g id="a_edge4_Node000003_Node000005"><a xlink:title=" ">
<path fill="none" stroke="#63b8ff" d="M339.94,-339.1C334.17,-336.46 328.46,-333.51 323.25,-330.29 305.06,-319 306,-308.62 287.25,-298.29 233.98,-268.91 201.17,-300.76 155.75,-260.29 145.79,-251.41 114.15,-166.25 103.1,-135.94"/>
<polygon fill="#63b8ff" stroke="#63b8ff" points="338.31,-342.21 348.88,-342.92 341.06,-335.78 338.31,-342.21"/>
</a>
</g>
</g>
<!-- Node7 -->
<g id="Node000007" class="node">
<title>Node7</title>
<g id="a_Node000007"><a xlink:href="controle_8c.html#afe461d27b9c48d5921c00d521181f12f" target="_top" xlink:title="Loop principal: lê controles, aplica deadzone, envia por RF e atualiza LEDs.">
<polygon fill="white" stroke="#666666" points="116.75,-459.66 79.75,-459.66 79.75,-438.91 116.75,-438.91 116.75,-459.66"/>
<text xml:space="preserve" text-anchor="middle" x="98.25" y="-446.16" font-family="Helvetica,sans-Serif" font-size="10.00">loop</text>
</a>
</g>
</g>
<!-- Node6&#45;&gt;Node7 -->
<g id="edge6_Node000006_Node000007" class="edge">
<title>Node6&#45;&gt;Node7</title>
<g id="a_edge6_Node000006_Node000007"><a xlink:title=" ">
<path fill="none" stroke="#63b8ff" d="M175.14,-473.07C154.87,-466.72 132.18,-459.61 116.93,-454.83"/>
<polygon fill="#63b8ff" stroke="#63b8ff" points="174.05,-476.39 184.63,-476.05 176.14,-469.71 174.05,-476.39"/>
</a>
</g>
</g>
<!-- Node8 -->
<g id="Node000008" class="node">
<title>Node8</title>
<g id="a_Node000008"><a xlink:href="controle_8c.html#ae66f6b31b5ad750f1fe042a706a4e3d4" target="_top" xlink:title="Função principal do firmware.">
<polygon fill="white" stroke="#666666" points="40.75,-411.66 0,-411.66 0,-390.91 40.75,-390.91 40.75,-411.66"/>
<text xml:space="preserve" text-anchor="middle" x="20.38" y="-398.16" font-family="Helvetica,sans-Serif" font-size="10.00">main</text>
</a>
</g>
</g>
<!-- Node7&#45;&gt;Node8 -->
<g id="edge7_Node000007_Node000008" class="edge">
<title>Node7&#45;&gt;Node8</title>
<g id="a_edge7_Node000007_Node000008"><a xlink:title=" ">
<path fill="none" stroke="#63b8ff" d="M71.01,-432.69C60.22,-425.86 48.03,-418.15 38.43,-412.07"/>
<polygon fill="#63b8ff" stroke="#63b8ff" points="68.81,-435.44 79.13,-437.82 72.55,-429.52 68.81,-435.44"/>
</a>
</g>
</g>
<!-- Node9&#45;&gt;Node6 -->
<g id="edge17_Node000009_Node000006" class="edge">
<title>Node9&#45;&gt;Node6</title>
<g id="a_edge17_Node000009_Node000006"><a xlink:title=" ">
<path fill="none" stroke="#63b8ff" d="M491.44,-485.2C487.59,-487.1 483.78,-489.14 480.25,-491.29 462.69,-501.95 463.63,-513.45 444.25,-520.29 375.06,-544.69 287.53,-515.26 246.19,-498.05"/>
<polygon fill="#63b8ff" stroke="#63b8ff" points="492.61,-488.51 500.22,-481.15 489.67,-482.16 492.61,-488.51"/>
</a>
</g>
</g>
<!-- Node10 -->
<g id="Node000010" class="node">
<title>Node10</title>
<g id="a_Node000010"><a xlink:href="carrinho_2nrf24__avr_8c.html#ab6fb4c1aa834152310116e7dec65d8e3" target="_top" xlink:title=" ">
<polygon fill="white" stroke="#666666" points="258.38,-251.66 184.62,-251.66 184.62,-230.91 258.38,-230.91 258.38,-251.66"/>
<text xml:space="preserve" text-anchor="middle" x="221.5" y="-238.16" font-family="Helvetica,sans-Serif" font-size="10.00">nrf24_begin</text>
</a>
</g>
</g>
<!-- Node9&#45;&gt;Node10 -->
<g id="edge9_Node000009_Node000010" class="edge">
<title>Node9&#45;&gt;Node10</title>
<g id="a_edge9_Node000009_Node000010"><a xlink:title=" ">
<path fill="none" stroke="#63b8ff" d="M491.55,-460.23C487.35,-457.79 483.43,-454.84 480.25,-451.29 444.28,-411.03 483.08,-372.79 444.25,-335.29 404.16,-296.56 369.68,-333.14 323.25,-302.29 301.63,-287.92 309.15,-270.23 287.25,-256.29 278.78,-250.89 268.59,-247.43 258.83,-245.21"/>
<polygon fill="#63b8ff" stroke="#63b8ff" points="489.75,-463.25 500.28,-464.4 492.76,-456.93 489.75,-463.25"/>
</a>
</g>
</g>
<!-- Node12 -->
<g id="Node000012" class="node">
<title>Node12</title>
<g id="a_Node000012"><a xlink:href="carrinho_2nrf24__avr_8c.html#a33899bc3c0f4d2293f37c306d0b8e297" target="_top" xlink:title=" ">
<polygon fill="white" stroke="#666666" points="439.75,-440.66 327.75,-440.66 327.75,-419.91 439.75,-419.91 439.75,-440.66"/>
<text xml:space="preserve" text-anchor="middle" x="383.75" y="-427.16" font-family="Helvetica,sans-Serif" font-size="10.00">nrf24_stopListening</text>
</a>
</g>
</g>
<!-- Node9&#45;&gt;Node12 -->
<g id="edge14_Node000009_Node000012" class="edge">
<title>Node9&#45;&gt;Node12</title>
<g id="a_edge14_Node000009_Node000012"><a xlink:title=" ">
<path fill="none" stroke="#63b8ff" d="M490.63,-461.05C469.71,-454.97 443.2,-447.27 421.94,-441.09"/>
<polygon fill="#63b8ff" stroke="#63b8ff" points="489.58,-464.39 500.16,-463.82 491.53,-457.66 489.58,-464.39"/>
</a>
</g>
</g>
<!-- Node10&#45;&gt;Node4 -->
<g id="edge10_Node000010_Node000004" class="edge">
<title>Node10&#45;&gt;Node4</title>
<g id="a_edge10_Node000010_Node000004"><a xlink:title=" ">
<path fill="none" stroke="#63b8ff" d="M173.95,-227.06C167.82,-225.14 161.63,-223.18 155.75,-221.29 143.54,-217.35 129.9,-212.77 119.08,-209.09"/>
<polygon fill="#63b8ff" stroke="#63b8ff" points="172.79,-230.36 183.38,-229.99 174.87,-223.68 172.79,-230.36"/>
</a>
</g>
</g>
<!-- Node10&#45;&gt;Node5 -->
<g id="edge11_Node000010_Node000005" class="edge">
<title>Node10&#45;&gt;Node5</title>
<g id="a_edge11_Node000010_Node000005"><a xlink:title=" ">
<path fill="none" stroke="#63b8ff" d="M173.49,-231.36C167.14,-228.75 161.01,-225.45 155.75,-221.29 126.63,-198.25 109.41,-155.77 102.62,-135.97"/>
<polygon fill="#63b8ff" stroke="#63b8ff" points="172.25,-234.64 182.84,-234.65 174.57,-228.03 172.25,-234.64"/>
</a>
</g>
</g>
<!-- Node11 -->
<g id="Node000011" class="node">
<title>Node11</title>
<g id="a_Node000011"><a xlink:href="controle_8c.html#a4fc01d736fe50cf5b977f755b675f11d" target="_top" xlink:title="Inicializações principais (ADC, PWM, entradas e rádio).">
<polygon fill="white" stroke="#666666" points="119.75,-364.66 76.75,-364.66 76.75,-343.91 119.75,-343.91 119.75,-364.66"/>
<text xml:space="preserve" text-anchor="middle" x="98.25" y="-351.16" font-family="Helvetica,sans-Serif" font-size="10.00">setup</text>
</a>
</g>
</g>
<!-- Node10&#45;&gt;Node11 -->
<g id="edge12_Node000010_Node000011" class="edge">
<title>Node10&#45;&gt;Node11</title>
<g id="a_edge12_Node000010_Node000011"><a xlink:title=" ">
<path fill="none" stroke="#63b8ff" d="M199.33,-259.37C186.54,-270.42 170.02,-284.96 155.75,-298.29 139.2,-313.75 120.67,-332.38 109.48,-343.78"/>
<polygon fill="#63b8ff" stroke="#63b8ff" points="201.45,-262.16 206.74,-252.99 196.88,-256.86 201.45,-262.16"/>
</a>
</g>
</g>
<!-- Node11&#45;&gt;Node8 -->
<g id="edge13_Node000011_Node000008" class="edge">
<title>Node11&#45;&gt;Node8</title>
<g id="a_edge13_Node000011_Node000008"><a xlink:title=" ">
<path fill="none" stroke="#63b8ff" d="M70.45,-370.89C59.93,-377.4 48.16,-384.69 38.79,-390.5"/>
<polygon fill="#63b8ff" stroke="#63b8ff" points="72.09,-373.99 78.75,-365.75 68.4,-368.04 72.09,-373.99"/>
</a>
</g>
</g>
<!-- Node12&#45;&gt;Node6 -->
<g id="edge15_Node000012_Node000006" class="edge">
<title>Node12&#45;&gt;Node6</title>
<g id="a_edge15_Node000012_Node000006"><a xlink:title=" ">
<path fill="none" stroke="#63b8ff" d="M341.68,-444.89C313.98,-454.74 278.05,-467.53 252.91,-476.47"/>
<polygon fill="#63b8ff" stroke="#63b8ff" points="342.56,-448.3 350.8,-441.65 340.21,-441.7 342.56,-448.3"/>
</a>
</g>
</g>
<!-- Node12&#45;&gt;Node11 -->
<g id="edge16_Node000012_Node000011" class="edge">
<title>Node12&#45;&gt;Node11</title>
<g id="a_edge16_Node000012_Node000011"><a xlink:title=" ">
<path fill="none" stroke="#63b8ff" d="M331.53,-416.55C268.38,-399.63 164.04,-371.65 119.94,-359.83"/>
<polygon fill="#63b8ff" stroke="#63b8ff" points="330.41,-419.88 340.97,-419.09 332.22,-413.12 330.41,-419.88"/>
</a>
</g>
</g>
<!-- Node13&#45;&gt;Node10 -->
<g id="edge19_Node000013_Node000010" class="edge">
<title>Node13&#45;&gt;Node10</title>
<g id="a_edge19_Node000013_Node000010"><a xlink:title=" ">
<path fill="none" stroke="#63b8ff" d="M634.82,-293.61C629.08,-262.07 613.45,-204.57 573.5,-179.29 538.48,-157.12 521.41,-174.41 480.25,-179.29 437.4,-184.37 319.05,-215.26 258.78,-231.44"/>
<polygon fill="#63b8ff" stroke="#63b8ff" points="631.31,-293.85 636.37,-303.16 638.22,-292.73 631.31,-293.85"/>
</a>
</g>
</g>
<!-- Node14 -->
<g id="Node000014" class="node">
<title>Node14</title>
<g id="a_Node000014"><a xlink:href="carrinho_2nrf24__avr_8c.html#a9351c150d32184a95db9ab4a802ed860" target="_top" xlink:title=" ">
<polygon fill="white" stroke="#666666" points="569.75,-286.66 484,-286.66 484,-265.91 569.75,-265.91 569.75,-286.66"/>
<text xml:space="preserve" text-anchor="middle" x="526.88" y="-273.16" font-family="Helvetica,sans-Serif" font-size="10.00">nrf24_flush_rx</text>
</a>
</g>
</g>
<!-- Node13&#45;&gt;Node14 -->
<g id="edge20_Node000013_Node000014" class="edge">
<title>Node13&#45;&gt;Node14</title>
<g id="a_edge20_Node000013_Node000014"><a xlink:title=" ">
<path fill="none" stroke="#63b8ff" d="M598.52,-301.33C585.28,-296.64 570.72,-291.47 558.27,-287.06"/>
<polygon fill="#63b8ff" stroke="#63b8ff" points="597.24,-304.59 607.83,-304.63 599.58,-297.99 597.24,-304.59"/>
</a>
</g>
</g>
<!-- Node15 -->
<g id="Node000015" class="node">
<title>Node15</title>
<g id="a_Node000015"><a xlink:href="carrinho_2nrf24__avr_8c.html#a617ab4b2604d6f482796e35da85369ad" target="_top" xlink:title=" ">
<polygon fill="white" stroke="#666666" points="569.75,-520.66 484,-520.66 484,-499.91 569.75,-499.91 569.75,-520.66"/>
<text xml:space="preserve" text-anchor="middle" x="526.88" y="-507.16" font-family="Helvetica,sans-Serif" font-size="10.00">nrf24_flush_tx</text>
</a>
</g>
</g>
<!-- Node13&#45;&gt;Node15 -->
<g id="edge21_Node000013_Node000015" class="edge">
<title>Node13&#45;&gt;Node15</title>
<g id="a_edge21_Node000013_Node000015"><a xlink:title=" ">
<path fill="none" stroke="#63b8ff" d="M610.42,-333.99C610.1,-334.42 609.79,-334.85 609.5,-335.29 570,-393.95 618.68,-435.87 573.5,-490.29 570.41,-494.01 566.48,-497.06 562.24,-499.56"/>
<polygon fill="#63b8ff" stroke="#63b8ff" points="612.71,-336.66 617.36,-327.14 607.79,-331.68 612.71,-336.66"/>
</a>
</g>
</g>
<!-- Node16 -->
<g id="Node000016" class="node">
<title>Node16</title>
<g id="a_Node000016"><a xlink:href="carrinho_2nrf24__avr_8c.html#a9a23f602a6077c795322702d0a42f48c" target="_top" xlink:title=" ">
<polygon fill="white" stroke="#666666" points="573.5,-325.66 480.25,-325.66 480.25,-304.91 573.5,-304.91 573.5,-325.66"/>
<text xml:space="preserve" text-anchor="middle" x="526.88" y="-312.16" font-family="Helvetica,sans-Serif" font-size="10.00">nrf24_getStatus</text>
</a>
</g>
</g>
<!-- Node13&#45;&gt;Node16 -->
<g id="edge23_Node000013_Node000016" class="edge">
<title>Node13&#45;&gt;Node16</title>
<g id="a_edge23_Node000013_Node000016"><a xlink:title=" ">
<path fill="none" stroke="#63b8ff" d="M597.84,-315.29C590.04,-315.29 581.8,-315.29 573.82,-315.29"/>
<polygon fill="#63b8ff" stroke="#63b8ff" points="597.75,-318.79 607.75,-315.29 597.75,-311.79 597.75,-318.79"/>
</a>
</g>
</g>
<!-- Node17 -->
<g id="Node000017" class="node">
<title>Node17</title>
<g id="a_Node000017"><a xlink:href="carrinho_2nrf24__avr_8c.html#ac4a676257b5b86b05f4ea608636cb2cf" target="_top" xlink:title=" ">
<polygon fill="white" stroke="#666666" points="567.88,-208.66 485.88,-208.66 485.88,-187.91 567.88,-187.91 567.88,-208.66"/>
<text xml:space="preserve" text-anchor="middle" x="526.88" y="-195.16" font-family="Helvetica,sans-Serif" font-size="10.00">read_payload</text>
</a>
</g>
</g>
<!-- Node13&#45;&gt;Node17 -->
<g id="edge24_Node000013_Node000017" class="edge">
<title>Node13&#45;&gt;Node17</title>
<g id="a_edge24_Node000013_Node000017"><a xlink:title=" ">
<path fill="none" stroke="#63b8ff" d="M628.33,-294.14C617.66,-272.56 598.55,-239.34 573.5,-218.29 569.26,-214.72 564.29,-211.69 559.22,-209.15"/>
<polygon fill="#63b8ff" stroke="#63b8ff" points="625.15,-295.6 632.6,-303.14 631.47,-292.6 625.15,-295.6"/>
</a>
</g>
</g>
<!-- Node20 -->
<g id="Node000020" class="node">
<title>Node20</title>
<g id="a_Node000020"><a xlink:href="carrinho_2nrf24__avr_8c.html#abefdb1d58b989853c0646a6c8b18b7d3" target="_top" xlink:title=" ">
<polygon fill="white" stroke="#666666" points="556.25,-403.66 497.5,-403.66 497.5,-382.91 556.25,-382.91 556.25,-403.66"/>
<text xml:space="preserve" text-anchor="middle" x="526.88" y="-390.16" font-family="Helvetica,sans-Serif" font-size="10.00">read_reg</text>
</a>
</g>
</g>
<!-- Node13&#45;&gt;Node20 -->
<g id="edge29_Node000013_Node000020" class="edge">
<title>Node13&#45;&gt;Node20</title>
<g id="a_edge29_Node000013_Node000020"><a xlink:title=" ">
<path fill="none" stroke="#63b8ff" d="M612.39,-332.87C611.4,-333.67 610.43,-334.48 609.5,-335.29 591.91,-350.51 592.53,-359.91 573.5,-373.29 568.26,-376.97 562.24,-380.19 556.33,-382.91"/>
<polygon fill="#63b8ff" stroke="#63b8ff" points="614.46,-335.69 620.34,-326.87 610.25,-330.1 614.46,-335.69"/>
</a>
</g>
</g>
<!-- Node22 -->
<g id="Node000022" class="node">
<title>Node22</title>
<g id="a_Node000022"><a xlink:href="carrinho_2nrf24__avr_8c.html#a31d6889b046799ad06c03ce52c9bb640" target="_top" xlink:title=" ">
<polygon fill="white" stroke="#666666" points="566.75,-247.66 487,-247.66 487,-226.91 566.75,-226.91 566.75,-247.66"/>
<text xml:space="preserve" text-anchor="middle" x="526.88" y="-234.16" font-family="Helvetica,sans-Serif" font-size="10.00">read_reg_buf</text>
</a>
</g>
</g>
<!-- Node13&#45;&gt;Node22 -->
<g id="edge36_Node000013_Node000022" class="edge">
<title>Node13&#45;&gt;Node22</title>
<g id="a_edge36_Node000013_Node000022"><a xlink:title=" ">
<path fill="none" stroke="#63b8ff" d="M620.25,-296.53C607.98,-284.24 590.79,-268.45 573.5,-257.29 568.12,-253.81 562.04,-250.68 556.11,-247.98"/>
<polygon fill="#63b8ff" stroke="#63b8ff" points="617.7,-298.93 627.18,-303.66 622.72,-294.05 617.7,-298.93"/>
</a>
</g>
</g>
<!-- Node23 -->
<g id="Node000023" class="node">
<title>Node23</title>
<g id="a_Node000023"><a xlink:href="carrinho_2nrf24__avr_8c.html#a3c9fd94e9894bf0792d4ff5891c16436" target="_top" xlink:title=" ">
<polygon fill="white" stroke="#666666" points="569.38,-442.66 484.38,-442.66 484.38,-421.91 569.38,-421.91 569.38,-442.66"/>
<text xml:space="preserve" text-anchor="middle" x="526.88" y="-429.16" font-family="Helvetica,sans-Serif" font-size="10.00">write_payload</text>
</a>
</g>
</g>
<!-- Node13&#45;&gt;Node23 -->
<g id="edge37_Node000013_Node000023" class="edge">
<title>Node13&#45;&gt;Node23</title>
<g id="a_edge37_Node000013_Node000023"><a xlink:title=" ">
<path fill="none" stroke="#63b8ff" d="M611.18,-333.4C610.6,-334.01 610.04,-334.64 609.5,-335.29 585.25,-364.25 600.53,-385.9 573.5,-412.29 569.79,-415.91 565.31,-418.93 560.63,-421.44"/>
<polygon fill="#63b8ff" stroke="#63b8ff" points="613.22,-336.26 618.44,-327.05 608.61,-330.99 613.22,-336.26"/>
</a>
</g>
</g>
<!-- Node24 -->
<g id="Node000024" class="node">
<title>Node24</title>
<g id="a_Node000024"><a xlink:href="carrinho_2nrf24__avr_8c.html#a08bc978021db604d02a6da754f73e7e2" target="_top" xlink:title=" ">
<polygon fill="white" stroke="#666666" points="557.75,-364.66 496,-364.66 496,-343.91 557.75,-343.91 557.75,-364.66"/>
<text xml:space="preserve" text-anchor="middle" x="526.88" y="-351.16" font-family="Helvetica,sans-Serif" font-size="10.00">write_reg</text>
</a>
</g>
</g>
<!-- Node13&#45;&gt;Node24 -->
<g id="edge39_Node000013_Node000024" class="edge">
<title>Node13&#45;&gt;Node24</title>
<g id="a_edge39_Node000013_Node000024"><a xlink:title=" ">
<path fill="none" stroke="#63b8ff" d="M598.43,-329.27C585.08,-334.01 570.39,-339.21 557.88,-343.65"/>
<polygon fill="#63b8ff" stroke="#63b8ff" points="599.58,-332.58 607.83,-325.94 597.24,-325.98 599.58,-332.58"/>
</a>
</g>
</g>
<!-- Node15&#45;&gt;Node6 -->
<g id="edge22_Node000015_Node000006" class="edge">
<title>Node15&#45;&gt;Node6</title>
<g id="a_edge22_Node000015_Node000006"><a xlink:title=" ">
<path fill="none" stroke="#63b8ff" d="M491.77,-525.33C477.4,-530.9 460.31,-536.52 444.25,-539.29 391.25,-548.42 375.51,-551.98 323.25,-539.29 290.54,-531.34 256.58,-510.81 237.63,-498.05"/>
<polygon fill="#63b8ff" stroke="#63b8ff" points="492.8,-528.69 500.77,-521.7 490.18,-522.2 492.8,-528.69"/>
</a>
</g>
</g>
<!-- Node18 -->
<g id="Node000018" class="node">
<title>Node18</title>
<g id="a_Node000018"><a xlink:href="carrinho_2nrf24__avr_8c.html#aa0767db791fc0b45ebadab011c1900bf" target="_top" xlink:title=" ">
<polygon fill="white" stroke="#666666" points="418,-21.66 349.5,-21.66 349.5,-0.91 418,-0.91 418,-21.66"/>
<text xml:space="preserve" text-anchor="middle" x="383.75" y="-8.16" font-family="Helvetica,sans-Serif" font-size="10.00">nrf24_read</text>
</a>
</g>
</g>
<!-- Node17&#45;&gt;Node18 -->
<g id="edge25_Node000017_Node000018" class="edge">
<title>Node17&#45;&gt;Node18</title>
<g id="a_edge25_Node000017_Node000018"><a xlink:title=" ">
<path fill="none" stroke="#63b8ff" d="M520.35,-176.43C510.59,-141.96 487.14,-74.84 444.25,-35.29 436.96,-28.56 427.55,-23.62 418.37,-20.02"/>
<polygon fill="#63b8ff" stroke="#63b8ff" points="516.97,-177.33 522.95,-186.08 523.73,-175.51 516.97,-177.33"/>
</a>
</g>
</g>
<!-- Node18&#45;&gt;Node5 -->
<g id="edge28_Node000018_Node000005" class="edge">
<title>Node18&#45;&gt;Node5</title>
<g id="a_edge28_Node000018_Node000005"><a xlink:title=" ">
<path fill="none" stroke="#63b8ff" d="M337.98,-3.65C289.29,2.21 211.04,4.29 155.75,-30.29 124.35,-49.92 108.18,-93.95 102.13,-114.43"/>
<polygon fill="#63b8ff" stroke="#63b8ff" points="337.52,-7.12 347.89,-4.97 338.43,-0.18 337.52,-7.12"/>
</a>
</g>
</g>
<!-- Node19 -->
<g id="Node000019" class="node">
<title>Node19</title>
<g id="a_Node000019"><a xlink:href="carrinho_8c.html#afe461d27b9c48d5921c00d521181f12f" target="_top" xlink:title="Laço principal contendo toda a lógica do robô.">
<polygon fill="white" stroke="#666666" points="240,-212.66 203,-212.66 203,-191.91 240,-191.91 240,-212.66"/>
<text xml:space="preserve" text-anchor="middle" x="221.5" y="-199.16" font-family="Helvetica,sans-Serif" font-size="10.00">loop</text>
</a>
</g>
</g>
<!-- Node18&#45;&gt;Node19 -->
<g id="edge26_Node000018_Node000019" class="edge">
<title>Node18&#45;&gt;Node19</title>
<g id="a_edge26_Node000018_Node000019"><a xlink:title=" ">
<path fill="none" stroke="#63b8ff" d="M369.1,-31.53C356.55,-50.49 337.76,-79.79 323.25,-106.29 305.3,-139.07 315.5,-157.81 287.25,-182.29 274.09,-193.69 254.51,-198.59 240.32,-200.7"/>
<polygon fill="#63b8ff" stroke="#63b8ff" points="371.88,-33.67 374.52,-23.41 366.06,-29.78 371.88,-33.67"/>
</a>
</g>
</g>
<!-- Node19&#45;&gt;Node4 -->
<g id="edge27_Node000019_Node000004" class="edge">
<title>Node19&#45;&gt;Node4</title>
<g id="a_edge27_Node000019_Node000004"><a xlink:title=" ">
<path fill="none" stroke="#63b8ff" d="M191.38,-202.29C168.91,-202.29 138.45,-202.29 118.82,-202.29"/>
<polygon fill="#63b8ff" stroke="#63b8ff" points="191.1,-205.79 201.1,-202.29 191.1,-198.79 191.1,-205.79"/>
</a>
</g>
</g>
<!-- Node20&#45;&gt;Node3 -->
<g id="edge33_Node000020_Node000003" class="edge">
<title>Node20&#45;&gt;Node3</title>
<g id="a_edge33_Node000020_Node000003"><a xlink:title=" ">
<path fill="none" stroke="#63b8ff" d="M486.35,-382.36C466.86,-376.98 443.41,-370.5 423.96,-365.12"/>
<polygon fill="#63b8ff" stroke="#63b8ff" points="485.29,-385.7 495.86,-384.99 487.15,-378.95 485.29,-385.7"/>
</a>
</g>
</g>
<!-- Node20&#45;&gt;Node6 -->
<g id="edge35_Node000020_Node000006" class="edge">
<title>Node20&#45;&gt;Node6</title>
<g id="a_edge35_Node000020_Node000006"><a xlink:title=" ">
<path fill="none" stroke="#63b8ff" d="M486.82,-409.2C484.55,-410.5 482.34,-411.86 480.25,-413.29 461.57,-426.05 464.35,-438.89 444.25,-449.29 412.34,-465.8 311.74,-478.21 257.68,-483.88"/>
<polygon fill="#63b8ff" stroke="#63b8ff" points="488.36,-412.35 495.67,-404.68 485.17,-406.11 488.36,-412.35"/>
</a>
</g>
</g>
<!-- Node20&#45;&gt;Node12 -->
<g id="edge34_Node000020_Node000012" class="edge">
<title>Node20&#45;&gt;Node12</title>
<g id="a_edge34_Node000020_Node000012"><a xlink:title=" ">
<path fill="none" stroke="#63b8ff" d="M486.44,-403.62C467.64,-408.55 445.15,-414.45 426.11,-419.44"/>
<polygon fill="#63b8ff" stroke="#63b8ff" points="487.07,-407.08 495.85,-401.16 485.29,-400.31 487.07,-407.08"/>
</a>
</g>
</g>
<!-- Node21 -->
<g id="Node000021" class="node">
<title>Node21</title>
<g id="a_Node000021"><a xlink:href="carrinho_2nrf24__avr_8c.html#a0f64caa74329fd5799a33f30bd8ebf82" target="_top" xlink:title=" ">
<polygon fill="white" stroke="#666666" points="429.62,-174.66 337.88,-174.66 337.88,-153.91 429.62,-153.91 429.62,-174.66"/>
<text xml:space="preserve" text-anchor="middle" x="383.75" y="-161.16" font-family="Helvetica,sans-Serif" font-size="10.00">nrf24_available</text>
</a>
</g>
</g>
<!-- Node20&#45;&gt;Node21 -->
<g id="edge30_Node000020_Node000021" class="edge">
<title>Node20&#45;&gt;Node21</title>
<g id="a_edge30_Node000020_Node000021"><a xlink:title=" ">
<path fill="none" stroke="#63b8ff" d="M487.47,-379.1C484.87,-377.36 482.43,-375.43 480.25,-373.29 472.43,-365.59 407.52,-216.77 389.42,-175.07"/>
<polygon fill="#63b8ff" stroke="#63b8ff" points="485.58,-382.06 496.02,-383.85 488.98,-375.94 485.58,-382.06"/>
</a>
</g>
</g>
<!-- Node21&#45;&gt;Node5 -->
<g id="edge32_Node000021_Node000005" class="edge">
<title>Node21&#45;&gt;Node5</title>
<g id="a_edge32_Node000021_Node000005"><a xlink:title=" ">
<path fill="none" stroke="#63b8ff" d="M326.66,-151.51C313.76,-148.86 300.07,-146.27 287.25,-144.29 226.3,-134.85 153.48,-129.03 119.1,-126.6"/>
<polygon fill="#63b8ff" stroke="#63b8ff" points="325.76,-154.89 336.27,-153.53 327.2,-148.04 325.76,-154.89"/>
</a>
</g>
</g>
<!-- Node21&#45;&gt;Node19 -->
<g id="edge31_Node000021_Node000019" class="edge">
<title>Node21&#45;&gt;Node19</title>
<g id="a_edge31_Node000021_Node000019"><a xlink:title=" ">
<path fill="none" stroke="#63b8ff" d="M326.81,-177.55C296.58,-184.72 261.28,-193.09 240.47,-198.03"/>
<polygon fill="#63b8ff" stroke="#63b8ff" points="327.29,-181.03 336.21,-175.32 325.67,-174.22 327.29,-181.03"/>
</a>
</g>
</g>
<!-- Node23&#45;&gt;Node6 -->
<g id="edge38_Node000023_Node000006" class="edge">
<title>Node23&#45;&gt;Node6</title>
<g id="a_edge38_Node000023_Node000006"><a xlink:title=" ">
<path fill="none" stroke="#63b8ff" d="M487.43,-448.18C484.96,-449.49 482.55,-450.87 480.25,-452.29 462.54,-463.24 463.75,-474.98 444.25,-482.29 381.87,-505.67 302.53,-499.73 257.64,-493.42"/>
<polygon fill="#63b8ff" stroke="#63b8ff" points="488.94,-451.34 496.38,-443.8 485.86,-445.05 488.94,-451.34"/>
</a>
</g>
</g>
<!-- Node24&#45;&gt;Node3 -->
<g id="edge53_Node000024_Node000003" class="edge">
<title>Node24&#45;&gt;Node3</title>
<g id="a_edge53_Node000024_Node000003"><a xlink:title=" ">
<path fill="none" stroke="#63b8ff" d="M484.18,-354.29C470.62,-354.29 455.33,-354.29 440.88,-354.29"/>
<polygon fill="#63b8ff" stroke="#63b8ff" points="484.09,-357.79 494.09,-354.29 484.09,-350.79 484.09,-357.79"/>
</a>
</g>
</g>
<!-- Node24&#45;&gt;Node6 -->
<g id="edge55_Node000024_Node000006" class="edge">
<title>Node24&#45;&gt;Node6</title>
<g id="a_edge55_Node000024_Node000006"><a xlink:title=" ">
<path fill="none" stroke="#63b8ff" d="M484.65,-363.96C434.07,-376.17 351.56,-397.25 323.25,-411.29 287.33,-429.09 251.28,-460.28 233.64,-476.61"/>
<polygon fill="#63b8ff" stroke="#63b8ff" points="485.16,-367.44 494.07,-361.71 483.53,-360.63 485.16,-367.44"/>
</a>
</g>
</g>
<!-- Node24&#45;&gt;Node10 -->
<g id="edge40_Node000024_Node000010" class="edge">
<title>Node24&#45;&gt;Node10</title>
<g id="a_edge40_Node000024_Node000010"><a xlink:title=" ">
<path fill="none" stroke="#63b8ff" d="M490.75,-338.91C487.2,-337.35 483.65,-335.79 480.25,-334.29 464.23,-327.22 460.53,-324.72 444.25,-318.29 378.68,-292.38 300.46,-266.32 256.64,-252.15"/>
<polygon fill="#63b8ff" stroke="#63b8ff" points="489.29,-342.09 499.85,-342.91 492.1,-335.68 489.29,-342.09"/>
</a>
</g>
</g>
<!-- Node24&#45;&gt;Node12 -->
<g id="edge54_Node000024_Node000012" class="edge">
<title>Node24&#45;&gt;Node12</title>
<g id="a_edge54_Node000024_Node000012"><a xlink:title=" ">
<path fill="none" stroke="#63b8ff" d="M487.38,-370.1C484.92,-371.43 482.52,-372.83 480.25,-374.29 462.23,-385.84 462.44,-395 444.25,-406.29 435.92,-411.45 426.29,-415.9 417.23,-419.52"/>
<polygon fill="#63b8ff" stroke="#63b8ff" points="488.89,-373.25 496.3,-365.67 485.78,-366.98 488.89,-373.25"/>
</a>
</g>
</g>
<!-- Node24&#45;&gt;Node18 -->
<g id="edge46_Node000024_Node000018" class="edge">
<title>Node24&#45;&gt;Node18</title>
<g id="a_edge46_Node000024_Node000018"><a xlink:title=" ">
<path fill="none" stroke="#63b8ff" d="M486.25,-340.45C484,-338.64 481.96,-336.59 480.25,-334.29 400.45,-226.83 525.64,-141.55 444.25,-35.29 437.88,-26.97 428.17,-21.53 418.43,-17.97"/>
<polygon fill="#63b8ff" stroke="#63b8ff" points="484.11,-343.24 494.45,-345.55 487.81,-337.3 484.11,-343.24"/>
</a>
</g>
</g>
<!-- Node25 -->
<g id="Node000025" class="node">
<title>Node25</title>
<g id="a_Node000025"><a xlink:href="carrinho_2nrf24__avr_8c.html#a5af2f11537aed8a56d8489355af0ff16" target="_top" xlink:title=" ">
<polygon fill="white" stroke="#666666" points="287.25,-173.66 155.75,-173.66 155.75,-152.91 287.25,-152.91 287.25,-173.66"/>
<text xml:space="preserve" text-anchor="middle" x="221.5" y="-160.16" font-family="Helvetica,sans-Serif" font-size="10.00">nrf24_openReadingPipe</text>
</a>
</g>
</g>
<!-- Node24&#45;&gt;Node25 -->
<g id="edge41_Node000024_Node000025" class="edge">
<title>Node24&#45;&gt;Node25</title>
<g id="a_edge41_Node000024_Node000025"><a xlink:title=" ">
<path fill="none" stroke="#63b8ff" d="M486.35,-340.38C484.08,-338.59 482.01,-336.56 480.25,-334.29 417.58,-253.06 522.24,-172.93 444.25,-106.29 381.24,-52.45 273.77,-124.12 236.06,-152.57"/>
<polygon fill="#63b8ff" stroke="#63b8ff" points="484.24,-343.19 494.59,-345.45 487.91,-337.23 484.24,-343.19"/>
</a>
</g>
</g>
<!-- Node26 -->
<g id="Node000026" class="node">
<title>Node26</title>
<g id="a_Node000026"><a xlink:href="carrinho_2nrf24__avr_8c.html#a21d638882f746748de35324bdc21f448" target="_top" xlink:title=" ">
<polygon fill="white" stroke="#666666" points="285,-327.66 158,-327.66 158,-306.91 285,-306.91 285,-327.66"/>
<text xml:space="preserve" text-anchor="middle" x="221.5" y="-314.16" font-family="Helvetica,sans-Serif" font-size="10.00">nrf24_openWritingPipe</text>
</a>
</g>
</g>
<!-- Node24&#45;&gt;Node26 -->
<g id="edge44_Node000024_Node000026" class="edge">
<title>Node24&#45;&gt;Node26</title>
<g id="a_edge44_Node000024_Node000026"><a xlink:title=" ">
<path fill="none" stroke="#63b8ff" d="M484.92,-343.51C471.99,-340.44 457.59,-337.37 444.25,-335.29 391.01,-326.98 329.95,-322.38 285.4,-319.91"/>
<polygon fill="#63b8ff" stroke="#63b8ff" points="483.83,-346.84 494.38,-345.82 485.49,-340.04 483.83,-346.84"/>
</a>
</g>
</g>
<!-- Node27 -->
<g id="Node000027" class="node">
<title>Node27</title>
<g id="a_Node000027"><a xlink:href="carrinho_2nrf24__avr_8c.html#a49aa88b1042d6d62114cfbca271d9e2b" target="_top" xlink:title=" ">
<polygon fill="white" stroke="#666666" points="272.25,-59.66 170.75,-59.66 170.75,-38.91 272.25,-38.91 272.25,-59.66"/>
<text xml:space="preserve" text-anchor="middle" x="221.5" y="-46.16" font-family="Helvetica,sans-Serif" font-size="10.00">nrf24_setChannel</text>
</a>
</g>
</g>
<!-- Node24&#45;&gt;Node27 -->
<g id="edge47_Node000024_Node000027" class="edge">
<title>Node24&#45;&gt;Node27</title>
<g id="a_edge47_Node000024_Node000027"><a xlink:title=" ">
<path fill="none" stroke="#63b8ff" d="M486.31,-340.41C484.05,-338.61 481.99,-336.57 480.25,-334.29 412.04,-244.57 523.55,-163.36 444.25,-83.29 399.99,-38.59 323.32,-36.76 272.75,-41.49"/>
<polygon fill="#63b8ff" stroke="#63b8ff" points="484.19,-343.21 494.54,-345.49 487.87,-337.26 484.19,-343.21"/>
</a>
</g>
</g>
<!-- Node28 -->
<g id="Node000028" class="node">
<title>Node28</title>
<g id="a_Node000028"><a xlink:href="carrinho_2nrf24__avr_8c.html#aaf2900e7932ebbf7f0ecdc6bce5840e1" target="_top" xlink:title=" ">
<polygon fill="white" stroke="#666666" points="444.25,-135.66 323.25,-135.66 323.25,-114.91 444.25,-114.91 444.25,-135.66"/>
<text xml:space="preserve" text-anchor="middle" x="383.75" y="-122.16" font-family="Helvetica,sans-Serif" font-size="10.00">nrf24_setPayloadSize</text>
</a>
</g>
</g>
<!-- Node24&#45;&gt;Node28 -->
<g id="edge50_Node000024_Node000028" class="edge">
<title>Node24&#45;&gt;Node28</title>
<g id="a_edge50_Node000024_Node000028"><a xlink:title=" ">
<path fill="none" stroke="#63b8ff" d="M486.25,-340.18C484.03,-338.43 482,-336.48 480.25,-334.29 426.95,-267.42 500.47,-209.72 444.25,-145.29 441.03,-141.59 437.1,-138.58 432.81,-136.12"/>
<polygon fill="#63b8ff" stroke="#63b8ff" points="483.9,-342.84 494.24,-345.12 487.58,-336.89 483.9,-342.84"/>
</a>
</g>
</g>
<!-- Node25&#45;&gt;Node4 -->
<g id="edge42_Node000025_Node000004" class="edge">
<title>Node25&#45;&gt;Node4</title>
<g id="a_edge42_Node000025_Node000004"><a xlink:title=" ">
<path fill="none" stroke="#63b8ff" d="M173.95,-177.51C167.82,-179.43 161.63,-181.39 155.75,-183.29 143.54,-187.22 129.9,-191.81 119.08,-195.48"/>
<polygon fill="#63b8ff" stroke="#63b8ff" points="174.87,-180.89 183.38,-174.58 172.79,-174.21 174.87,-180.89"/>
</a>
</g>
</g>
<!-- Node25&#45;&gt;Node5 -->
<g id="edge43_Node000025_Node000005" class="edge">
<title>Node25&#45;&gt;Node5</title>
<g id="a_edge43_Node000025_Node000005"><a xlink:title=" ">
<path fill="none" stroke="#63b8ff" d="M175.28,-149.11C155.88,-143.03 134.22,-136.25 119,-131.47"/>
<polygon fill="#63b8ff" stroke="#63b8ff" points="174.05,-152.39 184.63,-152.05 176.14,-145.71 174.05,-152.39"/>
</a>
</g>
</g>
<!-- Node26&#45;&gt;Node11 -->
<g id="edge45_Node000026_Node000011" class="edge">
<title>Node26&#45;&gt;Node11</title>
<g id="a_edge45_Node000026_Node000011"><a xlink:title=" ">
<path fill="none" stroke="#63b8ff" d="M174.11,-331.44C155.47,-337.13 134.92,-343.4 120.08,-347.93"/>
<polygon fill="#63b8ff" stroke="#63b8ff" points="175.11,-334.8 183.66,-328.53 173.07,-328.1 175.11,-334.8"/>
</a>
</g>
</g>
<!-- Node27&#45;&gt;Node4 -->
<g id="edge48_Node000027_Node000004" class="edge">
<title>Node27&#45;&gt;Node4</title>
<g id="a_edge48_Node000027_Node000004"><a xlink:title=" ">
<path fill="none" stroke="#63b8ff" d="M205.33,-68.43C179.51,-101.01 127.86,-166.18 107.64,-191.7"/>
<polygon fill="#63b8ff" stroke="#63b8ff" points="207.76,-71 211.23,-60.99 202.27,-66.65 207.76,-71"/>
</a>
</g>
</g>
<!-- Node27&#45;&gt;Node5 -->
<g id="edge49_Node000027_Node000005" class="edge">
<title>Node27&#45;&gt;Node5</title>
<g id="a_edge49_Node000027_Node000005"><a xlink:title=" ">
<path fill="none" stroke="#63b8ff" d="M173.43,-64.25C167.3,-66.9 161.25,-69.92 155.75,-73.29 136.88,-84.84 118.72,-103.28 108.29,-114.81"/>
<polygon fill="#63b8ff" stroke="#63b8ff" points="174.34,-67.65 182.32,-60.67 171.73,-61.15 174.34,-67.65"/>
</a>
</g>
</g>
<!-- Node28&#45;&gt;Node5 -->
<g id="edge51_Node000028_Node000005" class="edge">
<title>Node28&#45;&gt;Node5</title>
<g id="a_edge51_Node000028_Node000005"><a xlink:title=" ">
<path fill="none" stroke="#63b8ff" d="M311.38,-113.67C303.26,-112.69 295.09,-111.86 287.25,-111.29 228.96,-107.04 213.76,-104.21 155.75,-111.29 143.31,-112.8 129.67,-116.14 118.9,-119.17"/>
<polygon fill="#63b8ff" stroke="#63b8ff" points="310.92,-117.14 321.28,-114.94 311.81,-110.19 310.92,-117.14"/>
</a>
</g>
</g>
<!-- Node28&#45;&gt;Node10 -->
<g id="edge52_Node000028_Node000010" class="edge">
<title>Node28&#45;&gt;Node10</title>
<g id="a_edge52_Node000028_Node000010"><a xlink:title=" ">
<path fill="none" stroke="#63b8ff" d="M327.77,-141.71C326.19,-142.83 324.68,-144.02 323.25,-145.29 295.31,-170.11 315.5,-196.81 287.25,-221.29 279.25,-228.22 268.87,-232.75 258.77,-235.71"/>
<polygon fill="#63b8ff" stroke="#63b8ff" points="329.19,-144.93 336.08,-136.88 325.67,-138.88 329.19,-144.93"/>
</a>
</g>
</g>
<!-- Node29&#45;&gt;Node14 -->
<g id="edge57_Node000029_Node000014" class="edge">
<title>Node29&#45;&gt;Node14</title>
<g id="a_edge57_Node000029_Node000014"><a xlink:title=" ">
<path fill="none" stroke="#63b8ff" d="M612.39,-336.7C611.4,-335.9 610.43,-335.09 609.5,-334.29 591.91,-319.06 592.53,-309.67 573.5,-296.29 568.55,-292.8 562.89,-289.73 557.29,-287.1"/>
<polygon fill="#63b8ff" stroke="#63b8ff" points="610.25,-339.47 620.34,-342.7 614.46,-333.88 610.25,-339.47"/>
</a>
</g>
</g>
<!-- Node29&#45;&gt;Node15 -->
<g id="edge58_Node000029_Node000015" class="edge">
<title>Node29&#45;&gt;Node15</title>
<g id="a_edge58_Node000029_Node000015"><a xlink:title=" ">
<path fill="none" stroke="#63b8ff" d="M632.71,-376.07C624.69,-405.54 606.62,-458.11 573.5,-490.29 569.78,-493.9 565.29,-496.92 560.61,-499.42"/>
<polygon fill="#63b8ff" stroke="#63b8ff" points="636.08,-377 635.17,-366.44 629.3,-375.27 636.08,-377"/>
</a>
</g>
</g>
<!-- Node29&#45;&gt;Node16 -->
<g id="edge59_Node000029_Node000016" class="edge">
<title>Node29&#45;&gt;Node16</title>
<g id="a_edge59_Node000029_Node000016"><a xlink:title=" ">
<path fill="none" stroke="#63b8ff" d="M600.41,-341C586.71,-336.15 571.4,-330.72 558.39,-326.1"/>
<polygon fill="#63b8ff" stroke="#63b8ff" points="598.94,-344.2 609.54,-344.24 601.28,-337.6 598.94,-344.2"/>
</a>
</g>
</g>
<!-- Node29&#45;&gt;Node17 -->
<g id="edge60_Node000029_Node000017" class="edge">
<title>Node29&#45;&gt;Node17</title>
<g id="a_edge60_Node000029_Node000017"><a xlink:title=" ">
<path fill="none" stroke="#63b8ff" d="M610.75,-335.9C610.32,-335.37 609.9,-334.83 609.5,-334.29 577.75,-290.63 609.47,-258.54 573.5,-218.29 570.16,-214.55 565.99,-211.47 561.54,-208.96"/>
<polygon fill="#63b8ff" stroke="#63b8ff" points="608.14,-338.25 617.82,-342.54 612.93,-333.15 608.14,-338.25"/>
</a>
</g>
</g>
<!-- Node29&#45;&gt;Node20 -->
<g id="edge61_Node000029_Node000020" class="edge">
<title>Node29&#45;&gt;Node20</title>
<g id="a_edge61_Node000029_Node000020"><a xlink:title=" ">
<path fill="none" stroke="#63b8ff" d="M600.39,-367.58C586.01,-372.67 569.84,-378.41 556.43,-383.16"/>
<polygon fill="#63b8ff" stroke="#63b8ff" points="601.28,-370.97 609.54,-364.33 598.94,-364.37 601.28,-370.97"/>
</a>
</g>
</g>
<!-- Node29&#45;&gt;Node22 -->
<g id="edge62_Node000029_Node000022" class="edge">
<title>Node29&#45;&gt;Node22</title>
<g id="a_edge62_Node000029_Node000022"><a xlink:title=" ">
<path fill="none" stroke="#63b8ff" d="M611.18,-336.18C610.6,-335.56 610.04,-334.93 609.5,-334.29 585.25,-305.32 600.53,-283.67 573.5,-257.29 569.79,-253.66 565.31,-250.64 560.63,-248.13"/>
<polygon fill="#63b8ff" stroke="#63b8ff" points="608.61,-338.58 618.44,-342.52 613.22,-333.31 608.61,-338.58"/>
</a>
</g>
</g>
<!-- Node29&#45;&gt;Node23 -->
<g id="edge63_Node000029_Node000023" class="edge">
<title>Node29&#45;&gt;Node23</title>
<g id="a_edge63_Node000029_Node000023"><a xlink:title=" ">
<path fill="none" stroke="#63b8ff" d="M620.25,-373.04C607.98,-385.33 590.79,-401.12 573.5,-412.29 568.12,-415.76 562.04,-418.89 556.11,-421.6"/>
<polygon fill="#63b8ff" stroke="#63b8ff" points="622.72,-375.52 627.18,-365.91 617.7,-370.64 622.72,-375.52"/>
</a>
</g>
</g>
<!-- Node29&#45;&gt;Node24 -->
<g id="edge64_Node000029_Node000024" class="edge">
<title>Node29&#45;&gt;Node24</title>
<g id="a_edge64_Node000029_Node000024"><a xlink:title=" ">
<path fill="none" stroke="#63b8ff" d="M599.5,-354.29C585.9,-354.29 570.81,-354.29 557.99,-354.29"/>
<polygon fill="#63b8ff" stroke="#63b8ff" points="599.45,-357.79 609.45,-354.29 599.45,-350.79 599.45,-357.79"/>
</a>
</g>
</g>
</g>
</svg>

<g id="navigator" transform="translate(0 0)" fill="#404254">
  <rect fill="#f2f5e9" fill-opacity="0.5" stroke="#606060" stroke-width=".5" x="0" y="0" width="60" height="60"/>
  <use id="zoomplus" xlink:href="#zoomPlus" x="17" y="9" onmousedown="handleZoom(evt,'in')"/>
  <use id="zoomminus" xlink:href="#zoomMin" x="42" y="9" onmousedown="handleZoom(evt,'out')"/>
  <use id="reset" xlink:href="#resetDef" x="30" y="36" onmousedown="handleReset()"/>
   <use id="arrowup" xlink:href="#arrowUp" x="0" y="0" onmousedown="handlePan(0,-1)"/>
  <use id="arrowright" xlink:href="#arrowRight" x="0" y="0" onmousedown="handlePan(1,0)"/>
  <use id="arrowdown" xlink:href="#arrowDown" x="0" y="0" onmousedown="handlePan(0,1)"/>
  <use id="arrowleft" xlink:href="#arrowLeft" x="0" y="0" onmousedown="handlePan(-1,0)"/>
</g>
<svg viewBox="0 0 15 15" width="100%" height="30px" preserveAspectRatio="xMaxYMin meet">
 <g id="arrow_out" transform="scale(0.3 0.3)">
  <a xlink:href="carrinho_2nrf24__avr_8c_a019970fc17b6b18fa4e45e0baf22c93f_icgraph_org.svg" target="_base">
   <rect id="button" ry="5" rx="5" y="6" x="6" height="38" width="38"
        fill="#f2f5e9" fill-opacity="0.5" stroke="#606060" stroke-width="1.0"/>
   <path id="arrow"
     d="M 11.500037,31.436501 C 11.940474,20.09759 22.043105,11.32322 32.158766,21.979434 L 37.068811,17.246167 C 37.068811,17.246167 37.088388,32 37.088388,32 L 22.160133,31.978069 C 22.160133,31.978069 26.997745,27.140456 26.997745,27.140456 C 18.528582,18.264221 13.291696,25.230495 11.500037,31.436501 z"
     style="fill:#404040;"/>
  </a>
 </g>
</svg>

<style type='text/css'>
<![CDATA[
[data-mouse-over-selected='false'] { opacity: 0.7; }
[data-mouse-over-selected='true']  { opacity: 1.0; }
]]>
</style>
<script type="application/ecmascript"><![CDATA[
document.addEventListener('DOMContentLoaded', (event) => {
  highlightEdges();
  highlightAdjacentNodes();
});
]]></script>
</svg>
