<?xml version="1.0" encoding="UTF-8" standalone="no"?>
<!DOCTYPE svg PUBLIC "-//W3C//DTD SVG 1.1//EN"
 "http://www.w3.org/Graphics/SVG/1.1/DTD/svg11.dtd">
<!-- Generated by graphviz version 14.0.4 (0)
 -->
<!-- Title: write_reg Pages: 1 -->
<svg width="479pt" height="374pt"
 viewBox="0.00 0.00 479.00 374.00" xmlns="http://www.w3.org/2000/svg" xmlns:xlink="http://www.w3.org/1999/xlink">
<g id="graph0" class="graph" transform="scale(1 1) rotate(0) translate(4 369.75)">
<title>write_reg</title>
<!-- Node1 -->
<g id="Node000001" class="node">
<title>Node1</title>
<g id="a_Node000001"><a xlink:title=" ">
<polygon fill="#999999" stroke="#666666" points="471.25,-212.75 409.5,-212.75 409.5,-192 471.25,-192 471.25,-212.75"/>
<text xml:space="preserve" text-anchor="middle" x="440.38" y="-199.25" font-family="Helvetica,sans-Serif" font-size="10.00">write_reg</text>
</a>
</g>
</g>
<!-- Node2 -->
<g id="Node000002" class="node">
<title>Node2</title>
<g id="a_Node000002"><a xlink:href="carrinho_2nrf24__avr_8c.html#ab6fb4c1aa834152310116e7dec65d8e3" target="_top" xlink:title=" ">
<polygon fill="white" stroke="#666666" points="181.62,-250.75 107.88,-250.75 107.88,-230 181.62,-230 181.62,-250.75"/>
<text xml:space="preserve" text-anchor="middle" x="144.75" y="-237.25" font-family="Helvetica,sans-Serif" font-size="10.00">nrf24_begin</text>
</a>
</g>
</g>
<!-- Node1&#45;&gt;Node2 -->
<g id="edge1_Node000001_Node000002" class="edge">
<title>Node1&#45;&gt;Node2</title>
<g id="a_edge1_Node000001_Node000002"><a xlink:title=" ">
<path fill="none" stroke="#63b8ff" d="M398.36,-215.56C390.19,-217.8 381.63,-219.88 373.5,-221.38 306.58,-233.69 227.11,-238.03 181.94,-239.56"/>
<polygon fill="#63b8ff" stroke="#63b8ff" points="399.08,-218.99 407.72,-212.86 397.14,-212.27 399.08,-218.99"/>
</a>
</g>
</g>
<!-- Node6 -->
<g id="Node000006" class="node">
<title>Node6</title>
<g id="a_Node000006"><a xlink:href="carrinho_2nrf24__avr_8c.html#a5af2f11537aed8a56d8489355af0ff16" target="_top" xlink:title=" ">
<polygon fill="white" stroke="#666666" points="210.5,-135.75 79,-135.75 79,-115 210.5,-115 210.5,-135.75"/>
<text xml:space="preserve" text-anchor="middle" x="144.75" y="-122.25" font-family="Helvetica,sans-Serif" font-size="10.00">nrf24_openReadingPipe</text>
</a>
</g>
</g>
<!-- Node1&#45;&gt;Node6 -->
<g id="edge5_Node000001_Node000006" class="edge">
<title>Node1&#45;&gt;Node6</title>
<g id="a_edge5_Node000001_Node000006"><a xlink:title=" ">
<path fill="none" stroke="#63b8ff" d="M414.87,-185.46C402.89,-177.92 387.96,-169.59 373.5,-164.38 320.49,-145.24 257.06,-135.36 210.62,-130.34"/>
<polygon fill="#63b8ff" stroke="#63b8ff" points="412.61,-188.16 422.9,-190.68 416.43,-182.29 412.61,-188.16"/>
</a>
</g>
</g>
<!-- Node7 -->
<g id="Node000007" class="node">
<title>Node7</title>
<g id="a_Node000007"><a xlink:href="carrinho_2nrf24__avr_8c.html#a21d638882f746748de35324bdc21f448" target="_top" xlink:title=" ">
<polygon fill="white" stroke="#666666" points="373.5,-365.75 246.5,-365.75 246.5,-345 373.5,-345 373.5,-365.75"/>
<text xml:space="preserve" text-anchor="middle" x="310" y="-352.25" font-family="Helvetica,sans-Serif" font-size="10.00">nrf24_openWritingPipe</text>
</a>
</g>
</g>
<!-- Node1&#45;&gt;Node7 -->
<g id="edge8_Node000001_Node000007" class="edge">
<title>Node1&#45;&gt;Node7</title>
<g id="a_edge8_Node000001_Node000007"><a xlink:title=" ">
<path fill="none" stroke="#63b8ff" d="M434.27,-224.18C426.28,-253.59 408.03,-305.68 373.5,-335.38 369.18,-339.09 364.17,-342.12 358.89,-344.58"/>
<polygon fill="#63b8ff" stroke="#63b8ff" points="437.64,-225.12 436.71,-214.57 430.86,-223.4 437.64,-225.12"/>
</a>
</g>
</g>
<!-- Node8 -->
<g id="Node000008" class="node">
<title>Node8</title>
<g id="a_Node000008"><a xlink:href="carrinho_2nrf24__avr_8c.html#aa0767db791fc0b45ebadab011c1900bf" target="_top" xlink:title=" ">
<polygon fill="white" stroke="#666666" points="344.25,-58.75 275.75,-58.75 275.75,-38 344.25,-38 344.25,-58.75"/>
<text xml:space="preserve" text-anchor="middle" x="310" y="-45.25" font-family="Helvetica,sans-Serif" font-size="10.00">nrf24_read</text>
</a>
</g>
</g>
<!-- Node1&#45;&gt;Node8 -->
<g id="edge10_Node000001_Node000008" class="edge">
<title>Node1&#45;&gt;Node8</title>
<g id="a_edge10_Node000001_Node000008"><a xlink:title=" ">
<path fill="none" stroke="#63b8ff" d="M433.54,-180.76C424.88,-152.48 406.03,-103.05 373.5,-73.38 365.38,-65.97 354.8,-60.63 344.66,-56.84"/>
<polygon fill="#63b8ff" stroke="#63b8ff" points="430.17,-181.7 436.31,-190.33 436.9,-179.76 430.17,-181.7"/>
</a>
</g>
</g>
<!-- Node10 -->
<g id="Node000010" class="node">
<title>Node10</title>
<g id="a_Node000010"><a xlink:href="carrinho_2nrf24__avr_8c.html#a49aa88b1042d6d62114cfbca271d9e2b" target="_top" xlink:title=" ">
<polygon fill="white" stroke="#666666" points="195.5,-174.75 94,-174.75 94,-154 195.5,-154 195.5,-174.75"/>
<text xml:space="preserve" text-anchor="middle" x="144.75" y="-161.25" font-family="Helvetica,sans-Serif" font-size="10.00">nrf24_setChannel</text>
</a>
</g>
</g>
<!-- Node1&#45;&gt;Node10 -->
<g id="edge14_Node000001_Node000010" class="edge">
<title>Node1&#45;&gt;Node10</title>
<g id="a_edge14_Node000001_Node000010"><a xlink:title=" ">
<path fill="none" stroke="#63b8ff" d="M398.36,-189.19C390.19,-186.95 381.63,-184.87 373.5,-183.38 313.02,-172.24 242.28,-167.63 195.88,-165.72"/>
<polygon fill="#63b8ff" stroke="#63b8ff" points="397.14,-192.48 407.72,-191.89 399.08,-185.76 397.14,-192.48"/>
</a>
</g>
</g>
<!-- Node11 -->
<g id="Node000011" class="node">
<title>Node11</title>
<g id="a_Node000011"><a xlink:href="carrinho_2nrf24__avr_8c.html#aaf2900e7932ebbf7f0ecdc6bce5840e1" target="_top" xlink:title=" ">
<polygon fill="white" stroke="#666666" points="370.5,-212.75 249.5,-212.75 249.5,-192 370.5,-192 370.5,-212.75"/>
<text xml:space="preserve" text-anchor="middle" x="310" y="-199.25" font-family="Helvetica,sans-Serif" font-size="10.00">nrf24_setPayloadSize</text>
</a>
</g>
</g>
<!-- Node1&#45;&gt;Node11 -->
<g id="edge18_Node000001_Node000011" class="edge">
<title>Node1&#45;&gt;Node11</title>
<g id="a_edge18_Node000001_Node000011"><a xlink:title=" ">
<path fill="none" stroke="#63b8ff" d="M397.98,-202.38C389.35,-202.38 380.1,-202.38 370.96,-202.38"/>
<polygon fill="#63b8ff" stroke="#63b8ff" points="397.76,-205.88 407.76,-202.38 397.76,-198.88 397.76,-205.88"/>
</a>
</g>
</g>
<!-- Node12 -->
<g id="Node000012" class="node">
<title>Node12</title>
<g id="a_Node000012"><a xlink:href="carrinho_2nrf24__avr_8c.html#a71c5628e9583f6a6fd0871b3ae1bf6df" target="_top" xlink:title=" ">
<polygon fill="white" stroke="#666666" points="201.5,-96.75 88,-96.75 88,-76 201.5,-76 201.5,-96.75"/>
<text xml:space="preserve" text-anchor="middle" x="144.75" y="-83.25" font-family="Helvetica,sans-Serif" font-size="10.00">nrf24_startListening</text>
</a>
</g>
</g>
<!-- Node1&#45;&gt;Node12 -->
<g id="edge21_Node000001_Node000012" class="edge">
<title>Node1&#45;&gt;Node12</title>
<g id="a_edge21_Node000001_Node000012"><a xlink:title=" ">
<path fill="none" stroke="#63b8ff" d="M426.34,-182.49C414.54,-166.14 395.63,-143.72 373.5,-131.38 320.18,-101.62 250.2,-91.32 201.96,-87.88"/>
<polygon fill="#63b8ff" stroke="#63b8ff" points="423.32,-184.27 431.88,-190.5 429.07,-180.28 423.32,-184.27"/>
</a>
</g>
</g>
<!-- Node13 -->
<g id="Node000013" class="node">
<title>Node13</title>
<g id="a_Node000013"><a xlink:href="carrinho_2nrf24__avr_8c.html#a33899bc3c0f4d2293f37c306d0b8e297" target="_top" xlink:title=" ">
<polygon fill="white" stroke="#666666" points="366,-326.75 254,-326.75 254,-306 366,-306 366,-326.75"/>
<text xml:space="preserve" text-anchor="middle" x="310" y="-313.25" font-family="Helvetica,sans-Serif" font-size="10.00">nrf24_stopListening</text>
</a>
</g>
</g>
<!-- Node1&#45;&gt;Node13 -->
<g id="edge24_Node000001_Node000013" class="edge">
<title>Node1&#45;&gt;Node13</title>
<g id="a_edge24_Node000001_Node000013"><a xlink:title=" ">
<path fill="none" stroke="#63b8ff" d="M428.8,-223.11C417.56,-243.31 398.03,-273.62 373.5,-292.38 366.39,-297.81 357.9,-302.15 349.51,-305.56"/>
<polygon fill="#63b8ff" stroke="#63b8ff" points="431.83,-224.88 433.46,-214.41 425.66,-221.58 431.83,-224.88"/>
</a>
</g>
</g>
<!-- Node14 -->
<g id="Node000014" class="node">
<title>Node14</title>
<g id="a_Node000014"><a xlink:href="carrinho_2nrf24__avr_8c.html#a8232e1982aabc6f52408c318402cb578" target="_top" xlink:title=" ">
<polygon fill="white" stroke="#666666" points="180.5,-289.75 109,-289.75 109,-269 180.5,-269 180.5,-289.75"/>
<text xml:space="preserve" text-anchor="middle" x="144.75" y="-276.25" font-family="Helvetica,sans-Serif" font-size="10.00">nrf24_write</text>
</a>
</g>
</g>
<!-- Node1&#45;&gt;Node14 -->
<g id="edge27_Node000001_Node000014" class="edge">
<title>Node1&#45;&gt;Node14</title>
<g id="a_edge27_Node000001_Node000014"><a xlink:title=" ">
<path fill="none" stroke="#63b8ff" d="M416.2,-219.48C404.06,-227.63 388.6,-236.8 373.5,-242.38 308.11,-266.5 226.39,-274.92 180.75,-277.84"/>
<polygon fill="#63b8ff" stroke="#63b8ff" points="418.1,-222.42 424.3,-213.83 414.1,-216.68 418.1,-222.42"/>
</a>
</g>
</g>
<!-- Node3 -->
<g id="Node000003" class="node">
<title>Node3</title>
<g id="a_Node000003"><a xlink:href="carrinho_8c.html#ae66f6b31b5ad750f1fe042a706a4e3d4" target="_top" xlink:title=" ">
<polygon fill="white" stroke="#666666" points="41.88,-135.75 1.12,-135.75 1.12,-115 41.88,-115 41.88,-135.75"/>
<text xml:space="preserve" text-anchor="middle" x="21.5" y="-122.25" font-family="Helvetica,sans-Serif" font-size="10.00">main</text>
</a>
</g>
</g>
<!-- Node2&#45;&gt;Node3 -->
<g id="edge2_Node000002_Node000003" class="edge">
<title>Node2&#45;&gt;Node3</title>
<g id="a_edge2_Node000002_Node000003"><a xlink:title=" ">
<path fill="none" stroke="#63b8ff" d="M122.43,-222.45C109.59,-211.46 93.05,-196.93 79,-183.38 62.25,-167.23 59.33,-161.95 43,-145.38 39.93,-142.26 36.55,-138.92 33.43,-135.88"/>
<polygon fill="#63b8ff" stroke="#63b8ff" points="120,-224.98 129.88,-228.79 124.53,-219.65 120,-224.98"/>
</a>
</g>
</g>
<!-- Node4 -->
<g id="Node000004" class="node">
<title>Node4</title>
<g id="a_Node000004"><a xlink:href="main_8c.html#a840291bc02cba5474a4cb46a9b9566fe" target="_top" xlink:title=" ">
<polygon fill="white" stroke="#666666" points="41.88,-174.75 1.12,-174.75 1.12,-154 41.88,-154 41.88,-174.75"/>
<text xml:space="preserve" text-anchor="middle" x="21.5" y="-161.25" font-family="Helvetica,sans-Serif" font-size="10.00">main</text>
</a>
</g>
</g>
<!-- Node2&#45;&gt;Node4 -->
<g id="edge3_Node000002_Node000004" class="edge">
<title>Node2&#45;&gt;Node4</title>
<g id="a_edge3_Node000002_Node000004"><a xlink:title=" ">
<path fill="none" stroke="#63b8ff" d="M97.11,-225.6C90.84,-222.9 84.63,-219.82 79,-216.38 60.13,-204.82 41.97,-186.38 31.54,-174.85"/>
<polygon fill="#63b8ff" stroke="#63b8ff" points="95.65,-228.79 106.24,-229.24 98.25,-222.29 95.65,-228.79"/>
</a>
</g>
</g>
<!-- Node5 -->
<g id="Node000005" class="node">
<title>Node5</title>
<g id="a_Node000005"><a xlink:href="controle_8c.html#a4fc01d736fe50cf5b977f755b675f11d" target="_top" xlink:title=" ">
<polygon fill="white" stroke="#666666" points="43,-288.75 0,-288.75 0,-268 43,-268 43,-288.75"/>
<text xml:space="preserve" text-anchor="middle" x="21.5" y="-275.25" font-family="Helvetica,sans-Serif" font-size="10.00">setup</text>
</a>
</g>
</g>
<!-- Node2&#45;&gt;Node5 -->
<g id="edge4_Node000002_Node000005" class="edge">
<title>Node2&#45;&gt;Node5</title>
<g id="a_edge4_Node000002_Node000005"><a xlink:title=" ">
<path fill="none" stroke="#63b8ff" d="M97.91,-254.48C91.55,-256.45 85.11,-258.46 79,-260.38 67.21,-264.07 54.06,-268.26 43.41,-271.66"/>
<polygon fill="#63b8ff" stroke="#63b8ff" points="98.48,-257.97 107,-251.67 96.41,-251.28 98.48,-257.97"/>
</a>
</g>
</g>
<!-- Node6&#45;&gt;Node3 -->
<g id="edge6_Node000006_Node000003" class="edge">
<title>Node6&#45;&gt;Node3</title>
<g id="a_edge6_Node000006_Node000003"><a xlink:title=" ">
<path fill="none" stroke="#63b8ff" d="M67.17,-125.38C58.04,-125.38 49.43,-125.38 42.25,-125.38"/>
<polygon fill="#63b8ff" stroke="#63b8ff" points="67,-128.88 77,-125.38 67,-121.88 67,-128.88"/>
</a>
</g>
</g>
<!-- Node6&#45;&gt;Node4 -->
<g id="edge7_Node000006_Node000004" class="edge">
<title>Node6&#45;&gt;Node4</title>
<g id="a_edge7_Node000006_Node000004"><a xlink:title=" ">
<path fill="none" stroke="#63b8ff" d="M97.2,-139.6C91.07,-141.52 84.88,-143.48 79,-145.38 66.79,-149.31 53.15,-153.89 42.33,-157.57"/>
<polygon fill="#63b8ff" stroke="#63b8ff" points="98.12,-142.98 106.63,-136.67 96.04,-136.3 98.12,-142.98"/>
</a>
</g>
</g>
<!-- Node7&#45;&gt;Node5 -->
<g id="edge9_Node000007_Node000005" class="edge">
<title>Node7&#45;&gt;Node5</title>
<g id="a_edge9_Node000007_Node000005"><a xlink:title=" ">
<path fill="none" stroke="#63b8ff" d="M234.81,-353.2C188.5,-349.66 128.49,-341.01 79,-320.38 61.4,-313.04 44.27,-299.04 33.57,-289.23"/>
<polygon fill="#63b8ff" stroke="#63b8ff" points="234.55,-356.69 244.76,-353.89 235.03,-349.71 234.55,-356.69"/>
</a>
</g>
</g>
<!-- Node8&#45;&gt;Node4 -->
<g id="edge13_Node000008_Node000004" class="edge">
<title>Node8&#45;&gt;Node4</title>
<g id="a_edge13_Node000008_Node000004"><a xlink:title=" ">
<path fill="none" stroke="#63b8ff" d="M264.11,-39.71C214.27,-32.68 133.65,-29.35 79,-67.38 47.99,-88.95 64.87,-113.57 43,-144.38 40.7,-147.62 37.83,-150.79 34.98,-153.61"/>
<polygon fill="#63b8ff" stroke="#63b8ff" points="263.56,-43.16 273.98,-41.22 264.62,-36.24 263.56,-43.16"/>
</a>
</g>
</g>
<!-- Node9 -->
<g id="Node000009" class="node">
<title>Node9</title>
<g id="a_Node000009"><a xlink:href="carrinho_8c.html#afe461d27b9c48d5921c00d521181f12f" target="_top" xlink:title=" ">
<polygon fill="white" stroke="#666666" points="163.25,-20.75 126.25,-20.75 126.25,0 163.25,0 163.25,-20.75"/>
<text xml:space="preserve" text-anchor="middle" x="144.75" y="-7.25" font-family="Helvetica,sans-Serif" font-size="10.00">loop</text>
</a>
</g>
</g>
<!-- Node8&#45;&gt;Node9 -->
<g id="edge11_Node000008_Node000009" class="edge">
<title>Node8&#45;&gt;Node9</title>
<g id="a_edge11_Node000008_Node000009"><a xlink:title=" ">
<path fill="none" stroke="#63b8ff" d="M264.73,-38.07C231.45,-30.32 187.6,-20.12 163.51,-14.51"/>
<polygon fill="#63b8ff" stroke="#63b8ff" points="263.56,-41.39 274.1,-40.25 265.15,-34.57 263.56,-41.39"/>
</a>
</g>
</g>
<!-- Node9&#45;&gt;Node3 -->
<g id="edge12_Node000009_Node000003" class="edge">
<title>Node9&#45;&gt;Node3</title>
<g id="a_edge12_Node000009_Node000003"><a xlink:title=" ">
<path fill="none" stroke="#63b8ff" d="M115.01,-16.61C102.94,-20.28 89.34,-25.92 79,-34.38 51.78,-56.61 33.96,-95.62 26.49,-114.51"/>
<polygon fill="#63b8ff" stroke="#63b8ff" points="115.75,-20.03 124.49,-14.05 113.93,-13.28 115.75,-20.03"/>
</a>
</g>
</g>
<!-- Node10&#45;&gt;Node3 -->
<g id="edge15_Node000010_Node000003" class="edge">
<title>Node10&#45;&gt;Node3</title>
<g id="a_edge15_Node000010_Node000003"><a xlink:title=" ">
<path fill="none" stroke="#63b8ff" d="M97.2,-150.15C91.07,-148.23 84.88,-146.27 79,-144.38 66.79,-140.44 53.15,-135.86 42.33,-132.18"/>
<polygon fill="#63b8ff" stroke="#63b8ff" points="96.04,-153.45 106.63,-153.08 98.12,-146.77 96.04,-153.45"/>
</a>
</g>
</g>
<!-- Node10&#45;&gt;Node4 -->
<g id="edge16_Node000010_Node000004" class="edge">
<title>Node10&#45;&gt;Node4</title>
<g id="a_edge16_Node000010_Node000004"><a xlink:title=" ">
<path fill="none" stroke="#63b8ff" d="M82.58,-164.38C67.92,-164.38 53.32,-164.38 42.17,-164.38"/>
<polygon fill="#63b8ff" stroke="#63b8ff" points="82.22,-167.88 92.22,-164.38 82.22,-160.88 82.22,-167.88"/>
</a>
</g>
</g>
<!-- Node10&#45;&gt;Node5 -->
<g id="edge17_Node000010_Node000005" class="edge">
<title>Node10&#45;&gt;Node5</title>
<g id="a_edge17_Node000010_Node000005"><a xlink:title=" ">
<path fill="none" stroke="#63b8ff" d="M122.54,-182.41C109.74,-193.45 93.21,-207.98 79,-221.38 62.37,-237.05 43.86,-256.03 32.7,-267.65"/>
<polygon fill="#63b8ff" stroke="#63b8ff" points="124.65,-185.21 129.96,-176.04 120.09,-179.89 124.65,-185.21"/>
</a>
</g>
</g>
<!-- Node11&#45;&gt;Node2 -->
<g id="edge20_Node000011_Node000002" class="edge">
<title>Node11&#45;&gt;Node2</title>
<g id="a_edge20_Node000011_Node000002"><a xlink:title=" ">
<path fill="none" stroke="#63b8ff" d="M251.58,-215.74C228.47,-221.12 202.51,-227.16 182.09,-231.92"/>
<polygon fill="#63b8ff" stroke="#63b8ff" points="252.24,-219.18 261.18,-213.51 250.65,-212.36 252.24,-219.18"/>
</a>
</g>
</g>
<!-- Node11&#45;&gt;Node4 -->
<g id="edge19_Node000011_Node000004" class="edge">
<title>Node11&#45;&gt;Node4</title>
<g id="a_edge19_Node000011_Node000004"><a xlink:title=" ">
<path fill="none" stroke="#63b8ff" d="M238.04,-200.94C192.25,-198.93 131.63,-194.23 79,-183.38 66.53,-180.8 53,-176.32 42.31,-172.35"/>
<polygon fill="#63b8ff" stroke="#63b8ff" points="237.7,-204.43 247.84,-201.33 237.99,-197.43 237.7,-204.43"/>
</a>
</g>
</g>
<!-- Node12&#45;&gt;Node3 -->
<g id="edge22_Node000012_Node000003" class="edge">
<title>Node12&#45;&gt;Node3</title>
<g id="a_edge22_Node000012_Node000003"><a xlink:title=" ">
<path fill="none" stroke="#63b8ff" d="M97.2,-100.6C91.07,-102.52 84.88,-104.48 79,-106.38 66.79,-110.31 53.15,-114.89 42.33,-118.57"/>
<polygon fill="#63b8ff" stroke="#63b8ff" points="98.12,-103.98 106.63,-97.67 96.04,-97.3 98.12,-103.98"/>
</a>
</g>
</g>
<!-- Node12&#45;&gt;Node4 -->
<g id="edge23_Node000012_Node000004" class="edge">
<title>Node12&#45;&gt;Node4</title>
<g id="a_edge23_Node000012_Node000004"><a xlink:title=" ">
<path fill="none" stroke="#63b8ff" d="M87.7,-101.63C84.69,-103.08 81.76,-104.66 79,-106.38 59.24,-118.65 59.33,-127.8 43,-144.38 39.93,-147.49 36.55,-150.83 33.43,-153.87"/>
<polygon fill="#63b8ff" stroke="#63b8ff" points="88.97,-104.89 96.81,-97.76 86.24,-98.44 88.97,-104.89"/>
</a>
</g>
</g>
<!-- Node13&#45;&gt;Node5 -->
<g id="edge26_Node000013_Node000005" class="edge">
<title>Node13&#45;&gt;Node5</title>
<g id="a_edge26_Node000013_Node000005"><a xlink:title=" ">
<path fill="none" stroke="#63b8ff" d="M242.19,-315.75C195.93,-314.2 133.18,-309.88 79,-298.38 66.89,-295.8 53.83,-291.3 43.32,-287.22"/>
<polygon fill="#63b8ff" stroke="#63b8ff" points="241.97,-319.25 252.07,-316.04 242.18,-312.25 241.97,-319.25"/>
</a>
</g>
</g>
<!-- Node13&#45;&gt;Node14 -->
<g id="edge25_Node000013_Node000014" class="edge">
<title>Node13&#45;&gt;Node14</title>
<g id="a_edge25_Node000013_Node000014"><a xlink:title=" ">
<path fill="none" stroke="#63b8ff" d="M250.17,-303.04C226.91,-297.77 200.96,-291.89 180.74,-287.31"/>
<polygon fill="#63b8ff" stroke="#63b8ff" points="249.34,-306.44 259.87,-305.24 250.89,-299.62 249.34,-306.44"/>
</a>
</g>
</g>
</g>
</svg>
