<?xml version="1.0" encoding="UTF-8" standalone="no"?>
<!DOCTYPE svg PUBLIC "-//W3C//DTD SVG 1.1//EN"
 "http://www.w3.org/Graphics/SVG/1.1/DTD/svg11.dtd">
<!-- Generated by graphviz version 14.0.4 (0)
 -->
<!-- Title: csn_high Pages: 1 -->
<svg width="600pt" height="569pt"
 viewBox="0.00 0.00 600.00 569.00" xmlns="http://www.w3.org/2000/svg" xmlns:xlink="http://www.w3.org/1999/xlink">
<g id="graph0" class="graph" transform="scale(1 1) rotate(0) translate(4 565.44)">
<title>csn_high</title>
<!-- Node1 -->
<g id="Node000001" class="node">
<title>Node1</title>
<g id="a_Node000001"><a xlink:title=" ">
<polygon fill="#999999" stroke="#666666" points="591.5,-415.75 532.75,-415.75 532.75,-395 591.5,-395 591.5,-415.75"/>
<text xml:space="preserve" text-anchor="middle" x="562.12" y="-402.25" font-family="Helvetica,sans-Serif" font-size="10.00">csn_high</text>
</a>
</g>
</g>
<!-- Node2 -->
<g id="Node000002" class="node">
<title>Node2</title>
<g id="a_Node000002"><a xlink:href="carrinho_2nrf24__avr_8c.html#ab6fb4c1aa834152310116e7dec65d8e3" target="_top" xlink:title=" ">
<polygon fill="white" stroke="#666666" points="181.62,-265.75 107.88,-265.75 107.88,-245 181.62,-245 181.62,-265.75"/>
<text xml:space="preserve" text-anchor="middle" x="144.75" y="-252.25" font-family="Helvetica,sans-Serif" font-size="10.00">nrf24_begin</text>
</a>
</g>
</g>
<!-- Node1&#45;&gt;Node2 -->
<g id="edge1_Node000001_Node000002" class="edge">
<title>Node1&#45;&gt;Node2</title>
<g id="a_edge1_Node000001_Node000002"><a xlink:title=" ">
<path fill="none" stroke="#63b8ff" d="M521.89,-391.21C439.33,-361.39 249.22,-292.74 175.61,-266.16"/>
<polygon fill="#63b8ff" stroke="#63b8ff" points="520.56,-394.44 531.15,-394.55 522.93,-387.86 520.56,-394.44"/>
</a>
</g>
</g>
<!-- Node6 -->
<g id="Node000006" class="node">
<title>Node6</title>
<g id="a_Node000006"><a xlink:href="carrinho_2nrf24__avr_8c.html#a9351c150d32184a95db9ab4a802ed860" target="_top" xlink:title=" ">
<polygon fill="white" stroke="#666666" points="493,-532.75 407.25,-532.75 407.25,-512 493,-512 493,-532.75"/>
<text xml:space="preserve" text-anchor="middle" x="450.12" y="-519.25" font-family="Helvetica,sans-Serif" font-size="10.00">nrf24_flush_rx</text>
</a>
</g>
</g>
<!-- Node1&#45;&gt;Node6 -->
<g id="edge5_Node000001_Node000006" class="edge">
<title>Node1&#45;&gt;Node6</title>
<g id="a_edge5_Node000001_Node000006"><a xlink:title=" ">
<path fill="none" stroke="#63b8ff" d="M551.58,-426.52C540.91,-448.1 521.8,-481.32 496.75,-502.37 492.51,-505.93 487.54,-508.97 482.47,-511.51"/>
<polygon fill="#63b8ff" stroke="#63b8ff" points="554.72,-428.06 555.85,-417.52 548.4,-425.06 554.72,-428.06"/>
</a>
</g>
</g>
<!-- Node7 -->
<g id="Node000007" class="node">
<title>Node7</title>
<g id="a_Node000007"><a xlink:href="carrinho_2nrf24__avr_8c.html#a617ab4b2604d6f482796e35da85369ad" target="_top" xlink:title=" ">
<polygon fill="white" stroke="#666666" points="349.88,-551.75 264.12,-551.75 264.12,-531 349.88,-531 349.88,-551.75"/>
<text xml:space="preserve" text-anchor="middle" x="307" y="-538.25" font-family="Helvetica,sans-Serif" font-size="10.00">nrf24_flush_tx</text>
</a>
</g>
</g>
<!-- Node1&#45;&gt;Node7 -->
<g id="edge6_Node000001_Node000007" class="edge">
<title>Node1&#45;&gt;Node7</title>
<g id="a_edge6_Node000001_Node000007"><a xlink:title=" ">
<path fill="none" stroke="#63b8ff" d="M558.07,-427.05C552.33,-458.58 536.7,-516.09 496.75,-541.37 450.79,-570.47 385.07,-561.83 344.54,-552.16"/>
<polygon fill="#63b8ff" stroke="#63b8ff" points="561.47,-427.93 559.62,-417.5 554.56,-426.81 561.47,-427.93"/>
</a>
</g>
</g>
<!-- Node9 -->
<g id="Node000009" class="node">
<title>Node9</title>
<g id="a_Node000009"><a xlink:href="carrinho_2nrf24__avr_8c.html#a9a23f602a6077c795322702d0a42f48c" target="_top" xlink:title=" ">
<polygon fill="white" stroke="#666666" points="496.75,-454.75 403.5,-454.75 403.5,-434 496.75,-434 496.75,-454.75"/>
<text xml:space="preserve" text-anchor="middle" x="450.12" y="-441.25" font-family="Helvetica,sans-Serif" font-size="10.00">nrf24_getStatus</text>
</a>
</g>
</g>
<!-- Node1&#45;&gt;Node9 -->
<g id="edge8_Node000001_Node000009" class="edge">
<title>Node1&#45;&gt;Node9</title>
<g id="a_edge8_Node000001_Node000009"><a xlink:title=" ">
<path fill="none" stroke="#63b8ff" d="M521.77,-419.32C508.53,-424.02 493.97,-429.18 481.52,-433.6"/>
<polygon fill="#63b8ff" stroke="#63b8ff" points="522.83,-422.66 531.08,-416.02 520.49,-416.07 522.83,-422.66"/>
</a>
</g>
</g>
<!-- Node10 -->
<g id="Node000010" class="node">
<title>Node10</title>
<g id="a_Node000010"><a xlink:href="carrinho_2nrf24__avr_8c.html#ac4a676257b5b86b05f4ea608636cb2cf" target="_top" xlink:title=" ">
<polygon fill="white" stroke="#666666" points="491.12,-130.75 409.12,-130.75 409.12,-110 491.12,-110 491.12,-130.75"/>
<text xml:space="preserve" text-anchor="middle" x="450.12" y="-117.25" font-family="Helvetica,sans-Serif" font-size="10.00">read_payload</text>
</a>
</g>
</g>
<!-- Node1&#45;&gt;Node10 -->
<g id="edge9_Node000001_Node000010" class="edge">
<title>Node1&#45;&gt;Node10</title>
<g id="a_edge9_Node000001_Node000010"><a xlink:title=" ">
<path fill="none" stroke="#63b8ff" d="M554.62,-383.63C543.8,-348.16 520.91,-275.84 496.75,-216.37 483.9,-184.75 465.79,-148.7 456.74,-131.13"/>
<polygon fill="#63b8ff" stroke="#63b8ff" points="551.24,-384.55 557.48,-393.11 557.94,-382.52 551.24,-384.55"/>
</a>
</g>
</g>
<!-- Node13 -->
<g id="Node000013" class="node">
<title>Node13</title>
<g id="a_Node000013"><a xlink:href="carrinho_2nrf24__avr_8c.html#abefdb1d58b989853c0646a6c8b18b7d3" target="_top" xlink:title=" ">
<polygon fill="white" stroke="#666666" points="479.5,-415.75 420.75,-415.75 420.75,-395 479.5,-395 479.5,-415.75"/>
<text xml:space="preserve" text-anchor="middle" x="450.12" y="-402.25" font-family="Helvetica,sans-Serif" font-size="10.00">read_reg</text>
</a>
</g>
</g>
<!-- Node1&#45;&gt;Node13 -->
<g id="edge14_Node000001_Node000013" class="edge">
<title>Node1&#45;&gt;Node13</title>
<g id="a_edge14_Node000001_Node000013"><a xlink:title=" ">
<path fill="none" stroke="#63b8ff" d="M521,-405.37C507.41,-405.37 492.51,-405.37 479.98,-405.37"/>
<polygon fill="#63b8ff" stroke="#63b8ff" points="521,-408.87 531,-405.37 521,-401.87 521,-408.87"/>
</a>
</g>
</g>
<!-- Node17 -->
<g id="Node000017" class="node">
<title>Node17</title>
<g id="a_Node000017"><a xlink:href="carrinho_2nrf24__avr_8c.html#a31d6889b046799ad06c03ce52c9bb640" target="_top" xlink:title=" ">
<polygon fill="white" stroke="#666666" points="490,-339.75 410.25,-339.75 410.25,-319 490,-319 490,-339.75"/>
<text xml:space="preserve" text-anchor="middle" x="450.12" y="-326.25" font-family="Helvetica,sans-Serif" font-size="10.00">read_reg_buf</text>
</a>
</g>
</g>
<!-- Node1&#45;&gt;Node17 -->
<g id="edge25_Node000001_Node000017" class="edge">
<title>Node1&#45;&gt;Node17</title>
<g id="a_edge25_Node000001_Node000017"><a xlink:title=" ">
<path fill="none" stroke="#63b8ff" d="M540.77,-387.22C528.48,-376.7 512.24,-363.57 496.75,-353.37 489.57,-348.65 481.36,-344.1 473.9,-340.25"/>
<polygon fill="#63b8ff" stroke="#63b8ff" points="538.34,-389.74 548.18,-393.67 542.94,-384.46 538.34,-389.74"/>
</a>
</g>
</g>
<!-- Node18 -->
<g id="Node000018" class="node">
<title>Node18</title>
<g id="a_Node000018"><a xlink:href="carrinho_2nrf24__avr_8c.html#a3c9fd94e9894bf0792d4ff5891c16436" target="_top" xlink:title=" ">
<polygon fill="white" stroke="#666666" points="492.62,-493.75 407.62,-493.75 407.62,-473 492.62,-473 492.62,-493.75"/>
<text xml:space="preserve" text-anchor="middle" x="450.12" y="-480.25" font-family="Helvetica,sans-Serif" font-size="10.00">write_payload</text>
</a>
</g>
</g>
<!-- Node1&#45;&gt;Node18 -->
<g id="edge26_Node000001_Node000018" class="edge">
<title>Node1&#45;&gt;Node18</title>
<g id="a_edge26_Node000001_Node000018"><a xlink:title=" ">
<path fill="none" stroke="#63b8ff" d="M543.5,-424.13C531.23,-436.42 514.04,-452.21 496.75,-463.37 491.37,-466.84 485.29,-469.98 479.36,-472.68"/>
<polygon fill="#63b8ff" stroke="#63b8ff" points="545.97,-426.61 550.43,-417 540.95,-421.73 545.97,-426.61"/>
</a>
</g>
</g>
<!-- Node19 -->
<g id="Node000019" class="node">
<title>Node19</title>
<g id="a_Node000019"><a xlink:href="carrinho_2nrf24__avr_8c.html#a08bc978021db604d02a6da754f73e7e2" target="_top" xlink:title=" ">
<polygon fill="white" stroke="#666666" points="481,-245.75 419.25,-245.75 419.25,-225 481,-225 481,-245.75"/>
<text xml:space="preserve" text-anchor="middle" x="450.12" y="-232.25" font-family="Helvetica,sans-Serif" font-size="10.00">write_reg</text>
</a>
</g>
</g>
<!-- Node1&#45;&gt;Node19 -->
<g id="edge28_Node000001_Node000019" class="edge">
<title>Node1&#45;&gt;Node19</title>
<g id="a_edge28_Node000001_Node000019"><a xlink:title=" ">
<path fill="none" stroke="#63b8ff" d="M548.08,-385.21C524.59,-348.91 475.98,-273.79 458,-246"/>
<polygon fill="#63b8ff" stroke="#63b8ff" points="545.05,-386.97 553.42,-393.47 550.93,-383.17 545.05,-386.97"/>
</a>
</g>
</g>
<!-- Node3 -->
<g id="Node000003" class="node">
<title>Node3</title>
<g id="a_Node000003"><a xlink:href="carrinho_8c.html#ae66f6b31b5ad750f1fe042a706a4e3d4" target="_top" xlink:title=" ">
<polygon fill="white" stroke="#666666" points="41.88,-226.75 1.12,-226.75 1.12,-206 41.88,-206 41.88,-226.75"/>
<text xml:space="preserve" text-anchor="middle" x="21.5" y="-213.25" font-family="Helvetica,sans-Serif" font-size="10.00">main</text>
</a>
</g>
</g>
<!-- Node2&#45;&gt;Node3 -->
<g id="edge2_Node000002_Node000003" class="edge">
<title>Node2&#45;&gt;Node3</title>
<g id="a_edge2_Node000002_Node000003"><a xlink:title=" ">
<path fill="none" stroke="#63b8ff" d="M97.2,-241.15C91.07,-239.23 84.88,-237.27 79,-235.37 66.79,-231.43 53.15,-226.85 42.33,-223.18"/>
<polygon fill="#63b8ff" stroke="#63b8ff" points="96.04,-244.45 106.63,-244.08 98.12,-237.77 96.04,-244.45"/>
</a>
</g>
</g>
<!-- Node4 -->
<g id="Node000004" class="node">
<title>Node4</title>
<g id="a_Node000004"><a xlink:href="main_8c.html#a840291bc02cba5474a4cb46a9b9566fe" target="_top" xlink:title=" ">
<polygon fill="white" stroke="#666666" points="41.88,-150.75 1.12,-150.75 1.12,-130 41.88,-130 41.88,-150.75"/>
<text xml:space="preserve" text-anchor="middle" x="21.5" y="-137.25" font-family="Helvetica,sans-Serif" font-size="10.00">main</text>
</a>
</g>
</g>
<!-- Node2&#45;&gt;Node4 -->
<g id="edge3_Node000002_Node000004" class="edge">
<title>Node2&#45;&gt;Node4</title>
<g id="a_edge3_Node000002_Node000004"><a xlink:title=" ">
<path fill="none" stroke="#63b8ff" d="M96.76,-245.43C90.41,-242.82 84.27,-239.52 79,-235.37 50.05,-212.58 32.74,-170.54 25.9,-150.94"/>
<polygon fill="#63b8ff" stroke="#63b8ff" points="95.52,-248.7 106.11,-248.71 97.84,-242.1 95.52,-248.7"/>
</a>
</g>
</g>
<!-- Node5 -->
<g id="Node000005" class="node">
<title>Node5</title>
<g id="a_Node000005"><a xlink:href="controle_8c.html#a4fc01d736fe50cf5b977f755b675f11d" target="_top" xlink:title=" ">
<polygon fill="white" stroke="#666666" points="43,-303.75 0,-303.75 0,-283 43,-283 43,-303.75"/>
<text xml:space="preserve" text-anchor="middle" x="21.5" y="-290.25" font-family="Helvetica,sans-Serif" font-size="10.00">setup</text>
</a>
</g>
</g>
<!-- Node2&#45;&gt;Node5 -->
<g id="edge4_Node000002_Node000005" class="edge">
<title>Node2&#45;&gt;Node5</title>
<g id="a_edge4_Node000002_Node000005"><a xlink:title=" ">
<path fill="none" stroke="#63b8ff" d="M98.48,-269.56C79.54,-275.5 58.45,-282.1 43.31,-286.85"/>
<polygon fill="#63b8ff" stroke="#63b8ff" points="99.39,-272.94 107.88,-266.61 97.3,-266.26 99.39,-272.94"/>
</a>
</g>
</g>
<!-- Node8 -->
<g id="Node000008" class="node">
<title>Node8</title>
<g id="a_Node000008"><a xlink:href="carrinho_2nrf24__avr_8c.html#a8232e1982aabc6f52408c318402cb578" target="_top" xlink:title=" ">
<polygon fill="white" stroke="#666666" points="180.5,-454.75 109,-454.75 109,-434 180.5,-434 180.5,-454.75"/>
<text xml:space="preserve" text-anchor="middle" x="144.75" y="-441.25" font-family="Helvetica,sans-Serif" font-size="10.00">nrf24_write</text>
</a>
</g>
</g>
<!-- Node7&#45;&gt;Node8 -->
<g id="edge7_Node000007_Node000008" class="edge">
<title>Node7&#45;&gt;Node8</title>
<g id="a_edge7_Node000007_Node000008"><a xlink:title=" ">
<path fill="none" stroke="#63b8ff" d="M278.78,-524.9C245.91,-505 191.56,-472.1 163.59,-455.17"/>
<polygon fill="#63b8ff" stroke="#63b8ff" points="276.58,-527.65 286.94,-529.84 280.2,-521.67 276.58,-527.65"/>
</a>
</g>
</g>
<!-- Node11 -->
<g id="Node000011" class="node">
<title>Node11</title>
<g id="a_Node000011"><a xlink:href="carrinho_2nrf24__avr_8c.html#aa0767db791fc0b45ebadab011c1900bf" target="_top" xlink:title=" ">
<polygon fill="white" stroke="#666666" points="341.25,-35.75 272.75,-35.75 272.75,-15 341.25,-15 341.25,-35.75"/>
<text xml:space="preserve" text-anchor="middle" x="307" y="-22.25" font-family="Helvetica,sans-Serif" font-size="10.00">nrf24_read</text>
</a>
</g>
</g>
<!-- Node10&#45;&gt;Node11 -->
<g id="edge10_Node000010_Node000011" class="edge">
<title>Node10&#45;&gt;Node11</title>
<g id="a_edge10_Node000010_Node000011"><a xlink:title=" ">
<path fill="none" stroke="#63b8ff" d="M431.41,-101.82C415.75,-86.24 391.69,-64.19 367.5,-49.37 359.14,-44.25 349.5,-39.82 340.44,-36.2"/>
<polygon fill="#63b8ff" stroke="#63b8ff" points="428.62,-103.98 438.13,-108.65 433.61,-99.07 428.62,-103.98"/>
</a>
</g>
</g>
<!-- Node11&#45;&gt;Node4 -->
<g id="edge13_Node000011_Node000004" class="edge">
<title>Node11&#45;&gt;Node4</title>
<g id="a_edge13_Node000011_Node000004"><a xlink:title=" ">
<path fill="none" stroke="#63b8ff" d="M261.44,-11.75C212.7,0.34 134.16,11.25 79,-23.37 40.6,-47.47 27.67,-105.86 23.89,-129.83"/>
<polygon fill="#63b8ff" stroke="#63b8ff" points="260.54,-15.13 271.1,-14.27 262.31,-8.35 260.54,-15.13"/>
</a>
</g>
</g>
<!-- Node12 -->
<g id="Node000012" class="node">
<title>Node12</title>
<g id="a_Node000012"><a xlink:href="carrinho_8c.html#afe461d27b9c48d5921c00d521181f12f" target="_top" xlink:title=" ">
<polygon fill="white" stroke="#666666" points="163.25,-112.75 126.25,-112.75 126.25,-92 163.25,-92 163.25,-112.75"/>
<text xml:space="preserve" text-anchor="middle" x="144.75" y="-99.25" font-family="Helvetica,sans-Serif" font-size="10.00">loop</text>
</a>
</g>
</g>
<!-- Node11&#45;&gt;Node12 -->
<g id="edge11_Node000011_Node000012" class="edge">
<title>Node11&#45;&gt;Node12</title>
<g id="a_edge11_Node000011_Node000012"><a xlink:title=" ">
<path fill="none" stroke="#63b8ff" d="M281.19,-42.43C262.41,-54.77 235.65,-71.17 210.5,-82.37 195.13,-89.22 176.73,-94.65 163.48,-98.12"/>
<polygon fill="#63b8ff" stroke="#63b8ff" points="283.11,-45.36 289.48,-36.89 279.22,-39.53 283.11,-45.36"/>
</a>
</g>
</g>
<!-- Node12&#45;&gt;Node3 -->
<g id="edge12_Node000012_Node000003" class="edge">
<title>Node12&#45;&gt;Node3</title>
<g id="a_edge12_Node000012_Node000003"><a xlink:title=" ">
<path fill="none" stroke="#63b8ff" d="M124.38,-120.59C98.87,-144.57 54.82,-185.99 34.02,-205.54"/>
<polygon fill="#63b8ff" stroke="#63b8ff" points="126.57,-123.33 131.46,-113.93 121.77,-118.23 126.57,-123.33"/>
</a>
</g>
</g>
<!-- Node13&#45;&gt;Node8 -->
<g id="edge24_Node000013_Node000008" class="edge">
<title>Node13&#45;&gt;Node8</title>
<g id="a_edge24_Node000013_Node000008"><a xlink:title=" ">
<path fill="none" stroke="#63b8ff" d="M409.16,-416.47C395.99,-419.78 381.2,-423.12 367.5,-425.37 302.11,-436.12 224.81,-440.99 180.91,-443.04"/>
<polygon fill="#63b8ff" stroke="#63b8ff" points="409.99,-419.87 418.8,-413.98 408.24,-413.1 409.99,-419.87"/>
</a>
</g>
</g>
<!-- Node14 -->
<g id="Node000014" class="node">
<title>Node14</title>
<g id="a_Node000014"><a xlink:href="carrinho_2nrf24__avr_8c.html#a0f64caa74329fd5799a33f30bd8ebf82" target="_top" xlink:title=" ">
<polygon fill="white" stroke="#666666" points="352.88,-150.75 261.12,-150.75 261.12,-130 352.88,-130 352.88,-150.75"/>
<text xml:space="preserve" text-anchor="middle" x="307" y="-137.25" font-family="Helvetica,sans-Serif" font-size="10.00">nrf24_available</text>
</a>
</g>
</g>
<!-- Node13&#45;&gt;Node14 -->
<g id="edge15_Node000013_Node000014" class="edge">
<title>Node13&#45;&gt;Node14</title>
<g id="a_edge15_Node000013_Node000014"><a xlink:title=" ">
<path fill="none" stroke="#63b8ff" d="M431.11,-386.52C421.81,-375.98 410.91,-362.2 403.5,-348.37 378.61,-301.91 389.66,-283.2 367.5,-235.37 352.44,-202.88 328.29,-168.02 315.9,-150.98"/>
<polygon fill="#63b8ff" stroke="#63b8ff" points="428.38,-388.73 437.71,-393.76 433.55,-384.02 428.38,-388.73"/>
</a>
</g>
</g>
<!-- Node15 -->
<g id="Node000015" class="node">
<title>Node15</title>
<g id="a_Node000015"><a xlink:href="carrinho_2nrf24__avr_8c.html#a71c5628e9583f6a6fd0871b3ae1bf6df" target="_top" xlink:title=" ">
<polygon fill="white" stroke="#666666" points="363.75,-264.75 250.25,-264.75 250.25,-244 363.75,-244 363.75,-264.75"/>
<text xml:space="preserve" text-anchor="middle" x="307" y="-251.25" font-family="Helvetica,sans-Serif" font-size="10.00">nrf24_startListening</text>
</a>
</g>
</g>
<!-- Node13&#45;&gt;Node15 -->
<g id="edge18_Node000013_Node000015" class="edge">
<title>Node13&#45;&gt;Node15</title>
<g id="a_edge18_Node000013_Node000015"><a xlink:title=" ">
<path fill="none" stroke="#63b8ff" d="M431.37,-386.37C401.41,-354.31 341.77,-290.5 318.06,-265.13"/>
<polygon fill="#63b8ff" stroke="#63b8ff" points="428.56,-388.49 437.94,-393.41 433.67,-383.71 428.56,-388.49"/>
</a>
</g>
</g>
<!-- Node16 -->
<g id="Node000016" class="node">
<title>Node16</title>
<g id="a_Node000016"><a xlink:href="carrinho_2nrf24__avr_8c.html#a33899bc3c0f4d2293f37c306d0b8e297" target="_top" xlink:title=" ">
<polygon fill="white" stroke="#666666" points="363,-416.75 251,-416.75 251,-396 363,-396 363,-416.75"/>
<text xml:space="preserve" text-anchor="middle" x="307" y="-403.25" font-family="Helvetica,sans-Serif" font-size="10.00">nrf24_stopListening</text>
</a>
</g>
</g>
<!-- Node13&#45;&gt;Node16 -->
<g id="edge21_Node000013_Node000016" class="edge">
<title>Node13&#45;&gt;Node16</title>
<g id="a_edge21_Node000013_Node000016"><a xlink:title=" ">
<path fill="none" stroke="#63b8ff" d="M409.17,-405.66C394.94,-405.76 378.65,-405.87 363.36,-405.98"/>
<polygon fill="#63b8ff" stroke="#63b8ff" points="409.08,-409.16 419.05,-405.59 409.03,-402.16 409.08,-409.16"/>
</a>
</g>
</g>
<!-- Node14&#45;&gt;Node4 -->
<g id="edge17_Node000014_Node000004" class="edge">
<title>Node14&#45;&gt;Node4</title>
<g id="a_edge17_Node000014_Node000004"><a xlink:title=" ">
<path fill="none" stroke="#63b8ff" d="M249.64,-140.37C185.55,-140.37 84.34,-140.37 42.07,-140.37"/>
<polygon fill="#63b8ff" stroke="#63b8ff" points="249.25,-143.87 259.25,-140.37 249.25,-136.87 249.25,-143.87"/>
</a>
</g>
</g>
<!-- Node14&#45;&gt;Node12 -->
<g id="edge16_Node000014_Node000012" class="edge">
<title>Node14&#45;&gt;Node12</title>
<g id="a_edge16_Node000014_Node000012"><a xlink:title=" ">
<path fill="none" stroke="#63b8ff" d="M250.06,-127.11C219.83,-119.94 184.53,-111.57 163.72,-106.63"/>
<polygon fill="#63b8ff" stroke="#63b8ff" points="248.92,-130.44 259.46,-129.34 250.54,-123.62 248.92,-130.44"/>
</a>
</g>
</g>
<!-- Node15&#45;&gt;Node3 -->
<g id="edge19_Node000015_Node000003" class="edge">
<title>Node15&#45;&gt;Node3</title>
<g id="a_edge19_Node000015_Node000003"><a xlink:title=" ">
<path fill="none" stroke="#63b8ff" d="M266.56,-268.72C219.85,-283.31 140.62,-300.37 79,-274.37 56.2,-264.76 38.05,-240.95 28.93,-227.01"/>
<polygon fill="#63b8ff" stroke="#63b8ff" points="267.56,-272.08 275.98,-265.66 265.39,-265.42 267.56,-272.08"/>
</a>
</g>
</g>
<!-- Node15&#45;&gt;Node4 -->
<g id="edge20_Node000015_Node000004" class="edge">
<title>Node15&#45;&gt;Node4</title>
<g id="a_edge20_Node000015_Node000004"><a xlink:title=" ">
<path fill="none" stroke="#63b8ff" d="M281.21,-237.28C262.44,-224.92 235.68,-208.5 210.5,-197.37 179.62,-183.72 84.04,-157.09 42.32,-145.72"/>
<polygon fill="#63b8ff" stroke="#63b8ff" points="279.23,-240.17 289.49,-242.83 283.13,-234.35 279.23,-240.17"/>
</a>
</g>
</g>
<!-- Node16&#45;&gt;Node5 -->
<g id="edge23_Node000016_Node000005" class="edge">
<title>Node16&#45;&gt;Node5</title>
<g id="a_edge23_Node000016_Node000005"><a xlink:title=" ">
<path fill="none" stroke="#63b8ff" d="M239.29,-399.63C192.07,-392.61 128.58,-378.49 79,-350.37 58.15,-338.55 39.81,-316.88 30.02,-303.94"/>
<polygon fill="#63b8ff" stroke="#63b8ff" points="238.73,-403.08 249.12,-401.01 239.71,-396.15 238.73,-403.08"/>
</a>
</g>
</g>
<!-- Node16&#45;&gt;Node8 -->
<g id="edge22_Node000016_Node000008" class="edge">
<title>Node16&#45;&gt;Node8</title>
<g id="a_edge22_Node000016_Node000008"><a xlink:title=" ">
<path fill="none" stroke="#63b8ff" d="M249.55,-419.76C226.69,-425.18 201.01,-431.27 180.91,-436.04"/>
<polygon fill="#63b8ff" stroke="#63b8ff" points="250.11,-423.22 259.03,-417.51 248.5,-416.41 250.11,-423.22"/>
</a>
</g>
</g>
<!-- Node18&#45;&gt;Node8 -->
<g id="edge27_Node000018_Node000008" class="edge">
<title>Node18&#45;&gt;Node8</title>
<g id="a_edge27_Node000018_Node000008"><a xlink:title=" ">
<path fill="none" stroke="#63b8ff" d="M396.17,-476.56C334.23,-468.6 233.45,-455.65 180.6,-448.85"/>
<polygon fill="#63b8ff" stroke="#63b8ff" points="395.39,-479.99 405.76,-477.8 396.29,-473.05 395.39,-479.99"/>
</a>
</g>
</g>
<!-- Node19&#45;&gt;Node2 -->
<g id="edge29_Node000019_Node000002" class="edge">
<title>Node19&#45;&gt;Node2</title>
<g id="a_edge29_Node000019_Node000002"><a xlink:title=" ">
<path fill="none" stroke="#63b8ff" d="M407.38,-232.99C366.33,-231.22 301.94,-229.92 246.5,-235.37 224.85,-237.5 200.95,-242.14 181.87,-246.42"/>
<polygon fill="#63b8ff" stroke="#63b8ff" points="407.16,-236.49 417.31,-233.46 407.49,-229.5 407.16,-236.49"/>
</a>
</g>
</g>
<!-- Node19&#45;&gt;Node8 -->
<g id="edge45_Node000019_Node000008" class="edge">
<title>Node19&#45;&gt;Node8</title>
<g id="a_edge45_Node000019_Node000008"><a xlink:title=" ">
<path fill="none" stroke="#63b8ff" d="M429.57,-253.6C413.45,-268.26 389.7,-289.04 367.5,-305.37 295.96,-358.02 204.36,-411.32 165.06,-433.57"/>
<polygon fill="#63b8ff" stroke="#63b8ff" points="431.57,-256.51 436.57,-247.17 426.84,-251.35 431.57,-256.51"/>
</a>
</g>
</g>
<!-- Node19&#45;&gt;Node11 -->
<g id="edge35_Node000019_Node000011" class="edge">
<title>Node19&#45;&gt;Node11</title>
<g id="a_edge35_Node000019_Node000011"><a xlink:title=" ">
<path fill="none" stroke="#63b8ff" d="M438.71,-214.44C429.2,-195.11 414.93,-165.52 403.5,-139.37 386.25,-99.9 397.92,-79.88 367.5,-49.37 360.42,-42.27 350.97,-37.2 341.68,-33.6"/>
<polygon fill="#63b8ff" stroke="#63b8ff" points="435.46,-215.76 443.03,-223.18 441.73,-212.66 435.46,-215.76"/>
</a>
</g>
</g>
<!-- Node19&#45;&gt;Node15 -->
<g id="edge43_Node000019_Node000015" class="edge">
<title>Node19&#45;&gt;Node15</title>
<g id="a_edge43_Node000019_Node000015"><a xlink:title=" ">
<path fill="none" stroke="#63b8ff" d="M407.84,-240.93C394.17,-242.77 378.72,-244.85 364.13,-246.82"/>
<polygon fill="#63b8ff" stroke="#63b8ff" points="407.91,-244.45 417.35,-239.65 406.97,-237.52 407.91,-244.45"/>
</a>
</g>
</g>
<!-- Node19&#45;&gt;Node16 -->
<g id="edge44_Node000019_Node000016" class="edge">
<title>Node19&#45;&gt;Node16</title>
<g id="a_edge44_Node000019_Node000016"><a xlink:title=" ">
<path fill="none" stroke="#63b8ff" d="M435.27,-255.37C419.56,-277.67 392.84,-314.52 367.5,-344.37 351.47,-363.25 331.21,-383.72 318.95,-395.77"/>
<polygon fill="#63b8ff" stroke="#63b8ff" points="437.93,-257.67 440.79,-247.47 432.19,-253.65 437.93,-257.67"/>
</a>
</g>
</g>
<!-- Node20 -->
<g id="Node000020" class="node">
<title>Node20</title>
<g id="a_Node000020"><a xlink:href="carrinho_2nrf24__avr_8c.html#a5af2f11537aed8a56d8489355af0ff16" target="_top" xlink:title=" ">
<polygon fill="white" stroke="#666666" points="210.5,-73.75 79,-73.75 79,-53 210.5,-53 210.5,-73.75"/>
<text xml:space="preserve" text-anchor="middle" x="144.75" y="-60.25" font-family="Helvetica,sans-Serif" font-size="10.00">nrf24_openReadingPipe</text>
</a>
</g>
</g>
<!-- Node19&#45;&gt;Node20 -->
<g id="edge30_Node000019_Node000020" class="edge">
<title>Node19&#45;&gt;Node20</title>
<g id="a_edge30_Node000019_Node000020"><a xlink:title=" ">
<path fill="none" stroke="#63b8ff" d="M439.31,-214.38C420.4,-174.37 379.71,-90.42 367.5,-82.37 321.54,-52.06 258.03,-49.6 210.76,-53.39"/>
<polygon fill="#63b8ff" stroke="#63b8ff" points="436.05,-215.69 443.48,-223.25 442.39,-212.71 436.05,-215.69"/>
</a>
</g>
</g>
<!-- Node21 -->
<g id="Node000021" class="node">
<title>Node21</title>
<g id="a_Node000021"><a xlink:href="carrinho_2nrf24__avr_8c.html#a21d638882f746748de35324bdc21f448" target="_top" xlink:title=" ">
<polygon fill="white" stroke="#666666" points="208.25,-341.75 81.25,-341.75 81.25,-321 208.25,-321 208.25,-341.75"/>
<text xml:space="preserve" text-anchor="middle" x="144.75" y="-328.25" font-family="Helvetica,sans-Serif" font-size="10.00">nrf24_openWritingPipe</text>
</a>
</g>
</g>
<!-- Node19&#45;&gt;Node21 -->
<g id="edge33_Node000019_Node000021" class="edge">
<title>Node19&#45;&gt;Node21</title>
<g id="a_edge33_Node000019_Node000021"><a xlink:title=" ">
<path fill="none" stroke="#63b8ff" d="M418.47,-251.24C403.39,-258.63 384.78,-267.15 367.5,-273.37 310.59,-293.87 243.09,-310.48 197.63,-320.58"/>
<polygon fill="#63b8ff" stroke="#63b8ff" points="420.02,-254.38 427.4,-246.78 416.89,-248.12 420.02,-254.38"/>
</a>
</g>
</g>
<!-- Node22 -->
<g id="Node000022" class="node">
<title>Node22</title>
<g id="a_Node000022"><a xlink:href="carrinho_2nrf24__avr_8c.html#a49aa88b1042d6d62114cfbca271d9e2b" target="_top" xlink:title=" ">
<polygon fill="white" stroke="#666666" points="195.5,-226.75 94,-226.75 94,-206 195.5,-206 195.5,-226.75"/>
<text xml:space="preserve" text-anchor="middle" x="144.75" y="-213.25" font-family="Helvetica,sans-Serif" font-size="10.00">nrf24_setChannel</text>
</a>
</g>
</g>
<!-- Node19&#45;&gt;Node22 -->
<g id="edge36_Node000019_Node000022" class="edge">
<title>Node19&#45;&gt;Node22</title>
<g id="a_edge36_Node000019_Node000022"><a xlink:title=" ">
<path fill="none" stroke="#63b8ff" d="M418.47,-219.71C403.51,-212.93 385.01,-205.78 367.5,-202.37 309.38,-191.07 241.23,-198.35 195.98,-206"/>
<polygon fill="#63b8ff" stroke="#63b8ff" points="416.76,-222.78 427.3,-223.88 419.75,-216.45 416.76,-222.78"/>
</a>
</g>
</g>
<!-- Node23 -->
<g id="Node000023" class="node">
<title>Node23</title>
<g id="a_Node000023"><a xlink:href="carrinho_2nrf24__avr_8c.html#aaf2900e7932ebbf7f0ecdc6bce5840e1" target="_top" xlink:title=" ">
<polygon fill="white" stroke="#666666" points="367.5,-111.75 246.5,-111.75 246.5,-91 367.5,-91 367.5,-111.75"/>
<text xml:space="preserve" text-anchor="middle" x="307" y="-98.25" font-family="Helvetica,sans-Serif" font-size="10.00">nrf24_setPayloadSize</text>
</a>
</g>
</g>
<!-- Node19&#45;&gt;Node23 -->
<g id="edge40_Node000019_Node000023" class="edge">
<title>Node19&#45;&gt;Node23</title>
<g id="a_edge40_Node000019_Node000023"><a xlink:title=" ">
<path fill="none" stroke="#63b8ff" d="M439.31,-214.47C426.32,-188.98 401.08,-146.21 367.5,-121.37 362.51,-117.68 356.79,-114.64 350.91,-112.14"/>
<polygon fill="#63b8ff" stroke="#63b8ff" points="436.04,-215.75 443.59,-223.18 442.32,-212.67 436.04,-215.75"/>
</a>
</g>
</g>
<!-- Node20&#45;&gt;Node3 -->
<g id="edge31_Node000020_Node000003" class="edge">
<title>Node20&#45;&gt;Node3</title>
<g id="a_edge31_Node000020_Node000003"><a xlink:title=" ">
<path fill="none" stroke="#63b8ff" d="M83.46,-79.79C81.9,-80.91 80.41,-82.1 79,-83.37 69.22,-92.2 37.47,-176.04 26.37,-205.89"/>
<polygon fill="#63b8ff" stroke="#63b8ff" points="84.81,-83.05 91.65,-74.96 81.26,-77.02 84.81,-83.05"/>
</a>
</g>
</g>
<!-- Node20&#45;&gt;Node4 -->
<g id="edge32_Node000020_Node000004" class="edge">
<title>Node20&#45;&gt;Node4</title>
<g id="a_edge32_Node000020_Node000004"><a xlink:title=" ">
<path fill="none" stroke="#63b8ff" d="M88.21,-78.48C85.02,-79.97 81.92,-81.6 79,-83.37 58.74,-95.65 40.47,-116.75 30.49,-129.55"/>
<polygon fill="#63b8ff" stroke="#63b8ff" points="89.33,-81.81 97.22,-74.74 86.64,-75.34 89.33,-81.81"/>
</a>
</g>
</g>
<!-- Node21&#45;&gt;Node5 -->
<g id="edge34_Node000021_Node000005" class="edge">
<title>Node21&#45;&gt;Node5</title>
<g id="a_edge34_Node000021_Node000005"><a xlink:title=" ">
<path fill="none" stroke="#63b8ff" d="M98.48,-317.19C79.54,-311.25 58.45,-304.64 43.31,-299.89"/>
<polygon fill="#63b8ff" stroke="#63b8ff" points="97.3,-320.48 107.88,-320.13 99.39,-313.8 97.3,-320.48"/>
</a>
</g>
</g>
<!-- Node22&#45;&gt;Node3 -->
<g id="edge37_Node000022_Node000003" class="edge">
<title>Node22&#45;&gt;Node3</title>
<g id="a_edge37_Node000022_Node000003"><a xlink:title=" ">
<path fill="none" stroke="#63b8ff" d="M82.58,-216.37C67.92,-216.37 53.32,-216.37 42.17,-216.37"/>
<polygon fill="#63b8ff" stroke="#63b8ff" points="82.22,-219.87 92.22,-216.37 82.22,-212.87 82.22,-219.87"/>
</a>
</g>
</g>
<!-- Node22&#45;&gt;Node4 -->
<g id="edge38_Node000022_Node000004" class="edge">
<title>Node22&#45;&gt;Node4</title>
<g id="a_edge38_Node000022_Node000004"><a xlink:title=" ">
<path fill="none" stroke="#63b8ff" d="M96.68,-201.41C90.55,-198.75 84.5,-195.74 79,-192.37 60.13,-180.82 41.97,-162.38 31.54,-150.85"/>
<polygon fill="#63b8ff" stroke="#63b8ff" points="94.98,-204.5 105.57,-204.99 97.59,-198.01 94.98,-204.5"/>
</a>
</g>
</g>
<!-- Node22&#45;&gt;Node5 -->
<g id="edge39_Node000022_Node000005" class="edge">
<title>Node22&#45;&gt;Node5</title>
<g id="a_edge39_Node000022_Node000005"><a xlink:title=" ">
<path fill="none" stroke="#63b8ff" d="M88.21,-231.48C85.02,-232.97 81.92,-234.6 79,-236.37 58.74,-248.65 40.47,-269.75 30.49,-282.55"/>
<polygon fill="#63b8ff" stroke="#63b8ff" points="89.33,-234.81 97.22,-227.74 86.64,-228.34 89.33,-234.81"/>
</a>
</g>
</g>
<!-- Node23&#45;&gt;Node2 -->
<g id="edge42_Node000023_Node000002" class="edge">
<title>Node23&#45;&gt;Node2</title>
<g id="a_edge42_Node000023_Node000002"><a xlink:title=" ">
<path fill="none" stroke="#63b8ff" d="M249.75,-118.39C248.62,-119.33 247.53,-120.32 246.5,-121.37 209.28,-159.29 248.19,-197.92 210.5,-235.37 202.82,-243 192.3,-247.73 181.97,-250.66"/>
<polygon fill="#63b8ff" stroke="#63b8ff" points="251.56,-121.39 257.98,-112.97 247.71,-115.54 251.56,-121.39"/>
</a>
</g>
</g>
<!-- Node23&#45;&gt;Node4 -->
<g id="edge41_Node000023_Node000004" class="edge">
<title>Node23&#45;&gt;Node4</title>
<g id="a_edge41_Node000023_Node000004"><a xlink:title=" ">
<path fill="none" stroke="#63b8ff" d="M284.19,-83.65C265.79,-69.92 238.11,-51.99 210.5,-44.37 154.16,-28.84 129.74,-15.36 79,-44.37 46.26,-63.09 30.62,-108.99 25.02,-129.81"/>
<polygon fill="#63b8ff" stroke="#63b8ff" points="281.9,-86.3 291.95,-89.64 286.17,-80.76 281.9,-86.3"/>
</a>
</g>
</g>
</g>
</svg>
