<?xml version="1.0" encoding="UTF-8" standalone="no"?>
<!DOCTYPE svg PUBLIC "-//W3C//DTD SVG 1.1//EN"
 "http://www.w3.org/Graphics/SVG/1.1/DTD/svg11.dtd">
<!-- Generated by graphviz version 14.0.4 (0)
 -->
<!-- Title: motor Pages: 1 -->
<svg width="168pt" height="86pt"
 viewBox="0.00 0.00 168.00 86.00" xmlns="http://www.w3.org/2000/svg" xmlns:xlink="http://www.w3.org/1999/xlink">
<g id="graph0" class="graph" transform="scale(1 1) rotate(0) translate(4 81.75)">
<title>motor</title>
<!-- Node1 -->
<g id="Node000001" class="node">
<title>Node1</title>
<g id="a_Node000001"><a xlink:title="Controla um motor no sentido desejado e com PWM.">
<polygon fill="#999999" stroke="#666666" points="45.25,-48.75 0,-48.75 0,-28 45.25,-28 45.25,-48.75"/>
<text xml:space="preserve" text-anchor="middle" x="22.62" y="-35.25" font-family="Helvetica,sans-Serif" font-size="10.00">motor</text>
</a>
</g>
</g>
<!-- Node2 -->
<g id="Node000002" class="node">
<title>Node2</title>
<g id="a_Node000002"><a xlink:href="carrinho_8c.html#ac7c0935e24e573b2929d0df7f9e6b82f" target="_top" xlink:title="Define o duty de um PWM em uma das saídas configuradas.">
<polygon fill="white" stroke="#666666" points="160.25,-77.75 81.25,-77.75 81.25,-57 160.25,-57 160.25,-77.75"/>
<text xml:space="preserve" text-anchor="middle" x="120.75" y="-64.25" font-family="Helvetica,sans-Serif" font-size="10.00">analog_write</text>
</a>
</g>
</g>
<!-- Node1&#45;&gt;Node2 -->
<g id="edge1_Node000001_Node000002" class="edge">
<title>Node1&#45;&gt;Node2</title>
<g id="a_edge1_Node000001_Node000002"><a xlink:title=" ">
<path fill="none" stroke="#63b8ff" d="M45.44,-44.96C53.73,-47.46 63.52,-50.41 73.23,-53.34"/>
<polygon fill="#63b8ff" stroke="#63b8ff" points="72.04,-56.64 82.62,-56.17 74.06,-49.94 72.04,-56.64"/>
</a>
</g>
</g>
<!-- Node3 -->
<g id="Node000003" class="node">
<title>Node3</title>
<g id="a_Node000003"><a xlink:href="carrinho__ino_8ino.html#a83f9abde8522ce95dd4c5ce5ba3d9d39" target="_top" xlink:title=" ">
<polygon fill="white" stroke="#666666" points="143.38,-20.75 98.12,-20.75 98.12,0 143.38,0 143.38,-20.75"/>
<text xml:space="preserve" text-anchor="middle" x="120.75" y="-7.25" font-family="Helvetica,sans-Serif" font-size="10.00">motor</text>
</a>
</g>
</g>
<!-- Node1&#45;&gt;Node3 -->
<g id="edge2_Node000001_Node000003" class="edge">
<title>Node1&#45;&gt;Node3</title>
<g id="a_edge2_Node000001_Node000003"><a xlink:title=" ">
<path fill="none" stroke="#63b8ff" d="M45.44,-32.02C57.64,-28.47 73.1,-23.96 86.76,-19.99"/>
<polygon fill="#63b8ff" stroke="#63b8ff" points="87.62,-23.38 96.24,-17.22 85.66,-16.66 87.62,-23.38"/>
</a>
</g>
</g>
<!-- Node3&#45;&gt;Node3 -->
<g id="edge3_Node000003_Node000003" class="edge">
<title>Node3&#45;&gt;Node3</title>
<g id="a_edge3_Node000003_Node000003"><a xlink:title=" ">
<path fill="none" stroke="#63b8ff" d="M104.94,-21.15C98.61,-29.81 103.88,-38.75 120.75,-38.75 129.71,-38.75 135.4,-36.23 137.81,-32.56"/>
<polygon fill="#63b8ff" stroke="#63b8ff" points="141.29,-32.21 136.73,-22.65 134.34,-32.97 141.29,-32.21"/>
</a>
</g>
</g>
</g>
</svg>
