<?xml version="1.0" encoding="UTF-8" standalone="no"?>
<!DOCTYPE svg PUBLIC "-//W3C//DTD SVG 1.1//EN"
 "http://www.w3.org/Graphics/SVG/1.1/DTD/svg11.dtd">
<!-- Generated by graphviz version 14.0.4 (0)
 -->
<!-- Title: write_reg Pages: 1 -->
<svg width="634pt" height="375pt"
 viewBox="0.00 0.00 634.00 375.00" xmlns="http://www.w3.org/2000/svg" xmlns:xlink="http://www.w3.org/1999/xlink">
<g id="graph0" class="graph" transform="scale(1 1) rotate(0) translate(4 371.26)">
<title>write_reg</title>
<!-- Node1 -->
<g id="Node000001" class="node">
<title>Node1</title>
<g id="a_Node000001"><a xlink:title=" ">
<polygon fill="#999999" stroke="#666666" points="626,-215.26 564.25,-215.26 564.25,-194.51 626,-194.51 626,-215.26"/>
<text xml:space="preserve" text-anchor="middle" x="595.12" y="-201.76" font-family="Helvetica,sans-Serif" font-size="10.00">write_reg</text>
</a>
</g>
</g>
<!-- Node2 -->
<g id="Node000002" class="node">
<title>Node2</title>
<g id="a_Node000002"><a xlink:href="carrinho_2nrf24__avr_8c.html#ab6fb4c1aa834152310116e7dec65d8e3" target="_top" xlink:title=" ">
<polygon fill="white" stroke="#666666" points="342.38,-331.26 268.62,-331.26 268.62,-310.51 342.38,-310.51 342.38,-331.26"/>
<text xml:space="preserve" text-anchor="middle" x="305.5" y="-317.76" font-family="Helvetica,sans-Serif" font-size="10.00">nrf24_begin</text>
</a>
</g>
</g>
<!-- Node1&#45;&gt;Node2 -->
<g id="edge1_Node000001_Node000002" class="edge">
<title>Node1&#45;&gt;Node2</title>
<g id="a_edge1_Node000001_Node000002"><a xlink:title=" ">
<path fill="none" stroke="#63b8ff" d="M585.79,-226.29C575.79,-248.8 556.72,-283.22 528.25,-299.88 470.34,-333.77 389.07,-331.37 342.7,-326.3"/>
<polygon fill="#63b8ff" stroke="#63b8ff" points="588.98,-227.73 589.61,-217.15 582.52,-225.03 588.98,-227.73"/>
</a>
</g>
</g>
<!-- Node5 -->
<g id="Node000005" class="node">
<title>Node5</title>
<g id="a_Node000005"><a xlink:href="carrinho_2nrf24__avr_8c.html#a5af2f11537aed8a56d8489355af0ff16" target="_top" xlink:title=" ">
<polygon fill="white" stroke="#666666" points="371.25,-255.26 239.75,-255.26 239.75,-234.51 371.25,-234.51 371.25,-255.26"/>
<text xml:space="preserve" text-anchor="middle" x="305.5" y="-241.76" font-family="Helvetica,sans-Serif" font-size="10.00">nrf24_openReadingPipe</text>
</a>
</g>
</g>
<!-- Node1&#45;&gt;Node5 -->
<g id="edge4_Node000001_Node000005" class="edge">
<title>Node1&#45;&gt;Node5</title>
<g id="a_edge4_Node000001_Node000005"><a xlink:title=" ">
<path fill="none" stroke="#63b8ff" d="M552.89,-214.26C544.75,-215.94 536.25,-217.57 528.25,-218.88 475.85,-227.5 416.03,-234.34 371.73,-238.84"/>
<polygon fill="#63b8ff" stroke="#63b8ff" points="553.53,-217.7 562.58,-212.2 552.08,-210.85 553.53,-217.7"/>
</a>
</g>
</g>
<!-- Node6 -->
<g id="Node000006" class="node">
<title>Node6</title>
<g id="a_Node000006"><a xlink:href="carrinho_2nrf24__avr_8c.html#a21d638882f746748de35324bdc21f448" target="_top" xlink:title=" ">
<polygon fill="white" stroke="#666666" points="203.75,-100.26 76.75,-100.26 76.75,-79.51 203.75,-79.51 203.75,-100.26"/>
<text xml:space="preserve" text-anchor="middle" x="140.25" y="-86.76" font-family="Helvetica,sans-Serif" font-size="10.00">nrf24_openWritingPipe</text>
</a>
</g>
</g>
<!-- Node1&#45;&gt;Node6 -->
<g id="edge7_Node000001_Node000006" class="edge">
<title>Node1&#45;&gt;Node6</title>
<g id="a_edge7_Node000001_Node000006"><a xlink:title=" ">
<path fill="none" stroke="#63b8ff" d="M559.33,-189.48C549.31,-185.06 538.35,-180.26 528.25,-175.88 458.64,-145.71 444.89,-127.13 371.25,-108.88 315.83,-95.15 250.84,-90.82 204.11,-89.68"/>
<polygon fill="#63b8ff" stroke="#63b8ff" points="557.81,-192.63 568.37,-193.46 560.63,-186.23 557.81,-192.63"/>
</a>
</g>
</g>
<!-- Node8 -->
<g id="Node000008" class="node">
<title>Node8</title>
<g id="a_Node000008"><a xlink:href="carrinho_2nrf24__avr_8c.html#aa0767db791fc0b45ebadab011c1900bf" target="_top" xlink:title=" ">
<polygon fill="white" stroke="#666666" points="502,-291.26 433.5,-291.26 433.5,-270.51 502,-270.51 502,-291.26"/>
<text xml:space="preserve" text-anchor="middle" x="467.75" y="-277.76" font-family="Helvetica,sans-Serif" font-size="10.00">nrf24_read</text>
</a>
</g>
</g>
<!-- Node1&#45;&gt;Node8 -->
<g id="edge9_Node000001_Node000008" class="edge">
<title>Node1&#45;&gt;Node8</title>
<g id="a_edge9_Node000001_Node000008"><a xlink:title=" ">
<path fill="none" stroke="#63b8ff" d="M574.43,-222.88C561.87,-233.71 544.88,-247.23 528.25,-256.88 519.58,-261.91 509.65,-266.37 500.42,-270.04"/>
<polygon fill="#63b8ff" stroke="#63b8ff" points="576.41,-225.8 581.59,-216.56 571.78,-220.55 576.41,-225.8"/>
</a>
</g>
</g>
<!-- Node10 -->
<g id="Node000010" class="node">
<title>Node10</title>
<g id="a_Node000010"><a xlink:href="carrinho_2nrf24__avr_8c.html#a49aa88b1042d6d62114cfbca271d9e2b" target="_top" xlink:title=" ">
<polygon fill="white" stroke="#666666" points="356.25,-216.26 254.75,-216.26 254.75,-195.51 356.25,-195.51 356.25,-216.26"/>
<text xml:space="preserve" text-anchor="middle" x="305.5" y="-202.76" font-family="Helvetica,sans-Serif" font-size="10.00">nrf24_setChannel</text>
</a>
</g>
</g>
<!-- Node1&#45;&gt;Node10 -->
<g id="edge13_Node000001_Node000010" class="edge">
<title>Node1&#45;&gt;Node10</title>
<g id="a_edge13_Node000001_Node000010"><a xlink:title=" ">
<path fill="none" stroke="#63b8ff" d="M552.48,-205.03C500.66,-205.21 412.25,-205.52 356.73,-205.71"/>
<polygon fill="#63b8ff" stroke="#63b8ff" points="552.39,-208.53 562.37,-204.99 552.36,-201.53 552.39,-208.53"/>
</a>
</g>
</g>
<!-- Node11 -->
<g id="Node000011" class="node">
<title>Node11</title>
<g id="a_Node000011"><a xlink:href="carrinho_2nrf24__avr_8c.html#aaf2900e7932ebbf7f0ecdc6bce5840e1" target="_top" xlink:title=" ">
<polygon fill="white" stroke="#666666" points="528.25,-367.26 407.25,-367.26 407.25,-346.51 528.25,-346.51 528.25,-367.26"/>
<text xml:space="preserve" text-anchor="middle" x="467.75" y="-353.76" font-family="Helvetica,sans-Serif" font-size="10.00">nrf24_setPayloadSize</text>
</a>
</g>
</g>
<!-- Node1&#45;&gt;Node11 -->
<g id="edge16_Node000001_Node000011" class="edge">
<title>Node1&#45;&gt;Node11</title>
<g id="a_edge16_Node000001_Node000011"><a xlink:title=" ">
<path fill="none" stroke="#63b8ff" d="M588.1,-226.74C579.31,-254.85 560.42,-303.54 528.25,-332.88 522.24,-338.36 514.82,-342.67 507.29,-346.02"/>
<polygon fill="#63b8ff" stroke="#63b8ff" points="591.45,-227.78 590.92,-217.19 584.73,-225.79 591.45,-227.78"/>
</a>
</g>
</g>
<!-- Node12 -->
<g id="Node000012" class="node">
<title>Node12</title>
<g id="a_Node000012"><a xlink:href="carrinho_2nrf24__avr_8c.html#a71c5628e9583f6a6fd0871b3ae1bf6df" target="_top" xlink:title=" ">
<polygon fill="white" stroke="#666666" points="362.25,-177.26 248.75,-177.26 248.75,-156.51 362.25,-156.51 362.25,-177.26"/>
<text xml:space="preserve" text-anchor="middle" x="305.5" y="-163.76" font-family="Helvetica,sans-Serif" font-size="10.00">nrf24_startListening</text>
</a>
</g>
</g>
<!-- Node1&#45;&gt;Node12 -->
<g id="edge19_Node000001_Node000012" class="edge">
<title>Node1&#45;&gt;Node12</title>
<g id="a_edge19_Node000001_Node000012"><a xlink:title=" ">
<path fill="none" stroke="#63b8ff" d="M552.55,-199.39C502.54,-192.78 418.37,-181.66 362.63,-174.3"/>
<polygon fill="#63b8ff" stroke="#63b8ff" points="552.01,-202.85 562.39,-200.69 552.93,-195.91 552.01,-202.85"/>
</a>
</g>
</g>
<!-- Node13 -->
<g id="Node000013" class="node">
<title>Node13</title>
<g id="a_Node000013"><a xlink:href="carrinho_2nrf24__avr_8c.html#a33899bc3c0f4d2293f37c306d0b8e297" target="_top" xlink:title=" ">
<polygon fill="white" stroke="#666666" points="523.75,-62.26 411.75,-62.26 411.75,-41.51 523.75,-41.51 523.75,-62.26"/>
<text xml:space="preserve" text-anchor="middle" x="467.75" y="-48.76" font-family="Helvetica,sans-Serif" font-size="10.00">nrf24_stopListening</text>
</a>
</g>
</g>
<!-- Node1&#45;&gt;Node13 -->
<g id="edge22_Node000001_Node000013" class="edge">
<title>Node1&#45;&gt;Node13</title>
<g id="a_edge22_Node000001_Node000013"><a xlink:title=" ">
<path fill="none" stroke="#63b8ff" d="M588.28,-183.28C579.6,-155.01 560.73,-105.61 528.25,-75.88 522.25,-70.39 514.84,-66.08 507.3,-62.73"/>
<polygon fill="#63b8ff" stroke="#63b8ff" points="584.91,-184.22 591.05,-192.85 591.63,-182.27 584.91,-184.22"/>
</a>
</g>
</g>
<!-- Node14 -->
<g id="Node000014" class="node">
<title>Node14</title>
<g id="a_Node000014"><a xlink:href="carrinho_2nrf24__avr_8c.html#a8232e1982aabc6f52408c318402cb578" target="_top" xlink:title=" ">
<polygon fill="white" stroke="#666666" points="341.25,-24.26 269.75,-24.26 269.75,-3.51 341.25,-3.51 341.25,-24.26"/>
<text xml:space="preserve" text-anchor="middle" x="305.5" y="-10.76" font-family="Helvetica,sans-Serif" font-size="10.00">nrf24_write</text>
</a>
</g>
</g>
<!-- Node1&#45;&gt;Node14 -->
<g id="edge27_Node000001_Node000014" class="edge">
<title>Node1&#45;&gt;Node14</title>
<g id="a_edge27_Node000001_Node000014"><a xlink:title=" ">
<path fill="none" stroke="#63b8ff" d="M592.85,-182.98C589.38,-145.39 576.45,-69.17 528.25,-32.88 473.76,8.13 389,1.62 341.61,-6.38"/>
<polygon fill="#63b8ff" stroke="#63b8ff" points="589.34,-182.92 593.59,-192.62 596.32,-182.38 589.34,-182.92"/>
</a>
</g>
</g>
<!-- Node3 -->
<g id="Node000003" class="node">
<title>Node3</title>
<g id="a_Node000003"><a xlink:href="carrinho_8c.html#ae66f6b31b5ad750f1fe042a706a4e3d4" target="_top" xlink:title=" ">
<polygon fill="white" stroke="#666666" points="160.62,-216.26 119.88,-216.26 119.88,-195.51 160.62,-195.51 160.62,-216.26"/>
<text xml:space="preserve" text-anchor="middle" x="140.25" y="-202.76" font-family="Helvetica,sans-Serif" font-size="10.00">main</text>
</a>
</g>
</g>
<!-- Node2&#45;&gt;Node3 -->
<g id="edge2_Node000002_Node000003" class="edge">
<title>Node2&#45;&gt;Node3</title>
<g id="a_edge2_Node000002_Node000003"><a xlink:title=" ">
<path fill="none" stroke="#63b8ff" d="M282.1,-303.09C261.96,-287.3 231.37,-263.86 203.75,-244.88 189.2,-234.89 172.18,-224.34 159.57,-216.73"/>
<polygon fill="#63b8ff" stroke="#63b8ff" points="279.88,-305.79 289.9,-309.23 284.21,-300.29 279.88,-305.79"/>
</a>
</g>
</g>
<!-- Node4 -->
<g id="Node000004" class="node">
<title>Node4</title>
<g id="a_Node000004"><a xlink:href="main_8c.html#a840291bc02cba5474a4cb46a9b9566fe" target="_top" xlink:title=" ">
<polygon fill="white" stroke="#666666" points="160.62,-274.26 119.88,-274.26 119.88,-253.51 160.62,-253.51 160.62,-274.26"/>
<text xml:space="preserve" text-anchor="middle" x="140.25" y="-260.76" font-family="Helvetica,sans-Serif" font-size="10.00">main</text>
</a>
</g>
</g>
<!-- Node2&#45;&gt;Node4 -->
<g id="edge3_Node000002_Node000004" class="edge">
<title>Node2&#45;&gt;Node4</title>
<g id="a_edge3_Node000002_Node000004"><a xlink:title=" ">
<path fill="none" stroke="#63b8ff" d="M262.8,-306.32C230.09,-294.9 186.04,-279.52 160.94,-270.76"/>
<polygon fill="#63b8ff" stroke="#63b8ff" points="261.39,-309.54 271.98,-309.53 263.69,-302.93 261.39,-309.54"/>
</a>
</g>
</g>
<!-- Node5&#45;&gt;Node3 -->
<g id="edge5_Node000005_Node000003" class="edge">
<title>Node5&#45;&gt;Node3</title>
<g id="a_edge5_Node000005_Node000003"><a xlink:title=" ">
<path fill="none" stroke="#63b8ff" d="M248.13,-231.42C217.85,-224.18 182.41,-215.72 160.91,-210.58"/>
<polygon fill="#63b8ff" stroke="#63b8ff" points="247.01,-234.75 257.55,-233.67 248.64,-227.94 247.01,-234.75"/>
</a>
</g>
</g>
<!-- Node5&#45;&gt;Node4 -->
<g id="edge6_Node000005_Node000004" class="edge">
<title>Node5&#45;&gt;Node4</title>
<g id="a_edge6_Node000005_Node000004"><a xlink:title=" ">
<path fill="none" stroke="#63b8ff" d="M228.2,-253.76C203.42,-256.65 177.98,-259.61 161.07,-261.58"/>
<polygon fill="#63b8ff" stroke="#63b8ff" points="228.48,-257.25 238.01,-252.62 227.67,-250.3 228.48,-257.25"/>
</a>
</g>
</g>
<!-- Node7 -->
<g id="Node000007" class="node">
<title>Node7</title>
<g id="a_Node000007"><a xlink:href="controle_8c.html#ae66f6b31b5ad750f1fe042a706a4e3d4" target="_top" xlink:title=" ">
<polygon fill="white" stroke="#666666" points="40.75,-62.26 0,-62.26 0,-41.51 40.75,-41.51 40.75,-62.26"/>
<text xml:space="preserve" text-anchor="middle" x="20.38" y="-48.76" font-family="Helvetica,sans-Serif" font-size="10.00">main</text>
</a>
</g>
</g>
<!-- Node6&#45;&gt;Node7 -->
<g id="edge8_Node000006_Node000007" class="edge">
<title>Node6&#45;&gt;Node7</title>
<g id="a_edge8_Node000006_Node000007"><a xlink:title=" ">
<path fill="none" stroke="#63b8ff" d="M94.84,-75.57C76.24,-69.57 55.57,-62.91 40.91,-58.18"/>
<polygon fill="#63b8ff" stroke="#63b8ff" points="93.75,-78.89 104.35,-78.63 95.9,-72.23 93.75,-78.89"/>
</a>
</g>
</g>
<!-- Node8&#45;&gt;Node4 -->
<g id="edge12_Node000008_Node000004" class="edge">
<title>Node8&#45;&gt;Node4</title>
<g id="a_edge12_Node000008_Node000004"><a xlink:title=" ">
<path fill="none" stroke="#63b8ff" d="M421.79,-278.54C349.97,-274.78 212.26,-267.59 161.06,-264.92"/>
<polygon fill="#63b8ff" stroke="#63b8ff" points="421.46,-282.02 431.63,-279.05 421.83,-275.03 421.46,-282.02"/>
</a>
</g>
</g>
<!-- Node9 -->
<g id="Node000009" class="node">
<title>Node9</title>
<g id="a_Node000009"><a xlink:href="carrinho_8c.html#afe461d27b9c48d5921c00d521181f12f" target="_top" xlink:title=" ">
<polygon fill="white" stroke="#666666" points="324,-138.26 287,-138.26 287,-117.51 324,-117.51 324,-138.26"/>
<text xml:space="preserve" text-anchor="middle" x="305.5" y="-124.76" font-family="Helvetica,sans-Serif" font-size="10.00">loop</text>
</a>
</g>
</g>
<!-- Node8&#45;&gt;Node9 -->
<g id="edge10_Node000008_Node000009" class="edge">
<title>Node8&#45;&gt;Node9</title>
<g id="a_edge10_Node000008_Node000009"><a xlink:title=" ">
<path fill="none" stroke="#63b8ff" d="M457.07,-259.76C442.56,-230.39 412.39,-177.49 371.25,-147.88 357.31,-137.85 338.21,-132.76 324.37,-130.23"/>
<polygon fill="#63b8ff" stroke="#63b8ff" points="453.89,-261.22 461.36,-268.74 460.21,-258.21 453.89,-261.22"/>
</a>
</g>
</g>
<!-- Node9&#45;&gt;Node3 -->
<g id="edge11_Node000009_Node000003" class="edge">
<title>Node9&#45;&gt;Node3</title>
<g id="a_edge11_Node000009_Node000003"><a xlink:title=" ">
<path fill="none" stroke="#63b8ff" d="M275.41,-135.3C264.07,-138.6 251.09,-142.87 239.75,-147.88 209.07,-161.43 175.97,-182.37 157.02,-195.03"/>
<polygon fill="#63b8ff" stroke="#63b8ff" points="276.34,-138.68 285.05,-132.64 274.48,-131.93 276.34,-138.68"/>
</a>
</g>
</g>
<!-- Node10&#45;&gt;Node3 -->
<g id="edge14_Node000010_Node000003" class="edge">
<title>Node10&#45;&gt;Node3</title>
<g id="a_edge14_Node000010_Node000003"><a xlink:title=" ">
<path fill="none" stroke="#63b8ff" d="M243.29,-205.88C214.21,-205.88 181.44,-205.88 161.06,-205.88"/>
<polygon fill="#63b8ff" stroke="#63b8ff" points="243.12,-209.38 253.12,-205.88 243.12,-202.38 243.12,-209.38"/>
</a>
</g>
</g>
<!-- Node10&#45;&gt;Node4 -->
<g id="edge15_Node000010_Node000004" class="edge">
<title>Node10&#45;&gt;Node4</title>
<g id="a_edge15_Node000010_Node000004"><a xlink:title=" ">
<path fill="none" stroke="#63b8ff" d="M257.43,-220.01C251.46,-221.92 245.45,-223.91 239.75,-225.88 212.22,-235.43 180.89,-247.78 161.1,-255.76"/>
<polygon fill="#63b8ff" stroke="#63b8ff" points="258.13,-223.46 266.61,-217.11 256.02,-216.78 258.13,-223.46"/>
</a>
</g>
</g>
<!-- Node11&#45;&gt;Node2 -->
<g id="edge18_Node000011_Node000002" class="edge">
<title>Node11&#45;&gt;Node2</title>
<g id="a_edge18_Node000011_Node000002"><a xlink:title=" ">
<path fill="none" stroke="#63b8ff" d="M407.56,-343.59C385.85,-338.71 361.94,-333.34 342.83,-329.04"/>
<polygon fill="#63b8ff" stroke="#63b8ff" points="406.67,-346.97 417.19,-345.75 408.2,-340.14 406.67,-346.97"/>
</a>
</g>
</g>
<!-- Node11&#45;&gt;Node4 -->
<g id="edge17_Node000011_Node000004" class="edge">
<title>Node11&#45;&gt;Node4</title>
<g id="a_edge17_Node000011_Node000004"><a xlink:title=" ">
<path fill="none" stroke="#63b8ff" d="M395.53,-361.88C349.61,-362.64 289.42,-358.92 239.75,-339.88 202.24,-325.51 167.24,-291.9 150.9,-274.6"/>
<polygon fill="#63b8ff" stroke="#63b8ff" points="395.45,-365.39 405.36,-361.64 395.28,-358.39 395.45,-365.39"/>
</a>
</g>
</g>
<!-- Node12&#45;&gt;Node3 -->
<g id="edge20_Node000012_Node000003" class="edge">
<title>Node12&#45;&gt;Node3</title>
<g id="a_edge20_Node000012_Node000003"><a xlink:title=" ">
<path fill="none" stroke="#63b8ff" d="M248.13,-180.35C217.85,-187.58 182.41,-196.05 160.91,-201.19"/>
<polygon fill="#63b8ff" stroke="#63b8ff" points="248.64,-183.83 257.55,-178.1 247.01,-177.02 248.64,-183.83"/>
</a>
</g>
</g>
<!-- Node12&#45;&gt;Node4 -->
<g id="edge21_Node000012_Node000004" class="edge">
<title>Node12&#45;&gt;Node4</title>
<g id="a_edge21_Node000012_Node000004"><a xlink:title=" ">
<path fill="none" stroke="#63b8ff" d="M248.45,-182.13C245.44,-183.59 242.51,-185.17 239.75,-186.88 219.99,-199.16 221.76,-210.16 203.75,-224.88 190.38,-235.81 173.73,-246.06 160.98,-253.3"/>
<polygon fill="#63b8ff" stroke="#63b8ff" points="249.72,-185.4 257.56,-178.27 246.99,-178.95 249.72,-185.4"/>
</a>
</g>
</g>
<!-- Node13&#45;&gt;Node7 -->
<g id="edge23_Node000013_Node000007" class="edge">
<title>Node13&#45;&gt;Node7</title>
<g id="a_edge23_Node000013_Node000007"><a xlink:title=" ">
<path fill="none" stroke="#63b8ff" d="M400.46,-51.88C297.11,-51.88 102.97,-51.88 40.95,-51.88"/>
<polygon fill="#63b8ff" stroke="#63b8ff" points="400.18,-55.38 410.18,-51.88 400.18,-48.38 400.18,-55.38"/>
</a>
</g>
</g>
<!-- Node13&#45;&gt;Node14 -->
<g id="edge24_Node000013_Node000014" class="edge">
<title>Node13&#45;&gt;Node14</title>
<g id="a_edge24_Node000013_Node000014"><a xlink:title=" ">
<path fill="none" stroke="#63b8ff" d="M410.3,-38.5C387.44,-33.08 361.76,-26.99 341.66,-22.22"/>
<polygon fill="#63b8ff" stroke="#63b8ff" points="409.25,-41.84 419.78,-40.75 410.86,-35.03 409.25,-41.84"/>
</a>
</g>
</g>
<!-- Node15 -->
<g id="Node000015" class="node">
<title>Node15</title>
<g id="a_Node000015"><a xlink:href="controle_8c.html#afe461d27b9c48d5921c00d521181f12f" target="_top" xlink:title=" ">
<polygon fill="white" stroke="#666666" points="158.75,-24.26 121.75,-24.26 121.75,-3.51 158.75,-3.51 158.75,-24.26"/>
<text xml:space="preserve" text-anchor="middle" x="140.25" y="-10.76" font-family="Helvetica,sans-Serif" font-size="10.00">loop</text>
</a>
</g>
</g>
<!-- Node14&#45;&gt;Node15 -->
<g id="edge25_Node000014_Node000015" class="edge">
<title>Node14&#45;&gt;Node15</title>
<g id="a_edge25_Node000014_Node000015"><a xlink:title=" ">
<path fill="none" stroke="#63b8ff" d="M258.26,-13.88C225.27,-13.88 182.72,-13.88 159.09,-13.88"/>
<polygon fill="#63b8ff" stroke="#63b8ff" points="257.97,-17.38 267.97,-13.88 257.97,-10.38 257.97,-17.38"/>
</a>
</g>
</g>
<!-- Node15&#45;&gt;Node7 -->
<g id="edge26_Node000015_Node000007" class="edge">
<title>Node15&#45;&gt;Node7</title>
<g id="a_edge26_Node000015_Node000007"><a xlink:title=" ">
<path fill="none" stroke="#63b8ff" d="M110.54,-23.14C88.97,-30.09 60,-39.43 41.02,-45.55"/>
<polygon fill="#63b8ff" stroke="#63b8ff" points="111.46,-26.52 119.91,-20.12 109.32,-19.86 111.46,-26.52"/>
</a>
</g>
</g>
</g>
</svg>
