<?xml version="1.0" encoding="UTF-8" standalone="no"?>
<!DOCTYPE svg PUBLIC "-//W3C//DTD SVG 1.1//EN"
 "http://www.w3.org/Graphics/SVG/1.1/DTD/svg11.dtd">
<!-- Generated by graphviz version 14.0.4 (0)
 -->
<!-- Title: read_reg Pages: 1 -->
<svg width="401pt" height="183pt"
 viewBox="0.00 0.00 401.00 183.00" xmlns="http://www.w3.org/2000/svg" xmlns:xlink="http://www.w3.org/1999/xlink">
<g id="graph0" class="graph" transform="scale(1 1) rotate(0) translate(4 178.75)">
<title>read_reg</title>
<!-- Node1 -->
<g id="Node000001" class="node">
<title>Node1</title>
<g id="a_Node000001"><a xlink:title=" ">
<polygon fill="#999999" stroke="#666666" points="392.5,-78.75 333.75,-78.75 333.75,-58 392.5,-58 392.5,-78.75"/>
<text xml:space="preserve" text-anchor="middle" x="363.12" y="-65.25" font-family="Helvetica,sans-Serif" font-size="10.00">read_reg</text>
</a>
</g>
</g>
<!-- Node2 -->
<g id="Node000002" class="node">
<title>Node2</title>
<g id="a_Node000002"><a xlink:href="carrinho_2nrf24__avr_8c.html#a0f64caa74329fd5799a33f30bd8ebf82" target="_top" xlink:title=" ">
<polygon fill="white" stroke="#666666" points="286.88,-136.75 195.12,-136.75 195.12,-116 286.88,-116 286.88,-136.75"/>
<text xml:space="preserve" text-anchor="middle" x="241" y="-123.25" font-family="Helvetica,sans-Serif" font-size="10.00">nrf24_available</text>
</a>
</g>
</g>
<!-- Node1&#45;&gt;Node2 -->
<g id="edge1_Node000001_Node000002" class="edge">
<title>Node1&#45;&gt;Node2</title>
<g id="a_edge1_Node000001_Node000002"><a xlink:title=" ">
<path fill="none" stroke="#63b8ff" d="M336.47,-85.03C324.91,-92.13 310.93,-100.19 297.75,-106.38 290.68,-109.7 282.89,-112.81 275.43,-115.54"/>
<polygon fill="#63b8ff" stroke="#63b8ff" points="338.03,-88.18 344.64,-79.91 334.31,-82.25 338.03,-88.18"/>
</a>
</g>
</g>
<!-- Node6 -->
<g id="Node000006" class="node">
<title>Node6</title>
<g id="a_Node000006"><a xlink:href="carrinho_2nrf24__avr_8c.html#a71c5628e9583f6a6fd0871b3ae1bf6df" target="_top" xlink:title=" ">
<polygon fill="white" stroke="#666666" points="297.75,-97.75 184.25,-97.75 184.25,-77 297.75,-77 297.75,-97.75"/>
<text xml:space="preserve" text-anchor="middle" x="241" y="-84.25" font-family="Helvetica,sans-Serif" font-size="10.00">nrf24_startListening</text>
</a>
</g>
</g>
<!-- Node1&#45;&gt;Node6 -->
<g id="edge5_Node000001_Node000006" class="edge">
<title>Node1&#45;&gt;Node6</title>
<g id="a_edge5_Node000001_Node000006"><a xlink:title=" ">
<path fill="none" stroke="#63b8ff" d="M322.04,-74.72C314.28,-75.94 306.01,-77.25 297.85,-78.54"/>
<polygon fill="#63b8ff" stroke="#63b8ff" points="322.53,-78.18 331.86,-73.16 321.43,-71.27 322.53,-78.18"/>
</a>
</g>
</g>
<!-- Node7 -->
<g id="Node000007" class="node">
<title>Node7</title>
<g id="a_Node000007"><a xlink:href="carrinho_2nrf24__avr_8c.html#a33899bc3c0f4d2293f37c306d0b8e297" target="_top" xlink:title=" ">
<polygon fill="white" stroke="#666666" points="297,-21.75 185,-21.75 185,-1 297,-1 297,-21.75"/>
<text xml:space="preserve" text-anchor="middle" x="241" y="-8.25" font-family="Helvetica,sans-Serif" font-size="10.00">nrf24_stopListening</text>
</a>
</g>
</g>
<!-- Node1&#45;&gt;Node7 -->
<g id="edge8_Node000001_Node000007" class="edge">
<title>Node1&#45;&gt;Node7</title>
<g id="a_edge8_Node000001_Node000007"><a xlink:title=" ">
<path fill="none" stroke="#63b8ff" d="M331.88,-52.34C321.17,-46.81 309,-40.67 297.75,-35.38 288.22,-30.89 277.62,-26.24 268.26,-22.25"/>
<polygon fill="#63b8ff" stroke="#63b8ff" points="330.18,-55.4 340.66,-56.92 333.41,-49.19 330.18,-55.4"/>
</a>
</g>
</g>
<!-- Node8 -->
<g id="Node000008" class="node">
<title>Node8</title>
<g id="a_Node000008"><a xlink:href="carrinho_2nrf24__avr_8c.html#a8232e1982aabc6f52408c318402cb578" target="_top" xlink:title=" ">
<polygon fill="white" stroke="#666666" points="148.25,-59.75 76.75,-59.75 76.75,-39 148.25,-39 148.25,-59.75"/>
<text xml:space="preserve" text-anchor="middle" x="112.5" y="-46.25" font-family="Helvetica,sans-Serif" font-size="10.00">nrf24_write</text>
</a>
</g>
</g>
<!-- Node1&#45;&gt;Node8 -->
<g id="edge11_Node000001_Node000008" class="edge">
<title>Node1&#45;&gt;Node8</title>
<g id="a_edge11_Node000001_Node000008"><a xlink:title=" ">
<path fill="none" stroke="#63b8ff" d="M322.41,-65.34C274.37,-61.67 194.25,-55.55 148.45,-52.05"/>
<polygon fill="#63b8ff" stroke="#63b8ff" points="321.86,-68.81 332.1,-66.08 322.39,-61.83 321.86,-68.81"/>
</a>
</g>
</g>
<!-- Node3 -->
<g id="Node000003" class="node">
<title>Node3</title>
<g id="a_Node000003"><a xlink:href="carrinho_8c.html#afe461d27b9c48d5921c00d521181f12f" target="_top" xlink:title=" ">
<polygon fill="white" stroke="#666666" points="131,-174.75 94,-174.75 94,-154 131,-154 131,-174.75"/>
<text xml:space="preserve" text-anchor="middle" x="112.5" y="-161.25" font-family="Helvetica,sans-Serif" font-size="10.00">loop</text>
</a>
</g>
</g>
<!-- Node2&#45;&gt;Node3 -->
<g id="edge2_Node000002_Node000003" class="edge">
<title>Node2&#45;&gt;Node3</title>
<g id="a_edge2_Node000002_Node000003"><a xlink:title=" ">
<path fill="none" stroke="#63b8ff" d="M193.12,-140.46C171.56,-146.93 147.27,-154.23 131.25,-159.04"/>
<polygon fill="#63b8ff" stroke="#63b8ff" points="194.07,-143.83 202.64,-137.6 192.05,-137.12 194.07,-143.83"/>
</a>
</g>
</g>
<!-- Node5 -->
<g id="Node000005" class="node">
<title>Node5</title>
<g id="a_Node000005"><a xlink:href="main_8c.html#a840291bc02cba5474a4cb46a9b9566fe" target="_top" xlink:title=" ">
<polygon fill="white" stroke="#666666" points="132.88,-135.75 92.12,-135.75 92.12,-115 132.88,-115 132.88,-135.75"/>
<text xml:space="preserve" text-anchor="middle" x="112.5" y="-122.25" font-family="Helvetica,sans-Serif" font-size="10.00">main</text>
</a>
</g>
</g>
<!-- Node2&#45;&gt;Node5 -->
<g id="edge4_Node000002_Node000005" class="edge">
<title>Node2&#45;&gt;Node5</title>
<g id="a_edge4_Node000002_Node000005"><a xlink:title=" ">
<path fill="none" stroke="#63b8ff" d="M183.33,-125.93C165.35,-125.78 146.64,-125.64 133.12,-125.53"/>
<polygon fill="#63b8ff" stroke="#63b8ff" points="183.15,-129.43 193.17,-126 183.2,-122.43 183.15,-129.43"/>
</a>
</g>
</g>
<!-- Node4 -->
<g id="Node000004" class="node">
<title>Node4</title>
<g id="a_Node000004"><a xlink:href="carrinho_8c.html#ae66f6b31b5ad750f1fe042a706a4e3d4" target="_top" xlink:title=" ">
<polygon fill="white" stroke="#666666" points="40.75,-135.75 0,-135.75 0,-115 40.75,-115 40.75,-135.75"/>
<text xml:space="preserve" text-anchor="middle" x="20.38" y="-122.25" font-family="Helvetica,sans-Serif" font-size="10.00">main</text>
</a>
</g>
</g>
<!-- Node3&#45;&gt;Node4 -->
<g id="edge3_Node000003_Node000004" class="edge">
<title>Node3&#45;&gt;Node4</title>
<g id="a_edge3_Node000003_Node000004"><a xlink:title=" ">
<path fill="none" stroke="#63b8ff" d="M83.32,-152.18C69.59,-146.24 53.4,-139.23 41.02,-133.88"/>
<polygon fill="#63b8ff" stroke="#63b8ff" points="81.74,-155.31 92.31,-156.07 84.52,-148.89 81.74,-155.31"/>
</a>
</g>
</g>
<!-- Node6&#45;&gt;Node4 -->
<g id="edge6_Node000006_Node000004" class="edge">
<title>Node6&#45;&gt;Node4</title>
<g id="a_edge6_Node000006_Node000004"><a xlink:title=" ">
<path fill="none" stroke="#63b8ff" d="M172.87,-91.92C143.16,-94.77 107.96,-99.29 76.75,-106.38 64.66,-109.12 51.51,-113.56 41.07,-117.46"/>
<polygon fill="#63b8ff" stroke="#63b8ff" points="172.81,-95.44 182.45,-91.05 172.18,-88.47 172.81,-95.44"/>
</a>
</g>
</g>
<!-- Node6&#45;&gt;Node5 -->
<g id="edge7_Node000006_Node000005" class="edge">
<title>Node6&#45;&gt;Node5</title>
<g id="a_edge7_Node000006_Node000005"><a xlink:title=" ">
<path fill="none" stroke="#63b8ff" d="M193.25,-101.42C172.59,-107.63 149.4,-114.59 133.37,-119.4"/>
<polygon fill="#63b8ff" stroke="#63b8ff" points="194.07,-104.83 202.64,-98.6 192.05,-98.12 194.07,-104.83"/>
</a>
</g>
</g>
<!-- Node7&#45;&gt;Node8 -->
<g id="edge9_Node000007_Node000008" class="edge">
<title>Node7&#45;&gt;Node8</title>
<g id="a_edge9_Node000007_Node000008"><a xlink:title=" ">
<path fill="none" stroke="#63b8ff" d="M193.13,-25.45C178.4,-29.88 162.4,-34.69 148.63,-38.82"/>
<polygon fill="#63b8ff" stroke="#63b8ff" points="194.07,-28.83 202.64,-22.6 192.05,-22.12 194.07,-28.83"/>
</a>
</g>
</g>
<!-- Node9 -->
<g id="Node000009" class="node">
<title>Node9</title>
<g id="a_Node000009"><a xlink:href="controle_8c.html#a4fc01d736fe50cf5b977f755b675f11d" target="_top" xlink:title=" ">
<polygon fill="white" stroke="#666666" points="134,-20.75 91,-20.75 91,0 134,0 134,-20.75"/>
<text xml:space="preserve" text-anchor="middle" x="112.5" y="-7.25" font-family="Helvetica,sans-Serif" font-size="10.00">setup</text>
</a>
</g>
</g>
<!-- Node7&#45;&gt;Node9 -->
<g id="edge10_Node000007_Node000009" class="edge">
<title>Node7&#45;&gt;Node9</title>
<g id="a_edge10_Node000007_Node000009"><a xlink:title=" ">
<path fill="none" stroke="#63b8ff" d="M173.2,-10.85C159.09,-10.74 145.21,-10.63 134.39,-10.54"/>
<polygon fill="#63b8ff" stroke="#63b8ff" points="172.97,-14.35 183,-10.92 173.03,-7.35 172.97,-14.35"/>
</a>
</g>
</g>
</g>
</svg>
