<?xml version="1.0" encoding="UTF-8" standalone="no"?>
<!DOCTYPE svg PUBLIC "-//W3C//DTD SVG 1.1//EN"
 "http://www.w3.org/Graphics/SVG/1.1/DTD/svg11.dtd">
<!-- Generated by graphviz version 14.0.4 (0)
 -->
<!-- Title: write_reg Pages: 1 -->
<svg width="556pt" height="376pt"
 viewBox="0.00 0.00 556.00 376.00" xmlns="http://www.w3.org/2000/svg" xmlns:xlink="http://www.w3.org/1999/xlink">
<g id="graph0" class="graph" transform="scale(1 1) rotate(0) translate(4 372.27)">
<title>write_reg</title>
<!-- Node1 -->
<g id="Node000001" class="node">
<title>Node1</title>
<g id="a_Node000001"><a xlink:title=" ">
<polygon fill="#999999" stroke="#666666" points="548,-176.27 486.25,-176.27 486.25,-155.52 548,-155.52 548,-176.27"/>
<text xml:space="preserve" text-anchor="middle" x="517.12" y="-162.77" font-family="Helvetica,sans-Serif" font-size="10.00">write_reg</text>
</a>
</g>
</g>
<!-- Node2 -->
<g id="Node000002" class="node">
<title>Node2</title>
<g id="a_Node000002"><a xlink:href="carrinho_2nrf24__avr_8c.html#ab6fb4c1aa834152310116e7dec65d8e3" target="_top" xlink:title=" ">
<polygon fill="white" stroke="#666666" points="258.38,-137.27 184.62,-137.27 184.62,-116.52 258.38,-116.52 258.38,-137.27"/>
<text xml:space="preserve" text-anchor="middle" x="221.5" y="-123.77" font-family="Helvetica,sans-Serif" font-size="10.00">nrf24_begin</text>
</a>
</g>
</g>
<!-- Node1&#45;&gt;Node2 -->
<g id="edge1_Node000001_Node000002" class="edge">
<title>Node1&#45;&gt;Node2</title>
<g id="a_edge1_Node000001_Node000002"><a xlink:title=" ">
<path fill="none" stroke="#63b8ff" d="M475.11,-152.75C466.94,-150.5 458.38,-148.41 450.25,-146.9 383.33,-134.43 303.86,-129.69 258.69,-127.92"/>
<polygon fill="#63b8ff" stroke="#63b8ff" points="473.89,-156.04 484.46,-155.44 475.82,-149.31 473.89,-156.04"/>
</a>
</g>
</g>
<!-- Node7 -->
<g id="Node000007" class="node">
<title>Node7</title>
<g id="a_Node000007"><a xlink:href="carrinho_2nrf24__avr_8c.html#a5af2f11537aed8a56d8489355af0ff16" target="_top" xlink:title=" ">
<polygon fill="white" stroke="#666666" points="287.25,-254.27 155.75,-254.27 155.75,-233.52 287.25,-233.52 287.25,-254.27"/>
<text xml:space="preserve" text-anchor="middle" x="221.5" y="-240.77" font-family="Helvetica,sans-Serif" font-size="10.00">nrf24_openReadingPipe</text>
</a>
</g>
</g>
<!-- Node1&#45;&gt;Node7 -->
<g id="edge6_Node000001_Node000007" class="edge">
<title>Node1&#45;&gt;Node7</title>
<g id="a_edge6_Node000001_Node000007"><a xlink:title=" ">
<path fill="none" stroke="#63b8ff" d="M508.36,-187.15C498.69,-210.11 479.76,-245.45 450.25,-260.9 384.91,-295.1 294.29,-270.63 249.62,-254.69"/>
<polygon fill="#63b8ff" stroke="#63b8ff" points="511.5,-188.73 511.92,-178.15 504.99,-186.16 511.5,-188.73"/>
</a>
</g>
</g>
<!-- Node8 -->
<g id="Node000008" class="node">
<title>Node8</title>
<g id="a_Node000008"><a xlink:href="carrinho_2nrf24__avr_8c.html#a21d638882f746748de35324bdc21f448" target="_top" xlink:title=" ">
<polygon fill="white" stroke="#666666" points="450.25,-100.27 323.25,-100.27 323.25,-79.52 450.25,-79.52 450.25,-100.27"/>
<text xml:space="preserve" text-anchor="middle" x="386.75" y="-86.77" font-family="Helvetica,sans-Serif" font-size="10.00">nrf24_openWritingPipe</text>
</a>
</g>
</g>
<!-- Node1&#45;&gt;Node8 -->
<g id="edge9_Node000001_Node000008" class="edge">
<title>Node1&#45;&gt;Node8</title>
<g id="a_edge9_Node000001_Node000008"><a xlink:title=" ">
<path fill="none" stroke="#63b8ff" d="M496.49,-147.81C483.95,-136.93 466.96,-123.41 450.25,-113.9 441.26,-108.78 430.97,-104.32 421.36,-100.68"/>
<polygon fill="#63b8ff" stroke="#63b8ff" points="493.83,-150.13 503.63,-154.15 498.48,-144.89 493.83,-150.13"/>
</a>
</g>
</g>
<!-- Node9 -->
<g id="Node000009" class="node">
<title>Node9</title>
<g id="a_Node000009"><a xlink:href="carrinho_2nrf24__avr_8c.html#aa0767db791fc0b45ebadab011c1900bf" target="_top" xlink:title=" ">
<polygon fill="white" stroke="#666666" points="421,-176.27 352.5,-176.27 352.5,-155.52 421,-155.52 421,-176.27"/>
<text xml:space="preserve" text-anchor="middle" x="386.75" y="-162.77" font-family="Helvetica,sans-Serif" font-size="10.00">nrf24_read</text>
</a>
</g>
</g>
<!-- Node1&#45;&gt;Node9 -->
<g id="edge11_Node000001_Node000009" class="edge">
<title>Node1&#45;&gt;Node9</title>
<g id="a_edge11_Node000001_Node000009"><a xlink:title=" ">
<path fill="none" stroke="#63b8ff" d="M474.56,-165.9C457.31,-165.9 437.57,-165.9 421.27,-165.9"/>
<polygon fill="#63b8ff" stroke="#63b8ff" points="474.51,-169.4 484.51,-165.9 474.51,-162.4 474.51,-169.4"/>
</a>
</g>
</g>
<!-- Node11 -->
<g id="Node000011" class="node">
<title>Node11</title>
<g id="a_Node000011"><a xlink:href="carrinho_2nrf24__avr_8c.html#a49aa88b1042d6d62114cfbca271d9e2b" target="_top" xlink:title=" ">
<polygon fill="white" stroke="#666666" points="272.25,-368.27 170.75,-368.27 170.75,-347.52 272.25,-347.52 272.25,-368.27"/>
<text xml:space="preserve" text-anchor="middle" x="221.5" y="-354.77" font-family="Helvetica,sans-Serif" font-size="10.00">nrf24_setChannel</text>
</a>
</g>
</g>
<!-- Node1&#45;&gt;Node11 -->
<g id="edge15_Node000001_Node000011" class="edge">
<title>Node1&#45;&gt;Node11</title>
<g id="a_edge15_Node000001_Node000011"><a xlink:title=" ">
<path fill="none" stroke="#63b8ff" d="M509.66,-187.14C500.57,-213.52 481.53,-258.19 450.25,-283.9 398.7,-326.26 322.27,-344.59 272.41,-352.37"/>
<polygon fill="#63b8ff" stroke="#63b8ff" points="512.91,-188.47 512.68,-177.87 506.25,-186.3 512.91,-188.47"/>
</a>
</g>
</g>
<!-- Node12 -->
<g id="Node000012" class="node">
<title>Node12</title>
<g id="a_Node000012"><a xlink:href="carrinho_2nrf24__avr_8c.html#aaf2900e7932ebbf7f0ecdc6bce5840e1" target="_top" xlink:title=" ">
<polygon fill="white" stroke="#666666" points="447.25,-252.27 326.25,-252.27 326.25,-231.52 447.25,-231.52 447.25,-252.27"/>
<text xml:space="preserve" text-anchor="middle" x="386.75" y="-238.77" font-family="Helvetica,sans-Serif" font-size="10.00">nrf24_setPayloadSize</text>
</a>
</g>
</g>
<!-- Node1&#45;&gt;Node12 -->
<g id="edge18_Node000001_Node000012" class="edge">
<title>Node1&#45;&gt;Node12</title>
<g id="a_edge18_Node000001_Node000012"><a xlink:title=" ">
<path fill="none" stroke="#63b8ff" d="M496.49,-183.99C483.95,-194.86 466.96,-208.39 450.25,-217.9 441.26,-223.02 430.97,-227.48 421.36,-231.12"/>
<polygon fill="#63b8ff" stroke="#63b8ff" points="498.48,-186.9 503.63,-177.64 493.83,-181.67 498.48,-186.9"/>
</a>
</g>
</g>
<!-- Node13 -->
<g id="Node000013" class="node">
<title>Node13</title>
<g id="a_Node000013"><a xlink:href="carrinho_2nrf24__avr_8c.html#a71c5628e9583f6a6fd0871b3ae1bf6df" target="_top" xlink:title=" ">
<polygon fill="white" stroke="#666666" points="278.25,-215.27 164.75,-215.27 164.75,-194.52 278.25,-194.52 278.25,-215.27"/>
<text xml:space="preserve" text-anchor="middle" x="221.5" y="-201.77" font-family="Helvetica,sans-Serif" font-size="10.00">nrf24_startListening</text>
</a>
</g>
</g>
<!-- Node1&#45;&gt;Node13 -->
<g id="edge21_Node000001_Node000013" class="edge">
<title>Node1&#45;&gt;Node13</title>
<g id="a_edge21_Node000001_Node000013"><a xlink:title=" ">
<path fill="none" stroke="#63b8ff" d="M475.11,-179.05C466.94,-181.29 458.38,-183.38 450.25,-184.9 392.3,-195.69 324.95,-200.69 278.6,-202.99"/>
<polygon fill="#63b8ff" stroke="#63b8ff" points="475.82,-182.49 484.46,-176.36 473.89,-175.76 475.82,-182.49"/>
</a>
</g>
</g>
<!-- Node14 -->
<g id="Node000014" class="node">
<title>Node14</title>
<g id="a_Node000014"><a xlink:href="carrinho_2nrf24__avr_8c.html#a33899bc3c0f4d2293f37c306d0b8e297" target="_top" xlink:title=" ">
<polygon fill="white" stroke="#666666" points="442.75,-61.27 330.75,-61.27 330.75,-40.52 442.75,-40.52 442.75,-61.27"/>
<text xml:space="preserve" text-anchor="middle" x="386.75" y="-47.77" font-family="Helvetica,sans-Serif" font-size="10.00">nrf24_stopListening</text>
</a>
</g>
</g>
<!-- Node1&#45;&gt;Node14 -->
<g id="edge24_Node000001_Node000014" class="edge">
<title>Node1&#45;&gt;Node14</title>
<g id="a_edge24_Node000001_Node000014"><a xlink:title=" ">
<path fill="none" stroke="#63b8ff" d="M506.55,-144.66C495.8,-123.11 476.37,-90.23 450.25,-70.9 445.3,-67.24 439.66,-64.23 433.84,-61.77"/>
<polygon fill="#63b8ff" stroke="#63b8ff" points="503.39,-146.16 510.85,-153.68 509.71,-143.15 503.39,-146.16"/>
</a>
</g>
</g>
<!-- Node15 -->
<g id="Node000015" class="node">
<title>Node15</title>
<g id="a_Node000015"><a xlink:href="carrinho_2nrf24__avr_8c.html#a8232e1982aabc6f52408c318402cb578" target="_top" xlink:title=" ">
<polygon fill="white" stroke="#666666" points="257.25,-23.27 185.75,-23.27 185.75,-2.52 257.25,-2.52 257.25,-23.27"/>
<text xml:space="preserve" text-anchor="middle" x="221.5" y="-9.77" font-family="Helvetica,sans-Serif" font-size="10.00">nrf24_write</text>
</a>
</g>
</g>
<!-- Node1&#45;&gt;Node15 -->
<g id="edge29_Node000001_Node000015" class="edge">
<title>Node1&#45;&gt;Node15</title>
<g id="a_edge29_Node000001_Node000015"><a xlink:title=" ">
<path fill="none" stroke="#63b8ff" d="M512.27,-144.07C505.57,-113.32 488.65,-58.09 450.25,-31.9 392.23,7.67 305.57,1.61 257.6,-5.9"/>
<polygon fill="#63b8ff" stroke="#63b8ff" points="508.81,-144.63 514.19,-153.76 515.68,-143.27 508.81,-144.63"/>
</a>
</g>
</g>
<!-- Node3 -->
<g id="Node000003" class="node">
<title>Node3</title>
<g id="a_Node000003"><a xlink:href="carrinho_8c.html#ae66f6b31b5ad750f1fe042a706a4e3d4" target="_top" xlink:title="Função principal: inicializa periféricos e roda loop().">
<polygon fill="white" stroke="#666666" points="118.62,-215.27 77.88,-215.27 77.88,-194.52 118.62,-194.52 118.62,-215.27"/>
<text xml:space="preserve" text-anchor="middle" x="98.25" y="-201.77" font-family="Helvetica,sans-Serif" font-size="10.00">main</text>
</a>
</g>
</g>
<!-- Node2&#45;&gt;Node3 -->
<g id="edge2_Node000002_Node000003" class="edge">
<title>Node2&#45;&gt;Node3</title>
<g id="a_edge2_Node000002_Node000003"><a xlink:title=" ">
<path fill="none" stroke="#63b8ff" d="M173.67,-138.27C167.43,-140.66 161.28,-143.52 155.75,-146.9 135.12,-159.52 116.71,-181.36 106.85,-194.34"/>
<polygon fill="#63b8ff" stroke="#63b8ff" points="174.43,-141.71 182.75,-135.15 172.15,-135.09 174.43,-141.71"/>
</a>
</g>
</g>
<!-- Node4 -->
<g id="Node000004" class="node">
<title>Node4</title>
<g id="a_Node000004"><a xlink:href="main_8c.html#a840291bc02cba5474a4cb46a9b9566fe" target="_top" xlink:title=" ">
<polygon fill="white" stroke="#666666" points="118.62,-273.27 77.88,-273.27 77.88,-252.52 118.62,-252.52 118.62,-273.27"/>
<text xml:space="preserve" text-anchor="middle" x="98.25" y="-259.77" font-family="Helvetica,sans-Serif" font-size="10.00">main</text>
</a>
</g>
</g>
<!-- Node2&#45;&gt;Node4 -->
<g id="edge3_Node000002_Node000004" class="edge">
<title>Node2&#45;&gt;Node4</title>
<g id="a_edge3_Node000002_Node000004"><a xlink:title=" ">
<path fill="none" stroke="#63b8ff" d="M173.8,-136.09C167.26,-138.81 160.99,-142.33 155.75,-146.9 127.26,-171.71 136.54,-190.06 119.75,-223.9 114.99,-233.49 109.3,-244.26 105.13,-252.04"/>
<polygon fill="#63b8ff" stroke="#63b8ff" points="174.5,-139.56 182.78,-132.95 172.18,-132.95 174.5,-139.56"/>
</a>
</g>
</g>
<!-- Node5 -->
<g id="Node000005" class="node">
<title>Node5</title>
<g id="a_Node000005"><a xlink:href="controle_8c.html#a4fc01d736fe50cf5b977f755b675f11d" target="_top" xlink:title="Inicializações principais (ADC, PWM, entradas e rádio).">
<polygon fill="white" stroke="#666666" points="119.75,-90.27 76.75,-90.27 76.75,-69.52 119.75,-69.52 119.75,-90.27"/>
<text xml:space="preserve" text-anchor="middle" x="98.25" y="-76.77" font-family="Helvetica,sans-Serif" font-size="10.00">setup</text>
</a>
</g>
</g>
<!-- Node2&#45;&gt;Node5 -->
<g id="edge4_Node000002_Node000005" class="edge">
<title>Node2&#45;&gt;Node5</title>
<g id="a_edge4_Node000002_Node000005"><a xlink:title=" ">
<path fill="none" stroke="#63b8ff" d="M180.06,-112.13C171.99,-109.12 163.59,-105.94 155.75,-102.9 143.9,-98.29 130.75,-92.95 120.12,-88.58"/>
<polygon fill="#63b8ff" stroke="#63b8ff" points="178.76,-115.38 189.35,-115.58 181.19,-108.82 178.76,-115.38"/>
</a>
</g>
</g>
<!-- Node6 -->
<g id="Node000006" class="node">
<title>Node6</title>
<g id="a_Node000006"><a xlink:href="controle_8c.html#ae66f6b31b5ad750f1fe042a706a4e3d4" target="_top" xlink:title="Função principal do firmware.">
<polygon fill="white" stroke="#666666" points="40.75,-52.27 0,-52.27 0,-31.52 40.75,-31.52 40.75,-52.27"/>
<text xml:space="preserve" text-anchor="middle" x="20.38" y="-38.77" font-family="Helvetica,sans-Serif" font-size="10.00">main</text>
</a>
</g>
</g>
<!-- Node5&#45;&gt;Node6 -->
<g id="edge5_Node000005_Node000006" class="edge">
<title>Node5&#45;&gt;Node6</title>
<g id="a_edge5_Node000005_Node000006"><a xlink:title=" ">
<path fill="none" stroke="#63b8ff" d="M66.43,-64.46C57.86,-60.17 48.78,-55.62 41.04,-51.75"/>
<polygon fill="#63b8ff" stroke="#63b8ff" points="64.65,-67.49 75.16,-68.84 67.79,-61.23 64.65,-67.49"/>
</a>
</g>
</g>
<!-- Node7&#45;&gt;Node3 -->
<g id="edge7_Node000007_Node000003" class="edge">
<title>Node7&#45;&gt;Node3</title>
<g id="a_edge7_Node000007_Node000003"><a xlink:title=" ">
<path fill="none" stroke="#63b8ff" d="M173.95,-229.67C167.82,-227.75 161.63,-225.79 155.75,-223.9 143.54,-219.96 129.9,-215.38 119.08,-211.7"/>
<polygon fill="#63b8ff" stroke="#63b8ff" points="172.79,-232.98 183.38,-232.6 174.87,-226.29 172.79,-232.98"/>
</a>
</g>
</g>
<!-- Node7&#45;&gt;Node4 -->
<g id="edge8_Node000007_Node000004" class="edge">
<title>Node7&#45;&gt;Node4</title>
<g id="a_edge8_Node000007_Node000004"><a xlink:title=" ">
<path fill="none" stroke="#63b8ff" d="M143.92,-255.9C134.79,-257.33 126.18,-258.68 119,-259.8"/>
<polygon fill="#63b8ff" stroke="#63b8ff" points="144.43,-259.36 153.77,-254.36 143.34,-252.45 144.43,-259.36"/>
</a>
</g>
</g>
<!-- Node8&#45;&gt;Node5 -->
<g id="edge10_Node000008_Node000005" class="edge">
<title>Node8&#45;&gt;Node5</title>
<g id="a_edge10_Node000008_Node000005"><a xlink:title=" ">
<path fill="none" stroke="#63b8ff" d="M311.64,-87.31C247.72,-85.08 159.64,-82.01 120.02,-80.62"/>
<polygon fill="#63b8ff" stroke="#63b8ff" points="311.25,-90.8 321.36,-87.65 311.49,-83.8 311.25,-90.8"/>
</a>
</g>
</g>
<!-- Node9&#45;&gt;Node4 -->
<g id="edge14_Node000009_Node000004" class="edge">
<title>Node9&#45;&gt;Node4</title>
<g id="a_edge14_Node000009_Node000004"><a xlink:title=" ">
<path fill="none" stroke="#63b8ff" d="M365.11,-183.8C352.7,-194.79 336.74,-209.32 323.25,-222.9 306.39,-239.87 309.1,-253.17 287.25,-262.9 230.6,-288.13 154.48,-275.91 119,-267.93"/>
<polygon fill="#63b8ff" stroke="#63b8ff" points="367.1,-186.71 372.3,-177.48 362.48,-181.45 367.1,-186.71"/>
</a>
</g>
</g>
<!-- Node10 -->
<g id="Node000010" class="node">
<title>Node10</title>
<g id="a_Node000010"><a xlink:href="carrinho_8c.html#afe461d27b9c48d5921c00d521181f12f" target="_top" xlink:title="Laço principal contendo toda a lógica do robô.">
<polygon fill="white" stroke="#666666" points="240,-176.27 203,-176.27 203,-155.52 240,-155.52 240,-176.27"/>
<text xml:space="preserve" text-anchor="middle" x="221.5" y="-162.77" font-family="Helvetica,sans-Serif" font-size="10.00">loop</text>
</a>
</g>
</g>
<!-- Node9&#45;&gt;Node10 -->
<g id="edge12_Node000009_Node000010" class="edge">
<title>Node9&#45;&gt;Node10</title>
<g id="a_edge12_Node000009_Node000010"><a xlink:title=" ">
<path fill="none" stroke="#63b8ff" d="M341.05,-165.9C307.82,-165.9 264.25,-165.9 240.26,-165.9"/>
<polygon fill="#63b8ff" stroke="#63b8ff" points="340.81,-169.4 350.81,-165.9 340.81,-162.4 340.81,-169.4"/>
</a>
</g>
</g>
<!-- Node10&#45;&gt;Node3 -->
<g id="edge13_Node000010_Node000003" class="edge">
<title>Node10&#45;&gt;Node3</title>
<g id="a_edge13_Node000010_Node000003"><a xlink:title=" ">
<path fill="none" stroke="#63b8ff" d="M191.65,-174.64C180.43,-178.09 167.47,-182.12 155.75,-185.9 143.54,-189.84 129.9,-194.42 119.08,-198.09"/>
<polygon fill="#63b8ff" stroke="#63b8ff" points="192.61,-178.01 201.15,-171.74 190.56,-171.31 192.61,-178.01"/>
</a>
</g>
</g>
<!-- Node11&#45;&gt;Node3 -->
<g id="edge16_Node000011_Node000003" class="edge">
<title>Node11&#45;&gt;Node3</title>
<g id="a_edge16_Node000011_Node000003"><a xlink:title=" ">
<path fill="none" stroke="#63b8ff" d="M205.33,-338.76C179.51,-306.18 127.86,-241 107.64,-215.49"/>
<polygon fill="#63b8ff" stroke="#63b8ff" points="202.27,-340.53 211.23,-346.2 207.76,-336.18 202.27,-340.53"/>
</a>
</g>
</g>
<!-- Node11&#45;&gt;Node4 -->
<g id="edge17_Node000011_Node000004" class="edge">
<title>Node11&#45;&gt;Node4</title>
<g id="a_edge17_Node000011_Node000004"><a xlink:title=" ">
<path fill="none" stroke="#63b8ff" d="M170.6,-342.62C165.37,-340.09 160.31,-337.2 155.75,-333.9 132.78,-317.27 114.18,-288.92 105.16,-273.56"/>
<polygon fill="#63b8ff" stroke="#63b8ff" points="168.81,-345.66 179.38,-346.44 171.6,-339.25 168.81,-345.66"/>
</a>
</g>
</g>
<!-- Node12&#45;&gt;Node2 -->
<g id="edge20_Node000012_Node000002" class="edge">
<title>Node12&#45;&gt;Node2</title>
<g id="a_edge20_Node000012_Node000002"><a xlink:title=" ">
<path fill="none" stroke="#63b8ff" d="M365.24,-223.87C352.87,-212.84 336.91,-198.31 323.25,-184.9 306.64,-168.6 307.01,-159.18 287.25,-146.9 278.66,-141.56 268.53,-137.55 258.87,-134.58"/>
<polygon fill="#63b8ff" stroke="#63b8ff" points="362.59,-226.2 372.39,-230.22 367.24,-220.97 362.59,-226.2"/>
</a>
</g>
</g>
<!-- Node12&#45;&gt;Node4 -->
<g id="edge19_Node000012_Node000004" class="edge">
<title>Node12&#45;&gt;Node4</title>
<g id="a_edge19_Node000012_Node000004"><a xlink:title=" ">
<path fill="none" stroke="#63b8ff" d="M362.35,-259.16C343.24,-272.12 314.95,-288.8 287.25,-295.9 230.63,-310.4 212.16,-311.17 155.75,-295.9 139.74,-291.57 123.62,-281.44 112.71,-273.54"/>
<polygon fill="#63b8ff" stroke="#63b8ff" points="364.28,-262.08 370.47,-253.47 360.27,-256.34 364.28,-262.08"/>
</a>
</g>
</g>
<!-- Node13&#45;&gt;Node3 -->
<g id="edge22_Node000013_Node000003" class="edge">
<title>Node13&#45;&gt;Node3</title>
<g id="a_edge22_Node000013_Node000003"><a xlink:title=" ">
<path fill="none" stroke="#63b8ff" d="M153.05,-204.9C140.64,-204.9 128.62,-204.9 119.09,-204.9"/>
<polygon fill="#63b8ff" stroke="#63b8ff" points="152.98,-208.4 162.98,-204.9 152.98,-201.4 152.98,-208.4"/>
</a>
</g>
</g>
<!-- Node13&#45;&gt;Node4 -->
<g id="edge23_Node000013_Node000004" class="edge">
<title>Node13&#45;&gt;Node4</title>
<g id="a_edge23_Node000013_Node000004"><a xlink:title=" ">
<path fill="none" stroke="#63b8ff" d="M168.29,-219.55C163.99,-221.2 159.76,-222.98 155.75,-224.9 139.96,-232.44 123.55,-243.96 112.5,-252.34"/>
<polygon fill="#63b8ff" stroke="#63b8ff" points="169.38,-222.88 177.62,-216.23 167.03,-216.28 169.38,-222.88"/>
</a>
</g>
</g>
<!-- Node14&#45;&gt;Node5 -->
<g id="edge28_Node000014_Node000005" class="edge">
<title>Node14&#45;&gt;Node5</title>
<g id="a_edge28_Node000014_Node000005"><a xlink:title=" ">
<path fill="none" stroke="#63b8ff" d="M319.27,-57.63C255.03,-64.13 161.55,-73.59 120.23,-77.77"/>
<polygon fill="#63b8ff" stroke="#63b8ff" points="319.41,-61.13 329,-56.64 318.7,-54.17 319.41,-61.13"/>
</a>
</g>
</g>
<!-- Node14&#45;&gt;Node15 -->
<g id="edge25_Node000014_Node000015" class="edge">
<title>Node14&#45;&gt;Node15</title>
<g id="a_edge25_Node000014_Node000015"><a xlink:title=" ">
<path fill="none" stroke="#63b8ff" d="M328.44,-37.56C304.81,-32.06 278.18,-25.86 257.53,-21.05"/>
<polygon fill="#63b8ff" stroke="#63b8ff" points="327.4,-40.91 337.93,-39.77 328.99,-34.09 327.4,-40.91"/>
</a>
</g>
</g>
<!-- Node16 -->
<g id="Node000016" class="node">
<title>Node16</title>
<g id="a_Node000016"><a xlink:href="controle_8c.html#afe461d27b9c48d5921c00d521181f12f" target="_top" xlink:title="Loop principal: lê controles, aplica deadzone, envia por RF e atualiza LEDs.">
<polygon fill="white" stroke="#666666" points="116.75,-33.27 79.75,-33.27 79.75,-12.52 116.75,-12.52 116.75,-33.27"/>
<text xml:space="preserve" text-anchor="middle" x="98.25" y="-19.77" font-family="Helvetica,sans-Serif" font-size="10.00">loop</text>
</a>
</g>
</g>
<!-- Node15&#45;&gt;Node16 -->
<g id="edge26_Node000015_Node000016" class="edge">
<title>Node15&#45;&gt;Node16</title>
<g id="a_edge26_Node000015_Node000016"><a xlink:title=" ">
<path fill="none" stroke="#63b8ff" d="M174.02,-16.73C154.11,-18.37 132.04,-20.19 117.08,-21.43"/>
<polygon fill="#63b8ff" stroke="#63b8ff" points="174.24,-20.23 183.92,-15.92 173.67,-13.25 174.24,-20.23"/>
</a>
</g>
</g>
<!-- Node16&#45;&gt;Node6 -->
<g id="edge27_Node000016_Node000006" class="edge">
<title>Node16&#45;&gt;Node6</title>
<g id="a_edge27_Node000016_Node000006"><a xlink:title=" ">
<path fill="none" stroke="#63b8ff" d="M68.31,-30.14C59.22,-32.42 49.39,-34.88 41.09,-36.96"/>
<polygon fill="#63b8ff" stroke="#63b8ff" points="68.95,-33.59 77.8,-27.77 67.25,-26.8 68.95,-33.59"/>
</a>
</g>
</g>
</g>
</svg>
