<?xml version="1.0" encoding="UTF-8" standalone="no"?>
<!DOCTYPE svg PUBLIC "-//W3C//DTD SVG 1.1//EN"
 "http://www.w3.org/Graphics/SVG/1.1/DTD/svg11.dtd">
<!-- Generated by graphviz version 14.0.4 (0)
 -->
<!-- Title: radio Pages: 1 -->
<svg width="128pt" height="68pt"
 viewBox="0.00 0.00 128.00 68.00" xmlns="http://www.w3.org/2000/svg" xmlns:xlink="http://www.w3.org/1999/xlink">
<g id="graph0" class="graph" transform="scale(1 1) rotate(0) translate(4 63.75)">
<title>radio</title>
<!-- Node1 -->
<g id="Node000001" class="node">
<title>Node1</title>
<g id="a_Node000001"><a xlink:title=" ">
<polygon fill="#999999" stroke="#666666" points="119.75,-39.75 79,-39.75 79,-19 119.75,-19 119.75,-39.75"/>
<text xml:space="preserve" text-anchor="middle" x="99.38" y="-26.25" font-family="Helvetica,sans-Serif" font-size="10.00">radio</text>
</a>
</g>
</g>
<!-- Node2 -->
<g id="Node000002" class="node">
<title>Node2</title>
<g id="a_Node000002"><a xlink:href="carrinho__ino_8ino.html#afe461d27b9c48d5921c00d521181f12f" target="_top" xlink:title=" ">
<polygon fill="white" stroke="#666666" points="40,-59.75 3,-59.75 3,-39 40,-39 40,-59.75"/>
<text xml:space="preserve" text-anchor="middle" x="21.5" y="-46.25" font-family="Helvetica,sans-Serif" font-size="10.00">loop</text>
</a>
</g>
</g>
<!-- Node1&#45;&gt;Node2 -->
<g id="edge1_Node000001_Node000002" class="edge">
<title>Node1&#45;&gt;Node2</title>
<g id="a_edge1_Node000001_Node000002"><a xlink:title=" ">
<path fill="none" stroke="#63b8ff" d="M67.92,-37.4C58.59,-39.86 48.62,-42.49 40.41,-44.65"/>
<polygon fill="#63b8ff" stroke="#63b8ff" points="68.59,-40.84 77.37,-34.91 66.81,-34.08 68.59,-40.84"/>
</a>
</g>
</g>
<!-- Node3 -->
<g id="Node000003" class="node">
<title>Node3</title>
<g id="a_Node000003"><a xlink:href="carrinho__ino_8ino.html#a4fc01d736fe50cf5b977f755b675f11d" target="_top" xlink:title=" ">
<polygon fill="white" stroke="#666666" points="43,-20.75 0,-20.75 0,0 43,0 43,-20.75"/>
<text xml:space="preserve" text-anchor="middle" x="21.5" y="-7.25" font-family="Helvetica,sans-Serif" font-size="10.00">setup</text>
</a>
</g>
</g>
<!-- Node1&#45;&gt;Node3 -->
<g id="edge2_Node000001_Node000003" class="edge">
<title>Node1&#45;&gt;Node3</title>
<g id="a_edge2_Node000001_Node000003"><a xlink:title=" ">
<path fill="none" stroke="#63b8ff" d="M67.72,-21.7C59.51,-19.64 50.84,-17.47 43.3,-15.58"/>
<polygon fill="#63b8ff" stroke="#63b8ff" points="66.82,-25.08 77.37,-24.11 68.52,-18.29 66.82,-25.08"/>
</a>
</g>
</g>
</g>
</svg>
