<?xml version="1.0" encoding="UTF-8" standalone="no"?>
<!DOCTYPE svg PUBLIC "-//W3C//DTD SVG 1.1//EN"
 "http://www.w3.org/Graphics/SVG/1.1/DTD/svg11.dtd">
<!-- Generated by graphviz version 14.0.4 (0)
 -->
<!-- Title: analog_write Pages: 1 -->
<svg width="383pt" height="86pt"
 viewBox="0.00 0.00 383.00 86.00" xmlns="http://www.w3.org/2000/svg" xmlns:xlink="http://www.w3.org/1999/xlink">
<g id="graph0" class="graph" transform="scale(1 1) rotate(0) translate(4 81.75)">
<title>analog_write</title>
<!-- Node1 -->
<g id="Node000001" class="node">
<title>Node1</title>
<g id="a_Node000001"><a xlink:title="Define o duty de um PWM em uma das saídas configuradas.">
<polygon fill="#999999" stroke="#666666" points="374.8,-39.75 295.8,-39.75 295.8,-19 374.8,-19 374.8,-39.75"/>
<text xml:space="preserve" text-anchor="middle" x="335.3" y="-26.25" font-family="Helvetica,sans-Serif" font-size="10.00">analog_write</text>
</a>
</g>
</g>
<!-- Node2 -->
<g id="Node000002" class="node">
<title>Node2</title>
<g id="a_Node000002"><a xlink:href="carrinho_8c.html#a83f9abde8522ce95dd4c5ce5ba3d9d39" target="_top" xlink:title="Controla um motor no sentido desejado e com PWM.">
<polygon fill="white" stroke="#666666" points="259.8,-39.75 214.55,-39.75 214.55,-19 259.8,-19 259.8,-39.75"/>
<text xml:space="preserve" text-anchor="middle" x="237.18" y="-26.25" font-family="Helvetica,sans-Serif" font-size="10.00">motor</text>
</a>
</g>
</g>
<!-- Node1&#45;&gt;Node2 -->
<g id="edge1_Node000001_Node000002" class="edge">
<title>Node1&#45;&gt;Node2</title>
<g id="a_edge1_Node000001_Node000002"><a xlink:title=" ">
<path fill="none" stroke="#63b8ff" d="M284.11,-29.38C275.74,-29.38 267.45,-29.38 260.27,-29.38"/>
<polygon fill="#63b8ff" stroke="#63b8ff" points="283.97,-32.88 293.97,-29.38 283.97,-25.88 283.97,-32.88"/>
</a>
</g>
</g>
<!-- Node3 -->
<g id="Node000003" class="node">
<title>Node3</title>
<g id="a_Node000003"><a xlink:href="carrinho_8c.html#ae85c96d8ab4fe9d1b125421eaaef40e2" target="_top" xlink:title="Reduz a vida e executa a penalidade de dano.">
<polygon fill="white" stroke="#666666" points="178.55,-77.75 149.75,-77.75 149.75,-57 178.55,-57 178.55,-77.75"/>
<text xml:space="preserve" text-anchor="middle" x="164.15" y="-64.25" font-family="Helvetica,sans-Serif" font-size="10.00">hit</text>
</a>
</g>
</g>
<!-- Node2&#45;&gt;Node3 -->
<g id="edge2_Node000002_Node000003" class="edge">
<title>Node2&#45;&gt;Node3</title>
<g id="a_edge2_Node000002_Node000003"><a xlink:title=" ">
<path fill="none" stroke="#63b8ff" d="M205.99,-45.52C196.45,-50.63 186.37,-56.02 178.62,-60.17"/>
<polygon fill="#63b8ff" stroke="#63b8ff" points="207.51,-48.68 214.68,-40.88 204.21,-42.51 207.51,-48.68"/>
</a>
</g>
</g>
<!-- Node4 -->
<g id="Node000004" class="node">
<title>Node4</title>
<g id="a_Node000004"><a xlink:href="carrinho_8c.html#afe461d27b9c48d5921c00d521181f12f" target="_top" xlink:title="Laço principal contendo toda a lógica do robô.">
<polygon fill="white" stroke="#666666" points="113.75,-39.75 76.75,-39.75 76.75,-19 113.75,-19 113.75,-39.75"/>
<text xml:space="preserve" text-anchor="middle" x="95.25" y="-26.25" font-family="Helvetica,sans-Serif" font-size="10.00">loop</text>
</a>
</g>
</g>
<!-- Node2&#45;&gt;Node4 -->
<g id="edge5_Node000002_Node000004" class="edge">
<title>Node2&#45;&gt;Node4</title>
<g id="a_edge5_Node000002_Node000004"><a xlink:title=" ">
<path fill="none" stroke="#63b8ff" d="M203.1,-29.38C175.2,-29.38 136.32,-29.38 113.97,-29.38"/>
<polygon fill="#63b8ff" stroke="#63b8ff" points="202.8,-32.88 212.8,-29.38 202.8,-25.88 202.8,-32.88"/>
</a>
</g>
</g>
<!-- Node5 -->
<g id="Node000005" class="node">
<title>Node5</title>
<g id="a_Node000005"><a xlink:href="carrinho_8c.html#ae66f6b31b5ad750f1fe042a706a4e3d4" target="_top" xlink:title="Função principal: inicializa periféricos e roda loop().">
<polygon fill="white" stroke="#666666" points="40.75,-20.75 0,-20.75 0,0 40.75,0 40.75,-20.75"/>
<text xml:space="preserve" text-anchor="middle" x="20.38" y="-7.25" font-family="Helvetica,sans-Serif" font-size="10.00">main</text>
</a>
</g>
</g>
<!-- Node2&#45;&gt;Node5 -->
<g id="edge6_Node000002_Node000005" class="edge">
<title>Node2&#45;&gt;Node5</title>
<g id="a_edge6_Node000002_Node000005"><a xlink:title=" ">
<path fill="none" stroke="#63b8ff" d="M202.98,-22.81C178.44,-18.3 144.16,-12.72 113.75,-10.38 88.81,-8.45 59.96,-8.87 41.23,-9.49"/>
<polygon fill="#63b8ff" stroke="#63b8ff" points="202.22,-26.22 212.69,-24.63 203.51,-19.34 202.22,-26.22"/>
</a>
</g>
</g>
<!-- Node3&#45;&gt;Node4 -->
<g id="edge3_Node000003_Node000004" class="edge">
<title>Node3&#45;&gt;Node4</title>
<g id="a_edge3_Node000003_Node000004"><a xlink:title=" ">
<path fill="none" stroke="#63b8ff" d="M139.33,-53.84C130.95,-49.09 121.7,-43.83 113.92,-39.41"/>
<polygon fill="#63b8ff" stroke="#63b8ff" points="137.55,-56.86 147.97,-58.75 141.01,-50.77 137.55,-56.86"/>
</a>
</g>
</g>
<!-- Node4&#45;&gt;Node5 -->
<g id="edge4_Node000004_Node000005" class="edge">
<title>Node4&#45;&gt;Node5</title>
<g id="a_edge4_Node000004_Node000005"><a xlink:title=" ">
<path fill="none" stroke="#63b8ff" d="M65.59,-21.9C57.42,-19.77 48.69,-17.5 41.17,-15.53"/>
<polygon fill="#63b8ff" stroke="#63b8ff" points="64.58,-25.26 75.14,-24.39 66.35,-18.48 64.58,-25.26"/>
</a>
</g>
</g>
</g>
</svg>
