<?xml version="1.0" encoding="UTF-8" standalone="no"?>
<!DOCTYPE svg PUBLIC "-//W3C//DTD SVG 1.1//EN"
 "http://www.w3.org/Graphics/SVG/1.1/DTD/svg11.dtd">
<!-- Generated by graphviz version 14.0.4 (0)
 -->
<!-- Title: motor Pages: 1 -->
<svg width="294pt" height="105pt"
 viewBox="0.00 0.00 294.00 105.00" xmlns="http://www.w3.org/2000/svg" xmlns:xlink="http://www.w3.org/1999/xlink">
<g id="graph0" class="graph" transform="scale(1 1) rotate(0) translate(4 100.75)">
<title>motor</title>
<!-- Node1 -->
<g id="Node000001" class="node">
<title>Node1</title>
<g id="a_Node000001"><a xlink:title=" ">
<polygon fill="#999999" stroke="#666666" points="286.05,-58.75 240.8,-58.75 240.8,-38 286.05,-38 286.05,-58.75"/>
<text xml:space="preserve" text-anchor="middle" x="263.43" y="-45.25" font-family="Helvetica,sans-Serif" font-size="10.00">motor</text>
</a>
</g>
</g>
<!-- Node2 -->
<g id="Node000002" class="node">
<title>Node2</title>
<g id="a_Node000002"><a xlink:href="carrinho__ino_8ino.html#a026d019671eda0cfe729200fc24d23ba" target="_top" xlink:title=" ">
<polygon fill="white" stroke="#666666" points="204.8,-96.75 137.8,-96.75 137.8,-76 204.8,-76 204.8,-96.75"/>
<text xml:space="preserve" text-anchor="middle" x="171.3" y="-83.25" font-family="Helvetica,sans-Serif" font-size="10.00">gameOver</text>
</a>
</g>
</g>
<!-- Node1&#45;&gt;Node2 -->
<g id="edge1_Node000001_Node000002" class="edge">
<title>Node1&#45;&gt;Node2</title>
<g id="a_edge1_Node000001_Node000002"><a xlink:title=" ">
<path fill="none" stroke="#63b8ff" d="M230.12,-62C219.59,-66.44 208.06,-71.3 198.08,-75.51"/>
<polygon fill="#63b8ff" stroke="#63b8ff" points="231.36,-65.27 239.21,-58.16 228.64,-58.82 231.36,-65.27"/>
</a>
</g>
</g>
<!-- Node4 -->
<g id="Node000004" class="node">
<title>Node4</title>
<g id="a_Node000004"><a xlink:href="carrinho__ino_8ino.html#afe461d27b9c48d5921c00d521181f12f" target="_top" xlink:title=" ">
<polygon fill="white" stroke="#666666" points="37,-77.75 0,-77.75 0,-57 37,-57 37,-77.75"/>
<text xml:space="preserve" text-anchor="middle" x="18.5" y="-64.25" font-family="Helvetica,sans-Serif" font-size="10.00">loop</text>
</a>
</g>
</g>
<!-- Node1&#45;&gt;Node4 -->
<g id="edge4_Node000001_Node000004" class="edge">
<title>Node1&#45;&gt;Node4</title>
<g id="a_edge4_Node000001_Node000004"><a xlink:title=" ">
<path fill="none" stroke="#63b8ff" d="M229.15,-50.98C176.96,-55.06 77.64,-62.83 37.25,-65.99"/>
<polygon fill="#63b8ff" stroke="#63b8ff" points="229.23,-54.48 238.93,-50.21 228.69,-47.5 229.23,-54.48"/>
</a>
</g>
</g>
<!-- Node5 -->
<g id="Node000005" class="node">
<title>Node5</title>
<g id="a_Node000005"><a xlink:href="carrinho__ino_8ino.html#a4fc01d736fe50cf5b977f755b675f11d" target="_top" xlink:title=" ">
<polygon fill="white" stroke="#666666" points="192.8,-20.75 149.8,-20.75 149.8,0 192.8,0 192.8,-20.75"/>
<text xml:space="preserve" text-anchor="middle" x="171.3" y="-7.25" font-family="Helvetica,sans-Serif" font-size="10.00">setup</text>
</a>
</g>
</g>
<!-- Node1&#45;&gt;Node5 -->
<g id="edge5_Node000001_Node000005" class="edge">
<title>Node1&#45;&gt;Node5</title>
<g id="a_edge5_Node000001_Node000005"><a xlink:title=" ">
<path fill="none" stroke="#63b8ff" d="M230.27,-34.82C217.98,-29.63 204.28,-23.86 193.3,-19.23"/>
<polygon fill="#63b8ff" stroke="#63b8ff" points="228.64,-37.93 239.21,-38.59 231.36,-31.48 228.64,-37.93"/>
</a>
</g>
</g>
<!-- Node3 -->
<g id="Node000003" class="node">
<title>Node3</title>
<g id="a_Node000003"><a xlink:href="carrinho__ino_8ino.html#ae85c96d8ab4fe9d1b125421eaaef40e2" target="_top" xlink:title=" ">
<polygon fill="white" stroke="#666666" points="101.8,-96.75 73,-96.75 73,-76 101.8,-76 101.8,-96.75"/>
<text xml:space="preserve" text-anchor="middle" x="87.4" y="-83.25" font-family="Helvetica,sans-Serif" font-size="10.00">hit</text>
</a>
</g>
</g>
<!-- Node2&#45;&gt;Node3 -->
<g id="edge2_Node000002_Node000003" class="edge">
<title>Node2&#45;&gt;Node3</title>
<g id="a_edge2_Node000002_Node000003"><a xlink:title=" ">
<path fill="none" stroke="#63b8ff" d="M126.08,-86.38C117.41,-86.38 108.94,-86.38 102.23,-86.38"/>
<polygon fill="#63b8ff" stroke="#63b8ff" points="125.95,-89.88 135.95,-86.38 125.95,-82.88 125.95,-89.88"/>
</a>
</g>
</g>
<!-- Node3&#45;&gt;Node4 -->
<g id="edge3_Node000003_Node000004" class="edge">
<title>Node3&#45;&gt;Node4</title>
<g id="a_edge3_Node000003_Node000004"><a xlink:title=" ">
<path fill="none" stroke="#63b8ff" d="M61.74,-79.37C53.59,-77.06 44.69,-74.53 37.17,-72.39"/>
<polygon fill="#63b8ff" stroke="#63b8ff" points="60.51,-82.66 71.08,-82.02 62.42,-75.93 60.51,-82.66"/>
</a>
</g>
</g>
</g>
</svg>
