<?xml version="1.0" encoding="UTF-8" standalone="no"?>
<!DOCTYPE svg PUBLIC "-//W3C//DTD SVG 1.1//EN"
 "http://www.w3.org/Graphics/SVG/1.1/DTD/svg11.dtd">
<!-- Generated by graphviz version 14.0.4 (0)
 -->
<!-- Title: hit Pages: 1 -->
<svg width="221pt" height="47pt"
 viewBox="0.00 0.00 221.00 47.00" xmlns="http://www.w3.org/2000/svg" xmlns:xlink="http://www.w3.org/1999/xlink">
<g id="graph0" class="graph" transform="scale(1 1) rotate(0) translate(4 42.75)">
<title>hit</title>
<!-- Node1 -->
<g id="Node000001" class="node">
<title>Node1</title>
<g id="a_Node000001"><a xlink:title=" ">
<polygon fill="#999999" stroke="#666666" points="28.8,-20.75 0,-20.75 0,0 28.8,0 28.8,-20.75"/>
<text xml:space="preserve" text-anchor="middle" x="14.4" y="-7.25" font-family="Helvetica,sans-Serif" font-size="10.00">hit</text>
</a>
</g>
</g>
<!-- Node2 -->
<g id="Node000002" class="node">
<title>Node2</title>
<g id="a_Node000002"><a xlink:href="carrinho__ino_8ino.html#a026d019671eda0cfe729200fc24d23ba" target="_top" xlink:title=" ">
<polygon fill="white" stroke="#666666" points="131.8,-20.75 64.8,-20.75 64.8,0 131.8,0 131.8,-20.75"/>
<text xml:space="preserve" text-anchor="middle" x="98.3" y="-7.25" font-family="Helvetica,sans-Serif" font-size="10.00">gameOver</text>
</a>
</g>
</g>
<!-- Node1&#45;&gt;Node2 -->
<g id="edge1_Node000001_Node000002" class="edge">
<title>Node1&#45;&gt;Node2</title>
<g id="a_edge1_Node000001_Node000002"><a xlink:title=" ">
<path fill="none" stroke="#63b8ff" d="M29.29,-10.38C36.02,-10.38 44.51,-10.38 53.19,-10.38"/>
<polygon fill="#63b8ff" stroke="#63b8ff" points="53.07,-13.88 63.07,-10.38 53.07,-6.88 53.07,-13.88"/>
</a>
</g>
</g>
<!-- Node3 -->
<g id="Node000003" class="node">
<title>Node3</title>
<g id="a_Node000003"><a xlink:href="carrinho__ino_8ino.html#a83f9abde8522ce95dd4c5ce5ba3d9d39" target="_top" xlink:title=" ">
<polygon fill="white" stroke="#666666" points="213.05,-20.75 167.8,-20.75 167.8,0 213.05,0 213.05,-20.75"/>
<text xml:space="preserve" text-anchor="middle" x="190.43" y="-7.25" font-family="Helvetica,sans-Serif" font-size="10.00">motor</text>
</a>
</g>
</g>
<!-- Node2&#45;&gt;Node3 -->
<g id="edge2_Node000002_Node000003" class="edge">
<title>Node2&#45;&gt;Node3</title>
<g id="a_edge2_Node000002_Node000003"><a xlink:title=" ">
<path fill="none" stroke="#63b8ff" d="M132.09,-10.38C139.91,-10.38 148.27,-10.38 156.11,-10.38"/>
<polygon fill="#63b8ff" stroke="#63b8ff" points="155.98,-13.88 165.98,-10.38 155.98,-6.88 155.98,-13.88"/>
</a>
</g>
</g>
<!-- Node3&#45;&gt;Node3 -->
<g id="edge3_Node000003_Node000003" class="edge">
<title>Node3&#45;&gt;Node3</title>
<g id="a_edge3_Node000003_Node000003"><a xlink:title=" ">
<path fill="none" stroke="#63b8ff" d="M175.58,-21.15C169.64,-29.81 174.59,-38.75 190.43,-38.75 198.84,-38.75 204.18,-36.23 206.44,-32.56"/>
<polygon fill="#63b8ff" stroke="#63b8ff" points="209.93,-32.24 205.42,-22.65 202.97,-32.96 209.93,-32.24"/>
</a>
</g>
</g>
</g>
</svg>
