<?xml version="1.0" encoding="UTF-8" standalone="no"?>
<!DOCTYPE svg PUBLIC "-//W3C//DTD SVG 1.1//EN"
 "http://www.w3.org/Graphics/SVG/1.1/DTD/svg11.dtd">
<!-- Generated by graphviz version 14.0.4 (0)
 -->
<!-- Title: motor Pages: 1 -->
<svg width="168pt" height="47pt"
 viewBox="0.00 0.00 168.00 47.00" xmlns="http://www.w3.org/2000/svg" xmlns:xlink="http://www.w3.org/1999/xlink">
<g id="graph0" class="graph" transform="scale(1 1) rotate(0) translate(4 42.75)">
<title>motor</title>
<!-- Node1 -->
<g id="Node000001" class="node">
<title>Node1</title>
<g id="a_Node000001"><a xlink:title=" ">
<polygon fill="#999999" stroke="#666666" points="45.25,-20.75 0,-20.75 0,0 45.25,0 45.25,-20.75"/>
<text xml:space="preserve" text-anchor="middle" x="22.62" y="-7.25" font-family="Helvetica,sans-Serif" font-size="10.00">motor</text>
</a>
</g>
</g>
<!-- Node1&#45;&gt;Node1 -->
<g id="edge2_Node000001_Node000001" class="edge">
<title>Node1&#45;&gt;Node1</title>
<g id="a_edge2_Node000001_Node000001"><a xlink:title=" ">
<path fill="none" stroke="#63b8ff" d="M6.81,-21.15C0.49,-29.81 5.76,-38.75 22.62,-38.75 31.58,-38.75 37.27,-36.23 39.69,-32.56"/>
<polygon fill="#63b8ff" stroke="#63b8ff" points="43.17,-32.21 38.6,-22.65 36.21,-32.97 43.17,-32.21"/>
</a>
</g>
</g>
<!-- Node2 -->
<g id="Node000002" class="node">
<title>Node2</title>
<g id="a_Node000002"><a xlink:href="carrinho_8c.html#ac7c0935e24e573b2929d0df7f9e6b82f" target="_top" xlink:title=" ">
<polygon fill="white" stroke="#666666" points="160.25,-20.75 81.25,-20.75 81.25,0 160.25,0 160.25,-20.75"/>
<text xml:space="preserve" text-anchor="middle" x="120.75" y="-7.25" font-family="Helvetica,sans-Serif" font-size="10.00">analog_write</text>
</a>
</g>
</g>
<!-- Node1&#45;&gt;Node2 -->
<g id="edge1_Node000001_Node000002" class="edge">
<title>Node1&#45;&gt;Node2</title>
<g id="a_edge1_Node000001_Node000002"><a xlink:title=" ">
<path fill="none" stroke="#63b8ff" d="M45.44,-10.38C52.67,-10.38 61.05,-10.38 69.52,-10.38"/>
<polygon fill="#63b8ff" stroke="#63b8ff" points="69.52,-13.88 79.52,-10.38 69.52,-6.88 69.52,-13.88"/>
</a>
</g>
</g>
</g>
</svg>
