<?xml version="1.0" encoding="UTF-8" standalone="no"?>
<!DOCTYPE svg PUBLIC "-//W3C//DTD SVG 1.1//EN"
 "http://www.w3.org/Graphics/SVG/1.1/DTD/svg11.dtd">
<!-- Generated by graphviz version 14.0.5 (0)
 -->
<!-- Title: loop Pages: 1 -->
<svg width="341pt" height="222pt"
 viewBox="0.00 0.00 341.00 222.00" xmlns="http://www.w3.org/2000/svg" xmlns:xlink="http://www.w3.org/1999/xlink">
<g id="graph0" class="graph" transform="scale(1 1) rotate(0) translate(4 217.75)">
<title>loop</title>
<!-- Node1 -->
<g id="Node000001" class="node">
<title>Node1</title>
<g id="a_Node000001"><a xlink:title=" ">
<polygon fill="#999999" stroke="#666666" points="37,-117.75 0,-117.75 0,-97 37,-97 37,-117.75"/>
<text xml:space="preserve" text-anchor="middle" x="18.5" y="-104.25" font-family="Helvetica,sans-Serif" font-size="10.00">loop</text>
</a>
</g>
</g>
<!-- Node2 -->
<g id="Node000002" class="node">
<title>Node2</title>
<g id="a_Node000002"><a xlink:href="carrinho_8c.html#aaa87dddb1e62142fd07ee17db1b5d673" target="_top" xlink:title="Retorna o valor absoluto de um inteiro.">
<polygon fill="white" stroke="#666666" points="127.25,-213.75 94,-213.75 94,-193 127.25,-193 127.25,-213.75"/>
<text xml:space="preserve" text-anchor="middle" x="110.62" y="-200.25" font-family="Helvetica,sans-Serif" font-size="10.00">abs</text>
</a>
</g>
</g>
<!-- Node1&#45;&gt;Node2 -->
<g id="edge1_Node000001_Node000002" class="edge">
<title>Node1&#45;&gt;Node2</title>
<g id="a_edge1_Node000001_Node000002"><a xlink:title=" ">
<path fill="none" stroke="#63b8ff" d="M24.97,-118.11C33.49,-133.99 51.21,-163.93 73,-183.38 76.22,-186.25 79.92,-188.86 83.7,-191.19"/>
<polygon fill="#63b8ff" stroke="#63b8ff" points="81.86,-194.17 92.32,-195.91 85.23,-188.03 81.86,-194.17"/>
</a>
</g>
</g>
<!-- Node3 -->
<g id="Node000003" class="node">
<title>Node3</title>
<g id="a_Node000003"><a xlink:href="carrinho__ino_8ino.html#ae85c96d8ab4fe9d1b125421eaaef40e2" target="_top" xlink:title=" ">
<polygon fill="white" stroke="#666666" points="125.03,-174.75 96.22,-174.75 96.22,-154 125.03,-154 125.03,-174.75"/>
<text xml:space="preserve" text-anchor="middle" x="110.62" y="-161.25" font-family="Helvetica,sans-Serif" font-size="10.00">hit</text>
</a>
</g>
</g>
<!-- Node1&#45;&gt;Node3 -->
<g id="edge2_Node000001_Node000003" class="edge">
<title>Node1&#45;&gt;Node3</title>
<g id="a_edge2_Node000001_Node000003"><a xlink:title=" ">
<path fill="none" stroke="#63b8ff" d="M36.45,-118.1C50.59,-127.04 70.87,-139.87 86.5,-149.75"/>
<polygon fill="#63b8ff" stroke="#63b8ff" points="84.39,-152.55 94.71,-154.94 88.13,-146.64 84.39,-152.55"/>
</a>
</g>
</g>
<!-- Node5 -->
<g id="Node000005" class="node">
<title>Node5</title>
<g id="a_Node000005"><a xlink:href="carrinho__ino_8ino.html#a83f9abde8522ce95dd4c5ce5ba3d9d39" target="_top" xlink:title=" ">
<polygon fill="white" stroke="#666666" points="332.5,-174.75 287.25,-174.75 287.25,-154 332.5,-154 332.5,-174.75"/>
<text xml:space="preserve" text-anchor="middle" x="309.88" y="-161.25" font-family="Helvetica,sans-Serif" font-size="10.00">motor</text>
</a>
</g>
</g>
<!-- Node1&#45;&gt;Node5 -->
<g id="edge8_Node000001_Node000005" class="edge">
<title>Node1&#45;&gt;Node5</title>
<g id="a_edge8_Node000001_Node000005"><a xlink:title=" ">
<path fill="none" stroke="#63b8ff" d="M37.17,-110.85C84.43,-120.16 214.36,-145.76 275.82,-157.86"/>
<polygon fill="#63b8ff" stroke="#63b8ff" points="274.84,-161.24 285.33,-159.74 276.19,-154.37 274.84,-161.24"/>
</a>
</g>
</g>
<!-- Node6 -->
<g id="Node000006" class="node">
<title>Node6</title>
<g id="a_Node000006"><a xlink:href="carrinho__ino_8ino.html#adf1dfbee680be7fd774683d7c6a1a05c" target="_top" xlink:title=" ">
<polygon fill="white" stroke="#666666" points="148.25,-98.75 73,-98.75 73,-78 148.25,-78 148.25,-98.75"/>
<text xml:space="preserve" text-anchor="middle" x="110.62" y="-85.25" font-family="Helvetica,sans-Serif" font-size="10.00">isTimerOver</text>
</a>
</g>
</g>
<!-- Node1&#45;&gt;Node6 -->
<g id="edge7_Node000001_Node000006" class="edge">
<title>Node1&#45;&gt;Node6</title>
<g id="a_edge7_Node000001_Node000006"><a xlink:title=" ">
<path fill="none" stroke="#63b8ff" d="M37.31,-103.62C44.45,-102.12 53.05,-100.3 61.8,-98.46"/>
<polygon fill="#63b8ff" stroke="#63b8ff" points="62.3,-101.93 71.37,-96.44 60.86,-95.08 62.3,-101.93"/>
</a>
</g>
</g>
<!-- Node7 -->
<g id="Node000007" class="node">
<title>Node7</title>
<g id="a_Node000007"><a xlink:href="carrinho__ino_8ino.html#a53cdd46f95419ffdcd44d3f0d6147b54" target="_top" xlink:title=" ">
<polygon fill="white" stroke="#666666" points="131,-59.75 90.25,-59.75 90.25,-39 131,-39 131,-59.75"/>
<text xml:space="preserve" text-anchor="middle" x="110.62" y="-46.25" font-family="Helvetica,sans-Serif" font-size="10.00">radio</text>
</a>
</g>
</g>
<!-- Node1&#45;&gt;Node7 -->
<g id="edge9_Node000001_Node000007" class="edge">
<title>Node1&#45;&gt;Node7</title>
<g id="a_edge9_Node000001_Node000007"><a xlink:title=" ">
<path fill="none" stroke="#63b8ff" d="M33.72,-96.58C44.32,-88.7 59.28,-77.95 73,-69.38 75.28,-67.95 77.67,-66.52 80.09,-65.11"/>
<polygon fill="#63b8ff" stroke="#63b8ff" points="81.67,-68.24 88.67,-60.29 78.24,-62.13 81.67,-68.24"/>
</a>
</g>
</g>
<!-- Node8 -->
<g id="Node000008" class="node">
<title>Node8</title>
<g id="a_Node000008"><a xlink:href="carrinho__ino_8ino.html#a28e17ddfc6c506e94ffac4c672837624" target="_top" xlink:title=" ">
<polygon fill="white" stroke="#666666" points="145.62,-20.75 75.62,-20.75 75.62,0 145.62,0 145.62,-20.75"/>
<text xml:space="preserve" text-anchor="middle" x="110.62" y="-7.25" font-family="Helvetica,sans-Serif" font-size="10.00">timerReset</text>
</a>
</g>
</g>
<!-- Node1&#45;&gt;Node8 -->
<g id="edge10_Node000001_Node000008" class="edge">
<title>Node1&#45;&gt;Node8</title>
<g id="a_edge10_Node000001_Node000008"><a xlink:title=" ">
<path fill="none" stroke="#63b8ff" d="M24.8,-96.75C33.22,-80.74 50.96,-50.17 73,-30.38 74.21,-29.29 75.5,-28.23 76.83,-27.22"/>
<polygon fill="#63b8ff" stroke="#63b8ff" points="78.39,-30.38 84.81,-21.95 74.54,-24.54 78.39,-30.38"/>
</a>
</g>
</g>
<!-- Node4 -->
<g id="Node000004" class="node">
<title>Node4</title>
<g id="a_Node000004"><a xlink:href="carrinho__ino_8ino.html#a026d019671eda0cfe729200fc24d23ba" target="_top" xlink:title=" ">
<polygon fill="white" stroke="#666666" points="251.25,-212.75 184.25,-212.75 184.25,-192 251.25,-192 251.25,-212.75"/>
<text xml:space="preserve" text-anchor="middle" x="217.75" y="-199.25" font-family="Helvetica,sans-Serif" font-size="10.00">gameOver</text>
</a>
</g>
</g>
<!-- Node3&#45;&gt;Node4 -->
<g id="edge3_Node000003_Node000004" class="edge">
<title>Node3&#45;&gt;Node4</title>
<g id="a_edge3_Node000003_Node000004"><a xlink:title=" ">
<path fill="none" stroke="#63b8ff" d="M125.37,-169.34C138.33,-174.03 158.42,-181.29 176.46,-187.81"/>
<polygon fill="#63b8ff" stroke="#63b8ff" points="175.05,-191.02 185.64,-191.13 177.43,-184.44 175.05,-191.02"/>
</a>
</g>
</g>
<!-- Node3&#45;&gt;Node5 -->
<g id="edge6_Node000003_Node000005" class="edge">
<title>Node3&#45;&gt;Node5</title>
<g id="a_edge6_Node000003_Node000005"><a xlink:title=" ">
<path fill="none" stroke="#63b8ff" d="M125.5,-164.38C156.36,-164.38 231.43,-164.38 275.35,-164.38"/>
<polygon fill="#63b8ff" stroke="#63b8ff" points="275.34,-167.88 285.34,-164.38 275.34,-160.88 275.34,-167.88"/>
</a>
</g>
</g>
<!-- Node4&#45;&gt;Node5 -->
<g id="edge4_Node000004_Node000005" class="edge">
<title>Node4&#45;&gt;Node5</title>
<g id="a_edge4_Node000004_Node000005"><a xlink:title=" ">
<path fill="none" stroke="#63b8ff" d="M244.34,-191.59C254.3,-187.39 265.84,-182.52 276.38,-178.08"/>
<polygon fill="#63b8ff" stroke="#63b8ff" points="277.65,-181.34 285.5,-174.23 274.93,-174.89 277.65,-181.34"/>
</a>
</g>
</g>
<!-- Node5&#45;&gt;Node5 -->
<g id="edge5_Node000005_Node000005" class="edge">
<title>Node5&#45;&gt;Node5</title>
<g id="a_edge5_Node000005_Node000005"><a xlink:title=" ">
<path fill="none" stroke="#63b8ff" d="M295.03,-175.15C289.09,-183.81 294.04,-192.75 309.88,-192.75 318.29,-192.75 323.63,-190.23 325.89,-186.56"/>
<polygon fill="#63b8ff" stroke="#63b8ff" points="329.38,-186.24 324.87,-176.65 322.42,-186.96 329.38,-186.24"/>
</a>
</g>
</g>
</g>
</svg>
