<?xml version="1.0" encoding="UTF-8" standalone="no"?>
<!DOCTYPE svg PUBLIC "-//W3C//DTD SVG 1.1//EN"
 "http://www.w3.org/Graphics/SVG/1.1/DTD/svg11.dtd">
<!-- Generated by graphviz version 14.0.4 (0)
 -->
<!-- Title: csn_high Pages: 1 -->
<!--zoomable 658 -->

<svg id="main" version="1.1" xmlns="http://www.w3.org/2000/svg" xmlns:xlink="http://www.w3.org/1999/xlink" xml:space="preserve" onload="init(evt)">

<style type="text/css"><![CDATA[
.node, .edge {opacity: 0.7;}
.node.selected, .edge.selected {opacity: 1;}
.edge:hover path { stroke: red; }
.edge:hover polygon { stroke: red; fill: red; }
]]></style>

<defs>
  <circle id="rim" cx="0" cy="0" r="7"/>
  <circle id="rim2" cx="0" cy="0" r="3.5"/>
  <g id="zoomPlus">
    <use xlink:href="#rim" fill="#404040"><set attributeName="fill" to="#808080" begin="zoomplus.mouseover" end="zoomplus.mouseout"/></use>
    <path d="M-4,0h8M0,-4v8" fill="none" stroke="white" stroke-width="1.5" pointer-events="none"/>
  </g>
  <g id="zoomMin">
    <use xlink:href="#rim" fill="#404040"><set attributeName="fill" to="#808080" begin="zoomminus.mouseover" end="zoomminus.mouseout"/></use>
    <path d="M-4,0h8" fill="none" stroke="white" stroke-width="1.5" pointer-events="none"/>
  </g>
  <g id="arrowUp" transform="translate(30 24)">
    <use xlink:href="#rim"/>
    <path pointer-events="none" fill="none" stroke="white" stroke-width="1.5" d="M0,-3.0v7 M-2.5,-0.5L0,-3.0L2.5,-0.5"/>
  </g>
  <g id="arrowRight" transform="rotate(90) translate(36 -43)">
    <use xlink:href="#rim"/>
    <path pointer-events="none" fill="none" stroke="white" stroke-width="1.5" d="M0,-3.0v7 M-2.5,-0.5L0,-3.0L2.5,-0.5"/>
  </g>
  <g id="arrowDown" transform="rotate(180) translate(-30 -48)">
    <use xlink:href="#rim"/>
    <path pointer-events="none" fill="none" stroke="white" stroke-width="1.5" d="M0,-3.0v7 M-2.5,-0.5L0,-3.0L2.5,-0.5"/>
  </g>
  <g id="arrowLeft" transform="rotate(270) translate(-36 17)">
    <use xlink:href="#rim"/>
    <path pointer-events="none" fill="none" stroke="white" stroke-width="1.5" d="M0,-3.0v7 M-2.5,-0.5L0,-3.0L2.5,-0.5"/>
  </g>
  <g id="resetDef">
    <use xlink:href="#rim2" fill="#404040"><set attributeName="fill" to="#808080" begin="reset.mouseover" end="reset.mouseout"/></use>
  </g>
</defs>
<script type="application/ecmascript">
var viewWidth = 760;
var viewHeight = 658;
var sectionId = 'dynsection-6';
</script>
<script type="application/ecmascript" xlink:href="svg.min.js"/>
<svg id="graph" class="graph">
<g id="viewport">
<title>csn_high</title>
<!-- Node1 -->
<g id="Node000001" class="node">
<title>Node1</title>
<g id="a_Node000001"><a xlink:title=" ">
<polygon fill="#999999" stroke="#666666" points="752.25,-174.75 693.5,-174.75 693.5,-154 752.25,-154 752.25,-174.75"/>
<text xml:space="preserve" text-anchor="middle" x="722.88" y="-161.25" font-family="Helvetica,sans-Serif" font-size="10.00">csn_high</text>
</a>
</g>
</g>
<!-- Node2 -->
<g id="Node000002" class="node">
<title>Node2</title>
<g id="a_Node000002"><a xlink:href="carrinho_2nrf24__avr_8c.html#ab6fb4c1aa834152310116e7dec65d8e3" target="_top" xlink:title=" ">
<polygon fill="white" stroke="#666666" points="342.38,-231.75 268.62,-231.75 268.62,-211 342.38,-211 342.38,-231.75"/>
<text xml:space="preserve" text-anchor="middle" x="305.5" y="-218.25" font-family="Helvetica,sans-Serif" font-size="10.00">nrf24_begin</text>
</a>
</g>
</g>
<!-- Node1&#45;&gt;Node2 -->
<g id="edge1_Node000001_Node000002" class="edge">
<title>Node1&#45;&gt;Node2</title>
<g id="a_edge1_Node000001_Node000002"><a xlink:title=" ">
<path fill="none" stroke="#63b8ff" d="M682.1,-150.71C674.05,-148.49 665.57,-146.54 657.5,-145.38 547.42,-129.47 512.72,-110.06 407.25,-145.38 368.4,-158.39 332.55,-192.94 316.04,-210.62"/>
<polygon fill="#63b8ff" stroke="#63b8ff" points="681.07,-154.06 691.66,-153.54 683.06,-147.34 681.07,-154.06"/>
</a>
</g>
</g>
<!-- Node5 -->
<g id="Node000005" class="node">
<title>Node5</title>
<g id="a_Node000005"><a xlink:href="carrinho_2nrf24__avr_8c.html#a9351c150d32184a95db9ab4a802ed860" target="_top" xlink:title=" ">
<polygon fill="white" stroke="#666666" points="653.75,-98.75 568,-98.75 568,-78 653.75,-78 653.75,-98.75"/>
<text xml:space="preserve" text-anchor="middle" x="610.88" y="-85.25" font-family="Helvetica,sans-Serif" font-size="10.00">nrf24_flush_rx</text>
</a>
</g>
</g>
<!-- Node1&#45;&gt;Node5 -->
<g id="edge4_Node000001_Node000005" class="edge">
<title>Node1&#45;&gt;Node5</title>
<g id="a_edge4_Node000001_Node000005"><a xlink:title=" ">
<path fill="none" stroke="#63b8ff" d="M701.52,-146.22C689.23,-135.7 672.99,-122.57 657.5,-112.38 650.32,-107.65 642.11,-103.1 634.65,-99.25"/>
<polygon fill="#63b8ff" stroke="#63b8ff" points="699.09,-148.75 708.93,-152.67 703.69,-143.47 699.09,-148.75"/>
</a>
</g>
</g>
<!-- Node6 -->
<g id="Node000006" class="node">
<title>Node6</title>
<g id="a_Node000006"><a xlink:href="carrinho_2nrf24__avr_8c.html#a617ab4b2604d6f482796e35da85369ad" target="_top" xlink:title=" ">
<polygon fill="white" stroke="#666666" points="510.62,-631.75 424.88,-631.75 424.88,-611 510.62,-611 510.62,-631.75"/>
<text xml:space="preserve" text-anchor="middle" x="467.75" y="-618.25" font-family="Helvetica,sans-Serif" font-size="10.00">nrf24_flush_tx</text>
</a>
</g>
</g>
<!-- Node1&#45;&gt;Node6 -->
<g id="edge5_Node000001_Node000006" class="edge">
<title>Node1&#45;&gt;Node6</title>
<g id="a_edge5_Node000001_Node000006"><a xlink:title=" ">
<path fill="none" stroke="#63b8ff" d="M720.92,-186.52C717.93,-236.51 705.82,-360.74 657.5,-450.38 618.24,-523.21 592.6,-532.35 528.25,-584.38 515.95,-594.32 500.8,-603.7 488.87,-610.53"/>
<polygon fill="#63b8ff" stroke="#63b8ff" points="724.4,-186.9 721.43,-176.73 717.41,-186.54 724.4,-186.9"/>
</a>
</g>
</g>
<!-- Node10 -->
<g id="Node000010" class="node">
<title>Node10</title>
<g id="a_Node000010"><a xlink:href="carrinho_2nrf24__avr_8c.html#a9a23f602a6077c795322702d0a42f48c" target="_top" xlink:title=" ">
<polygon fill="white" stroke="#666666" points="657.5,-59.75 564.25,-59.75 564.25,-39 657.5,-39 657.5,-59.75"/>
<text xml:space="preserve" text-anchor="middle" x="610.88" y="-46.25" font-family="Helvetica,sans-Serif" font-size="10.00">nrf24_getStatus</text>
</a>
</g>
</g>
<!-- Node1&#45;&gt;Node10 -->
<g id="edge9_Node000001_Node000010" class="edge">
<title>Node1&#45;&gt;Node10</title>
<g id="a_edge9_Node000001_Node000010"><a xlink:title=" ">
<path fill="none" stroke="#63b8ff" d="M712.06,-143.34C701.27,-122.2 682.16,-89.9 657.5,-69.38 653.11,-65.72 647.96,-62.63 642.72,-60.04"/>
<polygon fill="#63b8ff" stroke="#63b8ff" points="708.84,-144.72 716.38,-152.16 715.12,-141.64 708.84,-144.72"/>
</a>
</g>
</g>
<!-- Node11 -->
<g id="Node000011" class="node">
<title>Node11</title>
<g id="a_Node000011"><a xlink:href="carrinho_2nrf24__avr_8c.html#ac4a676257b5b86b05f4ea608636cb2cf" target="_top" xlink:title=" ">
<polygon fill="white" stroke="#666666" points="651.88,-174.75 569.88,-174.75 569.88,-154 651.88,-154 651.88,-174.75"/>
<text xml:space="preserve" text-anchor="middle" x="610.88" y="-161.25" font-family="Helvetica,sans-Serif" font-size="10.00">read_payload</text>
</a>
</g>
</g>
<!-- Node1&#45;&gt;Node11 -->
<g id="edge10_Node000001_Node000011" class="edge">
<title>Node1&#45;&gt;Node11</title>
<g id="a_edge10_Node000001_Node000011"><a xlink:title=" ">
<path fill="none" stroke="#63b8ff" d="M681.93,-164.38C672.3,-164.38 662.01,-164.38 652.35,-164.38"/>
<polygon fill="#63b8ff" stroke="#63b8ff" points="681.75,-167.88 691.75,-164.38 681.75,-160.88 681.75,-167.88"/>
</a>
</g>
</g>
<!-- Node14 -->
<g id="Node000014" class="node">
<title>Node14</title>
<g id="a_Node000014"><a xlink:href="carrinho_2nrf24__avr_8c.html#abefdb1d58b989853c0646a6c8b18b7d3" target="_top" xlink:title=" ">
<polygon fill="white" stroke="#666666" points="640.25,-441.75 581.5,-441.75 581.5,-421 640.25,-421 640.25,-441.75"/>
<text xml:space="preserve" text-anchor="middle" x="610.88" y="-428.25" font-family="Helvetica,sans-Serif" font-size="10.00">read_reg</text>
</a>
</g>
</g>
<!-- Node1&#45;&gt;Node14 -->
<g id="edge15_Node000001_Node000014" class="edge">
<title>Node1&#45;&gt;Node14</title>
<g id="a_edge15_Node000001_Node000014"><a xlink:title=" ">
<path fill="none" stroke="#63b8ff" d="M713.14,-185.57C690.9,-239.57 632.7,-380.83 616.26,-420.74"/>
<polygon fill="#63b8ff" stroke="#63b8ff" points="716.28,-187.15 716.85,-176.57 709.8,-184.48 716.28,-187.15"/>
</a>
</g>
</g>
<!-- Node18 -->
<g id="Node000018" class="node">
<title>Node18</title>
<g id="a_Node000018"><a xlink:href="carrinho_2nrf24__avr_8c.html#a31d6889b046799ad06c03ce52c9bb640" target="_top" xlink:title=" ">
<polygon fill="white" stroke="#666666" points="650.75,-20.75 571,-20.75 571,0 650.75,0 650.75,-20.75"/>
<text xml:space="preserve" text-anchor="middle" x="610.88" y="-7.25" font-family="Helvetica,sans-Serif" font-size="10.00">read_reg_buf</text>
</a>
</g>
</g>
<!-- Node1&#45;&gt;Node18 -->
<g id="edge26_Node000001_Node000018" class="edge">
<title>Node1&#45;&gt;Node18</title>
<g id="a_edge26_Node000001_Node000018"><a xlink:title=" ">
<path fill="none" stroke="#63b8ff" d="M716.62,-142.91C708.5,-113.87 690.31,-62.07 657.5,-30.38 653.64,-26.65 648.98,-23.56 644.12,-21.01"/>
<polygon fill="#63b8ff" stroke="#63b8ff" points="713.18,-143.59 719.11,-152.37 719.95,-141.81 713.18,-143.59"/>
</a>
</g>
</g>
<!-- Node19 -->
<g id="Node000019" class="node">
<title>Node19</title>
<g id="a_Node000019"><a xlink:href="carrinho_2nrf24__avr_8c.html#a3c9fd94e9894bf0792d4ff5891c16436" target="_top" xlink:title=" ">
<polygon fill="white" stroke="#666666" points="653.38,-631.75 568.38,-631.75 568.38,-611 653.38,-611 653.38,-631.75"/>
<text xml:space="preserve" text-anchor="middle" x="610.88" y="-618.25" font-family="Helvetica,sans-Serif" font-size="10.00">write_payload</text>
</a>
</g>
</g>
<!-- Node1&#45;&gt;Node19 -->
<g id="edge27_Node000001_Node000019" class="edge">
<title>Node1&#45;&gt;Node19</title>
<g id="a_edge27_Node000001_Node000019"><a xlink:title=" ">
<path fill="none" stroke="#63b8ff" d="M721.85,-186.19C721.05,-247.53 713.69,-425.73 657.5,-559.38 649.11,-579.33 633.07,-598.86 622.42,-610.51"/>
<polygon fill="#63b8ff" stroke="#63b8ff" points="725.35,-186.48 721.92,-176.45 718.35,-186.42 725.35,-186.48"/>
</a>
</g>
</g>
<!-- Node20 -->
<g id="Node000020" class="node">
<title>Node20</title>
<g id="a_Node000020"><a xlink:href="carrinho_2nrf24__avr_8c.html#a08bc978021db604d02a6da754f73e7e2" target="_top" xlink:title=" ">
<polygon fill="white" stroke="#666666" points="641.75,-308.75 580,-308.75 580,-288 641.75,-288 641.75,-308.75"/>
<text xml:space="preserve" text-anchor="middle" x="610.88" y="-295.25" font-family="Helvetica,sans-Serif" font-size="10.00">write_reg</text>
</a>
</g>
</g>
<!-- Node1&#45;&gt;Node20 -->
<g id="edge29_Node000001_Node000020" class="edge">
<title>Node1&#45;&gt;Node20</title>
<g id="a_edge29_Node000001_Node000020"><a xlink:title=" ">
<path fill="none" stroke="#63b8ff" d="M706.12,-183.57C682.68,-212.12 639.39,-264.85 620.77,-287.54"/>
<polygon fill="#63b8ff" stroke="#63b8ff" points="708.64,-186.01 712.28,-176.06 703.23,-181.57 708.64,-186.01"/>
</a>
</g>
</g>
<!-- Node3 -->
<g id="Node000003" class="node">
<title>Node3</title>
<g id="a_Node000003"><a xlink:href="carrinho_8c.html#ae66f6b31b5ad750f1fe042a706a4e3d4" target="_top" xlink:title=" ">
<polygon fill="white" stroke="#666666" points="160.62,-346.75 119.88,-346.75 119.88,-326 160.62,-326 160.62,-346.75"/>
<text xml:space="preserve" text-anchor="middle" x="140.25" y="-333.25" font-family="Helvetica,sans-Serif" font-size="10.00">main</text>
</a>
</g>
</g>
<!-- Node2&#45;&gt;Node3 -->
<g id="edge2_Node000002_Node000003" class="edge">
<title>Node2&#45;&gt;Node3</title>
<g id="a_edge2_Node000002_Node000003"><a xlink:title=" ">
<path fill="none" stroke="#63b8ff" d="M257.63,-232.67C251.39,-235.08 245.26,-237.95 239.75,-241.38 219.99,-253.65 220.36,-263.08 203.75,-279.38 186.77,-296.04 166.25,-314.44 153.47,-325.7"/>
<polygon fill="#63b8ff" stroke="#63b8ff" points="258.39,-236.11 266.7,-229.55 256.11,-229.5 258.39,-236.11"/>
</a>
</g>
</g>
<!-- Node4 -->
<g id="Node000004" class="node">
<title>Node4</title>
<g id="a_Node000004"><a xlink:href="main_8c.html#a840291bc02cba5474a4cb46a9b9566fe" target="_top" xlink:title=" ">
<polygon fill="white" stroke="#666666" points="160.62,-270.75 119.88,-270.75 119.88,-250 160.62,-250 160.62,-270.75"/>
<text xml:space="preserve" text-anchor="middle" x="140.25" y="-257.25" font-family="Helvetica,sans-Serif" font-size="10.00">main</text>
</a>
</g>
</g>
<!-- Node2&#45;&gt;Node4 -->
<g id="edge3_Node000002_Node000004" class="edge">
<title>Node2&#45;&gt;Node4</title>
<g id="a_edge3_Node000002_Node000004"><a xlink:title=" ">
<path fill="none" stroke="#63b8ff" d="M257.36,-232.64C225.39,-240.27 184.77,-249.98 161.02,-255.65"/>
<polygon fill="#63b8ff" stroke="#63b8ff" points="257.88,-236.11 266.8,-230.38 256.26,-229.3 257.88,-236.11"/>
</a>
</g>
</g>
<!-- Node7 -->
<g id="Node000007" class="node">
<title>Node7</title>
<g id="a_Node000007"><a xlink:href="carrinho_2nrf24__avr_8c.html#a8232e1982aabc6f52408c318402cb578" target="_top" xlink:title=" ">
<polygon fill="white" stroke="#666666" points="341.25,-574.75 269.75,-574.75 269.75,-554 341.25,-554 341.25,-574.75"/>
<text xml:space="preserve" text-anchor="middle" x="305.5" y="-561.25" font-family="Helvetica,sans-Serif" font-size="10.00">nrf24_write</text>
</a>
</g>
</g>
<!-- Node6&#45;&gt;Node7 -->
<g id="edge6_Node000006_Node000007" class="edge">
<title>Node6&#45;&gt;Node7</title>
<g id="a_edge6_Node000006_Node000007"><a xlink:title=" ">
<path fill="none" stroke="#63b8ff" d="M425.68,-606.77C397.98,-596.92 362.05,-584.13 336.91,-575.19"/>
<polygon fill="#63b8ff" stroke="#63b8ff" points="424.21,-609.96 434.8,-610.01 426.56,-603.36 424.21,-609.96"/>
</a>
</g>
</g>
<!-- Node8 -->
<g id="Node000008" class="node">
<title>Node8</title>
<g id="a_Node000008"><a xlink:href="controle_8c.html#afe461d27b9c48d5921c00d521181f12f" target="_top" xlink:title=" ">
<polygon fill="white" stroke="#666666" points="158.75,-555.75 121.75,-555.75 121.75,-535 158.75,-535 158.75,-555.75"/>
<text xml:space="preserve" text-anchor="middle" x="140.25" y="-542.25" font-family="Helvetica,sans-Serif" font-size="10.00">loop</text>
</a>
</g>
</g>
<!-- Node7&#45;&gt;Node8 -->
<g id="edge7_Node000007_Node000008" class="edge">
<title>Node7&#45;&gt;Node8</title>
<g id="a_edge7_Node000007_Node000008"><a xlink:title=" ">
<path fill="none" stroke="#63b8ff" d="M258.26,-558.99C225.27,-555.15 182.72,-550.2 159.09,-547.45"/>
<polygon fill="#63b8ff" stroke="#63b8ff" points="257.64,-562.44 267.98,-560.12 258.45,-555.49 257.64,-562.44"/>
</a>
</g>
</g>
<!-- Node9 -->
<g id="Node000009" class="node">
<title>Node9</title>
<g id="a_Node000009"><a xlink:href="controle_8c.html#ae66f6b31b5ad750f1fe042a706a4e3d4" target="_top" xlink:title=" ">
<polygon fill="white" stroke="#666666" points="40.75,-517.75 0,-517.75 0,-497 40.75,-497 40.75,-517.75"/>
<text xml:space="preserve" text-anchor="middle" x="20.38" y="-504.25" font-family="Helvetica,sans-Serif" font-size="10.00">main</text>
</a>
</g>
</g>
<!-- Node8&#45;&gt;Node9 -->
<g id="edge8_Node000008_Node000009" class="edge">
<title>Node8&#45;&gt;Node9</title>
<g id="a_edge8_Node000008_Node000009"><a xlink:title=" ">
<path fill="none" stroke="#63b8ff" d="M110.54,-536.12C88.97,-529.17 60,-519.83 41.02,-513.71"/>
<polygon fill="#63b8ff" stroke="#63b8ff" points="109.32,-539.4 119.91,-539.14 111.46,-532.74 109.32,-539.4"/>
</a>
</g>
</g>
<!-- Node12 -->
<g id="Node000012" class="node">
<title>Node12</title>
<g id="a_Node000012"><a xlink:href="carrinho_2nrf24__avr_8c.html#aa0767db791fc0b45ebadab011c1900bf" target="_top" xlink:title=" ">
<polygon fill="white" stroke="#666666" points="502,-174.75 433.5,-174.75 433.5,-154 502,-154 502,-174.75"/>
<text xml:space="preserve" text-anchor="middle" x="467.75" y="-161.25" font-family="Helvetica,sans-Serif" font-size="10.00">nrf24_read</text>
</a>
</g>
</g>
<!-- Node11&#45;&gt;Node12 -->
<g id="edge11_Node000011_Node000012" class="edge">
<title>Node11&#45;&gt;Node12</title>
<g id="a_edge11_Node000011_Node000012"><a xlink:title=" ">
<path fill="none" stroke="#63b8ff" d="M558.08,-164.38C539.37,-164.38 518.76,-164.38 502.06,-164.38"/>
<polygon fill="#63b8ff" stroke="#63b8ff" points="557.92,-167.88 567.92,-164.38 557.92,-160.88 557.92,-167.88"/>
</a>
</g>
</g>
<!-- Node12&#45;&gt;Node4 -->
<g id="edge14_Node000012_Node000004" class="edge">
<title>Node12&#45;&gt;Node4</title>
<g id="a_edge14_Node000012_Node000004"><a xlink:title=" ">
<path fill="none" stroke="#63b8ff" d="M421.81,-161.71C374.79,-160.5 299.63,-163.12 239.75,-186.38 202.86,-200.7 167.85,-232.97 151.27,-249.76"/>
<polygon fill="#63b8ff" stroke="#63b8ff" points="421.51,-165.2 431.62,-162.04 421.74,-158.2 421.51,-165.2"/>
</a>
</g>
</g>
<!-- Node13 -->
<g id="Node000013" class="node">
<title>Node13</title>
<g id="a_Node000013"><a xlink:href="carrinho_8c.html#afe461d27b9c48d5921c00d521181f12f" target="_top" xlink:title=" ">
<polygon fill="white" stroke="#666666" points="324,-385.75 287,-385.75 287,-365 324,-365 324,-385.75"/>
<text xml:space="preserve" text-anchor="middle" x="305.5" y="-372.25" font-family="Helvetica,sans-Serif" font-size="10.00">loop</text>
</a>
</g>
</g>
<!-- Node12&#45;&gt;Node13 -->
<g id="edge12_Node000012_Node000013" class="edge">
<title>Node12&#45;&gt;Node13</title>
<g id="a_edge12_Node000012_Node000013"><a xlink:title=" ">
<path fill="none" stroke="#63b8ff" d="M422.61,-173.27C416.83,-176.03 411.46,-179.64 407.25,-184.38 355.63,-242.4 423.58,-297.99 371.25,-355.38 359.36,-368.42 339.17,-373.04 324.49,-374.63"/>
<polygon fill="#63b8ff" stroke="#63b8ff" points="423.8,-176.56 431.88,-169.71 421.29,-170.02 423.8,-176.56"/>
</a>
</g>
</g>
<!-- Node13&#45;&gt;Node3 -->
<g id="edge13_Node000013_Node000003" class="edge">
<title>Node13&#45;&gt;Node3</title>
<g id="a_edge13_Node000013_Node000003"><a xlink:title=" ">
<path fill="none" stroke="#63b8ff" d="M275.56,-368.46C242.59,-360.59 189.61,-347.93 161.04,-341.1"/>
<polygon fill="#63b8ff" stroke="#63b8ff" points="274.71,-371.86 285.25,-370.78 276.33,-365.05 274.71,-371.86"/>
</a>
</g>
</g>
<!-- Node14&#45;&gt;Node7 -->
<g id="edge25_Node000014_Node000007" class="edge">
<title>Node14&#45;&gt;Node7</title>
<g id="a_edge25_Node000014_Node000007"><a xlink:title=" ">
<path fill="none" stroke="#63b8ff" d="M603.36,-452.76C592.94,-482.74 569.41,-536.2 528.25,-559.38 469.53,-592.44 387.47,-582.63 341.42,-573.12"/>
<polygon fill="#63b8ff" stroke="#63b8ff" points="606.56,-454.22 606.35,-443.63 599.91,-452.04 606.56,-454.22"/>
</a>
</g>
</g>
<!-- Node15 -->
<g id="Node000015" class="node">
<title>Node15</title>
<g id="a_Node000015"><a xlink:href="carrinho_2nrf24__avr_8c.html#a0f64caa74329fd5799a33f30bd8ebf82" target="_top" xlink:title=" ">
<polygon fill="white" stroke="#666666" points="513.62,-365.75 421.88,-365.75 421.88,-345 513.62,-345 513.62,-365.75"/>
<text xml:space="preserve" text-anchor="middle" x="467.75" y="-352.25" font-family="Helvetica,sans-Serif" font-size="10.00">nrf24_available</text>
</a>
</g>
</g>
<!-- Node14&#45;&gt;Node15 -->
<g id="edge16_Node000014_Node000015" class="edge">
<title>Node14&#45;&gt;Node15</title>
<g id="a_edge16_Node000014_Node000015"><a xlink:title=" ">
<path fill="none" stroke="#63b8ff" d="M580.08,-415.33C552.53,-400.49 512.37,-378.87 488.57,-366.05"/>
<polygon fill="#63b8ff" stroke="#63b8ff" points="578.16,-418.27 588.62,-419.93 581.48,-412.11 578.16,-418.27"/>
</a>
</g>
</g>
<!-- Node16 -->
<g id="Node000016" class="node">
<title>Node16</title>
<g id="a_Node000016"><a xlink:href="carrinho_2nrf24__avr_8c.html#a71c5628e9583f6a6fd0871b3ae1bf6df" target="_top" xlink:title=" ">
<polygon fill="white" stroke="#666666" points="362.25,-424.75 248.75,-424.75 248.75,-404 362.25,-404 362.25,-424.75"/>
<text xml:space="preserve" text-anchor="middle" x="305.5" y="-411.25" font-family="Helvetica,sans-Serif" font-size="10.00">nrf24_startListening</text>
</a>
</g>
</g>
<!-- Node14&#45;&gt;Node16 -->
<g id="edge19_Node000014_Node000016" class="edge">
<title>Node14&#45;&gt;Node16</title>
<g id="a_edge19_Node000014_Node000016"><a xlink:title=" ">
<path fill="none" stroke="#63b8ff" d="M569.73,-429.13C516.58,-426.15 422.57,-420.88 362.47,-417.51"/>
<polygon fill="#63b8ff" stroke="#63b8ff" points="569.37,-432.61 579.55,-429.68 569.76,-425.62 569.37,-432.61"/>
</a>
</g>
</g>
<!-- Node17 -->
<g id="Node000017" class="node">
<title>Node17</title>
<g id="a_Node000017"><a xlink:href="carrinho_2nrf24__avr_8c.html#a33899bc3c0f4d2293f37c306d0b8e297" target="_top" xlink:title=" ">
<polygon fill="white" stroke="#666666" points="523.75,-517.75 411.75,-517.75 411.75,-497 523.75,-497 523.75,-517.75"/>
<text xml:space="preserve" text-anchor="middle" x="467.75" y="-504.25" font-family="Helvetica,sans-Serif" font-size="10.00">nrf24_stopListening</text>
</a>
</g>
</g>
<!-- Node14&#45;&gt;Node17 -->
<g id="edge22_Node000014_Node000017" class="edge">
<title>Node14&#45;&gt;Node17</title>
<g id="a_edge22_Node000014_Node000017"><a xlink:title=" ">
<path fill="none" stroke="#63b8ff" d="M585.63,-448.49C569.75,-459.28 548.29,-473.06 528.25,-483.38 518.84,-488.22 508.22,-492.77 498.59,-496.58"/>
<polygon fill="#63b8ff" stroke="#63b8ff" points="587.23,-451.63 593.48,-443.08 583.26,-445.87 587.23,-451.63"/>
</a>
</g>
</g>
<!-- Node15&#45;&gt;Node4 -->
<g id="edge18_Node000015_Node000004" class="edge">
<title>Node15&#45;&gt;Node4</title>
<g id="a_edge18_Node000015_Node000004"><a xlink:title=" ">
<path fill="none" stroke="#63b8ff" d="M431.83,-340.16C413.92,-332.69 391.65,-323.93 371.25,-317.38 294.68,-292.78 200.92,-272.51 160.89,-264.3"/>
<polygon fill="#63b8ff" stroke="#63b8ff" points="430.38,-343.35 440.96,-344.01 433.11,-336.9 430.38,-343.35"/>
</a>
</g>
</g>
<!-- Node15&#45;&gt;Node13 -->
<g id="edge17_Node000015_Node000013" class="edge">
<title>Node15&#45;&gt;Node13</title>
<g id="a_edge17_Node000015_Node000013"><a xlink:title=" ">
<path fill="none" stroke="#63b8ff" d="M410.41,-362.41C380.27,-366.17 345.19,-370.55 324.47,-373.13"/>
<polygon fill="#63b8ff" stroke="#63b8ff" points="410.69,-365.9 420.18,-361.19 409.83,-358.95 410.69,-365.9"/>
</a>
</g>
</g>
<!-- Node16&#45;&gt;Node3 -->
<g id="edge20_Node000016_Node000003" class="edge">
<title>Node16&#45;&gt;Node3</title>
<g id="a_edge20_Node000016_Node000003"><a xlink:title=" ">
<path fill="none" stroke="#63b8ff" d="M253.37,-399.81C248.71,-398.12 244.11,-396.3 239.75,-394.38 209.07,-380.83 175.97,-359.89 157.02,-347.22"/>
<polygon fill="#63b8ff" stroke="#63b8ff" points="252.22,-403.12 262.81,-403.04 254.48,-396.49 252.22,-403.12"/>
</a>
</g>
</g>
<!-- Node16&#45;&gt;Node4 -->
<g id="edge21_Node000016_Node000004" class="edge">
<title>Node16&#45;&gt;Node4</title>
<g id="a_edge21_Node000016_Node000004"><a xlink:title=" ">
<path fill="none" stroke="#63b8ff" d="M244.37,-397.96C242.76,-396.84 241.21,-395.65 239.75,-394.38 211.26,-369.56 226.14,-347.8 203.75,-317.38 190.17,-298.92 169.93,-281.79 156.19,-271.23"/>
<polygon fill="#63b8ff" stroke="#63b8ff" points="242.43,-400.88 252.85,-402.81 245.91,-394.81 242.43,-400.88"/>
</a>
</g>
</g>
<!-- Node17&#45;&gt;Node7 -->
<g id="edge24_Node000017_Node000007" class="edge">
<title>Node17&#45;&gt;Node7</title>
<g id="a_edge24_Node000017_Node000007"><a xlink:title=" ">
<path fill="none" stroke="#63b8ff" d="M425.68,-521.98C397.98,-531.83 362.05,-544.62 336.91,-553.56"/>
<polygon fill="#63b8ff" stroke="#63b8ff" points="426.56,-525.39 434.8,-518.74 424.21,-518.79 426.56,-525.39"/>
</a>
</g>
</g>
<!-- Node17&#45;&gt;Node9 -->
<g id="edge23_Node000017_Node000009" class="edge">
<title>Node17&#45;&gt;Node9</title>
<g id="a_edge23_Node000017_Node000009"><a xlink:title=" ">
<path fill="none" stroke="#63b8ff" d="M400.46,-507.38C297.11,-507.38 102.97,-507.38 40.95,-507.38"/>
<polygon fill="#63b8ff" stroke="#63b8ff" points="400.18,-510.88 410.18,-507.38 400.18,-503.88 400.18,-510.88"/>
</a>
</g>
</g>
<!-- Node19&#45;&gt;Node7 -->
<g id="edge28_Node000019_Node000007" class="edge">
<title>Node19&#45;&gt;Node7</title>
<g id="a_edge28_Node000019_Node000007"><a xlink:title=" ">
<path fill="none" stroke="#63b8ff" d="M567.17,-635.29C525.35,-646.64 460.34,-658.15 407.25,-640.38 368.4,-627.36 332.55,-592.81 316.04,-575.13"/>
<polygon fill="#63b8ff" stroke="#63b8ff" points="567.95,-638.71 576.61,-632.61 566.03,-631.97 567.95,-638.71"/>
</a>
</g>
</g>
<!-- Node20&#45;&gt;Node2 -->
<g id="edge30_Node000020_Node000002" class="edge">
<title>Node20&#45;&gt;Node2</title>
<g id="a_edge30_Node000020_Node000002"><a xlink:title=" ">
<path fill="none" stroke="#63b8ff" d="M571.76,-283.69C558.15,-278.76 542.63,-273.47 528.25,-269.38 463.66,-250.99 386.74,-235.8 342.57,-227.71"/>
<polygon fill="#63b8ff" stroke="#63b8ff" points="570.19,-286.84 580.79,-287.02 572.62,-280.28 570.19,-286.84"/>
</a>
</g>
</g>
<!-- Node20&#45;&gt;Node7 -->
<g id="edge45_Node000020_Node000007" class="edge">
<title>Node20&#45;&gt;Node7</title>
<g id="a_edge45_Node000020_Node000007"><a xlink:title=" ">
<path fill="none" stroke="#63b8ff" d="M600.9,-319.41C591.34,-342.16 575.98,-379.55 564.25,-412.38 546.37,-462.41 568.29,-491.45 528.25,-526.38 500.95,-550.19 396.78,-559.44 341.48,-562.73"/>
<polygon fill="#63b8ff" stroke="#63b8ff" points="604.06,-320.93 604.74,-310.35 597.62,-318.2 604.06,-320.93"/>
</a>
</g>
</g>
<!-- Node20&#45;&gt;Node12 -->
<g id="edge36_Node000020_Node000012" class="edge">
<title>Node20&#45;&gt;Node12</title>
<g id="a_edge36_Node000020_Node000012"><a xlink:title=" ">
<path fill="none" stroke="#63b8ff" d="M600.06,-277.47C587.07,-251.98 561.83,-209.21 528.25,-184.38 520.63,-178.74 511.31,-174.62 502.34,-171.64"/>
<polygon fill="#63b8ff" stroke="#63b8ff" points="596.79,-278.76 604.34,-286.19 603.07,-275.67 596.79,-278.76"/>
</a>
</g>
</g>
<!-- Node20&#45;&gt;Node16 -->
<g id="edge43_Node000020_Node000016" class="edge">
<title>Node20&#45;&gt;Node16</title>
<g id="a_edge43_Node000020_Node000016"><a xlink:title=" ">
<path fill="none" stroke="#63b8ff" d="M594.8,-317.68C579.88,-335.37 555.38,-360.79 528.25,-374.38 475.95,-400.55 409.11,-409.8 362.55,-412.96"/>
<polygon fill="#63b8ff" stroke="#63b8ff" points="597.12,-320.37 600.74,-310.42 591.7,-315.95 597.12,-320.37"/>
</a>
</g>
</g>
<!-- Node20&#45;&gt;Node17 -->
<g id="edge44_Node000020_Node000017" class="edge">
<title>Node20&#45;&gt;Node17</title>
<g id="a_edge44_Node000020_Node000017"><a xlink:title=" ">
<path fill="none" stroke="#63b8ff" d="M601.57,-319.57C583.43,-365.52 540.84,-471.19 528.25,-483.38 522.57,-488.88 515.46,-493.17 508.16,-496.51"/>
<polygon fill="#63b8ff" stroke="#63b8ff" points="604.76,-321.02 605.17,-310.43 598.25,-318.46 604.76,-321.02"/>
</a>
</g>
</g>
<!-- Node21 -->
<g id="Node000021" class="node">
<title>Node21</title>
<g id="a_Node000021"><a xlink:href="carrinho_2nrf24__avr_8c.html#a5af2f11537aed8a56d8489355af0ff16" target="_top" xlink:title=" ">
<polygon fill="white" stroke="#666666" points="371.25,-346.75 239.75,-346.75 239.75,-326 371.25,-326 371.25,-346.75"/>
<text xml:space="preserve" text-anchor="middle" x="305.5" y="-333.25" font-family="Helvetica,sans-Serif" font-size="10.00">nrf24_openReadingPipe</text>
</a>
</g>
</g>
<!-- Node20&#45;&gt;Node21 -->
<g id="edge31_Node000020_Node000021" class="edge">
<title>Node20&#45;&gt;Node21</title>
<g id="a_edge31_Node000020_Node000021"><a xlink:title=" ">
<path fill="none" stroke="#63b8ff" d="M568.5,-303.56C517.76,-309.91 431.16,-320.76 371.5,-328.23"/>
<polygon fill="#63b8ff" stroke="#63b8ff" points="568.69,-307.06 578.18,-302.35 567.82,-300.12 568.69,-307.06"/>
</a>
</g>
</g>
<!-- Node22 -->
<g id="Node000022" class="node">
<title>Node22</title>
<g id="a_Node000022"><a xlink:href="carrinho_2nrf24__avr_8c.html#a21d638882f746748de35324bdc21f448" target="_top" xlink:title=" ">
<polygon fill="white" stroke="#666666" points="203.75,-479.75 76.75,-479.75 76.75,-459 203.75,-459 203.75,-479.75"/>
<text xml:space="preserve" text-anchor="middle" x="140.25" y="-466.25" font-family="Helvetica,sans-Serif" font-size="10.00">nrf24_openWritingPipe</text>
</a>
</g>
</g>
<!-- Node20&#45;&gt;Node22 -->
<g id="edge34_Node000020_Node000022" class="edge">
<title>Node20&#45;&gt;Node22</title>
<g id="a_edge34_Node000020_Node000022"><a xlink:title=" ">
<path fill="none" stroke="#63b8ff" d="M600.1,-319.12C587.27,-343.89 562.32,-384.59 528.25,-405.38 427.24,-467 285.07,-474.46 204.15,-472.88"/>
<polygon fill="#63b8ff" stroke="#63b8ff" points="603.14,-320.85 604.45,-310.34 596.87,-317.74 603.14,-320.85"/>
</a>
</g>
</g>
<!-- Node23 -->
<g id="Node000023" class="node">
<title>Node23</title>
<g id="a_Node000023"><a xlink:href="carrinho_2nrf24__avr_8c.html#a49aa88b1042d6d62114cfbca271d9e2b" target="_top" xlink:title=" ">
<polygon fill="white" stroke="#666666" points="356.25,-270.75 254.75,-270.75 254.75,-250 356.25,-250 356.25,-270.75"/>
<text xml:space="preserve" text-anchor="middle" x="305.5" y="-257.25" font-family="Helvetica,sans-Serif" font-size="10.00">nrf24_setChannel</text>
</a>
</g>
</g>
<!-- Node20&#45;&gt;Node23 -->
<g id="edge37_Node000020_Node000023" class="edge">
<title>Node20&#45;&gt;Node23</title>
<g id="a_edge37_Node000020_Node000023"><a xlink:title=" ">
<path fill="none" stroke="#63b8ff" d="M568.58,-293.2C513.44,-286.3 415.85,-274.07 356.57,-266.65"/>
<polygon fill="#63b8ff" stroke="#63b8ff" points="567.82,-296.63 578.18,-294.4 568.69,-289.69 567.82,-296.63"/>
</a>
</g>
</g>
<!-- Node24 -->
<g id="Node000024" class="node">
<title>Node24</title>
<g id="a_Node000024"><a xlink:href="carrinho_2nrf24__avr_8c.html#aaf2900e7932ebbf7f0ecdc6bce5840e1" target="_top" xlink:title=" ">
<polygon fill="white" stroke="#666666" points="528.25,-213.75 407.25,-213.75 407.25,-193 528.25,-193 528.25,-213.75"/>
<text xml:space="preserve" text-anchor="middle" x="467.75" y="-200.25" font-family="Helvetica,sans-Serif" font-size="10.00">nrf24_setPayloadSize</text>
</a>
</g>
</g>
<!-- Node20&#45;&gt;Node24 -->
<g id="edge40_Node000020_Node000024" class="edge">
<title>Node20&#45;&gt;Node24</title>
<g id="a_edge40_Node000020_Node000024"><a xlink:title=" ">
<path fill="none" stroke="#63b8ff" d="M592.16,-279.83C576.5,-264.24 552.44,-242.19 528.25,-227.38 519.89,-222.25 510.25,-217.82 501.19,-214.2"/>
<polygon fill="#63b8ff" stroke="#63b8ff" points="589.37,-281.99 598.88,-286.66 594.36,-277.08 589.37,-281.99"/>
</a>
</g>
</g>
<!-- Node21&#45;&gt;Node3 -->
<g id="edge32_Node000021_Node000003" class="edge">
<title>Node21&#45;&gt;Node3</title>
<g id="a_edge32_Node000021_Node000003"><a xlink:title=" ">
<path fill="none" stroke="#63b8ff" d="M228.2,-336.38C203.42,-336.38 177.98,-336.38 161.07,-336.38"/>
<polygon fill="#63b8ff" stroke="#63b8ff" points="228,-339.88 238,-336.38 228,-332.88 228,-339.88"/>
</a>
</g>
</g>
<!-- Node21&#45;&gt;Node4 -->
<g id="edge33_Node000021_Node000004" class="edge">
<title>Node21&#45;&gt;Node4</title>
<g id="a_edge33_Node000021_Node000004"><a xlink:title=" ">
<path fill="none" stroke="#63b8ff" d="M262.36,-321.66C254.76,-318.76 246.97,-315.6 239.75,-312.38 211.15,-299.59 179.3,-282.16 159.77,-271.09"/>
<polygon fill="#63b8ff" stroke="#63b8ff" points="260.87,-324.85 271.46,-325.06 263.32,-318.29 260.87,-324.85"/>
</a>
</g>
</g>
<!-- Node22&#45;&gt;Node9 -->
<g id="edge35_Node000022_Node000009" class="edge">
<title>Node22&#45;&gt;Node9</title>
<g id="a_edge35_Node000022_Node000009"><a xlink:title=" ">
<path fill="none" stroke="#63b8ff" d="M94.84,-483.69C76.24,-489.69 55.57,-496.35 40.91,-501.08"/>
<polygon fill="#63b8ff" stroke="#63b8ff" points="95.9,-487.03 104.35,-480.63 93.75,-480.36 95.9,-487.03"/>
</a>
</g>
</g>
<!-- Node23&#45;&gt;Node3 -->
<g id="edge38_Node000023_Node000003" class="edge">
<title>Node23&#45;&gt;Node3</title>
<g id="a_edge38_Node000023_Node000003"><a xlink:title=" ">
<path fill="none" stroke="#63b8ff" d="M271.35,-275.81C238.26,-291.21 188.5,-314.38 161.1,-327.13"/>
<polygon fill="#63b8ff" stroke="#63b8ff" points="272.5,-279.14 280.08,-271.74 269.54,-272.79 272.5,-279.14"/>
</a>
</g>
</g>
<!-- Node23&#45;&gt;Node4 -->
<g id="edge39_Node000023_Node000004" class="edge">
<title>Node23&#45;&gt;Node4</title>
<g id="a_edge39_Node000023_Node000004"><a xlink:title=" ">
<path fill="none" stroke="#63b8ff" d="M243.29,-260.38C214.21,-260.38 181.44,-260.38 161.06,-260.38"/>
<polygon fill="#63b8ff" stroke="#63b8ff" points="243.12,-263.88 253.12,-260.38 243.12,-256.88 243.12,-263.88"/>
</a>
</g>
</g>
<!-- Node24&#45;&gt;Node2 -->
<g id="edge42_Node000024_Node000002" class="edge">
<title>Node24&#45;&gt;Node2</title>
<g id="a_edge42_Node000024_Node000002"><a xlink:title=" ">
<path fill="none" stroke="#63b8ff" d="M395.73,-211.35C377.31,-213.42 358.23,-215.56 342.48,-217.33"/>
<polygon fill="#63b8ff" stroke="#63b8ff" points="396.03,-214.84 405.57,-210.25 395.25,-207.88 396.03,-214.84"/>
</a>
</g>
</g>
<!-- Node24&#45;&gt;Node4 -->
<g id="edge41_Node000024_Node000004" class="edge">
<title>Node24&#45;&gt;Node4</title>
<g id="a_edge41_Node000024_Node000004"><a xlink:title=" ">
<path fill="none" stroke="#63b8ff" d="M395.61,-193.42C350.21,-189.41 290.58,-188.52 239.75,-202.38 206.05,-211.56 172.13,-235.53 154.22,-249.61"/>
<polygon fill="#63b8ff" stroke="#63b8ff" points="395.03,-196.88 405.32,-194.35 395.7,-189.91 395.03,-196.88"/>
</a>
</g>
</g>
</g>
</svg>

<g id="navigator" transform="translate(0 0)" fill="#404254">
  <rect fill="#f2f5e9" fill-opacity="0.5" stroke="#606060" stroke-width=".5" x="0" y="0" width="60" height="60"/>
  <use id="zoomplus" xlink:href="#zoomPlus" x="17" y="9" onmousedown="handleZoom(evt,'in')"/>
  <use id="zoomminus" xlink:href="#zoomMin" x="42" y="9" onmousedown="handleZoom(evt,'out')"/>
  <use id="reset" xlink:href="#resetDef" x="30" y="36" onmousedown="handleReset()"/>
   <use id="arrowup" xlink:href="#arrowUp" x="0" y="0" onmousedown="handlePan(0,-1)"/>
  <use id="arrowright" xlink:href="#arrowRight" x="0" y="0" onmousedown="handlePan(1,0)"/>
  <use id="arrowdown" xlink:href="#arrowDown" x="0" y="0" onmousedown="handlePan(0,1)"/>
  <use id="arrowleft" xlink:href="#arrowLeft" x="0" y="0" onmousedown="handlePan(-1,0)"/>
</g>
<svg viewBox="0 0 15 15" width="100%" height="30px" preserveAspectRatio="xMaxYMin meet">
 <g id="arrow_out" transform="scale(0.3 0.3)">
  <a xlink:href="carrinho_2nrf24__avr_8c_adaef88bc02a8e805de3b3a82bf317549_icgraph_org.svg" target="_base">
   <rect id="button" ry="5" rx="5" y="6" x="6" height="38" width="38"
        fill="#f2f5e9" fill-opacity="0.5" stroke="#606060" stroke-width="1.0"/>
   <path id="arrow"
     d="M 11.500037,31.436501 C 11.940474,20.09759 22.043105,11.32322 32.158766,21.979434 L 37.068811,17.246167 C 37.068811,17.246167 37.088388,32 37.088388,32 L 22.160133,31.978069 C 22.160133,31.978069 26.997745,27.140456 26.997745,27.140456 C 18.528582,18.264221 13.291696,25.230495 11.500037,31.436501 z"
     style="fill:#404040;"/>
  </a>
 </g>
</svg>

<style type='text/css'>
<![CDATA[
[data-mouse-over-selected='false'] { opacity: 0.7; }
[data-mouse-over-selected='true']  { opacity: 1.0; }
]]>
</style>
<script type="application/ecmascript"><![CDATA[
document.addEventListener('DOMContentLoaded', (event) => {
  highlightEdges();
  highlightAdjacentNodes();
});
]]></script>
</svg>
