<?xml version="1.0" encoding="UTF-8" standalone="no"?>
<!DOCTYPE svg PUBLIC "-//W3C//DTD SVG 1.1//EN"
 "http://www.w3.org/Graphics/SVG/1.1/DTD/svg11.dtd">
<!-- Generated by graphviz version 14.0.4 (0)
 -->
<!-- Title: spi_transfer Pages: 1 -->
<!--zoomable 533 -->

<svg id="main" version="1.1" xmlns="http://www.w3.org/2000/svg" xmlns:xlink="http://www.w3.org/1999/xlink" xml:space="preserve" onload="init(evt)">

<style type="text/css"><![CDATA[
.node, .edge {opacity: 0.7;}
.node.selected, .edge.selected {opacity: 1;}
.edge:hover path { stroke: red; }
.edge:hover polygon { stroke: red; fill: red; }
]]></style>

<defs>
  <circle id="rim" cx="0" cy="0" r="7"/>
  <circle id="rim2" cx="0" cy="0" r="3.5"/>
  <g id="zoomPlus">
    <use xlink:href="#rim" fill="#404040"><set attributeName="fill" to="#808080" begin="zoomplus.mouseover" end="zoomplus.mouseout"/></use>
    <path d="M-4,0h8M0,-4v8" fill="none" stroke="white" stroke-width="1.5" pointer-events="none"/>
  </g>
  <g id="zoomMin">
    <use xlink:href="#rim" fill="#404040"><set attributeName="fill" to="#808080" begin="zoomminus.mouseover" end="zoomminus.mouseout"/></use>
    <path d="M-4,0h8" fill="none" stroke="white" stroke-width="1.5" pointer-events="none"/>
  </g>
  <g id="arrowUp" transform="translate(30 24)">
    <use xlink:href="#rim"/>
    <path pointer-events="none" fill="none" stroke="white" stroke-width="1.5" d="M0,-3.0v7 M-2.5,-0.5L0,-3.0L2.5,-0.5"/>
  </g>
  <g id="arrowRight" transform="rotate(90) translate(36 -43)">
    <use xlink:href="#rim"/>
    <path pointer-events="none" fill="none" stroke="white" stroke-width="1.5" d="M0,-3.0v7 M-2.5,-0.5L0,-3.0L2.5,-0.5"/>
  </g>
  <g id="arrowDown" transform="rotate(180) translate(-30 -48)">
    <use xlink:href="#rim"/>
    <path pointer-events="none" fill="none" stroke="white" stroke-width="1.5" d="M0,-3.0v7 M-2.5,-0.5L0,-3.0L2.5,-0.5"/>
  </g>
  <g id="arrowLeft" transform="rotate(270) translate(-36 17)">
    <use xlink:href="#rim"/>
    <path pointer-events="none" fill="none" stroke="white" stroke-width="1.5" d="M0,-3.0v7 M-2.5,-0.5L0,-3.0L2.5,-0.5"/>
  </g>
  <g id="resetDef">
    <use xlink:href="#rim2" fill="#404040"><set attributeName="fill" to="#808080" begin="reset.mouseover" end="reset.mouseout"/></use>
  </g>
</defs>
<script type="application/ecmascript">
var viewWidth = 697;
var viewHeight = 533;
var sectionId = 'dynsection-43';
</script>
<script type="application/ecmascript" xlink:href="svg.min.js"/>
<svg id="graph" class="graph">
<g id="viewport">
<title>spi_transfer</title>
<!-- Node1 -->
<g id="Node000001" class="node">
<title>Node1</title>
<g id="a_Node000001"><a xlink:title=" ">
<polygon fill="#999999" stroke="#666666" points="689.25,-274.66 615.5,-274.66 615.5,-253.91 689.25,-253.91 689.25,-274.66"/>
<text xml:space="preserve" text-anchor="middle" x="652.38" y="-261.16" font-family="Helvetica,sans-Serif" font-size="10.00">spi_transfer</text>
</a>
</g>
</g>
<!-- Node2 -->
<g id="Node000002" class="node">
<title>Node2</title>
<g id="a_Node000002"><a xlink:href="carrinho_2nrf24__avr_8c.html#a9351c150d32184a95db9ab4a802ed860" target="_top" xlink:title=" ">
<polygon fill="white" stroke="#666666" points="575.75,-409.66 490,-409.66 490,-388.91 575.75,-388.91 575.75,-409.66"/>
<text xml:space="preserve" text-anchor="middle" x="532.88" y="-396.16" font-family="Helvetica,sans-Serif" font-size="10.00">nrf24_flush_rx</text>
</a>
</g>
</g>
<!-- Node1&#45;&gt;Node2 -->
<g id="edge1_Node000001_Node000002" class="edge">
<title>Node1&#45;&gt;Node2</title>
<g id="a_edge1_Node000001_Node000002"><a xlink:title=" ">
<path fill="none" stroke="#63b8ff" d="M641.9,-285.25C630.12,-309.44 608.03,-349.22 579.5,-375.29 573.82,-380.48 566.8,-384.89 559.99,-388.46"/>
<polygon fill="#63b8ff" stroke="#63b8ff" points="644.97,-286.96 646.06,-276.42 638.63,-283.97 644.97,-286.96"/>
</a>
</g>
</g>
<!-- Node3 -->
<g id="Node000003" class="node">
<title>Node3</title>
<g id="a_Node000003"><a xlink:href="carrinho_2nrf24__avr_8c.html#a617ab4b2604d6f482796e35da85369ad" target="_top" xlink:title=" ">
<polygon fill="white" stroke="#666666" points="429.62,-524.66 343.88,-524.66 343.88,-503.91 429.62,-503.91 429.62,-524.66"/>
<text xml:space="preserve" text-anchor="middle" x="386.75" y="-511.16" font-family="Helvetica,sans-Serif" font-size="10.00">nrf24_flush_tx</text>
</a>
</g>
</g>
<!-- Node1&#45;&gt;Node3 -->
<g id="edge2_Node000001_Node000003" class="edge">
<title>Node1&#45;&gt;Node3</title>
<g id="a_edge2_Node000001_Node000003"><a xlink:title=" ">
<path fill="none" stroke="#63b8ff" d="M637.07,-284.22C623.79,-301.51 602.64,-326.23 579.5,-342.29 542.73,-367.8 517.45,-348.2 486.25,-380.29 454.49,-412.96 479.31,-441.19 450.25,-476.29 440.53,-488.03 426.19,-497.11 413.7,-503.45"/>
<polygon fill="#63b8ff" stroke="#63b8ff" points="639.85,-286.34 643.02,-276.23 634.24,-282.15 639.85,-286.34"/>
</a>
</g>
</g>
<!-- Node7 -->
<g id="Node000007" class="node">
<title>Node7</title>
<g id="a_Node000007"><a xlink:href="carrinho_2nrf24__avr_8c.html#a9a23f602a6077c795322702d0a42f48c" target="_top" xlink:title=" ">
<polygon fill="white" stroke="#666666" points="579.5,-177.66 486.25,-177.66 486.25,-156.91 579.5,-156.91 579.5,-177.66"/>
<text xml:space="preserve" text-anchor="middle" x="532.88" y="-164.16" font-family="Helvetica,sans-Serif" font-size="10.00">nrf24_getStatus</text>
</a>
</g>
</g>
<!-- Node1&#45;&gt;Node7 -->
<g id="edge6_Node000001_Node000007" class="edge">
<title>Node1&#45;&gt;Node7</title>
<g id="a_edge6_Node000001_Node000007"><a xlink:title=" ">
<path fill="none" stroke="#63b8ff" d="M636.69,-244.49C623.3,-227.54 602.2,-203.37 579.5,-187.29 574.56,-183.79 568.91,-180.71 563.31,-178.08"/>
<polygon fill="#63b8ff" stroke="#63b8ff" points="633.85,-246.53 642.71,-252.33 639.4,-242.27 633.85,-246.53"/>
</a>
</g>
</g>
<!-- Node8 -->
<g id="Node000008" class="node">
<title>Node8</title>
<g id="a_Node000008"><a xlink:href="carrinho_2nrf24__avr_8c.html#ac4a676257b5b86b05f4ea608636cb2cf" target="_top" xlink:title=" ">
<polygon fill="white" stroke="#666666" points="573.88,-216.66 491.88,-216.66 491.88,-195.91 573.88,-195.91 573.88,-216.66"/>
<text xml:space="preserve" text-anchor="middle" x="532.88" y="-203.16" font-family="Helvetica,sans-Serif" font-size="10.00">read_payload</text>
</a>
</g>
</g>
<!-- Node1&#45;&gt;Node8 -->
<g id="edge7_Node000001_Node000008" class="edge">
<title>Node1&#45;&gt;Node8</title>
<g id="a_edge7_Node000001_Node000008"><a xlink:title=" ">
<path fill="none" stroke="#63b8ff" d="M622.26,-248.28C609.29,-241.3 593.74,-233.16 579.5,-226.29 572.96,-223.13 565.8,-219.89 559.13,-216.97"/>
<polygon fill="#63b8ff" stroke="#63b8ff" points="620.26,-251.17 630.72,-252.86 623.59,-245.02 620.26,-251.17"/>
</a>
</g>
</g>
<!-- Node13 -->
<g id="Node000013" class="node">
<title>Node13</title>
<g id="a_Node000013"><a xlink:href="carrinho_2nrf24__avr_8c.html#abefdb1d58b989853c0646a6c8b18b7d3" target="_top" xlink:title=" ">
<polygon fill="white" stroke="#666666" points="562.25,-294.66 503.5,-294.66 503.5,-273.91 562.25,-273.91 562.25,-294.66"/>
<text xml:space="preserve" text-anchor="middle" x="532.88" y="-281.16" font-family="Helvetica,sans-Serif" font-size="10.00">read_reg</text>
</a>
</g>
</g>
<!-- Node1&#45;&gt;Node13 -->
<g id="edge12_Node000001_Node000013" class="edge">
<title>Node1&#45;&gt;Node13</title>
<g id="a_edge12_Node000001_Node000013"><a xlink:title=" ">
<path fill="none" stroke="#63b8ff" d="M604.17,-272.32C590.14,-274.71 575.19,-277.26 562.7,-279.38"/>
<polygon fill="#63b8ff" stroke="#63b8ff" points="604.4,-275.84 613.67,-270.71 603.22,-268.93 604.4,-275.84"/>
</a>
</g>
</g>
<!-- Node18 -->
<g id="Node000018" class="node">
<title>Node18</title>
<g id="a_Node000018"><a xlink:href="carrinho_2nrf24__avr_8c.html#a31d6889b046799ad06c03ce52c9bb640" target="_top" xlink:title=" ">
<polygon fill="white" stroke="#666666" points="572.75,-138.66 493,-138.66 493,-117.91 572.75,-117.91 572.75,-138.66"/>
<text xml:space="preserve" text-anchor="middle" x="532.88" y="-125.16" font-family="Helvetica,sans-Serif" font-size="10.00">read_reg_buf</text>
</a>
</g>
</g>
<!-- Node1&#45;&gt;Node18 -->
<g id="edge24_Node000001_Node000018" class="edge">
<title>Node1&#45;&gt;Node18</title>
<g id="a_edge24_Node000001_Node000018"><a xlink:title=" ">
<path fill="none" stroke="#63b8ff" d="M642.95,-243.12C631.85,-217.59 610.07,-174.81 579.5,-148.29 575.32,-144.66 570.38,-141.6 565.32,-139.04"/>
<polygon fill="#63b8ff" stroke="#63b8ff" points="639.63,-244.25 646.72,-252.12 646.09,-241.55 639.63,-244.25"/>
</a>
</g>
</g>
<!-- Node19 -->
<g id="Node000019" class="node">
<title>Node19</title>
<g id="a_Node000019"><a xlink:href="carrinho_2nrf24__avr_8c.html#a3c9fd94e9894bf0792d4ff5891c16436" target="_top" xlink:title=" ">
<polygon fill="white" stroke="#666666" points="575.38,-333.66 490.38,-333.66 490.38,-312.91 575.38,-312.91 575.38,-333.66"/>
<text xml:space="preserve" text-anchor="middle" x="532.88" y="-320.16" font-family="Helvetica,sans-Serif" font-size="10.00">write_payload</text>
</a>
</g>
</g>
<!-- Node1&#45;&gt;Node19 -->
<g id="edge25_Node000001_Node000019" class="edge">
<title>Node1&#45;&gt;Node19</title>
<g id="a_edge25_Node000001_Node000019"><a xlink:title=" ">
<path fill="none" stroke="#63b8ff" d="M622.58,-280.63C609.56,-287.84 593.89,-296.25 579.5,-303.29 573.13,-306.41 566.16,-309.58 559.63,-312.45"/>
<polygon fill="#63b8ff" stroke="#63b8ff" points="624.04,-283.83 631.06,-275.9 620.62,-277.71 624.04,-283.83"/>
</a>
</g>
</g>
<!-- Node20 -->
<g id="Node000020" class="node">
<title>Node20</title>
<g id="a_Node000020"><a xlink:href="carrinho_2nrf24__avr_8c.html#a08bc978021db604d02a6da754f73e7e2" target="_top" xlink:title=" ">
<polygon fill="white" stroke="#666666" points="563.75,-255.66 502,-255.66 502,-234.91 563.75,-234.91 563.75,-255.66"/>
<text xml:space="preserve" text-anchor="middle" x="532.88" y="-242.16" font-family="Helvetica,sans-Serif" font-size="10.00">write_reg</text>
</a>
</g>
</g>
<!-- Node1&#45;&gt;Node20 -->
<g id="edge27_Node000001_Node000020" class="edge">
<title>Node1&#45;&gt;Node20</title>
<g id="a_edge27_Node000001_Node000020"><a xlink:title=" ">
<path fill="none" stroke="#63b8ff" d="M604.13,-256.65C590.68,-254.47 576.39,-252.16 564.24,-250.2"/>
<polygon fill="#63b8ff" stroke="#63b8ff" points="603.24,-260.05 613.67,-258.19 604.36,-253.14 603.24,-260.05"/>
</a>
</g>
</g>
<!-- Node4 -->
<g id="Node000004" class="node">
<title>Node4</title>
<g id="a_Node000004"><a xlink:href="carrinho_2nrf24__avr_8c.html#a8232e1982aabc6f52408c318402cb578" target="_top" xlink:title=" ">
<polygon fill="white" stroke="#666666" points="257.25,-429.66 185.75,-429.66 185.75,-408.91 257.25,-408.91 257.25,-429.66"/>
<text xml:space="preserve" text-anchor="middle" x="221.5" y="-416.16" font-family="Helvetica,sans-Serif" font-size="10.00">nrf24_write</text>
</a>
</g>
</g>
<!-- Node3&#45;&gt;Node4 -->
<g id="edge3_Node000003_Node000004" class="edge">
<title>Node3&#45;&gt;Node4</title>
<g id="a_edge3_Node000003_Node000004"><a xlink:title=" ">
<path fill="none" stroke="#63b8ff" d="M342.67,-499.36C336.04,-496.61 329.37,-493.56 323.25,-490.29 289.65,-472.35 254.06,-445.03 235.5,-430.05"/>
<polygon fill="#63b8ff" stroke="#63b8ff" points="340.96,-502.45 351.55,-502.88 343.54,-495.94 340.96,-502.45"/>
</a>
</g>
</g>
<!-- Node5 -->
<g id="Node000005" class="node">
<title>Node5</title>
<g id="a_Node000005"><a xlink:href="controle_8c.html#afe461d27b9c48d5921c00d521181f12f" target="_top" xlink:title="Loop principal: lê controles, aplica deadzone, envia por RF e atualiza LEDs.">
<polygon fill="white" stroke="#666666" points="116.75,-414.66 79.75,-414.66 79.75,-393.91 116.75,-393.91 116.75,-414.66"/>
<text xml:space="preserve" text-anchor="middle" x="98.25" y="-401.16" font-family="Helvetica,sans-Serif" font-size="10.00">loop</text>
</a>
</g>
</g>
<!-- Node4&#45;&gt;Node5 -->
<g id="edge4_Node000004_Node000005" class="edge">
<title>Node4&#45;&gt;Node5</title>
<g id="a_edge4_Node000004_Node000005"><a xlink:title=" ">
<path fill="none" stroke="#63b8ff" d="M174.02,-413.54C154.11,-411.08 132.04,-408.35 117.08,-406.49"/>
<polygon fill="#63b8ff" stroke="#63b8ff" points="173.57,-417.01 183.93,-414.76 174.43,-410.06 173.57,-417.01"/>
</a>
</g>
</g>
<!-- Node6 -->
<g id="Node000006" class="node">
<title>Node6</title>
<g id="a_Node000006"><a xlink:href="controle_8c.html#ae66f6b31b5ad750f1fe042a706a4e3d4" target="_top" xlink:title="Função principal do firmware.">
<polygon fill="white" stroke="#666666" points="40.75,-380.66 0,-380.66 0,-359.91 40.75,-359.91 40.75,-380.66"/>
<text xml:space="preserve" text-anchor="middle" x="20.38" y="-367.16" font-family="Helvetica,sans-Serif" font-size="10.00">main</text>
</a>
</g>
</g>
<!-- Node5&#45;&gt;Node6 -->
<g id="edge5_Node000005_Node000006" class="edge">
<title>Node5&#45;&gt;Node6</title>
<g id="a_edge5_Node000005_Node000006"><a xlink:title=" ">
<path fill="none" stroke="#63b8ff" d="M68.92,-391.59C59.66,-387.44 49.58,-382.93 41.09,-379.12"/>
<polygon fill="#63b8ff" stroke="#63b8ff" points="67.33,-394.72 77.89,-395.61 70.19,-388.33 67.33,-394.72"/>
</a>
</g>
</g>
<!-- Node9 -->
<g id="Node000009" class="node">
<title>Node9</title>
<g id="a_Node000009"><a xlink:href="carrinho_2nrf24__avr_8c.html#aa0767db791fc0b45ebadab011c1900bf" target="_top" xlink:title=" ">
<polygon fill="white" stroke="#666666" points="421,-66.66 352.5,-66.66 352.5,-45.91 421,-45.91 421,-66.66"/>
<text xml:space="preserve" text-anchor="middle" x="386.75" y="-53.16" font-family="Helvetica,sans-Serif" font-size="10.00">nrf24_read</text>
</a>
</g>
</g>
<!-- Node8&#45;&gt;Node9 -->
<g id="edge8_Node000008_Node000009" class="edge">
<title>Node8&#45;&gt;Node9</title>
<g id="a_edge8_Node000008_Node000009"><a xlink:title=" ">
<path fill="none" stroke="#63b8ff" d="M488.94,-188.94C488,-188.1 487.1,-187.21 486.25,-186.29 452.61,-149.63 484.73,-116.15 450.25,-80.29 442.52,-72.25 431.79,-66.86 421.41,-63.27"/>
<polygon fill="#63b8ff" stroke="#63b8ff" points="486.87,-191.77 497.06,-194.66 490.9,-186.05 486.87,-191.77"/>
</a>
</g>
</g>
<!-- Node10 -->
<g id="Node000010" class="node">
<title>Node10</title>
<g id="a_Node000010"><a xlink:href="carrinho_8c.html#afe461d27b9c48d5921c00d521181f12f" target="_top" xlink:title="Laço principal contendo toda a lógica do robô.">
<polygon fill="white" stroke="#666666" points="240,-65.66 203,-65.66 203,-44.91 240,-44.91 240,-65.66"/>
<text xml:space="preserve" text-anchor="middle" x="221.5" y="-52.16" font-family="Helvetica,sans-Serif" font-size="10.00">loop</text>
</a>
</g>
</g>
<!-- Node9&#45;&gt;Node10 -->
<g id="edge9_Node000009_Node000010" class="edge">
<title>Node9&#45;&gt;Node10</title>
<g id="a_edge9_Node000009_Node000010"><a xlink:title=" ">
<path fill="none" stroke="#63b8ff" d="M341.05,-56.02C307.82,-55.81 264.25,-55.54 240.26,-55.4"/>
<polygon fill="#63b8ff" stroke="#63b8ff" points="340.79,-59.51 350.81,-56.08 340.83,-52.51 340.79,-59.51"/>
</a>
</g>
</g>
<!-- Node12 -->
<g id="Node000012" class="node">
<title>Node12</title>
<g id="a_Node000012"><a xlink:href="main_8c.html#a840291bc02cba5474a4cb46a9b9566fe" target="_top" xlink:title=" ">
<polygon fill="white" stroke="#666666" points="118.62,-180.66 77.88,-180.66 77.88,-159.91 118.62,-159.91 118.62,-180.66"/>
<text xml:space="preserve" text-anchor="middle" x="98.25" y="-167.16" font-family="Helvetica,sans-Serif" font-size="10.00">main</text>
</a>
</g>
</g>
<!-- Node9&#45;&gt;Node12 -->
<g id="edge11_Node000009_Node000012" class="edge">
<title>Node9&#45;&gt;Node12</title>
<g id="a_edge11_Node000009_Node000012"><a xlink:title=" ">
<path fill="none" stroke="#63b8ff" d="M360.41,-73.26C341.03,-85.66 313.29,-102.19 287.25,-113.29 231.29,-137.15 213.82,-133.15 155.75,-151.29 143.5,-155.12 129.86,-159.69 119.05,-163.4"/>
<polygon fill="#63b8ff" stroke="#63b8ff" points="362.25,-76.24 368.73,-67.85 358.44,-70.37 362.25,-76.24"/>
</a>
</g>
</g>
<!-- Node11 -->
<g id="Node000011" class="node">
<title>Node11</title>
<g id="a_Node000011"><a xlink:href="carrinho_8c.html#ae66f6b31b5ad750f1fe042a706a4e3d4" target="_top" xlink:title="Função principal: inicializa periféricos e roda loop().">
<polygon fill="white" stroke="#666666" points="118.62,-104.66 77.88,-104.66 77.88,-83.91 118.62,-83.91 118.62,-104.66"/>
<text xml:space="preserve" text-anchor="middle" x="98.25" y="-91.16" font-family="Helvetica,sans-Serif" font-size="10.00">main</text>
</a>
</g>
</g>
<!-- Node10&#45;&gt;Node11 -->
<g id="edge10_Node000010_Node000011" class="edge">
<title>Node10&#45;&gt;Node11</title>
<g id="a_edge10_Node000010_Node000011"><a xlink:title=" ">
<path fill="none" stroke="#63b8ff" d="M191.65,-64.03C180.43,-67.48 167.47,-71.51 155.75,-75.29 143.54,-79.23 129.9,-83.81 119.08,-87.49"/>
<polygon fill="#63b8ff" stroke="#63b8ff" points="192.61,-67.4 201.15,-61.13 190.56,-60.7 192.61,-67.4"/>
</a>
</g>
</g>
<!-- Node13&#45;&gt;Node4 -->
<g id="edge23_Node000013_Node000004" class="edge">
<title>Node13&#45;&gt;Node4</title>
<g id="a_edge23_Node000013_Node000004"><a xlink:title=" ">
<path fill="none" stroke="#63b8ff" d="M493.66,-297.88C490.95,-299.76 488.43,-301.89 486.25,-304.29 451.68,-342.38 491.56,-383.64 450.25,-414.29 393.87,-456.11 306.18,-442.34 257.71,-429.96"/>
<polygon fill="#63b8ff" stroke="#63b8ff" points="495.11,-301.08 502.11,-293.13 491.67,-294.98 495.11,-301.08"/>
</a>
</g>
</g>
<!-- Node14 -->
<g id="Node000014" class="node">
<title>Node14</title>
<g id="a_Node000014"><a xlink:href="carrinho_2nrf24__avr_8c.html#a0f64caa74329fd5799a33f30bd8ebf82" target="_top" xlink:title=" ">
<polygon fill="white" stroke="#666666" points="432.62,-294.66 340.88,-294.66 340.88,-273.91 432.62,-273.91 432.62,-294.66"/>
<text xml:space="preserve" text-anchor="middle" x="386.75" y="-281.16" font-family="Helvetica,sans-Serif" font-size="10.00">nrf24_available</text>
</a>
</g>
</g>
<!-- Node13&#45;&gt;Node14 -->
<g id="edge13_Node000013_Node000014" class="edge">
<title>Node13&#45;&gt;Node14</title>
<g id="a_edge13_Node000013_Node000014"><a xlink:title=" ">
<path fill="none" stroke="#63b8ff" d="M491.63,-284.29C473.4,-284.29 451.77,-284.29 432.98,-284.29"/>
<polygon fill="#63b8ff" stroke="#63b8ff" points="491.54,-287.79 501.54,-284.29 491.54,-280.79 491.54,-287.79"/>
</a>
</g>
</g>
<!-- Node15 -->
<g id="Node000015" class="node">
<title>Node15</title>
<g id="a_Node000015"><a xlink:href="carrinho_2nrf24__avr_8c.html#a71c5628e9583f6a6fd0871b3ae1bf6df" target="_top" xlink:title=" ">
<polygon fill="white" stroke="#666666" points="278.25,-180.66 164.75,-180.66 164.75,-159.91 278.25,-159.91 278.25,-180.66"/>
<text xml:space="preserve" text-anchor="middle" x="221.5" y="-167.16" font-family="Helvetica,sans-Serif" font-size="10.00">nrf24_startListening</text>
</a>
</g>
</g>
<!-- Node13&#45;&gt;Node15 -->
<g id="edge16_Node000013_Node000015" class="edge">
<title>Node13&#45;&gt;Node15</title>
<g id="a_edge16_Node000013_Node000015"><a xlink:title=" ">
<path fill="none" stroke="#63b8ff" d="M493.52,-270.06C490.91,-268.33 488.45,-266.41 486.25,-264.29 459.66,-238.6 480.7,-210.27 450.25,-189.29 400.1,-154.74 328.2,-154.79 278.67,-160.37"/>
<polygon fill="#63b8ff" stroke="#63b8ff" points="491.64,-273.02 502.09,-274.79 495.03,-266.9 491.64,-273.02"/>
</a>
</g>
</g>
<!-- Node16 -->
<g id="Node000016" class="node">
<title>Node16</title>
<g id="a_Node000016"><a xlink:href="carrinho_2nrf24__avr_8c.html#a33899bc3c0f4d2293f37c306d0b8e297" target="_top" xlink:title=" ">
<polygon fill="white" stroke="#666666" points="442.75,-372.66 330.75,-372.66 330.75,-351.91 442.75,-351.91 442.75,-372.66"/>
<text xml:space="preserve" text-anchor="middle" x="386.75" y="-359.16" font-family="Helvetica,sans-Serif" font-size="10.00">nrf24_stopListening</text>
</a>
</g>
</g>
<!-- Node13&#45;&gt;Node16 -->
<g id="edge19_Node000013_Node000016" class="edge">
<title>Node13&#45;&gt;Node16</title>
<g id="a_edge19_Node000013_Node000016"><a xlink:title=" ">
<path fill="none" stroke="#63b8ff" d="M493.23,-299.88C490.81,-301.26 488.46,-302.74 486.25,-304.29 467.22,-317.67 469.95,-329.91 450.25,-342.29 444.46,-345.93 437.95,-348.96 431.38,-351.47"/>
<polygon fill="#63b8ff" stroke="#63b8ff" points="494.77,-303.02 502.07,-295.35 491.58,-296.79 494.77,-303.02"/>
</a>
</g>
</g>
<!-- Node14&#45;&gt;Node10 -->
<g id="edge14_Node000014_Node000010" class="edge">
<title>Node14&#45;&gt;Node10</title>
<g id="a_edge14_Node000014_Node000010"><a xlink:title=" ">
<path fill="none" stroke="#63b8ff" d="M360.13,-266.75C347.23,-256.65 332.42,-242.87 323.25,-227.29 288.04,-167.46 334.67,-126 287.25,-75.29 275.2,-62.4 255.04,-57.75 240.41,-56.11"/>
<polygon fill="#63b8ff" stroke="#63b8ff" points="357.75,-269.35 367.86,-272.53 361.94,-263.74 357.75,-269.35"/>
</a>
</g>
</g>
<!-- Node14&#45;&gt;Node12 -->
<g id="edge15_Node000014_Node000012" class="edge">
<title>Node14&#45;&gt;Node12</title>
<g id="a_edge15_Node000014_Node000012"><a xlink:title=" ">
<path fill="none" stroke="#63b8ff" d="M329.34,-293.3C279.81,-298.21 207.77,-297.78 155.75,-265.29 124.34,-245.67 108.18,-201.64 102.12,-181.15"/>
<polygon fill="#63b8ff" stroke="#63b8ff" points="329.42,-296.81 338.97,-292.24 328.65,-289.86 329.42,-296.81"/>
</a>
</g>
</g>
<!-- Node15&#45;&gt;Node11 -->
<g id="edge17_Node000015_Node000011" class="edge">
<title>Node15&#45;&gt;Node11</title>
<g id="a_edge17_Node000015_Node000011"><a xlink:title=" ">
<path fill="none" stroke="#63b8ff" d="M193.64,-153.45C170.02,-138.65 136.37,-117.56 116.28,-104.96"/>
<polygon fill="#63b8ff" stroke="#63b8ff" points="191.77,-156.41 202.1,-158.76 195.49,-150.48 191.77,-156.41"/>
</a>
</g>
</g>
<!-- Node15&#45;&gt;Node12 -->
<g id="edge18_Node000015_Node000012" class="edge">
<title>Node15&#45;&gt;Node12</title>
<g id="a_edge18_Node000015_Node000012"><a xlink:title=" ">
<path fill="none" stroke="#63b8ff" d="M153.05,-170.29C140.64,-170.29 128.62,-170.29 119.09,-170.29"/>
<polygon fill="#63b8ff" stroke="#63b8ff" points="152.98,-173.79 162.98,-170.29 152.98,-166.79 152.98,-173.79"/>
</a>
</g>
</g>
<!-- Node16&#45;&gt;Node4 -->
<g id="edge20_Node000016_Node000004" class="edge">
<title>Node16&#45;&gt;Node4</title>
<g id="a_edge20_Node000016_Node000004"><a xlink:title=" ">
<path fill="none" stroke="#63b8ff" d="M343.91,-376.9C315.7,-386.75 279.09,-399.53 253.47,-408.47"/>
<polygon fill="#63b8ff" stroke="#63b8ff" points="344.94,-380.24 353.23,-373.64 342.64,-373.64 344.94,-380.24"/>
</a>
</g>
</g>
<!-- Node17 -->
<g id="Node000017" class="node">
<title>Node17</title>
<g id="a_Node000017"><a xlink:href="controle_8c.html#a4fc01d736fe50cf5b977f755b675f11d" target="_top" xlink:title="Inicializações principais (ADC, PWM, entradas e rádio).">
<polygon fill="white" stroke="#666666" points="119.75,-347.66 76.75,-347.66 76.75,-326.91 119.75,-326.91 119.75,-347.66"/>
<text xml:space="preserve" text-anchor="middle" x="98.25" y="-334.16" font-family="Helvetica,sans-Serif" font-size="10.00">setup</text>
</a>
</g>
</g>
<!-- Node16&#45;&gt;Node17 -->
<g id="edge21_Node000016_Node000017" class="edge">
<title>Node16&#45;&gt;Node17</title>
<g id="a_edge21_Node000016_Node000017"><a xlink:title=" ">
<path fill="none" stroke="#63b8ff" d="M319.04,-358.54C273.07,-355.67 210.62,-351.19 155.75,-345.29 143.93,-344.02 130.78,-342.18 120.14,-340.59"/>
<polygon fill="#63b8ff" stroke="#63b8ff" points="318.65,-362.02 328.84,-359.14 319.08,-355.04 318.65,-362.02"/>
</a>
</g>
</g>
<!-- Node17&#45;&gt;Node6 -->
<g id="edge22_Node000017_Node000006" class="edge">
<title>Node17&#45;&gt;Node6</title>
<g id="a_edge22_Node000017_Node000006"><a xlink:title=" ">
<path fill="none" stroke="#63b8ff" d="M66.15,-350.82C57.66,-354.51 48.7,-358.41 41.04,-361.74"/>
<polygon fill="#63b8ff" stroke="#63b8ff" points="67.35,-354.11 75.13,-346.91 64.56,-347.69 67.35,-354.11"/>
</a>
</g>
</g>
<!-- Node19&#45;&gt;Node4 -->
<g id="edge26_Node000019_Node000004" class="edge">
<title>Node19&#45;&gt;Node4</title>
<g id="a_edge26_Node000019_Node000004"><a xlink:title=" ">
<path fill="none" stroke="#63b8ff" d="M493.94,-340.12C491.13,-342.27 488.51,-344.66 486.25,-347.29 454.15,-384.75 490.39,-423.61 450.25,-452.29 385.23,-498.73 282.8,-452.47 241.09,-430"/>
<polygon fill="#63b8ff" stroke="#63b8ff" points="495.65,-343.18 502.16,-334.83 491.86,-337.3 495.65,-343.18"/>
</a>
</g>
</g>
<!-- Node20&#45;&gt;Node4 -->
<g id="edge46_Node000020_Node000004" class="edge">
<title>Node20&#45;&gt;Node4</title>
<g id="a_edge46_Node000020_Node000004"><a xlink:title=" ">
<path fill="none" stroke="#63b8ff" d="M492.53,-259.63C490.24,-261.32 488.12,-263.2 486.25,-265.29 450.28,-305.54 490.92,-345.79 450.25,-381.29 422.09,-405.87 314.08,-414.8 257.52,-417.84"/>
<polygon fill="#63b8ff" stroke="#63b8ff" points="493.86,-262.91 500.65,-254.78 490.27,-256.9 493.86,-262.91"/>
</a>
</g>
</g>
<!-- Node20&#45;&gt;Node9 -->
<g id="edge37_Node000020_Node000009" class="edge">
<title>Node20&#45;&gt;Node9</title>
<g id="a_edge37_Node000020_Node000009"><a xlink:title=" ">
<path fill="none" stroke="#63b8ff" d="M492.39,-231.07C490.13,-229.35 488.05,-227.43 486.25,-225.29 443.45,-174.52 494.22,-130.05 450.25,-80.29 442.78,-71.84 432,-66.35 421.49,-62.79"/>
<polygon fill="#63b8ff" stroke="#63b8ff" points="490.08,-233.76 500.45,-235.97 493.72,-227.78 490.08,-233.76"/>
</a>
</g>
</g>
<!-- Node20&#45;&gt;Node15 -->
<g id="edge44_Node000020_Node000015" class="edge">
<title>Node20&#45;&gt;Node15</title>
<g id="a_edge44_Node000020_Node000015"><a xlink:title=" ">
<path fill="none" stroke="#63b8ff" d="M492.07,-229.96C490.01,-228.52 488.05,-226.97 486.25,-225.29 460.98,-201.67 479.83,-174.22 450.25,-156.29 386.9,-117.89 294.58,-143.06 249.41,-159.42"/>
<polygon fill="#63b8ff" stroke="#63b8ff" points="489.91,-232.75 500.31,-234.74 493.43,-226.69 489.91,-232.75"/>
</a>
</g>
</g>
<!-- Node20&#45;&gt;Node16 -->
<g id="edge45_Node000020_Node000016" class="edge">
<title>Node20&#45;&gt;Node16</title>
<g id="a_edge45_Node000020_Node000016"><a xlink:title=" ">
<path fill="none" stroke="#63b8ff" d="M492.16,-260.41C490.05,-261.9 488.06,-263.52 486.25,-265.29 459.22,-291.68 478.61,-317.33 450.25,-342.29 446.06,-345.98 441.18,-348.99 436.04,-351.44"/>
<polygon fill="#63b8ff" stroke="#63b8ff" points="493.77,-263.52 500.65,-255.46 490.24,-257.47 493.77,-263.52"/>
</a>
</g>
</g>
<!-- Node21 -->
<g id="Node000021" class="node">
<title>Node21</title>
<g id="a_Node000021"><a xlink:href="carrinho_2nrf24__avr_8c.html#ab6fb4c1aa834152310116e7dec65d8e3" target="_top" xlink:title=" ">
<polygon fill="white" stroke="#666666" points="258.38,-256.66 184.62,-256.66 184.62,-235.91 258.38,-235.91 258.38,-256.66"/>
<text xml:space="preserve" text-anchor="middle" x="221.5" y="-243.16" font-family="Helvetica,sans-Serif" font-size="10.00">nrf24_begin</text>
</a>
</g>
</g>
<!-- Node20&#45;&gt;Node21 -->
<g id="edge28_Node000020_Node000021" class="edge">
<title>Node20&#45;&gt;Node21</title>
<g id="a_edge28_Node000020_Node000021"><a xlink:title=" ">
<path fill="none" stroke="#63b8ff" d="M490.15,-245.42C429.04,-245.62 316.23,-245.99 258.53,-246.17"/>
<polygon fill="#63b8ff" stroke="#63b8ff" points="490.15,-248.92 500.13,-245.39 490.12,-241.92 490.15,-248.92"/>
</a>
</g>
</g>
<!-- Node22 -->
<g id="Node000022" class="node">
<title>Node22</title>
<g id="a_Node000022"><a xlink:href="carrinho_2nrf24__avr_8c.html#a5af2f11537aed8a56d8489355af0ff16" target="_top" xlink:title=" ">
<polygon fill="white" stroke="#666666" points="287.25,-26.66 155.75,-26.66 155.75,-5.91 287.25,-5.91 287.25,-26.66"/>
<text xml:space="preserve" text-anchor="middle" x="221.5" y="-13.16" font-family="Helvetica,sans-Serif" font-size="10.00">nrf24_openReadingPipe</text>
</a>
</g>
</g>
<!-- Node20&#45;&gt;Node22 -->
<g id="edge32_Node000020_Node000022" class="edge">
<title>Node20&#45;&gt;Node22</title>
<g id="a_edge32_Node000020_Node000022"><a xlink:title=" ">
<path fill="none" stroke="#63b8ff" d="M492.25,-231.18C490.03,-229.43 488,-227.48 486.25,-225.29 433.19,-158.79 513.26,-94.45 450.25,-37.29 402.17,6.33 322.6,2.8 271.38,-5.45"/>
<polygon fill="#63b8ff" stroke="#63b8ff" points="489.9,-233.84 500.25,-236.13 493.59,-227.89 489.9,-233.84"/>
</a>
</g>
</g>
<!-- Node23 -->
<g id="Node000023" class="node">
<title>Node23</title>
<g id="a_Node000023"><a xlink:href="carrinho_2nrf24__avr_8c.html#a21d638882f746748de35324bdc21f448" target="_top" xlink:title=" ">
<polygon fill="white" stroke="#666666" points="450.25,-333.66 323.25,-333.66 323.25,-312.91 450.25,-312.91 450.25,-333.66"/>
<text xml:space="preserve" text-anchor="middle" x="386.75" y="-320.16" font-family="Helvetica,sans-Serif" font-size="10.00">nrf24_openWritingPipe</text>
</a>
</g>
</g>
<!-- Node20&#45;&gt;Node23 -->
<g id="edge35_Node000020_Node000023" class="edge">
<title>Node20&#45;&gt;Node23</title>
<g id="a_edge35_Node000020_Node000023"><a xlink:title=" ">
<path fill="none" stroke="#63b8ff" d="M492.33,-261.4C490.23,-262.63 488.18,-263.93 486.25,-265.29 467.22,-278.67 469.95,-290.91 450.25,-303.29 444.46,-306.93 437.95,-309.96 431.38,-312.47"/>
<polygon fill="#63b8ff" stroke="#63b8ff" points="493.88,-264.54 501.12,-256.81 490.64,-258.33 493.88,-264.54"/>
</a>
</g>
</g>
<!-- Node24 -->
<g id="Node000024" class="node">
<title>Node24</title>
<g id="a_Node000024"><a xlink:href="carrinho_2nrf24__avr_8c.html#a49aa88b1042d6d62114cfbca271d9e2b" target="_top" xlink:title=" ">
<polygon fill="white" stroke="#666666" points="272.25,-104.66 170.75,-104.66 170.75,-83.91 272.25,-83.91 272.25,-104.66"/>
<text xml:space="preserve" text-anchor="middle" x="221.5" y="-91.16" font-family="Helvetica,sans-Serif" font-size="10.00">nrf24_setChannel</text>
</a>
</g>
</g>
<!-- Node20&#45;&gt;Node24 -->
<g id="edge38_Node000020_Node000024" class="edge">
<title>Node20&#45;&gt;Node24</title>
<g id="a_edge38_Node000020_Node000024"><a xlink:title=" ">
<path fill="none" stroke="#63b8ff" d="M492.02,-230.31C489.94,-228.79 488,-227.12 486.25,-225.29 455.6,-193.27 484.62,-160.28 450.25,-132.29 400.2,-91.54 323.03,-87.01 272.64,-89.27"/>
<polygon fill="#63b8ff" stroke="#63b8ff" points="490.04,-233.21 500.42,-235.34 493.64,-227.2 490.04,-233.21"/>
</a>
</g>
</g>
<!-- Node25 -->
<g id="Node000025" class="node">
<title>Node25</title>
<g id="a_Node000025"><a xlink:href="carrinho_2nrf24__avr_8c.html#aaf2900e7932ebbf7f0ecdc6bce5840e1" target="_top" xlink:title=" ">
<polygon fill="white" stroke="#666666" points="447.25,-218.66 326.25,-218.66 326.25,-197.91 447.25,-197.91 447.25,-218.66"/>
<text xml:space="preserve" text-anchor="middle" x="386.75" y="-205.16" font-family="Helvetica,sans-Serif" font-size="10.00">nrf24_setPayloadSize</text>
</a>
</g>
</g>
<!-- Node20&#45;&gt;Node25 -->
<g id="edge41_Node000020_Node000025" class="edge">
<title>Node20&#45;&gt;Node25</title>
<g id="a_edge41_Node000020_Node000025"><a xlink:title=" ">
<path fill="none" stroke="#63b8ff" d="M490.63,-234.7C471.62,-229.82 449.08,-224.03 429.95,-219.12"/>
<polygon fill="#63b8ff" stroke="#63b8ff" points="489.64,-238.06 500.2,-237.16 491.38,-231.28 489.64,-238.06"/>
</a>
</g>
</g>
<!-- Node21&#45;&gt;Node11 -->
<g id="edge29_Node000021_Node000011" class="edge">
<title>Node21&#45;&gt;Node11</title>
<g id="a_edge29_Node000021_Node000011"><a xlink:title=" ">
<path fill="none" stroke="#63b8ff" d="M196.79,-228.44C183.76,-217.92 167.83,-203.85 155.75,-189.29 132.71,-161.53 113.04,-123.31 104.21,-104.96"/>
<polygon fill="#63b8ff" stroke="#63b8ff" points="194.46,-231.06 204.49,-234.49 198.79,-225.56 194.46,-231.06"/>
</a>
</g>
</g>
<!-- Node21&#45;&gt;Node12 -->
<g id="edge30_Node000021_Node000012" class="edge">
<title>Node21&#45;&gt;Node12</title>
<g id="a_edge30_Node000021_Node000012"><a xlink:title=" ">
<path fill="none" stroke="#63b8ff" d="M173.86,-231.52C167.59,-228.81 161.38,-225.74 155.75,-222.29 136.88,-210.73 118.72,-192.3 108.29,-180.77"/>
<polygon fill="#63b8ff" stroke="#63b8ff" points="172.4,-234.7 182.99,-235.16 175,-228.2 172.4,-234.7"/>
</a>
</g>
</g>
<!-- Node21&#45;&gt;Node17 -->
<g id="edge31_Node000021_Node000017" class="edge">
<title>Node21&#45;&gt;Node17</title>
<g id="a_edge31_Node000021_Node000017"><a xlink:title=" ">
<path fill="none" stroke="#63b8ff" d="M197.06,-263.88C172.34,-282.43 134.21,-311.05 113.62,-326.51"/>
<polygon fill="#63b8ff" stroke="#63b8ff" points="199.01,-266.8 204.9,-257.99 194.81,-261.2 199.01,-266.8"/>
</a>
</g>
</g>
<!-- Node22&#45;&gt;Node11 -->
<g id="edge33_Node000022_Node000011" class="edge">
<title>Node22&#45;&gt;Node11</title>
<g id="a_edge33_Node000022_Node000011"><a xlink:title=" ">
<path fill="none" stroke="#63b8ff" d="M164.48,-31.59C161.46,-33.03 158.53,-34.59 155.75,-36.29 135.12,-48.91 116.71,-70.75 106.85,-83.73"/>
<polygon fill="#63b8ff" stroke="#63b8ff" points="165.75,-34.85 173.61,-27.74 163.03,-28.4 165.75,-34.85"/>
</a>
</g>
</g>
<!-- Node22&#45;&gt;Node12 -->
<g id="edge34_Node000022_Node000012" class="edge">
<title>Node22&#45;&gt;Node12</title>
<g id="a_edge34_Node000022_Node000012"><a xlink:title=" ">
<path fill="none" stroke="#63b8ff" d="M160.2,-32.7C158.65,-33.82 157.16,-35.01 155.75,-36.29 145.92,-45.18 114.2,-129.66 103.12,-159.73"/>
<polygon fill="#63b8ff" stroke="#63b8ff" points="161.56,-35.96 168.39,-27.86 158,-29.94 161.56,-35.96"/>
</a>
</g>
</g>
<!-- Node23&#45;&gt;Node17 -->
<g id="edge36_Node000023_Node000017" class="edge">
<title>Node23&#45;&gt;Node17</title>
<g id="a_edge36_Node000023_Node000017"><a xlink:title=" ">
<path fill="none" stroke="#63b8ff" d="M311.64,-326.91C247.72,-330.03 159.64,-334.34 120.02,-336.27"/>
<polygon fill="#63b8ff" stroke="#63b8ff" points="311.55,-330.42 321.36,-326.44 311.21,-323.43 311.55,-330.42"/>
</a>
</g>
</g>
<!-- Node24&#45;&gt;Node11 -->
<g id="edge39_Node000024_Node000011" class="edge">
<title>Node24&#45;&gt;Node11</title>
<g id="a_edge39_Node000024_Node000011"><a xlink:title=" ">
<path fill="none" stroke="#63b8ff" d="M159.33,-94.29C144.67,-94.29 130.07,-94.29 118.92,-94.29"/>
<polygon fill="#63b8ff" stroke="#63b8ff" points="158.97,-97.79 168.97,-94.29 158.97,-90.79 158.97,-97.79"/>
</a>
</g>
</g>
<!-- Node24&#45;&gt;Node12 -->
<g id="edge40_Node000024_Node000012" class="edge">
<title>Node24&#45;&gt;Node12</title>
<g id="a_edge40_Node000024_Node000012"><a xlink:title=" ">
<path fill="none" stroke="#63b8ff" d="M173.43,-109.25C167.3,-111.91 161.25,-114.92 155.75,-118.29 136.88,-129.85 118.72,-148.28 108.29,-159.81"/>
<polygon fill="#63b8ff" stroke="#63b8ff" points="174.34,-112.65 182.32,-105.68 171.73,-106.16 174.34,-112.65"/>
</a>
</g>
</g>
<!-- Node25&#45;&gt;Node12 -->
<g id="edge42_Node000025_Node000012" class="edge">
<title>Node25&#45;&gt;Node12</title>
<g id="a_edge42_Node000025_Node000012"><a xlink:title=" ">
<path fill="none" stroke="#63b8ff" d="M314.79,-206.85C269,-204.84 208.38,-200.15 155.75,-189.29 143.28,-186.72 129.75,-182.23 119.06,-178.26"/>
<polygon fill="#63b8ff" stroke="#63b8ff" points="314.45,-210.34 324.59,-207.25 314.74,-203.35 314.45,-210.34"/>
</a>
</g>
</g>
<!-- Node25&#45;&gt;Node21 -->
<g id="edge43_Node000025_Node000021" class="edge">
<title>Node25&#45;&gt;Node21</title>
<g id="a_edge43_Node000025_Node000021"><a xlink:title=" ">
<path fill="none" stroke="#63b8ff" d="M328.33,-221.66C305.22,-227.03 279.26,-233.08 258.84,-237.83"/>
<polygon fill="#63b8ff" stroke="#63b8ff" points="328.99,-225.1 337.93,-219.42 327.4,-218.28 328.99,-225.1"/>
</a>
</g>
</g>
</g>
</svg>

<g id="navigator" transform="translate(0 0)" fill="#404254">
  <rect fill="#f2f5e9" fill-opacity="0.5" stroke="#606060" stroke-width=".5" x="0" y="0" width="60" height="60"/>
  <use id="zoomplus" xlink:href="#zoomPlus" x="17" y="9" onmousedown="handleZoom(evt,'in')"/>
  <use id="zoomminus" xlink:href="#zoomMin" x="42" y="9" onmousedown="handleZoom(evt,'out')"/>
  <use id="reset" xlink:href="#resetDef" x="30" y="36" onmousedown="handleReset()"/>
   <use id="arrowup" xlink:href="#arrowUp" x="0" y="0" onmousedown="handlePan(0,-1)"/>
  <use id="arrowright" xlink:href="#arrowRight" x="0" y="0" onmousedown="handlePan(1,0)"/>
  <use id="arrowdown" xlink:href="#arrowDown" x="0" y="0" onmousedown="handlePan(0,1)"/>
  <use id="arrowleft" xlink:href="#arrowLeft" x="0" y="0" onmousedown="handlePan(-1,0)"/>
</g>
<svg viewBox="0 0 15 15" width="100%" height="30px" preserveAspectRatio="xMaxYMin meet">
 <g id="arrow_out" transform="scale(0.3 0.3)">
  <a xlink:href="carrinho_2nrf24__avr_8c_a8d161d483c095113df5b69798e9cd725_icgraph_org.svg" target="_base">
   <rect id="button" ry="5" rx="5" y="6" x="6" height="38" width="38"
        fill="#f2f5e9" fill-opacity="0.5" stroke="#606060" stroke-width="1.0"/>
   <path id="arrow"
     d="M 11.500037,31.436501 C 11.940474,20.09759 22.043105,11.32322 32.158766,21.979434 L 37.068811,17.246167 C 37.068811,17.246167 37.088388,32 37.088388,32 L 22.160133,31.978069 C 22.160133,31.978069 26.997745,27.140456 26.997745,27.140456 C 18.528582,18.264221 13.291696,25.230495 11.500037,31.436501 z"
     style="fill:#404040;"/>
  </a>
 </g>
</svg>

<style type='text/css'>
<![CDATA[
[data-mouse-over-selected='false'] { opacity: 0.7; }
[data-mouse-over-selected='true']  { opacity: 1.0; }
]]>
</style>
<script type="application/ecmascript"><![CDATA[
document.addEventListener('DOMContentLoaded', (event) => {
  highlightEdges();
  highlightAdjacentNodes();
});
]]></script>
</svg>
