<?xml version="1.0" encoding="UTF-8" standalone="no"?>
<!DOCTYPE svg PUBLIC "-//W3C//DTD SVG 1.1//EN"
 "http://www.w3.org/Graphics/SVG/1.1/DTD/svg11.dtd">
<!-- Generated by graphviz version 14.0.5 (0)
 -->
<!-- Title: main Pages: 1 -->
<svg width="727pt" height="642pt"
 viewBox="0.00 0.00 727.00 642.00" xmlns="http://www.w3.org/2000/svg" xmlns:xlink="http://www.w3.org/1999/xlink">
<g id="graph0" class="graph" transform="scale(1 1) rotate(0) translate(4 637.75)">
<title>main</title>
<!-- Node1 -->
<g id="Node000001" class="node">
<title>Node1</title>
<g id="a_Node000001"><a xlink:title="Função principal: inicializa periféricos e roda loop().">
<polygon fill="#999999" stroke="#666666" points="40.75,-387.75 0,-387.75 0,-367 40.75,-367 40.75,-387.75"/>
<text xml:space="preserve" text-anchor="middle" x="20.38" y="-374.25" font-family="Helvetica,sans-Serif" font-size="10.00">main</text>
</a>
</g>
</g>
<!-- Node2 -->
<g id="Node000002" class="node">
<title>Node2</title>
<g id="a_Node000002"><a xlink:href="carrinho_8c.html#a1fc0a8f5b026eb5e606e738ca5434d2d" target="_top" xlink:title="Configura o ADC e os PWM usados.">
<polygon fill="white" stroke="#666666" points="183.12,-633.75 101.88,-633.75 101.88,-613 183.12,-613 183.12,-633.75"/>
<text xml:space="preserve" text-anchor="middle" x="142.5" y="-620.25" font-family="Helvetica,sans-Serif" font-size="10.00">analog_setup</text>
</a>
</g>
</g>
<!-- Node1&#45;&gt;Node2 -->
<g id="edge1_Node000001_Node000002" class="edge">
<title>Node1&#45;&gt;Node2</title>
<g id="a_edge1_Node000001_Node000002"><a xlink:title=" ">
<path fill="none" stroke="#63b8ff" d="M20.78,-388.23C19.45,-423.46 20.05,-536.04 76.75,-599.38 80.85,-603.95 85.9,-607.66 91.36,-610.66"/>
<polygon fill="#63b8ff" stroke="#63b8ff" points="89.59,-613.7 100.14,-614.7 92.52,-607.34 89.59,-613.7"/>
</a>
</g>
</g>
<!-- Node3 -->
<g id="Node000003" class="node">
<title>Node3</title>
<g id="a_Node000003"><a xlink:href="carrinho_8c.html#afe461d27b9c48d5921c00d521181f12f" target="_top" xlink:title="Laço principal contendo toda a lógica do robô.">
<polygon fill="white" stroke="#666666" points="161,-402.75 124,-402.75 124,-382 161,-382 161,-402.75"/>
<text xml:space="preserve" text-anchor="middle" x="142.5" y="-389.25" font-family="Helvetica,sans-Serif" font-size="10.00">loop</text>
</a>
</g>
</g>
<!-- Node1&#45;&gt;Node3 -->
<g id="edge2_Node000001_Node000003" class="edge">
<title>Node1&#45;&gt;Node3</title>
<g id="a_edge2_Node000001_Node000003"><a xlink:title=" ">
<path fill="none" stroke="#63b8ff" d="M41.21,-379.85C60.55,-382.27 90.2,-385.97 112.24,-388.72"/>
<polygon fill="#63b8ff" stroke="#63b8ff" points="111.74,-392.19 122.1,-389.95 112.61,-385.24 111.74,-392.19"/>
</a>
</g>
</g>
<!-- Node8 -->
<g id="Node000008" class="node">
<title>Node8</title>
<g id="a_Node000008"><a xlink:href="carrinho_8c.html#a83f9abde8522ce95dd4c5ce5ba3d9d39" target="_top" xlink:title="Controla um motor no sentido desejado e com PWM.">
<polygon fill="white" stroke="#666666" points="464.88,-557.75 419.62,-557.75 419.62,-537 464.88,-537 464.88,-557.75"/>
<text xml:space="preserve" text-anchor="middle" x="442.25" y="-544.25" font-family="Helvetica,sans-Serif" font-size="10.00">motor</text>
</a>
</g>
</g>
<!-- Node1&#45;&gt;Node8 -->
<g id="edge28_Node000001_Node000008" class="edge">
<title>Node1&#45;&gt;Node8</title>
<g id="a_edge28_Node000001_Node000008"><a xlink:title=" ">
<path fill="none" stroke="#63b8ff" d="M28.39,-387.89C38.14,-402.01 56.86,-427.42 76.75,-445.38 142.87,-505.05 158.92,-529.86 244.25,-555.38 299.95,-572.03 368.45,-563.06 408.25,-555.14"/>
<polygon fill="#63b8ff" stroke="#63b8ff" points="408.85,-558.59 417.91,-553.11 407.41,-551.74 408.85,-558.59"/>
</a>
</g>
</g>
<!-- Node20 -->
<g id="Node000020" class="node">
<title>Node20</title>
<g id="a_Node000020"><a xlink:href="carrinho_2nrf24__avr_8c.html#ab6fb4c1aa834152310116e7dec65d8e3" target="_top" xlink:title=" ">
<polygon fill="white" stroke="#666666" points="179.38,-153.75 105.62,-153.75 105.62,-133 179.38,-133 179.38,-153.75"/>
<text xml:space="preserve" text-anchor="middle" x="142.5" y="-140.25" font-family="Helvetica,sans-Serif" font-size="10.00">nrf24_begin</text>
</a>
</g>
</g>
<!-- Node1&#45;&gt;Node20 -->
<g id="edge29_Node000001_Node000020" class="edge">
<title>Node1&#45;&gt;Node20</title>
<g id="a_edge29_Node000001_Node000020"><a xlink:title=" ">
<path fill="none" stroke="#63b8ff" d="M24.4,-366.85C31.62,-342.5 51.16,-280.74 76.75,-233.38 90.72,-207.51 111.07,-180.48 125.21,-162.87"/>
<polygon fill="#63b8ff" stroke="#63b8ff" points="127.78,-165.26 131.39,-155.3 122.36,-160.84 127.78,-165.26"/>
</a>
</g>
</g>
<!-- Node26 -->
<g id="Node000026" class="node">
<title>Node26</title>
<g id="a_Node000026"><a xlink:href="carrinho_2nrf24__avr_8c.html#a5af2f11537aed8a56d8489355af0ff16" target="_top" xlink:title=" ">
<polygon fill="white" stroke="#666666" points="208.25,-262.75 76.75,-262.75 76.75,-242 208.25,-242 208.25,-262.75"/>
<text xml:space="preserve" text-anchor="middle" x="142.5" y="-249.25" font-family="Helvetica,sans-Serif" font-size="10.00">nrf24_openReadingPipe</text>
</a>
</g>
</g>
<!-- Node1&#45;&gt;Node26 -->
<g id="edge39_Node000001_Node000026" class="edge">
<title>Node1&#45;&gt;Node26</title>
<g id="a_edge39_Node000001_Node000026"><a xlink:title=" ">
<path fill="none" stroke="#63b8ff" d="M27.83,-366.54C37.36,-351.07 56.27,-322.22 76.75,-301.38 88.29,-289.63 102.77,-278.4 115.11,-269.67"/>
<polygon fill="#63b8ff" stroke="#63b8ff" points="116.96,-272.64 123.21,-264.09 112.99,-266.88 116.96,-272.64"/>
</a>
</g>
</g>
<!-- Node27 -->
<g id="Node000027" class="node">
<title>Node27</title>
<g id="a_Node000027"><a xlink:href="carrinho_2nrf24__avr_8c.html#a49aa88b1042d6d62114cfbca271d9e2b" target="_top" xlink:title=" ">
<polygon fill="white" stroke="#666666" points="193.25,-330.75 91.75,-330.75 91.75,-310 193.25,-310 193.25,-330.75"/>
<text xml:space="preserve" text-anchor="middle" x="142.5" y="-317.25" font-family="Helvetica,sans-Serif" font-size="10.00">nrf24_setChannel</text>
</a>
</g>
</g>
<!-- Node1&#45;&gt;Node27 -->
<g id="edge41_Node000001_Node000027" class="edge">
<title>Node1&#45;&gt;Node27</title>
<g id="a_edge41_Node000001_Node000027"><a xlink:title=" ">
<path fill="none" stroke="#63b8ff" d="M41.21,-367.96C59.45,-359.31 86.86,-346.3 108.41,-336.08"/>
<polygon fill="#63b8ff" stroke="#63b8ff" points="109.86,-339.26 117.4,-331.81 106.86,-332.94 109.86,-339.26"/>
</a>
</g>
</g>
<!-- Node28 -->
<g id="Node000028" class="node">
<title>Node28</title>
<g id="a_Node000028"><a xlink:href="carrinho_2nrf24__avr_8c.html#a71c5628e9583f6a6fd0871b3ae1bf6df" target="_top" xlink:title=" ">
<polygon fill="white" stroke="#666666" points="361.5,-480.75 248,-480.75 248,-460 361.5,-460 361.5,-480.75"/>
<text xml:space="preserve" text-anchor="middle" x="304.75" y="-467.25" font-family="Helvetica,sans-Serif" font-size="10.00">nrf24_startListening</text>
</a>
</g>
</g>
<!-- Node1&#45;&gt;Node28 -->
<g id="edge43_Node000001_Node000028" class="edge">
<title>Node1&#45;&gt;Node28</title>
<g id="a_edge43_Node000001_Node000028"><a xlink:title=" ">
<path fill="none" stroke="#63b8ff" d="M36.23,-388.18C47.02,-395.6 62.22,-405.19 76.75,-411.38 128.49,-433.4 190.48,-448.84 236.59,-458.38"/>
<polygon fill="#63b8ff" stroke="#63b8ff" points="235.68,-461.76 246.18,-460.32 237.07,-454.9 235.68,-461.76"/>
</a>
</g>
</g>
<!-- Node30 -->
<g id="Node000030" class="node">
<title>Node30</title>
<g id="a_Node000030"><a xlink:href="carrinho_8c.html#a09dd35e11fe4a5c9278847c009477602" target="_top" xlink:title=" ">
<polygon fill="white" stroke="#666666" points="182.75,-114.75 102.25,-114.75 102.25,-94 182.75,-94 182.75,-114.75"/>
<text xml:space="preserve" text-anchor="middle" x="142.5" y="-101.25" font-family="Helvetica,sans-Serif" font-size="10.00">timer1_setup</text>
</a>
</g>
</g>
<!-- Node1&#45;&gt;Node30 -->
<g id="edge48_Node000001_Node000030" class="edge">
<title>Node1&#45;&gt;Node30</title>
<g id="a_edge48_Node000001_Node000030"><a xlink:title=" ">
<path fill="none" stroke="#63b8ff" d="M22.31,-366.53C26.29,-322.93 43.13,-160.95 76.75,-124.38 80.88,-119.88 86,-116.39 91.53,-113.67"/>
<polygon fill="#63b8ff" stroke="#63b8ff" points="92.41,-117.09 100.4,-110.14 89.82,-110.59 92.41,-117.09"/>
</a>
</g>
</g>
<!-- Node4 -->
<g id="Node000004" class="node">
<title>Node4</title>
<g id="a_Node000004"><a xlink:href="carrinho_8c.html#aaa87dddb1e62142fd07ee17db1b5d673" target="_top" xlink:title="Retorna o valor absoluto de um inteiro.">
<polygon fill="white" stroke="#666666" points="321.38,-441.75 288.12,-441.75 288.12,-421 321.38,-421 321.38,-441.75"/>
<text xml:space="preserve" text-anchor="middle" x="304.75" y="-428.25" font-family="Helvetica,sans-Serif" font-size="10.00">abs</text>
</a>
</g>
</g>
<!-- Node3&#45;&gt;Node4 -->
<g id="edge3_Node000003_Node000004" class="edge">
<title>Node3&#45;&gt;Node4</title>
<g id="a_edge3_Node000003_Node000004"><a xlink:title=" ">
<path fill="none" stroke="#63b8ff" d="M161.26,-396.7C189.28,-403.52 243.91,-416.81 276.79,-424.81"/>
<polygon fill="#63b8ff" stroke="#63b8ff" points="275.81,-428.18 286.35,-427.14 277.46,-421.38 275.81,-428.18"/>
</a>
</g>
</g>
<!-- Node5 -->
<g id="Node000005" class="node">
<title>Node5</title>
<g id="a_Node000005"><a xlink:href="carrinho_8c.html#a08bebecdd1ca2d6e7ef3f68cd452ccf9" target="_top" xlink:title="Lê um canal analógico (ADC0–ADC7).">
<polygon fill="white" stroke="#666666" points="342.75,-402.75 266.75,-402.75 266.75,-382 342.75,-382 342.75,-402.75"/>
<text xml:space="preserve" text-anchor="middle" x="304.75" y="-389.25" font-family="Helvetica,sans-Serif" font-size="10.00">analog_read</text>
</a>
</g>
</g>
<!-- Node3&#45;&gt;Node5 -->
<g id="edge4_Node000003_Node000005" class="edge">
<title>Node3&#45;&gt;Node5</title>
<g id="a_edge4_Node000003_Node000005"><a xlink:title=" ">
<path fill="none" stroke="#63b8ff" d="M161.26,-392.38C183.76,-392.38 223.43,-392.38 255.21,-392.38"/>
<polygon fill="#63b8ff" stroke="#63b8ff" points="255,-395.88 265,-392.38 255,-388.88 255,-395.88"/>
</a>
</g>
</g>
<!-- Node6 -->
<g id="Node000006" class="node">
<title>Node6</title>
<g id="a_Node000006"><a xlink:href="carrinho_8c.html#ae85c96d8ab4fe9d1b125421eaaef40e2" target="_top" xlink:title="Reduz a vida e executa a penalidade de dano.">
<polygon fill="white" stroke="#666666" points="319.15,-519.75 290.35,-519.75 290.35,-499 319.15,-499 319.15,-519.75"/>
<text xml:space="preserve" text-anchor="middle" x="304.75" y="-506.25" font-family="Helvetica,sans-Serif" font-size="10.00">hit</text>
</a>
</g>
</g>
<!-- Node3&#45;&gt;Node6 -->
<g id="edge5_Node000003_Node000006" class="edge">
<title>Node3&#45;&gt;Node6</title>
<g id="a_edge5_Node000003_Node000006"><a xlink:title=" ">
<path fill="none" stroke="#63b8ff" d="M151.77,-403C167.65,-422.72 204.39,-465.19 244.25,-489.38 255.04,-495.92 268.24,-500.64 279.46,-503.84"/>
<polygon fill="#63b8ff" stroke="#63b8ff" points="278.24,-507.14 288.79,-506.26 279.99,-500.36 278.24,-507.14"/>
</a>
</g>
</g>
<!-- Node3&#45;&gt;Node8 -->
<g id="edge11_Node000003_Node000008" class="edge">
<title>Node3&#45;&gt;Node8</title>
<g id="a_edge11_Node000003_Node000008"><a xlink:title=" ">
<path fill="none" stroke="#63b8ff" d="M147.66,-402.89C158.75,-429.35 191.82,-498.72 244.25,-528.38 295.56,-557.39 366.58,-556.05 407.84,-552.01"/>
<polygon fill="#63b8ff" stroke="#63b8ff" points="408.08,-555.5 417.64,-550.92 407.31,-548.54 408.08,-555.5"/>
</a>
</g>
</g>
<!-- Node11 -->
<g id="Node000011" class="node">
<title>Node11</title>
<g id="a_Node000011"><a xlink:href="carrinho_2nrf24__avr_8c.html#a0f64caa74329fd5799a33f30bd8ebf82" target="_top" xlink:title=" ">
<polygon fill="white" stroke="#666666" points="350.62,-363.75 258.88,-363.75 258.88,-343 350.62,-343 350.62,-363.75"/>
<text xml:space="preserve" text-anchor="middle" x="304.75" y="-350.25" font-family="Helvetica,sans-Serif" font-size="10.00">nrf24_available</text>
</a>
</g>
</g>
<!-- Node3&#45;&gt;Node11 -->
<g id="edge12_Node000003_Node000011" class="edge">
<title>Node3&#45;&gt;Node11</title>
<g id="a_edge12_Node000003_Node000011"><a xlink:title=" ">
<path fill="none" stroke="#63b8ff" d="M161.26,-388.05C182.16,-382.97 217.88,-374.27 248.33,-366.86"/>
<polygon fill="#63b8ff" stroke="#63b8ff" points="248.91,-370.32 257.8,-364.56 247.26,-363.52 248.91,-370.32"/>
</a>
</g>
</g>
<!-- Node17 -->
<g id="Node000017" class="node">
<title>Node17</title>
<g id="a_Node000017"><a xlink:href="carrinho_2nrf24__avr_8c.html#aa0767db791fc0b45ebadab011c1900bf" target="_top" xlink:title=" ">
<polygon fill="white" stroke="#666666" points="339,-324.75 270.5,-324.75 270.5,-304 339,-304 339,-324.75"/>
<text xml:space="preserve" text-anchor="middle" x="304.75" y="-311.25" font-family="Helvetica,sans-Serif" font-size="10.00">nrf24_read</text>
</a>
</g>
</g>
<!-- Node3&#45;&gt;Node17 -->
<g id="edge19_Node000003_Node000017" class="edge">
<title>Node3&#45;&gt;Node17</title>
<g id="a_edge19_Node000003_Node000017"><a xlink:title=" ">
<path fill="none" stroke="#63b8ff" d="M159.72,-381.69C179.21,-369.17 213.15,-348.39 244.25,-334.38 249.15,-332.17 254.36,-330.07 259.59,-328.12"/>
<polygon fill="#63b8ff" stroke="#63b8ff" points="260.57,-331.49 268.83,-324.85 258.24,-324.89 260.57,-331.49"/>
</a>
</g>
</g>
<!-- Node7 -->
<g id="Node000007" class="node">
<title>Node7</title>
<g id="a_Node000007"><a xlink:href="carrinho_8c.html#aca98ea6592036069ef7f48edf7f8c826" target="_top" xlink:title=" ">
<polygon fill="white" stroke="#666666" points="474.62,-518.75 409.88,-518.75 409.88,-498 474.62,-498 474.62,-518.75"/>
<text xml:space="preserve" text-anchor="middle" x="442.25" y="-505.25" font-family="Helvetica,sans-Serif" font-size="10.00">delay_sec</text>
</a>
</g>
</g>
<!-- Node6&#45;&gt;Node7 -->
<g id="edge6_Node000006_Node000007" class="edge">
<title>Node6&#45;&gt;Node7</title>
<g id="a_edge6_Node000006_Node000007"><a xlink:title=" ">
<path fill="none" stroke="#63b8ff" d="M319.49,-509.27C337.86,-509.14 371.25,-508.89 398.43,-508.69"/>
<polygon fill="#63b8ff" stroke="#63b8ff" points="398.15,-512.19 408.12,-508.62 398.1,-505.19 398.15,-512.19"/>
</a>
</g>
</g>
<!-- Node6&#45;&gt;Node8 -->
<g id="edge7_Node000006_Node000008" class="edge">
<title>Node6&#45;&gt;Node8</title>
<g id="a_edge7_Node000006_Node000008"><a xlink:title=" ">
<path fill="none" stroke="#63b8ff" d="M319.49,-513.23C340.19,-519.03 379.97,-530.19 408.43,-538.17"/>
<polygon fill="#63b8ff" stroke="#63b8ff" points="407.44,-541.53 418.01,-540.86 409.33,-534.79 407.44,-541.53"/>
</a>
</g>
</g>
<!-- Node9 -->
<g id="Node000009" class="node">
<title>Node9</title>
<g id="a_Node000009"><a xlink:href="carrinho_8c.html#ac7c0935e24e573b2929d0df7f9e6b82f" target="_top" xlink:title="Define o duty de um PWM em uma das saídas configuradas.">
<polygon fill="white" stroke="#666666" points="598.25,-528.75 519.25,-528.75 519.25,-508 598.25,-508 598.25,-528.75"/>
<text xml:space="preserve" text-anchor="middle" x="558.75" y="-515.25" font-family="Helvetica,sans-Serif" font-size="10.00">analog_write</text>
</a>
</g>
</g>
<!-- Node8&#45;&gt;Node9 -->
<g id="edge8_Node000008_Node000009" class="edge">
<title>Node8&#45;&gt;Node9</title>
<g id="a_edge8_Node000008_Node000009"><a xlink:title=" ">
<path fill="none" stroke="#63b8ff" d="M465.33,-541.78C477.56,-538.68 493.3,-534.7 508.31,-530.9"/>
<polygon fill="#63b8ff" stroke="#63b8ff" points="508.74,-534.4 517.58,-528.55 507.02,-527.61 508.74,-534.4"/>
</a>
</g>
</g>
<!-- Node10 -->
<g id="Node000010" class="node">
<title>Node10</title>
<g id="a_Node000010"><a xlink:href="carrinho__ino_8ino.html#a83f9abde8522ce95dd4c5ce5ba3d9d39" target="_top" xlink:title=" ">
<polygon fill="white" stroke="#666666" points="581.38,-567.75 536.12,-567.75 536.12,-547 581.38,-547 581.38,-567.75"/>
<text xml:space="preserve" text-anchor="middle" x="558.75" y="-554.25" font-family="Helvetica,sans-Serif" font-size="10.00">motor</text>
</a>
</g>
</g>
<!-- Node8&#45;&gt;Node10 -->
<g id="edge9_Node000008_Node000010" class="edge">
<title>Node8&#45;&gt;Node10</title>
<g id="a_edge9_Node000008_Node000010"><a xlink:title=" ">
<path fill="none" stroke="#63b8ff" d="M465.33,-549.3C482.04,-550.76 505.28,-552.79 524.27,-554.45"/>
<polygon fill="#63b8ff" stroke="#63b8ff" points="523.97,-557.94 534.23,-555.32 524.58,-550.96 523.97,-557.94"/>
</a>
</g>
</g>
<!-- Node10&#45;&gt;Node10 -->
<g id="edge10_Node000010_Node000010" class="edge">
<title>Node10&#45;&gt;Node10</title>
<g id="a_edge10_Node000010_Node000010"><a xlink:title=" ">
<path fill="none" stroke="#63b8ff" d="M539.98,-568.15C532.47,-576.81 538.73,-585.75 558.75,-585.75 569.39,-585.75 576.14,-583.23 579.01,-579.56"/>
<polygon fill="#63b8ff" stroke="#63b8ff" points="582.48,-579.11 577.72,-569.65 575.54,-580.02 582.48,-579.11"/>
</a>
</g>
</g>
<!-- Node12 -->
<g id="Node000012" class="node">
<title>Node12</title>
<g id="a_Node000012"><a xlink:href="carrinho_2nrf24__avr_8c.html#abefdb1d58b989853c0646a6c8b18b7d3" target="_top" xlink:title=" ">
<polygon fill="white" stroke="#666666" points="471.62,-363.75 412.88,-363.75 412.88,-343 471.62,-343 471.62,-363.75"/>
<text xml:space="preserve" text-anchor="middle" x="442.25" y="-350.25" font-family="Helvetica,sans-Serif" font-size="10.00">read_reg</text>
</a>
</g>
</g>
<!-- Node11&#45;&gt;Node12 -->
<g id="edge13_Node000011_Node000012" class="edge">
<title>Node11&#45;&gt;Node12</title>
<g id="a_edge13_Node000011_Node000012"><a xlink:title=" ">
<path fill="none" stroke="#63b8ff" d="M350.87,-353.38C367.07,-353.38 385.21,-353.38 400.97,-353.38"/>
<polygon fill="#63b8ff" stroke="#63b8ff" points="400.97,-356.88 410.97,-353.38 400.97,-349.88 400.97,-356.88"/>
</a>
</g>
</g>
<!-- Node13 -->
<g id="Node000013" class="node">
<title>Node13</title>
<g id="a_Node000013"><a xlink:href="carrinho_2nrf24__avr_8c.html#adaef88bc02a8e805de3b3a82bf317549" target="_top" xlink:title=" ">
<polygon fill="white" stroke="#666666" points="588.12,-285.75 529.38,-285.75 529.38,-265 588.12,-265 588.12,-285.75"/>
<text xml:space="preserve" text-anchor="middle" x="558.75" y="-272.25" font-family="Helvetica,sans-Serif" font-size="10.00">csn_high</text>
</a>
</g>
</g>
<!-- Node12&#45;&gt;Node13 -->
<g id="edge14_Node000012_Node000013" class="edge">
<title>Node12&#45;&gt;Node13</title>
<g id="a_edge14_Node000012_Node000013"><a xlink:title=" ">
<path fill="none" stroke="#63b8ff" d="M468.16,-342.61C473.35,-339.91 478.63,-336.8 483.25,-333.38 501.94,-319.52 500.67,-309.38 519.25,-295.38 520.78,-294.22 522.39,-293.1 524.04,-292.02"/>
<polygon fill="#63b8ff" stroke="#63b8ff" points="525.67,-295.12 532.49,-287.01 522.1,-289.1 525.67,-295.12"/>
</a>
</g>
</g>
<!-- Node15 -->
<g id="Node000015" class="node">
<title>Node15</title>
<g id="a_Node000015"><a xlink:href="carrinho_2nrf24__avr_8c.html#a42f8c1120431b7c37e116a4e1eac1cc2" target="_top" xlink:title=" ">
<polygon fill="white" stroke="#666666" points="586.25,-363.75 531.25,-363.75 531.25,-343 586.25,-343 586.25,-363.75"/>
<text xml:space="preserve" text-anchor="middle" x="558.75" y="-350.25" font-family="Helvetica,sans-Serif" font-size="10.00">csn_low</text>
</a>
</g>
</g>
<!-- Node12&#45;&gt;Node15 -->
<g id="edge16_Node000012_Node000015" class="edge">
<title>Node12&#45;&gt;Node15</title>
<g id="a_edge16_Node000012_Node000015"><a xlink:title=" ">
<path fill="none" stroke="#63b8ff" d="M471.85,-353.38C486.31,-353.38 504.06,-353.38 519.66,-353.38"/>
<polygon fill="#63b8ff" stroke="#63b8ff" points="519.57,-356.88 529.57,-353.38 519.57,-349.88 519.57,-356.88"/>
</a>
</g>
</g>
<!-- Node16 -->
<g id="Node000016" class="node">
<title>Node16</title>
<g id="a_Node000016"><a xlink:href="carrinho_2nrf24__avr_8c.html#a8d161d483c095113df5b69798e9cd725" target="_top" xlink:title=" ">
<polygon fill="white" stroke="#666666" points="595.62,-324.75 521.88,-324.75 521.88,-304 595.62,-304 595.62,-324.75"/>
<text xml:space="preserve" text-anchor="middle" x="558.75" y="-311.25" font-family="Helvetica,sans-Serif" font-size="10.00">spi_transfer</text>
</a>
</g>
</g>
<!-- Node12&#45;&gt;Node16 -->
<g id="edge18_Node000012_Node000016" class="edge">
<title>Node12&#45;&gt;Node16</title>
<g id="a_edge18_Node000012_Node000016"><a xlink:title=" ">
<path fill="none" stroke="#63b8ff" d="M471.85,-343.63C484.94,-339.18 500.72,-333.8 515.17,-328.88"/>
<polygon fill="#63b8ff" stroke="#63b8ff" points="516.12,-332.25 524.46,-325.72 513.86,-325.63 516.12,-332.25"/>
</a>
</g>
</g>
<!-- Node14 -->
<g id="Node000014" class="node">
<title>Node14</title>
<g id="a_Node000014"><a xlink:href="carrinho_2nrf24__avr_8c.html#a019970fc17b6b18fa4e45e0baf22c93f" target="_top" xlink:title=" ">
<polygon fill="white" stroke="#666666" points="718.5,-324.75 634.25,-324.75 634.25,-304 718.5,-304 718.5,-324.75"/>
<text xml:space="preserve" text-anchor="middle" x="676.38" y="-311.25" font-family="Helvetica,sans-Serif" font-size="10.00">digitalWrite_d</text>
</a>
</g>
</g>
<!-- Node13&#45;&gt;Node14 -->
<g id="edge15_Node000013_Node000014" class="edge">
<title>Node13&#45;&gt;Node14</title>
<g id="a_edge15_Node000013_Node000014"><a xlink:title=" ">
<path fill="none" stroke="#63b8ff" d="M588.33,-285.02C601.78,-289.55 618.1,-295.06 632.96,-300.07"/>
<polygon fill="#63b8ff" stroke="#63b8ff" points="631.43,-303.25 642.02,-303.13 633.67,-296.61 631.43,-303.25"/>
</a>
</g>
</g>
<!-- Node15&#45;&gt;Node14 -->
<g id="edge17_Node000015_Node000014" class="edge">
<title>Node15&#45;&gt;Node14</title>
<g id="a_edge17_Node000015_Node000014"><a xlink:title=" ">
<path fill="none" stroke="#63b8ff" d="M586.57,-344.33C600.2,-339.73 617.1,-334.03 632.49,-328.84"/>
<polygon fill="#63b8ff" stroke="#63b8ff" points="633.57,-332.17 641.92,-325.66 631.33,-325.54 633.57,-332.17"/>
</a>
</g>
</g>
<!-- Node18 -->
<g id="Node000018" class="node">
<title>Node18</title>
<g id="a_Node000018"><a xlink:href="carrinho_2nrf24__avr_8c.html#ac4a676257b5b86b05f4ea608636cb2cf" target="_top" xlink:title=" ">
<polygon fill="white" stroke="#666666" points="483.25,-324.75 401.25,-324.75 401.25,-304 483.25,-304 483.25,-324.75"/>
<text xml:space="preserve" text-anchor="middle" x="442.25" y="-311.25" font-family="Helvetica,sans-Serif" font-size="10.00">read_payload</text>
</a>
</g>
</g>
<!-- Node17&#45;&gt;Node18 -->
<g id="edge20_Node000017_Node000018" class="edge">
<title>Node17&#45;&gt;Node18</title>
<g id="a_edge20_Node000017_Node000018"><a xlink:title=" ">
<path fill="none" stroke="#63b8ff" d="M339.24,-314.38C354.4,-314.38 372.66,-314.38 389.51,-314.38"/>
<polygon fill="#63b8ff" stroke="#63b8ff" points="389.39,-317.88 399.39,-314.38 389.39,-310.88 389.39,-317.88"/>
</a>
</g>
</g>
<!-- Node19 -->
<g id="Node000019" class="node">
<title>Node19</title>
<g id="a_Node000019"><a xlink:href="carrinho_2nrf24__avr_8c.html#a08bc978021db604d02a6da754f73e7e2" target="_top" xlink:title=" ">
<polygon fill="white" stroke="#666666" points="473.12,-285.75 411.38,-285.75 411.38,-265 473.12,-265 473.12,-285.75"/>
<text xml:space="preserve" text-anchor="middle" x="442.25" y="-272.25" font-family="Helvetica,sans-Serif" font-size="10.00">write_reg</text>
</a>
</g>
</g>
<!-- Node17&#45;&gt;Node19 -->
<g id="edge24_Node000017_Node000019" class="edge">
<title>Node17&#45;&gt;Node19</title>
<g id="a_edge24_Node000017_Node000019"><a xlink:title=" ">
<path fill="none" stroke="#63b8ff" d="M339.24,-304.73C357.59,-299.45 380.48,-292.87 399.92,-287.27"/>
<polygon fill="#63b8ff" stroke="#63b8ff" points="400.82,-290.65 409.46,-284.52 398.88,-283.93 400.82,-290.65"/>
</a>
</g>
</g>
<!-- Node18&#45;&gt;Node13 -->
<g id="edge21_Node000018_Node000013" class="edge">
<title>Node18&#45;&gt;Node13</title>
<g id="a_edge21_Node000018_Node000013"><a xlink:title=" ">
<path fill="none" stroke="#63b8ff" d="M475.14,-303.51C488.51,-298.96 504.19,-293.62 518.27,-288.82"/>
<polygon fill="#63b8ff" stroke="#63b8ff" points="519.38,-292.14 527.72,-285.6 517.12,-285.51 519.38,-292.14"/>
</a>
</g>
</g>
<!-- Node18&#45;&gt;Node15 -->
<g id="edge22_Node000018_Node000015" class="edge">
<title>Node18&#45;&gt;Node15</title>
<g id="a_edge22_Node000018_Node000015"><a xlink:title=" ">
<path fill="none" stroke="#63b8ff" d="M475.14,-325.24C489.17,-330.02 505.74,-335.66 520.35,-340.63"/>
<polygon fill="#63b8ff" stroke="#63b8ff" points="519.03,-343.88 529.62,-343.79 521.29,-337.26 519.03,-343.88"/>
</a>
</g>
</g>
<!-- Node18&#45;&gt;Node16 -->
<g id="edge23_Node000018_Node000016" class="edge">
<title>Node18&#45;&gt;Node16</title>
<g id="a_edge23_Node000018_Node000016"><a xlink:title=" ">
<path fill="none" stroke="#63b8ff" d="M483.62,-314.38C492.21,-314.38 501.37,-314.38 510.2,-314.38"/>
<polygon fill="#63b8ff" stroke="#63b8ff" points="510.05,-317.88 520.05,-314.38 510.05,-310.88 510.05,-317.88"/>
</a>
</g>
</g>
<!-- Node19&#45;&gt;Node13 -->
<g id="edge25_Node000019_Node000013" class="edge">
<title>Node19&#45;&gt;Node13</title>
<g id="a_edge25_Node000019_Node000013"><a xlink:title=" ">
<path fill="none" stroke="#63b8ff" d="M473.33,-275.38C486.93,-275.38 503.18,-275.38 517.78,-275.38"/>
<polygon fill="#63b8ff" stroke="#63b8ff" points="517.54,-278.88 527.54,-275.38 517.54,-271.88 517.54,-278.88"/>
</a>
</g>
</g>
<!-- Node19&#45;&gt;Node15 -->
<g id="edge26_Node000019_Node000015" class="edge">
<title>Node19&#45;&gt;Node15</title>
<g id="a_edge26_Node000019_Node000015"><a xlink:title=" ">
<path fill="none" stroke="#63b8ff" d="M468.16,-286.14C473.35,-288.84 478.63,-291.95 483.25,-295.38 501.94,-309.23 500.67,-319.37 519.25,-333.38 520.78,-334.53 522.39,-335.65 524.04,-336.73"/>
<polygon fill="#63b8ff" stroke="#63b8ff" points="522.1,-339.65 532.49,-341.74 525.67,-333.63 522.1,-339.65"/>
</a>
</g>
</g>
<!-- Node19&#45;&gt;Node16 -->
<g id="edge27_Node000019_Node000016" class="edge">
<title>Node19&#45;&gt;Node16</title>
<g id="a_edge27_Node000019_Node000016"><a xlink:title=" ">
<path fill="none" stroke="#63b8ff" d="M473.33,-285.62C486.09,-289.97 501.19,-295.11 515.07,-299.84"/>
<polygon fill="#63b8ff" stroke="#63b8ff" points="513.84,-303.12 524.43,-303.03 516.09,-296.49 513.84,-303.12"/>
</a>
</g>
</g>
<!-- Node20&#45;&gt;Node13 -->
<g id="edge32_Node000020_Node000013" class="edge">
<title>Node20&#45;&gt;Node13</title>
<g id="a_edge32_Node000020_Node000013"><a xlink:title=" ">
<path fill="none" stroke="#63b8ff" d="M179.82,-136.64C224.57,-129.81 302.4,-122.78 365.25,-142.38 437.92,-165.04 507.34,-225.78 539.34,-256.72"/>
<polygon fill="#63b8ff" stroke="#63b8ff" points="536.68,-259.01 546.26,-263.53 541.59,-254.02 536.68,-259.01"/>
</a>
</g>
</g>
<!-- Node20&#45;&gt;Node19 -->
<g id="edge38_Node000020_Node000019" class="edge">
<title>Node20&#45;&gt;Node19</title>
<g id="a_edge38_Node000020_Node000019"><a xlink:title=" ">
<path fill="none" stroke="#63b8ff" d="M179.53,-141.99C225.72,-141.83 306.79,-147.1 365.25,-181.38 394.99,-198.81 417.85,-232.57 430.42,-254.53"/>
<polygon fill="#63b8ff" stroke="#63b8ff" points="427.29,-256.1 435.16,-263.18 433.43,-252.73 427.29,-256.1"/>
</a>
</g>
</g>
<!-- Node21 -->
<g id="Node000021" class="node">
<title>Node21</title>
<g id="a_Node000021"><a xlink:href="carrinho_2nrf24__avr_8c.html#a77c5f7c57c01266d04faea3052a47f49" target="_top" xlink:title=" ">
<polygon fill="white" stroke="#666666" points="583.62,-152.75 533.88,-152.75 533.88,-132 583.62,-132 583.62,-152.75"/>
<text xml:space="preserve" text-anchor="middle" x="558.75" y="-139.25" font-family="Helvetica,sans-Serif" font-size="10.00">ce_low</text>
</a>
</g>
</g>
<!-- Node20&#45;&gt;Node21 -->
<g id="edge30_Node000020_Node000021" class="edge">
<title>Node20&#45;&gt;Node21</title>
<g id="a_edge30_Node000020_Node000021"><a xlink:title=" ">
<path fill="none" stroke="#63b8ff" d="M179.57,-137.03C189.54,-134.05 199.91,-129.71 208.25,-123.38 231.81,-105.48 218.28,-81.55 244.25,-67.38 291.45,-41.61 312.29,-58.03 365.25,-67.38 425.37,-77.99 490.63,-107.64 527.63,-126.32"/>
<polygon fill="#63b8ff" stroke="#63b8ff" points="525.89,-129.36 536.38,-130.82 529.09,-123.14 525.89,-129.36"/>
</a>
</g>
</g>
<!-- Node22 -->
<g id="Node000022" class="node">
<title>Node22</title>
<g id="a_Node000022"><a xlink:href="carrinho_2nrf24__avr_8c.html#a023289d1e49bf7f3b61e0e1c5312c8cf" target="_top" xlink:title=" ">
<polygon fill="white" stroke="#666666" points="352.88,-20.75 256.62,-20.75 256.62,0 352.88,0 352.88,-20.75"/>
<text xml:space="preserve" text-anchor="middle" x="304.75" y="-7.25" font-family="Helvetica,sans-Serif" font-size="10.00">nrf24_init_hwspi</text>
</a>
</g>
</g>
<!-- Node20&#45;&gt;Node22 -->
<g id="edge33_Node000020_Node000022" class="edge">
<title>Node20&#45;&gt;Node22</title>
<g id="a_edge33_Node000020_Node000022"><a xlink:title=" ">
<path fill="none" stroke="#63b8ff" d="M179.7,-138.19C189.9,-135.24 200.37,-130.62 208.25,-123.38 239.67,-94.51 214.06,-64.53 244.25,-34.38 247.18,-31.45 250.51,-28.86 254.07,-26.59"/>
<polygon fill="#63b8ff" stroke="#63b8ff" points="255.45,-29.82 262.57,-21.97 252.11,-23.67 255.45,-29.82"/>
</a>
</g>
</g>
<!-- Node24 -->
<g id="Node000024" class="node">
<title>Node24</title>
<g id="a_Node000024"><a xlink:href="carrinho_2nrf24__avr_8c.html#aaf2900e7932ebbf7f0ecdc6bce5840e1" target="_top" xlink:title=" ">
<polygon fill="white" stroke="#666666" points="365.25,-210.75 244.25,-210.75 244.25,-190 365.25,-190 365.25,-210.75"/>
<text xml:space="preserve" text-anchor="middle" x="304.75" y="-197.25" font-family="Helvetica,sans-Serif" font-size="10.00">nrf24_setPayloadSize</text>
</a>
</g>
</g>
<!-- Node20&#45;&gt;Node24 -->
<g id="edge35_Node000020_Node000024" class="edge">
<title>Node20&#45;&gt;Node24</title>
<g id="a_edge35_Node000020_Node000024"><a xlink:title=" ">
<path fill="none" stroke="#63b8ff" d="M174.02,-154.23C199.19,-163.18 235.13,-175.97 262.81,-185.81"/>
<polygon fill="#63b8ff" stroke="#63b8ff" points="261.32,-189 271.92,-189.05 263.67,-182.4 261.32,-189"/>
</a>
</g>
</g>
<!-- Node25 -->
<g id="Node000025" class="node">
<title>Node25</title>
<g id="a_Node000025"><a xlink:href="carrinho_2nrf24__avr_8c.html#aa3db4917fa58896ce0a8027a30795033" target="_top" xlink:title=" ">
<polygon fill="white" stroke="#666666" points="339.38,-96.75 270.12,-96.75 270.12,-76 339.38,-76 339.38,-96.75"/>
<text xml:space="preserve" text-anchor="middle" x="304.75" y="-83.25" font-family="Helvetica,sans-Serif" font-size="10.00">pinMode_d</text>
</a>
</g>
</g>
<!-- Node20&#45;&gt;Node25 -->
<g id="edge37_Node000020_Node000025" class="edge">
<title>Node20&#45;&gt;Node25</title>
<g id="a_edge37_Node000020_Node000025"><a xlink:title=" ">
<path fill="none" stroke="#63b8ff" d="M179.61,-132.71C188.98,-129.81 199.03,-126.58 208.25,-123.38 227.72,-116.61 249.14,-108.38 266.76,-101.4"/>
<polygon fill="#63b8ff" stroke="#63b8ff" points="267.78,-104.76 275.77,-97.81 265.19,-98.26 267.78,-104.76"/>
</a>
</g>
</g>
<!-- Node21&#45;&gt;Node14 -->
<g id="edge31_Node000021_Node000014" class="edge">
<title>Node21&#45;&gt;Node14</title>
<g id="a_edge31_Node000021_Node000014"><a xlink:title=" ">
<path fill="none" stroke="#63b8ff" d="M566.98,-153.13C585.96,-181.37 637.42,-257.92 661.98,-294.45"/>
<polygon fill="#63b8ff" stroke="#63b8ff" points="658.82,-296.02 667.3,-302.36 664.63,-292.11 658.82,-296.02"/>
</a>
</g>
</g>
<!-- Node23 -->
<g id="Node000023" class="node">
<title>Node23</title>
<g id="a_Node000023"><a xlink:href="carrinho_2nrf24__avr_8c.html#aa653f4dc3541758224a53eef3f04d490" target="_top" xlink:title=" ">
<polygon fill="white" stroke="#666666" points="467.88,-20.75 416.62,-20.75 416.62,0 467.88,0 467.88,-20.75"/>
<text xml:space="preserve" text-anchor="middle" x="442.25" y="-7.25" font-family="Helvetica,sans-Serif" font-size="10.00">spi_init</text>
</a>
</g>
</g>
<!-- Node22&#45;&gt;Node23 -->
<g id="edge34_Node000022_Node000023" class="edge">
<title>Node22&#45;&gt;Node23</title>
<g id="a_edge34_Node000022_Node000023"><a xlink:title=" ">
<path fill="none" stroke="#63b8ff" d="M353.14,-10.38C370.05,-10.38 388.82,-10.38 404.68,-10.38"/>
<polygon fill="#63b8ff" stroke="#63b8ff" points="404.64,-13.88 414.64,-10.38 404.64,-6.88 404.64,-13.88"/>
</a>
</g>
</g>
<!-- Node24&#45;&gt;Node19 -->
<g id="edge36_Node000024_Node000019" class="edge">
<title>Node24&#45;&gt;Node19</title>
<g id="a_edge36_Node000024_Node000019"><a xlink:title=" ">
<path fill="none" stroke="#63b8ff" d="M335.96,-211.15C345.52,-214.94 356,-219.47 365.25,-224.38 383.73,-234.17 403.3,-247.37 417.95,-257.89"/>
<polygon fill="#63b8ff" stroke="#63b8ff" points="415.87,-260.71 426.01,-263.78 420,-255.05 415.87,-260.71"/>
</a>
</g>
</g>
<!-- Node26&#45;&gt;Node19 -->
<g id="edge40_Node000026_Node000019" class="edge">
<title>Node26&#45;&gt;Node19</title>
<g id="a_edge40_Node000026_Node000019"><a xlink:title=" ">
<path fill="none" stroke="#63b8ff" d="M208.67,-253.19C252.94,-254.26 312.76,-256.72 365.25,-262.38 376.51,-263.59 388.63,-265.42 399.81,-267.33"/>
<polygon fill="#63b8ff" stroke="#63b8ff" points="399.1,-270.75 409.55,-269.06 400.32,-263.86 399.1,-270.75"/>
</a>
</g>
</g>
<!-- Node27&#45;&gt;Node19 -->
<g id="edge42_Node000027_Node000019" class="edge">
<title>Node27&#45;&gt;Node19</title>
<g id="a_edge42_Node000027_Node000019"><a xlink:title=" ">
<path fill="none" stroke="#63b8ff" d="M181.5,-309.59C200.26,-304.62 223.3,-299.02 244.25,-295.38 297.46,-286.12 359.57,-280.69 399.6,-277.88"/>
<polygon fill="#63b8ff" stroke="#63b8ff" points="399.78,-281.37 409.52,-277.21 399.31,-274.39 399.78,-281.37"/>
</a>
</g>
</g>
<!-- Node28&#45;&gt;Node12 -->
<g id="edge46_Node000028_Node000012" class="edge">
<title>Node28&#45;&gt;Node12</title>
<g id="a_edge46_Node000028_Node000012"><a xlink:title=" ">
<path fill="none" stroke="#63b8ff" d="M348.21,-459.54C354.21,-457.04 360.09,-454.02 365.25,-450.38 393.95,-430.09 417.1,-395.91 430.02,-374.01"/>
<polygon fill="#63b8ff" stroke="#63b8ff" points="433.01,-375.82 434.92,-365.4 426.93,-372.36 433.01,-375.82"/>
</a>
</g>
</g>
<!-- Node28&#45;&gt;Node19 -->
<g id="edge47_Node000028_Node000019" class="edge">
<title>Node28&#45;&gt;Node19</title>
<g id="a_edge47_Node000028_Node000019"><a xlink:title=" ">
<path fill="none" stroke="#63b8ff" d="M353.37,-459.57C357.8,-457.11 361.88,-454.09 365.25,-450.38 412.8,-398.02 357.46,-350.91 401.25,-295.38 401.79,-294.69 402.36,-294.02 402.96,-293.38"/>
<polygon fill="#63b8ff" stroke="#63b8ff" points="405.13,-296.12 410.71,-287.11 400.73,-290.68 405.13,-296.12"/>
</a>
</g>
</g>
<!-- Node29 -->
<g id="Node000029" class="node">
<title>Node29</title>
<g id="a_Node000029"><a xlink:href="carrinho_2nrf24__avr_8c.html#a5336963072afb877d785bed84eb6b5f4" target="_top" xlink:title=" ">
<polygon fill="white" stroke="#666666" points="585.5,-451.75 532,-451.75 532,-431 585.5,-431 585.5,-451.75"/>
<text xml:space="preserve" text-anchor="middle" x="558.75" y="-438.25" font-family="Helvetica,sans-Serif" font-size="10.00">ce_high</text>
</a>
</g>
</g>
<!-- Node28&#45;&gt;Node29 -->
<g id="edge44_Node000028_Node000029" class="edge">
<title>Node28&#45;&gt;Node29</title>
<g id="a_edge44_Node000028_Node000029"><a xlink:title=" ">
<path fill="none" stroke="#63b8ff" d="M361.99,-463.9C410.28,-458.35 478.54,-450.49 520.38,-445.68"/>
<polygon fill="#63b8ff" stroke="#63b8ff" points="520.66,-449.17 530.2,-444.55 519.86,-442.21 520.66,-449.17"/>
</a>
</g>
</g>
<!-- Node29&#45;&gt;Node14 -->
<g id="edge45_Node000029_Node000014" class="edge">
<title>Node29&#45;&gt;Node14</title>
<g id="a_edge45_Node000029_Node000014"><a xlink:title=" ">
<path fill="none" stroke="#63b8ff" d="M569.61,-430.55C589.23,-408.99 633.42,-360.46 658.01,-333.44"/>
<polygon fill="#63b8ff" stroke="#63b8ff" points="660.38,-336.05 664.52,-326.29 655.2,-331.33 660.38,-336.05"/>
</a>
</g>
</g>
</g>
</svg>
