<?xml version="1.0" encoding="UTF-8" standalone="no"?>
<!DOCTYPE svg PUBLIC "-//W3C//DTD SVG 1.1//EN"
 "http://www.w3.org/Graphics/SVG/1.1/DTD/svg11.dtd">
<!-- Generated by graphviz version 14.0.4 (0)
 -->
<!-- Title: carrinho/nrf24_avr.h Pages: 1 -->
<svg width="255pt" height="86pt"
 viewBox="0.00 0.00 255.00 86.00" xmlns="http://www.w3.org/2000/svg" xmlns:xlink="http://www.w3.org/1999/xlink">
<g id="graph0" class="graph" transform="scale(1 1) rotate(0) translate(4 81.5)">
<title>carrinho/nrf24_avr.h</title>
<!-- Node1 -->
<g id="Node000001" class="node">
<title>Node1</title>
<g id="a_Node000001"><a xlink:title=" ">
<polygon fill="#999999" stroke="#666666" points="164.5,-77.5 50.25,-77.5 50.25,-56.75 164.5,-56.75 164.5,-77.5"/>
<text xml:space="preserve" text-anchor="middle" x="107.38" y="-64" font-family="Helvetica,sans-Serif" font-size="10.00">carrinho/nrf24_avr.h</text>
</a>
</g>
</g>
<!-- Node2 -->
<g id="Node000002" class="node">
<title>Node2</title>
<g id="a_Node000002"><a xlink:title=" ">
<polygon fill="#e0e0e0" stroke="#999999" points="52.75,-20.75 0,-20.75 0,0 52.75,0 52.75,-20.75"/>
<text xml:space="preserve" text-anchor="middle" x="26.38" y="-7.25" font-family="Helvetica,sans-Serif" font-size="10.00">stdint.h</text>
</a>
</g>
</g>
<!-- Node1&#45;&gt;Node2 -->
<g id="edge1_Node000001_Node000002" class="edge">
<title>Node1&#45;&gt;Node2</title>
<g id="a_edge1_Node000001_Node000002"><a xlink:title=" ">
<path fill="none" stroke="#63b8ff" d="M92.89,-56.34C81.03,-48.32 64,-36.81 50.14,-27.44"/>
<polygon fill="#63b8ff" stroke="#63b8ff" points="52.23,-24.63 41.98,-21.93 48.31,-30.43 52.23,-24.63"/>
</a>
</g>
</g>
<!-- Node3 -->
<g id="Node000003" class="node">
<title>Node3</title>
<g id="a_Node000003"><a xlink:href="carrinho_2nRF24L01_8h.html" target="_top" xlink:title=" ">
<polygon fill="white" stroke="#666666" points="143.88,-20.75 70.88,-20.75 70.88,0 143.88,0 143.88,-20.75"/>
<text xml:space="preserve" text-anchor="middle" x="107.38" y="-7.25" font-family="Helvetica,sans-Serif" font-size="10.00">nRF24L01.h</text>
</a>
</g>
</g>
<!-- Node1&#45;&gt;Node3 -->
<g id="edge2_Node000001_Node000003" class="edge">
<title>Node1&#45;&gt;Node3</title>
<g id="a_edge2_Node000001_Node000003"><a xlink:title=" ">
<path fill="none" stroke="#63b8ff" d="M107.38,-56.34C107.38,-49.72 107.38,-40.72 107.38,-32.52"/>
<polygon fill="#63b8ff" stroke="#63b8ff" points="110.88,-32.59 107.38,-22.59 103.88,-32.59 110.88,-32.59"/>
</a>
</g>
</g>
<!-- Node4 -->
<g id="Node000004" class="node">
<title>Node4</title>
<g id="a_Node000004"><a xlink:href="carrinho_2RF24__config_8h.html" target="_top" xlink:title=" ">
<polygon fill="white" stroke="#666666" points="246.88,-20.75 161.88,-20.75 161.88,0 246.88,0 246.88,-20.75"/>
<text xml:space="preserve" text-anchor="middle" x="204.38" y="-7.25" font-family="Helvetica,sans-Serif" font-size="10.00">RF24_config.h</text>
</a>
</g>
</g>
<!-- Node1&#45;&gt;Node4 -->
<g id="edge3_Node000001_Node000004" class="edge">
<title>Node1&#45;&gt;Node4</title>
<g id="a_edge3_Node000001_Node000004"><a xlink:title=" ">
<path fill="none" stroke="#63b8ff" d="M124.72,-56.34C139.34,-48.08 160.51,-36.13 177.35,-26.63"/>
<polygon fill="#63b8ff" stroke="#63b8ff" points="178.88,-29.79 185.87,-21.82 175.44,-23.69 178.88,-29.79"/>
</a>
</g>
</g>
</g>
</svg>
