<?xml version="1.0" encoding="UTF-8" standalone="no"?>
<!DOCTYPE svg PUBLIC "-//W3C//DTD SVG 1.1//EN"
 "http://www.w3.org/Graphics/SVG/1.1/DTD/svg11.dtd">
<!-- Generated by graphviz version 14.0.4 (0)
 -->
<!-- Title: hit Pages: 1 -->
<svg width="233pt" height="86pt"
 viewBox="0.00 0.00 233.00 86.00" xmlns="http://www.w3.org/2000/svg" xmlns:xlink="http://www.w3.org/1999/xlink">
<g id="graph0" class="graph" transform="scale(1 1) rotate(0) translate(4 81.75)">
<title>hit</title>
<!-- Node1 -->
<g id="Node000001" class="node">
<title>Node1</title>
<g id="a_Node000001"><a xlink:title="Reduz a vida e executa a penalidade de dano.">
<polygon fill="#999999" stroke="#666666" points="28.8,-48.75 0,-48.75 0,-28 28.8,-28 28.8,-48.75"/>
<text xml:space="preserve" text-anchor="middle" x="14.4" y="-35.25" font-family="Helvetica,sans-Serif" font-size="10.00">hit</text>
</a>
</g>
</g>
<!-- Node2 -->
<g id="Node000002" class="node">
<title>Node2</title>
<g id="a_Node000002"><a xlink:href="carrinho_8c.html#a83f9abde8522ce95dd4c5ce5ba3d9d39" target="_top" xlink:title="Controla um motor no sentido desejado e com PWM.">
<polygon fill="white" stroke="#666666" points="110.05,-48.75 64.8,-48.75 64.8,-28 110.05,-28 110.05,-48.75"/>
<text xml:space="preserve" text-anchor="middle" x="87.43" y="-35.25" font-family="Helvetica,sans-Serif" font-size="10.00">motor</text>
</a>
</g>
</g>
<!-- Node1&#45;&gt;Node2 -->
<g id="edge1_Node000001_Node000002" class="edge">
<title>Node1&#45;&gt;Node2</title>
<g id="a_edge1_Node000001_Node000002"><a xlink:title=" ">
<path fill="none" stroke="#63b8ff" d="M29.09,-38.38C35.97,-38.38 44.62,-38.38 53.11,-38.38"/>
<polygon fill="#63b8ff" stroke="#63b8ff" points="52.88,-41.88 62.88,-38.38 52.88,-34.88 52.88,-41.88"/>
</a>
</g>
</g>
<!-- Node3 -->
<g id="Node000003" class="node">
<title>Node3</title>
<g id="a_Node000003"><a xlink:href="carrinho_8c.html#ac7c0935e24e573b2929d0df7f9e6b82f" target="_top" xlink:title="Define o duty de um PWM em uma das saídas configuradas.">
<polygon fill="white" stroke="#666666" points="225.05,-77.75 146.05,-77.75 146.05,-57 225.05,-57 225.05,-77.75"/>
<text xml:space="preserve" text-anchor="middle" x="185.55" y="-64.25" font-family="Helvetica,sans-Serif" font-size="10.00">analog_write</text>
</a>
</g>
</g>
<!-- Node2&#45;&gt;Node3 -->
<g id="edge2_Node000002_Node000003" class="edge">
<title>Node2&#45;&gt;Node3</title>
<g id="a_edge2_Node000002_Node000003"><a xlink:title=" ">
<path fill="none" stroke="#63b8ff" d="M110.24,-44.96C118.53,-47.46 128.32,-50.41 138.03,-53.34"/>
<polygon fill="#63b8ff" stroke="#63b8ff" points="136.84,-56.64 147.42,-56.17 138.86,-49.94 136.84,-56.64"/>
</a>
</g>
</g>
<!-- Node4 -->
<g id="Node000004" class="node">
<title>Node4</title>
<g id="a_Node000004"><a xlink:href="carrinho__ino_8ino.html#a83f9abde8522ce95dd4c5ce5ba3d9d39" target="_top" xlink:title=" ">
<polygon fill="white" stroke="#666666" points="208.18,-20.75 162.93,-20.75 162.93,0 208.18,0 208.18,-20.75"/>
<text xml:space="preserve" text-anchor="middle" x="185.55" y="-7.25" font-family="Helvetica,sans-Serif" font-size="10.00">motor</text>
</a>
</g>
</g>
<!-- Node2&#45;&gt;Node4 -->
<g id="edge3_Node000002_Node000004" class="edge">
<title>Node2&#45;&gt;Node4</title>
<g id="a_edge3_Node000002_Node000004"><a xlink:title=" ">
<path fill="none" stroke="#63b8ff" d="M110.24,-32.02C122.44,-28.47 137.9,-23.96 151.56,-19.99"/>
<polygon fill="#63b8ff" stroke="#63b8ff" points="152.42,-23.38 161.04,-17.22 150.46,-16.66 152.42,-23.38"/>
</a>
</g>
</g>
<!-- Node4&#45;&gt;Node4 -->
<g id="edge4_Node000004_Node000004" class="edge">
<title>Node4&#45;&gt;Node4</title>
<g id="a_edge4_Node000004_Node000004"><a xlink:title=" ">
<path fill="none" stroke="#63b8ff" d="M169.74,-21.15C163.41,-29.81 168.68,-38.75 185.55,-38.75 194.51,-38.75 200.2,-36.23 202.61,-32.56"/>
<polygon fill="#63b8ff" stroke="#63b8ff" points="206.09,-32.21 201.53,-22.65 199.14,-32.97 206.09,-32.21"/>
</a>
</g>
</g>
</g>
</svg>
