<?xml version="1.0" encoding="UTF-8" standalone="no"?>
<!DOCTYPE svg PUBLIC "-//W3C//DTD SVG 1.1//EN"
 "http://www.w3.org/Graphics/SVG/1.1/DTD/svg11.dtd">
<!-- Generated by graphviz version 14.0.4 (0)
 -->
<!-- Title: loop Pages: 1 -->
<!--zoomable 222 -->

<svg id="main" version="1.1" xmlns="http://www.w3.org/2000/svg" xmlns:xlink="http://www.w3.org/1999/xlink" xml:space="preserve" onload="init(evt)">

<style type="text/css"><![CDATA[
.node, .edge {opacity: 0.7;}
.node.selected, .edge.selected {opacity: 1;}
.edge:hover path { stroke: red; }
.edge:hover polygon { stroke: red; fill: red; }
]]></style>

<defs>
  <circle id="rim" cx="0" cy="0" r="7"/>
  <circle id="rim2" cx="0" cy="0" r="3.5"/>
  <g id="zoomPlus">
    <use xlink:href="#rim" fill="#404040"><set attributeName="fill" to="#808080" begin="zoomplus.mouseover" end="zoomplus.mouseout"/></use>
    <path d="M-4,0h8M0,-4v8" fill="none" stroke="white" stroke-width="1.5" pointer-events="none"/>
  </g>
  <g id="zoomMin">
    <use xlink:href="#rim" fill="#404040"><set attributeName="fill" to="#808080" begin="zoomminus.mouseover" end="zoomminus.mouseout"/></use>
    <path d="M-4,0h8" fill="none" stroke="white" stroke-width="1.5" pointer-events="none"/>
  </g>
  <g id="arrowUp" transform="translate(30 24)">
    <use xlink:href="#rim"/>
    <path pointer-events="none" fill="none" stroke="white" stroke-width="1.5" d="M0,-3.0v7 M-2.5,-0.5L0,-3.0L2.5,-0.5"/>
  </g>
  <g id="arrowRight" transform="rotate(90) translate(36 -43)">
    <use xlink:href="#rim"/>
    <path pointer-events="none" fill="none" stroke="white" stroke-width="1.5" d="M0,-3.0v7 M-2.5,-0.5L0,-3.0L2.5,-0.5"/>
  </g>
  <g id="arrowDown" transform="rotate(180) translate(-30 -48)">
    <use xlink:href="#rim"/>
    <path pointer-events="none" fill="none" stroke="white" stroke-width="1.5" d="M0,-3.0v7 M-2.5,-0.5L0,-3.0L2.5,-0.5"/>
  </g>
  <g id="arrowLeft" transform="rotate(270) translate(-36 17)">
    <use xlink:href="#rim"/>
    <path pointer-events="none" fill="none" stroke="white" stroke-width="1.5" d="M0,-3.0v7 M-2.5,-0.5L0,-3.0L2.5,-0.5"/>
  </g>
  <g id="resetDef">
    <use xlink:href="#rim2" fill="#404040"><set attributeName="fill" to="#808080" begin="reset.mouseover" end="reset.mouseout"/></use>
  </g>
</defs>
<script type="application/ecmascript">
var viewWidth = 537;
var viewHeight = 222;
var sectionId = 'dynsection-6';
</script>
<script type="application/ecmascript" xlink:href="svg.min.js"/>
<svg id="graph" class="graph">
<g id="viewport">
<title>loop</title>
<!-- Node1 -->
<g id="Node000001" class="node">
<title>Node1</title>
<g id="a_Node000001"><a xlink:title=" ">
<polygon fill="#999999" stroke="#666666" points="37,-117.75 0,-117.75 0,-97 37,-97 37,-117.75"/>
<text xml:space="preserve" text-anchor="middle" x="18.5" y="-104.25" font-family="Helvetica,sans-Serif" font-size="10.00">loop</text>
</a>
</g>
</g>
<!-- Node2 -->
<g id="Node000002" class="node">
<title>Node2</title>
<g id="a_Node000002"><a xlink:href="carrinho_8c.html#aaa87dddb1e62142fd07ee17db1b5d673" target="_top" xlink:title=" ">
<polygon fill="white" stroke="#666666" points="127.25,-213.75 94,-213.75 94,-193 127.25,-193 127.25,-213.75"/>
<text xml:space="preserve" text-anchor="middle" x="110.62" y="-200.25" font-family="Helvetica,sans-Serif" font-size="10.00">abs</text>
</a>
</g>
</g>
<!-- Node1&#45;&gt;Node2 -->
<g id="edge1_Node000001_Node000002" class="edge">
<title>Node1&#45;&gt;Node2</title>
<g id="a_edge1_Node000001_Node000002"><a xlink:title=" ">
<path fill="none" stroke="#63b8ff" d="M24.97,-118.11C33.49,-133.99 51.21,-163.93 73,-183.38 76.22,-186.25 79.92,-188.86 83.7,-191.19"/>
<polygon fill="#63b8ff" stroke="#63b8ff" points="81.86,-194.17 92.32,-195.91 85.23,-188.03 81.86,-194.17"/>
</a>
</g>
</g>
<!-- Node3 -->
<g id="Node000003" class="node">
<title>Node3</title>
<g id="a_Node000003"><a xlink:href="carrinho__ino_8ino.html#ae85c96d8ab4fe9d1b125421eaaef40e2" target="_top" xlink:title=" ">
<polygon fill="white" stroke="#666666" points="125.03,-174.75 96.22,-174.75 96.22,-154 125.03,-154 125.03,-174.75"/>
<text xml:space="preserve" text-anchor="middle" x="110.62" y="-161.25" font-family="Helvetica,sans-Serif" font-size="10.00">hit</text>
</a>
</g>
</g>
<!-- Node1&#45;&gt;Node3 -->
<g id="edge2_Node000001_Node000003" class="edge">
<title>Node1&#45;&gt;Node3</title>
<g id="a_edge2_Node000001_Node000003"><a xlink:title=" ">
<path fill="none" stroke="#63b8ff" d="M36.45,-118.1C50.59,-127.04 70.87,-139.87 86.5,-149.75"/>
<polygon fill="#63b8ff" stroke="#63b8ff" points="84.39,-152.55 94.71,-154.94 88.13,-146.64 84.39,-152.55"/>
</a>
</g>
</g>
<!-- Node5 -->
<g id="Node000005" class="node">
<title>Node5</title>
<g id="a_Node000005"><a xlink:href="carrinho__ino_8ino.html#a83f9abde8522ce95dd4c5ce5ba3d9d39" target="_top" xlink:title=" ">
<polygon fill="white" stroke="#666666" points="332.5,-155.75 287.25,-155.75 287.25,-135 332.5,-135 332.5,-155.75"/>
<text xml:space="preserve" text-anchor="middle" x="309.88" y="-142.25" font-family="Helvetica,sans-Serif" font-size="10.00">motor</text>
</a>
</g>
</g>
<!-- Node1&#45;&gt;Node5 -->
<g id="edge9_Node000001_Node000005" class="edge">
<title>Node1&#45;&gt;Node5</title>
<g id="a_edge9_Node000001_Node000005"><a xlink:title=" ">
<path fill="none" stroke="#63b8ff" d="M37.17,-109.69C84.33,-115.89 213.82,-132.89 275.44,-140.98"/>
<polygon fill="#63b8ff" stroke="#63b8ff" points="274.94,-144.45 285.31,-142.28 275.85,-137.51 274.94,-144.45"/>
</a>
</g>
</g>
<!-- Node8 -->
<g id="Node000008" class="node">
<title>Node8</title>
<g id="a_Node000008"><a xlink:href="carrinho__ino_8ino.html#adf1dfbee680be7fd774683d7c6a1a05c" target="_top" xlink:title=" ">
<polygon fill="white" stroke="#666666" points="148.25,-98.75 73,-98.75 73,-78 148.25,-78 148.25,-98.75"/>
<text xml:space="preserve" text-anchor="middle" x="110.62" y="-85.25" font-family="Helvetica,sans-Serif" font-size="10.00">isTimerOver</text>
</a>
</g>
</g>
<!-- Node1&#45;&gt;Node8 -->
<g id="edge8_Node000001_Node000008" class="edge">
<title>Node1&#45;&gt;Node8</title>
<g id="a_edge8_Node000001_Node000008"><a xlink:title=" ">
<path fill="none" stroke="#63b8ff" d="M37.31,-103.62C44.45,-102.12 53.05,-100.3 61.8,-98.46"/>
<polygon fill="#63b8ff" stroke="#63b8ff" points="62.3,-101.93 71.37,-96.44 60.86,-95.08 62.3,-101.93"/>
</a>
</g>
</g>
<!-- Node9 -->
<g id="Node000009" class="node">
<title>Node9</title>
<g id="a_Node000009"><a xlink:href="carrinho__ino_8ino.html#a53cdd46f95419ffdcd44d3f0d6147b54" target="_top" xlink:title=" ">
<polygon fill="white" stroke="#666666" points="131,-59.75 90.25,-59.75 90.25,-39 131,-39 131,-59.75"/>
<text xml:space="preserve" text-anchor="middle" x="110.62" y="-46.25" font-family="Helvetica,sans-Serif" font-size="10.00">radio</text>
</a>
</g>
</g>
<!-- Node1&#45;&gt;Node9 -->
<g id="edge10_Node000001_Node000009" class="edge">
<title>Node1&#45;&gt;Node9</title>
<g id="a_edge10_Node000001_Node000009"><a xlink:title=" ">
<path fill="none" stroke="#63b8ff" d="M33.72,-96.58C44.32,-88.7 59.28,-77.95 73,-69.38 75.28,-67.95 77.67,-66.52 80.09,-65.11"/>
<polygon fill="#63b8ff" stroke="#63b8ff" points="81.67,-68.24 88.67,-60.29 78.24,-62.13 81.67,-68.24"/>
</a>
</g>
</g>
<!-- Node10 -->
<g id="Node000010" class="node">
<title>Node10</title>
<g id="a_Node000010"><a xlink:href="carrinho__ino_8ino.html#a28e17ddfc6c506e94ffac4c672837624" target="_top" xlink:title=" ">
<polygon fill="white" stroke="#666666" points="145.62,-20.75 75.62,-20.75 75.62,0 145.62,0 145.62,-20.75"/>
<text xml:space="preserve" text-anchor="middle" x="110.62" y="-7.25" font-family="Helvetica,sans-Serif" font-size="10.00">timerReset</text>
</a>
</g>
</g>
<!-- Node1&#45;&gt;Node10 -->
<g id="edge11_Node000001_Node000010" class="edge">
<title>Node1&#45;&gt;Node10</title>
<g id="a_edge11_Node000001_Node000010"><a xlink:title=" ">
<path fill="none" stroke="#63b8ff" d="M24.8,-96.75C33.22,-80.74 50.96,-50.17 73,-30.38 74.21,-29.29 75.5,-28.23 76.83,-27.22"/>
<polygon fill="#63b8ff" stroke="#63b8ff" points="78.39,-30.38 84.81,-21.95 74.54,-24.54 78.39,-30.38"/>
</a>
</g>
</g>
<!-- Node4 -->
<g id="Node000004" class="node">
<title>Node4</title>
<g id="a_Node000004"><a xlink:href="carrinho__ino_8ino.html#a026d019671eda0cfe729200fc24d23ba" target="_top" xlink:title=" ">
<polygon fill="white" stroke="#666666" points="251.25,-174.75 184.25,-174.75 184.25,-154 251.25,-154 251.25,-174.75"/>
<text xml:space="preserve" text-anchor="middle" x="217.75" y="-161.25" font-family="Helvetica,sans-Serif" font-size="10.00">gameOver</text>
</a>
</g>
</g>
<!-- Node3&#45;&gt;Node4 -->
<g id="edge3_Node000003_Node000004" class="edge">
<title>Node3&#45;&gt;Node4</title>
<g id="a_edge3_Node000003_Node000004"><a xlink:title=" ">
<path fill="none" stroke="#63b8ff" d="M125.37,-164.38C137.4,-164.38 155.55,-164.38 172.52,-164.38"/>
<polygon fill="#63b8ff" stroke="#63b8ff" points="172.47,-167.88 182.47,-164.38 172.47,-160.88 172.47,-167.88"/>
</a>
</g>
</g>
<!-- Node4&#45;&gt;Node5 -->
<g id="edge4_Node000004_Node000005" class="edge">
<title>Node4&#45;&gt;Node5</title>
<g id="a_edge4_Node000004_Node000005"><a xlink:title=" ">
<path fill="none" stroke="#63b8ff" d="M251.54,-157.46C259.45,-155.79 267.91,-154.01 275.84,-152.34"/>
<polygon fill="#63b8ff" stroke="#63b8ff" points="276.39,-155.8 285.46,-150.31 274.95,-148.95 276.39,-155.8"/>
</a>
</g>
</g>
<!-- Node6 -->
<g id="Node000006" class="node">
<title>Node6</title>
<g id="a_Node000006"><a xlink:href="carrinho_8c.html#a83f9abde8522ce95dd4c5ce5ba3d9d39" target="_top" xlink:title=" ">
<polygon fill="white" stroke="#666666" points="413.75,-155.75 368.5,-155.75 368.5,-135 413.75,-135 413.75,-155.75"/>
<text xml:space="preserve" text-anchor="middle" x="391.12" y="-142.25" font-family="Helvetica,sans-Serif" font-size="10.00">motor</text>
</a>
</g>
</g>
<!-- Node5&#45;&gt;Node6 -->
<g id="edge5_Node000005_Node000006" class="edge">
<title>Node5&#45;&gt;Node6</title>
<g id="a_edge5_Node000005_Node000006"><a xlink:title=" ">
<path fill="none" stroke="#63b8ff" d="M332.95,-145.38C340.34,-145.38 348.74,-145.38 356.79,-145.38"/>
<polygon fill="#63b8ff" stroke="#63b8ff" points="356.65,-148.88 366.65,-145.38 356.65,-141.88 356.65,-148.88"/>
</a>
</g>
</g>
<!-- Node6&#45;&gt;Node6 -->
<g id="edge7_Node000006_Node000006" class="edge">
<title>Node6&#45;&gt;Node6</title>
<g id="a_edge7_Node000006_Node000006"><a xlink:title=" ">
<path fill="none" stroke="#63b8ff" d="M378.03,-156.15C372.8,-164.81 377.16,-173.75 391.12,-173.75 398.54,-173.75 403.25,-171.23 405.25,-167.56"/>
<polygon fill="#63b8ff" stroke="#63b8ff" points="408.74,-167.3 404.35,-157.65 401.77,-167.93 408.74,-167.3"/>
</a>
</g>
</g>
<!-- Node7 -->
<g id="Node000007" class="node">
<title>Node7</title>
<g id="a_Node000007"><a xlink:href="carrinho_8c.html#ac7c0935e24e573b2929d0df7f9e6b82f" target="_top" xlink:title=" ">
<polygon fill="white" stroke="#666666" points="528.75,-155.75 449.75,-155.75 449.75,-135 528.75,-135 528.75,-155.75"/>
<text xml:space="preserve" text-anchor="middle" x="489.25" y="-142.25" font-family="Helvetica,sans-Serif" font-size="10.00">analog_write</text>
</a>
</g>
</g>
<!-- Node6&#45;&gt;Node7 -->
<g id="edge6_Node000006_Node000007" class="edge">
<title>Node6&#45;&gt;Node7</title>
<g id="a_edge6_Node000006_Node000007"><a xlink:title=" ">
<path fill="none" stroke="#63b8ff" d="M413.94,-145.38C421.17,-145.38 429.55,-145.38 438.02,-145.38"/>
<polygon fill="#63b8ff" stroke="#63b8ff" points="438.02,-148.88 448.02,-145.38 438.02,-141.88 438.02,-148.88"/>
</a>
</g>
</g>
</g>
</svg>

<g id="navigator" transform="translate(0 0)" fill="#404254">
  <rect fill="#f2f5e9" fill-opacity="0.5" stroke="#606060" stroke-width=".5" x="0" y="0" width="60" height="60"/>
  <use id="zoomplus" xlink:href="#zoomPlus" x="17" y="9" onmousedown="handleZoom(evt,'in')"/>
  <use id="zoomminus" xlink:href="#zoomMin" x="42" y="9" onmousedown="handleZoom(evt,'out')"/>
  <use id="reset" xlink:href="#resetDef" x="30" y="36" onmousedown="handleReset()"/>
   <use id="arrowup" xlink:href="#arrowUp" x="0" y="0" onmousedown="handlePan(0,-1)"/>
  <use id="arrowright" xlink:href="#arrowRight" x="0" y="0" onmousedown="handlePan(1,0)"/>
  <use id="arrowdown" xlink:href="#arrowDown" x="0" y="0" onmousedown="handlePan(0,1)"/>
  <use id="arrowleft" xlink:href="#arrowLeft" x="0" y="0" onmousedown="handlePan(-1,0)"/>
</g>
<svg viewBox="0 0 15 15" width="100%" height="30px" preserveAspectRatio="xMaxYMin meet">
 <g id="arrow_out" transform="scale(0.3 0.3)">
  <a xlink:href="carrinho__ino_8ino_afe461d27b9c48d5921c00d521181f12f_cgraph_org.svg" target="_base">
   <rect id="button" ry="5" rx="5" y="6" x="6" height="38" width="38"
        fill="#f2f5e9" fill-opacity="0.5" stroke="#606060" stroke-width="1.0"/>
   <path id="arrow"
     d="M 11.500037,31.436501 C 11.940474,20.09759 22.043105,11.32322 32.158766,21.979434 L 37.068811,17.246167 C 37.068811,17.246167 37.088388,32 37.088388,32 L 22.160133,31.978069 C 22.160133,31.978069 26.997745,27.140456 26.997745,27.140456 C 18.528582,18.264221 13.291696,25.230495 11.500037,31.436501 z"
     style="fill:#404040;"/>
  </a>
 </g>
</svg>

<style type='text/css'>
<![CDATA[
[data-mouse-over-selected='false'] { opacity: 0.7; }
[data-mouse-over-selected='true']  { opacity: 1.0; }
]]>
</style>
<script type="application/ecmascript"><![CDATA[
document.addEventListener('DOMContentLoaded', (event) => {
  highlightEdges();
  highlightAdjacentNodes();
});
]]></script>
</svg>
