<?xml version="1.0" encoding="UTF-8" standalone="no"?>
<!DOCTYPE svg PUBLIC "-//W3C//DTD SVG 1.1//EN"
 "http://www.w3.org/Graphics/SVG/1.1/DTD/svg11.dtd">
<!-- Generated by graphviz version 14.0.4 (0)
 -->
<!-- Title: read_reg Pages: 1 -->
<svg width="480pt" height="182pt"
 viewBox="0.00 0.00 480.00 182.00" xmlns="http://www.w3.org/2000/svg" xmlns:xlink="http://www.w3.org/1999/xlink">
<g id="graph0" class="graph" transform="scale(1 1) rotate(0) translate(4 177.75)">
<title>read_reg</title>
<!-- Node1 -->
<g id="Node000001" class="node">
<title>Node1</title>
<g id="a_Node000001"><a xlink:title=" ">
<polygon fill="#999999" stroke="#666666" points="471.5,-77.75 412.75,-77.75 412.75,-57 471.5,-57 471.5,-77.75"/>
<text xml:space="preserve" text-anchor="middle" x="442.12" y="-64.25" font-family="Helvetica,sans-Serif" font-size="10.00">read_reg</text>
</a>
</g>
</g>
<!-- Node2 -->
<g id="Node000002" class="node">
<title>Node2</title>
<g id="a_Node000002"><a xlink:href="carrinho_2nrf24__avr_8c.html#a0f64caa74329fd5799a33f30bd8ebf82" target="_top" xlink:title=" ">
<polygon fill="white" stroke="#666666" points="365.88,-135.75 274.12,-135.75 274.12,-115 365.88,-115 365.88,-135.75"/>
<text xml:space="preserve" text-anchor="middle" x="320" y="-122.25" font-family="Helvetica,sans-Serif" font-size="10.00">nrf24_available</text>
</a>
</g>
</g>
<!-- Node1&#45;&gt;Node2 -->
<g id="edge1_Node000001_Node000002" class="edge">
<title>Node1&#45;&gt;Node2</title>
<g id="a_edge1_Node000001_Node000002"><a xlink:title=" ">
<path fill="none" stroke="#63b8ff" d="M415.47,-84.03C403.91,-91.13 389.93,-99.19 376.75,-105.38 369.68,-108.7 361.89,-111.81 354.43,-114.54"/>
<polygon fill="#63b8ff" stroke="#63b8ff" points="417.03,-87.18 423.64,-78.91 413.31,-81.25 417.03,-87.18"/>
</a>
</g>
</g>
<!-- Node6 -->
<g id="Node000006" class="node">
<title>Node6</title>
<g id="a_Node000006"><a xlink:href="carrinho_2nrf24__avr_8c.html#a71c5628e9583f6a6fd0871b3ae1bf6df" target="_top" xlink:title=" ">
<polygon fill="white" stroke="#666666" points="376.75,-96.75 263.25,-96.75 263.25,-76 376.75,-76 376.75,-96.75"/>
<text xml:space="preserve" text-anchor="middle" x="320" y="-83.25" font-family="Helvetica,sans-Serif" font-size="10.00">nrf24_startListening</text>
</a>
</g>
</g>
<!-- Node1&#45;&gt;Node6 -->
<g id="edge5_Node000001_Node000006" class="edge">
<title>Node1&#45;&gt;Node6</title>
<g id="a_edge5_Node000001_Node000006"><a xlink:title=" ">
<path fill="none" stroke="#63b8ff" d="M401.04,-73.72C393.28,-74.94 385.01,-76.25 376.85,-77.54"/>
<polygon fill="#63b8ff" stroke="#63b8ff" points="401.53,-77.18 410.86,-72.16 400.43,-70.27 401.53,-77.18"/>
</a>
</g>
</g>
<!-- Node7 -->
<g id="Node000007" class="node">
<title>Node7</title>
<g id="a_Node000007"><a xlink:href="carrinho_2nrf24__avr_8c.html#a33899bc3c0f4d2293f37c306d0b8e297" target="_top" xlink:title=" ">
<polygon fill="white" stroke="#666666" points="376,-20.75 264,-20.75 264,0 376,0 376,-20.75"/>
<text xml:space="preserve" text-anchor="middle" x="320" y="-7.25" font-family="Helvetica,sans-Serif" font-size="10.00">nrf24_stopListening</text>
</a>
</g>
</g>
<!-- Node1&#45;&gt;Node7 -->
<g id="edge8_Node000001_Node000007" class="edge">
<title>Node1&#45;&gt;Node7</title>
<g id="a_edge8_Node000001_Node000007"><a xlink:title=" ">
<path fill="none" stroke="#63b8ff" d="M410.88,-51.34C400.17,-45.81 388,-39.67 376.75,-34.38 367.22,-29.89 356.62,-25.24 347.26,-21.25"/>
<polygon fill="#63b8ff" stroke="#63b8ff" points="409.18,-54.4 419.66,-55.92 412.41,-48.19 409.18,-54.4"/>
</a>
</g>
</g>
<!-- Node8 -->
<g id="Node000008" class="node">
<title>Node8</title>
<g id="a_Node000008"><a xlink:href="carrinho_2nrf24__avr_8c.html#a8232e1982aabc6f52408c318402cb578" target="_top" xlink:title=" ">
<polygon fill="white" stroke="#666666" points="227.25,-58.75 155.75,-58.75 155.75,-38 227.25,-38 227.25,-58.75"/>
<text xml:space="preserve" text-anchor="middle" x="191.5" y="-45.25" font-family="Helvetica,sans-Serif" font-size="10.00">nrf24_write</text>
</a>
</g>
</g>
<!-- Node1&#45;&gt;Node8 -->
<g id="edge14_Node000001_Node000008" class="edge">
<title>Node1&#45;&gt;Node8</title>
<g id="a_edge14_Node000001_Node000008"><a xlink:title=" ">
<path fill="none" stroke="#63b8ff" d="M401.41,-64.34C353.37,-60.67 273.25,-54.55 227.45,-51.05"/>
<polygon fill="#63b8ff" stroke="#63b8ff" points="400.86,-67.81 411.1,-65.08 401.39,-60.83 400.86,-67.81"/>
</a>
</g>
</g>
<!-- Node3 -->
<g id="Node000003" class="node">
<title>Node3</title>
<g id="a_Node000003"><a xlink:href="carrinho_8c.html#afe461d27b9c48d5921c00d521181f12f" target="_top" xlink:title="Laço principal contendo toda a lógica do robô.">
<polygon fill="white" stroke="#666666" points="210,-173.75 173,-173.75 173,-153 210,-153 210,-173.75"/>
<text xml:space="preserve" text-anchor="middle" x="191.5" y="-160.25" font-family="Helvetica,sans-Serif" font-size="10.00">loop</text>
</a>
</g>
</g>
<!-- Node2&#45;&gt;Node3 -->
<g id="edge2_Node000002_Node000003" class="edge">
<title>Node2&#45;&gt;Node3</title>
<g id="a_edge2_Node000002_Node000003"><a xlink:title=" ">
<path fill="none" stroke="#63b8ff" d="M272.12,-139.46C250.56,-145.93 226.27,-153.23 210.25,-158.04"/>
<polygon fill="#63b8ff" stroke="#63b8ff" points="273.07,-142.83 281.64,-136.6 271.05,-136.12 273.07,-142.83"/>
</a>
</g>
</g>
<!-- Node5 -->
<g id="Node000005" class="node">
<title>Node5</title>
<g id="a_Node000005"><a xlink:href="main_8c.html#a840291bc02cba5474a4cb46a9b9566fe" target="_top" xlink:title=" ">
<polygon fill="white" stroke="#666666" points="211.88,-134.75 171.12,-134.75 171.12,-114 211.88,-114 211.88,-134.75"/>
<text xml:space="preserve" text-anchor="middle" x="191.5" y="-121.25" font-family="Helvetica,sans-Serif" font-size="10.00">main</text>
</a>
</g>
</g>
<!-- Node2&#45;&gt;Node5 -->
<g id="edge4_Node000002_Node000005" class="edge">
<title>Node2&#45;&gt;Node5</title>
<g id="a_edge4_Node000002_Node000005"><a xlink:title=" ">
<path fill="none" stroke="#63b8ff" d="M262.33,-124.93C244.35,-124.78 225.64,-124.64 212.12,-124.53"/>
<polygon fill="#63b8ff" stroke="#63b8ff" points="262.15,-128.43 272.17,-125 262.2,-121.43 262.15,-128.43"/>
</a>
</g>
</g>
<!-- Node4 -->
<g id="Node000004" class="node">
<title>Node4</title>
<g id="a_Node000004"><a xlink:href="carrinho_8c.html#ae66f6b31b5ad750f1fe042a706a4e3d4" target="_top" xlink:title="Função principal: inicializa periféricos e roda loop().">
<polygon fill="white" stroke="#666666" points="118.62,-135.75 77.88,-135.75 77.88,-115 118.62,-115 118.62,-135.75"/>
<text xml:space="preserve" text-anchor="middle" x="98.25" y="-122.25" font-family="Helvetica,sans-Serif" font-size="10.00">main</text>
</a>
</g>
</g>
<!-- Node3&#45;&gt;Node4 -->
<g id="edge3_Node000003_Node000004" class="edge">
<title>Node3&#45;&gt;Node4</title>
<g id="a_edge3_Node000003_Node000004"><a xlink:title=" ">
<path fill="none" stroke="#63b8ff" d="M162.33,-151.64C148.3,-145.8 131.67,-138.88 119.01,-133.6"/>
<polygon fill="#63b8ff" stroke="#63b8ff" points="160.93,-154.85 171.51,-155.47 163.62,-148.39 160.93,-154.85"/>
</a>
</g>
</g>
<!-- Node6&#45;&gt;Node4 -->
<g id="edge6_Node000006_Node000004" class="edge">
<title>Node6&#45;&gt;Node4</title>
<g id="a_edge6_Node000006_Node000004"><a xlink:title=" ">
<path fill="none" stroke="#63b8ff" d="M251.83,-90.78C222.12,-93.6 186.93,-98.14 155.75,-105.38 143.28,-108.27 129.75,-113 119.06,-117.13"/>
<polygon fill="#63b8ff" stroke="#63b8ff" points="251.78,-94.3 261.42,-89.91 251.15,-87.32 251.78,-94.3"/>
</a>
</g>
</g>
<!-- Node6&#45;&gt;Node5 -->
<g id="edge7_Node000006_Node000005" class="edge">
<title>Node6&#45;&gt;Node5</title>
<g id="a_edge7_Node000006_Node000005"><a xlink:title=" ">
<path fill="none" stroke="#63b8ff" d="M272.25,-100.42C251.59,-106.63 228.4,-113.59 212.37,-118.4"/>
<polygon fill="#63b8ff" stroke="#63b8ff" points="273.07,-103.83 281.64,-97.6 271.05,-97.12 273.07,-103.83"/>
</a>
</g>
</g>
<!-- Node7&#45;&gt;Node8 -->
<g id="edge9_Node000007_Node000008" class="edge">
<title>Node7&#45;&gt;Node8</title>
<g id="a_edge9_Node000007_Node000008"><a xlink:title=" ">
<path fill="none" stroke="#63b8ff" d="M272.13,-24.45C257.4,-28.88 241.4,-33.69 227.63,-37.82"/>
<polygon fill="#63b8ff" stroke="#63b8ff" points="273.07,-27.83 281.64,-21.6 271.05,-21.12 273.07,-27.83"/>
</a>
</g>
</g>
<!-- Node11 -->
<g id="Node000011" class="node">
<title>Node11</title>
<g id="a_Node000011"><a xlink:href="controle_8c.html#a4fc01d736fe50cf5b977f755b675f11d" target="_top" xlink:title="Inicializações principais (ADC, PWM, entradas e rádio).">
<polygon fill="white" stroke="#666666" points="119.75,-20.75 76.75,-20.75 76.75,0 119.75,0 119.75,-20.75"/>
<text xml:space="preserve" text-anchor="middle" x="98.25" y="-7.25" font-family="Helvetica,sans-Serif" font-size="10.00">setup</text>
</a>
</g>
</g>
<!-- Node7&#45;&gt;Node11 -->
<g id="edge12_Node000007_Node000011" class="edge">
<title>Node7&#45;&gt;Node11</title>
<g id="a_edge12_Node000007_Node000011"><a xlink:title=" ">
<path fill="none" stroke="#63b8ff" d="M252.31,-10.38C207.05,-10.38 150.15,-10.38 120.09,-10.38"/>
<polygon fill="#63b8ff" stroke="#63b8ff" points="252.03,-13.88 262.03,-10.38 252.03,-6.88 252.03,-13.88"/>
</a>
</g>
</g>
<!-- Node9 -->
<g id="Node000009" class="node">
<title>Node9</title>
<g id="a_Node000009"><a xlink:href="controle_8c.html#afe461d27b9c48d5921c00d521181f12f" target="_top" xlink:title="Loop principal: lê controles, aplica deadzone, envia por RF e atualiza LEDs.">
<polygon fill="white" stroke="#666666" points="116.75,-59.75 79.75,-59.75 79.75,-39 116.75,-39 116.75,-59.75"/>
<text xml:space="preserve" text-anchor="middle" x="98.25" y="-46.25" font-family="Helvetica,sans-Serif" font-size="10.00">loop</text>
</a>
</g>
</g>
<!-- Node8&#45;&gt;Node9 -->
<g id="edge10_Node000008_Node000009" class="edge">
<title>Node8&#45;&gt;Node9</title>
<g id="a_edge10_Node000008_Node000009"><a xlink:title=" ">
<path fill="none" stroke="#63b8ff" d="M144.27,-48.88C134.64,-48.99 125.05,-49.09 117.21,-49.18"/>
<polygon fill="#63b8ff" stroke="#63b8ff" points="144.01,-52.38 153.97,-48.78 143.93,-45.39 144.01,-52.38"/>
</a>
</g>
</g>
<!-- Node10 -->
<g id="Node000010" class="node">
<title>Node10</title>
<g id="a_Node000010"><a xlink:href="controle_8c.html#ae66f6b31b5ad750f1fe042a706a4e3d4" target="_top" xlink:title="Função principal do firmware.">
<polygon fill="white" stroke="#666666" points="40.75,-39.75 0,-39.75 0,-19 40.75,-19 40.75,-39.75"/>
<text xml:space="preserve" text-anchor="middle" x="20.38" y="-26.25" font-family="Helvetica,sans-Serif" font-size="10.00">main</text>
</a>
</g>
</g>
<!-- Node9&#45;&gt;Node10 -->
<g id="edge11_Node000009_Node000010" class="edge">
<title>Node9&#45;&gt;Node10</title>
<g id="a_edge11_Node000009_Node000010"><a xlink:title=" ">
<path fill="none" stroke="#63b8ff" d="M68.31,-41.75C59.22,-39.35 49.39,-36.76 41.09,-34.57"/>
<polygon fill="#63b8ff" stroke="#63b8ff" points="67.24,-45.08 77.81,-44.25 69.03,-38.32 67.24,-45.08"/>
</a>
</g>
</g>
<!-- Node11&#45;&gt;Node10 -->
<g id="edge13_Node000011_Node000010" class="edge">
<title>Node11&#45;&gt;Node10</title>
<g id="a_edge13_Node000011_Node000010"><a xlink:title=" ">
<path fill="none" stroke="#63b8ff" d="M65.58,-18.31C57.26,-20.39 48.53,-22.58 41.04,-24.45"/>
<polygon fill="#63b8ff" stroke="#63b8ff" points="66.2,-21.76 75.05,-15.93 64.5,-14.97 66.2,-21.76"/>
</a>
</g>
</g>
</g>
</svg>
