<?xml version="1.0" encoding="UTF-8" standalone="no"?>
<!DOCTYPE svg PUBLIC "-//W3C//DTD SVG 1.1//EN"
 "http://www.w3.org/Graphics/SVG/1.1/DTD/svg11.dtd">
<!-- Generated by graphviz version 14.0.4 (0)
 -->
<!-- Title: pinMode_d Pages: 1 -->
<svg width="266pt" height="107pt"
 viewBox="0.00 0.00 266.00 107.00" xmlns="http://www.w3.org/2000/svg" xmlns:xlink="http://www.w3.org/1999/xlink">
<g id="graph0" class="graph" transform="scale(1 1) rotate(0) translate(4 102.75)">
<title>pinMode_d</title>
<!-- Node1 -->
<g id="Node000001" class="node">
<title>Node1</title>
<g id="a_Node000001"><a xlink:title=" ">
<polygon fill="#999999" stroke="#666666" points="258,-59.75 188.75,-59.75 188.75,-39 258,-39 258,-59.75"/>
<text xml:space="preserve" text-anchor="middle" x="223.38" y="-46.25" font-family="Helvetica,sans-Serif" font-size="10.00">pinMode_d</text>
</a>
</g>
</g>
<!-- Node2 -->
<g id="Node000002" class="node">
<title>Node2</title>
<g id="a_Node000002"><a xlink:href="carrinho_2nrf24__avr_8c.html#ab6fb4c1aa834152310116e7dec65d8e3" target="_top" xlink:title=" ">
<polygon fill="white" stroke="#666666" points="152.75,-59.75 79,-59.75 79,-39 152.75,-39 152.75,-59.75"/>
<text xml:space="preserve" text-anchor="middle" x="115.88" y="-46.25" font-family="Helvetica,sans-Serif" font-size="10.00">nrf24_begin</text>
</a>
</g>
</g>
<!-- Node1&#45;&gt;Node2 -->
<g id="edge1_Node000001_Node000002" class="edge">
<title>Node1&#45;&gt;Node2</title>
<g id="a_edge1_Node000001_Node000002"><a xlink:title=" ">
<path fill="none" stroke="#63b8ff" d="M176.93,-49.38C168.91,-49.38 160.67,-49.38 152.96,-49.38"/>
<polygon fill="#63b8ff" stroke="#63b8ff" points="176.9,-52.88 186.9,-49.38 176.9,-45.88 176.9,-52.88"/>
</a>
</g>
</g>
<!-- Node3 -->
<g id="Node000003" class="node">
<title>Node3</title>
<g id="a_Node000003"><a xlink:href="carrinho_8c.html#ae66f6b31b5ad750f1fe042a706a4e3d4" target="_top" xlink:title=" ">
<polygon fill="white" stroke="#666666" points="41.88,-98.75 1.12,-98.75 1.12,-78 41.88,-78 41.88,-98.75"/>
<text xml:space="preserve" text-anchor="middle" x="21.5" y="-85.25" font-family="Helvetica,sans-Serif" font-size="10.00">main</text>
</a>
</g>
</g>
<!-- Node2&#45;&gt;Node3 -->
<g id="edge2_Node000002_Node000003" class="edge">
<title>Node2&#45;&gt;Node3</title>
<g id="a_edge2_Node000002_Node000003"><a xlink:title=" ">
<path fill="none" stroke="#63b8ff" d="M78.61,-64.69C66.22,-69.92 52.83,-75.57 42.24,-80.04"/>
<polygon fill="#63b8ff" stroke="#63b8ff" points="79.9,-67.94 87.75,-60.83 77.18,-61.49 79.9,-67.94"/>
</a>
</g>
</g>
<!-- Node4 -->
<g id="Node000004" class="node">
<title>Node4</title>
<g id="a_Node000004"><a xlink:href="main_8c.html#a840291bc02cba5474a4cb46a9b9566fe" target="_top" xlink:title=" ">
<polygon fill="white" stroke="#666666" points="41.88,-59.75 1.12,-59.75 1.12,-39 41.88,-39 41.88,-59.75"/>
<text xml:space="preserve" text-anchor="middle" x="21.5" y="-46.25" font-family="Helvetica,sans-Serif" font-size="10.00">main</text>
</a>
</g>
</g>
<!-- Node2&#45;&gt;Node4 -->
<g id="edge3_Node000002_Node000004" class="edge">
<title>Node2&#45;&gt;Node4</title>
<g id="a_edge3_Node000002_Node000004"><a xlink:title=" ">
<path fill="none" stroke="#63b8ff" d="M67.39,-49.38C58.46,-49.38 49.6,-49.38 42.14,-49.38"/>
<polygon fill="#63b8ff" stroke="#63b8ff" points="67.12,-52.88 77.12,-49.38 67.12,-45.88 67.12,-52.88"/>
</a>
</g>
</g>
<!-- Node5 -->
<g id="Node000005" class="node">
<title>Node5</title>
<g id="a_Node000005"><a xlink:href="controle_8c.html#a4fc01d736fe50cf5b977f755b675f11d" target="_top" xlink:title=" ">
<polygon fill="white" stroke="#666666" points="43,-20.75 0,-20.75 0,0 43,0 43,-20.75"/>
<text xml:space="preserve" text-anchor="middle" x="21.5" y="-7.25" font-family="Helvetica,sans-Serif" font-size="10.00">setup</text>
</a>
</g>
</g>
<!-- Node2&#45;&gt;Node5 -->
<g id="edge4_Node000002_Node000005" class="edge">
<title>Node2&#45;&gt;Node5</title>
<g id="a_edge4_Node000002_Node000005"><a xlink:title=" ">
<path fill="none" stroke="#63b8ff" d="M78.56,-34.04C66.64,-29.01 53.81,-23.59 43.43,-19.21"/>
<polygon fill="#63b8ff" stroke="#63b8ff" points="77.18,-37.26 87.75,-37.92 79.9,-30.81 77.18,-37.26"/>
</a>
</g>
</g>
</g>
</svg>
