<?xml version="1.0" encoding="UTF-8" standalone="no"?>
<!DOCTYPE svg PUBLIC "-//W3C//DTD SVG 1.1//EN"
 "http://www.w3.org/Graphics/SVG/1.1/DTD/svg11.dtd">
<!-- Generated by graphviz version 14.0.4 (0)
 -->
<!-- Title: spi_transfer Pages: 1 -->
<svg width="775pt" height="534pt"
 viewBox="0.00 0.00 775.00 534.00" xmlns="http://www.w3.org/2000/svg" xmlns:xlink="http://www.w3.org/1999/xlink">
<g id="graph0" class="graph" transform="scale(1 1) rotate(0) translate(4 530.29)">
<title>spi_transfer</title>
<!-- Node1 -->
<g id="Node000001" class="node">
<title>Node1</title>
<g id="a_Node000001"><a xlink:title=" ">
<polygon fill="#999999" stroke="#666666" points="767.25,-190.75 693.5,-190.75 693.5,-170 767.25,-170 767.25,-190.75"/>
<text xml:space="preserve" text-anchor="middle" x="730.38" y="-177.25" font-family="Helvetica,sans-Serif" font-size="10.00">spi_transfer</text>
</a>
</g>
</g>
<!-- Node2 -->
<g id="Node000002" class="node">
<title>Node2</title>
<g id="a_Node000002"><a xlink:href="carrinho_2nrf24__avr_8c.html#a9351c150d32184a95db9ab4a802ed860" target="_top" xlink:title=" ">
<polygon fill="white" stroke="#666666" points="653.75,-402.75 568,-402.75 568,-382 653.75,-382 653.75,-402.75"/>
<text xml:space="preserve" text-anchor="middle" x="610.88" y="-389.25" font-family="Helvetica,sans-Serif" font-size="10.00">nrf24_flush_rx</text>
</a>
</g>
</g>
<!-- Node1&#45;&gt;Node2 -->
<g id="edge1_Node000001_Node000002" class="edge">
<title>Node1&#45;&gt;Node2</title>
<g id="a_edge1_Node000001_Node000002"><a xlink:title=" ">
<path fill="none" stroke="#63b8ff" d="M726.77,-202.3C721.06,-241.3 703.98,-323.27 657.5,-372.38 654.05,-376.02 649.82,-379.04 645.35,-381.53"/>
<polygon fill="#63b8ff" stroke="#63b8ff" points="730.22,-202.91 728.08,-192.53 723.29,-201.98 730.22,-202.91"/>
</a>
</g>
</g>
<!-- Node3 -->
<g id="Node000003" class="node">
<title>Node3</title>
<g id="a_Node000003"><a xlink:href="carrinho_2nrf24__avr_8c.html#a617ab4b2604d6f482796e35da85369ad" target="_top" xlink:title=" ">
<polygon fill="white" stroke="#666666" points="510.62,-20.75 424.88,-20.75 424.88,0 510.62,0 510.62,-20.75"/>
<text xml:space="preserve" text-anchor="middle" x="467.75" y="-7.25" font-family="Helvetica,sans-Serif" font-size="10.00">nrf24_flush_tx</text>
</a>
</g>
</g>
<!-- Node1&#45;&gt;Node3 -->
<g id="edge2_Node000001_Node000003" class="edge">
<title>Node1&#45;&gt;Node3</title>
<g id="a_edge2_Node000001_Node000003"><a xlink:title=" ">
<path fill="none" stroke="#63b8ff" d="M700.35,-164.19C687.39,-157.18 671.83,-149.06 657.5,-142.38 616.95,-123.45 598.79,-132.83 564.25,-104.38 541.7,-85.8 548.9,-70.04 528.25,-49.38 516.9,-38.02 501.73,-28.14 489.55,-21.16"/>
<polygon fill="#63b8ff" stroke="#63b8ff" points="698.33,-167.07 708.79,-168.8 701.69,-160.93 698.33,-167.07"/>
</a>
</g>
</g>
<!-- Node7 -->
<g id="Node000007" class="node">
<title>Node7</title>
<g id="a_Node000007"><a xlink:href="carrinho_2nrf24__avr_8c.html#a9a23f602a6077c795322702d0a42f48c" target="_top" xlink:title=" ">
<polygon fill="white" stroke="#666666" points="657.5,-95.75 564.25,-95.75 564.25,-75 657.5,-75 657.5,-95.75"/>
<text xml:space="preserve" text-anchor="middle" x="610.88" y="-82.25" font-family="Helvetica,sans-Serif" font-size="10.00">nrf24_getStatus</text>
</a>
</g>
</g>
<!-- Node1&#45;&gt;Node7 -->
<g id="edge6_Node000001_Node000007" class="edge">
<title>Node1&#45;&gt;Node7</title>
<g id="a_edge6_Node000001_Node000007"><a xlink:title=" ">
<path fill="none" stroke="#63b8ff" d="M713.2,-161.56C699.42,-146.27 678.56,-124.79 657.5,-109.38 650.71,-104.41 642.76,-99.85 635.41,-96.07"/>
<polygon fill="#63b8ff" stroke="#63b8ff" points="710.19,-163.44 719.44,-168.62 715.44,-158.81 710.19,-163.44"/>
</a>
</g>
</g>
<!-- Node8 -->
<g id="Node000008" class="node">
<title>Node8</title>
<g id="a_Node000008"><a xlink:href="carrinho_2nrf24__avr_8c.html#ac4a676257b5b86b05f4ea608636cb2cf" target="_top" xlink:title=" ">
<polygon fill="white" stroke="#666666" points="651.88,-363.75 569.88,-363.75 569.88,-343 651.88,-343 651.88,-363.75"/>
<text xml:space="preserve" text-anchor="middle" x="610.88" y="-350.25" font-family="Helvetica,sans-Serif" font-size="10.00">read_payload</text>
</a>
</g>
</g>
<!-- Node1&#45;&gt;Node8 -->
<g id="edge7_Node000001_Node000008" class="edge">
<title>Node1&#45;&gt;Node8</title>
<g id="a_edge7_Node000001_Node000008"><a xlink:title=" ">
<path fill="none" stroke="#63b8ff" d="M724.39,-202.11C715.9,-234.65 695.71,-296.15 657.5,-333.38 653.78,-337 649.3,-340.02 644.62,-342.52"/>
<polygon fill="#63b8ff" stroke="#63b8ff" points="727.73,-203.19 726.72,-192.64 720.93,-201.52 727.73,-203.19"/>
</a>
</g>
</g>
<!-- Node13 -->
<g id="Node000013" class="node">
<title>Node13</title>
<g id="a_Node000013"><a xlink:href="carrinho_2nrf24__avr_8c.html#abefdb1d58b989853c0646a6c8b18b7d3" target="_top" xlink:title=" ">
<polygon fill="white" stroke="#666666" points="640.25,-210.75 581.5,-210.75 581.5,-190 640.25,-190 640.25,-210.75"/>
<text xml:space="preserve" text-anchor="middle" x="610.88" y="-197.25" font-family="Helvetica,sans-Serif" font-size="10.00">read_reg</text>
</a>
</g>
</g>
<!-- Node1&#45;&gt;Node13 -->
<g id="edge12_Node000001_Node000013" class="edge">
<title>Node1&#45;&gt;Node13</title>
<g id="a_edge12_Node000001_Node000013"><a xlink:title=" ">
<path fill="none" stroke="#63b8ff" d="M682.17,-188.41C668.14,-190.8 653.19,-193.34 640.7,-195.47"/>
<polygon fill="#63b8ff" stroke="#63b8ff" points="682.4,-191.92 691.67,-186.79 681.22,-185.02 682.4,-191.92"/>
</a>
</g>
</g>
<!-- Node17 -->
<g id="Node000017" class="node">
<title>Node17</title>
<g id="a_Node000017"><a xlink:href="carrinho_2nrf24__avr_8c.html#a31d6889b046799ad06c03ce52c9bb640" target="_top" xlink:title=" ">
<polygon fill="white" stroke="#666666" points="650.75,-56.75 571,-56.75 571,-36 650.75,-36 650.75,-56.75"/>
<text xml:space="preserve" text-anchor="middle" x="610.88" y="-43.25" font-family="Helvetica,sans-Serif" font-size="10.00">read_reg_buf</text>
</a>
</g>
</g>
<!-- Node1&#45;&gt;Node17 -->
<g id="edge23_Node000001_Node000017" class="edge">
<title>Node1&#45;&gt;Node17</title>
<g id="a_edge23_Node000001_Node000017"><a xlink:title=" ">
<path fill="none" stroke="#63b8ff" d="M720.71,-159.24C709.47,-134.11 687.66,-92.33 657.5,-66.38 653.3,-62.76 648.36,-59.71 643.29,-57.16"/>
<polygon fill="#63b8ff" stroke="#63b8ff" points="717.48,-160.6 724.65,-168.4 723.92,-157.83 717.48,-160.6"/>
</a>
</g>
</g>
<!-- Node18 -->
<g id="Node000018" class="node">
<title>Node18</title>
<g id="a_Node000018"><a xlink:href="carrinho_2nrf24__avr_8c.html#a3c9fd94e9894bf0792d4ff5891c16436" target="_top" xlink:title=" ">
<polygon fill="white" stroke="#666666" points="653.38,-171.75 568.38,-171.75 568.38,-151 653.38,-151 653.38,-171.75"/>
<text xml:space="preserve" text-anchor="middle" x="610.88" y="-158.25" font-family="Helvetica,sans-Serif" font-size="10.00">write_payload</text>
</a>
</g>
</g>
<!-- Node1&#45;&gt;Node18 -->
<g id="edge24_Node000001_Node000018" class="edge">
<title>Node1&#45;&gt;Node18</title>
<g id="a_edge24_Node000001_Node000018"><a xlink:title=" ">
<path fill="none" stroke="#63b8ff" d="M681.95,-172.71C672.54,-171.18 662.72,-169.6 653.52,-168.11"/>
<polygon fill="#63b8ff" stroke="#63b8ff" points="681.24,-176.14 691.67,-174.28 682.36,-169.23 681.24,-176.14"/>
</a>
</g>
</g>
<!-- Node19 -->
<g id="Node000019" class="node">
<title>Node19</title>
<g id="a_Node000019"><a xlink:href="carrinho_2nrf24__avr_8c.html#a08bc978021db604d02a6da754f73e7e2" target="_top" xlink:title=" ">
<polygon fill="white" stroke="#666666" points="641.75,-324.75 580,-324.75 580,-304 641.75,-304 641.75,-324.75"/>
<text xml:space="preserve" text-anchor="middle" x="610.88" y="-311.25" font-family="Helvetica,sans-Serif" font-size="10.00">write_reg</text>
</a>
</g>
</g>
<!-- Node1&#45;&gt;Node19 -->
<g id="edge26_Node000001_Node000019" class="edge">
<title>Node1&#45;&gt;Node19</title>
<g id="a_edge26_Node000001_Node000019"><a xlink:title=" ">
<path fill="none" stroke="#63b8ff" d="M712.87,-199.2C687.91,-227.66 641.36,-280.76 621.38,-303.54"/>
<polygon fill="#63b8ff" stroke="#63b8ff" points="715.2,-201.85 719.16,-192.03 709.93,-197.24 715.2,-201.85"/>
</a>
</g>
</g>
<!-- Node4 -->
<g id="Node000004" class="node">
<title>Node4</title>
<g id="a_Node000004"><a xlink:href="carrinho_2nrf24__avr_8c.html#a8232e1982aabc6f52408c318402cb578" target="_top" xlink:title=" ">
<polygon fill="white" stroke="#666666" points="341.25,-96.75 269.75,-96.75 269.75,-76 341.25,-76 341.25,-96.75"/>
<text xml:space="preserve" text-anchor="middle" x="305.5" y="-83.25" font-family="Helvetica,sans-Serif" font-size="10.00">nrf24_write</text>
</a>
</g>
</g>
<!-- Node3&#45;&gt;Node4 -->
<g id="edge3_Node000003_Node000004" class="edge">
<title>Node3&#45;&gt;Node4</title>
<g id="a_edge3_Node000003_Node000004"><a xlink:title=" ">
<path fill="none" stroke="#63b8ff" d="M427.79,-25.48C420.9,-28.33 413.83,-31.36 407.25,-34.38 378.44,-47.58 346.02,-64.75 325.92,-75.66"/>
<polygon fill="#63b8ff" stroke="#63b8ff" points="429.02,-28.76 436.97,-21.77 426.39,-22.28 429.02,-28.76"/>
</a>
</g>
</g>
<!-- Node5 -->
<g id="Node000005" class="node">
<title>Node5</title>
<g id="a_Node000005"><a xlink:href="controle_8c.html#afe461d27b9c48d5921c00d521181f12f" target="_top" xlink:title=" ">
<polygon fill="white" stroke="#666666" points="158.75,-96.75 121.75,-96.75 121.75,-76 158.75,-76 158.75,-96.75"/>
<text xml:space="preserve" text-anchor="middle" x="140.25" y="-83.25" font-family="Helvetica,sans-Serif" font-size="10.00">loop</text>
</a>
</g>
</g>
<!-- Node4&#45;&gt;Node5 -->
<g id="edge4_Node000004_Node000005" class="edge">
<title>Node4&#45;&gt;Node5</title>
<g id="a_edge4_Node000004_Node000005"><a xlink:title=" ">
<path fill="none" stroke="#63b8ff" d="M258.26,-86.38C225.27,-86.38 182.72,-86.38 159.09,-86.38"/>
<polygon fill="#63b8ff" stroke="#63b8ff" points="257.97,-89.88 267.97,-86.38 257.97,-82.88 257.97,-89.88"/>
</a>
</g>
</g>
<!-- Node6 -->
<g id="Node000006" class="node">
<title>Node6</title>
<g id="a_Node000006"><a xlink:href="controle_8c.html#ae66f6b31b5ad750f1fe042a706a4e3d4" target="_top" xlink:title=" ">
<polygon fill="white" stroke="#666666" points="40.75,-134.75 0,-134.75 0,-114 40.75,-114 40.75,-134.75"/>
<text xml:space="preserve" text-anchor="middle" x="20.38" y="-121.25" font-family="Helvetica,sans-Serif" font-size="10.00">main</text>
</a>
</g>
</g>
<!-- Node5&#45;&gt;Node6 -->
<g id="edge5_Node000005_Node000006" class="edge">
<title>Node5&#45;&gt;Node6</title>
<g id="a_edge5_Node000005_Node000006"><a xlink:title=" ">
<path fill="none" stroke="#63b8ff" d="M110.54,-95.63C88.97,-102.58 60,-111.92 41.02,-118.04"/>
<polygon fill="#63b8ff" stroke="#63b8ff" points="111.46,-99.01 119.91,-92.61 109.32,-92.35 111.46,-99.01"/>
</a>
</g>
</g>
<!-- Node9 -->
<g id="Node000009" class="node">
<title>Node9</title>
<g id="a_Node000009"><a xlink:href="carrinho_2nrf24__avr_8c.html#aa0767db791fc0b45ebadab011c1900bf" target="_top" xlink:title=" ">
<polygon fill="white" stroke="#666666" points="502,-477.75 433.5,-477.75 433.5,-457 502,-457 502,-477.75"/>
<text xml:space="preserve" text-anchor="middle" x="467.75" y="-464.25" font-family="Helvetica,sans-Serif" font-size="10.00">nrf24_read</text>
</a>
</g>
</g>
<!-- Node8&#45;&gt;Node9 -->
<g id="edge8_Node000008_Node000009" class="edge">
<title>Node8&#45;&gt;Node9</title>
<g id="a_edge8_Node000008_Node000009"><a xlink:title=" ">
<path fill="none" stroke="#63b8ff" d="M568.09,-370.07C566.74,-371.11 565.46,-372.21 564.25,-373.38 537.88,-398.72 555.72,-423.23 528.25,-447.38 520.97,-453.78 511.55,-458.15 502.38,-461.12"/>
<polygon fill="#63b8ff" stroke="#63b8ff" points="569.79,-373.14 576.36,-364.83 566.04,-367.23 569.79,-373.14"/>
</a>
</g>
</g>
<!-- Node10 -->
<g id="Node000010" class="node">
<title>Node10</title>
<g id="a_Node000010"><a xlink:href="carrinho_8c.html#afe461d27b9c48d5921c00d521181f12f" target="_top" xlink:title=" ">
<polygon fill="white" stroke="#666666" points="324,-247.75 287,-247.75 287,-227 324,-227 324,-247.75"/>
<text xml:space="preserve" text-anchor="middle" x="305.5" y="-234.25" font-family="Helvetica,sans-Serif" font-size="10.00">loop</text>
</a>
</g>
</g>
<!-- Node9&#45;&gt;Node10 -->
<g id="edge9_Node000009_Node000010" class="edge">
<title>Node9&#45;&gt;Node10</title>
<g id="a_edge9_Node000009_Node000010"><a xlink:title=" ">
<path fill="none" stroke="#63b8ff" d="M422.52,-458.56C416.75,-455.79 411.41,-452.15 407.25,-447.38 350.78,-382.58 428.52,-321.46 371.25,-257.38 359.41,-244.13 339.01,-239.55 324.27,-238.02"/>
<polygon fill="#63b8ff" stroke="#63b8ff" points="421.2,-461.8 431.79,-462.12 423.71,-455.27 421.2,-461.8"/>
</a>
</g>
</g>
<!-- Node12 -->
<g id="Node000012" class="node">
<title>Node12</title>
<g id="a_Node000012"><a xlink:href="main_8c.html#a840291bc02cba5474a4cb46a9b9566fe" target="_top" xlink:title=" ">
<polygon fill="white" stroke="#666666" points="160.62,-362.75 119.88,-362.75 119.88,-342 160.62,-342 160.62,-362.75"/>
<text xml:space="preserve" text-anchor="middle" x="140.25" y="-349.25" font-family="Helvetica,sans-Serif" font-size="10.00">main</text>
</a>
</g>
</g>
<!-- Node9&#45;&gt;Node12 -->
<g id="edge11_Node000009_Node000012" class="edge">
<title>Node9&#45;&gt;Node12</title>
<g id="a_edge11_Node000009_Node000012"><a xlink:title=" ">
<path fill="none" stroke="#63b8ff" d="M421.86,-467.93C374.59,-466.93 298.93,-460.76 239.75,-434.38 201.54,-417.34 166.33,-381.1 150.32,-363.05"/>
<polygon fill="#63b8ff" stroke="#63b8ff" points="421.69,-471.43 431.73,-468.06 421.78,-464.43 421.69,-471.43"/>
</a>
</g>
</g>
<!-- Node11 -->
<g id="Node000011" class="node">
<title>Node11</title>
<g id="a_Node000011"><a xlink:href="carrinho_8c.html#ae66f6b31b5ad750f1fe042a706a4e3d4" target="_top" xlink:title=" ">
<polygon fill="white" stroke="#666666" points="160.62,-286.75 119.88,-286.75 119.88,-266 160.62,-266 160.62,-286.75"/>
<text xml:space="preserve" text-anchor="middle" x="140.25" y="-273.25" font-family="Helvetica,sans-Serif" font-size="10.00">main</text>
</a>
</g>
</g>
<!-- Node10&#45;&gt;Node11 -->
<g id="edge10_Node000010_Node000011" class="edge">
<title>Node10&#45;&gt;Node11</title>
<g id="a_edge10_Node000010_Node000011"><a xlink:title=" ">
<path fill="none" stroke="#63b8ff" d="M275.56,-244.29C242.59,-252.16 189.61,-264.82 161.04,-271.65"/>
<polygon fill="#63b8ff" stroke="#63b8ff" points="276.33,-247.7 285.25,-241.97 274.71,-240.89 276.33,-247.7"/>
</a>
</g>
</g>
<!-- Node13&#45;&gt;Node4 -->
<g id="edge22_Node000013_Node000004" class="edge">
<title>Node13&#45;&gt;Node4</title>
<g id="a_edge22_Node000013_Node000004"><a xlink:title=" ">
<path fill="none" stroke="#63b8ff" d="M571.52,-186.15C568.91,-184.42 566.45,-182.5 564.25,-180.38 537.66,-154.68 558.67,-126.39 528.25,-105.38 472.29,-66.73 388.46,-72.24 341.54,-79.46"/>
<polygon fill="#63b8ff" stroke="#63b8ff" points="569.64,-189.11 580.09,-190.88 573.03,-182.98 569.64,-189.11"/>
</a>
</g>
</g>
<!-- Node14 -->
<g id="Node000014" class="node">
<title>Node14</title>
<g id="a_Node000014"><a xlink:href="carrinho_2nrf24__avr_8c.html#a0f64caa74329fd5799a33f30bd8ebf82" target="_top" xlink:title=" ">
<polygon fill="white" stroke="#666666" points="513.62,-286.75 421.88,-286.75 421.88,-266 513.62,-266 513.62,-286.75"/>
<text xml:space="preserve" text-anchor="middle" x="467.75" y="-273.25" font-family="Helvetica,sans-Serif" font-size="10.00">nrf24_available</text>
</a>
</g>
</g>
<!-- Node13&#45;&gt;Node14 -->
<g id="edge13_Node000013_Node000014" class="edge">
<title>Node13&#45;&gt;Node14</title>
<g id="a_edge13_Node000013_Node000014"><a xlink:title=" ">
<path fill="none" stroke="#63b8ff" d="M580.08,-216.42C552.53,-231.26 512.37,-252.88 488.57,-265.7"/>
<polygon fill="#63b8ff" stroke="#63b8ff" points="581.48,-219.64 588.62,-211.82 578.16,-213.48 581.48,-219.64"/>
</a>
</g>
</g>
<!-- Node15 -->
<g id="Node000015" class="node">
<title>Node15</title>
<g id="a_Node000015"><a xlink:href="carrinho_2nrf24__avr_8c.html#a71c5628e9583f6a6fd0871b3ae1bf6df" target="_top" xlink:title=" ">
<polygon fill="white" stroke="#666666" points="362.25,-208.75 248.75,-208.75 248.75,-188 362.25,-188 362.25,-208.75"/>
<text xml:space="preserve" text-anchor="middle" x="305.5" y="-195.25" font-family="Helvetica,sans-Serif" font-size="10.00">nrf24_startListening</text>
</a>
</g>
</g>
<!-- Node13&#45;&gt;Node15 -->
<g id="edge16_Node000013_Node000015" class="edge">
<title>Node13&#45;&gt;Node15</title>
<g id="a_edge16_Node000013_Node000015"><a xlink:title=" ">
<path fill="none" stroke="#63b8ff" d="M569.73,-200.11C516.58,-199.76 422.57,-199.14 362.47,-198.74"/>
<polygon fill="#63b8ff" stroke="#63b8ff" points="569.52,-203.61 579.55,-200.18 569.57,-196.61 569.52,-203.61"/>
</a>
</g>
</g>
<!-- Node16 -->
<g id="Node000016" class="node">
<title>Node16</title>
<g id="a_Node000016"><a xlink:href="carrinho_2nrf24__avr_8c.html#a33899bc3c0f4d2293f37c306d0b8e297" target="_top" xlink:title=" ">
<polygon fill="white" stroke="#666666" points="523.75,-134.75 411.75,-134.75 411.75,-114 523.75,-114 523.75,-134.75"/>
<text xml:space="preserve" text-anchor="middle" x="467.75" y="-121.25" font-family="Helvetica,sans-Serif" font-size="10.00">nrf24_stopListening</text>
</a>
</g>
</g>
<!-- Node13&#45;&gt;Node16 -->
<g id="edge19_Node000013_Node000016" class="edge">
<title>Node13&#45;&gt;Node16</title>
<g id="a_edge19_Node000013_Node000016"><a xlink:title=" ">
<path fill="none" stroke="#63b8ff" d="M571.38,-184.56C568.92,-183.23 566.52,-181.83 564.25,-180.38 546.23,-168.83 546.44,-159.66 528.25,-148.38 519.92,-143.21 510.29,-138.76 501.23,-135.14"/>
<polygon fill="#63b8ff" stroke="#63b8ff" points="569.78,-187.68 580.3,-188.99 572.89,-181.41 569.78,-187.68"/>
</a>
</g>
</g>
<!-- Node14&#45;&gt;Node10 -->
<g id="edge14_Node000014_Node000010" class="edge">
<title>Node14&#45;&gt;Node10</title>
<g id="a_edge14_Node000014_Node000010"><a xlink:title=" ">
<path fill="none" stroke="#63b8ff" d="M411.16,-262.85C380.71,-255.43 345.01,-246.75 324.16,-241.67"/>
<polygon fill="#63b8ff" stroke="#63b8ff" points="410.1,-266.19 420.64,-265.15 411.75,-259.39 410.1,-266.19"/>
</a>
</g>
</g>
<!-- Node14&#45;&gt;Node12 -->
<g id="edge15_Node000014_Node000012" class="edge">
<title>Node14&#45;&gt;Node12</title>
<g id="a_edge15_Node000014_Node000012"><a xlink:title=" ">
<path fill="none" stroke="#63b8ff" d="M410.5,-289.51C336.29,-306.84 209.42,-336.46 160.91,-347.78"/>
<polygon fill="#63b8ff" stroke="#63b8ff" points="411.07,-292.97 420.02,-287.29 409.48,-286.15 411.07,-292.97"/>
</a>
</g>
</g>
<!-- Node15&#45;&gt;Node11 -->
<g id="edge17_Node000015_Node000011" class="edge">
<title>Node15&#45;&gt;Node11</title>
<g id="a_edge17_Node000015_Node000011"><a xlink:title=" ">
<path fill="none" stroke="#63b8ff" d="M253.37,-212.94C248.71,-214.63 244.11,-216.45 239.75,-218.38 209.07,-231.92 175.97,-252.86 157.02,-265.53"/>
<polygon fill="#63b8ff" stroke="#63b8ff" points="254.48,-216.26 262.81,-209.71 252.22,-209.63 254.48,-216.26"/>
</a>
</g>
</g>
<!-- Node15&#45;&gt;Node12 -->
<g id="edge18_Node000015_Node000012" class="edge">
<title>Node15&#45;&gt;Node12</title>
<g id="a_edge18_Node000015_Node000012"><a xlink:title=" ">
<path fill="none" stroke="#63b8ff" d="M244.37,-214.79C242.76,-215.91 241.21,-217.1 239.75,-218.38 211.26,-243.19 226.14,-264.95 203.75,-295.38 190.17,-313.83 169.93,-330.96 156.19,-341.52"/>
<polygon fill="#63b8ff" stroke="#63b8ff" points="245.91,-217.94 252.85,-209.94 242.43,-211.87 245.91,-217.94"/>
</a>
</g>
</g>
<!-- Node16&#45;&gt;Node4 -->
<g id="edge21_Node000016_Node000004" class="edge">
<title>Node16&#45;&gt;Node4</title>
<g id="a_edge21_Node000016_Node000004"><a xlink:title=" ">
<path fill="none" stroke="#63b8ff" d="M410.3,-110.99C387.44,-105.57 361.76,-99.48 341.66,-94.71"/>
<polygon fill="#63b8ff" stroke="#63b8ff" points="409.25,-114.34 419.78,-113.24 410.86,-107.53 409.25,-114.34"/>
</a>
</g>
</g>
<!-- Node16&#45;&gt;Node6 -->
<g id="edge20_Node000016_Node000006" class="edge">
<title>Node16&#45;&gt;Node6</title>
<g id="a_edge20_Node000016_Node000006"><a xlink:title=" ">
<path fill="none" stroke="#63b8ff" d="M400.46,-124.38C297.11,-124.38 102.97,-124.38 40.95,-124.38"/>
<polygon fill="#63b8ff" stroke="#63b8ff" points="400.18,-127.88 410.18,-124.38 400.18,-120.88 400.18,-127.88"/>
</a>
</g>
</g>
<!-- Node18&#45;&gt;Node4 -->
<g id="edge25_Node000018_Node000004" class="edge">
<title>Node18&#45;&gt;Node4</title>
<g id="a_edge25_Node000018_Node000004"><a xlink:title=" ">
<path fill="none" stroke="#63b8ff" d="M573.46,-144.82C570.16,-142.57 567.02,-140.09 564.25,-137.38 540.65,-114.28 556.7,-89.14 528.25,-72.38 466.6,-36.05 377.86,-59.72 333.66,-75.51"/>
<polygon fill="#63b8ff" stroke="#63b8ff" points="571.36,-147.64 581.74,-149.77 574.96,-141.63 571.36,-147.64"/>
</a>
</g>
</g>
<!-- Node19&#45;&gt;Node4 -->
<g id="edge44_Node000019_Node000004" class="edge">
<title>Node19&#45;&gt;Node4</title>
<g id="a_edge44_Node000019_Node000004"><a xlink:title=" ">
<path fill="none" stroke="#63b8ff" d="M596.71,-294.19C581.91,-272.59 556.27,-238.21 528.25,-214.38 519.43,-206.87 377.88,-126.68 325.66,-97.18"/>
<polygon fill="#63b8ff" stroke="#63b8ff" points="593.75,-296.06 602.22,-302.42 599.56,-292.16 593.75,-296.06"/>
</a>
</g>
</g>
<!-- Node19&#45;&gt;Node9 -->
<g id="edge35_Node000019_Node000009" class="edge">
<title>Node19&#45;&gt;Node9</title>
<g id="a_edge35_Node000019_Node000009"><a xlink:title=" ">
<path fill="none" stroke="#63b8ff" d="M569.88,-329.23C567.84,-330.78 565.94,-332.5 564.25,-334.38 528.98,-373.55 565.22,-409.81 528.25,-447.38 521.29,-454.44 511.76,-459.01 502.37,-461.97"/>
<polygon fill="#63b8ff" stroke="#63b8ff" points="571.51,-332.34 578.21,-324.14 567.86,-326.37 571.51,-332.34"/>
</a>
</g>
</g>
<!-- Node19&#45;&gt;Node15 -->
<g id="edge42_Node000019_Node000015" class="edge">
<title>Node19&#45;&gt;Node15</title>
<g id="a_edge42_Node000019_Node000015"><a xlink:title=" ">
<path fill="none" stroke="#63b8ff" d="M588.57,-296.36C572.8,-283.84 550.32,-267.63 528.25,-257.38 474.6,-232.45 408.57,-216.59 362.58,-207.67"/>
<polygon fill="#63b8ff" stroke="#63b8ff" points="586.31,-299.04 596.28,-302.63 590.73,-293.61 586.31,-299.04"/>
</a>
</g>
</g>
<!-- Node19&#45;&gt;Node16 -->
<g id="edge43_Node000019_Node000016" class="edge">
<title>Node19&#45;&gt;Node16</title>
<g id="a_edge43_Node000019_Node000016"><a xlink:title=" ">
<path fill="none" stroke="#63b8ff" d="M599.88,-293.56C578.73,-249.6 531.17,-151.09 528.25,-148.38 522.29,-142.84 514.89,-138.51 507.36,-135.15"/>
<polygon fill="#63b8ff" stroke="#63b8ff" points="596.61,-294.84 604.1,-302.34 602.92,-291.81 596.61,-294.84"/>
</a>
</g>
</g>
<!-- Node20 -->
<g id="Node000020" class="node">
<title>Node20</title>
<g id="a_Node000020"><a xlink:href="carrinho_2nrf24__avr_8c.html#ab6fb4c1aa834152310116e7dec65d8e3" target="_top" xlink:title=" ">
<polygon fill="white" stroke="#666666" points="342.38,-401.75 268.62,-401.75 268.62,-381 342.38,-381 342.38,-401.75"/>
<text xml:space="preserve" text-anchor="middle" x="305.5" y="-388.25" font-family="Helvetica,sans-Serif" font-size="10.00">nrf24_begin</text>
</a>
</g>
</g>
<!-- Node19&#45;&gt;Node20 -->
<g id="edge27_Node000019_Node000020" class="edge">
<title>Node19&#45;&gt;Node20</title>
<g id="a_edge27_Node000019_Node000020"><a xlink:title=" ">
<path fill="none" stroke="#63b8ff" d="M574.94,-329.56C553.93,-338.65 530.77,-348.61 528.25,-349.38 464.35,-368.87 387.2,-381.03 342.8,-386.97"/>
<polygon fill="#63b8ff" stroke="#63b8ff" points="576.12,-332.86 583.9,-325.67 573.34,-326.44 576.12,-332.86"/>
</a>
</g>
</g>
<!-- Node21 -->
<g id="Node000021" class="node">
<title>Node21</title>
<g id="a_Node000021"><a xlink:href="carrinho_2nrf24__avr_8c.html#a5af2f11537aed8a56d8489355af0ff16" target="_top" xlink:title=" ">
<polygon fill="white" stroke="#666666" points="371.25,-362.75 239.75,-362.75 239.75,-342 371.25,-342 371.25,-362.75"/>
<text xml:space="preserve" text-anchor="middle" x="305.5" y="-349.25" font-family="Helvetica,sans-Serif" font-size="10.00">nrf24_openReadingPipe</text>
</a>
</g>
</g>
<!-- Node19&#45;&gt;Node21 -->
<g id="edge30_Node000019_Node000021" class="edge">
<title>Node19&#45;&gt;Node21</title>
<g id="a_edge30_Node000019_Node000021"><a xlink:title=" ">
<path fill="none" stroke="#63b8ff" d="M568.38,-322.01C555.54,-324.23 541.33,-326.55 528.25,-328.38 475.71,-335.72 415.9,-342.07 371.64,-346.4"/>
<polygon fill="#63b8ff" stroke="#63b8ff" points="568.98,-325.45 578.22,-320.27 567.76,-318.56 568.98,-325.45"/>
</a>
</g>
</g>
<!-- Node22 -->
<g id="Node000022" class="node">
<title>Node22</title>
<g id="a_Node000022"><a xlink:href="carrinho_2nrf24__avr_8c.html#a21d638882f746748de35324bdc21f448" target="_top" xlink:title=" ">
<polygon fill="white" stroke="#666666" points="203.75,-458.75 76.75,-458.75 76.75,-438 203.75,-438 203.75,-458.75"/>
<text xml:space="preserve" text-anchor="middle" x="140.25" y="-445.25" font-family="Helvetica,sans-Serif" font-size="10.00">nrf24_openWritingPipe</text>
</a>
</g>
</g>
<!-- Node19&#45;&gt;Node22 -->
<g id="edge33_Node000019_Node000022" class="edge">
<title>Node19&#45;&gt;Node22</title>
<g id="a_edge33_Node000019_Node000022"><a xlink:title=" ">
<path fill="none" stroke="#63b8ff" d="M570.36,-328.57C568.11,-330.3 566.04,-332.22 564.25,-334.38 519.79,-387.69 582.7,-443.31 528.25,-486.38 415.99,-575.15 224.26,-490.83 161.67,-459.22"/>
<polygon fill="#63b8ff" stroke="#63b8ff" points="571.69,-331.86 578.41,-323.66 568.05,-325.88 571.69,-331.86"/>
</a>
</g>
</g>
<!-- Node23 -->
<g id="Node000023" class="node">
<title>Node23</title>
<g id="a_Node000023"><a xlink:href="carrinho_2nrf24__avr_8c.html#a49aa88b1042d6d62114cfbca271d9e2b" target="_top" xlink:title=" ">
<polygon fill="white" stroke="#666666" points="356.25,-286.75 254.75,-286.75 254.75,-266 356.25,-266 356.25,-286.75"/>
<text xml:space="preserve" text-anchor="middle" x="305.5" y="-273.25" font-family="Helvetica,sans-Serif" font-size="10.00">nrf24_setChannel</text>
</a>
</g>
</g>
<!-- Node19&#45;&gt;Node23 -->
<g id="edge36_Node000019_Node000023" class="edge">
<title>Node19&#45;&gt;Node23</title>
<g id="a_edge36_Node000019_Node000023"><a xlink:title=" ">
<path fill="none" stroke="#63b8ff" d="M568.12,-311.6C527.06,-308.6 462.66,-303.18 407.25,-295.38 390.68,-293.04 372.7,-289.86 356.57,-286.77"/>
<polygon fill="#63b8ff" stroke="#63b8ff" points="567.83,-315.09 578.05,-312.31 568.33,-308.1 567.83,-315.09"/>
</a>
</g>
</g>
<!-- Node24 -->
<g id="Node000024" class="node">
<title>Node24</title>
<g id="a_Node000024"><a xlink:href="carrinho_2nrf24__avr_8c.html#aaf2900e7932ebbf7f0ecdc6bce5840e1" target="_top" xlink:title=" ">
<polygon fill="white" stroke="#666666" points="528.25,-438.75 407.25,-438.75 407.25,-418 528.25,-418 528.25,-438.75"/>
<text xml:space="preserve" text-anchor="middle" x="467.75" y="-425.25" font-family="Helvetica,sans-Serif" font-size="10.00">nrf24_setPayloadSize</text>
</a>
</g>
</g>
<!-- Node19&#45;&gt;Node24 -->
<g id="edge39_Node000019_Node000024" class="edge">
<title>Node19&#45;&gt;Node24</title>
<g id="a_edge39_Node000019_Node000024"><a xlink:title=" ">
<path fill="none" stroke="#63b8ff" d="M570.06,-329.7C568,-331.13 566.04,-332.69 564.25,-334.38 538.76,-358.34 554.09,-380.8 528.25,-404.38 522.24,-409.86 514.82,-414.16 507.29,-417.52"/>
<polygon fill="#63b8ff" stroke="#63b8ff" points="571.42,-332.96 578.3,-324.9 567.89,-326.91 571.42,-332.96"/>
</a>
</g>
</g>
<!-- Node20&#45;&gt;Node11 -->
<g id="edge28_Node000020_Node000011" class="edge">
<title>Node20&#45;&gt;Node11</title>
<g id="a_edge28_Node000020_Node000011"><a xlink:title=" ">
<path fill="none" stroke="#63b8ff" d="M257.63,-380.08C251.39,-377.67 245.26,-374.8 239.75,-371.38 219.99,-359.1 220.36,-349.67 203.75,-333.38 186.77,-316.71 166.25,-298.31 153.47,-287.05"/>
<polygon fill="#63b8ff" stroke="#63b8ff" points="256.11,-383.25 266.7,-383.2 258.39,-376.64 256.11,-383.25"/>
</a>
</g>
</g>
<!-- Node20&#45;&gt;Node12 -->
<g id="edge29_Node000020_Node000012" class="edge">
<title>Node20&#45;&gt;Node12</title>
<g id="a_edge29_Node000020_Node000012"><a xlink:title=" ">
<path fill="none" stroke="#63b8ff" d="M257.36,-380.11C225.39,-372.48 184.77,-362.77 161.02,-357.1"/>
<polygon fill="#63b8ff" stroke="#63b8ff" points="256.26,-383.45 266.8,-382.37 257.88,-376.64 256.26,-383.45"/>
</a>
</g>
</g>
<!-- Node21&#45;&gt;Node11 -->
<g id="edge31_Node000021_Node000011" class="edge">
<title>Node21&#45;&gt;Node11</title>
<g id="a_edge31_Node000021_Node000011"><a xlink:title=" ">
<path fill="none" stroke="#63b8ff" d="M271.35,-336.94C238.26,-321.54 188.5,-298.37 161.1,-285.62"/>
<polygon fill="#63b8ff" stroke="#63b8ff" points="269.54,-339.96 280.08,-341.01 272.5,-333.61 269.54,-339.96"/>
</a>
</g>
</g>
<!-- Node21&#45;&gt;Node12 -->
<g id="edge32_Node000021_Node000012" class="edge">
<title>Node21&#45;&gt;Node12</title>
<g id="a_edge32_Node000021_Node000012"><a xlink:title=" ">
<path fill="none" stroke="#63b8ff" d="M228.2,-352.38C203.42,-352.38 177.98,-352.38 161.07,-352.38"/>
<polygon fill="#63b8ff" stroke="#63b8ff" points="228,-355.88 238,-352.38 228,-348.88 228,-355.88"/>
</a>
</g>
</g>
<!-- Node22&#45;&gt;Node6 -->
<g id="edge34_Node000022_Node000006" class="edge">
<title>Node22&#45;&gt;Node6</title>
<g id="a_edge34_Node000022_Node000006"><a xlink:title=" ">
<path fill="none" stroke="#63b8ff" d="M119.58,-429.39C105.59,-414.79 87.44,-393.45 76.75,-371.38 35.55,-286.35 24.5,-169.92 22.01,-134.81"/>
<polygon fill="#63b8ff" stroke="#63b8ff" points="117.06,-431.83 126.59,-436.48 122.04,-426.91 117.06,-431.83"/>
</a>
</g>
</g>
<!-- Node23&#45;&gt;Node11 -->
<g id="edge37_Node000023_Node000011" class="edge">
<title>Node23&#45;&gt;Node11</title>
<g id="a_edge37_Node000023_Node000011"><a xlink:title=" ">
<path fill="none" stroke="#63b8ff" d="M243.29,-276.38C214.21,-276.38 181.44,-276.38 161.06,-276.38"/>
<polygon fill="#63b8ff" stroke="#63b8ff" points="243.12,-279.88 253.12,-276.38 243.12,-272.88 243.12,-279.88"/>
</a>
</g>
</g>
<!-- Node23&#45;&gt;Node12 -->
<g id="edge38_Node000023_Node000012" class="edge">
<title>Node23&#45;&gt;Node12</title>
<g id="a_edge38_Node000023_Node000012"><a xlink:title=" ">
<path fill="none" stroke="#63b8ff" d="M262.36,-291.09C254.76,-293.99 246.97,-297.15 239.75,-300.38 211.15,-313.16 179.3,-330.59 159.77,-341.66"/>
<polygon fill="#63b8ff" stroke="#63b8ff" points="263.32,-294.46 271.46,-287.69 260.87,-287.9 263.32,-294.46"/>
</a>
</g>
</g>
<!-- Node24&#45;&gt;Node12 -->
<g id="edge40_Node000024_Node000012" class="edge">
<title>Node24&#45;&gt;Node12</title>
<g id="a_edge40_Node000024_Node000012"><a xlink:title=" ">
<path fill="none" stroke="#63b8ff" d="M395.78,-430.87C350.22,-430.51 290.32,-426.33 239.75,-410.38 206.82,-399.98 173.15,-376.92 154.96,-363.22"/>
<polygon fill="#63b8ff" stroke="#63b8ff" points="395.52,-434.37 405.53,-430.88 395.53,-427.37 395.52,-434.37"/>
</a>
</g>
</g>
<!-- Node24&#45;&gt;Node20 -->
<g id="edge41_Node000024_Node000020" class="edge">
<title>Node24&#45;&gt;Node20</title>
<g id="a_edge41_Node000024_Node000020"><a xlink:title=" ">
<path fill="none" stroke="#63b8ff" d="M408.99,-415.04C386.83,-409.92 362.2,-404.24 342.64,-399.72"/>
<polygon fill="#63b8ff" stroke="#63b8ff" points="407.96,-418.39 418.49,-417.23 409.54,-411.57 407.96,-418.39"/>
</a>
</g>
</g>
</g>
</svg>
