<?xml version="1.0" encoding="UTF-8" standalone="no"?>
<!DOCTYPE svg PUBLIC "-//W3C//DTD SVG 1.1//EN"
 "http://www.w3.org/Graphics/SVG/1.1/DTD/svg11.dtd">
<!-- Generated by graphviz version 14.0.4 (0)
 -->
<!-- Title: digitalWrite_d Pages: 1 -->
<svg width="881pt" height="645pt"
 viewBox="0.00 0.00 881.00 645.00" xmlns="http://www.w3.org/2000/svg" xmlns:xlink="http://www.w3.org/1999/xlink">
<g id="graph0" class="graph" transform="scale(1 1) rotate(0) translate(4 641.19)">
<title>digitalWrite_d</title>
<!-- Node1 -->
<g id="Node000001" class="node">
<title>Node1</title>
<g id="a_Node000001"><a xlink:title=" ">
<polygon fill="#999999" stroke="#666666" points="872.5,-441.45 788.25,-441.45 788.25,-420.7 872.5,-420.7 872.5,-441.45"/>
<text xml:space="preserve" text-anchor="middle" x="830.38" y="-427.95" font-family="Helvetica,sans-Serif" font-size="10.00">digitalWrite_d</text>
</a>
</g>
</g>
<!-- Node2 -->
<g id="Node000002" class="node">
<title>Node2</title>
<g id="a_Node000002"><a xlink:href="carrinho_2nrf24__avr_8c.html#a5336963072afb877d785bed84eb6b5f4" target="_top" xlink:title=" ">
<polygon fill="white" stroke="#666666" points="637.62,-578.45 584.12,-578.45 584.12,-557.7 637.62,-557.7 637.62,-578.45"/>
<text xml:space="preserve" text-anchor="middle" x="610.88" y="-564.95" font-family="Helvetica,sans-Serif" font-size="10.00">ce_high</text>
</a>
</g>
</g>
<!-- Node1&#45;&gt;Node2 -->
<g id="edge1_Node000001_Node000002" class="edge">
<title>Node1&#45;&gt;Node2</title>
<g id="a_edge1_Node000001_Node000002"><a xlink:title=" ">
<path fill="none" stroke="#63b8ff" d="M806.68,-448.54C774.6,-472.75 713.6,-517.04 657.5,-548.08 651.29,-551.51 644.38,-554.8 637.86,-557.68"/>
<polygon fill="#63b8ff" stroke="#63b8ff" points="808.63,-451.46 814.47,-442.62 804.39,-445.88 808.63,-451.46"/>
</a>
</g>
</g>
<!-- Node9 -->
<g id="Node000009" class="node">
<title>Node9</title>
<g id="a_Node000009"><a xlink:href="carrinho_2nrf24__avr_8c.html#a77c5f7c57c01266d04faea3052a47f49" target="_top" xlink:title=" ">
<polygon fill="white" stroke="#666666" points="635.75,-617.45 586,-617.45 586,-596.7 635.75,-596.7 635.75,-617.45"/>
<text xml:space="preserve" text-anchor="middle" x="610.88" y="-603.95" font-family="Helvetica,sans-Serif" font-size="10.00">ce_low</text>
</a>
</g>
</g>
<!-- Node1&#45;&gt;Node9 -->
<g id="edge8_Node000001_Node000009" class="edge">
<title>Node1&#45;&gt;Node9</title>
<g id="a_edge8_Node000001_Node000009"><a xlink:title=" ">
<path fill="none" stroke="#63b8ff" d="M815.14,-450.78C800.59,-470.16 776.73,-499.98 752.25,-522.08 714.35,-556.31 702.14,-562.27 657.5,-587.08 650.7,-590.86 643.04,-594.46 635.97,-597.53"/>
<polygon fill="#63b8ff" stroke="#63b8ff" points="817.83,-453.03 820.95,-442.91 812.2,-448.87 817.83,-453.03"/>
</a>
</g>
</g>
<!-- Node12 -->
<g id="Node000012" class="node">
<title>Node12</title>
<g id="a_Node000012"><a xlink:href="carrinho_2nrf24__avr_8c.html#adaef88bc02a8e805de3b3a82bf317549" target="_top" xlink:title=" ">
<polygon fill="white" stroke="#666666" points="752.25,-383.45 693.5,-383.45 693.5,-362.7 752.25,-362.7 752.25,-383.45"/>
<text xml:space="preserve" text-anchor="middle" x="722.88" y="-369.95" font-family="Helvetica,sans-Serif" font-size="10.00">csn_high</text>
</a>
</g>
</g>
<!-- Node1&#45;&gt;Node12 -->
<g id="edge16_Node000001_Node000012" class="edge">
<title>Node1&#45;&gt;Node12</title>
<g id="a_edge16_Node000001_Node000012"><a xlink:title=" ">
<path fill="none" stroke="#63b8ff" d="M800.01,-414.94C781.97,-405.02 759.34,-392.58 743.46,-383.85"/>
<polygon fill="#63b8ff" stroke="#63b8ff" points="798.25,-417.96 808.7,-419.71 801.62,-411.83 798.25,-417.96"/>
</a>
</g>
</g>
<!-- Node28 -->
<g id="Node000028" class="node">
<title>Node28</title>
<g id="a_Node000028"><a xlink:href="carrinho_2nrf24__avr_8c.html#a42f8c1120431b7c37e116a4e1eac1cc2" target="_top" xlink:title=" ">
<polygon fill="white" stroke="#666666" points="750.38,-422.45 695.38,-422.45 695.38,-401.7 750.38,-401.7 750.38,-422.45"/>
<text xml:space="preserve" text-anchor="middle" x="722.88" y="-408.95" font-family="Helvetica,sans-Serif" font-size="10.00">csn_low</text>
</a>
</g>
</g>
<!-- Node1&#45;&gt;Node28 -->
<g id="edge54_Node000001_Node000028" class="edge">
<title>Node1&#45;&gt;Node28</title>
<g id="a_edge54_Node000001_Node000028"><a xlink:title=" ">
<path fill="none" stroke="#63b8ff" d="M776.92,-421.63C767.78,-419.99 758.63,-418.34 750.56,-416.89"/>
<polygon fill="#63b8ff" stroke="#63b8ff" points="776.03,-425.03 786.49,-423.36 777.27,-418.14 776.03,-425.03"/>
</a>
</g>
</g>
<!-- Node3 -->
<g id="Node000003" class="node">
<title>Node3</title>
<g id="a_Node000003"><a xlink:href="carrinho_2nrf24__avr_8c.html#a71c5628e9583f6a6fd0871b3ae1bf6df" target="_top" xlink:title=" ">
<polygon fill="white" stroke="#666666" points="524.5,-388.45 411,-388.45 411,-367.7 524.5,-367.7 524.5,-388.45"/>
<text xml:space="preserve" text-anchor="middle" x="467.75" y="-374.95" font-family="Helvetica,sans-Serif" font-size="10.00">nrf24_startListening</text>
</a>
</g>
</g>
<!-- Node2&#45;&gt;Node3 -->
<g id="edge2_Node000002_Node000003" class="edge">
<title>Node2&#45;&gt;Node3</title>
<g id="a_edge2_Node000002_Node000003"><a xlink:title=" ">
<path fill="none" stroke="#63b8ff" d="M573.93,-556.36C570.3,-554.06 566.96,-551.32 564.25,-548.08 520.26,-495.49 574.53,-448.66 528.25,-398.08 524.87,-394.38 520.78,-391.37 516.35,-388.91"/>
<polygon fill="#63b8ff" stroke="#63b8ff" points="572.13,-559.37 582.63,-560.8 575.32,-553.13 572.13,-559.37"/>
</a>
</g>
</g>
<!-- Node6 -->
<g id="Node000006" class="node">
<title>Node6</title>
<g id="a_Node000006"><a xlink:href="carrinho_2nrf24__avr_8c.html#a8232e1982aabc6f52408c318402cb578" target="_top" xlink:title=" ">
<polygon fill="white" stroke="#666666" points="341.25,-484.45 269.75,-484.45 269.75,-463.7 341.25,-463.7 341.25,-484.45"/>
<text xml:space="preserve" text-anchor="middle" x="305.5" y="-470.95" font-family="Helvetica,sans-Serif" font-size="10.00">nrf24_write</text>
</a>
</g>
</g>
<!-- Node2&#45;&gt;Node6 -->
<g id="edge5_Node000002_Node000006" class="edge">
<title>Node2&#45;&gt;Node6</title>
<g id="a_edge5_Node000002_Node000006"><a xlink:title=" ">
<path fill="none" stroke="#63b8ff" d="M572.84,-560.59C531.83,-551.87 464,-536.2 407.25,-517.08 379.68,-507.79 349.07,-494.24 328.91,-484.85"/>
<polygon fill="#63b8ff" stroke="#63b8ff" points="571.93,-563.97 582.43,-562.6 573.36,-557.12 571.93,-563.97"/>
</a>
</g>
</g>
<!-- Node4 -->
<g id="Node000004" class="node">
<title>Node4</title>
<g id="a_Node000004"><a xlink:href="carrinho_8c.html#ae66f6b31b5ad750f1fe042a706a4e3d4" target="_top" xlink:title=" ">
<polygon fill="white" stroke="#666666" points="160.62,-236.45 119.88,-236.45 119.88,-215.7 160.62,-215.7 160.62,-236.45"/>
<text xml:space="preserve" text-anchor="middle" x="140.25" y="-222.95" font-family="Helvetica,sans-Serif" font-size="10.00">main</text>
</a>
</g>
</g>
<!-- Node3&#45;&gt;Node4 -->
<g id="edge3_Node000003_Node000004" class="edge">
<title>Node3&#45;&gt;Node4</title>
<g id="a_edge3_Node000003_Node000004"><a xlink:title=" ">
<path fill="none" stroke="#63b8ff" d="M426.43,-363.34C380.45,-346.09 303.41,-315.81 239.75,-284.08 210.09,-269.3 177.21,-249.12 157.93,-236.88"/>
<polygon fill="#63b8ff" stroke="#63b8ff" points="425.13,-366.59 435.73,-366.81 427.58,-360.03 425.13,-366.59"/>
</a>
</g>
</g>
<!-- Node5 -->
<g id="Node000005" class="node">
<title>Node5</title>
<g id="a_Node000005"><a xlink:href="main_8c.html#a840291bc02cba5474a4cb46a9b9566fe" target="_top" xlink:title=" ">
<polygon fill="white" stroke="#666666" points="160.62,-160.45 119.88,-160.45 119.88,-139.7 160.62,-139.7 160.62,-160.45"/>
<text xml:space="preserve" text-anchor="middle" x="140.25" y="-146.95" font-family="Helvetica,sans-Serif" font-size="10.00">main</text>
</a>
</g>
</g>
<!-- Node3&#45;&gt;Node5 -->
<g id="edge4_Node000003_Node000005" class="edge">
<title>Node3&#45;&gt;Node5</title>
<g id="a_edge4_Node000003_Node000005"><a xlink:title=" ">
<path fill="none" stroke="#63b8ff" d="M460.83,-356.37C449.68,-319.74 421.99,-245.83 371.25,-207.08 354.29,-194.13 213.72,-164.72 161.06,-154.05"/>
<polygon fill="#63b8ff" stroke="#63b8ff" points="457.42,-357.18 463.56,-365.81 464.14,-355.23 457.42,-357.18"/>
</a>
</g>
</g>
<!-- Node7 -->
<g id="Node000007" class="node">
<title>Node7</title>
<g id="a_Node000007"><a xlink:href="controle_8c.html#afe461d27b9c48d5921c00d521181f12f" target="_top" xlink:title=" ">
<polygon fill="white" stroke="#666666" points="158.75,-465.45 121.75,-465.45 121.75,-444.7 158.75,-444.7 158.75,-465.45"/>
<text xml:space="preserve" text-anchor="middle" x="140.25" y="-451.95" font-family="Helvetica,sans-Serif" font-size="10.00">loop</text>
</a>
</g>
</g>
<!-- Node6&#45;&gt;Node7 -->
<g id="edge6_Node000006_Node000007" class="edge">
<title>Node6&#45;&gt;Node7</title>
<g id="a_edge6_Node000006_Node000007"><a xlink:title=" ">
<path fill="none" stroke="#63b8ff" d="M258.26,-468.7C225.27,-464.86 182.72,-459.91 159.09,-457.16"/>
<polygon fill="#63b8ff" stroke="#63b8ff" points="257.64,-472.15 267.98,-469.83 258.45,-465.2 257.64,-472.15"/>
</a>
</g>
</g>
<!-- Node8 -->
<g id="Node000008" class="node">
<title>Node8</title>
<g id="a_Node000008"><a xlink:href="controle_8c.html#ae66f6b31b5ad750f1fe042a706a4e3d4" target="_top" xlink:title=" ">
<polygon fill="white" stroke="#666666" points="40.75,-427.45 0,-427.45 0,-406.7 40.75,-406.7 40.75,-427.45"/>
<text xml:space="preserve" text-anchor="middle" x="20.38" y="-413.95" font-family="Helvetica,sans-Serif" font-size="10.00">main</text>
</a>
</g>
</g>
<!-- Node7&#45;&gt;Node8 -->
<g id="edge7_Node000007_Node000008" class="edge">
<title>Node7&#45;&gt;Node8</title>
<g id="a_edge7_Node000007_Node000008"><a xlink:title=" ">
<path fill="none" stroke="#63b8ff" d="M110.54,-445.82C88.97,-438.87 60,-429.53 41.02,-423.41"/>
<polygon fill="#63b8ff" stroke="#63b8ff" points="109.32,-449.11 119.91,-448.84 111.46,-442.44 109.32,-449.11"/>
</a>
</g>
</g>
<!-- Node9&#45;&gt;Node6 -->
<g id="edge15_Node000009_Node000006" class="edge">
<title>Node9&#45;&gt;Node6</title>
<g id="a_edge15_Node000009_Node000006"><a xlink:title=" ">
<path fill="none" stroke="#63b8ff" d="M574.88,-620.13C532.56,-633.61 460.4,-649.09 407.25,-621.08 350.59,-591.22 319.69,-513.54 309.93,-484.89"/>
<polygon fill="#63b8ff" stroke="#63b8ff" points="575.91,-623.47 584.29,-616.99 573.7,-616.83 575.91,-623.47"/>
</a>
</g>
</g>
<!-- Node10 -->
<g id="Node000010" class="node">
<title>Node10</title>
<g id="a_Node000010"><a xlink:href="carrinho_2nrf24__avr_8c.html#ab6fb4c1aa834152310116e7dec65d8e3" target="_top" xlink:title=" ">
<polygon fill="white" stroke="#666666" points="342.38,-160.45 268.62,-160.45 268.62,-139.7 342.38,-139.7 342.38,-160.45"/>
<text xml:space="preserve" text-anchor="middle" x="305.5" y="-146.95" font-family="Helvetica,sans-Serif" font-size="10.00">nrf24_begin</text>
</a>
</g>
</g>
<!-- Node9&#45;&gt;Node10 -->
<g id="edge9_Node000009_Node000010" class="edge">
<title>Node9&#45;&gt;Node10</title>
<g id="a_edge9_Node000009_Node000010"><a xlink:title=" ">
<path fill="none" stroke="#63b8ff" d="M575.5,-593.6C571.6,-591.61 567.76,-589.43 564.25,-587.08 483.78,-533.25 451.99,-521.93 407.25,-436.08 359.64,-344.71 420.87,-297.37 371.25,-207.08 360.29,-187.13 339.52,-170.78 324.45,-160.78"/>
<polygon fill="#63b8ff" stroke="#63b8ff" points="573.92,-596.73 584.46,-597.78 576.88,-590.38 573.92,-596.73"/>
</a>
</g>
</g>
<!-- Node11 -->
<g id="Node000011" class="node">
<title>Node11</title>
<g id="a_Node000011"><a xlink:href="carrinho_2nrf24__avr_8c.html#a33899bc3c0f4d2293f37c306d0b8e297" target="_top" xlink:title=" ">
<polygon fill="white" stroke="#666666" points="523.75,-427.45 411.75,-427.45 411.75,-406.7 523.75,-406.7 523.75,-427.45"/>
<text xml:space="preserve" text-anchor="middle" x="467.75" y="-413.95" font-family="Helvetica,sans-Serif" font-size="10.00">nrf24_stopListening</text>
</a>
</g>
</g>
<!-- Node9&#45;&gt;Node11 -->
<g id="edge12_Node000009_Node000011" class="edge">
<title>Node9&#45;&gt;Node11</title>
<g id="a_edge12_Node000009_Node000011"><a xlink:title=" ">
<path fill="none" stroke="#63b8ff" d="M575.6,-595.04C571.52,-592.77 567.62,-590.13 564.25,-587.08 512.07,-539.81 481.64,-457.13 472.06,-427.78"/>
<polygon fill="#63b8ff" stroke="#63b8ff" points="574,-598.15 584.53,-599.29 577.01,-591.83 574,-598.15"/>
</a>
</g>
</g>
<!-- Node10&#45;&gt;Node4 -->
<g id="edge10_Node000010_Node000004" class="edge">
<title>Node10&#45;&gt;Node4</title>
<g id="a_edge10_Node000010_Node000004"><a xlink:title=" ">
<path fill="none" stroke="#63b8ff" d="M271.35,-165.51C238.26,-180.92 188.5,-204.08 161.1,-216.84"/>
<polygon fill="#63b8ff" stroke="#63b8ff" points="272.5,-168.84 280.08,-161.45 269.54,-162.49 272.5,-168.84"/>
</a>
</g>
</g>
<!-- Node10&#45;&gt;Node5 -->
<g id="edge11_Node000010_Node000005" class="edge">
<title>Node10&#45;&gt;Node5</title>
<g id="a_edge11_Node000010_Node000005"><a xlink:title=" ">
<path fill="none" stroke="#63b8ff" d="M256.94,-150.08C225.04,-150.08 184.66,-150.08 161.02,-150.08"/>
<polygon fill="#63b8ff" stroke="#63b8ff" points="256.76,-153.58 266.76,-150.08 256.76,-146.58 256.76,-153.58"/>
</a>
</g>
</g>
<!-- Node11&#45;&gt;Node6 -->
<g id="edge14_Node000011_Node000006" class="edge">
<title>Node11&#45;&gt;Node6</title>
<g id="a_edge14_Node000011_Node000006"><a xlink:title=" ">
<path fill="none" stroke="#63b8ff" d="M425.68,-431.69C397.98,-441.54 362.05,-454.32 336.91,-463.26"/>
<polygon fill="#63b8ff" stroke="#63b8ff" points="426.56,-435.09 434.8,-428.44 424.21,-428.5 426.56,-435.09"/>
</a>
</g>
</g>
<!-- Node11&#45;&gt;Node8 -->
<g id="edge13_Node000011_Node000008" class="edge">
<title>Node11&#45;&gt;Node8</title>
<g id="a_edge13_Node000011_Node000008"><a xlink:title=" ">
<path fill="none" stroke="#63b8ff" d="M400.46,-417.08C297.11,-417.08 102.97,-417.08 40.95,-417.08"/>
<polygon fill="#63b8ff" stroke="#63b8ff" points="400.18,-420.58 410.18,-417.08 400.18,-413.58 400.18,-420.58"/>
</a>
</g>
</g>
<!-- Node12&#45;&gt;Node10 -->
<g id="edge17_Node000012_Node000010" class="edge">
<title>Node12&#45;&gt;Node10</title>
<g id="a_edge17_Node000012_Node000010"><a xlink:title=" ">
<path fill="none" stroke="#63b8ff" d="M716.82,-351.18C708.93,-321.58 691,-268.85 657.5,-237.08 569.13,-153.27 413.12,-146.52 342.74,-148.17"/>
<polygon fill="#63b8ff" stroke="#63b8ff" points="713.42,-352 719.23,-360.86 720.21,-350.31 713.42,-352"/>
</a>
</g>
</g>
<!-- Node13 -->
<g id="Node000013" class="node">
<title>Node13</title>
<g id="a_Node000013"><a xlink:href="carrinho_2nrf24__avr_8c.html#a9351c150d32184a95db9ab4a802ed860" target="_top" xlink:title=" ">
<polygon fill="white" stroke="#666666" points="653.75,-422.45 568,-422.45 568,-401.7 653.75,-401.7 653.75,-422.45"/>
<text xml:space="preserve" text-anchor="middle" x="610.88" y="-408.95" font-family="Helvetica,sans-Serif" font-size="10.00">nrf24_flush_rx</text>
</a>
</g>
</g>
<!-- Node12&#45;&gt;Node13 -->
<g id="edge18_Node000012_Node000013" class="edge">
<title>Node12&#45;&gt;Node13</title>
<g id="a_edge18_Node000012_Node000013"><a xlink:title=" ">
<path fill="none" stroke="#63b8ff" d="M682.52,-387.03C669.28,-391.73 654.72,-396.89 642.27,-401.3"/>
<polygon fill="#63b8ff" stroke="#63b8ff" points="683.58,-390.37 691.83,-383.73 681.24,-383.77 683.58,-390.37"/>
</a>
</g>
</g>
<!-- Node14 -->
<g id="Node000014" class="node">
<title>Node14</title>
<g id="a_Node000014"><a xlink:href="carrinho_2nrf24__avr_8c.html#a617ab4b2604d6f482796e35da85369ad" target="_top" xlink:title=" ">
<polygon fill="white" stroke="#666666" points="653.75,-461.45 568,-461.45 568,-440.7 653.75,-440.7 653.75,-461.45"/>
<text xml:space="preserve" text-anchor="middle" x="610.88" y="-447.95" font-family="Helvetica,sans-Serif" font-size="10.00">nrf24_flush_tx</text>
</a>
</g>
</g>
<!-- Node12&#45;&gt;Node14 -->
<g id="edge19_Node000012_Node000014" class="edge">
<title>Node12&#45;&gt;Node14</title>
<g id="a_edge19_Node000012_Node000014"><a xlink:title=" ">
<path fill="none" stroke="#63b8ff" d="M696.39,-390.66C695.4,-391.46 694.43,-392.27 693.5,-393.08 675.91,-408.3 676.53,-417.7 657.5,-431.08 652.55,-434.56 646.89,-437.63 641.29,-440.26"/>
<polygon fill="#63b8ff" stroke="#63b8ff" points="698.46,-393.48 704.34,-384.67 694.25,-387.89 698.46,-393.48"/>
</a>
</g>
</g>
<!-- Node15 -->
<g id="Node000015" class="node">
<title>Node15</title>
<g id="a_Node000015"><a xlink:href="carrinho_2nrf24__avr_8c.html#a9a23f602a6077c795322702d0a42f48c" target="_top" xlink:title=" ">
<polygon fill="white" stroke="#666666" points="657.5,-383.45 564.25,-383.45 564.25,-362.7 657.5,-362.7 657.5,-383.45"/>
<text xml:space="preserve" text-anchor="middle" x="610.88" y="-369.95" font-family="Helvetica,sans-Serif" font-size="10.00">nrf24_getStatus</text>
</a>
</g>
</g>
<!-- Node12&#45;&gt;Node15 -->
<g id="edge21_Node000012_Node000015" class="edge">
<title>Node12&#45;&gt;Node15</title>
<g id="a_edge21_Node000012_Node000015"><a xlink:title=" ">
<path fill="none" stroke="#63b8ff" d="M681.84,-373.08C674.04,-373.08 665.8,-373.08 657.82,-373.08"/>
<polygon fill="#63b8ff" stroke="#63b8ff" points="681.75,-376.58 691.75,-373.08 681.75,-369.58 681.75,-376.58"/>
</a>
</g>
</g>
<!-- Node16 -->
<g id="Node000016" class="node">
<title>Node16</title>
<g id="a_Node000016"><a xlink:href="carrinho_2nrf24__avr_8c.html#ac4a676257b5b86b05f4ea608636cb2cf" target="_top" xlink:title=" ">
<polygon fill="white" stroke="#666666" points="651.88,-266.45 569.88,-266.45 569.88,-245.7 651.88,-245.7 651.88,-266.45"/>
<text xml:space="preserve" text-anchor="middle" x="610.88" y="-252.95" font-family="Helvetica,sans-Serif" font-size="10.00">read_payload</text>
</a>
</g>
</g>
<!-- Node12&#45;&gt;Node16 -->
<g id="edge22_Node000012_Node000016" class="edge">
<title>Node12&#45;&gt;Node16</title>
<g id="a_edge22_Node000012_Node000016"><a xlink:title=" ">
<path fill="none" stroke="#63b8ff" d="M712.33,-351.93C701.66,-330.36 682.55,-297.14 657.5,-276.08 653.26,-272.52 648.29,-269.49 643.22,-266.94"/>
<polygon fill="#63b8ff" stroke="#63b8ff" points="709.15,-353.4 716.6,-360.93 715.47,-350.4 709.15,-353.4"/>
</a>
</g>
</g>
<!-- Node19 -->
<g id="Node000019" class="node">
<title>Node19</title>
<g id="a_Node000019"><a xlink:href="carrinho_2nrf24__avr_8c.html#abefdb1d58b989853c0646a6c8b18b7d3" target="_top" xlink:title=" ">
<polygon fill="white" stroke="#666666" points="640.25,-344.45 581.5,-344.45 581.5,-323.7 640.25,-323.7 640.25,-344.45"/>
<text xml:space="preserve" text-anchor="middle" x="610.88" y="-330.95" font-family="Helvetica,sans-Serif" font-size="10.00">read_reg</text>
</a>
</g>
</g>
<!-- Node12&#45;&gt;Node19 -->
<g id="edge27_Node000012_Node000019" class="edge">
<title>Node12&#45;&gt;Node19</title>
<g id="a_edge27_Node000012_Node000019"><a xlink:title=" ">
<path fill="none" stroke="#63b8ff" d="M682.57,-359.14C668.76,-354.25 653.52,-348.84 640.73,-344.31"/>
<polygon fill="#63b8ff" stroke="#63b8ff" points="681.24,-362.39 691.83,-362.43 683.58,-355.79 681.24,-362.39"/>
</a>
</g>
</g>
<!-- Node21 -->
<g id="Node000021" class="node">
<title>Node21</title>
<g id="a_Node000021"><a xlink:href="carrinho_2nrf24__avr_8c.html#a31d6889b046799ad06c03ce52c9bb640" target="_top" xlink:title=" ">
<polygon fill="white" stroke="#666666" points="650.75,-500.45 571,-500.45 571,-479.7 650.75,-479.7 650.75,-500.45"/>
<text xml:space="preserve" text-anchor="middle" x="610.88" y="-486.95" font-family="Helvetica,sans-Serif" font-size="10.00">read_reg_buf</text>
</a>
</g>
</g>
<!-- Node12&#45;&gt;Node21 -->
<g id="edge34_Node000012_Node000021" class="edge">
<title>Node12&#45;&gt;Node21</title>
<g id="a_edge34_Node000012_Node000021"><a xlink:title=" ">
<path fill="none" stroke="#63b8ff" d="M695.18,-391.19C694.6,-391.81 694.04,-392.44 693.5,-393.08 669.25,-422.04 684.53,-443.69 657.5,-470.08 653.79,-473.7 649.31,-476.73 644.63,-479.23"/>
<polygon fill="#63b8ff" stroke="#63b8ff" points="697.22,-394.06 702.44,-384.84 692.61,-388.79 697.22,-394.06"/>
</a>
</g>
</g>
<!-- Node22 -->
<g id="Node000022" class="node">
<title>Node22</title>
<g id="a_Node000022"><a xlink:href="carrinho_2nrf24__avr_8c.html#a3c9fd94e9894bf0792d4ff5891c16436" target="_top" xlink:title=" ">
<polygon fill="white" stroke="#666666" points="653.38,-539.45 568.38,-539.45 568.38,-518.7 653.38,-518.7 653.38,-539.45"/>
<text xml:space="preserve" text-anchor="middle" x="610.88" y="-525.95" font-family="Helvetica,sans-Serif" font-size="10.00">write_payload</text>
</a>
</g>
</g>
<!-- Node12&#45;&gt;Node22 -->
<g id="edge35_Node000012_Node000022" class="edge">
<title>Node12&#45;&gt;Node22</title>
<g id="a_edge35_Node000012_Node000022"><a xlink:title=" ">
<path fill="none" stroke="#63b8ff" d="M694.75,-391.46C694.32,-391.99 693.9,-392.53 693.5,-393.08 661.75,-436.73 693.47,-468.83 657.5,-509.08 654.16,-512.82 649.99,-515.89 645.54,-518.41"/>
<polygon fill="#63b8ff" stroke="#63b8ff" points="696.93,-394.22 701.82,-384.82 692.14,-389.12 696.93,-394.22"/>
</a>
</g>
</g>
<!-- Node23 -->
<g id="Node000023" class="node">
<title>Node23</title>
<g id="a_Node000023"><a xlink:href="carrinho_2nrf24__avr_8c.html#a08bc978021db604d02a6da754f73e7e2" target="_top" xlink:title=" ">
<polygon fill="white" stroke="#666666" points="641.75,-305.45 580,-305.45 580,-284.7 641.75,-284.7 641.75,-305.45"/>
<text xml:space="preserve" text-anchor="middle" x="610.88" y="-291.95" font-family="Helvetica,sans-Serif" font-size="10.00">write_reg</text>
</a>
</g>
</g>
<!-- Node12&#45;&gt;Node23 -->
<g id="edge37_Node000012_Node000023" class="edge">
<title>Node12&#45;&gt;Node23</title>
<g id="a_edge37_Node000012_Node000023"><a xlink:title=" ">
<path fill="none" stroke="#63b8ff" d="M704.25,-354.32C691.98,-342.04 674.79,-326.24 657.5,-315.08 652.12,-311.61 646.04,-308.47 640.11,-305.77"/>
<polygon fill="#63b8ff" stroke="#63b8ff" points="701.7,-356.72 711.18,-361.45 706.72,-351.84 701.7,-356.72"/>
</a>
</g>
</g>
<!-- Node14&#45;&gt;Node6 -->
<g id="edge20_Node000014_Node000006" class="edge">
<title>Node14&#45;&gt;Node6</title>
<g id="a_edge20_Node000014_Node000006"><a xlink:title=" ">
<path fill="none" stroke="#63b8ff" d="M557.18,-464.27C547.61,-466.22 537.67,-467.95 528.25,-469.08 462.68,-476.97 385.44,-476.53 341.6,-475.38"/>
<polygon fill="#63b8ff" stroke="#63b8ff" points="557.68,-467.74 566.72,-462.22 556.21,-460.9 557.68,-467.74"/>
</a>
</g>
</g>
<!-- Node17 -->
<g id="Node000017" class="node">
<title>Node17</title>
<g id="a_Node000017"><a xlink:href="carrinho_2nrf24__avr_8c.html#aa0767db791fc0b45ebadab011c1900bf" target="_top" xlink:title=" ">
<polygon fill="white" stroke="#666666" points="502,-44.45 433.5,-44.45 433.5,-23.7 502,-23.7 502,-44.45"/>
<text xml:space="preserve" text-anchor="middle" x="467.75" y="-30.95" font-family="Helvetica,sans-Serif" font-size="10.00">nrf24_read</text>
</a>
</g>
</g>
<!-- Node16&#45;&gt;Node17 -->
<g id="edge23_Node000016_Node000017" class="edge">
<title>Node16&#45;&gt;Node17</title>
<g id="a_edge23_Node000016_Node000017"><a xlink:title=" ">
<path fill="none" stroke="#63b8ff" d="M607.09,-234.25C600.72,-193.17 581.28,-104.03 528.25,-54.08 521.11,-47.35 511.64,-42.89 502.35,-39.92"/>
<polygon fill="#63b8ff" stroke="#63b8ff" points="603.62,-234.67 608.49,-244.07 610.55,-233.68 603.62,-234.67"/>
</a>
</g>
</g>
<!-- Node17&#45;&gt;Node5 -->
<g id="edge26_Node000017_Node000005" class="edge">
<title>Node17&#45;&gt;Node5</title>
<g id="a_edge26_Node000017_Node000005"><a xlink:title=" ">
<path fill="none" stroke="#63b8ff" d="M428.48,-19.72C381.37,-4.53 300.2,13.37 239.75,-17.08 187.15,-43.58 155.63,-112.93 145.16,-139.5"/>
<polygon fill="#63b8ff" stroke="#63b8ff" points="427.09,-22.95 437.69,-22.81 429.32,-16.31 427.09,-22.95"/>
</a>
</g>
</g>
<!-- Node18 -->
<g id="Node000018" class="node">
<title>Node18</title>
<g id="a_Node000018"><a xlink:href="carrinho_8c.html#afe461d27b9c48d5921c00d521181f12f" target="_top" xlink:title=" ">
<polygon fill="white" stroke="#666666" points="324,-46.45 287,-46.45 287,-25.7 324,-25.7 324,-46.45"/>
<text xml:space="preserve" text-anchor="middle" x="305.5" y="-32.95" font-family="Helvetica,sans-Serif" font-size="10.00">loop</text>
</a>
</g>
</g>
<!-- Node17&#45;&gt;Node18 -->
<g id="edge24_Node000017_Node000018" class="edge">
<title>Node17&#45;&gt;Node18</title>
<g id="a_edge24_Node000017_Node000018"><a xlink:title=" ">
<path fill="none" stroke="#63b8ff" d="M421.72,-34.64C389.37,-35.05 347.51,-35.57 324.19,-35.86"/>
<polygon fill="#63b8ff" stroke="#63b8ff" points="421.69,-38.14 431.64,-34.52 421.6,-31.14 421.69,-38.14"/>
</a>
</g>
</g>
<!-- Node18&#45;&gt;Node4 -->
<g id="edge25_Node000018_Node000004" class="edge">
<title>Node18&#45;&gt;Node4</title>
<g id="a_edge25_Node000018_Node000004"><a xlink:title=" ">
<path fill="none" stroke="#63b8ff" d="M290.82,-56.45C272.38,-83.35 237.89,-131.68 203.75,-169.08 187.91,-186.43 167.46,-204.36 154.34,-215.37"/>
<polygon fill="#63b8ff" stroke="#63b8ff" points="293.71,-58.43 296.43,-48.2 287.92,-54.5 293.71,-58.43"/>
</a>
</g>
</g>
<!-- Node19&#45;&gt;Node3 -->
<g id="edge31_Node000019_Node000003" class="edge">
<title>Node19&#45;&gt;Node3</title>
<g id="a_edge31_Node000019_Node000003"><a xlink:title=" ">
<path fill="none" stroke="#63b8ff" d="M570.48,-346.36C549.45,-352.92 523.79,-360.92 503.51,-367.24"/>
<polygon fill="#63b8ff" stroke="#63b8ff" points="571.37,-349.75 579.87,-343.43 569.28,-343.07 571.37,-349.75"/>
</a>
</g>
</g>
<!-- Node19&#45;&gt;Node6 -->
<g id="edge33_Node000019_Node000006" class="edge">
<title>Node19&#45;&gt;Node6</title>
<g id="a_edge33_Node000019_Node000006"><a xlink:title=" ">
<path fill="none" stroke="#63b8ff" d="M571.44,-348.23C568.85,-349.97 566.41,-351.92 564.25,-354.08 536.1,-382.22 559.61,-411.57 528.25,-436.08 499.78,-458.33 396.65,-468.27 341.64,-472.07"/>
<polygon fill="#63b8ff" stroke="#63b8ff" points="572.95,-351.39 579.97,-343.46 569.54,-345.28 572.95,-351.39"/>
</a>
</g>
</g>
<!-- Node19&#45;&gt;Node11 -->
<g id="edge32_Node000019_Node000011" class="edge">
<title>Node19&#45;&gt;Node11</title>
<g id="a_edge32_Node000019_Node000011"><a xlink:title=" ">
<path fill="none" stroke="#63b8ff" d="M571.12,-349.51C568.72,-350.94 566.41,-352.46 564.25,-354.08 544.31,-369.03 548.83,-383.03 528.25,-397.08 522.94,-400.71 516.92,-403.72 510.79,-406.22"/>
<polygon fill="#63b8ff" stroke="#63b8ff" points="572.67,-352.65 579.91,-344.91 569.42,-346.45 572.67,-352.65"/>
</a>
</g>
</g>
<!-- Node20 -->
<g id="Node000020" class="node">
<title>Node20</title>
<g id="a_Node000020"><a xlink:href="carrinho_2nrf24__avr_8c.html#a0f64caa74329fd5799a33f30bd8ebf82" target="_top" xlink:title=" ">
<polygon fill="white" stroke="#666666" points="513.62,-83.45 421.88,-83.45 421.88,-62.7 513.62,-62.7 513.62,-83.45"/>
<text xml:space="preserve" text-anchor="middle" x="467.75" y="-69.95" font-family="Helvetica,sans-Serif" font-size="10.00">nrf24_available</text>
</a>
</g>
</g>
<!-- Node19&#45;&gt;Node20 -->
<g id="edge28_Node000019_Node000020" class="edge">
<title>Node19&#45;&gt;Node20</title>
<g id="a_edge28_Node000019_Node000020"><a xlink:title=" ">
<path fill="none" stroke="#63b8ff" d="M571.44,-320.99C568.74,-319 566.29,-316.71 564.25,-314.08 503.27,-235.44 592.66,-168.94 528.25,-93.08 524.37,-88.51 519.41,-84.98 514.02,-82.26"/>
<polygon fill="#63b8ff" stroke="#63b8ff" points="569.6,-323.97 580.01,-325.93 573.09,-317.9 569.6,-323.97"/>
</a>
</g>
</g>
<!-- Node20&#45;&gt;Node5 -->
<g id="edge30_Node000020_Node000005" class="edge">
<title>Node20&#45;&gt;Node5</title>
<g id="a_edge30_Node000020_Node000005"><a xlink:title=" ">
<path fill="none" stroke="#63b8ff" d="M410.14,-80.55C363.85,-87.31 296.94,-98.59 239.75,-114.08 211.81,-121.65 180.58,-133.7 160.92,-141.75"/>
<polygon fill="#63b8ff" stroke="#63b8ff" points="410.55,-84.02 419.95,-79.14 409.56,-77.09 410.55,-84.02"/>
</a>
</g>
</g>
<!-- Node20&#45;&gt;Node18 -->
<g id="edge29_Node000020_Node000018" class="edge">
<title>Node20&#45;&gt;Node18</title>
<g id="a_edge29_Node000020_Node000018"><a xlink:title=" ">
<path fill="none" stroke="#63b8ff" d="M410.81,-60.16C380.58,-53.18 345.28,-45.03 324.47,-40.23"/>
<polygon fill="#63b8ff" stroke="#63b8ff" points="409.68,-63.49 420.21,-62.33 411.25,-56.67 409.68,-63.49"/>
</a>
</g>
</g>
<!-- Node22&#45;&gt;Node6 -->
<g id="edge36_Node000022_Node000006" class="edge">
<title>Node22&#45;&gt;Node6</title>
<g id="a_edge36_Node000022_Node000006"><a xlink:title=" ">
<path fill="none" stroke="#63b8ff" d="M556.92,-519.48C494.98,-508.25 394.2,-489.98 341.35,-480.4"/>
<polygon fill="#63b8ff" stroke="#63b8ff" points="556.06,-522.88 566.52,-521.22 557.31,-515.99 556.06,-522.88"/>
</a>
</g>
</g>
<!-- Node23&#45;&gt;Node3 -->
<g id="edge51_Node000023_Node000003" class="edge">
<title>Node23&#45;&gt;Node3</title>
<g id="a_edge51_Node000023_Node000003"><a xlink:title=" ">
<path fill="none" stroke="#63b8ff" d="M570.31,-311.16C568.21,-312.4 566.18,-313.71 564.25,-315.08 545.04,-328.77 547.66,-340.68 528.25,-354.08 520.64,-359.33 511.71,-363.7 503.12,-367.21"/>
<polygon fill="#63b8ff" stroke="#63b8ff" points="571.86,-314.3 579.09,-306.55 568.6,-308.1 571.86,-314.3"/>
</a>
</g>
</g>
<!-- Node23&#45;&gt;Node6 -->
<g id="edge53_Node000023_Node000006" class="edge">
<title>Node23&#45;&gt;Node6</title>
<g id="a_edge53_Node000023_Node000006"><a xlink:title=" ">
<path fill="none" stroke="#63b8ff" d="M568.94,-306.72C513.82,-322.6 421.01,-350.09 407.25,-359.08 363.25,-387.82 327.04,-440.9 312.9,-463.47"/>
<polygon fill="#63b8ff" stroke="#63b8ff" points="569.66,-310.16 578.3,-304.04 567.73,-303.43 569.66,-310.16"/>
</a>
</g>
</g>
<!-- Node23&#45;&gt;Node10 -->
<g id="edge38_Node000023_Node000010" class="edge">
<title>Node23&#45;&gt;Node10</title>
<g id="a_edge38_Node000023_Node000010"><a xlink:title=" ">
<path fill="none" stroke="#63b8ff" d="M570.86,-279.09C568.58,-277.82 566.36,-276.48 564.25,-275.08 545.9,-262.93 546.66,-253.14 528.25,-241.08 464.79,-199.5 441.73,-202.16 371.25,-174.08 360,-169.6 347.55,-164.92 336.6,-160.89"/>
<polygon fill="#63b8ff" stroke="#63b8ff" points="569.24,-282.19 579.74,-283.58 572.4,-275.94 569.24,-282.19"/>
</a>
</g>
</g>
<!-- Node23&#45;&gt;Node11 -->
<g id="edge52_Node000023_Node000011" class="edge">
<title>Node23&#45;&gt;Node11</title>
<g id="a_edge52_Node000023_Node000011"><a xlink:title=" ">
<path fill="none" stroke="#63b8ff" d="M570.11,-310.15C568.02,-311.65 566.04,-313.29 564.25,-315.08 536.1,-343.22 557.62,-370.22 528.25,-397.08 524.23,-400.76 519.51,-403.76 514.52,-406.21"/>
<polygon fill="#63b8ff" stroke="#63b8ff" points="571.73,-313.26 578.57,-305.17 568.18,-307.23 571.73,-313.26"/>
</a>
</g>
</g>
<!-- Node23&#45;&gt;Node17 -->
<g id="edge44_Node000023_Node000017" class="edge">
<title>Node23&#45;&gt;Node17</title>
<g id="a_edge44_Node000023_Node000017"><a xlink:title=" ">
<path fill="none" stroke="#63b8ff" d="M570.36,-281.17C568.09,-279.37 566.01,-277.35 564.25,-275.08 503.27,-196.44 592.66,-129.94 528.25,-54.08 521.69,-46.35 512.04,-41.6 502.42,-38.68"/>
<polygon fill="#63b8ff" stroke="#63b8ff" points="568.26,-283.98 578.61,-286.23 571.92,-278.02 568.26,-283.98"/>
</a>
</g>
</g>
<!-- Node24 -->
<g id="Node000024" class="node">
<title>Node24</title>
<g id="a_Node000024"><a xlink:href="carrinho_2nrf24__avr_8c.html#a5af2f11537aed8a56d8489355af0ff16" target="_top" xlink:title=" ">
<polygon fill="white" stroke="#666666" points="371.25,-236.45 239.75,-236.45 239.75,-215.7 371.25,-215.7 371.25,-236.45"/>
<text xml:space="preserve" text-anchor="middle" x="305.5" y="-222.95" font-family="Helvetica,sans-Serif" font-size="10.00">nrf24_openReadingPipe</text>
</a>
</g>
</g>
<!-- Node23&#45;&gt;Node24 -->
<g id="edge39_Node000023_Node000024" class="edge">
<title>Node23&#45;&gt;Node24</title>
<g id="a_edge39_Node000023_Node000024"><a xlink:title=" ">
<path fill="none" stroke="#63b8ff" d="M568.84,-282.91C555.9,-279.24 541.52,-275.32 528.25,-272.08 472.87,-258.55 409.08,-245.59 364.18,-236.89"/>
<polygon fill="#63b8ff" stroke="#63b8ff" points="567.74,-286.24 578.32,-285.63 569.67,-279.51 567.74,-286.24"/>
</a>
</g>
</g>
<!-- Node25 -->
<g id="Node000025" class="node">
<title>Node25</title>
<g id="a_Node000025"><a xlink:href="carrinho_2nrf24__avr_8c.html#a21d638882f746748de35324bdc21f448" target="_top" xlink:title=" ">
<polygon fill="white" stroke="#666666" points="203.75,-370.45 76.75,-370.45 76.75,-349.7 203.75,-349.7 203.75,-370.45"/>
<text xml:space="preserve" text-anchor="middle" x="140.25" y="-356.95" font-family="Helvetica,sans-Serif" font-size="10.00">nrf24_openWritingPipe</text>
</a>
</g>
</g>
<!-- Node23&#45;&gt;Node25 -->
<g id="edge42_Node000023_Node000025" class="edge">
<title>Node23&#45;&gt;Node25</title>
<g id="a_edge42_Node000023_Node000025"><a xlink:title=" ">
<path fill="none" stroke="#63b8ff" d="M568.16,-298.66C527.13,-302.35 462.76,-308.62 407.25,-316.08 335.92,-325.67 254.33,-339.61 200.52,-349.22"/>
<polygon fill="#63b8ff" stroke="#63b8ff" points="568.44,-302.15 578.09,-297.77 567.82,-295.17 568.44,-302.15"/>
</a>
</g>
</g>
<!-- Node26 -->
<g id="Node000026" class="node">
<title>Node26</title>
<g id="a_Node000026"><a xlink:href="carrinho_2nrf24__avr_8c.html#a49aa88b1042d6d62114cfbca271d9e2b" target="_top" xlink:title=" ">
<polygon fill="white" stroke="#666666" points="356.25,-275.45 254.75,-275.45 254.75,-254.7 356.25,-254.7 356.25,-275.45"/>
<text xml:space="preserve" text-anchor="middle" x="305.5" y="-261.95" font-family="Helvetica,sans-Serif" font-size="10.00">nrf24_setChannel</text>
</a>
</g>
</g>
<!-- Node23&#45;&gt;Node26 -->
<g id="edge45_Node000023_Node000026" class="edge">
<title>Node23&#45;&gt;Node26</title>
<g id="a_edge45_Node000023_Node000026"><a xlink:title=" ">
<path fill="none" stroke="#63b8ff" d="M568.24,-290.96C513.04,-285.5 415.72,-275.88 356.57,-270.03"/>
<polygon fill="#63b8ff" stroke="#63b8ff" points="567.88,-294.44 578.17,-291.94 568.56,-287.48 567.88,-294.44"/>
</a>
</g>
</g>
<!-- Node27 -->
<g id="Node000027" class="node">
<title>Node27</title>
<g id="a_Node000027"><a xlink:href="carrinho_2nrf24__avr_8c.html#aaf2900e7932ebbf7f0ecdc6bce5840e1" target="_top" xlink:title=" ">
<polygon fill="white" stroke="#666666" points="528.25,-122.45 407.25,-122.45 407.25,-101.7 528.25,-101.7 528.25,-122.45"/>
<text xml:space="preserve" text-anchor="middle" x="467.75" y="-108.95" font-family="Helvetica,sans-Serif" font-size="10.00">nrf24_setPayloadSize</text>
</a>
</g>
</g>
<!-- Node23&#45;&gt;Node27 -->
<g id="edge48_Node000023_Node000027" class="edge">
<title>Node23&#45;&gt;Node27</title>
<g id="a_edge48_Node000023_Node000027"><a xlink:title=" ">
<path fill="none" stroke="#63b8ff" d="M569.96,-280.16C567.9,-278.62 565.97,-276.93 564.25,-275.08 531.77,-240.21 553.31,-214.62 528.25,-174.08 515.54,-153.52 495.09,-134.15 481.79,-122.7"/>
<polygon fill="#63b8ff" stroke="#63b8ff" points="567.96,-283.04 578.33,-285.21 571.58,-277.05 567.96,-283.04"/>
</a>
</g>
</g>
<!-- Node24&#45;&gt;Node4 -->
<g id="edge40_Node000024_Node000004" class="edge">
<title>Node24&#45;&gt;Node4</title>
<g id="a_edge40_Node000024_Node000004"><a xlink:title=" ">
<path fill="none" stroke="#63b8ff" d="M228.2,-226.08C203.42,-226.08 177.98,-226.08 161.07,-226.08"/>
<polygon fill="#63b8ff" stroke="#63b8ff" points="228,-229.58 238,-226.08 228,-222.58 228,-229.58"/>
</a>
</g>
</g>
<!-- Node24&#45;&gt;Node5 -->
<g id="edge41_Node000024_Node000005" class="edge">
<title>Node24&#45;&gt;Node5</title>
<g id="a_edge41_Node000024_Node000005"><a xlink:title=" ">
<path fill="none" stroke="#63b8ff" d="M262.36,-211.37C254.76,-208.46 246.97,-205.31 239.75,-202.08 211.15,-189.3 179.3,-171.87 159.77,-160.79"/>
<polygon fill="#63b8ff" stroke="#63b8ff" points="260.87,-214.55 271.46,-214.77 263.32,-207.99 260.87,-214.55"/>
</a>
</g>
</g>
<!-- Node25&#45;&gt;Node8 -->
<g id="edge43_Node000025_Node000008" class="edge">
<title>Node25&#45;&gt;Node8</title>
<g id="a_edge43_Node000025_Node000008"><a xlink:title=" ">
<path fill="none" stroke="#63b8ff" d="M106.68,-375.83C85.61,-386.02 58.87,-398.95 41,-407.59"/>
<polygon fill="#63b8ff" stroke="#63b8ff" points="107.96,-379.1 115.44,-371.59 104.91,-372.8 107.96,-379.1"/>
</a>
</g>
</g>
<!-- Node26&#45;&gt;Node4 -->
<g id="edge46_Node000026_Node000004" class="edge">
<title>Node26&#45;&gt;Node4</title>
<g id="a_edge46_Node000026_Node000004"><a xlink:title=" ">
<path fill="none" stroke="#63b8ff" d="M248.13,-251.61C217.85,-244.38 182.41,-235.91 160.91,-230.78"/>
<polygon fill="#63b8ff" stroke="#63b8ff" points="247.01,-254.95 257.55,-253.86 248.64,-248.14 247.01,-254.95"/>
</a>
</g>
</g>
<!-- Node26&#45;&gt;Node5 -->
<g id="edge47_Node000026_Node000005" class="edge">
<title>Node26&#45;&gt;Node5</title>
<g id="a_edge47_Node000026_Node000005"><a xlink:title=" ">
<path fill="none" stroke="#63b8ff" d="M248.45,-249.83C245.44,-248.38 242.51,-246.8 239.75,-245.08 219.99,-232.8 220.36,-223.37 203.75,-207.08 186.77,-190.42 166.25,-172.02 153.47,-160.75"/>
<polygon fill="#63b8ff" stroke="#63b8ff" points="246.99,-253.01 257.56,-253.69 249.72,-246.57 246.99,-253.01"/>
</a>
</g>
</g>
<!-- Node27&#45;&gt;Node5 -->
<g id="edge49_Node000027_Node000005" class="edge">
<title>Node27&#45;&gt;Node5</title>
<g id="a_edge49_Node000027_Node000005"><a xlink:title=" ">
<path fill="none" stroke="#63b8ff" d="M395.44,-116.08C350.62,-119.09 291.65,-123.92 239.75,-131.08 212.15,-134.89 180.57,-141.36 160.77,-145.67"/>
<polygon fill="#63b8ff" stroke="#63b8ff" points="395.55,-119.58 405.3,-115.44 395.1,-112.6 395.55,-119.58"/>
</a>
</g>
</g>
<!-- Node27&#45;&gt;Node10 -->
<g id="edge50_Node000027_Node000010" class="edge">
<title>Node27&#45;&gt;Node10</title>
<g id="a_edge50_Node000027_Node000010"><a xlink:title=" ">
<path fill="none" stroke="#63b8ff" d="M410.16,-125.5C387.72,-130.82 362.59,-136.78 342.69,-141.5"/>
<polygon fill="#63b8ff" stroke="#63b8ff" points="410.86,-128.93 419.78,-123.22 409.25,-122.12 410.86,-128.93"/>
</a>
</g>
</g>
<!-- Node28&#45;&gt;Node13 -->
<g id="edge55_Node000028_Node000013" class="edge">
<title>Node28&#45;&gt;Node13</title>
<g id="a_edge55_Node000028_Node000013"><a xlink:title=" ">
<path fill="none" stroke="#63b8ff" d="M683.71,-412.08C674.1,-412.08 663.73,-412.08 653.94,-412.08"/>
<polygon fill="#63b8ff" stroke="#63b8ff" points="683.45,-415.58 693.45,-412.08 683.45,-408.58 683.45,-415.58"/>
</a>
</g>
</g>
<!-- Node28&#45;&gt;Node14 -->
<g id="edge56_Node000028_Node000014" class="edge">
<title>Node28&#45;&gt;Node14</title>
<g id="a_edge56_Node000028_Node000014"><a xlink:title=" ">
<path fill="none" stroke="#63b8ff" d="M684.41,-425.36C670.71,-430.22 655.4,-435.65 642.39,-440.26"/>
<polygon fill="#63b8ff" stroke="#63b8ff" points="685.28,-428.77 693.54,-422.13 682.94,-422.17 685.28,-428.77"/>
</a>
</g>
</g>
<!-- Node28&#45;&gt;Node15 -->
<g id="edge57_Node000028_Node000015" class="edge">
<title>Node28&#45;&gt;Node15</title>
<g id="a_edge57_Node000028_Node000015"><a xlink:title=" ">
<path fill="none" stroke="#63b8ff" d="M684.41,-398.8C670.71,-393.94 655.4,-388.51 642.39,-383.9"/>
<polygon fill="#63b8ff" stroke="#63b8ff" points="682.94,-401.99 693.54,-402.03 685.28,-395.39 682.94,-401.99"/>
</a>
</g>
</g>
<!-- Node28&#45;&gt;Node16 -->
<g id="edge58_Node000028_Node000016" class="edge">
<title>Node28&#45;&gt;Node16</title>
<g id="a_edge58_Node000028_Node000016"><a xlink:title=" ">
<path fill="none" stroke="#63b8ff" d="M694.75,-393.7C694.32,-393.17 693.9,-392.63 693.5,-392.08 661.75,-348.43 693.47,-316.33 657.5,-276.08 654.16,-272.34 649.99,-269.27 645.54,-266.75"/>
<polygon fill="#63b8ff" stroke="#63b8ff" points="692.14,-396.04 701.82,-400.34 696.93,-390.94 692.14,-396.04"/>
</a>
</g>
</g>
<!-- Node28&#45;&gt;Node19 -->
<g id="edge59_Node000028_Node000019" class="edge">
<title>Node28&#45;&gt;Node19</title>
<g id="a_edge59_Node000028_Node000019"><a xlink:title=" ">
<path fill="none" stroke="#63b8ff" d="M696.39,-394.5C695.4,-393.7 694.43,-392.89 693.5,-392.08 675.91,-376.86 676.53,-367.46 657.5,-354.08 652.26,-350.4 646.24,-347.18 640.33,-344.45"/>
<polygon fill="#63b8ff" stroke="#63b8ff" points="694.25,-397.27 704.34,-400.49 698.46,-391.68 694.25,-397.27"/>
</a>
</g>
</g>
<!-- Node28&#45;&gt;Node21 -->
<g id="edge60_Node000028_Node000021" class="edge">
<title>Node28&#45;&gt;Node21</title>
<g id="a_edge60_Node000028_Node000021"><a xlink:title=" ">
<path fill="none" stroke="#63b8ff" d="M704.25,-430.84C691.98,-443.12 674.79,-458.92 657.5,-470.08 652.12,-473.55 646.04,-476.69 640.11,-479.39"/>
<polygon fill="#63b8ff" stroke="#63b8ff" points="706.72,-433.32 711.18,-423.71 701.7,-428.44 706.72,-433.32"/>
</a>
</g>
</g>
<!-- Node28&#45;&gt;Node22 -->
<g id="edge61_Node000028_Node000022" class="edge">
<title>Node28&#45;&gt;Node22</title>
<g id="a_edge61_Node000028_Node000022"><a xlink:title=" ">
<path fill="none" stroke="#63b8ff" d="M712.33,-433.23C701.66,-454.8 682.55,-488.02 657.5,-509.08 653.26,-512.64 648.29,-515.67 643.22,-518.22"/>
<polygon fill="#63b8ff" stroke="#63b8ff" points="715.47,-434.76 716.6,-424.23 709.15,-431.76 715.47,-434.76"/>
</a>
</g>
</g>
<!-- Node28&#45;&gt;Node23 -->
<g id="edge62_Node000028_Node000023" class="edge">
<title>Node28&#45;&gt;Node23</title>
<g id="a_edge62_Node000028_Node000023"><a xlink:title=" ">
<path fill="none" stroke="#63b8ff" d="M695.18,-393.97C694.6,-393.35 694.04,-392.72 693.5,-392.08 669.25,-363.11 684.53,-341.47 657.5,-315.08 653.04,-310.73 647.49,-307.25 641.8,-304.48"/>
<polygon fill="#63b8ff" stroke="#63b8ff" points="692.61,-396.37 702.44,-400.32 697.22,-391.1 692.61,-396.37"/>
</a>
</g>
</g>
</g>
</svg>
