<?xml version="1.0" encoding="UTF-8" standalone="no"?>
<!DOCTYPE svg PUBLIC "-//W3C//DTD SVG 1.1//EN"
 "http://www.w3.org/Graphics/SVG/1.1/DTD/svg11.dtd">
<!-- Generated by graphviz version 14.0.4 (0)
 -->
<!-- Title: millis Pages: 1 -->
<svg width="312pt" height="146pt"
 viewBox="0.00 0.00 312.00 146.00" xmlns="http://www.w3.org/2000/svg" xmlns:xlink="http://www.w3.org/1999/xlink">
<g id="graph0" class="graph" transform="scale(1 1) rotate(0) translate(4 141.75)">
<title>millis</title>
<!-- Node1 -->
<g id="Node000001" class="node">
<title>Node1</title>
<g id="a_Node000001"><a xlink:title="Retorna o valor de millis desde o início do programa.">
<polygon fill="#999999" stroke="#666666" points="304,-78.75 261,-78.75 261,-58 304,-58 304,-78.75"/>
<text xml:space="preserve" text-anchor="middle" x="282.5" y="-65.25" font-family="Helvetica,sans-Serif" font-size="10.00">millis</text>
</a>
</g>
</g>
<!-- Node2 -->
<g id="Node000002" class="node">
<title>Node2</title>
<g id="a_Node000002"><a xlink:href="carrinho_8c.html#a77947cc1d2af5b57aa9e7f701e2c1f51" target="_top" xlink:title="Verifica se o tempo de um timer acabou.">
<polygon fill="white" stroke="#666666" points="225,-137.75 149.75,-137.75 149.75,-117 225,-117 225,-137.75"/>
<text xml:space="preserve" text-anchor="middle" x="187.38" y="-124.25" font-family="Helvetica,sans-Serif" font-size="10.00">isTimerOver</text>
</a>
</g>
</g>
<!-- Node1&#45;&gt;Node2 -->
<g id="edge1_Node000001_Node000002" class="edge">
<title>Node1&#45;&gt;Node2</title>
<g id="a_edge1_Node000001_Node000002"><a xlink:title=" ">
<path fill="none" stroke="#63b8ff" d="M257.67,-85.64C247.73,-92.63 235.96,-100.62 225,-107.38 219.94,-110.49 214.37,-113.66 209.12,-116.53"/>
<polygon fill="#63b8ff" stroke="#63b8ff" points="259.56,-88.59 265.68,-79.95 255.5,-82.89 259.56,-88.59"/>
</a>
</g>
</g>
<!-- Node5 -->
<g id="Node000005" class="node">
<title>Node5</title>
<g id="a_Node000005"><a xlink:href="carrinho__ino_8ino.html#adf1dfbee680be7fd774683d7c6a1a05c" target="_top" xlink:title=" ">
<polygon fill="white" stroke="#666666" points="225,-59.75 149.75,-59.75 149.75,-39 225,-39 225,-59.75"/>
<text xml:space="preserve" text-anchor="middle" x="187.38" y="-46.25" font-family="Helvetica,sans-Serif" font-size="10.00">isTimerOver</text>
</a>
</g>
</g>
<!-- Node1&#45;&gt;Node5 -->
<g id="edge4_Node000001_Node000005" class="edge">
<title>Node1&#45;&gt;Node5</title>
<g id="a_edge4_Node000001_Node000005"><a xlink:title=" ">
<path fill="none" stroke="#63b8ff" d="M249.63,-61.87C241.86,-60.29 233.47,-58.58 225.48,-56.94"/>
<polygon fill="#63b8ff" stroke="#63b8ff" points="248.85,-65.29 259.35,-63.86 250.25,-58.43 248.85,-65.29"/>
</a>
</g>
</g>
<!-- Node7 -->
<g id="Node000007" class="node">
<title>Node7</title>
<g id="a_Node000007"><a xlink:href="carrinho_8c.html#a8019f056ad898f0e555eb56190617c2b" target="_top" xlink:title="Reseta o timer para o valor atual de millis().">
<polygon fill="white" stroke="#666666" points="222.38,-98.75 152.38,-98.75 152.38,-78 222.38,-78 222.38,-98.75"/>
<text xml:space="preserve" text-anchor="middle" x="187.38" y="-85.25" font-family="Helvetica,sans-Serif" font-size="10.00">timerReset</text>
</a>
</g>
</g>
<!-- Node1&#45;&gt;Node7 -->
<g id="edge6_Node000001_Node000007" class="edge">
<title>Node1&#45;&gt;Node7</title>
<g id="a_edge6_Node000001_Node000007"><a xlink:title=" ">
<path fill="none" stroke="#63b8ff" d="M249.85,-75.17C241.05,-77.06 231.45,-79.12 222.52,-81.04"/>
<polygon fill="#63b8ff" stroke="#63b8ff" points="250.31,-78.65 259.35,-73.13 248.84,-71.81 250.31,-78.65"/>
</a>
</g>
</g>
<!-- Node8 -->
<g id="Node000008" class="node">
<title>Node8</title>
<g id="a_Node000008"><a xlink:href="carrinho__ino_8ino.html#a28e17ddfc6c506e94ffac4c672837624" target="_top" xlink:title=" ">
<polygon fill="white" stroke="#666666" points="222.38,-20.75 152.38,-20.75 152.38,0 222.38,0 222.38,-20.75"/>
<text xml:space="preserve" text-anchor="middle" x="187.38" y="-7.25" font-family="Helvetica,sans-Serif" font-size="10.00">timerReset</text>
</a>
</g>
</g>
<!-- Node1&#45;&gt;Node8 -->
<g id="edge8_Node000001_Node000008" class="edge">
<title>Node1&#45;&gt;Node8</title>
<g id="a_edge8_Node000001_Node000008"><a xlink:title=" ">
<path fill="none" stroke="#63b8ff" d="M257.21,-51.32C247.35,-44.59 235.76,-36.91 225,-30.38 219.8,-27.22 214.07,-23.98 208.71,-21.05"/>
<polygon fill="#63b8ff" stroke="#63b8ff" points="254.94,-54.01 265.16,-56.81 258.91,-48.24 254.94,-54.01"/>
</a>
</g>
</g>
<!-- Node3 -->
<g id="Node000003" class="node">
<title>Node3</title>
<g id="a_Node000003"><a xlink:href="carrinho_8c.html#afe461d27b9c48d5921c00d521181f12f" target="_top" xlink:title="Laço principal contendo toda a lógica do robô.">
<polygon fill="white" stroke="#666666" points="113.75,-117.75 76.75,-117.75 76.75,-97 113.75,-97 113.75,-117.75"/>
<text xml:space="preserve" text-anchor="middle" x="95.25" y="-104.25" font-family="Helvetica,sans-Serif" font-size="10.00">loop</text>
</a>
</g>
</g>
<!-- Node2&#45;&gt;Node3 -->
<g id="edge2_Node000002_Node000003" class="edge">
<title>Node2&#45;&gt;Node3</title>
<g id="a_edge2_Node000002_Node000003"><a xlink:title=" ">
<path fill="none" stroke="#63b8ff" d="M138.43,-116.73C129.7,-114.8 121.12,-112.89 114,-111.31"/>
<polygon fill="#63b8ff" stroke="#63b8ff" points="137.46,-120.1 147.98,-118.85 138.98,-113.27 137.46,-120.1"/>
</a>
</g>
</g>
<!-- Node4 -->
<g id="Node000004" class="node">
<title>Node4</title>
<g id="a_Node000004"><a xlink:href="carrinho_8c.html#ae66f6b31b5ad750f1fe042a706a4e3d4" target="_top" xlink:title="Função principal: inicializa periféricos e roda loop().">
<polygon fill="white" stroke="#666666" points="40.75,-117.75 0,-117.75 0,-97 40.75,-97 40.75,-117.75"/>
<text xml:space="preserve" text-anchor="middle" x="20.38" y="-104.25" font-family="Helvetica,sans-Serif" font-size="10.00">main</text>
</a>
</g>
</g>
<!-- Node3&#45;&gt;Node4 -->
<g id="edge3_Node000003_Node000004" class="edge">
<title>Node3&#45;&gt;Node4</title>
<g id="a_edge3_Node000003_Node000004"><a xlink:title=" ">
<path fill="none" stroke="#63b8ff" d="M65.31,-107.38C57.21,-107.38 48.6,-107.38 41.17,-107.38"/>
<polygon fill="#63b8ff" stroke="#63b8ff" points="65.1,-110.88 75.1,-107.38 65.1,-103.88 65.1,-110.88"/>
</a>
</g>
</g>
<!-- Node6 -->
<g id="Node000006" class="node">
<title>Node6</title>
<g id="a_Node000006"><a xlink:href="carrinho__ino_8ino.html#afe461d27b9c48d5921c00d521181f12f" target="_top" xlink:title=" ">
<polygon fill="white" stroke="#666666" points="113.75,-40.75 76.75,-40.75 76.75,-20 113.75,-20 113.75,-40.75"/>
<text xml:space="preserve" text-anchor="middle" x="95.25" y="-27.25" font-family="Helvetica,sans-Serif" font-size="10.00">loop</text>
</a>
</g>
</g>
<!-- Node5&#45;&gt;Node6 -->
<g id="edge5_Node000005_Node000006" class="edge">
<title>Node5&#45;&gt;Node6</title>
<g id="a_edge5_Node000005_Node000006"><a xlink:title=" ">
<path fill="none" stroke="#63b8ff" d="M138.43,-39.27C129.7,-37.43 121.12,-35.62 114,-34.12"/>
<polygon fill="#63b8ff" stroke="#63b8ff" points="137.47,-42.64 147.98,-41.28 138.91,-35.79 137.47,-42.64"/>
</a>
</g>
</g>
<!-- Node7&#45;&gt;Node3 -->
<g id="edge7_Node000007_Node000003" class="edge">
<title>Node7&#45;&gt;Node3</title>
<g id="a_edge7_Node000007_Node000003"><a xlink:title=" ">
<path fill="none" stroke="#63b8ff" d="M140.94,-97.95C131.4,-99.97 121.88,-101.97 114.09,-103.61"/>
<polygon fill="#63b8ff" stroke="#63b8ff" points="141.5,-101.41 150.56,-95.92 140.06,-94.56 141.5,-101.41"/>
</a>
</g>
</g>
<!-- Node8&#45;&gt;Node6 -->
<g id="edge9_Node000008_Node000006" class="edge">
<title>Node8&#45;&gt;Node6</title>
<g id="a_edge9_Node000008_Node000006"><a xlink:title=" ">
<path fill="none" stroke="#63b8ff" d="M140.94,-20.46C131.4,-22.58 121.88,-24.69 114.09,-26.42"/>
<polygon fill="#63b8ff" stroke="#63b8ff" points="141.56,-23.9 150.57,-18.32 140.05,-17.07 141.56,-23.9"/>
</a>
</g>
</g>
</g>
</svg>
