<?xml version="1.0" encoding="UTF-8" standalone="no"?>
<!DOCTYPE svg PUBLIC "-//W3C//DTD SVG 1.1//EN"
 "http://www.w3.org/Graphics/SVG/1.1/DTD/svg11.dtd">
<!-- Generated by graphviz version 14.0.4 (0)
 -->
<!-- Title: digitalWrite_d Pages: 1 -->
<svg width="720pt" height="557pt"
 viewBox="0.00 0.00 720.00 557.00" xmlns="http://www.w3.org/2000/svg" xmlns:xlink="http://www.w3.org/1999/xlink">
<g id="graph0" class="graph" transform="scale(1 1) rotate(0) translate(4 552.92)">
<title>digitalWrite_d</title>
<!-- Node1 -->
<g id="Node000001" class="node">
<title>Node1</title>
<g id="a_Node000001"><a xlink:title=" ">
<polygon fill="#999999" stroke="#666666" points="711.75,-201.94 627.5,-201.94 627.5,-181.19 711.75,-181.19 711.75,-201.94"/>
<text xml:space="preserve" text-anchor="middle" x="669.62" y="-188.44" font-family="Helvetica,sans-Serif" font-size="10.00">digitalWrite_d</text>
</a>
</g>
</g>
<!-- Node2 -->
<g id="Node000002" class="node">
<title>Node2</title>
<g id="a_Node000002"><a xlink:href="carrinho_2nrf24__avr_8c.html#a5336963072afb877d785bed84eb6b5f4" target="_top" xlink:title=" ">
<polygon fill="white" stroke="#666666" points="476.88,-26.94 423.38,-26.94 423.38,-6.19 476.88,-6.19 476.88,-26.94"/>
<text xml:space="preserve" text-anchor="middle" x="450.12" y="-13.44" font-family="Helvetica,sans-Serif" font-size="10.00">ce_high</text>
</a>
</g>
</g>
<!-- Node1&#45;&gt;Node2 -->
<g id="edge1_Node000001_Node000002" class="edge">
<title>Node1&#45;&gt;Node2</title>
<g id="a_edge1_Node000001_Node000002"><a xlink:title=" ">
<path fill="none" stroke="#63b8ff" d="M651.46,-172.53C622.2,-140.96 559.73,-77.24 496.75,-36.57 490.65,-32.63 483.64,-29.12 476.97,-26.18"/>
<polygon fill="#63b8ff" stroke="#63b8ff" points="648.76,-174.76 658.09,-179.77 653.92,-170.03 648.76,-174.76"/>
</a>
</g>
</g>
<!-- Node7 -->
<g id="Node000007" class="node">
<title>Node7</title>
<g id="a_Node000007"><a xlink:href="carrinho_2nrf24__avr_8c.html#a77c5f7c57c01266d04faea3052a47f49" target="_top" xlink:title=" ">
<polygon fill="white" stroke="#666666" points="475,-338.94 425.25,-338.94 425.25,-318.19 475,-318.19 475,-338.94"/>
<text xml:space="preserve" text-anchor="middle" x="450.12" y="-325.44" font-family="Helvetica,sans-Serif" font-size="10.00">ce_low</text>
</a>
</g>
</g>
<!-- Node1&#45;&gt;Node7 -->
<g id="edge6_Node000001_Node000007" class="edge">
<title>Node1&#45;&gt;Node7</title>
<g id="a_edge6_Node000001_Node000007"><a xlink:title=" ">
<path fill="none" stroke="#63b8ff" d="M645.93,-209.02C613.85,-233.23 552.85,-277.52 496.75,-308.57 489.94,-312.34 482.28,-315.93 475.21,-319"/>
<polygon fill="#63b8ff" stroke="#63b8ff" points="647.88,-211.94 653.72,-203.11 643.64,-206.37 647.88,-211.94"/>
</a>
</g>
</g>
<!-- Node11 -->
<g id="Node000011" class="node">
<title>Node11</title>
<g id="a_Node000011"><a xlink:href="carrinho_2nrf24__avr_8c.html#adaef88bc02a8e805de3b3a82bf317549" target="_top" xlink:title=" ">
<polygon fill="white" stroke="#666666" points="591.5,-221.94 532.75,-221.94 532.75,-201.19 591.5,-201.19 591.5,-221.94"/>
<text xml:space="preserve" text-anchor="middle" x="562.12" y="-208.44" font-family="Helvetica,sans-Serif" font-size="10.00">csn_high</text>
</a>
</g>
</g>
<!-- Node1&#45;&gt;Node11 -->
<g id="edge15_Node000001_Node000011" class="edge">
<title>Node1&#45;&gt;Node11</title>
<g id="a_edge15_Node000001_Node000011"><a xlink:title=" ">
<path fill="none" stroke="#63b8ff" d="M615.92,-201.56C607.57,-203.14 599.22,-204.72 591.71,-206.15"/>
<polygon fill="#63b8ff" stroke="#63b8ff" points="616.57,-205 625.74,-199.7 615.27,-198.12 616.57,-205"/>
</a>
</g>
</g>
<!-- Node27 -->
<g id="Node000027" class="node">
<title>Node27</title>
<g id="a_Node000027"><a xlink:href="carrinho_2nrf24__avr_8c.html#a42f8c1120431b7c37e116a4e1eac1cc2" target="_top" xlink:title=" ">
<polygon fill="white" stroke="#666666" points="589.62,-182.94 534.62,-182.94 534.62,-162.19 589.62,-162.19 589.62,-182.94"/>
<text xml:space="preserve" text-anchor="middle" x="562.12" y="-169.44" font-family="Helvetica,sans-Serif" font-size="10.00">csn_low</text>
</a>
</g>
</g>
<!-- Node1&#45;&gt;Node27 -->
<g id="edge54_Node000001_Node000027" class="edge">
<title>Node1&#45;&gt;Node27</title>
<g id="a_edge54_Node000001_Node000027"><a xlink:title=" ">
<path fill="none" stroke="#63b8ff" d="M616.17,-182.12C607.03,-180.47 597.88,-178.83 589.81,-177.37"/>
<polygon fill="#63b8ff" stroke="#63b8ff" points="615.28,-185.52 625.74,-183.84 616.52,-178.63 615.28,-185.52"/>
</a>
</g>
</g>
<!-- Node3 -->
<g id="Node000003" class="node">
<title>Node3</title>
<g id="a_Node000003"><a xlink:href="carrinho_2nrf24__avr_8c.html#a71c5628e9583f6a6fd0871b3ae1bf6df" target="_top" xlink:title=" ">
<polygon fill="white" stroke="#666666" points="363.75,-202.94 250.25,-202.94 250.25,-182.19 363.75,-182.19 363.75,-202.94"/>
<text xml:space="preserve" text-anchor="middle" x="307" y="-189.44" font-family="Helvetica,sans-Serif" font-size="10.00">nrf24_startListening</text>
</a>
</g>
</g>
<!-- Node2&#45;&gt;Node3 -->
<g id="edge2_Node000002_Node000003" class="edge">
<title>Node2&#45;&gt;Node3</title>
<g id="a_edge2_Node000002_Node000003"><a xlink:title=" ">
<path fill="none" stroke="#63b8ff" d="M412.75,-29.99C409.45,-31.93 406.3,-34.12 403.5,-36.57 354.2,-79.57 322.41,-154.38 311.86,-181.96"/>
<polygon fill="#63b8ff" stroke="#63b8ff" points="414.21,-33.17 421.55,-25.53 411.05,-26.92 414.21,-33.17"/>
</a>
</g>
</g>
<!-- Node6 -->
<g id="Node000006" class="node">
<title>Node6</title>
<g id="a_Node000006"><a xlink:href="carrinho_2nrf24__avr_8c.html#a8232e1982aabc6f52408c318402cb578" target="_top" xlink:title=" ">
<polygon fill="white" stroke="#666666" points="180.5,-88.94 109,-88.94 109,-68.19 180.5,-68.19 180.5,-88.94"/>
<text xml:space="preserve" text-anchor="middle" x="144.75" y="-75.44" font-family="Helvetica,sans-Serif" font-size="10.00">nrf24_write</text>
</a>
</g>
</g>
<!-- Node2&#45;&gt;Node6 -->
<g id="edge5_Node000002_Node000006" class="edge">
<title>Node2&#45;&gt;Node6</title>
<g id="a_edge5_Node000002_Node000006"><a xlink:title=" ">
<path fill="none" stroke="#63b8ff" d="M411.98,-8.47C370.6,-1.03 302.21,6.48 246.5,-10.57 209.57,-21.86 173.96,-51.76 156.65,-67.89"/>
<polygon fill="#63b8ff" stroke="#63b8ff" points="411.19,-11.88 421.66,-10.31 412.49,-5 411.19,-11.88"/>
</a>
</g>
</g>
<!-- Node4 -->
<g id="Node000004" class="node">
<title>Node4</title>
<g id="a_Node000004"><a xlink:href="carrinho_8c.html#ae66f6b31b5ad750f1fe042a706a4e3d4" target="_top" xlink:title=" ">
<polygon fill="white" stroke="#666666" points="41.88,-336.94 1.12,-336.94 1.12,-316.19 41.88,-316.19 41.88,-336.94"/>
<text xml:space="preserve" text-anchor="middle" x="21.5" y="-323.44" font-family="Helvetica,sans-Serif" font-size="10.00">main</text>
</a>
</g>
</g>
<!-- Node3&#45;&gt;Node4 -->
<g id="edge3_Node000003_Node000004" class="edge">
<title>Node3&#45;&gt;Node4</title>
<g id="a_edge3_Node000003_Node000004"><a xlink:title=" ">
<path fill="none" stroke="#63b8ff" d="M269.21,-177.96C221.01,-161.44 135.93,-141.55 79,-180.57 32.59,-212.37 24.29,-288.2 22.82,-316.06"/>
<polygon fill="#63b8ff" stroke="#63b8ff" points="267.76,-181.16 278.35,-181.22 270.11,-174.57 267.76,-181.16"/>
</a>
</g>
</g>
<!-- Node5 -->
<g id="Node000005" class="node">
<title>Node5</title>
<g id="a_Node000005"><a xlink:href="main_8c.html#a840291bc02cba5474a4cb46a9b9566fe" target="_top" xlink:title=" ">
<polygon fill="white" stroke="#666666" points="41.88,-375.94 1.12,-375.94 1.12,-355.19 41.88,-355.19 41.88,-375.94"/>
<text xml:space="preserve" text-anchor="middle" x="21.5" y="-362.44" font-family="Helvetica,sans-Serif" font-size="10.00">main</text>
</a>
</g>
</g>
<!-- Node3&#45;&gt;Node5 -->
<g id="edge4_Node000003_Node000005" class="edge">
<title>Node3&#45;&gt;Node5</title>
<g id="a_edge4_Node000003_Node000005"><a xlink:title=" ">
<path fill="none" stroke="#63b8ff" d="M238.5,-190.58C180.44,-190.32 102.44,-193.88 79,-213.57 32.43,-252.67 73.85,-293.16 43,-345.57 40.98,-348.99 38.22,-352.23 35.38,-355.07"/>
<polygon fill="#63b8ff" stroke="#63b8ff" points="238.28,-194.08 248.31,-190.67 238.34,-187.08 238.28,-194.08"/>
</a>
</g>
</g>
<!-- Node7&#45;&gt;Node6 -->
<g id="edge14_Node000007_Node000006" class="edge">
<title>Node7&#45;&gt;Node6</title>
<g id="a_edge14_Node000007_Node000006"><a xlink:title=" ">
<path fill="none" stroke="#63b8ff" d="M414.76,-317.92C410.5,-315.41 406.58,-312.34 403.5,-308.57 355.22,-249.4 419.81,-196.2 367.5,-140.57 354.56,-126.81 239.86,-99.57 180.71,-86.26"/>
<polygon fill="#63b8ff" stroke="#63b8ff" points="413.14,-321.03 423.67,-322.15 416.14,-314.7 413.14,-321.03"/>
</a>
</g>
</g>
<!-- Node8 -->
<g id="Node000008" class="node">
<title>Node8</title>
<g id="a_Node000008"><a xlink:href="carrinho_2nrf24__avr_8c.html#ab6fb4c1aa834152310116e7dec65d8e3" target="_top" xlink:title=" ">
<polygon fill="white" stroke="#666666" points="181.62,-471.94 107.88,-471.94 107.88,-451.19 181.62,-451.19 181.62,-471.94"/>
<text xml:space="preserve" text-anchor="middle" x="144.75" y="-458.44" font-family="Helvetica,sans-Serif" font-size="10.00">nrf24_begin</text>
</a>
</g>
</g>
<!-- Node7&#45;&gt;Node8 -->
<g id="edge7_Node000007_Node000008" class="edge">
<title>Node7&#45;&gt;Node8</title>
<g id="a_edge7_Node000007_Node000008"><a xlink:title=" ">
<path fill="none" stroke="#63b8ff" d="M413.91,-335.56C371.6,-345.11 299.69,-365.12 246.5,-399.57 226.97,-412.21 229.91,-424.75 210.5,-437.57 201.9,-443.25 191.77,-447.82 182.11,-451.39"/>
<polygon fill="#63b8ff" stroke="#63b8ff" points="414.51,-339.01 423.53,-333.46 413.02,-332.17 414.51,-339.01"/>
</a>
</g>
</g>
<!-- Node10 -->
<g id="Node000010" class="node">
<title>Node10</title>
<g id="a_Node000010"><a xlink:href="carrinho_2nrf24__avr_8c.html#a33899bc3c0f4d2293f37c306d0b8e297" target="_top" xlink:title=" ">
<polygon fill="white" stroke="#666666" points="363,-280.94 251,-280.94 251,-260.19 363,-260.19 363,-280.94"/>
<text xml:space="preserve" text-anchor="middle" x="307" y="-267.44" font-family="Helvetica,sans-Serif" font-size="10.00">nrf24_stopListening</text>
</a>
</g>
</g>
<!-- Node7&#45;&gt;Node10 -->
<g id="edge11_Node000007_Node000010" class="edge">
<title>Node7&#45;&gt;Node10</title>
<g id="a_edge11_Node000007_Node000010"><a xlink:title=" ">
<path fill="none" stroke="#63b8ff" d="M414.51,-313.61C410.78,-311.94 407.05,-310.23 403.5,-308.57 387.3,-300.97 384.02,-297.43 367.5,-290.57 359.65,-287.3 351.06,-284.17 342.91,-281.4"/>
<polygon fill="#63b8ff" stroke="#63b8ff" points="412.93,-316.74 423.49,-317.59 415.76,-310.34 412.93,-316.74"/>
</a>
</g>
</g>
<!-- Node8&#45;&gt;Node4 -->
<g id="edge8_Node000008_Node000004" class="edge">
<title>Node8&#45;&gt;Node4</title>
<g id="a_edge8_Node000008_Node000004"><a xlink:title=" ">
<path fill="none" stroke="#63b8ff" d="M120.4,-443.83C107.35,-433.26 91.3,-419.1 79,-404.57 59.4,-381.41 62,-370.22 43,-346.57 40.38,-343.31 37.28,-340.04 34.29,-337.11"/>
<polygon fill="#63b8ff" stroke="#63b8ff" points="118.07,-446.45 128.08,-449.91 122.41,-440.96 118.07,-446.45"/>
</a>
</g>
</g>
<!-- Node8&#45;&gt;Node5 -->
<g id="edge9_Node000008_Node000005" class="edge">
<title>Node8&#45;&gt;Node5</title>
<g id="a_edge9_Node000008_Node000005"><a xlink:title=" ">
<path fill="none" stroke="#63b8ff" d="M121.52,-443.97C96.52,-424.17 56.7,-392.65 36,-376.25"/>
<polygon fill="#63b8ff" stroke="#63b8ff" points="119.11,-446.52 129.12,-449.99 123.46,-441.04 119.11,-446.52"/>
</a>
</g>
</g>
<!-- Node9 -->
<g id="Node000009" class="node">
<title>Node9</title>
<g id="a_Node000009"><a xlink:href="controle_8c.html#a4fc01d736fe50cf5b977f755b675f11d" target="_top" xlink:title=" ">
<polygon fill="white" stroke="#666666" points="43,-452.94 0,-452.94 0,-432.19 43,-432.19 43,-452.94"/>
<text xml:space="preserve" text-anchor="middle" x="21.5" y="-439.44" font-family="Helvetica,sans-Serif" font-size="10.00">setup</text>
</a>
</g>
</g>
<!-- Node8&#45;&gt;Node9 -->
<g id="edge10_Node000008_Node000009" class="edge">
<title>Node8&#45;&gt;Node9</title>
<g id="a_edge10_Node000008_Node000009"><a xlink:title=" ">
<path fill="none" stroke="#63b8ff" d="M96.55,-454.17C78.18,-451.29 58.07,-448.14 43.45,-445.85"/>
<polygon fill="#63b8ff" stroke="#63b8ff" points="95.78,-457.59 106.2,-455.68 96.87,-450.68 95.78,-457.59"/>
</a>
</g>
</g>
<!-- Node10&#45;&gt;Node6 -->
<g id="edge12_Node000010_Node000006" class="edge">
<title>Node10&#45;&gt;Node6</title>
<g id="a_edge12_Node000010_Node000006"><a xlink:title=" ">
<path fill="none" stroke="#63b8ff" d="M251.91,-254.46C250.03,-253.26 248.21,-251.96 246.5,-250.57 190.38,-204.94 158.74,-119.17 149.02,-89.22"/>
<polygon fill="#63b8ff" stroke="#63b8ff" points="250.05,-257.44 260.52,-259.08 253.36,-251.27 250.05,-257.44"/>
</a>
</g>
</g>
<!-- Node10&#45;&gt;Node9 -->
<g id="edge13_Node000010_Node000009" class="edge">
<title>Node10&#45;&gt;Node9</title>
<g id="a_edge13_Node000010_Node000009"><a xlink:title=" ">
<path fill="none" stroke="#63b8ff" d="M249.75,-287.58C248.62,-288.52 247.53,-289.52 246.5,-290.57 209.28,-328.48 250.02,-369.05 210.5,-404.57 185.98,-426.6 86.93,-437.28 43.3,-440.99"/>
<polygon fill="#63b8ff" stroke="#63b8ff" points="251.56,-290.58 257.98,-282.16 247.71,-284.74 251.56,-290.58"/>
</a>
</g>
</g>
<!-- Node11&#45;&gt;Node8 -->
<g id="edge16_Node000011_Node000008" class="edge">
<title>Node11&#45;&gt;Node8</title>
<g id="a_edge16_Node000011_Node000008"><a xlink:title=" ">
<path fill="none" stroke="#63b8ff" d="M556.34,-233.16C541.41,-294.28 489.23,-467.39 367.5,-518.57 317.92,-539.41 298.51,-532.26 246.5,-518.57 212.49,-509.61 177.9,-486.26 159.41,-472.39"/>
<polygon fill="#63b8ff" stroke="#63b8ff" points="559.69,-234.2 558.56,-223.67 552.87,-232.61 559.69,-234.2"/>
</a>
</g>
</g>
<!-- Node12 -->
<g id="Node000012" class="node">
<title>Node12</title>
<g id="a_Node000012"><a xlink:href="carrinho_2nrf24__avr_8c.html#a9351c150d32184a95db9ab4a802ed860" target="_top" xlink:title=" ">
<polygon fill="white" stroke="#666666" points="493,-65.94 407.25,-65.94 407.25,-45.19 493,-45.19 493,-65.94"/>
<text xml:space="preserve" text-anchor="middle" x="450.12" y="-52.44" font-family="Helvetica,sans-Serif" font-size="10.00">nrf24_flush_rx</text>
</a>
</g>
</g>
<!-- Node11&#45;&gt;Node12 -->
<g id="edge17_Node000011_Node000012" class="edge">
<title>Node11&#45;&gt;Node12</title>
<g id="a_edge17_Node000011_Node000012"><a xlink:title=" ">
<path fill="none" stroke="#63b8ff" d="M534,-193.18C533.57,-192.65 533.15,-192.12 532.75,-191.57 501,-147.91 532.72,-115.82 496.75,-75.57 493.41,-71.83 489.24,-68.75 484.79,-66.24"/>
<polygon fill="#63b8ff" stroke="#63b8ff" points="531.39,-195.53 541.07,-199.83 536.18,-190.43 531.39,-195.53"/>
</a>
</g>
</g>
<!-- Node13 -->
<g id="Node000013" class="node">
<title>Node13</title>
<g id="a_Node000013"><a xlink:href="carrinho_2nrf24__avr_8c.html#a617ab4b2604d6f482796e35da85369ad" target="_top" xlink:title=" ">
<polygon fill="white" stroke="#666666" points="493,-143.94 407.25,-143.94 407.25,-123.19 493,-123.19 493,-143.94"/>
<text xml:space="preserve" text-anchor="middle" x="450.12" y="-130.44" font-family="Helvetica,sans-Serif" font-size="10.00">nrf24_flush_tx</text>
</a>
</g>
</g>
<!-- Node11&#45;&gt;Node13 -->
<g id="edge18_Node000011_Node000013" class="edge">
<title>Node11&#45;&gt;Node13</title>
<g id="a_edge18_Node000011_Node000013"><a xlink:title=" ">
<path fill="none" stroke="#63b8ff" d="M535.64,-193.98C534.65,-193.18 533.68,-192.38 532.75,-191.57 515.16,-176.35 515.78,-166.95 496.75,-153.57 491.8,-150.08 486.14,-147.01 480.54,-144.38"/>
<polygon fill="#63b8ff" stroke="#63b8ff" points="533.5,-196.75 543.59,-199.98 537.71,-191.16 533.5,-196.75"/>
</a>
</g>
</g>
<!-- Node14 -->
<g id="Node000014" class="node">
<title>Node14</title>
<g id="a_Node000014"><a xlink:href="carrinho_2nrf24__avr_8c.html#a9a23f602a6077c795322702d0a42f48c" target="_top" xlink:title=" ">
<polygon fill="white" stroke="#666666" points="496.75,-299.94 403.5,-299.94 403.5,-279.19 496.75,-279.19 496.75,-299.94"/>
<text xml:space="preserve" text-anchor="middle" x="450.12" y="-286.44" font-family="Helvetica,sans-Serif" font-size="10.00">nrf24_getStatus</text>
</a>
</g>
</g>
<!-- Node11&#45;&gt;Node14 -->
<g id="edge20_Node000011_Node000014" class="edge">
<title>Node11&#45;&gt;Node14</title>
<g id="a_edge20_Node000011_Node000014"><a xlink:title=" ">
<path fill="none" stroke="#63b8ff" d="M543.5,-230.32C531.23,-242.61 514.04,-258.41 496.75,-269.57 491.37,-273.04 485.29,-276.17 479.36,-278.88"/>
<polygon fill="#63b8ff" stroke="#63b8ff" points="545.97,-232.8 550.43,-223.19 540.95,-227.92 545.97,-232.8"/>
</a>
</g>
</g>
<!-- Node15 -->
<g id="Node000015" class="node">
<title>Node15</title>
<g id="a_Node000015"><a xlink:href="carrinho_2nrf24__avr_8c.html#ac4a676257b5b86b05f4ea608636cb2cf" target="_top" xlink:title=" ">
<polygon fill="white" stroke="#666666" points="491.12,-260.94 409.12,-260.94 409.12,-240.19 491.12,-240.19 491.12,-260.94"/>
<text xml:space="preserve" text-anchor="middle" x="450.12" y="-247.44" font-family="Helvetica,sans-Serif" font-size="10.00">read_payload</text>
</a>
</g>
</g>
<!-- Node11&#45;&gt;Node15 -->
<g id="edge21_Node000011_Node000015" class="edge">
<title>Node11&#45;&gt;Node15</title>
<g id="a_edge21_Node000011_Node000015"><a xlink:title=" ">
<path fill="none" stroke="#63b8ff" d="M521.77,-225.52C508.53,-230.21 493.97,-235.38 481.52,-239.79"/>
<polygon fill="#63b8ff" stroke="#63b8ff" points="522.83,-228.86 531.08,-222.22 520.49,-222.26 522.83,-228.86"/>
</a>
</g>
</g>
<!-- Node18 -->
<g id="Node000018" class="node">
<title>Node18</title>
<g id="a_Node000018"><a xlink:href="carrinho_2nrf24__avr_8c.html#abefdb1d58b989853c0646a6c8b18b7d3" target="_top" xlink:title=" ">
<polygon fill="white" stroke="#666666" points="479.5,-182.94 420.75,-182.94 420.75,-162.19 479.5,-162.19 479.5,-182.94"/>
<text xml:space="preserve" text-anchor="middle" x="450.12" y="-169.44" font-family="Helvetica,sans-Serif" font-size="10.00">read_reg</text>
</a>
</g>
</g>
<!-- Node11&#45;&gt;Node18 -->
<g id="edge26_Node000011_Node000018" class="edge">
<title>Node11&#45;&gt;Node18</title>
<g id="a_edge26_Node000011_Node000018"><a xlink:title=" ">
<path fill="none" stroke="#63b8ff" d="M521.82,-197.63C508.01,-192.74 492.77,-187.33 479.98,-182.8"/>
<polygon fill="#63b8ff" stroke="#63b8ff" points="520.49,-200.87 531.08,-200.92 522.83,-194.28 520.49,-200.87"/>
</a>
</g>
</g>
<!-- Node20 -->
<g id="Node000020" class="node">
<title>Node20</title>
<g id="a_Node000020"><a xlink:href="carrinho_2nrf24__avr_8c.html#a31d6889b046799ad06c03ce52c9bb640" target="_top" xlink:title=" ">
<polygon fill="white" stroke="#666666" points="490,-221.94 410.25,-221.94 410.25,-201.19 490,-201.19 490,-221.94"/>
<text xml:space="preserve" text-anchor="middle" x="450.12" y="-208.44" font-family="Helvetica,sans-Serif" font-size="10.00">read_reg_buf</text>
</a>
</g>
</g>
<!-- Node11&#45;&gt;Node20 -->
<g id="edge33_Node000011_Node000020" class="edge">
<title>Node11&#45;&gt;Node20</title>
<g id="a_edge33_Node000011_Node000020"><a xlink:title=" ">
<path fill="none" stroke="#63b8ff" d="M521.15,-211.57C511.12,-211.57 500.36,-211.57 490.36,-211.57"/>
<polygon fill="#63b8ff" stroke="#63b8ff" points="521,-215.07 531,-211.57 521,-208.07 521,-215.07"/>
</a>
</g>
</g>
<!-- Node21 -->
<g id="Node000021" class="node">
<title>Node21</title>
<g id="a_Node000021"><a xlink:href="carrinho_2nrf24__avr_8c.html#a3c9fd94e9894bf0792d4ff5891c16436" target="_top" xlink:title=" ">
<polygon fill="white" stroke="#666666" points="492.62,-104.94 407.62,-104.94 407.62,-84.19 492.62,-84.19 492.62,-104.94"/>
<text xml:space="preserve" text-anchor="middle" x="450.12" y="-91.44" font-family="Helvetica,sans-Serif" font-size="10.00">write_payload</text>
</a>
</g>
</g>
<!-- Node11&#45;&gt;Node21 -->
<g id="edge34_Node000011_Node000021" class="edge">
<title>Node11&#45;&gt;Node21</title>
<g id="a_edge34_Node000011_Node000021"><a xlink:title=" ">
<path fill="none" stroke="#63b8ff" d="M534.43,-193.46C533.85,-192.84 533.29,-192.21 532.75,-191.57 508.5,-162.6 523.78,-140.95 496.75,-114.57 493.04,-110.94 488.56,-107.92 483.88,-105.41"/>
<polygon fill="#63b8ff" stroke="#63b8ff" points="531.86,-195.86 541.69,-199.8 536.47,-190.59 531.86,-195.86"/>
</a>
</g>
</g>
<!-- Node22 -->
<g id="Node000022" class="node">
<title>Node22</title>
<g id="a_Node000022"><a xlink:href="carrinho_2nrf24__avr_8c.html#a08bc978021db604d02a6da754f73e7e2" target="_top" xlink:title=" ">
<polygon fill="white" stroke="#666666" points="481,-377.94 419.25,-377.94 419.25,-357.19 481,-357.19 481,-377.94"/>
<text xml:space="preserve" text-anchor="middle" x="450.12" y="-364.44" font-family="Helvetica,sans-Serif" font-size="10.00">write_reg</text>
</a>
</g>
</g>
<!-- Node11&#45;&gt;Node22 -->
<g id="edge36_Node000011_Node000022" class="edge">
<title>Node11&#45;&gt;Node22</title>
<g id="a_edge36_Node000011_Node000022"><a xlink:title=" ">
<path fill="none" stroke="#63b8ff" d="M555.96,-233.35C547.94,-262.82 529.87,-315.39 496.75,-347.57 492.28,-351.91 486.72,-355.39 481.03,-358.15"/>
<polygon fill="#63b8ff" stroke="#63b8ff" points="559.33,-234.28 558.42,-223.73 552.55,-232.55 559.33,-234.28"/>
</a>
</g>
</g>
<!-- Node13&#45;&gt;Node6 -->
<g id="edge19_Node000013_Node000006" class="edge">
<title>Node13&#45;&gt;Node6</title>
<g id="a_edge19_Node000013_Node000006"><a xlink:title=" ">
<path fill="none" stroke="#63b8ff" d="M408.79,-117.37C406.95,-116.17 405.17,-114.9 403.5,-113.57 382.41,-96.68 391.61,-76.77 367.5,-64.57 304.86,-32.86 219.21,-53.31 174.92,-67.79"/>
<polygon fill="#63b8ff" stroke="#63b8ff" points="406.65,-120.18 417.08,-122.02 410.07,-114.07 406.65,-120.18"/>
</a>
</g>
</g>
<!-- Node16 -->
<g id="Node000016" class="node">
<title>Node16</title>
<g id="a_Node000016"><a xlink:href="carrinho_2nrf24__avr_8c.html#aa0767db791fc0b45ebadab011c1900bf" target="_top" xlink:title=" ">
<polygon fill="white" stroke="#666666" points="341.25,-319.94 272.75,-319.94 272.75,-299.19 341.25,-299.19 341.25,-319.94"/>
<text xml:space="preserve" text-anchor="middle" x="307" y="-306.44" font-family="Helvetica,sans-Serif" font-size="10.00">nrf24_read</text>
</a>
</g>
</g>
<!-- Node15&#45;&gt;Node16 -->
<g id="edge22_Node000015_Node000016" class="edge">
<title>Node15&#45;&gt;Node16</title>
<g id="a_edge22_Node000015_Node000016"><a xlink:title=" ">
<path fill="none" stroke="#63b8ff" d="M413.64,-265.82C410.2,-267.39 406.77,-268.99 403.5,-270.57 387.2,-278.43 384.13,-282.44 367.5,-289.57 359.29,-293.09 350.23,-296.4 341.71,-299.29"/>
<polygon fill="#63b8ff" stroke="#63b8ff" points="414.79,-269.14 422.49,-261.86 411.94,-262.75 414.79,-269.14"/>
</a>
</g>
</g>
<!-- Node16&#45;&gt;Node5 -->
<g id="edge25_Node000016_Node000005" class="edge">
<title>Node16&#45;&gt;Node5</title>
<g id="a_edge25_Node000016_Node000005"><a xlink:title=" ">
<path fill="none" stroke="#63b8ff" d="M261.33,-306.54C214.54,-304.86 139.56,-306.44 79,-327.57 62.03,-333.48 45.3,-345.77 34.5,-354.78"/>
<polygon fill="#63b8ff" stroke="#63b8ff" points="260.94,-310.03 271.09,-306.96 261.25,-303.03 260.94,-310.03"/>
</a>
</g>
</g>
<!-- Node17 -->
<g id="Node000017" class="node">
<title>Node17</title>
<g id="a_Node000017"><a xlink:href="carrinho_8c.html#afe461d27b9c48d5921c00d521181f12f" target="_top" xlink:title=" ">
<polygon fill="white" stroke="#666666" points="163.25,-242.94 126.25,-242.94 126.25,-222.19 163.25,-222.19 163.25,-242.94"/>
<text xml:space="preserve" text-anchor="middle" x="144.75" y="-229.44" font-family="Helvetica,sans-Serif" font-size="10.00">loop</text>
</a>
</g>
</g>
<!-- Node16&#45;&gt;Node17 -->
<g id="edge23_Node000016_Node000017" class="edge">
<title>Node16&#45;&gt;Node17</title>
<g id="a_edge23_Node000016_Node000017"><a xlink:title=" ">
<path fill="none" stroke="#63b8ff" d="M261.86,-295.78C256.63,-293.84 251.4,-291.75 246.5,-289.57 215.67,-275.81 181.91,-255.56 162.35,-243.27"/>
<polygon fill="#63b8ff" stroke="#63b8ff" points="260.5,-299.02 271.1,-299.05 262.84,-292.42 260.5,-299.02"/>
</a>
</g>
</g>
<!-- Node17&#45;&gt;Node4 -->
<g id="edge24_Node000017_Node000004" class="edge">
<title>Node17&#45;&gt;Node4</title>
<g id="a_edge24_Node000017_Node000004"><a xlink:title=" ">
<path fill="none" stroke="#63b8ff" d="M115.25,-239.5C103.32,-243.29 89.77,-248.82 79,-256.57 56.3,-272.89 37.72,-300.61 28.6,-315.81"/>
<polygon fill="#63b8ff" stroke="#63b8ff" points="115.94,-242.95 124.58,-236.81 114,-236.22 115.94,-242.95"/>
</a>
</g>
</g>
<!-- Node18&#45;&gt;Node3 -->
<g id="edge30_Node000018_Node000003" class="edge">
<title>Node18&#45;&gt;Node3</title>
<g id="a_edge30_Node000018_Node000003"><a xlink:title=" ">
<path fill="none" stroke="#63b8ff" d="M409.34,-178.2C395.34,-180.19 379.32,-182.46 364.22,-184.6"/>
<polygon fill="#63b8ff" stroke="#63b8ff" points="409.66,-181.69 419.07,-176.83 408.68,-174.76 409.66,-181.69"/>
</a>
</g>
</g>
<!-- Node18&#45;&gt;Node6 -->
<g id="edge32_Node000018_Node000006" class="edge">
<title>Node18&#45;&gt;Node6</title>
<g id="a_edge32_Node000018_Node000006"><a xlink:title=" ">
<path fill="none" stroke="#63b8ff" d="M410.23,-157.31C407.87,-155.85 405.6,-154.26 403.5,-152.57 382.21,-135.35 391.16,-116.35 367.5,-102.57 308.94,-68.47 226.82,-69.77 180.71,-74.01"/>
<polygon fill="#63b8ff" stroke="#63b8ff" points="408.48,-160.35 418.95,-162 411.79,-154.18 408.48,-160.35"/>
</a>
</g>
</g>
<!-- Node18&#45;&gt;Node10 -->
<g id="edge31_Node000018_Node000010" class="edge">
<title>Node18&#45;&gt;Node10</title>
<g id="a_edge31_Node000018_Node000010"><a xlink:title=" ">
<path fill="none" stroke="#63b8ff" d="M410.54,-187.36C408.05,-188.95 405.67,-190.68 403.5,-192.57 380.58,-212.44 391.28,-231.73 367.5,-250.57 362.8,-254.29 357.37,-257.33 351.75,-259.82"/>
<polygon fill="#63b8ff" stroke="#63b8ff" points="412.09,-190.51 419.21,-182.66 408.75,-184.35 412.09,-190.51"/>
</a>
</g>
</g>
<!-- Node19 -->
<g id="Node000019" class="node">
<title>Node19</title>
<g id="a_Node000019"><a xlink:href="carrinho_2nrf24__avr_8c.html#a0f64caa74329fd5799a33f30bd8ebf82" target="_top" xlink:title=" ">
<polygon fill="white" stroke="#666666" points="352.88,-241.94 261.12,-241.94 261.12,-221.19 352.88,-221.19 352.88,-241.94"/>
<text xml:space="preserve" text-anchor="middle" x="307" y="-228.44" font-family="Helvetica,sans-Serif" font-size="10.00">nrf24_available</text>
</a>
</g>
</g>
<!-- Node18&#45;&gt;Node19 -->
<g id="edge27_Node000018_Node000019" class="edge">
<title>Node18&#45;&gt;Node19</title>
<g id="a_edge27_Node000018_Node000019"><a xlink:title=" ">
<path fill="none" stroke="#63b8ff" d="M413.64,-187.82C410.2,-189.39 406.77,-190.99 403.5,-192.57 387.2,-200.43 384.13,-204.44 367.5,-211.57 359.79,-214.87 351.33,-218 343.28,-220.76"/>
<polygon fill="#63b8ff" stroke="#63b8ff" points="414.79,-191.14 422.49,-183.86 411.94,-184.75 414.79,-191.14"/>
</a>
</g>
</g>
<!-- Node19&#45;&gt;Node5 -->
<g id="edge29_Node000019_Node000005" class="edge">
<title>Node19&#45;&gt;Node5</title>
<g id="a_edge29_Node000019_Node000005"><a xlink:title=" ">
<path fill="none" stroke="#63b8ff" d="M250.1,-245.19C192.47,-259.9 107.18,-283.76 79,-302.57 58.27,-316.4 59.94,-327.29 43,-345.57 40.16,-348.63 36.98,-351.84 33.98,-354.76"/>
<polygon fill="#63b8ff" stroke="#63b8ff" points="250.93,-248.59 259.76,-242.74 249.21,-241.8 250.93,-248.59"/>
</a>
</g>
</g>
<!-- Node19&#45;&gt;Node17 -->
<g id="edge28_Node000019_Node000017" class="edge">
<title>Node19&#45;&gt;Node17</title>
<g id="a_edge28_Node000019_Node000017"><a xlink:title=" ">
<path fill="none" stroke="#63b8ff" d="M249.66,-231.92C219.52,-232.11 184.44,-232.33 163.72,-232.45"/>
<polygon fill="#63b8ff" stroke="#63b8ff" points="249.44,-235.42 259.42,-231.86 249.4,-228.42 249.44,-235.42"/>
</a>
</g>
</g>
<!-- Node21&#45;&gt;Node6 -->
<g id="edge35_Node000021_Node000006" class="edge">
<title>Node21&#45;&gt;Node6</title>
<g id="a_edge35_Node000021_Node000006"><a xlink:title=" ">
<path fill="none" stroke="#63b8ff" d="M408.8,-78.35C406.96,-77.16 405.18,-75.9 403.5,-74.57 382.6,-58 391.35,-38.49 367.5,-26.57 296.06,9.15 199.29,-43.87 161.65,-67.83"/>
<polygon fill="#63b8ff" stroke="#63b8ff" points="406.67,-81.16 417.11,-82.99 410.09,-75.05 406.67,-81.16"/>
</a>
</g>
</g>
<!-- Node22&#45;&gt;Node3 -->
<g id="edge51_Node000022_Node000003" class="edge">
<title>Node22&#45;&gt;Node3</title>
<g id="a_edge51_Node000022_Node000003"><a xlink:title=" ">
<path fill="none" stroke="#63b8ff" d="M409.68,-353.31C407.42,-351.6 405.32,-349.69 403.5,-347.57 363.06,-300.44 409.99,-257.85 367.5,-212.57 364,-208.83 359.77,-205.79 355.21,-203.32"/>
<polygon fill="#63b8ff" stroke="#63b8ff" points="407.39,-356.02 417.76,-358.2 411.01,-350.03 407.39,-356.02"/>
</a>
</g>
</g>
<!-- Node22&#45;&gt;Node6 -->
<g id="edge53_Node000022_Node000006" class="edge">
<title>Node22&#45;&gt;Node6</title>
<g id="a_edge53_Node000022_Node000006"><a xlink:title=" ">
<path fill="none" stroke="#63b8ff" d="M409.54,-353.43C407.31,-351.69 405.26,-349.74 403.5,-347.57 353.79,-286.2 420.47,-232.14 367.5,-173.57 329.69,-131.76 298.21,-158.01 246.5,-135.57 215.53,-122.12 181.82,-101.78 162.3,-89.38"/>
<polygon fill="#63b8ff" stroke="#63b8ff" points="407.2,-356.1 417.55,-358.36 410.87,-350.14 407.2,-356.1"/>
</a>
</g>
</g>
<!-- Node22&#45;&gt;Node8 -->
<g id="edge37_Node000022_Node000008" class="edge">
<title>Node22&#45;&gt;Node8</title>
<g id="a_edge37_Node000022_Node000008"><a xlink:title=" ">
<path fill="none" stroke="#63b8ff" d="M407.95,-380.33C347.74,-398.98 236.75,-433.37 180.45,-450.82"/>
<polygon fill="#63b8ff" stroke="#63b8ff" points="408.97,-383.67 417.48,-377.37 406.89,-376.99 408.97,-383.67"/>
</a>
</g>
</g>
<!-- Node22&#45;&gt;Node10 -->
<g id="edge52_Node000022_Node000010" class="edge">
<title>Node22&#45;&gt;Node10</title>
<g id="a_edge52_Node000022_Node000010"><a xlink:title=" ">
<path fill="none" stroke="#63b8ff" d="M409.48,-352.05C407.38,-350.66 405.36,-349.17 403.5,-347.57 380.78,-328.03 391.06,-309.08 367.5,-290.57 362.79,-286.86 357.35,-283.83 351.72,-281.35"/>
<polygon fill="#63b8ff" stroke="#63b8ff" points="407.39,-354.89 417.82,-356.74 410.82,-348.79 407.39,-354.89"/>
</a>
</g>
</g>
<!-- Node22&#45;&gt;Node16 -->
<g id="edge43_Node000022_Node000016" class="edge">
<title>Node22&#45;&gt;Node16</title>
<g id="a_edge43_Node000022_Node000016"><a xlink:title=" ">
<path fill="none" stroke="#63b8ff" d="M413.07,-352.45C398.88,-346.52 382.44,-339.69 367.5,-333.57 356.88,-329.22 345.18,-324.48 334.98,-320.37"/>
<polygon fill="#63b8ff" stroke="#63b8ff" points="411.45,-355.56 422.03,-356.19 414.15,-349.1 411.45,-355.56"/>
</a>
</g>
</g>
<!-- Node23 -->
<g id="Node000023" class="node">
<title>Node23</title>
<g id="a_Node000023"><a xlink:href="carrinho_2nrf24__avr_8c.html#a5af2f11537aed8a56d8489355af0ff16" target="_top" xlink:title=" ">
<polygon fill="white" stroke="#666666" points="210.5,-356.94 79,-356.94 79,-336.19 210.5,-336.19 210.5,-356.94"/>
<text xml:space="preserve" text-anchor="middle" x="144.75" y="-343.44" font-family="Helvetica,sans-Serif" font-size="10.00">nrf24_openReadingPipe</text>
</a>
</g>
</g>
<!-- Node22&#45;&gt;Node23 -->
<g id="edge38_Node000022_Node000023" class="edge">
<title>Node22&#45;&gt;Node23</title>
<g id="a_edge38_Node000022_Node000023"><a xlink:title=" ">
<path fill="none" stroke="#63b8ff" d="M407.75,-364.7C357.01,-361.19 270.41,-355.2 210.75,-351.07"/>
<polygon fill="#63b8ff" stroke="#63b8ff" points="407.2,-368.17 417.42,-365.37 407.68,-361.19 407.2,-368.17"/>
</a>
</g>
</g>
<!-- Node24 -->
<g id="Node000024" class="node">
<title>Node24</title>
<g id="a_Node000024"><a xlink:href="carrinho_2nrf24__avr_8c.html#a21d638882f746748de35324bdc21f448" target="_top" xlink:title=" ">
<polygon fill="white" stroke="#666666" points="208.25,-547.94 81.25,-547.94 81.25,-527.19 208.25,-527.19 208.25,-547.94"/>
<text xml:space="preserve" text-anchor="middle" x="144.75" y="-534.44" font-family="Helvetica,sans-Serif" font-size="10.00">nrf24_openWritingPipe</text>
</a>
</g>
</g>
<!-- Node22&#45;&gt;Node24 -->
<g id="edge41_Node000022_Node000024" class="edge">
<title>Node22&#45;&gt;Node24</title>
<g id="a_edge41_Node000022_Node000024"><a xlink:title=" ">
<path fill="none" stroke="#63b8ff" d="M444.32,-389.35C435.55,-423.39 413.44,-488.44 367.5,-518.57 320.81,-549.18 256.18,-551.29 208.73,-547.32"/>
<polygon fill="#63b8ff" stroke="#63b8ff" points="447.68,-390.34 446.61,-379.8 440.87,-388.7 447.68,-390.34"/>
</a>
</g>
</g>
<!-- Node25 -->
<g id="Node000025" class="node">
<title>Node25</title>
<g id="a_Node000025"><a xlink:href="carrinho_2nrf24__avr_8c.html#a49aa88b1042d6d62114cfbca271d9e2b" target="_top" xlink:title=" ">
<polygon fill="white" stroke="#666666" points="195.5,-395.94 94,-395.94 94,-375.19 195.5,-375.19 195.5,-395.94"/>
<text xml:space="preserve" text-anchor="middle" x="144.75" y="-382.44" font-family="Helvetica,sans-Serif" font-size="10.00">nrf24_setChannel</text>
</a>
</g>
</g>
<!-- Node22&#45;&gt;Node25 -->
<g id="edge44_Node000022_Node000025" class="edge">
<title>Node22&#45;&gt;Node25</title>
<g id="a_edge44_Node000022_Node000025"><a xlink:title=" ">
<path fill="none" stroke="#63b8ff" d="M407.49,-370.04C352.29,-373.31 254.97,-379.09 195.82,-382.6"/>
<polygon fill="#63b8ff" stroke="#63b8ff" points="407.64,-373.53 417.42,-369.45 407.23,-366.55 407.64,-373.53"/>
</a>
</g>
</g>
<!-- Node26 -->
<g id="Node000026" class="node">
<title>Node26</title>
<g id="a_Node000026"><a xlink:href="carrinho_2nrf24__avr_8c.html#aaf2900e7932ebbf7f0ecdc6bce5840e1" target="_top" xlink:title=" ">
<polygon fill="white" stroke="#666666" points="367.5,-509.94 246.5,-509.94 246.5,-489.19 367.5,-489.19 367.5,-509.94"/>
<text xml:space="preserve" text-anchor="middle" x="307" y="-496.44" font-family="Helvetica,sans-Serif" font-size="10.00">nrf24_setPayloadSize</text>
</a>
</g>
</g>
<!-- Node22&#45;&gt;Node26 -->
<g id="edge48_Node000022_Node000026" class="edge">
<title>Node22&#45;&gt;Node26</title>
<g id="a_edge48_Node000022_Node000026"><a xlink:title=" ">
<path fill="none" stroke="#63b8ff" d="M438.2,-388.1C424.54,-412.04 399.05,-451.4 367.5,-475.57 360.43,-480.98 351.96,-485.36 343.67,-488.81"/>
<polygon fill="#63b8ff" stroke="#63b8ff" points="441.12,-390.06 442.9,-379.62 434.99,-386.67 441.12,-390.06"/>
</a>
</g>
</g>
<!-- Node23&#45;&gt;Node4 -->
<g id="edge39_Node000023_Node000004" class="edge">
<title>Node23&#45;&gt;Node4</title>
<g id="a_edge39_Node000023_Node000004"><a xlink:title=" ">
<path fill="none" stroke="#63b8ff" d="M67.17,-333.94C58.04,-332.43 49.43,-331.01 42.25,-329.82"/>
<polygon fill="#63b8ff" stroke="#63b8ff" points="66.58,-337.39 77.02,-335.56 67.72,-330.48 66.58,-337.39"/>
</a>
</g>
</g>
<!-- Node23&#45;&gt;Node5 -->
<g id="edge40_Node000023_Node000005" class="edge">
<title>Node23&#45;&gt;Node5</title>
<g id="a_edge40_Node000023_Node000005"><a xlink:title=" ">
<path fill="none" stroke="#63b8ff" d="M67.17,-358.57C58.04,-360 49.43,-361.35 42.25,-362.47"/>
<polygon fill="#63b8ff" stroke="#63b8ff" points="67.68,-362.03 77.02,-357.02 66.59,-355.11 67.68,-362.03"/>
</a>
</g>
</g>
<!-- Node24&#45;&gt;Node9 -->
<g id="edge42_Node000024_Node000009" class="edge">
<title>Node24&#45;&gt;Node9</title>
<g id="a_edge42_Node000024_Node000009"><a xlink:title=" ">
<path fill="none" stroke="#63b8ff" d="M93.85,-522.29C88.62,-519.76 83.56,-516.87 79,-513.57 56.03,-496.93 37.43,-468.59 28.41,-453.23"/>
<polygon fill="#63b8ff" stroke="#63b8ff" points="92.06,-525.33 102.63,-526.11 94.85,-518.91 92.06,-525.33"/>
</a>
</g>
</g>
<!-- Node25&#45;&gt;Node4 -->
<g id="edge45_Node000025_Node000004" class="edge">
<title>Node25&#45;&gt;Node4</title>
<g id="a_edge45_Node000025_Node000004"><a xlink:title=" ">
<path fill="none" stroke="#63b8ff" d="M91.33,-370.9C87.09,-369.25 82.94,-367.48 79,-365.57 63.13,-357.86 46.73,-346.03 35.71,-337.42"/>
<polygon fill="#63b8ff" stroke="#63b8ff" points="89.9,-374.1 100.5,-374.19 92.27,-367.52 89.9,-374.1"/>
</a>
</g>
</g>
<!-- Node25&#45;&gt;Node5 -->
<g id="edge46_Node000025_Node000005" class="edge">
<title>Node25&#45;&gt;Node5</title>
<g id="a_edge46_Node000025_Node000005"><a xlink:title=" ">
<path fill="none" stroke="#63b8ff" d="M82.58,-375.48C67.92,-373.06 53.32,-370.65 42.17,-368.81"/>
<polygon fill="#63b8ff" stroke="#63b8ff" points="81.8,-378.9 92.24,-377.07 82.94,-371.99 81.8,-378.9"/>
</a>
</g>
</g>
<!-- Node25&#45;&gt;Node9 -->
<g id="edge47_Node000025_Node000009" class="edge">
<title>Node25&#45;&gt;Node9</title>
<g id="a_edge47_Node000025_Node000009"><a xlink:title=" ">
<path fill="none" stroke="#63b8ff" d="M100.76,-400.3C93.41,-403.16 85.92,-406.29 79,-409.57 65.03,-416.17 49.96,-425.07 38.9,-431.97"/>
<polygon fill="#63b8ff" stroke="#63b8ff" points="101.8,-403.65 109.93,-396.86 99.34,-397.1 101.8,-403.65"/>
</a>
</g>
</g>
<!-- Node26&#45;&gt;Node5 -->
<g id="edge49_Node000026_Node000005" class="edge">
<title>Node26&#45;&gt;Node5</title>
<g id="a_edge49_Node000026_Node000005"><a xlink:title=" ">
<path fill="none" stroke="#63b8ff" d="M234.93,-510.75C186.89,-514.46 124.21,-511.42 79,-480.57 60.26,-467.78 35.51,-402.34 26.23,-376.29"/>
<polygon fill="#63b8ff" stroke="#63b8ff" points="235.03,-514.26 244.68,-509.88 234.4,-507.29 235.03,-514.26"/>
</a>
</g>
</g>
<!-- Node26&#45;&gt;Node8 -->
<g id="edge50_Node000026_Node000008" class="edge">
<title>Node26&#45;&gt;Node8</title>
<g id="a_edge50_Node000026_Node000008"><a xlink:title=" ">
<path fill="none" stroke="#63b8ff" d="M249.41,-486.15C226.97,-480.83 201.84,-474.87 181.94,-470.15"/>
<polygon fill="#63b8ff" stroke="#63b8ff" points="248.5,-489.53 259.03,-488.43 250.11,-482.72 248.5,-489.53"/>
</a>
</g>
</g>
<!-- Node27&#45;&gt;Node12 -->
<g id="edge55_Node000027_Node000012" class="edge">
<title>Node27&#45;&gt;Node12</title>
<g id="a_edge55_Node000027_Node000012"><a xlink:title=" ">
<path fill="none" stroke="#63b8ff" d="M551.58,-151.42C540.91,-129.84 521.8,-96.62 496.75,-75.57 492.51,-72.01 487.54,-68.97 482.47,-66.43"/>
<polygon fill="#63b8ff" stroke="#63b8ff" points="548.4,-152.88 555.85,-160.42 554.72,-149.88 548.4,-152.88"/>
</a>
</g>
</g>
<!-- Node27&#45;&gt;Node13 -->
<g id="edge56_Node000027_Node000013" class="edge">
<title>Node27&#45;&gt;Node13</title>
<g id="a_edge56_Node000027_Node000013"><a xlink:title=" ">
<path fill="none" stroke="#63b8ff" d="M523.66,-159.28C509.96,-154.43 494.65,-149 481.64,-144.39"/>
<polygon fill="#63b8ff" stroke="#63b8ff" points="522.19,-162.48 532.79,-162.52 524.53,-155.88 522.19,-162.48"/>
</a>
</g>
</g>
<!-- Node27&#45;&gt;Node14 -->
<g id="edge57_Node000027_Node000014" class="edge">
<title>Node27&#45;&gt;Node14</title>
<g id="a_edge57_Node000027_Node000014"><a xlink:title=" ">
<path fill="none" stroke="#63b8ff" d="M534.43,-190.68C533.85,-191.3 533.29,-191.93 532.75,-192.57 508.5,-221.53 523.78,-243.18 496.75,-269.57 493.04,-273.19 488.56,-276.22 483.88,-278.72"/>
<polygon fill="#63b8ff" stroke="#63b8ff" points="536.47,-193.55 541.69,-184.33 531.86,-188.27 536.47,-193.55"/>
</a>
</g>
</g>
<!-- Node27&#45;&gt;Node15 -->
<g id="edge58_Node000027_Node000015" class="edge">
<title>Node27&#45;&gt;Node15</title>
<g id="a_edge58_Node000027_Node000015"><a xlink:title=" ">
<path fill="none" stroke="#63b8ff" d="M535.64,-190.15C534.65,-190.95 533.68,-191.76 532.75,-192.57 515.16,-207.79 515.78,-217.19 496.75,-230.57 491.8,-234.05 486.14,-237.12 480.54,-239.75"/>
<polygon fill="#63b8ff" stroke="#63b8ff" points="537.71,-192.97 543.59,-184.16 533.5,-187.38 537.71,-192.97"/>
</a>
</g>
</g>
<!-- Node27&#45;&gt;Node18 -->
<g id="edge59_Node000027_Node000018" class="edge">
<title>Node27&#45;&gt;Node18</title>
<g id="a_edge59_Node000027_Node000018"><a xlink:title=" ">
<path fill="none" stroke="#63b8ff" d="M522.79,-172.57C508.63,-172.57 492.83,-172.57 479.68,-172.57"/>
<polygon fill="#63b8ff" stroke="#63b8ff" points="522.7,-176.07 532.7,-172.57 522.7,-169.07 522.7,-176.07"/>
</a>
</g>
</g>
<!-- Node27&#45;&gt;Node20 -->
<g id="edge60_Node000027_Node000020" class="edge">
<title>Node27&#45;&gt;Node20</title>
<g id="a_edge60_Node000027_Node000020"><a xlink:title=" ">
<path fill="none" stroke="#63b8ff" d="M523.66,-185.85C509.96,-190.71 494.65,-196.13 481.64,-200.75"/>
<polygon fill="#63b8ff" stroke="#63b8ff" points="524.53,-189.25 532.79,-182.61 522.19,-182.66 524.53,-189.25"/>
</a>
</g>
</g>
<!-- Node27&#45;&gt;Node21 -->
<g id="edge61_Node000027_Node000021" class="edge">
<title>Node27&#45;&gt;Node21</title>
<g id="a_edge61_Node000027_Node000021"><a xlink:title=" ">
<path fill="none" stroke="#63b8ff" d="M543.5,-153.81C531.23,-141.52 514.04,-125.73 496.75,-114.57 491.37,-111.1 485.29,-107.96 479.36,-105.26"/>
<polygon fill="#63b8ff" stroke="#63b8ff" points="540.95,-156.21 550.43,-160.94 545.97,-151.33 540.95,-156.21"/>
</a>
</g>
</g>
<!-- Node27&#45;&gt;Node22 -->
<g id="edge62_Node000027_Node000022" class="edge">
<title>Node27&#45;&gt;Node22</title>
<g id="a_edge62_Node000027_Node000022"><a xlink:title=" ">
<path fill="none" stroke="#63b8ff" d="M533.67,-191.27C533.35,-191.7 533.04,-192.13 532.75,-192.57 493.25,-251.23 541.93,-293.15 496.75,-347.57 492.66,-352.49 487.12,-356.24 481.32,-359.08"/>
<polygon fill="#63b8ff" stroke="#63b8ff" points="535.96,-193.94 540.61,-184.42 531.04,-188.96 535.96,-193.94"/>
</a>
</g>
</g>
</g>
</svg>
