<?xml version="1.0" encoding="UTF-8" standalone="no"?>
<!DOCTYPE svg PUBLIC "-//W3C//DTD SVG 1.1//EN"
 "http://www.w3.org/Graphics/SVG/1.1/DTD/svg11.dtd">
<!-- Generated by graphviz version 14.0.5 (0)
 -->
<!-- Title: loop Pages: 1 -->
<svg width="526pt" height="242pt"
 viewBox="0.00 0.00 526.00 242.00" xmlns="http://www.w3.org/2000/svg" xmlns:xlink="http://www.w3.org/1999/xlink">
<g id="graph0" class="graph" transform="scale(1 1) rotate(0) translate(4 237.75)">
<title>loop</title>
<!-- Node1 -->
<g id="Node000001" class="node">
<title>Node1</title>
<g id="a_Node000001"><a xlink:title="Laço principal contendo toda a lógica do robô.">
<polygon fill="#999999" stroke="#666666" points="37,-136.75 0,-136.75 0,-116 37,-116 37,-136.75"/>
<text xml:space="preserve" text-anchor="middle" x="18.5" y="-123.25" font-family="Helvetica,sans-Serif" font-size="10.00">loop</text>
</a>
</g>
</g>
<!-- Node2 -->
<g id="Node000002" class="node">
<title>Node2</title>
<g id="a_Node000002"><a xlink:href="carrinho_8c.html#aaa87dddb1e62142fd07ee17db1b5d673" target="_top" xlink:title="Retorna o valor absoluto de um inteiro.">
<polygon fill="white" stroke="#666666" points="135.5,-233.75 102.25,-233.75 102.25,-213 135.5,-213 135.5,-233.75"/>
<text xml:space="preserve" text-anchor="middle" x="118.88" y="-220.25" font-family="Helvetica,sans-Serif" font-size="10.00">abs</text>
</a>
</g>
</g>
<!-- Node1&#45;&gt;Node2 -->
<g id="edge1_Node000001_Node000002" class="edge">
<title>Node1&#45;&gt;Node2</title>
<g id="a_edge1_Node000001_Node000002"><a xlink:title=" ">
<path fill="none" stroke="#63b8ff" d="M24.61,-137.22C32.77,-153.54 50.18,-184.48 73,-203.38 78.47,-207.9 85.13,-211.6 91.63,-214.53"/>
<polygon fill="#63b8ff" stroke="#63b8ff" points="90.18,-217.72 100.77,-218.19 92.78,-211.22 90.18,-217.72"/>
</a>
</g>
</g>
<!-- Node3 -->
<g id="Node000003" class="node">
<title>Node3</title>
<g id="a_Node000003"><a xlink:href="carrinho_8c.html#a08bebecdd1ca2d6e7ef3f68cd452ccf9" target="_top" xlink:title="Lê um canal analógico (ADC0–ADC7).">
<polygon fill="white" stroke="#666666" points="156.88,-194.75 80.88,-194.75 80.88,-174 156.88,-174 156.88,-194.75"/>
<text xml:space="preserve" text-anchor="middle" x="118.88" y="-181.25" font-family="Helvetica,sans-Serif" font-size="10.00">analog_read</text>
</a>
</g>
</g>
<!-- Node1&#45;&gt;Node3 -->
<g id="edge2_Node000001_Node000003" class="edge">
<title>Node1&#45;&gt;Node3</title>
<g id="a_edge2_Node000001_Node000003"><a xlink:title=" ">
<path fill="none" stroke="#63b8ff" d="M33.08,-137.16C43.6,-145.24 58.75,-156.25 73,-164.38 75.62,-165.87 78.37,-167.33 81.17,-168.74"/>
<polygon fill="#63b8ff" stroke="#63b8ff" points="79.44,-171.8 89.97,-172.94 82.46,-165.48 79.44,-171.8"/>
</a>
</g>
</g>
<!-- Node4 -->
<g id="Node000004" class="node">
<title>Node4</title>
<g id="a_Node000004"><a xlink:href="carrinho_8c.html#ae85c96d8ab4fe9d1b125421eaaef40e2" target="_top" xlink:title="Reduz a vida e executa a penalidade de dano.">
<polygon fill="white" stroke="#666666" points="133.28,-155.75 104.47,-155.75 104.47,-135 133.28,-135 133.28,-155.75"/>
<text xml:space="preserve" text-anchor="middle" x="118.88" y="-142.25" font-family="Helvetica,sans-Serif" font-size="10.00">hit</text>
</a>
</g>
</g>
<!-- Node1&#45;&gt;Node4 -->
<g id="edge3_Node000001_Node000004" class="edge">
<title>Node1&#45;&gt;Node4</title>
<g id="a_edge3_Node000001_Node000004"><a xlink:title=" ">
<path fill="none" stroke="#63b8ff" d="M37.09,-129.77C52.64,-132.78 75.5,-137.19 92.94,-140.56"/>
<polygon fill="#63b8ff" stroke="#63b8ff" points="92.27,-143.99 102.75,-142.45 93.6,-137.12 92.27,-143.99"/>
</a>
</g>
</g>
<!-- Node6 -->
<g id="Node000006" class="node">
<title>Node6</title>
<g id="a_Node000006"><a xlink:href="carrinho_8c.html#a83f9abde8522ce95dd4c5ce5ba3d9d39" target="_top" xlink:title="Controla um motor no sentido desejado e com PWM.">
<polygon fill="white" stroke="#666666" points="264.38,-137.75 219.12,-137.75 219.12,-117 264.38,-117 264.38,-137.75"/>
<text xml:space="preserve" text-anchor="middle" x="241.75" y="-124.25" font-family="Helvetica,sans-Serif" font-size="10.00">motor</text>
</a>
</g>
</g>
<!-- Node1&#45;&gt;Node6 -->
<g id="edge9_Node000001_Node000006" class="edge">
<title>Node1&#45;&gt;Node6</title>
<g id="a_edge9_Node000001_Node000006"><a xlink:title=" ">
<path fill="none" stroke="#63b8ff" d="M37.39,-126.3C64.8,-126.2 118.86,-126.07 164.75,-126.38 178.69,-126.47 194.07,-126.65 207.33,-126.84"/>
<polygon fill="#63b8ff" stroke="#63b8ff" points="207.24,-130.34 217.29,-126.99 207.34,-123.34 207.24,-130.34"/>
</a>
</g>
</g>
<!-- Node9 -->
<g id="Node000009" class="node">
<title>Node9</title>
<g id="a_Node000009"><a xlink:href="carrinho_2nrf24__avr_8c.html#a0f64caa74329fd5799a33f30bd8ebf82" target="_top" xlink:title=" ">
<polygon fill="white" stroke="#666666" points="164.75,-39.75 73,-39.75 73,-19 164.75,-19 164.75,-39.75"/>
<text xml:space="preserve" text-anchor="middle" x="118.88" y="-26.25" font-family="Helvetica,sans-Serif" font-size="10.00">nrf24_available</text>
</a>
</g>
</g>
<!-- Node1&#45;&gt;Node9 -->
<g id="edge10_Node000001_Node000009" class="edge">
<title>Node1&#45;&gt;Node9</title>
<g id="a_edge10_Node000001_Node000009"><a xlink:title=" ">
<path fill="none" stroke="#63b8ff" d="M24.68,-115.72C32.95,-99.69 50.49,-69.24 73,-50.38 74.93,-48.76 77,-47.24 79.16,-45.81"/>
<polygon fill="#63b8ff" stroke="#63b8ff" points="80.76,-48.93 87.7,-40.91 77.28,-42.86 80.76,-48.93"/>
</a>
</g>
</g>
<!-- Node15 -->
<g id="Node000015" class="node">
<title>Node15</title>
<g id="a_Node000015"><a xlink:href="carrinho_2nrf24__avr_8c.html#aa0767db791fc0b45ebadab011c1900bf" target="_top" xlink:title=" ">
<polygon fill="white" stroke="#666666" points="153.12,-79.75 84.62,-79.75 84.62,-59 153.12,-59 153.12,-79.75"/>
<text xml:space="preserve" text-anchor="middle" x="118.88" y="-66.25" font-family="Helvetica,sans-Serif" font-size="10.00">nrf24_read</text>
</a>
</g>
</g>
<!-- Node1&#45;&gt;Node15 -->
<g id="edge17_Node000001_Node000015" class="edge">
<title>Node1&#45;&gt;Node15</title>
<g id="a_edge17_Node000001_Node000015"><a xlink:title=" ">
<path fill="none" stroke="#63b8ff" d="M36.21,-115.7C46.68,-109.11 60.51,-100.56 73,-93.38 77.52,-90.78 82.33,-88.1 87.07,-85.53"/>
<polygon fill="#63b8ff" stroke="#63b8ff" points="88.69,-88.63 95.84,-80.82 85.38,-82.46 88.69,-88.63"/>
</a>
</g>
</g>
<!-- Node5 -->
<g id="Node000005" class="node">
<title>Node5</title>
<g id="a_Node000005"><a xlink:href="carrinho_8c.html#aca98ea6592036069ef7f48edf7f8c826" target="_top" xlink:title=" ">
<polygon fill="white" stroke="#666666" points="274.12,-176.75 209.38,-176.75 209.38,-156 274.12,-156 274.12,-176.75"/>
<text xml:space="preserve" text-anchor="middle" x="241.75" y="-163.25" font-family="Helvetica,sans-Serif" font-size="10.00">delay_sec</text>
</a>
</g>
</g>
<!-- Node4&#45;&gt;Node5 -->
<g id="edge4_Node000004_Node000005" class="edge">
<title>Node4&#45;&gt;Node5</title>
<g id="a_edge4_Node000004_Node000005"><a xlink:title=" ">
<path fill="none" stroke="#63b8ff" d="M133.74,-147.78C149.34,-150.49 175.43,-155.03 197.95,-158.94"/>
<polygon fill="#63b8ff" stroke="#63b8ff" points="197.04,-162.33 207.5,-160.6 198.24,-155.44 197.04,-162.33"/>
</a>
</g>
</g>
<!-- Node4&#45;&gt;Node6 -->
<g id="edge5_Node000004_Node000006" class="edge">
<title>Node4&#45;&gt;Node6</title>
<g id="a_edge5_Node000004_Node000006"><a xlink:title=" ">
<path fill="none" stroke="#63b8ff" d="M133.74,-143.31C151.65,-140.64 183.39,-135.92 207.67,-132.3"/>
<polygon fill="#63b8ff" stroke="#63b8ff" points="208.02,-135.79 217.4,-130.85 206.99,-128.86 208.02,-135.79"/>
</a>
</g>
</g>
<!-- Node7 -->
<g id="Node000007" class="node">
<title>Node7</title>
<g id="a_Node000007"><a xlink:href="carrinho_8c.html#ac7c0935e24e573b2929d0df7f9e6b82f" target="_top" xlink:title="Define o duty de um PWM em uma das saídas configuradas.">
<polygon fill="white" stroke="#666666" points="397.75,-137.75 318.75,-137.75 318.75,-117 397.75,-117 397.75,-137.75"/>
<text xml:space="preserve" text-anchor="middle" x="358.25" y="-124.25" font-family="Helvetica,sans-Serif" font-size="10.00">analog_write</text>
</a>
</g>
</g>
<!-- Node6&#45;&gt;Node7 -->
<g id="edge6_Node000006_Node000007" class="edge">
<title>Node6&#45;&gt;Node7</title>
<g id="a_edge6_Node000006_Node000007"><a xlink:title=" ">
<path fill="none" stroke="#63b8ff" d="M264.83,-127.38C276.94,-127.38 292.49,-127.38 307.37,-127.38"/>
<polygon fill="#63b8ff" stroke="#63b8ff" points="307.03,-130.88 317.03,-127.38 307.03,-123.88 307.03,-130.88"/>
</a>
</g>
</g>
<!-- Node8 -->
<g id="Node000008" class="node">
<title>Node8</title>
<g id="a_Node000008"><a xlink:href="carrinho__ino_8ino.html#a83f9abde8522ce95dd4c5ce5ba3d9d39" target="_top" xlink:title=" ">
<polygon fill="white" stroke="#666666" points="380.88,-176.75 335.62,-176.75 335.62,-156 380.88,-156 380.88,-176.75"/>
<text xml:space="preserve" text-anchor="middle" x="358.25" y="-163.25" font-family="Helvetica,sans-Serif" font-size="10.00">motor</text>
</a>
</g>
</g>
<!-- Node6&#45;&gt;Node8 -->
<g id="edge7_Node000006_Node000008" class="edge">
<title>Node6&#45;&gt;Node8</title>
<g id="a_edge7_Node000006_Node000008"><a xlink:title=" ">
<path fill="none" stroke="#63b8ff" d="M264.83,-134.89C281.78,-140.67 305.44,-148.73 324.58,-155.25"/>
<polygon fill="#63b8ff" stroke="#63b8ff" points="323.21,-158.48 333.81,-158.39 325.47,-151.85 323.21,-158.48"/>
</a>
</g>
</g>
<!-- Node8&#45;&gt;Node8 -->
<g id="edge8_Node000008_Node000008" class="edge">
<title>Node8&#45;&gt;Node8</title>
<g id="a_edge8_Node000008_Node000008"><a xlink:title=" ">
<path fill="none" stroke="#63b8ff" d="M339.48,-177.15C331.97,-185.81 338.23,-194.75 358.25,-194.75 368.89,-194.75 375.64,-192.23 378.51,-188.56"/>
<polygon fill="#63b8ff" stroke="#63b8ff" points="381.98,-188.11 377.22,-178.65 375.04,-189.02 381.98,-188.11"/>
</a>
</g>
</g>
<!-- Node10 -->
<g id="Node000010" class="node">
<title>Node10</title>
<g id="a_Node000010"><a xlink:href="carrinho_2nrf24__avr_8c.html#abefdb1d58b989853c0646a6c8b18b7d3" target="_top" xlink:title=" ">
<polygon fill="white" stroke="#666666" points="271.12,-20.75 212.38,-20.75 212.38,0 271.12,0 271.12,-20.75"/>
<text xml:space="preserve" text-anchor="middle" x="241.75" y="-7.25" font-family="Helvetica,sans-Serif" font-size="10.00">read_reg</text>
</a>
</g>
</g>
<!-- Node9&#45;&gt;Node10 -->
<g id="edge11_Node000009_Node000010" class="edge">
<title>Node9&#45;&gt;Node10</title>
<g id="a_edge11_Node000009_Node000010"><a xlink:title=" ">
<path fill="none" stroke="#63b8ff" d="M165.23,-22.25C176.86,-20.42 189.29,-18.46 200.64,-16.68"/>
<polygon fill="#63b8ff" stroke="#63b8ff" points="201.17,-20.14 210.5,-15.13 200.08,-13.22 201.17,-20.14"/>
</a>
</g>
</g>
<!-- Node11 -->
<g id="Node000011" class="node">
<title>Node11</title>
<g id="a_Node000011"><a xlink:href="carrinho_2nrf24__avr_8c.html#adaef88bc02a8e805de3b3a82bf317549" target="_top" xlink:title=" ">
<polygon fill="white" stroke="#666666" points="387.62,-59.75 328.88,-59.75 328.88,-39 387.62,-39 387.62,-59.75"/>
<text xml:space="preserve" text-anchor="middle" x="358.25" y="-46.25" font-family="Helvetica,sans-Serif" font-size="10.00">csn_high</text>
</a>
</g>
</g>
<!-- Node10&#45;&gt;Node11 -->
<g id="edge12_Node000010_Node000011" class="edge">
<title>Node10&#45;&gt;Node11</title>
<g id="a_edge12_Node000010_Node000011"><a xlink:title=" ">
<path fill="none" stroke="#63b8ff" d="M271.35,-20.12C285.42,-24.91 302.6,-30.76 317.89,-35.97"/>
<polygon fill="#63b8ff" stroke="#63b8ff" points="316.59,-39.22 327.19,-39.14 318.85,-32.6 316.59,-39.22"/>
</a>
</g>
</g>
<!-- Node13 -->
<g id="Node000013" class="node">
<title>Node13</title>
<g id="a_Node000013"><a xlink:href="carrinho_2nrf24__avr_8c.html#a42f8c1120431b7c37e116a4e1eac1cc2" target="_top" xlink:title=" ">
<polygon fill="white" stroke="#666666" points="385.75,-98.75 330.75,-98.75 330.75,-78 385.75,-78 385.75,-98.75"/>
<text xml:space="preserve" text-anchor="middle" x="358.25" y="-85.25" font-family="Helvetica,sans-Serif" font-size="10.00">csn_low</text>
</a>
</g>
</g>
<!-- Node10&#45;&gt;Node13 -->
<g id="edge14_Node000010_Node000013" class="edge">
<title>Node10&#45;&gt;Node13</title>
<g id="a_edge14_Node000010_Node000013"><a xlink:title=" ">
<path fill="none" stroke="#63b8ff" d="M267.66,-21.14C272.85,-23.84 278.13,-26.95 282.75,-30.38 301.44,-44.23 300.17,-54.37 318.75,-68.38 320.28,-69.53 321.89,-70.65 323.54,-71.73"/>
<polygon fill="#63b8ff" stroke="#63b8ff" points="321.6,-74.65 331.99,-76.74 325.17,-68.63 321.6,-74.65"/>
</a>
</g>
</g>
<!-- Node14 -->
<g id="Node000014" class="node">
<title>Node14</title>
<g id="a_Node000014"><a xlink:href="carrinho_2nrf24__avr_8c.html#a8d161d483c095113df5b69798e9cd725" target="_top" xlink:title=" ">
<polygon fill="white" stroke="#666666" points="395.12,-20.75 321.38,-20.75 321.38,0 395.12,0 395.12,-20.75"/>
<text xml:space="preserve" text-anchor="middle" x="358.25" y="-7.25" font-family="Helvetica,sans-Serif" font-size="10.00">spi_transfer</text>
</a>
</g>
</g>
<!-- Node10&#45;&gt;Node14 -->
<g id="edge16_Node000010_Node000014" class="edge">
<title>Node10&#45;&gt;Node14</title>
<g id="a_edge16_Node000010_Node000014"><a xlink:title=" ">
<path fill="none" stroke="#63b8ff" d="M271.35,-10.38C283.03,-10.38 296.85,-10.38 309.96,-10.38"/>
<polygon fill="#63b8ff" stroke="#63b8ff" points="309.71,-13.88 319.71,-10.38 309.71,-6.88 309.71,-13.88"/>
</a>
</g>
</g>
<!-- Node12 -->
<g id="Node000012" class="node">
<title>Node12</title>
<g id="a_Node000012"><a xlink:href="carrinho_2nrf24__avr_8c.html#a019970fc17b6b18fa4e45e0baf22c93f" target="_top" xlink:title=" ">
<polygon fill="white" stroke="#666666" points="518,-78.75 433.75,-78.75 433.75,-58 518,-58 518,-78.75"/>
<text xml:space="preserve" text-anchor="middle" x="475.88" y="-65.25" font-family="Helvetica,sans-Serif" font-size="10.00">digitalWrite_d</text>
</a>
</g>
</g>
<!-- Node11&#45;&gt;Node12 -->
<g id="edge13_Node000011_Node000012" class="edge">
<title>Node11&#45;&gt;Node12</title>
<g id="a_edge13_Node000011_Node000012"><a xlink:title=" ">
<path fill="none" stroke="#63b8ff" d="M387.83,-54.07C398.27,-55.79 410.44,-57.79 422.31,-59.74"/>
<polygon fill="#63b8ff" stroke="#63b8ff" points="421.6,-63.17 432.03,-61.34 422.73,-56.26 421.6,-63.17"/>
</a>
</g>
</g>
<!-- Node13&#45;&gt;Node12 -->
<g id="edge15_Node000013_Node000012" class="edge">
<title>Node13&#45;&gt;Node12</title>
<g id="a_edge15_Node000013_Node000012"><a xlink:title=" ">
<path fill="none" stroke="#63b8ff" d="M386.07,-83.74C396.79,-81.88 409.54,-79.68 421.98,-77.52"/>
<polygon fill="#63b8ff" stroke="#63b8ff" points="422.51,-80.99 431.76,-75.83 421.31,-74.09 422.51,-80.99"/>
</a>
</g>
</g>
<!-- Node16 -->
<g id="Node000016" class="node">
<title>Node16</title>
<g id="a_Node000016"><a xlink:href="carrinho_2nrf24__avr_8c.html#ac4a676257b5b86b05f4ea608636cb2cf" target="_top" xlink:title=" ">
<polygon fill="white" stroke="#666666" points="282.75,-59.75 200.75,-59.75 200.75,-39 282.75,-39 282.75,-59.75"/>
<text xml:space="preserve" text-anchor="middle" x="241.75" y="-46.25" font-family="Helvetica,sans-Serif" font-size="10.00">read_payload</text>
</a>
</g>
</g>
<!-- Node15&#45;&gt;Node16 -->
<g id="edge18_Node000015_Node000016" class="edge">
<title>Node15&#45;&gt;Node16</title>
<g id="a_edge18_Node000015_Node000016"><a xlink:title=" ">
<path fill="none" stroke="#63b8ff" d="M153.55,-63.8C164.56,-61.98 177.05,-59.91 189.08,-57.92"/>
<polygon fill="#63b8ff" stroke="#63b8ff" points="189.61,-61.38 198.9,-56.3 188.46,-54.48 189.61,-61.38"/>
</a>
</g>
</g>
<!-- Node17 -->
<g id="Node000017" class="node">
<title>Node17</title>
<g id="a_Node000017"><a xlink:href="carrinho_2nrf24__avr_8c.html#a08bc978021db604d02a6da754f73e7e2" target="_top" xlink:title=" ">
<polygon fill="white" stroke="#666666" points="272.62,-98.75 210.88,-98.75 210.88,-78 272.62,-78 272.62,-98.75"/>
<text xml:space="preserve" text-anchor="middle" x="241.75" y="-85.25" font-family="Helvetica,sans-Serif" font-size="10.00">write_reg</text>
</a>
</g>
</g>
<!-- Node15&#45;&gt;Node17 -->
<g id="edge22_Node000015_Node000017" class="edge">
<title>Node15&#45;&gt;Node17</title>
<g id="a_edge22_Node000015_Node000017"><a xlink:title=" ">
<path fill="none" stroke="#63b8ff" d="M153.55,-74.67C167.8,-76.91 184.53,-79.54 199.52,-81.89"/>
<polygon fill="#63b8ff" stroke="#63b8ff" points="198.64,-85.3 209.06,-83.39 199.73,-78.38 198.64,-85.3"/>
</a>
</g>
</g>
<!-- Node16&#45;&gt;Node11 -->
<g id="edge19_Node000016_Node000011" class="edge">
<title>Node16&#45;&gt;Node11</title>
<g id="a_edge19_Node000016_Node000011"><a xlink:title=" ">
<path fill="none" stroke="#63b8ff" d="M283.12,-49.38C294.09,-49.38 305.97,-49.38 316.93,-49.38"/>
<polygon fill="#63b8ff" stroke="#63b8ff" points="316.88,-52.88 326.88,-49.38 316.88,-45.88 316.88,-52.88"/>
</a>
</g>
</g>
<!-- Node16&#45;&gt;Node13 -->
<g id="edge20_Node000016_Node000013" class="edge">
<title>Node16&#45;&gt;Node13</title>
<g id="a_edge20_Node000016_Node000013"><a xlink:title=" ">
<path fill="none" stroke="#63b8ff" d="M274.64,-60.24C288.67,-65.02 305.24,-70.66 319.85,-75.63"/>
<polygon fill="#63b8ff" stroke="#63b8ff" points="318.53,-78.88 329.12,-78.79 320.79,-72.26 318.53,-78.88"/>
</a>
</g>
</g>
<!-- Node16&#45;&gt;Node14 -->
<g id="edge21_Node000016_Node000014" class="edge">
<title>Node16&#45;&gt;Node14</title>
<g id="a_edge21_Node000016_Node000014"><a xlink:title=" ">
<path fill="none" stroke="#63b8ff" d="M274.64,-38.51C287.05,-34.29 301.45,-29.38 314.72,-24.86"/>
<polygon fill="#63b8ff" stroke="#63b8ff" points="315.76,-28.21 324.09,-21.67 313.5,-21.58 315.76,-28.21"/>
</a>
</g>
</g>
<!-- Node17&#45;&gt;Node11 -->
<g id="edge23_Node000017_Node000011" class="edge">
<title>Node17&#45;&gt;Node11</title>
<g id="a_edge23_Node000017_Node000011"><a xlink:title=" ">
<path fill="none" stroke="#63b8ff" d="M272.83,-78.13C286.56,-73.45 303,-67.85 317.71,-62.84"/>
<polygon fill="#63b8ff" stroke="#63b8ff" points="318.78,-66.18 327.12,-59.64 316.52,-59.55 318.78,-66.18"/>
</a>
</g>
</g>
<!-- Node17&#45;&gt;Node13 -->
<g id="edge24_Node000017_Node000013" class="edge">
<title>Node17&#45;&gt;Node13</title>
<g id="a_edge24_Node000017_Node000013"><a xlink:title=" ">
<path fill="none" stroke="#63b8ff" d="M272.83,-88.38C287.09,-88.38 304.27,-88.38 319.4,-88.38"/>
<polygon fill="#63b8ff" stroke="#63b8ff" points="318.98,-91.88 328.98,-88.38 318.98,-84.88 318.98,-91.88"/>
</a>
</g>
</g>
<!-- Node17&#45;&gt;Node14 -->
<g id="edge25_Node000017_Node000014" class="edge">
<title>Node17&#45;&gt;Node14</title>
<g id="a_edge25_Node000017_Node000014"><a xlink:title=" ">
<path fill="none" stroke="#63b8ff" d="M267.66,-77.61C272.85,-74.91 278.13,-71.8 282.75,-68.38 301.44,-54.52 300.17,-44.38 318.75,-30.38 320.28,-29.22 321.89,-28.1 323.54,-27.02"/>
<polygon fill="#63b8ff" stroke="#63b8ff" points="325.17,-30.12 331.99,-22.01 321.6,-24.1 325.17,-30.12"/>
</a>
</g>
</g>
</g>
</svg>
