<?xml version="1.0" encoding="UTF-8" standalone="no"?>
<!DOCTYPE svg PUBLIC "-//W3C//DTD SVG 1.1//EN"
 "http://www.w3.org/Graphics/SVG/1.1/DTD/svg11.dtd">
<!-- Generated by graphviz version 14.0.4 (0)
 -->
<!-- Title: read_reg Pages: 1 -->
<svg width="477pt" height="182pt"
 viewBox="0.00 0.00 477.00 182.00" xmlns="http://www.w3.org/2000/svg" xmlns:xlink="http://www.w3.org/1999/xlink">

<svg id="main" version="1.1" xmlns="http://www.w3.org/2000/svg" xmlns:xlink="http://www.w3.org/1999/xlink" xml:space="preserve">

<style type="text/css"><![CDATA[
.node, .edge {opacity: 0.7;}
.node.selected, .edge.selected {opacity: 1;}
.edge:hover path { stroke: red; }
.edge:hover polygon { stroke: red; fill: red; }
]]></style>
<script type="application/ecmascript" xlink:href="svg.min.js"/>
<svg id="graph" class="graph">
<g id="graph0" class="graph" transform="scale(1 1) rotate(0) translate(4 177.75)">
<title>read_reg</title>
<!-- Node1 -->
<g id="Node000001" class="node">
<title>Node1</title>
<g id="a_Node000001"><a xlink:title=" ">
<polygon fill="#999999" stroke="#666666" points="469.25,-77.75 410.5,-77.75 410.5,-57 469.25,-57 469.25,-77.75"/>
<text xml:space="preserve" text-anchor="middle" x="439.88" y="-64.25" font-family="Helvetica,sans-Serif" font-size="10.00">read_reg</text>
</a>
</g>
</g>
<!-- Node2 -->
<g id="Node000002" class="node">
<title>Node2</title>
<g id="a_Node000002"><a xlink:href="carrinho_2nrf24__avr_8c.html#a0f64caa74329fd5799a33f30bd8ebf82" target="_top" xlink:title=" ">
<polygon fill="white" stroke="#666666" points="363.62,-136.75 271.88,-136.75 271.88,-116 363.62,-116 363.62,-136.75"/>
<text xml:space="preserve" text-anchor="middle" x="317.75" y="-123.25" font-family="Helvetica,sans-Serif" font-size="10.00">nrf24_available</text>
</a>
</g>
</g>
<!-- Node1&#45;&gt;Node2 -->
<g id="edge1_Node000001_Node000002" class="edge">
<title>Node1&#45;&gt;Node2</title>
<g id="a_edge1_Node000001_Node000002"><a xlink:title=" ">
<path fill="none" stroke="#63b8ff" d="M413.51,-84.36C401.92,-91.69 387.82,-100.03 374.5,-106.38 367.44,-109.74 359.66,-112.86 352.21,-115.6"/>
<polygon fill="#63b8ff" stroke="#63b8ff" points="415.2,-87.43 421.7,-79.07 411.4,-81.55 415.2,-87.43"/>
</a>
</g>
</g>
<!-- Node6 -->
<g id="Node000006" class="node">
<title>Node6</title>
<g id="a_Node000006"><a xlink:href="carrinho_2nrf24__avr_8c.html#a71c5628e9583f6a6fd0871b3ae1bf6df" target="_top" xlink:title=" ">
<polygon fill="white" stroke="#666666" points="374.5,-97.75 261,-97.75 261,-77 374.5,-77 374.5,-97.75"/>
<text xml:space="preserve" text-anchor="middle" x="317.75" y="-84.25" font-family="Helvetica,sans-Serif" font-size="10.00">nrf24_startListening</text>
</a>
</g>
</g>
<!-- Node1&#45;&gt;Node6 -->
<g id="edge5_Node000001_Node000006" class="edge">
<title>Node1&#45;&gt;Node6</title>
<g id="a_edge5_Node000001_Node000006"><a xlink:title=" ">
<path fill="none" stroke="#63b8ff" d="M398.79,-74.05C391.03,-75.34 382.76,-76.72 374.6,-78.08"/>
<polygon fill="#63b8ff" stroke="#63b8ff" points="399.32,-77.51 408.61,-72.41 398.17,-70.6 399.32,-77.51"/>
</a>
</g>
</g>
<!-- Node7 -->
<g id="Node000007" class="node">
<title>Node7</title>
<g id="a_Node000007"><a xlink:href="carrinho_2nrf24__avr_8c.html#a33899bc3c0f4d2293f37c306d0b8e297" target="_top" xlink:title=" ">
<polygon fill="white" stroke="#666666" points="373.75,-58.75 261.75,-58.75 261.75,-38 373.75,-38 373.75,-58.75"/>
<text xml:space="preserve" text-anchor="middle" x="317.75" y="-45.25" font-family="Helvetica,sans-Serif" font-size="10.00">nrf24_stopListening</text>
</a>
</g>
</g>
<!-- Node1&#45;&gt;Node7 -->
<g id="edge8_Node000001_Node000007" class="edge">
<title>Node1&#45;&gt;Node7</title>
<g id="a_edge8_Node000001_Node000007"><a xlink:title=" ">
<path fill="none" stroke="#63b8ff" d="M398.91,-61.05C390.96,-59.8 382.48,-58.46 374.12,-57.13"/>
<polygon fill="#63b8ff" stroke="#63b8ff" points="398.18,-64.48 408.61,-62.59 399.28,-57.57 398.18,-64.48"/>
</a>
</g>
</g>
<!-- Node9 -->
<g id="Node000009" class="node">
<title>Node9</title>
<g id="a_Node000009"><a xlink:href="carrinho_2nrf24__avr_8c.html#a8232e1982aabc6f52408c318402cb578" target="_top" xlink:title=" ">
<polygon fill="white" stroke="#666666" points="225,-20.75 153.5,-20.75 153.5,0 225,0 225,-20.75"/>
<text xml:space="preserve" text-anchor="middle" x="189.25" y="-7.25" font-family="Helvetica,sans-Serif" font-size="10.00">nrf24_write</text>
</a>
</g>
</g>
<!-- Node1&#45;&gt;Node9 -->
<g id="edge13_Node000001_Node000009" class="edge">
<title>Node1&#45;&gt;Node9</title>
<g id="a_edge13_Node000001_Node000009"><a xlink:title=" ">
<path fill="none" stroke="#63b8ff" d="M415.24,-50.09C403.56,-42.44 388.9,-34.11 374.5,-29.38 324.56,-12.94 263.25,-9.74 225.47,-9.59"/>
<polygon fill="#63b8ff" stroke="#63b8ff" points="413.18,-52.92 423.41,-55.68 417.14,-47.14 413.18,-52.92"/>
</a>
</g>
</g>
<!-- Node3 -->
<g id="Node000003" class="node">
<title>Node3</title>
<g id="a_Node000003"><a xlink:href="carrinho_8c.html#afe461d27b9c48d5921c00d521181f12f" target="_top" xlink:title=" ">
<polygon fill="white" stroke="#666666" points="207.75,-173.75 170.75,-173.75 170.75,-153 207.75,-153 207.75,-173.75"/>
<text xml:space="preserve" text-anchor="middle" x="189.25" y="-160.25" font-family="Helvetica,sans-Serif" font-size="10.00">loop</text>
</a>
</g>
</g>
<!-- Node2&#45;&gt;Node3 -->
<g id="edge2_Node000002_Node000003" class="edge">
<title>Node2&#45;&gt;Node3</title>
<g id="a_edge2_Node000002_Node000003"><a xlink:title=" ">
<path fill="none" stroke="#63b8ff" d="M268.96,-140.35C247.65,-146.59 223.85,-153.55 208.05,-158.17"/>
<polygon fill="#63b8ff" stroke="#63b8ff" points="269.75,-143.77 278.37,-137.6 267.79,-137.05 269.75,-143.77"/>
</a>
</g>
</g>
<!-- Node5 -->
<g id="Node000005" class="node">
<title>Node5</title>
<g id="a_Node000005"><a xlink:href="main_8c.html#a840291bc02cba5474a4cb46a9b9566fe" target="_top" xlink:title=" ">
<polygon fill="white" stroke="#666666" points="209.62,-134.75 168.88,-134.75 168.88,-114 209.62,-114 209.62,-134.75"/>
<text xml:space="preserve" text-anchor="middle" x="189.25" y="-121.25" font-family="Helvetica,sans-Serif" font-size="10.00">main</text>
</a>
</g>
</g>
<!-- Node2&#45;&gt;Node5 -->
<g id="edge4_Node000002_Node000005" class="edge">
<title>Node2&#45;&gt;Node5</title>
<g id="a_edge4_Node000002_Node000005"><a xlink:title=" ">
<path fill="none" stroke="#63b8ff" d="M260.08,-125.48C242.1,-125.19 223.39,-124.9 209.87,-124.69"/>
<polygon fill="#63b8ff" stroke="#63b8ff" points="259.87,-128.98 269.92,-125.63 259.98,-121.98 259.87,-128.98"/>
</a>
</g>
</g>
<!-- Node4 -->
<g id="Node000004" class="node">
<title>Node4</title>
<g id="a_Node000004"><a xlink:href="carrinho_8c.html#ae66f6b31b5ad750f1fe042a706a4e3d4" target="_top" xlink:title=" ">
<polygon fill="white" stroke="#666666" points="117.5,-134.75 76.75,-134.75 76.75,-114 117.5,-114 117.5,-134.75"/>
<text xml:space="preserve" text-anchor="middle" x="97.12" y="-121.25" font-family="Helvetica,sans-Serif" font-size="10.00">main</text>
</a>
</g>
</g>
<!-- Node3&#45;&gt;Node4 -->
<g id="edge3_Node000003_Node000004" class="edge">
<title>Node3&#45;&gt;Node4</title>
<g id="a_edge3_Node000003_Node000004"><a xlink:title=" ">
<path fill="none" stroke="#63b8ff" d="M160.07,-151.18C146.34,-145.24 130.15,-138.23 117.77,-132.88"/>
<polygon fill="#63b8ff" stroke="#63b8ff" points="158.49,-154.31 169.06,-155.07 161.27,-147.89 158.49,-154.31"/>
</a>
</g>
</g>
<!-- Node6&#45;&gt;Node4 -->
<g id="edge6_Node000006_Node000004" class="edge">
<title>Node6&#45;&gt;Node4</title>
<g id="a_edge6_Node000006_Node000004"><a xlink:title=" ">
<path fill="none" stroke="#63b8ff" d="M249.62,-91.42C219.91,-94.07 184.71,-98.39 153.5,-105.38 141.4,-108.08 128.26,-112.53 117.81,-116.43"/>
<polygon fill="#63b8ff" stroke="#63b8ff" points="249.53,-94.94 259.2,-90.61 248.95,-87.97 249.53,-94.94"/>
</a>
</g>
</g>
<!-- Node6&#45;&gt;Node5 -->
<g id="edge7_Node000006_Node000005" class="edge">
<title>Node6&#45;&gt;Node5</title>
<g id="a_edge7_Node000006_Node000005"><a xlink:title=" ">
<path fill="none" stroke="#63b8ff" d="M269.02,-101.34C248.47,-107.35 225.58,-114.04 209.8,-118.66"/>
<polygon fill="#63b8ff" stroke="#63b8ff" points="269.75,-104.77 278.37,-98.6 267.79,-98.05 269.75,-104.77"/>
</a>
</g>
</g>
<!-- Node8 -->
<g id="Node000008" class="node">
<title>Node8</title>
<g id="a_Node000008"><a xlink:href="controle_8c.html#ae66f6b31b5ad750f1fe042a706a4e3d4" target="_top" xlink:title=" ">
<polygon fill="white" stroke="#666666" points="40.75,-39.75 0,-39.75 0,-19 40.75,-19 40.75,-39.75"/>
<text xml:space="preserve" text-anchor="middle" x="20.38" y="-26.25" font-family="Helvetica,sans-Serif" font-size="10.00">main</text>
</a>
</g>
</g>
<!-- Node7&#45;&gt;Node8 -->
<g id="edge9_Node000007_Node000008" class="edge">
<title>Node7&#45;&gt;Node8</title>
<g id="a_edge9_Node000007_Node000008"><a xlink:title=" ">
<path fill="none" stroke="#63b8ff" d="M250.22,-44.1C183.02,-39.77 83.3,-33.36 41.24,-30.65"/>
<polygon fill="#63b8ff" stroke="#63b8ff" points="249.82,-47.58 260.03,-44.73 250.27,-40.59 249.82,-47.58"/>
</a>
</g>
</g>
<!-- Node7&#45;&gt;Node9 -->
<g id="edge10_Node000007_Node000009" class="edge">
<title>Node7&#45;&gt;Node9</title>
<g id="a_edge10_Node000007_Node000009"><a xlink:title=" ">
<path fill="none" stroke="#63b8ff" d="M269.88,-34.3C255.15,-29.87 239.15,-25.06 225.38,-20.93"/>
<polygon fill="#63b8ff" stroke="#63b8ff" points="268.8,-37.63 279.39,-37.15 270.82,-30.92 268.8,-37.63"/>
</a>
</g>
</g>
<!-- Node10 -->
<g id="Node000010" class="node">
<title>Node10</title>
<g id="a_Node000010"><a xlink:href="controle_8c.html#afe461d27b9c48d5921c00d521181f12f" target="_top" xlink:title=" ">
<polygon fill="white" stroke="#666666" points="115.62,-20.75 78.62,-20.75 78.62,0 115.62,0 115.62,-20.75"/>
<text xml:space="preserve" text-anchor="middle" x="97.12" y="-7.25" font-family="Helvetica,sans-Serif" font-size="10.00">loop</text>
</a>
</g>
</g>
<!-- Node9&#45;&gt;Node10 -->
<g id="edge11_Node000009_Node000010" class="edge">
<title>Node9&#45;&gt;Node10</title>
<g id="a_edge11_Node000009_Node000010"><a xlink:title=" ">
<path fill="none" stroke="#63b8ff" d="M141.83,-10.38C132.49,-10.38 123.23,-10.38 115.65,-10.38"/>
<polygon fill="#63b8ff" stroke="#63b8ff" points="141.63,-13.88 151.63,-10.38 141.63,-6.88 141.63,-13.88"/>
</a>
</g>
</g>
<!-- Node10&#45;&gt;Node8 -->
<g id="edge12_Node000010_Node000008" class="edge">
<title>Node10&#45;&gt;Node8</title>
<g id="a_edge12_Node000010_Node000008"><a xlink:title=" ">
<path fill="none" stroke="#63b8ff" d="M67.41,-17.67C58.6,-19.91 49.12,-22.32 41.07,-24.37"/>
<polygon fill="#63b8ff" stroke="#63b8ff" points="68.11,-21.11 76.94,-15.25 66.39,-14.32 68.11,-21.11"/>
</a>
</g>
</g>
</g>
</svg>
</svg>

<style type='text/css'>
<![CDATA[
[data-mouse-over-selected='false'] { opacity: 0.7; }
[data-mouse-over-selected='true']  { opacity: 1.0; }
]]>
</style>
<script type="application/ecmascript"><![CDATA[
document.addEventListener('DOMContentLoaded', (event) => {
  highlightEdges();
  highlightAdjacentNodes();
});
]]></script>
</svg>
