<?xml version="1.0" encoding="UTF-8" standalone="no"?>
<!DOCTYPE svg PUBLIC "-//W3C//DTD SVG 1.1//EN"
 "http://www.w3.org/Graphics/SVG/1.1/DTD/svg11.dtd">
<!-- Generated by graphviz version 14.0.4 (0)
 -->
<!-- Title: spi_transfer Pages: 1 -->
<svg width="621pt" height="518pt"
 viewBox="0.00 0.00 621.00 518.00" xmlns="http://www.w3.org/2000/svg" xmlns:xlink="http://www.w3.org/1999/xlink">
<g id="graph0" class="graph" transform="scale(1 1) rotate(0) translate(4 514.4)">
<title>spi_transfer</title>
<!-- Node1 -->
<g id="Node000001" class="node">
<title>Node1</title>
<g id="a_Node000001"><a xlink:title=" ">
<polygon fill="#999999" stroke="#666666" points="612.5,-218.11 538.75,-218.11 538.75,-197.36 612.5,-197.36 612.5,-218.11"/>
<text xml:space="preserve" text-anchor="middle" x="575.62" y="-204.61" font-family="Helvetica,sans-Serif" font-size="10.00">spi_transfer</text>
</a>
</g>
</g>
<!-- Node2 -->
<g id="Node000002" class="node">
<title>Node2</title>
<g id="a_Node000002"><a xlink:href="carrinho_2nrf24__avr_8c.html#a9351c150d32184a95db9ab4a802ed860" target="_top" xlink:title=" ">
<polygon fill="white" stroke="#666666" points="499,-373.11 413.25,-373.11 413.25,-352.36 499,-352.36 499,-373.11"/>
<text xml:space="preserve" text-anchor="middle" x="456.12" y="-359.61" font-family="Helvetica,sans-Serif" font-size="10.00">nrf24_flush_rx</text>
</a>
</g>
</g>
<!-- Node1&#45;&gt;Node2 -->
<g id="edge1_Node000001_Node000002" class="edge">
<title>Node1&#45;&gt;Node2</title>
<g id="a_edge1_Node000001_Node000002"><a xlink:title=" ">
<path fill="none" stroke="#63b8ff" d="M568.25,-228.98C558.51,-258.17 537.33,-310.7 502.75,-342.74 498.82,-346.38 494.11,-349.43 489.24,-351.97"/>
<polygon fill="#63b8ff" stroke="#63b8ff" points="571.48,-230.39 571.17,-219.8 564.81,-228.27 571.48,-230.39"/>
</a>
</g>
</g>
<!-- Node3 -->
<g id="Node000003" class="node">
<title>Node3</title>
<g id="a_Node000003"><a xlink:href="carrinho_2nrf24__avr_8c.html#a617ab4b2604d6f482796e35da85369ad" target="_top" xlink:title=" ">
<polygon fill="white" stroke="#666666" points="352.88,-38.11 267.12,-38.11 267.12,-17.36 352.88,-17.36 352.88,-38.11"/>
<text xml:space="preserve" text-anchor="middle" x="310" y="-24.61" font-family="Helvetica,sans-Serif" font-size="10.00">nrf24_flush_tx</text>
</a>
</g>
</g>
<!-- Node1&#45;&gt;Node3 -->
<g id="edge2_Node000001_Node000003" class="edge">
<title>Node1&#45;&gt;Node3</title>
<g id="a_edge2_Node000001_Node000003"><a xlink:title=" ">
<path fill="none" stroke="#63b8ff" d="M558.92,-188.14C545.16,-171.68 524.07,-148.13 502.75,-130.74 450.58,-88.18 433.9,-81.48 373.5,-51.74 363.7,-46.91 352.67,-42.39 342.63,-38.61"/>
<polygon fill="#63b8ff" stroke="#63b8ff" points="556.11,-190.23 565.17,-195.74 561.52,-185.79 556.11,-190.23"/>
</a>
</g>
</g>
<!-- Node5 -->
<g id="Node000005" class="node">
<title>Node5</title>
<g id="a_Node000005"><a xlink:href="carrinho_2nrf24__avr_8c.html#a9a23f602a6077c795322702d0a42f48c" target="_top" xlink:title=" ">
<polygon fill="white" stroke="#666666" points="502.75,-295.11 409.5,-295.11 409.5,-274.36 502.75,-274.36 502.75,-295.11"/>
<text xml:space="preserve" text-anchor="middle" x="456.12" y="-281.61" font-family="Helvetica,sans-Serif" font-size="10.00">nrf24_getStatus</text>
</a>
</g>
</g>
<!-- Node1&#45;&gt;Node5 -->
<g id="edge4_Node000001_Node000005" class="edge">
<title>Node1&#45;&gt;Node5</title>
<g id="a_edge4_Node000001_Node000005"><a xlink:title=" ">
<path fill="none" stroke="#63b8ff" d="M554.84,-225.73C540.94,-237.77 521.55,-253.42 502.75,-264.74 497.12,-268.13 490.81,-271.27 484.72,-274.01"/>
<polygon fill="#63b8ff" stroke="#63b8ff" points="556.8,-228.67 561.98,-219.42 552.16,-223.42 556.8,-228.67"/>
</a>
</g>
</g>
<!-- Node6 -->
<g id="Node000006" class="node">
<title>Node6</title>
<g id="a_Node000006"><a xlink:href="carrinho_2nrf24__avr_8c.html#ac4a676257b5b86b05f4ea608636cb2cf" target="_top" xlink:title=" ">
<polygon fill="white" stroke="#666666" points="497.12,-334.11 415.12,-334.11 415.12,-313.36 497.12,-313.36 497.12,-334.11"/>
<text xml:space="preserve" text-anchor="middle" x="456.12" y="-320.61" font-family="Helvetica,sans-Serif" font-size="10.00">read_payload</text>
</a>
</g>
</g>
<!-- Node1&#45;&gt;Node6 -->
<g id="edge5_Node000001_Node000006" class="edge">
<title>Node1&#45;&gt;Node6</title>
<g id="a_edge5_Node000001_Node000006"><a xlink:title=" ">
<path fill="none" stroke="#63b8ff" d="M563.51,-228.33C551.11,-249.64 529.28,-282.69 502.75,-303.74 498.28,-307.28 493.08,-310.33 487.83,-312.9"/>
<polygon fill="#63b8ff" stroke="#63b8ff" points="566.51,-230.13 568.36,-219.7 560.41,-226.7 566.51,-230.13"/>
</a>
</g>
</g>
<!-- Node11 -->
<g id="Node000011" class="node">
<title>Node11</title>
<g id="a_Node000011"><a xlink:href="carrinho_2nrf24__avr_8c.html#abefdb1d58b989853c0646a6c8b18b7d3" target="_top" xlink:title=" ">
<polygon fill="white" stroke="#666666" points="485.5,-199.11 426.75,-199.11 426.75,-178.36 485.5,-178.36 485.5,-199.11"/>
<text xml:space="preserve" text-anchor="middle" x="456.12" y="-185.61" font-family="Helvetica,sans-Serif" font-size="10.00">read_reg</text>
</a>
</g>
</g>
<!-- Node1&#45;&gt;Node11 -->
<g id="edge10_Node000001_Node000011" class="edge">
<title>Node1&#45;&gt;Node11</title>
<g id="a_edge10_Node000001_Node000011"><a xlink:title=" ">
<path fill="none" stroke="#63b8ff" d="M527.42,-200.1C513.39,-197.84 498.44,-195.42 485.95,-193.4"/>
<polygon fill="#63b8ff" stroke="#63b8ff" points="526.49,-203.5 536.92,-201.64 527.61,-196.59 526.49,-203.5"/>
</a>
</g>
</g>
<!-- Node16 -->
<g id="Node000016" class="node">
<title>Node16</title>
<g id="a_Node000016"><a xlink:href="carrinho_2nrf24__avr_8c.html#a31d6889b046799ad06c03ce52c9bb640" target="_top" xlink:title=" ">
<polygon fill="white" stroke="#666666" points="496,-160.11 416.25,-160.11 416.25,-139.36 496,-139.36 496,-160.11"/>
<text xml:space="preserve" text-anchor="middle" x="456.12" y="-146.61" font-family="Helvetica,sans-Serif" font-size="10.00">read_reg_buf</text>
</a>
</g>
</g>
<!-- Node1&#45;&gt;Node16 -->
<g id="edge21_Node000001_Node000016" class="edge">
<title>Node1&#45;&gt;Node16</title>
<g id="a_edge21_Node000001_Node000016"><a xlink:title=" ">
<path fill="none" stroke="#63b8ff" d="M545.51,-191.73C532.54,-184.75 516.99,-176.61 502.75,-169.74 496.21,-166.58 489.05,-163.34 482.38,-160.41"/>
<polygon fill="#63b8ff" stroke="#63b8ff" points="543.51,-194.62 553.97,-196.3 546.84,-188.46 543.51,-194.62"/>
</a>
</g>
</g>
<!-- Node17 -->
<g id="Node000017" class="node">
<title>Node17</title>
<g id="a_Node000017"><a xlink:href="carrinho_2nrf24__avr_8c.html#a3c9fd94e9894bf0792d4ff5891c16436" target="_top" xlink:title=" ">
<polygon fill="white" stroke="#666666" points="498.62,-28.11 413.62,-28.11 413.62,-7.36 498.62,-7.36 498.62,-28.11"/>
<text xml:space="preserve" text-anchor="middle" x="456.12" y="-14.61" font-family="Helvetica,sans-Serif" font-size="10.00">write_payload</text>
</a>
</g>
</g>
<!-- Node1&#45;&gt;Node17 -->
<g id="edge22_Node000001_Node000017" class="edge">
<title>Node1&#45;&gt;Node17</title>
<g id="a_edge22_Node000001_Node000017"><a xlink:title=" ">
<path fill="none" stroke="#63b8ff" d="M564.15,-186.96C550.83,-161.04 526.69,-115.65 502.75,-78.74 490.81,-60.32 475.17,-40.14 465.65,-28.22"/>
<polygon fill="#63b8ff" stroke="#63b8ff" points="560.96,-188.42 568.62,-195.74 567.2,-185.24 560.96,-188.42"/>
</a>
</g>
</g>
<!-- Node18 -->
<g id="Node000018" class="node">
<title>Node18</title>
<g id="a_Node000018"><a xlink:href="carrinho_2nrf24__avr_8c.html#a08bc978021db604d02a6da754f73e7e2" target="_top" xlink:title=" ">
<polygon fill="white" stroke="#666666" points="487,-256.11 425.25,-256.11 425.25,-235.36 487,-235.36 487,-256.11"/>
<text xml:space="preserve" text-anchor="middle" x="456.12" y="-242.61" font-family="Helvetica,sans-Serif" font-size="10.00">write_reg</text>
</a>
</g>
</g>
<!-- Node1&#45;&gt;Node18 -->
<g id="edge24_Node000001_Node000018" class="edge">
<title>Node1&#45;&gt;Node18</title>
<g id="a_edge24_Node000001_Node000018"><a xlink:title=" ">
<path fill="none" stroke="#63b8ff" d="M530.56,-221.99C516.16,-226.65 500.5,-231.71 487.35,-235.96"/>
<polygon fill="#63b8ff" stroke="#63b8ff" points="531.39,-225.4 539.83,-218.99 529.24,-218.74 531.39,-225.4"/>
</a>
</g>
</g>
<!-- Node4 -->
<g id="Node000004" class="node">
<title>Node4</title>
<g id="a_Node000004"><a xlink:href="carrinho_2nrf24__avr_8c.html#a8232e1982aabc6f52408c318402cb578" target="_top" xlink:title=" ">
<polygon fill="white" stroke="#666666" points="180.5,-76.11 109,-76.11 109,-55.36 180.5,-55.36 180.5,-76.11"/>
<text xml:space="preserve" text-anchor="middle" x="144.75" y="-62.61" font-family="Helvetica,sans-Serif" font-size="10.00">nrf24_write</text>
</a>
</g>
</g>
<!-- Node3&#45;&gt;Node4 -->
<g id="edge3_Node000003_Node000004" class="edge">
<title>Node3&#45;&gt;Node4</title>
<g id="a_edge3_Node000003_Node000004"><a xlink:title=" ">
<path fill="none" stroke="#63b8ff" d="M255.95,-40.09C231.29,-45.83 202.66,-52.49 180.76,-57.59"/>
<polygon fill="#63b8ff" stroke="#63b8ff" points="256.54,-43.54 265.48,-37.87 254.95,-36.72 256.54,-43.54"/>
</a>
</g>
</g>
<!-- Node7 -->
<g id="Node000007" class="node">
<title>Node7</title>
<g id="a_Node000007"><a xlink:href="carrinho_2nrf24__avr_8c.html#aa0767db791fc0b45ebadab011c1900bf" target="_top" xlink:title=" ">
<polygon fill="white" stroke="#666666" points="344.25,-495.11 275.75,-495.11 275.75,-474.36 344.25,-474.36 344.25,-495.11"/>
<text xml:space="preserve" text-anchor="middle" x="310" y="-481.61" font-family="Helvetica,sans-Serif" font-size="10.00">nrf24_read</text>
</a>
</g>
</g>
<!-- Node6&#45;&gt;Node7 -->
<g id="edge6_Node000006_Node000007" class="edge">
<title>Node6&#45;&gt;Node7</title>
<g id="a_edge6_Node000006_Node000007"><a xlink:title=" ">
<path fill="none" stroke="#63b8ff" d="M412.14,-341.04C411.21,-341.9 410.33,-342.8 409.5,-343.74 372.36,-385.79 412.76,-424.66 373.5,-464.74 365.77,-472.63 354.92,-477.41 344.43,-480.31"/>
<polygon fill="#63b8ff" stroke="#63b8ff" points="414.11,-343.93 420.19,-335.26 410.03,-338.25 414.11,-343.93"/>
</a>
</g>
</g>
<!-- Node8 -->
<g id="Node000008" class="node">
<title>Node8</title>
<g id="a_Node000008"><a xlink:href="carrinho_8c.html#afe461d27b9c48d5921c00d521181f12f" target="_top" xlink:title=" ">
<polygon fill="white" stroke="#666666" points="163.25,-418.11 126.25,-418.11 126.25,-397.36 163.25,-397.36 163.25,-418.11"/>
<text xml:space="preserve" text-anchor="middle" x="144.75" y="-404.61" font-family="Helvetica,sans-Serif" font-size="10.00">loop</text>
</a>
</g>
</g>
<!-- Node7&#45;&gt;Node8 -->
<g id="edge7_Node000007_Node000008" class="edge">
<title>Node7&#45;&gt;Node8</title>
<g id="a_edge7_Node000007_Node000008"><a xlink:title=" ">
<path fill="none" stroke="#63b8ff" d="M264.85,-473.63C258.46,-471.17 252.15,-468.23 246.5,-464.74 226.99,-452.66 230.07,-439.72 210.5,-427.74 195.95,-418.83 177.11,-413.6 163.51,-410.73"/>
<polygon fill="#63b8ff" stroke="#63b8ff" points="263.54,-476.88 274.13,-476.83 265.82,-470.26 263.54,-476.88"/>
</a>
</g>
</g>
<!-- Node10 -->
<g id="Node000010" class="node">
<title>Node10</title>
<g id="a_Node000010"><a xlink:href="main_8c.html#a840291bc02cba5474a4cb46a9b9566fe" target="_top" xlink:title=" ">
<polygon fill="white" stroke="#666666" points="41.88,-380.11 1.12,-380.11 1.12,-359.36 41.88,-359.36 41.88,-380.11"/>
<text xml:space="preserve" text-anchor="middle" x="21.5" y="-366.61" font-family="Helvetica,sans-Serif" font-size="10.00">main</text>
</a>
</g>
</g>
<!-- Node7&#45;&gt;Node10 -->
<g id="edge9_Node000007_Node000010" class="edge">
<title>Node7&#45;&gt;Node10</title>
<g id="a_edge9_Node000007_Node000010"><a xlink:title=" ">
<path fill="none" stroke="#63b8ff" d="M264.58,-498.36C215.25,-510.66 135.17,-521.99 79,-486.74 40.6,-462.64 27.67,-404.25 23.89,-380.28"/>
<polygon fill="#63b8ff" stroke="#63b8ff" points="265.28,-501.79 274.06,-495.87 263.5,-495.02 265.28,-501.79"/>
</a>
</g>
</g>
<!-- Node9 -->
<g id="Node000009" class="node">
<title>Node9</title>
<g id="a_Node000009"><a xlink:href="carrinho_8c.html#ae66f6b31b5ad750f1fe042a706a4e3d4" target="_top" xlink:title=" ">
<polygon fill="white" stroke="#666666" points="41.88,-341.11 1.12,-341.11 1.12,-320.36 41.88,-320.36 41.88,-341.11"/>
<text xml:space="preserve" text-anchor="middle" x="21.5" y="-327.61" font-family="Helvetica,sans-Serif" font-size="10.00">main</text>
</a>
</g>
</g>
<!-- Node8&#45;&gt;Node9 -->
<g id="edge8_Node000008_Node000009" class="edge">
<title>Node8&#45;&gt;Node9</title>
<g id="a_edge8_Node000008_Node000009"><a xlink:title=" ">
<path fill="none" stroke="#63b8ff" d="M117.2,-390.88C93.57,-375.87 59.71,-354.37 39.53,-341.55"/>
<polygon fill="#63b8ff" stroke="#63b8ff" points="115.04,-393.65 125.36,-396.06 118.79,-387.74 115.04,-393.65"/>
</a>
</g>
</g>
<!-- Node11&#45;&gt;Node4 -->
<g id="edge20_Node000011_Node000004" class="edge">
<title>Node11&#45;&gt;Node4</title>
<g id="a_edge20_Node000011_Node000004"><a xlink:title=" ">
<path fill="none" stroke="#63b8ff" d="M416.72,-174.56C414.12,-172.82 411.68,-170.88 409.5,-168.74 382.02,-141.65 404.81,-112.29 373.5,-89.74 316.23,-48.5 228.89,-52.91 180.71,-59.49"/>
<polygon fill="#63b8ff" stroke="#63b8ff" points="414.83,-177.51 425.27,-179.31 418.23,-171.39 414.83,-177.51"/>
</a>
</g>
</g>
<!-- Node12 -->
<g id="Node000012" class="node">
<title>Node12</title>
<g id="a_Node000012"><a xlink:href="carrinho_2nrf24__avr_8c.html#a0f64caa74329fd5799a33f30bd8ebf82" target="_top" xlink:title=" ">
<polygon fill="white" stroke="#666666" points="355.88,-380.11 264.12,-380.11 264.12,-359.36 355.88,-359.36 355.88,-380.11"/>
<text xml:space="preserve" text-anchor="middle" x="310" y="-366.61" font-family="Helvetica,sans-Serif" font-size="10.00">nrf24_available</text>
</a>
</g>
</g>
<!-- Node11&#45;&gt;Node12 -->
<g id="edge11_Node000011_Node000012" class="edge">
<title>Node11&#45;&gt;Node12</title>
<g id="a_edge11_Node000011_Node000012"><a xlink:title=" ">
<path fill="none" stroke="#63b8ff" d="M431.34,-206.49C423.96,-212.52 416.05,-219.56 409.5,-226.74 368.65,-271.49 331.23,-334.12 317.03,-358.97"/>
<polygon fill="#63b8ff" stroke="#63b8ff" points="433.39,-209.33 439.07,-200.39 429.05,-203.83 433.39,-209.33"/>
</a>
</g>
</g>
<!-- Node13 -->
<g id="Node000013" class="node">
<title>Node13</title>
<g id="a_Node000013"><a xlink:href="carrinho_2nrf24__avr_8c.html#a71c5628e9583f6a6fd0871b3ae1bf6df" target="_top" xlink:title=" ">
<polygon fill="white" stroke="#666666" points="201.5,-303.11 88,-303.11 88,-282.36 201.5,-282.36 201.5,-303.11"/>
<text xml:space="preserve" text-anchor="middle" x="144.75" y="-289.61" font-family="Helvetica,sans-Serif" font-size="10.00">nrf24_startListening</text>
</a>
</g>
</g>
<!-- Node11&#45;&gt;Node13 -->
<g id="edge14_Node000011_Node000013" class="edge">
<title>Node11&#45;&gt;Node13</title>
<g id="a_edge14_Node000011_Node000013"><a xlink:title=" ">
<path fill="none" stroke="#63b8ff" d="M415.31,-179.43C370.4,-171.3 297.04,-165.41 246.5,-198.74 215.97,-218.87 238.27,-248.93 210.5,-272.74 206.21,-276.41 201.26,-279.41 196.03,-281.86"/>
<polygon fill="#63b8ff" stroke="#63b8ff" points="414.39,-182.82 424.88,-181.29 415.73,-175.95 414.39,-182.82"/>
</a>
</g>
</g>
<!-- Node14 -->
<g id="Node000014" class="node">
<title>Node14</title>
<g id="a_Node000014"><a xlink:href="carrinho_2nrf24__avr_8c.html#a33899bc3c0f4d2293f37c306d0b8e297" target="_top" xlink:title=" ">
<polygon fill="white" stroke="#666666" points="366,-152.11 254,-152.11 254,-131.36 366,-131.36 366,-152.11"/>
<text xml:space="preserve" text-anchor="middle" x="310" y="-138.61" font-family="Helvetica,sans-Serif" font-size="10.00">nrf24_stopListening</text>
</a>
</g>
</g>
<!-- Node11&#45;&gt;Node14 -->
<g id="edge17_Node000011_Node000014" class="edge">
<title>Node11&#45;&gt;Node14</title>
<g id="a_edge17_Node000011_Node000014"><a xlink:title=" ">
<path fill="none" stroke="#63b8ff" d="M415.49,-175.81C393.14,-168.52 365.54,-159.52 344.31,-152.6"/>
<polygon fill="#63b8ff" stroke="#63b8ff" points="414.27,-179.1 424.87,-178.87 416.44,-172.44 414.27,-179.1"/>
</a>
</g>
</g>
<!-- Node12&#45;&gt;Node8 -->
<g id="edge12_Node000012_Node000008" class="edge">
<title>Node12&#45;&gt;Node8</title>
<g id="a_edge12_Node000012_Node000008"><a xlink:title=" ">
<path fill="none" stroke="#63b8ff" d="M253.14,-382.74C221.8,-390.04 184.8,-398.65 163.43,-403.62"/>
<polygon fill="#63b8ff" stroke="#63b8ff" points="253.54,-386.24 262.48,-380.56 251.95,-379.42 253.54,-386.24"/>
</a>
</g>
</g>
<!-- Node12&#45;&gt;Node10 -->
<g id="edge13_Node000012_Node000010" class="edge">
<title>Node12&#45;&gt;Node10</title>
<g id="a_edge13_Node000012_Node000010"><a xlink:title=" ">
<path fill="none" stroke="#63b8ff" d="M252.7,-369.74C188.02,-369.74 85.29,-369.74 42.37,-369.74"/>
<polygon fill="#63b8ff" stroke="#63b8ff" points="252.41,-373.24 262.41,-369.74 252.41,-366.24 252.41,-373.24"/>
</a>
</g>
</g>
<!-- Node13&#45;&gt;Node9 -->
<g id="edge15_Node000013_Node000009" class="edge">
<title>Node13&#45;&gt;Node9</title>
<g id="a_edge15_Node000013_Node000009"><a xlink:title=" ">
<path fill="none" stroke="#63b8ff" d="M97.91,-306.84C91.55,-308.81 85.11,-310.82 79,-312.74 66.82,-316.56 53.18,-320.9 42.36,-324.36"/>
<polygon fill="#63b8ff" stroke="#63b8ff" points="98.48,-310.33 107,-304.03 96.41,-303.64 98.48,-310.33"/>
</a>
</g>
</g>
<!-- Node13&#45;&gt;Node10 -->
<g id="edge16_Node000013_Node000010" class="edge">
<title>Node13&#45;&gt;Node10</title>
<g id="a_edge16_Node000013_Node000010"><a xlink:title=" ">
<path fill="none" stroke="#63b8ff" d="M87.73,-308.03C84.71,-309.47 81.78,-311.04 79,-312.74 59.43,-324.72 59.21,-333.5 43,-349.74 39.91,-352.83 36.52,-356.16 33.4,-359.2"/>
<polygon fill="#63b8ff" stroke="#63b8ff" points="89,-311.3 96.86,-304.19 86.28,-304.84 89,-311.3"/>
</a>
</g>
</g>
<!-- Node14&#45;&gt;Node4 -->
<g id="edge18_Node000014_Node000004" class="edge">
<title>Node14&#45;&gt;Node4</title>
<g id="a_edge18_Node000014_Node000004"><a xlink:title=" ">
<path fill="none" stroke="#63b8ff" d="M268.34,-126.87C261.01,-123.98 253.48,-120.87 246.5,-117.74 217.58,-104.77 185.19,-87.55 165.13,-76.55"/>
<polygon fill="#63b8ff" stroke="#63b8ff" points="266.84,-130.04 277.43,-130.38 269.36,-123.51 266.84,-130.04"/>
</a>
</g>
</g>
<!-- Node15 -->
<g id="Node000015" class="node">
<title>Node15</title>
<g id="a_Node000015"><a xlink:href="controle_8c.html#a4fc01d736fe50cf5b977f755b675f11d" target="_top" xlink:title=" ">
<polygon fill="white" stroke="#666666" points="43,-245.11 0,-245.11 0,-224.36 43,-224.36 43,-245.11"/>
<text xml:space="preserve" text-anchor="middle" x="21.5" y="-231.61" font-family="Helvetica,sans-Serif" font-size="10.00">setup</text>
</a>
</g>
</g>
<!-- Node14&#45;&gt;Node15 -->
<g id="edge19_Node000014_Node000015" class="edge">
<title>Node14&#45;&gt;Node15</title>
<g id="a_edge19_Node000014_Node000015"><a xlink:title=" ">
<path fill="none" stroke="#63b8ff" d="M264.83,-156.08C202.04,-176.46 89.46,-213 43.21,-228.02"/>
<polygon fill="#63b8ff" stroke="#63b8ff" points="265.7,-159.47 274.13,-153.05 263.54,-152.81 265.7,-159.47"/>
</a>
</g>
</g>
<!-- Node17&#45;&gt;Node4 -->
<g id="edge23_Node000017_Node000004" class="edge">
<title>Node17&#45;&gt;Node4</title>
<g id="a_edge23_Node000017_Node000004"><a xlink:title=" ">
<path fill="none" stroke="#63b8ff" d="M401.91,-6.86C359.19,-0.15 298.04,4.83 246.5,-8.74 212.49,-17.69 177.9,-41.04 159.41,-54.92"/>
<polygon fill="#63b8ff" stroke="#63b8ff" points="401.25,-10.29 411.69,-8.48 402.4,-3.39 401.25,-10.29"/>
</a>
</g>
</g>
<!-- Node18&#45;&gt;Node4 -->
<g id="edge44_Node000018_Node000004" class="edge">
<title>Node18&#45;&gt;Node4</title>
<g id="a_edge44_Node000018_Node000004"><a xlink:title=" ">
<path fill="none" stroke="#63b8ff" d="M429.76,-228.19C422.54,-222.31 415.12,-215.3 409.5,-207.74 385.05,-174.79 404.67,-149.41 373.5,-122.74 366.11,-116.41 242.97,-87.8 180.91,-73.67"/>
<polygon fill="#63b8ff" stroke="#63b8ff" points="427.38,-230.78 437.45,-234.08 431.64,-225.22 427.38,-230.78"/>
</a>
</g>
</g>
<!-- Node18&#45;&gt;Node7 -->
<g id="edge34_Node000018_Node000007" class="edge">
<title>Node18&#45;&gt;Node7</title>
<g id="a_edge34_Node000018_Node000007"><a xlink:title=" ">
<path fill="none" stroke="#63b8ff" d="M415.66,-259.69C413.37,-261.47 411.28,-263.48 409.5,-265.74 353.8,-336.28 432.77,-397.17 373.5,-464.74 366.14,-473.13 355.25,-478.03 344.62,-480.88"/>
<polygon fill="#63b8ff" stroke="#63b8ff" points="417.22,-262.83 423.93,-254.63 413.57,-256.86 417.22,-262.83"/>
</a>
</g>
</g>
<!-- Node18&#45;&gt;Node13 -->
<g id="edge42_Node000018_Node000013" class="edge">
<title>Node18&#45;&gt;Node13</title>
<g id="a_edge42_Node000018_Node000013"><a xlink:title=" ">
<path fill="none" stroke="#63b8ff" d="M414.08,-255.55C401.15,-258.44 386.77,-261.43 373.5,-263.74 315.18,-273.86 247.89,-282 201.65,-287.05"/>
<polygon fill="#63b8ff" stroke="#63b8ff" points="414.57,-259.03 423.54,-253.39 413.01,-252.2 414.57,-259.03"/>
</a>
</g>
</g>
<!-- Node18&#45;&gt;Node14 -->
<g id="edge43_Node000018_Node000014" class="edge">
<title>Node18&#45;&gt;Node14</title>
<g id="a_edge43_Node000018_Node000014"><a xlink:title=" ">
<path fill="none" stroke="#63b8ff" d="M430.93,-228.28C400.99,-206.67 350.92,-170.54 326.02,-152.57"/>
<polygon fill="#63b8ff" stroke="#63b8ff" points="428.86,-231.1 439.02,-234.11 432.96,-225.42 428.86,-231.1"/>
</a>
</g>
</g>
<!-- Node19 -->
<g id="Node000019" class="node">
<title>Node19</title>
<g id="a_Node000019"><a xlink:href="carrinho_2nrf24__avr_8c.html#ab6fb4c1aa834152310116e7dec65d8e3" target="_top" xlink:title=" ">
<polygon fill="white" stroke="#666666" points="181.62,-342.11 107.88,-342.11 107.88,-321.36 181.62,-321.36 181.62,-342.11"/>
<text xml:space="preserve" text-anchor="middle" x="144.75" y="-328.61" font-family="Helvetica,sans-Serif" font-size="10.00">nrf24_begin</text>
</a>
</g>
</g>
<!-- Node18&#45;&gt;Node19 -->
<g id="edge25_Node000018_Node000019" class="edge">
<title>Node18&#45;&gt;Node19</title>
<g id="a_edge25_Node000018_Node000019"><a xlink:title=" ">
<path fill="none" stroke="#63b8ff" d="M419.01,-261.11C415.77,-262.62 412.56,-264.18 409.5,-265.74 392.99,-274.14 390.83,-280.18 373.5,-286.74 308.47,-311.33 227.67,-323.21 181.88,-328.35"/>
<polygon fill="#63b8ff" stroke="#63b8ff" points="420.26,-264.38 427.93,-257.06 417.37,-258.01 420.26,-264.38"/>
</a>
</g>
</g>
<!-- Node20 -->
<g id="Node000020" class="node">
<title>Node20</title>
<g id="a_Node000020"><a xlink:href="carrinho_2nrf24__avr_8c.html#a5af2f11537aed8a56d8489355af0ff16" target="_top" xlink:title=" ">
<polygon fill="white" stroke="#666666" points="210.5,-457.11 79,-457.11 79,-436.36 210.5,-436.36 210.5,-457.11"/>
<text xml:space="preserve" text-anchor="middle" x="144.75" y="-443.61" font-family="Helvetica,sans-Serif" font-size="10.00">nrf24_openReadingPipe</text>
</a>
</g>
</g>
<!-- Node18&#45;&gt;Node20 -->
<g id="edge29_Node000018_Node000020" class="edge">
<title>Node18&#45;&gt;Node20</title>
<g id="a_edge29_Node000018_Node000020"><a xlink:title=" ">
<path fill="none" stroke="#63b8ff" d="M415.74,-260.04C413.46,-261.74 411.35,-263.63 409.5,-265.74 371.89,-308.52 414.48,-349.18 373.5,-388.74 360.93,-400.87 263.26,-422.72 199.97,-435.86"/>
<polygon fill="#63b8ff" stroke="#63b8ff" points="417.07,-263.33 423.84,-255.18 413.47,-257.33 417.07,-263.33"/>
</a>
</g>
</g>
<!-- Node21 -->
<g id="Node000021" class="node">
<title>Node21</title>
<g id="a_Node000021"><a xlink:href="carrinho_2nrf24__avr_8c.html#a21d638882f746748de35324bdc21f448" target="_top" xlink:title=" ">
<polygon fill="white" stroke="#666666" points="373.5,-228.11 246.5,-228.11 246.5,-207.36 373.5,-207.36 373.5,-228.11"/>
<text xml:space="preserve" text-anchor="middle" x="310" y="-214.61" font-family="Helvetica,sans-Serif" font-size="10.00">nrf24_openWritingPipe</text>
</a>
</g>
</g>
<!-- Node18&#45;&gt;Node21 -->
<g id="edge32_Node000018_Node000021" class="edge">
<title>Node18&#45;&gt;Node21</title>
<g id="a_edge32_Node000018_Node000021"><a xlink:title=" ">
<path fill="none" stroke="#63b8ff" d="M413.69,-237.69C399.08,-234.85 382.4,-231.61 366.79,-228.58"/>
<polygon fill="#63b8ff" stroke="#63b8ff" points="412.94,-241.11 423.43,-239.58 414.28,-234.24 412.94,-241.11"/>
</a>
</g>
</g>
<!-- Node22 -->
<g id="Node000022" class="node">
<title>Node22</title>
<g id="a_Node000022"><a xlink:href="carrinho_2nrf24__avr_8c.html#a49aa88b1042d6d62114cfbca271d9e2b" target="_top" xlink:title=" ">
<polygon fill="white" stroke="#666666" points="195.5,-264.11 94,-264.11 94,-243.36 195.5,-243.36 195.5,-264.11"/>
<text xml:space="preserve" text-anchor="middle" x="144.75" y="-250.61" font-family="Helvetica,sans-Serif" font-size="10.00">nrf24_setChannel</text>
</a>
</g>
</g>
<!-- Node18&#45;&gt;Node22 -->
<g id="edge35_Node000018_Node000022" class="edge">
<title>Node18&#45;&gt;Node22</title>
<g id="a_edge35_Node000018_Node000022"><a xlink:title=" ">
<path fill="none" stroke="#63b8ff" d="M413.56,-246.81C357.16,-248.27 256.47,-250.87 195.92,-252.44"/>
<polygon fill="#63b8ff" stroke="#63b8ff" points="413.48,-250.32 423.38,-246.56 413.3,-243.32 413.48,-250.32"/>
</a>
</g>
</g>
<!-- Node23 -->
<g id="Node000023" class="node">
<title>Node23</title>
<g id="a_Node000023"><a xlink:href="carrinho_2nrf24__avr_8c.html#aaf2900e7932ebbf7f0ecdc6bce5840e1" target="_top" xlink:title=" ">
<polygon fill="white" stroke="#666666" points="370.5,-456.11 249.5,-456.11 249.5,-435.36 370.5,-435.36 370.5,-456.11"/>
<text xml:space="preserve" text-anchor="middle" x="310" y="-442.61" font-family="Helvetica,sans-Serif" font-size="10.00">nrf24_setPayloadSize</text>
</a>
</g>
</g>
<!-- Node18&#45;&gt;Node23 -->
<g id="edge39_Node000018_Node000023" class="edge">
<title>Node18&#45;&gt;Node23</title>
<g id="a_edge39_Node000018_Node000023"><a xlink:title=" ">
<path fill="none" stroke="#63b8ff" d="M415.6,-259.92C413.35,-261.65 411.29,-263.58 409.5,-265.74 364.08,-320.51 420.18,-368.03 373.5,-421.74 368.62,-427.35 362.27,-431.66 355.5,-434.96"/>
<polygon fill="#63b8ff" stroke="#63b8ff" points="416.93,-263.21 423.64,-255.01 413.28,-257.24 416.93,-263.21"/>
</a>
</g>
</g>
<!-- Node19&#45;&gt;Node9 -->
<g id="edge26_Node000019_Node000009" class="edge">
<title>Node19&#45;&gt;Node9</title>
<g id="a_edge26_Node000019_Node000009"><a xlink:title=" ">
<path fill="none" stroke="#63b8ff" d="M96.24,-331.35C77.36,-331.19 56.7,-331.02 42.06,-330.9"/>
<polygon fill="#63b8ff" stroke="#63b8ff" points="96.16,-334.84 106.19,-331.43 96.22,-327.85 96.16,-334.84"/>
</a>
</g>
</g>
<!-- Node19&#45;&gt;Node10 -->
<g id="edge27_Node000019_Node000010" class="edge">
<title>Node19&#45;&gt;Node10</title>
<g id="a_edge27_Node000019_Node000010"><a xlink:title=" ">
<path fill="none" stroke="#63b8ff" d="M98.53,-345.91C79.13,-351.99 57.47,-358.78 42.25,-363.55"/>
<polygon fill="#63b8ff" stroke="#63b8ff" points="99.39,-349.31 107.88,-342.98 97.3,-342.63 99.39,-349.31"/>
</a>
</g>
</g>
<!-- Node19&#45;&gt;Node15 -->
<g id="edge28_Node000019_Node000015" class="edge">
<title>Node19&#45;&gt;Node15</title>
<g id="a_edge28_Node000019_Node000015"><a xlink:title=" ">
<path fill="none" stroke="#63b8ff" d="M96.89,-321.24C90.57,-318.71 84.4,-315.58 79,-311.74 54.15,-294.04 35.83,-262.01 27.5,-245.38"/>
<polygon fill="#63b8ff" stroke="#63b8ff" points="95.57,-324.48 106.16,-324.46 97.87,-317.87 95.57,-324.48"/>
</a>
</g>
</g>
<!-- Node20&#45;&gt;Node9 -->
<g id="edge30_Node000020_Node000009" class="edge">
<title>Node20&#45;&gt;Node9</title>
<g id="a_edge30_Node000020_Node000009"><a xlink:title=" ">
<path fill="none" stroke="#63b8ff" d="M83.62,-430.31C82.01,-429.2 80.47,-428.01 79,-426.74 50.75,-402.26 64.72,-381.16 43,-350.74 40.69,-347.5 37.82,-344.33 34.97,-341.51"/>
<polygon fill="#63b8ff" stroke="#63b8ff" points="81.69,-433.24 92.11,-435.16 85.16,-427.16 81.69,-433.24"/>
</a>
</g>
</g>
<!-- Node20&#45;&gt;Node10 -->
<g id="edge31_Node000020_Node000010" class="edge">
<title>Node20&#45;&gt;Node10</title>
<g id="a_edge31_Node000020_Node000010"><a xlink:title=" ">
<path fill="none" stroke="#63b8ff" d="M88.21,-431.63C85.02,-430.14 81.92,-428.51 79,-426.74 58.74,-414.46 40.47,-393.36 30.49,-380.56"/>
<polygon fill="#63b8ff" stroke="#63b8ff" points="86.64,-434.77 97.22,-435.37 89.33,-428.3 86.64,-434.77"/>
</a>
</g>
</g>
<!-- Node21&#45;&gt;Node15 -->
<g id="edge33_Node000021_Node000015" class="edge">
<title>Node21&#45;&gt;Node15</title>
<g id="a_edge33_Node000021_Node000015"><a xlink:title=" ">
<path fill="none" stroke="#63b8ff" d="M234.89,-222.13C170.97,-225.93 82.89,-231.15 43.27,-233.5"/>
<polygon fill="#63b8ff" stroke="#63b8ff" points="234.84,-225.64 244.62,-221.56 234.43,-218.66 234.84,-225.64"/>
</a>
</g>
</g>
<!-- Node22&#45;&gt;Node9 -->
<g id="edge36_Node000022_Node000009" class="edge">
<title>Node22&#45;&gt;Node9</title>
<g id="a_edge36_Node000022_Node000009"><a xlink:title=" ">
<path fill="none" stroke="#63b8ff" d="M88.21,-268.85C85.02,-270.34 81.92,-271.97 79,-273.74 58.74,-286.01 40.47,-307.12 30.49,-319.92"/>
<polygon fill="#63b8ff" stroke="#63b8ff" points="89.33,-272.17 97.22,-265.1 86.64,-265.71 89.33,-272.17"/>
</a>
</g>
</g>
<!-- Node22&#45;&gt;Node10 -->
<g id="edge37_Node000022_Node000010" class="edge">
<title>Node22&#45;&gt;Node10</title>
<g id="a_edge37_Node000022_Node000010"><a xlink:title=" ">
<path fill="none" stroke="#63b8ff" d="M84.18,-269.78C82.37,-271.01 80.63,-272.32 79,-273.74 50.75,-298.21 64.72,-319.32 43,-349.74 40.69,-352.97 37.82,-356.14 34.97,-358.97"/>
<polygon fill="#63b8ff" stroke="#63b8ff" points="85.42,-273.1 92.43,-265.15 82,-266.99 85.42,-273.1"/>
</a>
</g>
</g>
<!-- Node22&#45;&gt;Node15 -->
<g id="edge38_Node000022_Node000015" class="edge">
<title>Node22&#45;&gt;Node15</title>
<g id="a_edge38_Node000022_Node000015"><a xlink:title=" ">
<path fill="none" stroke="#63b8ff" d="M82.48,-244.14C68.39,-241.93 54.35,-239.73 43.39,-238.01"/>
<polygon fill="#63b8ff" stroke="#63b8ff" points="81.82,-247.57 92.24,-245.67 82.9,-240.66 81.82,-247.57"/>
</a>
</g>
</g>
<!-- Node23&#45;&gt;Node10 -->
<g id="edge40_Node000023_Node000010" class="edge">
<title>Node23&#45;&gt;Node10</title>
<g id="a_edge40_Node000023_Node000010"><a xlink:title=" ">
<path fill="none" stroke="#63b8ff" d="M254.11,-458.91C239.98,-461.74 224.75,-464.31 210.5,-465.74 152.35,-471.58 129.74,-494.75 79,-465.74 46.26,-447.02 30.62,-401.12 25.02,-380.3"/>
<polygon fill="#63b8ff" stroke="#63b8ff" points="254.6,-462.38 263.68,-456.91 253.17,-455.53 254.6,-462.38"/>
</a>
</g>
</g>
<!-- Node23&#45;&gt;Node19 -->
<g id="edge41_Node000023_Node000019" class="edge">
<title>Node23&#45;&gt;Node19</title>
<g id="a_edge41_Node000023_Node000019"><a xlink:title=" ">
<path fill="none" stroke="#63b8ff" d="M284.37,-428.54C250.24,-404.7 189.56,-362.33 161.19,-342.52"/>
<polygon fill="#63b8ff" stroke="#63b8ff" points="282.2,-431.29 292.4,-434.15 286.21,-425.55 282.2,-431.29"/>
</a>
</g>
</g>
</g>
</svg>
