<?xml version="1.0" encoding="UTF-8" standalone="no"?>
<!DOCTYPE svg PUBLIC "-//W3C//DTD SVG 1.1//EN"
 "http://www.w3.org/Graphics/SVG/1.1/DTD/svg11.dtd">
<!-- Generated by graphviz version 14.0.4 (0)
 -->
<!-- Title: loop Pages: 1 -->
<svg width="341pt" height="222pt"
 viewBox="0.00 0.00 341.00 222.00" xmlns="http://www.w3.org/2000/svg" xmlns:xlink="http://www.w3.org/1999/xlink">
<g id="graph0" class="graph" transform="scale(1 1) rotate(0) translate(4 217.75)">
<title>loop</title>
<!-- Node1 -->
<g id="Node000001" class="node">
<title>Node1</title>
<g id="a_Node000001"><a xlink:title=" ">
<polygon fill="#999999" stroke="#666666" points="37,-117.75 0,-117.75 0,-97 37,-97 37,-117.75"/>
<text xml:space="preserve" text-anchor="middle" x="18.5" y="-104.25" font-family="Helvetica,sans-Serif" font-size="10.00">loop</text>
</a>
</g>
</g>
<!-- Node2 -->
<g id="Node000002" class="node">
<title>Node2</title>
<g id="a_Node000002"><a xlink:href="carrinho_8c.html#aaa87dddb1e62142fd07ee17db1b5d673" target="_top" xlink:title="Retorna o valor absoluto de um inteiro.">
<polygon fill="white" stroke="#666666" points="127.25,-213.75 94,-213.75 94,-193 127.25,-193 127.25,-213.75"/>
<text xml:space="preserve" text-anchor="middle" x="110.62" y="-200.25" font-family="Helvetica,sans-Serif" font-size="10.00">abs</text>
</a>
</g>
</g>
<!-- Node1&#45;&gt;Node2 -->
<g id="edge1_Node000001_Node000002" class="edge">
<title>Node1&#45;&gt;Node2</title>
<g id="a_edge1_Node000001_Node000002"><a xlink:title=" ">
<path fill="none" stroke="#63b8ff" d="M24.97,-118.11C33.49,-133.99 51.21,-163.93 73,-183.38 76.22,-186.25 79.92,-188.86 83.7,-191.19"/>
<polygon fill="#63b8ff" stroke="#63b8ff" points="81.86,-194.17 92.32,-195.91 85.23,-188.03 81.86,-194.17"/>
</a>
</g>
</g>
<!-- Node3 -->
<g id="Node000003" class="node">
<title>Node3</title>
<g id="a_Node000003"><a xlink:href="carrinho__ino_8ino.html#ae85c96d8ab4fe9d1b125421eaaef40e2" target="_top" xlink:title=" ">
<polygon fill="white" stroke="#666666" points="125.03,-174.75 96.22,-174.75 96.22,-154 125.03,-154 125.03,-174.75"/>
<text xml:space="preserve" text-anchor="middle" x="110.62" y="-161.25" font-family="Helvetica,sans-Serif" font-size="10.00">hit</text>
</a>
</g>
</g>
<!-- Node1&#45;&gt;Node3 -->
<g id="edge2_Node000001_Node000003" class="edge">
<title>Node1&#45;&gt;Node3</title>
<g id="a_edge2_Node000001_Node000003"><a xlink:title=" ">
<path fill="none" stroke="#63b8ff" d="M36.45,-118.1C50.59,-127.04 70.87,-139.87 86.5,-149.75"/>
<polygon fill="#63b8ff" stroke="#63b8ff" points="84.39,-152.55 94.71,-154.94 88.13,-146.64 84.39,-152.55"/>
</a>
</g>
</g>
<!-- Node5 -->
<g id="Node000005" class="node">
<title>Node5</title>
<g id="a_Node000005"><a xlink:href="carrinho__ino_8ino.html#a83f9abde8522ce95dd4c5ce5ba3d9d39" target="_top" xlink:title=" ">
<polygon fill="white" stroke="#666666" points="332.5,-155.75 287.25,-155.75 287.25,-135 332.5,-135 332.5,-155.75"/>
<text xml:space="preserve" text-anchor="middle" x="309.88" y="-142.25" font-family="Helvetica,sans-Serif" font-size="10.00">motor</text>
</a>
</g>
</g>
<!-- Node1&#45;&gt;Node5 -->
<g id="edge8_Node000001_Node000005" class="edge">
<title>Node1&#45;&gt;Node5</title>
<g id="a_edge8_Node000001_Node000005"><a xlink:title=" ">
<path fill="none" stroke="#63b8ff" d="M37.17,-109.69C84.33,-115.89 213.82,-132.89 275.44,-140.98"/>
<polygon fill="#63b8ff" stroke="#63b8ff" points="274.94,-144.45 285.31,-142.28 275.85,-137.51 274.94,-144.45"/>
</a>
</g>
</g>
<!-- Node6 -->
<g id="Node000006" class="node">
<title>Node6</title>
<g id="a_Node000006"><a xlink:href="carrinho__ino_8ino.html#adf1dfbee680be7fd774683d7c6a1a05c" target="_top" xlink:title=" ">
<polygon fill="white" stroke="#666666" points="148.25,-98.75 73,-98.75 73,-78 148.25,-78 148.25,-98.75"/>
<text xml:space="preserve" text-anchor="middle" x="110.62" y="-85.25" font-family="Helvetica,sans-Serif" font-size="10.00">isTimerOver</text>
</a>
</g>
</g>
<!-- Node1&#45;&gt;Node6 -->
<g id="edge6_Node000001_Node000006" class="edge">
<title>Node1&#45;&gt;Node6</title>
<g id="a_edge6_Node000001_Node000006"><a xlink:title=" ">
<path fill="none" stroke="#63b8ff" d="M37.31,-103.62C44.45,-102.12 53.05,-100.3 61.8,-98.46"/>
<polygon fill="#63b8ff" stroke="#63b8ff" points="62.3,-101.93 71.37,-96.44 60.86,-95.08 62.3,-101.93"/>
</a>
</g>
</g>
<!-- Node8 -->
<g id="Node000008" class="node">
<title>Node8</title>
<g id="a_Node000008"><a xlink:href="carrinho__ino_8ino.html#a53cdd46f95419ffdcd44d3f0d6147b54" target="_top" xlink:title=" ">
<polygon fill="white" stroke="#666666" points="131,-59.75 90.25,-59.75 90.25,-39 131,-39 131,-59.75"/>
<text xml:space="preserve" text-anchor="middle" x="110.62" y="-46.25" font-family="Helvetica,sans-Serif" font-size="10.00">radio</text>
</a>
</g>
</g>
<!-- Node1&#45;&gt;Node8 -->
<g id="edge9_Node000001_Node000008" class="edge">
<title>Node1&#45;&gt;Node8</title>
<g id="a_edge9_Node000001_Node000008"><a xlink:title=" ">
<path fill="none" stroke="#63b8ff" d="M33.72,-96.58C44.32,-88.7 59.28,-77.95 73,-69.38 75.28,-67.95 77.67,-66.52 80.09,-65.11"/>
<polygon fill="#63b8ff" stroke="#63b8ff" points="81.67,-68.24 88.67,-60.29 78.24,-62.13 81.67,-68.24"/>
</a>
</g>
</g>
<!-- Node9 -->
<g id="Node000009" class="node">
<title>Node9</title>
<g id="a_Node000009"><a xlink:href="carrinho__ino_8ino.html#a28e17ddfc6c506e94ffac4c672837624" target="_top" xlink:title=" ">
<polygon fill="white" stroke="#666666" points="145.62,-20.75 75.62,-20.75 75.62,0 145.62,0 145.62,-20.75"/>
<text xml:space="preserve" text-anchor="middle" x="110.62" y="-7.25" font-family="Helvetica,sans-Serif" font-size="10.00">timerReset</text>
</a>
</g>
</g>
<!-- Node1&#45;&gt;Node9 -->
<g id="edge10_Node000001_Node000009" class="edge">
<title>Node1&#45;&gt;Node9</title>
<g id="a_edge10_Node000001_Node000009"><a xlink:title=" ">
<path fill="none" stroke="#63b8ff" d="M24.8,-96.75C33.22,-80.74 50.96,-50.17 73,-30.38 74.21,-29.29 75.5,-28.23 76.83,-27.22"/>
<polygon fill="#63b8ff" stroke="#63b8ff" points="78.39,-30.38 84.81,-21.95 74.54,-24.54 78.39,-30.38"/>
</a>
</g>
</g>
<!-- Node4 -->
<g id="Node000004" class="node">
<title>Node4</title>
<g id="a_Node000004"><a xlink:href="carrinho__ino_8ino.html#a026d019671eda0cfe729200fc24d23ba" target="_top" xlink:title=" ">
<polygon fill="white" stroke="#666666" points="251.25,-174.75 184.25,-174.75 184.25,-154 251.25,-154 251.25,-174.75"/>
<text xml:space="preserve" text-anchor="middle" x="217.75" y="-161.25" font-family="Helvetica,sans-Serif" font-size="10.00">gameOver</text>
</a>
</g>
</g>
<!-- Node3&#45;&gt;Node4 -->
<g id="edge3_Node000003_Node000004" class="edge">
<title>Node3&#45;&gt;Node4</title>
<g id="a_edge3_Node000003_Node000004"><a xlink:title=" ">
<path fill="none" stroke="#63b8ff" d="M125.37,-164.38C137.4,-164.38 155.55,-164.38 172.52,-164.38"/>
<polygon fill="#63b8ff" stroke="#63b8ff" points="172.47,-167.88 182.47,-164.38 172.47,-160.88 172.47,-167.88"/>
</a>
</g>
</g>
<!-- Node4&#45;&gt;Node5 -->
<g id="edge4_Node000004_Node000005" class="edge">
<title>Node4&#45;&gt;Node5</title>
<g id="a_edge4_Node000004_Node000005"><a xlink:title=" ">
<path fill="none" stroke="#63b8ff" d="M251.54,-157.46C259.45,-155.79 267.91,-154.01 275.84,-152.34"/>
<polygon fill="#63b8ff" stroke="#63b8ff" points="276.39,-155.8 285.46,-150.31 274.95,-148.95 276.39,-155.8"/>
</a>
</g>
</g>
<!-- Node5&#45;&gt;Node5 -->
<g id="edge5_Node000005_Node000005" class="edge">
<title>Node5&#45;&gt;Node5</title>
<g id="a_edge5_Node000005_Node000005"><a xlink:title=" ">
<path fill="none" stroke="#63b8ff" d="M295.03,-156.15C289.09,-164.81 294.04,-173.75 309.88,-173.75 318.29,-173.75 323.63,-171.23 325.89,-167.56"/>
<polygon fill="#63b8ff" stroke="#63b8ff" points="329.38,-167.24 324.87,-157.65 322.42,-167.96 329.38,-167.24"/>
</a>
</g>
</g>
<!-- Node7 -->
<g id="Node000007" class="node">
<title>Node7</title>
<g id="a_Node000007"><a xlink:href="carrinho_8c.html#a6ff7f2532a22366f0013bc41397129fd" target="_top" xlink:title="Retorna o valor de millis desde o início do programa.">
<polygon fill="white" stroke="#666666" points="239.25,-59.75 196.25,-59.75 196.25,-39 239.25,-39 239.25,-59.75"/>
<text xml:space="preserve" text-anchor="middle" x="217.75" y="-46.25" font-family="Helvetica,sans-Serif" font-size="10.00">millis</text>
</a>
</g>
</g>
<!-- Node6&#45;&gt;Node7 -->
<g id="edge7_Node000006_Node000007" class="edge">
<title>Node6&#45;&gt;Node7</title>
<g id="a_edge7_Node000006_Node000007"><a xlink:title=" ">
<path fill="none" stroke="#63b8ff" d="M140.91,-77.51C154.71,-72.39 171.21,-66.27 185.28,-61.05"/>
<polygon fill="#63b8ff" stroke="#63b8ff" points="186.37,-64.38 194.53,-57.62 183.94,-57.82 186.37,-64.38"/>
</a>
</g>
</g>
<!-- Node9&#45;&gt;Node7 -->
<g id="edge11_Node000009_Node000007" class="edge">
<title>Node9&#45;&gt;Node7</title>
<g id="a_edge11_Node000009_Node000007"><a xlink:title=" ">
<path fill="none" stroke="#63b8ff" d="M140.91,-21.24C154.71,-26.36 171.21,-32.48 185.28,-37.7"/>
<polygon fill="#63b8ff" stroke="#63b8ff" points="183.94,-40.93 194.53,-41.13 186.37,-34.37 183.94,-40.93"/>
</a>
</g>
</g>
</g>
</svg>
