<?xml version="1.0" encoding="UTF-8" standalone="no"?>
<!DOCTYPE svg PUBLIC "-//W3C//DTD SVG 1.1//EN"
 "http://www.w3.org/Graphics/SVG/1.1/DTD/svg11.dtd">
<!-- Generated by graphviz version 14.0.4 (0)
 -->
<!-- Title: main Pages: 1 -->
<svg width="727pt" height="759pt"
 viewBox="0.00 0.00 727.00 759.00" xmlns="http://www.w3.org/2000/svg" xmlns:xlink="http://www.w3.org/1999/xlink">
<g id="graph0" class="graph" transform="scale(1 1) rotate(0) translate(4 754.75)">
<title>main</title>
<!-- Node1 -->
<g id="Node000001" class="node">
<title>Node1</title>
<g id="a_Node000001"><a xlink:title="Função principal: inicializa periféricos e roda loop().">
<polygon fill="#999999" stroke="#666666" points="40.75,-364.75 0,-364.75 0,-344 40.75,-344 40.75,-364.75"/>
<text xml:space="preserve" text-anchor="middle" x="20.38" y="-351.25" font-family="Helvetica,sans-Serif" font-size="10.00">main</text>
</a>
</g>
</g>
<!-- Node2 -->
<g id="Node000002" class="node">
<title>Node2</title>
<g id="a_Node000002"><a xlink:href="carrinho_8c.html#a1fc0a8f5b026eb5e606e738ca5434d2d" target="_top" xlink:title="Configura o ADC e os PWM usados.">
<polygon fill="white" stroke="#666666" points="183.12,-750.75 101.88,-750.75 101.88,-730 183.12,-730 183.12,-750.75"/>
<text xml:space="preserve" text-anchor="middle" x="142.5" y="-737.25" font-family="Helvetica,sans-Serif" font-size="10.00">analog_setup</text>
</a>
</g>
</g>
<!-- Node1&#45;&gt;Node2 -->
<g id="edge1_Node000001_Node000002" class="edge">
<title>Node1&#45;&gt;Node2</title>
<g id="a_edge1_Node000001_Node000002"><a xlink:title=" ">
<path fill="none" stroke="#63b8ff" d="M21.59,-365.11C22.88,-419.07 31.16,-660.44 76.75,-716.38 80.73,-721.25 85.79,-725.14 91.34,-728.24"/>
<polygon fill="#63b8ff" stroke="#63b8ff" points="89.78,-731.37 100.33,-732.37 92.71,-725.01 89.78,-731.37"/>
</a>
</g>
</g>
<!-- Node3 -->
<g id="Node000003" class="node">
<title>Node3</title>
<g id="a_Node000003"><a xlink:href="carrinho_8c.html#afe461d27b9c48d5921c00d521181f12f" target="_top" xlink:title="Laço principal contendo toda a lógica do robô.">
<polygon fill="white" stroke="#666666" points="161,-500.75 124,-500.75 124,-480 161,-480 161,-500.75"/>
<text xml:space="preserve" text-anchor="middle" x="142.5" y="-487.25" font-family="Helvetica,sans-Serif" font-size="10.00">loop</text>
</a>
</g>
</g>
<!-- Node1&#45;&gt;Node3 -->
<g id="edge2_Node000001_Node000003" class="edge">
<title>Node1&#45;&gt;Node3</title>
<g id="a_edge2_Node000001_Node000003"><a xlink:title=" ">
<path fill="none" stroke="#63b8ff" d="M30.8,-365.05C51.06,-387.99 99.01,-442.26 124.64,-471.29"/>
<polygon fill="#63b8ff" stroke="#63b8ff" points="121.87,-473.44 131.12,-478.62 127.12,-468.81 121.87,-473.44"/>
</a>
</g>
</g>
<!-- Node7 -->
<g id="Node000007" class="node">
<title>Node7</title>
<g id="a_Node000007"><a xlink:href="carrinho_8c.html#a83f9abde8522ce95dd4c5ce5ba3d9d39" target="_top" xlink:title="Controla um motor no sentido desejado e com PWM.">
<polygon fill="white" stroke="#666666" points="464.88,-674.75 419.62,-674.75 419.62,-654 464.88,-654 464.88,-674.75"/>
<text xml:space="preserve" text-anchor="middle" x="442.25" y="-661.25" font-family="Helvetica,sans-Serif" font-size="10.00">motor</text>
</a>
</g>
</g>
<!-- Node1&#45;&gt;Node7 -->
<g id="edge32_Node000001_Node000007" class="edge">
<title>Node1&#45;&gt;Node7</title>
<g id="a_edge32_Node000001_Node000007"><a xlink:title=" ">
<path fill="none" stroke="#63b8ff" d="M23.58,-365.21C29.28,-391.49 46.2,-460.07 76.75,-509.38 133.29,-600.62 145.47,-641.35 244.25,-683.38 298.32,-706.38 368.07,-690.17 408.41,-676.87"/>
<polygon fill="#63b8ff" stroke="#63b8ff" points="409.47,-680.21 417.79,-673.64 407.19,-673.59 409.47,-680.21"/>
</a>
</g>
</g>
<!-- Node23 -->
<g id="Node000023" class="node">
<title>Node23</title>
<g id="a_Node000023"><a xlink:href="carrinho_2nrf24__avr_8c.html#ab6fb4c1aa834152310116e7dec65d8e3" target="_top" xlink:title=" ">
<polygon fill="white" stroke="#666666" points="179.38,-172.75 105.62,-172.75 105.62,-152 179.38,-152 179.38,-172.75"/>
<text xml:space="preserve" text-anchor="middle" x="142.5" y="-159.25" font-family="Helvetica,sans-Serif" font-size="10.00">nrf24_begin</text>
</a>
</g>
</g>
<!-- Node1&#45;&gt;Node23 -->
<g id="edge33_Node000001_Node000023" class="edge">
<title>Node1&#45;&gt;Node23</title>
<g id="a_edge33_Node000001_Node000023"><a xlink:title=" ">
<path fill="none" stroke="#63b8ff" d="M28.18,-343.5C47.59,-312.48 103.45,-223.18 128.77,-182.73"/>
<polygon fill="#63b8ff" stroke="#63b8ff" points="131.63,-184.75 133.97,-174.41 125.7,-181.03 131.63,-184.75"/>
</a>
</g>
</g>
<!-- Node29 -->
<g id="Node000029" class="node">
<title>Node29</title>
<g id="a_Node000029"><a xlink:href="carrinho_2nrf24__avr_8c.html#a5af2f11537aed8a56d8489355af0ff16" target="_top" xlink:title=" ">
<polygon fill="white" stroke="#666666" points="208.25,-306.75 76.75,-306.75 76.75,-286 208.25,-286 208.25,-306.75"/>
<text xml:space="preserve" text-anchor="middle" x="142.5" y="-293.25" font-family="Helvetica,sans-Serif" font-size="10.00">nrf24_openReadingPipe</text>
</a>
</g>
</g>
<!-- Node1&#45;&gt;Node29 -->
<g id="edge43_Node000001_Node000029" class="edge">
<title>Node1&#45;&gt;Node29</title>
<g id="a_edge43_Node000001_Node000029"><a xlink:title=" ">
<path fill="none" stroke="#63b8ff" d="M41.21,-344.8C59.57,-335.93 87.2,-322.59 108.82,-312.16"/>
<polygon fill="#63b8ff" stroke="#63b8ff" points="110.34,-315.31 117.82,-307.81 107.29,-309 110.34,-315.31"/>
</a>
</g>
</g>
<!-- Node30 -->
<g id="Node000030" class="node">
<title>Node30</title>
<g id="a_Node000030"><a xlink:href="carrinho_2nrf24__avr_8c.html#a49aa88b1042d6d62114cfbca271d9e2b" target="_top" xlink:title=" ">
<polygon fill="white" stroke="#666666" points="193.25,-115.75 91.75,-115.75 91.75,-95 193.25,-95 193.25,-115.75"/>
<text xml:space="preserve" text-anchor="middle" x="142.5" y="-102.25" font-family="Helvetica,sans-Serif" font-size="10.00">nrf24_setChannel</text>
</a>
</g>
</g>
<!-- Node1&#45;&gt;Node30 -->
<g id="edge45_Node000001_Node000030" class="edge">
<title>Node1&#45;&gt;Node30</title>
<g id="a_edge45_Node000001_Node000030"><a xlink:title=" ">
<path fill="none" stroke="#63b8ff" d="M21.41,-343.96C22.05,-311.05 28.04,-207.67 76.75,-143.38 83.53,-134.43 93.07,-127.2 102.75,-121.55"/>
<polygon fill="#63b8ff" stroke="#63b8ff" points="104.25,-124.72 111.44,-116.94 100.97,-118.54 104.25,-124.72"/>
</a>
</g>
</g>
<!-- Node31 -->
<g id="Node000031" class="node">
<title>Node31</title>
<g id="a_Node000031"><a xlink:href="carrinho_2nrf24__avr_8c.html#a71c5628e9583f6a6fd0871b3ae1bf6df" target="_top" xlink:title=" ">
<polygon fill="white" stroke="#666666" points="361.5,-364.75 248,-364.75 248,-344 361.5,-344 361.5,-364.75"/>
<text xml:space="preserve" text-anchor="middle" x="304.75" y="-351.25" font-family="Helvetica,sans-Serif" font-size="10.00">nrf24_startListening</text>
</a>
</g>
</g>
<!-- Node1&#45;&gt;Node31 -->
<g id="edge47_Node000001_Node000031" class="edge">
<title>Node1&#45;&gt;Node31</title>
<g id="a_edge47_Node000001_Node000031"><a xlink:title=" ">
<path fill="none" stroke="#63b8ff" d="M41.23,-354.38C81.14,-354.38 172.7,-354.38 236.38,-354.38"/>
<polygon fill="#63b8ff" stroke="#63b8ff" points="236.02,-357.88 246.02,-354.38 236.02,-350.88 236.02,-357.88"/>
</a>
</g>
</g>
<!-- Node4 -->
<g id="Node000004" class="node">
<title>Node4</title>
<g id="a_Node000004"><a xlink:href="carrinho_8c.html#aaa87dddb1e62142fd07ee17db1b5d673" target="_top" xlink:title="Retorna o valor absoluto de um inteiro.">
<polygon fill="white" stroke="#666666" points="321.38,-596.75 288.12,-596.75 288.12,-576 321.38,-576 321.38,-596.75"/>
<text xml:space="preserve" text-anchor="middle" x="304.75" y="-583.25" font-family="Helvetica,sans-Serif" font-size="10.00">abs</text>
</a>
</g>
</g>
<!-- Node3&#45;&gt;Node4 -->
<g id="edge3_Node000003_Node000004" class="edge">
<title>Node3&#45;&gt;Node4</title>
<g id="a_edge3_Node000003_Node000004"><a xlink:title=" ">
<path fill="none" stroke="#63b8ff" d="M155.05,-501.09C172.94,-517.21 208.98,-547.77 244.25,-566.38 254.41,-571.73 266.28,-576.07 276.74,-579.31"/>
<polygon fill="#63b8ff" stroke="#63b8ff" points="275.74,-582.67 286.32,-582.09 277.69,-575.94 275.74,-582.67"/>
</a>
</g>
</g>
<!-- Node5 -->
<g id="Node000005" class="node">
<title>Node5</title>
<g id="a_Node000005"><a xlink:href="carrinho_8c.html#a08bebecdd1ca2d6e7ef3f68cd452ccf9" target="_top" xlink:title="Lê um canal analógico (ADC0–ADC7).">
<polygon fill="white" stroke="#666666" points="342.75,-557.75 266.75,-557.75 266.75,-537 342.75,-537 342.75,-557.75"/>
<text xml:space="preserve" text-anchor="middle" x="304.75" y="-544.25" font-family="Helvetica,sans-Serif" font-size="10.00">analog_read</text>
</a>
</g>
</g>
<!-- Node3&#45;&gt;Node5 -->
<g id="edge4_Node000003_Node000005" class="edge">
<title>Node3&#45;&gt;Node5</title>
<g id="a_edge4_Node000003_Node000005"><a xlink:title=" ">
<path fill="none" stroke="#63b8ff" d="M161.26,-496.69C185.57,-505.34 229.91,-521.11 262.7,-532.77"/>
<polygon fill="#63b8ff" stroke="#63b8ff" points="261.31,-535.99 271.91,-536.05 263.66,-529.4 261.31,-535.99"/>
</a>
</g>
</g>
<!-- Node6 -->
<g id="Node000006" class="node">
<title>Node6</title>
<g id="a_Node000006"><a xlink:href="carrinho_8c.html#ae85c96d8ab4fe9d1b125421eaaef40e2" target="_top" xlink:title="Reduz a vida e executa a penalidade de dano.">
<polygon fill="white" stroke="#666666" points="319.15,-674.75 290.35,-674.75 290.35,-654 319.15,-654 319.15,-674.75"/>
<text xml:space="preserve" text-anchor="middle" x="304.75" y="-661.25" font-family="Helvetica,sans-Serif" font-size="10.00">hit</text>
</a>
</g>
</g>
<!-- Node3&#45;&gt;Node6 -->
<g id="edge5_Node000003_Node000006" class="edge">
<title>Node3&#45;&gt;Node6</title>
<g id="a_edge5_Node000003_Node000006"><a xlink:title=" ">
<path fill="none" stroke="#63b8ff" d="M147.57,-501.1C158.67,-528.94 192.17,-604.13 244.25,-644.38 254.36,-652.19 267.7,-657.04 279.18,-660"/>
<polygon fill="#63b8ff" stroke="#63b8ff" points="278.26,-663.39 288.78,-662.13 279.77,-656.55 278.26,-663.39"/>
</a>
</g>
</g>
<!-- Node3&#45;&gt;Node7 -->
<g id="edge12_Node000003_Node000007" class="edge">
<title>Node3&#45;&gt;Node7</title>
<g id="a_edge12_Node000003_Node000007"><a xlink:title=" ">
<path fill="none" stroke="#63b8ff" d="M161.47,-491.48C208.23,-494.65 332.32,-505.09 365.25,-528.38 405.02,-556.5 426.45,-612.36 435.66,-643.01"/>
<polygon fill="#63b8ff" stroke="#63b8ff" points="432.2,-643.63 438.28,-652.31 438.93,-641.73 432.2,-643.63"/>
</a>
</g>
</g>
<!-- Node10 -->
<g id="Node000010" class="node">
<title>Node10</title>
<g id="a_Node000010"><a xlink:href="carrinho_8c.html#a77947cc1d2af5b57aa9e7f701e2c1f51" target="_top" xlink:title="Verifica se o tempo de um timer acabou.">
<polygon fill="white" stroke="#666666" points="342.38,-442.75 267.12,-442.75 267.12,-422 342.38,-422 342.38,-442.75"/>
<text xml:space="preserve" text-anchor="middle" x="304.75" y="-429.25" font-family="Helvetica,sans-Serif" font-size="10.00">isTimerOver</text>
</a>
</g>
</g>
<!-- Node3&#45;&gt;Node10 -->
<g id="edge10_Node000003_Node000010" class="edge">
<title>Node3&#45;&gt;Node10</title>
<g id="a_edge10_Node000003_Node000010"><a xlink:title=" ">
<path fill="none" stroke="#63b8ff" d="M161.26,-483.45C181.34,-475.68 215.02,-462.8 244.25,-452.38 249.37,-450.55 254.75,-448.68 260.1,-446.84"/>
<polygon fill="#63b8ff" stroke="#63b8ff" points="261.16,-450.18 269.51,-443.65 258.91,-443.55 261.16,-450.18"/>
</a>
</g>
</g>
<!-- Node12 -->
<g id="Node000012" class="node">
<title>Node12</title>
<g id="a_Node000012"><a xlink:href="carrinho_2nrf24__avr_8c.html#a0f64caa74329fd5799a33f30bd8ebf82" target="_top" xlink:title=" ">
<polygon fill="white" stroke="#666666" points="350.62,-403.75 258.88,-403.75 258.88,-383 350.62,-383 350.62,-403.75"/>
<text xml:space="preserve" text-anchor="middle" x="304.75" y="-390.25" font-family="Helvetica,sans-Serif" font-size="10.00">nrf24_available</text>
</a>
</g>
</g>
<!-- Node3&#45;&gt;Node12 -->
<g id="edge13_Node000003_Node000012" class="edge">
<title>Node3&#45;&gt;Node12</title>
<g id="a_edge13_Node000003_Node000012"><a xlink:title=" ">
<path fill="none" stroke="#63b8ff" d="M155.02,-479.51C172.87,-463.16 208.87,-432.18 244.25,-413.38 247.67,-411.56 251.3,-409.86 254.99,-408.28"/>
<polygon fill="#63b8ff" stroke="#63b8ff" points="256.08,-411.61 264.11,-404.7 253.52,-405.1 256.08,-411.61"/>
</a>
</g>
</g>
<!-- Node18 -->
<g id="Node000018" class="node">
<title>Node18</title>
<g id="a_Node000018"><a xlink:href="carrinho_2nrf24__avr_8c.html#aa0767db791fc0b45ebadab011c1900bf" target="_top" xlink:title=" ">
<polygon fill="white" stroke="#666666" points="339,-325.75 270.5,-325.75 270.5,-305 339,-305 339,-325.75"/>
<text xml:space="preserve" text-anchor="middle" x="304.75" y="-312.25" font-family="Helvetica,sans-Serif" font-size="10.00">nrf24_read</text>
</a>
</g>
</g>
<!-- Node3&#45;&gt;Node18 -->
<g id="edge20_Node000003_Node000018" class="edge">
<title>Node3&#45;&gt;Node18</title>
<g id="a_edge20_Node000003_Node000018"><a xlink:title=" ">
<path fill="none" stroke="#63b8ff" d="M147.55,-479.58C158.6,-451.56 191.99,-375.88 244.25,-335.38 248.87,-331.79 254.16,-328.84 259.65,-326.4"/>
<polygon fill="#63b8ff" stroke="#63b8ff" points="260.8,-329.7 268.89,-322.86 258.3,-323.17 260.8,-329.7"/>
</a>
</g>
</g>
<!-- Node21 -->
<g id="Node000021" class="node">
<title>Node21</title>
<g id="a_Node000021"><a xlink:href="carrinho_8c.html#a1d20445f4dfe5c6183e929ef7221d4d4" target="_top" xlink:title="Incrementa o contador de millis. Deve ser chamado a cada 1ms.">
<polygon fill="white" stroke="#666666" points="337.5,-635.75 272,-635.75 272,-615 337.5,-615 337.5,-635.75"/>
<text xml:space="preserve" text-anchor="middle" x="304.75" y="-622.25" font-family="Helvetica,sans-Serif" font-size="10.00">timer_tick</text>
</a>
</g>
</g>
<!-- Node3&#45;&gt;Node21 -->
<g id="edge29_Node000003_Node000021" class="edge">
<title>Node3&#45;&gt;Node21</title>
<g id="a_edge29_Node000003_Node000021"><a xlink:title=" ">
<path fill="none" stroke="#63b8ff" d="M149.94,-500.92C164.16,-523.38 200.52,-576.23 244.25,-605.38 249.41,-608.81 255.21,-611.71 261.12,-614.14"/>
<polygon fill="#63b8ff" stroke="#63b8ff" points="259.73,-617.36 270.32,-617.49 262.13,-610.78 259.73,-617.36"/>
</a>
</g>
</g>
<!-- Node22 -->
<g id="Node000022" class="node">
<title>Node22</title>
<g id="a_Node000022"><a xlink:href="carrinho_8c.html#a8019f056ad898f0e555eb56190617c2b" target="_top" xlink:title="Reseta o timer para o valor atual de millis().">
<polygon fill="white" stroke="#666666" points="339.75,-481.75 269.75,-481.75 269.75,-461 339.75,-461 339.75,-481.75"/>
<text xml:space="preserve" text-anchor="middle" x="304.75" y="-468.25" font-family="Helvetica,sans-Serif" font-size="10.00">timerReset</text>
</a>
</g>
</g>
<!-- Node3&#45;&gt;Node22 -->
<g id="edge30_Node000003_Node000022" class="edge">
<title>Node3&#45;&gt;Node22</title>
<g id="a_edge30_Node000003_Node000022"><a xlink:title=" ">
<path fill="none" stroke="#63b8ff" d="M161.26,-488.27C184.41,-485.52 225.75,-480.62 257.95,-476.8"/>
<polygon fill="#63b8ff" stroke="#63b8ff" points="258.33,-480.28 267.85,-475.63 257.51,-473.33 258.33,-480.28"/>
</a>
</g>
</g>
<!-- Node6&#45;&gt;Node7 -->
<g id="edge6_Node000006_Node000007" class="edge">
<title>Node6&#45;&gt;Node7</title>
<g id="a_edge6_Node000006_Node000007"><a xlink:title=" ">
<path fill="none" stroke="#63b8ff" d="M319.49,-664.38C340.09,-664.38 379.61,-664.38 408.05,-664.38"/>
<polygon fill="#63b8ff" stroke="#63b8ff" points="407.95,-667.88 417.95,-664.38 407.95,-660.88 407.95,-667.88"/>
</a>
</g>
</g>
<!-- Node8 -->
<g id="Node000008" class="node">
<title>Node8</title>
<g id="a_Node000008"><a xlink:href="carrinho_8c.html#ac7c0935e24e573b2929d0df7f9e6b82f" target="_top" xlink:title="Define o duty de um PWM em uma das saídas configuradas.">
<polygon fill="white" stroke="#666666" points="598.25,-654.75 519.25,-654.75 519.25,-634 598.25,-634 598.25,-654.75"/>
<text xml:space="preserve" text-anchor="middle" x="558.75" y="-641.25" font-family="Helvetica,sans-Serif" font-size="10.00">analog_write</text>
</a>
</g>
</g>
<!-- Node7&#45;&gt;Node8 -->
<g id="edge7_Node000007_Node000008" class="edge">
<title>Node7&#45;&gt;Node8</title>
<g id="a_edge7_Node000007_Node000008"><a xlink:title=" ">
<path fill="none" stroke="#63b8ff" d="M465.33,-660.52C477.44,-658.4 492.99,-655.69 507.87,-653.09"/>
<polygon fill="#63b8ff" stroke="#63b8ff" points="508.31,-656.56 517.55,-651.4 507.1,-649.67 508.31,-656.56"/>
</a>
</g>
</g>
<!-- Node9 -->
<g id="Node000009" class="node">
<title>Node9</title>
<g id="a_Node000009"><a xlink:href="carrinho__ino_8ino.html#a83f9abde8522ce95dd4c5ce5ba3d9d39" target="_top" xlink:title=" ">
<polygon fill="white" stroke="#666666" points="581.38,-693.75 536.12,-693.75 536.12,-673 581.38,-673 581.38,-693.75"/>
<text xml:space="preserve" text-anchor="middle" x="558.75" y="-680.25" font-family="Helvetica,sans-Serif" font-size="10.00">motor</text>
</a>
</g>
</g>
<!-- Node7&#45;&gt;Node9 -->
<g id="edge8_Node000007_Node000009" class="edge">
<title>Node7&#45;&gt;Node9</title>
<g id="a_edge8_Node000007_Node000009"><a xlink:title=" ">
<path fill="none" stroke="#63b8ff" d="M465.33,-668.04C482.12,-670.82 505.5,-674.7 524.54,-677.86"/>
<polygon fill="#63b8ff" stroke="#63b8ff" points="523.81,-681.29 534.25,-679.48 524.96,-674.39 523.81,-681.29"/>
</a>
</g>
</g>
<!-- Node9&#45;&gt;Node9 -->
<g id="edge9_Node000009_Node000009" class="edge">
<title>Node9&#45;&gt;Node9</title>
<g id="a_edge9_Node000009_Node000009"><a xlink:title=" ">
<path fill="none" stroke="#63b8ff" d="M539.98,-694.15C532.47,-702.81 538.73,-711.75 558.75,-711.75 569.39,-711.75 576.14,-709.23 579.01,-705.56"/>
<polygon fill="#63b8ff" stroke="#63b8ff" points="582.48,-705.11 577.72,-695.65 575.54,-706.02 582.48,-705.11"/>
</a>
</g>
</g>
<!-- Node11 -->
<g id="Node000011" class="node">
<title>Node11</title>
<g id="a_Node000011"><a xlink:href="carrinho_8c.html#a6ff7f2532a22366f0013bc41397129fd" target="_top" xlink:title="Retorna o valor de millis desde o início do programa.">
<polygon fill="white" stroke="#666666" points="463.75,-461.75 420.75,-461.75 420.75,-441 463.75,-441 463.75,-461.75"/>
<text xml:space="preserve" text-anchor="middle" x="442.25" y="-448.25" font-family="Helvetica,sans-Serif" font-size="10.00">millis</text>
</a>
</g>
</g>
<!-- Node10&#45;&gt;Node11 -->
<g id="edge11_Node000010_Node000011" class="edge">
<title>Node10&#45;&gt;Node11</title>
<g id="a_edge11_Node000010_Node000011"><a xlink:title=" ">
<path fill="none" stroke="#63b8ff" d="M342.78,-437.57C363.51,-440.47 389.11,-444.06 409.01,-446.85"/>
<polygon fill="#63b8ff" stroke="#63b8ff" points="408.39,-450.3 418.78,-448.22 409.37,-443.37 408.39,-450.3"/>
</a>
</g>
</g>
<!-- Node13 -->
<g id="Node000013" class="node">
<title>Node13</title>
<g id="a_Node000013"><a xlink:href="carrinho_2nrf24__avr_8c.html#abefdb1d58b989853c0646a6c8b18b7d3" target="_top" xlink:title=" ">
<polygon fill="white" stroke="#666666" points="471.62,-346.75 412.88,-346.75 412.88,-326 471.62,-326 471.62,-346.75"/>
<text xml:space="preserve" text-anchor="middle" x="442.25" y="-333.25" font-family="Helvetica,sans-Serif" font-size="10.00">read_reg</text>
</a>
</g>
</g>
<!-- Node12&#45;&gt;Node13 -->
<g id="edge14_Node000012_Node000013" class="edge">
<title>Node12&#45;&gt;Node13</title>
<g id="a_edge14_Node000012_Node000013"><a xlink:title=" ">
<path fill="none" stroke="#63b8ff" d="M340.32,-382.59C348.57,-379.79 357.28,-376.64 365.25,-373.38 380.62,-367.08 397.25,-359.12 411.02,-352.2"/>
<polygon fill="#63b8ff" stroke="#63b8ff" points="412.26,-355.5 419.58,-347.84 409.08,-349.26 412.26,-355.5"/>
</a>
</g>
</g>
<!-- Node14 -->
<g id="Node000014" class="node">
<title>Node14</title>
<g id="a_Node000014"><a xlink:href="carrinho_2nrf24__avr_8c.html#adaef88bc02a8e805de3b3a82bf317549" target="_top" xlink:title=" ">
<polygon fill="white" stroke="#666666" points="588.12,-267.75 529.38,-267.75 529.38,-247 588.12,-247 588.12,-267.75"/>
<text xml:space="preserve" text-anchor="middle" x="558.75" y="-254.25" font-family="Helvetica,sans-Serif" font-size="10.00">csn_high</text>
</a>
</g>
</g>
<!-- Node13&#45;&gt;Node14 -->
<g id="edge15_Node000013_Node000014" class="edge">
<title>Node13&#45;&gt;Node14</title>
<g id="a_edge15_Node000013_Node000014"><a xlink:title=" ">
<path fill="none" stroke="#63b8ff" d="M468.19,-325.66C473.38,-322.95 478.66,-319.83 483.25,-316.38 502.11,-302.2 500.5,-291.69 519.25,-277.38 520.77,-276.21 522.37,-275.08 524.02,-273.99"/>
<polygon fill="#63b8ff" stroke="#63b8ff" points="525.65,-277.09 532.46,-268.97 522.07,-271.08 525.65,-277.09"/>
</a>
</g>
</g>
<!-- Node16 -->
<g id="Node000016" class="node">
<title>Node16</title>
<g id="a_Node000016"><a xlink:href="carrinho_2nrf24__avr_8c.html#a42f8c1120431b7c37e116a4e1eac1cc2" target="_top" xlink:title=" ">
<polygon fill="white" stroke="#666666" points="586.25,-306.75 531.25,-306.75 531.25,-286 586.25,-286 586.25,-306.75"/>
<text xml:space="preserve" text-anchor="middle" x="558.75" y="-293.25" font-family="Helvetica,sans-Serif" font-size="10.00">csn_low</text>
</a>
</g>
</g>
<!-- Node13&#45;&gt;Node16 -->
<g id="edge17_Node000013_Node000016" class="edge">
<title>Node13&#45;&gt;Node16</title>
<g id="a_edge17_Node000013_Node000016"><a xlink:title=" ">
<path fill="none" stroke="#63b8ff" d="M471.85,-326.38C486.59,-321.23 504.76,-314.89 520.58,-309.36"/>
<polygon fill="#63b8ff" stroke="#63b8ff" points="521.37,-312.79 529.66,-306.19 519.06,-306.18 521.37,-312.79"/>
</a>
</g>
</g>
<!-- Node17 -->
<g id="Node000017" class="node">
<title>Node17</title>
<g id="a_Node000017"><a xlink:href="carrinho_2nrf24__avr_8c.html#a8d161d483c095113df5b69798e9cd725" target="_top" xlink:title=" ">
<polygon fill="white" stroke="#666666" points="595.62,-345.75 521.88,-345.75 521.88,-325 595.62,-325 595.62,-345.75"/>
<text xml:space="preserve" text-anchor="middle" x="558.75" y="-332.25" font-family="Helvetica,sans-Serif" font-size="10.00">spi_transfer</text>
</a>
</g>
</g>
<!-- Node13&#45;&gt;Node17 -->
<g id="edge19_Node000013_Node000017" class="edge">
<title>Node13&#45;&gt;Node17</title>
<g id="a_edge19_Node000013_Node000017"><a xlink:title=" ">
<path fill="none" stroke="#63b8ff" d="M471.85,-336.13C483.53,-336.02 497.35,-335.9 510.46,-335.79"/>
<polygon fill="#63b8ff" stroke="#63b8ff" points="510.24,-339.29 520.21,-335.7 510.18,-332.29 510.24,-339.29"/>
</a>
</g>
</g>
<!-- Node15 -->
<g id="Node000015" class="node">
<title>Node15</title>
<g id="a_Node000015"><a xlink:href="carrinho_2nrf24__avr_8c.html#a019970fc17b6b18fa4e45e0baf22c93f" target="_top" xlink:title=" ">
<polygon fill="white" stroke="#666666" points="718.5,-286.75 634.25,-286.75 634.25,-266 718.5,-266 718.5,-286.75"/>
<text xml:space="preserve" text-anchor="middle" x="676.38" y="-273.25" font-family="Helvetica,sans-Serif" font-size="10.00">digitalWrite_d</text>
</a>
</g>
</g>
<!-- Node14&#45;&gt;Node15 -->
<g id="edge16_Node000014_Node000015" class="edge">
<title>Node14&#45;&gt;Node15</title>
<g id="a_edge16_Node000014_Node000015"><a xlink:title=" ">
<path fill="none" stroke="#63b8ff" d="M588.33,-262.07C598.77,-263.79 610.94,-265.79 622.81,-267.74"/>
<polygon fill="#63b8ff" stroke="#63b8ff" points="622.1,-271.17 632.53,-269.34 623.23,-264.26 622.1,-271.17"/>
</a>
</g>
</g>
<!-- Node16&#45;&gt;Node15 -->
<g id="edge18_Node000016_Node000015" class="edge">
<title>Node16&#45;&gt;Node15</title>
<g id="a_edge18_Node000016_Node000015"><a xlink:title=" ">
<path fill="none" stroke="#63b8ff" d="M586.57,-291.74C597.29,-289.88 610.04,-287.68 622.48,-285.52"/>
<polygon fill="#63b8ff" stroke="#63b8ff" points="623.01,-288.99 632.26,-283.83 621.81,-282.09 623.01,-288.99"/>
</a>
</g>
</g>
<!-- Node19 -->
<g id="Node000019" class="node">
<title>Node19</title>
<g id="a_Node000019"><a xlink:href="carrinho_2nrf24__avr_8c.html#ac4a676257b5b86b05f4ea608636cb2cf" target="_top" xlink:title=" ">
<polygon fill="white" stroke="#666666" points="483.25,-307.75 401.25,-307.75 401.25,-287 483.25,-287 483.25,-307.75"/>
<text xml:space="preserve" text-anchor="middle" x="442.25" y="-294.25" font-family="Helvetica,sans-Serif" font-size="10.00">read_payload</text>
</a>
</g>
</g>
<!-- Node18&#45;&gt;Node19 -->
<g id="edge21_Node000018_Node000019" class="edge">
<title>Node18&#45;&gt;Node19</title>
<g id="a_edge21_Node000018_Node000019"><a xlink:title=" ">
<path fill="none" stroke="#63b8ff" d="M339.24,-310.93C354.4,-308.91 372.66,-306.49 389.51,-304.25"/>
<polygon fill="#63b8ff" stroke="#63b8ff" points="389.95,-307.72 399.4,-302.93 389.03,-300.78 389.95,-307.72"/>
</a>
</g>
</g>
<!-- Node20 -->
<g id="Node000020" class="node">
<title>Node20</title>
<g id="a_Node000020"><a xlink:href="carrinho_2nrf24__avr_8c.html#a08bc978021db604d02a6da754f73e7e2" target="_top" xlink:title=" ">
<polygon fill="white" stroke="#666666" points="473.12,-268.75 411.38,-268.75 411.38,-248 473.12,-248 473.12,-268.75"/>
<text xml:space="preserve" text-anchor="middle" x="442.25" y="-255.25" font-family="Helvetica,sans-Serif" font-size="10.00">write_reg</text>
</a>
</g>
</g>
<!-- Node18&#45;&gt;Node20 -->
<g id="edge25_Node000018_Node000020" class="edge">
<title>Node18&#45;&gt;Node20</title>
<g id="a_edge25_Node000018_Node000020"><a xlink:title=" ">
<path fill="none" stroke="#63b8ff" d="M333.06,-304.53C343.2,-300.46 354.77,-295.76 365.25,-291.38 378.73,-285.73 393.47,-279.37 406.36,-273.75"/>
<polygon fill="#63b8ff" stroke="#63b8ff" points="407.53,-277.06 415.29,-269.85 404.73,-270.65 407.53,-277.06"/>
</a>
</g>
</g>
<!-- Node19&#45;&gt;Node14 -->
<g id="edge22_Node000019_Node000014" class="edge">
<title>Node19&#45;&gt;Node14</title>
<g id="a_edge22_Node000019_Node000014"><a xlink:title=" ">
<path fill="none" stroke="#63b8ff" d="M474.24,-286.55C487.85,-281.79 504,-276.15 518.45,-271.1"/>
<polygon fill="#63b8ff" stroke="#63b8ff" points="519.38,-274.49 527.67,-267.88 517.07,-267.88 519.38,-274.49"/>
</a>
</g>
</g>
<!-- Node19&#45;&gt;Node16 -->
<g id="edge23_Node000019_Node000016" class="edge">
<title>Node19&#45;&gt;Node16</title>
<g id="a_edge23_Node000019_Node000016"><a xlink:title=" ">
<path fill="none" stroke="#63b8ff" d="M483.62,-297.02C495.28,-296.92 507.96,-296.81 519.49,-296.71"/>
<polygon fill="#63b8ff" stroke="#63b8ff" points="519.51,-300.21 529.48,-296.62 519.45,-293.21 519.51,-300.21"/>
</a>
</g>
</g>
<!-- Node19&#45;&gt;Node17 -->
<g id="edge24_Node000019_Node000017" class="edge">
<title>Node19&#45;&gt;Node17</title>
<g id="a_edge24_Node000019_Node000017"><a xlink:title=" ">
<path fill="none" stroke="#63b8ff" d="M475.75,-308.16C487.72,-312.13 501.47,-316.7 514.25,-320.94"/>
<polygon fill="#63b8ff" stroke="#63b8ff" points="513.13,-324.26 523.73,-324.08 515.34,-317.61 513.13,-324.26"/>
</a>
</g>
</g>
<!-- Node20&#45;&gt;Node14 -->
<g id="edge26_Node000020_Node000014" class="edge">
<title>Node20&#45;&gt;Node14</title>
<g id="a_edge26_Node000020_Node000014"><a xlink:title=" ">
<path fill="none" stroke="#63b8ff" d="M473.33,-258.11C486.93,-257.99 503.18,-257.85 517.78,-257.72"/>
<polygon fill="#63b8ff" stroke="#63b8ff" points="517.57,-261.23 527.54,-257.64 517.51,-254.23 517.57,-261.23"/>
</a>
</g>
</g>
<!-- Node20&#45;&gt;Node16 -->
<g id="edge27_Node000020_Node000016" class="edge">
<title>Node20&#45;&gt;Node16</title>
<g id="a_edge27_Node000020_Node000016"><a xlink:title=" ">
<path fill="none" stroke="#63b8ff" d="M473.33,-268.36C487.73,-273.14 505.11,-278.9 520.35,-283.96"/>
<polygon fill="#63b8ff" stroke="#63b8ff" points="518.96,-287.19 529.55,-287.02 521.17,-280.55 518.96,-287.19"/>
</a>
</g>
</g>
<!-- Node20&#45;&gt;Node17 -->
<g id="edge28_Node000020_Node000017" class="edge">
<title>Node20&#45;&gt;Node17</title>
<g id="a_edge28_Node000020_Node000017"><a xlink:title=" ">
<path fill="none" stroke="#63b8ff" d="M468.12,-269.19C473.31,-271.88 478.61,-274.98 483.25,-278.38 501.77,-291.92 500.83,-301.69 519.25,-315.38 520.97,-316.66 522.79,-317.9 524.66,-319.1"/>
<polygon fill="#63b8ff" stroke="#63b8ff" points="522.52,-321.9 532.92,-323.92 526.05,-315.86 522.52,-321.9"/>
</a>
</g>
</g>
<!-- Node22&#45;&gt;Node11 -->
<g id="edge31_Node000022_Node000011" class="edge">
<title>Node22&#45;&gt;Node11</title>
<g id="a_edge31_Node000022_Node000011"><a xlink:title=" ">
<path fill="none" stroke="#63b8ff" d="M339.94,-466.33C361.28,-463.18 388.55,-459.15 409.42,-456.07"/>
<polygon fill="#63b8ff" stroke="#63b8ff" points="409.7,-459.57 419.08,-454.65 408.68,-452.64 409.7,-459.57"/>
</a>
</g>
</g>
<!-- Node23&#45;&gt;Node14 -->
<g id="edge36_Node000023_Node000014" class="edge">
<title>Node23&#45;&gt;Node14</title>
<g id="a_edge36_Node000023_Node000014"><a xlink:title=" ">
<path fill="none" stroke="#63b8ff" d="M179.53,-151.71C223.99,-140.26 301.52,-125.92 365.25,-143.38 434.08,-162.23 503.26,-212.74 536.84,-239.75"/>
<polygon fill="#63b8ff" stroke="#63b8ff" points="534.21,-242.12 544.17,-245.75 538.64,-236.71 534.21,-242.12"/>
</a>
</g>
</g>
<!-- Node23&#45;&gt;Node20 -->
<g id="edge42_Node000023_Node000020" class="edge">
<title>Node23&#45;&gt;Node20</title>
<g id="a_edge42_Node000023_Node000020"><a xlink:title=" ">
<path fill="none" stroke="#63b8ff" d="M158.42,-173.1C177.42,-186.24 211.72,-208.26 244.25,-220.38 295.94,-239.62 359.07,-249.6 399.7,-254.41"/>
<polygon fill="#63b8ff" stroke="#63b8ff" points="399.21,-257.88 409.54,-255.52 399.99,-250.92 399.21,-257.88"/>
</a>
</g>
</g>
<!-- Node24 -->
<g id="Node000024" class="node">
<title>Node24</title>
<g id="a_Node000024"><a xlink:href="carrinho_2nrf24__avr_8c.html#a77c5f7c57c01266d04faea3052a47f49" target="_top" xlink:title=" ">
<polygon fill="white" stroke="#666666" points="583.62,-134.75 533.88,-134.75 533.88,-114 583.62,-114 583.62,-134.75"/>
<text xml:space="preserve" text-anchor="middle" x="558.75" y="-121.25" font-family="Helvetica,sans-Serif" font-size="10.00">ce_low</text>
</a>
</g>
</g>
<!-- Node23&#45;&gt;Node24 -->
<g id="edge34_Node000023_Node000024" class="edge">
<title>Node23&#45;&gt;Node24</title>
<g id="a_edge34_Node000023_Node000024"><a xlink:title=" ">
<path fill="none" stroke="#63b8ff" d="M161.94,-151.51C186.11,-137.51 227.42,-114.46 244.25,-110.38 342.82,-86.44 463.82,-104.72 522.5,-116.48"/>
<polygon fill="#63b8ff" stroke="#63b8ff" points="521.73,-119.89 532.23,-118.49 523.15,-113.04 521.73,-119.89"/>
</a>
</g>
</g>
<!-- Node25 -->
<g id="Node000025" class="node">
<title>Node25</title>
<g id="a_Node000025"><a xlink:href="carrinho_2nrf24__avr_8c.html#a023289d1e49bf7f3b61e0e1c5312c8cf" target="_top" xlink:title=" ">
<polygon fill="white" stroke="#666666" points="352.88,-20.75 256.62,-20.75 256.62,0 352.88,0 352.88,-20.75"/>
<text xml:space="preserve" text-anchor="middle" x="304.75" y="-7.25" font-family="Helvetica,sans-Serif" font-size="10.00">nrf24_init_hwspi</text>
</a>
</g>
</g>
<!-- Node23&#45;&gt;Node25 -->
<g id="edge37_Node000023_Node000025" class="edge">
<title>Node23&#45;&gt;Node25</title>
<g id="a_edge37_Node000023_Node000025"><a xlink:title=" ">
<path fill="none" stroke="#63b8ff" d="M170.27,-151.64C183.19,-145.32 198.05,-136.23 208.25,-124.38 236.34,-91.71 213.83,-64.88 244.25,-34.38 247.17,-31.44 250.51,-28.85 254.06,-26.57"/>
<polygon fill="#63b8ff" stroke="#63b8ff" points="255.44,-29.81 262.55,-21.95 252.1,-23.66 255.44,-29.81"/>
</a>
</g>
</g>
<!-- Node27 -->
<g id="Node000027" class="node">
<title>Node27</title>
<g id="a_Node000027"><a xlink:href="carrinho_2nrf24__avr_8c.html#aaf2900e7932ebbf7f0ecdc6bce5840e1" target="_top" xlink:title=" ">
<polygon fill="white" stroke="#666666" points="365.25,-211.75 244.25,-211.75 244.25,-191 365.25,-191 365.25,-211.75"/>
<text xml:space="preserve" text-anchor="middle" x="304.75" y="-198.25" font-family="Helvetica,sans-Serif" font-size="10.00">nrf24_setPayloadSize</text>
</a>
</g>
</g>
<!-- Node23&#45;&gt;Node27 -->
<g id="edge39_Node000023_Node000027" class="edge">
<title>Node23&#45;&gt;Node27</title>
<g id="a_edge39_Node000023_Node000027"><a xlink:title=" ">
<path fill="none" stroke="#63b8ff" d="M179.86,-171.22C200.01,-176.13 225.48,-182.33 248.07,-187.83"/>
<polygon fill="#63b8ff" stroke="#63b8ff" points="247.23,-191.22 257.77,-190.19 248.88,-184.42 247.23,-191.22"/>
</a>
</g>
</g>
<!-- Node28 -->
<g id="Node000028" class="node">
<title>Node28</title>
<g id="a_Node000028"><a xlink:href="carrinho_2nrf24__avr_8c.html#aa3db4917fa58896ce0a8027a30795033" target="_top" xlink:title=" ">
<polygon fill="white" stroke="#666666" points="339.38,-172.75 270.12,-172.75 270.12,-152 339.38,-152 339.38,-172.75"/>
<text xml:space="preserve" text-anchor="middle" x="304.75" y="-159.25" font-family="Helvetica,sans-Serif" font-size="10.00">pinMode_d</text>
</a>
</g>
</g>
<!-- Node23&#45;&gt;Node28 -->
<g id="edge41_Node000023_Node000028" class="edge">
<title>Node23&#45;&gt;Node28</title>
<g id="a_edge41_Node000023_Node000028"><a xlink:title=" ">
<path fill="none" stroke="#63b8ff" d="M179.86,-162.38C203.14,-162.38 233.53,-162.38 258.38,-162.38"/>
<polygon fill="#63b8ff" stroke="#63b8ff" points="258.21,-165.88 268.21,-162.38 258.21,-158.88 258.21,-165.88"/>
</a>
</g>
</g>
<!-- Node24&#45;&gt;Node15 -->
<g id="edge35_Node000024_Node000015" class="edge">
<title>Node24&#45;&gt;Node15</title>
<g id="a_edge35_Node000024_Node000015"><a xlink:title=" ">
<path fill="none" stroke="#63b8ff" d="M567.7,-134.82C586.84,-159.99 635.75,-224.28 660.52,-256.85"/>
<polygon fill="#63b8ff" stroke="#63b8ff" points="657.62,-258.81 666.46,-264.65 663.19,-254.57 657.62,-258.81"/>
</a>
</g>
</g>
<!-- Node26 -->
<g id="Node000026" class="node">
<title>Node26</title>
<g id="a_Node000026"><a xlink:href="carrinho_2nrf24__avr_8c.html#aa653f4dc3541758224a53eef3f04d490" target="_top" xlink:title=" ">
<polygon fill="white" stroke="#666666" points="467.88,-20.75 416.62,-20.75 416.62,0 467.88,0 467.88,-20.75"/>
<text xml:space="preserve" text-anchor="middle" x="442.25" y="-7.25" font-family="Helvetica,sans-Serif" font-size="10.00">spi_init</text>
</a>
</g>
</g>
<!-- Node25&#45;&gt;Node26 -->
<g id="edge38_Node000025_Node000026" class="edge">
<title>Node25&#45;&gt;Node26</title>
<g id="a_edge38_Node000025_Node000026"><a xlink:title=" ">
<path fill="none" stroke="#63b8ff" d="M353.14,-10.38C370.05,-10.38 388.82,-10.38 404.68,-10.38"/>
<polygon fill="#63b8ff" stroke="#63b8ff" points="404.64,-13.88 414.64,-10.38 404.64,-6.88 404.64,-13.88"/>
</a>
</g>
</g>
<!-- Node27&#45;&gt;Node20 -->
<g id="edge40_Node000027_Node000020" class="edge">
<title>Node27&#45;&gt;Node20</title>
<g id="a_edge40_Node000027_Node000020"><a xlink:title=" ">
<path fill="none" stroke="#63b8ff" d="M333.06,-212.22C343.2,-216.29 354.77,-220.99 365.25,-225.38 378.73,-231.02 393.47,-237.38 406.36,-243"/>
<polygon fill="#63b8ff" stroke="#63b8ff" points="404.73,-246.1 415.29,-246.9 407.53,-239.69 404.73,-246.1"/>
</a>
</g>
</g>
<!-- Node29&#45;&gt;Node20 -->
<g id="edge44_Node000029_Node000020" class="edge">
<title>Node29&#45;&gt;Node20</title>
<g id="a_edge44_Node000029_Node000020"><a xlink:title=" ">
<path fill="none" stroke="#63b8ff" d="M208.47,-288.08C266.61,-280.66 350.1,-270.01 399.68,-263.68"/>
<polygon fill="#63b8ff" stroke="#63b8ff" points="399.95,-267.17 409.42,-262.44 399.06,-260.23 399.95,-267.17"/>
</a>
</g>
</g>
<!-- Node30&#45;&gt;Node20 -->
<g id="edge46_Node000030_Node000020" class="edge">
<title>Node30&#45;&gt;Node20</title>
<g id="a_edge46_Node000030_Node000020"><a xlink:title=" ">
<path fill="none" stroke="#63b8ff" d="M193.39,-102.99C241.21,-103.07 313.57,-109.64 365.25,-143.38 399.99,-166.05 422.53,-210.75 433.46,-237.24"/>
<polygon fill="#63b8ff" stroke="#63b8ff" points="430.09,-238.24 437,-246.27 436.61,-235.68 430.09,-238.24"/>
</a>
</g>
</g>
<!-- Node31&#45;&gt;Node13 -->
<g id="edge50_Node000031_Node000013" class="edge">
<title>Node31&#45;&gt;Node13</title>
<g id="a_edge50_Node000031_Node000013"><a xlink:title=" ">
<path fill="none" stroke="#63b8ff" d="M361.65,-346.95C374.9,-345.19 388.79,-343.34 401.18,-341.7"/>
<polygon fill="#63b8ff" stroke="#63b8ff" points="401.58,-345.18 411.03,-340.39 400.66,-338.24 401.58,-345.18"/>
</a>
</g>
</g>
<!-- Node31&#45;&gt;Node20 -->
<g id="edge51_Node000031_Node000020" class="edge">
<title>Node31&#45;&gt;Node20</title>
<g id="a_edge51_Node000031_Node000020"><a xlink:title=" ">
<path fill="none" stroke="#63b8ff" d="M349.45,-343.56C355.08,-341.08 360.52,-338.06 365.25,-334.38 388.59,-316.19 379.23,-298.14 401.25,-278.38 402.48,-277.27 403.78,-276.22 405.13,-275.2"/>
<polygon fill="#63b8ff" stroke="#63b8ff" points="406.75,-278.32 413.3,-270 402.98,-272.42 406.75,-278.32"/>
</a>
</g>
</g>
<!-- Node32 -->
<g id="Node000032" class="node">
<title>Node32</title>
<g id="a_Node000032"><a xlink:href="carrinho_2nrf24__avr_8c.html#a5336963072afb877d785bed84eb6b5f4" target="_top" xlink:title=" ">
<polygon fill="white" stroke="#666666" points="585.5,-384.75 532,-384.75 532,-364 585.5,-364 585.5,-384.75"/>
<text xml:space="preserve" text-anchor="middle" x="558.75" y="-371.25" font-family="Helvetica,sans-Serif" font-size="10.00">ce_high</text>
</a>
</g>
</g>
<!-- Node31&#45;&gt;Node32 -->
<g id="edge48_Node000031_Node000032" class="edge">
<title>Node31&#45;&gt;Node32</title>
<g id="a_edge48_Node000031_Node000032"><a xlink:title=" ">
<path fill="none" stroke="#63b8ff" d="M361.99,-358.84C410.28,-362.67 478.54,-368.09 520.38,-371.41"/>
<polygon fill="#63b8ff" stroke="#63b8ff" points="519.94,-374.89 530.19,-372.19 520.5,-367.91 519.94,-374.89"/>
</a>
</g>
</g>
<!-- Node32&#45;&gt;Node15 -->
<g id="edge49_Node000032_Node000015" class="edge">
<title>Node32&#45;&gt;Node15</title>
<g id="a_edge49_Node000032_Node000015"><a xlink:title=" ">
<path fill="none" stroke="#63b8ff" d="M583.25,-363.65C588.38,-360.91 593.64,-357.77 598.25,-354.38 621.79,-337.03 644.84,-312.42 659.52,-295.51"/>
<polygon fill="#63b8ff" stroke="#63b8ff" points="661.96,-298.04 665.78,-288.16 656.63,-293.5 661.96,-298.04"/>
</a>
</g>
</g>
</g>
</svg>
