<?xml version="1.0" encoding="UTF-8" standalone="no"?>
<!DOCTYPE svg PUBLIC "-//W3C//DTD SVG 1.1//EN"
 "http://www.w3.org/Graphics/SVG/1.1/DTD/svg11.dtd">
<!-- Generated by graphviz version 14.0.4 (0)
 -->
<!-- Title: main Pages: 1 -->
<!--zoomable 469 -->

<svg id="main" version="1.1" xmlns="http://www.w3.org/2000/svg" xmlns:xlink="http://www.w3.org/1999/xlink" xml:space="preserve" onload="init(evt)">

<style type="text/css"><![CDATA[
.node, .edge {opacity: 0.7;}
.node.selected, .edge.selected {opacity: 1;}
.edge:hover path { stroke: red; }
.edge:hover polygon { stroke: red; fill: red; }
]]></style>

<defs>
  <circle id="rim" cx="0" cy="0" r="7"/>
  <circle id="rim2" cx="0" cy="0" r="3.5"/>
  <g id="zoomPlus">
    <use xlink:href="#rim" fill="#404040"><set attributeName="fill" to="#808080" begin="zoomplus.mouseover" end="zoomplus.mouseout"/></use>
    <path d="M-4,0h8M0,-4v8" fill="none" stroke="white" stroke-width="1.5" pointer-events="none"/>
  </g>
  <g id="zoomMin">
    <use xlink:href="#rim" fill="#404040"><set attributeName="fill" to="#808080" begin="zoomminus.mouseover" end="zoomminus.mouseout"/></use>
    <path d="M-4,0h8" fill="none" stroke="white" stroke-width="1.5" pointer-events="none"/>
  </g>
  <g id="arrowUp" transform="translate(30 24)">
    <use xlink:href="#rim"/>
    <path pointer-events="none" fill="none" stroke="white" stroke-width="1.5" d="M0,-3.0v7 M-2.5,-0.5L0,-3.0L2.5,-0.5"/>
  </g>
  <g id="arrowRight" transform="rotate(90) translate(36 -43)">
    <use xlink:href="#rim"/>
    <path pointer-events="none" fill="none" stroke="white" stroke-width="1.5" d="M0,-3.0v7 M-2.5,-0.5L0,-3.0L2.5,-0.5"/>
  </g>
  <g id="arrowDown" transform="rotate(180) translate(-30 -48)">
    <use xlink:href="#rim"/>
    <path pointer-events="none" fill="none" stroke="white" stroke-width="1.5" d="M0,-3.0v7 M-2.5,-0.5L0,-3.0L2.5,-0.5"/>
  </g>
  <g id="arrowLeft" transform="rotate(270) translate(-36 17)">
    <use xlink:href="#rim"/>
    <path pointer-events="none" fill="none" stroke="white" stroke-width="1.5" d="M0,-3.0v7 M-2.5,-0.5L0,-3.0L2.5,-0.5"/>
  </g>
  <g id="resetDef">
    <use xlink:href="#rim2" fill="#404040"><set attributeName="fill" to="#808080" begin="reset.mouseover" end="reset.mouseout"/></use>
  </g>
</defs>
<script type="application/ecmascript">
var viewWidth = 721;
var viewHeight = 469;
var sectionId = 'dynsection-6';
</script>
<script type="application/ecmascript" xlink:href="svg.min.js"/>
<svg id="graph" class="graph">
<g id="viewport">
<title>main</title>
<!-- Node1 -->
<g id="Node000001" class="node">
<title>Node1</title>
<g id="a_Node000001"><a xlink:title=" ">
<polygon fill="#999999" stroke="#666666" points="40.75,-307.75 0,-307.75 0,-287 40.75,-287 40.75,-307.75"/>
<text xml:space="preserve" text-anchor="middle" x="20.38" y="-294.25" font-family="Helvetica,sans-Serif" font-size="10.00">main</text>
</a>
</g>
</g>
<!-- Node2 -->
<g id="Node000002" class="node">
<title>Node2</title>
<g id="a_Node000002"><a xlink:href="carrinho_8c.html#a1fc0a8f5b026eb5e606e738ca5434d2d" target="_top" xlink:title=" ">
<polygon fill="white" stroke="#666666" points="183.12,-403.75 101.88,-403.75 101.88,-383 183.12,-383 183.12,-403.75"/>
<text xml:space="preserve" text-anchor="middle" x="142.5" y="-390.25" font-family="Helvetica,sans-Serif" font-size="10.00">analog_setup</text>
</a>
</g>
</g>
<!-- Node1&#45;&gt;Node2 -->
<g id="edge1_Node000001_Node000002" class="edge">
<title>Node1&#45;&gt;Node2</title>
<g id="a_edge1_Node000001_Node000002"><a xlink:title=" ">
<path fill="none" stroke="#63b8ff" d="M27.08,-308.19C35.81,-323.78 53.9,-352.54 76.75,-369.38 81.28,-372.71 86.32,-375.63 91.54,-378.18"/>
<polygon fill="#63b8ff" stroke="#63b8ff" points="89.75,-381.21 100.31,-382.01 92.55,-374.8 89.75,-381.21"/>
</a>
</g>
</g>
<!-- Node3 -->
<g id="Node000003" class="node">
<title>Node3</title>
<g id="a_Node000003"><a xlink:href="carrinho_8c.html#afe461d27b9c48d5921c00d521181f12f" target="_top" xlink:title=" ">
<polygon fill="white" stroke="#666666" points="161,-327.75 124,-327.75 124,-307 161,-307 161,-327.75"/>
<text xml:space="preserve" text-anchor="middle" x="142.5" y="-314.25" font-family="Helvetica,sans-Serif" font-size="10.00">loop</text>
</a>
</g>
</g>
<!-- Node1&#45;&gt;Node3 -->
<g id="edge2_Node000001_Node000003" class="edge">
<title>Node1&#45;&gt;Node3</title>
<g id="a_edge2_Node000001_Node000003"><a xlink:title=" ">
<path fill="none" stroke="#63b8ff" d="M41.21,-300.68C60.55,-303.9 90.2,-308.83 112.24,-312.5"/>
<polygon fill="#63b8ff" stroke="#63b8ff" points="111.67,-315.96 122.1,-314.15 112.81,-309.05 111.67,-315.96"/>
</a>
</g>
</g>
<!-- Node15 -->
<g id="Node000015" class="node">
<title>Node15</title>
<g id="a_Node000015"><a xlink:href="nrf24__avr_8c.html#ab6fb4c1aa834152310116e7dec65d8e3" target="_top" xlink:title=" ">
<polygon fill="white" stroke="#666666" points="179.38,-135.75 105.62,-135.75 105.62,-115 179.38,-115 179.38,-135.75"/>
<text xml:space="preserve" text-anchor="middle" x="142.5" y="-122.25" font-family="Helvetica,sans-Serif" font-size="10.00">nrf24_begin</text>
</a>
</g>
</g>
<!-- Node1&#45;&gt;Node15 -->
<g id="edge22_Node000001_Node000015" class="edge">
<title>Node1&#45;&gt;Node15</title>
<g id="a_edge22_Node000001_Node000015"><a xlink:title=" ">
<path fill="none" stroke="#63b8ff" d="M28.89,-286.62C48.61,-258.38 102.07,-181.83 127.58,-145.3"/>
<polygon fill="#63b8ff" stroke="#63b8ff" points="130.27,-147.57 133.12,-137.37 124.53,-143.57 130.27,-147.57"/>
</a>
</g>
</g>
<!-- Node21 -->
<g id="Node000021" class="node">
<title>Node21</title>
<g id="a_Node000021"><a xlink:href="nrf24__avr_8c.html#a5af2f11537aed8a56d8489355af0ff16" target="_top" xlink:title=" ">
<polygon fill="white" stroke="#666666" points="208.25,-249.75 76.75,-249.75 76.75,-229 208.25,-229 208.25,-249.75"/>
<text xml:space="preserve" text-anchor="middle" x="142.5" y="-236.25" font-family="Helvetica,sans-Serif" font-size="10.00">nrf24_openReadingPipe</text>
</a>
</g>
</g>
<!-- Node1&#45;&gt;Node21 -->
<g id="edge32_Node000001_Node000021" class="edge">
<title>Node1&#45;&gt;Node21</title>
<g id="a_edge32_Node000001_Node000021"><a xlink:title=" ">
<path fill="none" stroke="#63b8ff" d="M34.33,-286.8C45.13,-278.42 61.22,-266.89 76.75,-259.38 80.75,-257.44 84.97,-255.64 89.27,-253.98"/>
<polygon fill="#63b8ff" stroke="#63b8ff" points="90.36,-257.31 98.6,-250.65 88,-250.72 90.36,-257.31"/>
</a>
</g>
</g>
<!-- Node22 -->
<g id="Node000022" class="node">
<title>Node22</title>
<g id="a_Node000022"><a xlink:href="nrf24__avr_8c.html#a49aa88b1042d6d62114cfbca271d9e2b" target="_top" xlink:title=" ">
<polygon fill="white" stroke="#666666" points="193.25,-288.75 91.75,-288.75 91.75,-268 193.25,-268 193.25,-288.75"/>
<text xml:space="preserve" text-anchor="middle" x="142.5" y="-275.25" font-family="Helvetica,sans-Serif" font-size="10.00">nrf24_setChannel</text>
</a>
</g>
</g>
<!-- Node1&#45;&gt;Node22 -->
<g id="edge34_Node000001_Node000022" class="edge">
<title>Node1&#45;&gt;Node22</title>
<g id="a_edge34_Node000001_Node000022"><a xlink:title=" ">
<path fill="none" stroke="#63b8ff" d="M41.21,-294.24C51.99,-292.53 65.97,-290.32 80.05,-288.09"/>
<polygon fill="#63b8ff" stroke="#63b8ff" points="80.48,-291.57 89.81,-286.55 79.38,-284.66 80.48,-291.57"/>
</a>
</g>
</g>
<!-- Node23 -->
<g id="Node000023" class="node">
<title>Node23</title>
<g id="a_Node000023"><a xlink:href="nrf24__avr_8c.html#a71c5628e9583f6a6fd0871b3ae1bf6df" target="_top" xlink:title=" ">
<polygon fill="white" stroke="#666666" points="361.5,-460.75 248,-460.75 248,-440 361.5,-440 361.5,-460.75"/>
<text xml:space="preserve" text-anchor="middle" x="304.75" y="-447.25" font-family="Helvetica,sans-Serif" font-size="10.00">nrf24_startListening</text>
</a>
</g>
</g>
<!-- Node1&#45;&gt;Node23 -->
<g id="edge36_Node000001_Node000023" class="edge">
<title>Node1&#45;&gt;Node23</title>
<g id="a_edge36_Node000001_Node000023"><a xlink:title=" ">
<path fill="none" stroke="#63b8ff" d="M33.82,-307.97C44.57,-316.67 60.85,-328.74 76.75,-336.38 131.6,-362.7 159.47,-338.03 208.25,-374.38 231.98,-392.05 220.91,-412.19 244.25,-430.38 246.02,-431.76 247.9,-433.05 249.84,-434.25"/>
<polygon fill="#63b8ff" stroke="#63b8ff" points="248.22,-437.35 258.71,-438.86 251.46,-431.14 248.22,-437.35"/>
</a>
</g>
</g>
<!-- Node4 -->
<g id="Node000004" class="node">
<title>Node4</title>
<g id="a_Node000004"><a xlink:href="carrinho_8c.html#a83f9abde8522ce95dd4c5ce5ba3d9d39" target="_top" xlink:title=" ">
<polygon fill="white" stroke="#666666" points="327.38,-364.75 282.12,-364.75 282.12,-344 327.38,-344 327.38,-364.75"/>
<text xml:space="preserve" text-anchor="middle" x="304.75" y="-351.25" font-family="Helvetica,sans-Serif" font-size="10.00">motor</text>
</a>
</g>
</g>
<!-- Node3&#45;&gt;Node4 -->
<g id="edge3_Node000003_Node000004" class="edge">
<title>Node3&#45;&gt;Node4</title>
<g id="a_edge3_Node000003_Node000004"><a xlink:title=" ">
<path fill="none" stroke="#63b8ff" d="M161.26,-321.48C187.65,-327.57 237.66,-339.11 270.85,-346.78"/>
<polygon fill="#63b8ff" stroke="#63b8ff" points="269.82,-350.13 280.35,-348.97 271.39,-343.31 269.82,-350.13"/>
</a>
</g>
</g>
<!-- Node6 -->
<g id="Node000006" class="node">
<title>Node6</title>
<g id="a_Node000006"><a xlink:href="nrf24__avr_8c.html#a0f64caa74329fd5799a33f30bd8ebf82" target="_top" xlink:title=" ">
<polygon fill="white" stroke="#666666" points="350.62,-421.75 258.88,-421.75 258.88,-401 350.62,-401 350.62,-421.75"/>
<text xml:space="preserve" text-anchor="middle" x="304.75" y="-408.25" font-family="Helvetica,sans-Serif" font-size="10.00">nrf24_available</text>
</a>
</g>
</g>
<!-- Node3&#45;&gt;Node6 -->
<g id="edge6_Node000003_Node000006" class="edge">
<title>Node3&#45;&gt;Node6</title>
<g id="a_edge6_Node000003_Node000006"><a xlink:title=" ">
<path fill="none" stroke="#63b8ff" d="M161.38,-320.99C175.22,-324.46 194.32,-330.77 208.25,-341.38 230.03,-357.97 222.21,-375.12 244.25,-391.38 246.28,-392.87 248.43,-394.26 250.66,-395.55"/>
<polygon fill="#63b8ff" stroke="#63b8ff" points="248.98,-398.62 259.49,-399.92 252.08,-392.35 248.98,-398.62"/>
</a>
</g>
</g>
<!-- Node12 -->
<g id="Node000012" class="node">
<title>Node12</title>
<g id="a_Node000012"><a xlink:href="nrf24__avr_8c.html#aa0767db791fc0b45ebadab011c1900bf" target="_top" xlink:title=" ">
<polygon fill="white" stroke="#666666" points="339,-325.75 270.5,-325.75 270.5,-305 339,-305 339,-325.75"/>
<text xml:space="preserve" text-anchor="middle" x="304.75" y="-312.25" font-family="Helvetica,sans-Serif" font-size="10.00">nrf24_read</text>
</a>
</g>
</g>
<!-- Node3&#45;&gt;Node12 -->
<g id="edge13_Node000003_Node000012" class="edge">
<title>Node3&#45;&gt;Node12</title>
<g id="a_edge13_Node000003_Node000012"><a xlink:title=" ">
<path fill="none" stroke="#63b8ff" d="M161.26,-317.15C184.63,-316.86 226.53,-316.34 258.86,-315.94"/>
<polygon fill="#63b8ff" stroke="#63b8ff" points="258.82,-319.44 268.77,-315.81 258.73,-312.44 258.82,-319.44"/>
</a>
</g>
</g>
<!-- Node4&#45;&gt;Node4 -->
<g id="edge5_Node000004_Node000004" class="edge">
<title>Node4&#45;&gt;Node4</title>
<g id="a_edge5_Node000004_Node000004"><a xlink:title=" ">
<path fill="none" stroke="#63b8ff" d="M282.59,-365.15C273.73,-373.81 281.12,-382.75 304.75,-382.75 317.67,-382.75 325.74,-380.08 328.95,-376.24"/>
<polygon fill="#63b8ff" stroke="#63b8ff" points="332.43,-375.84 327.18,-366.64 325.55,-377.1 332.43,-375.84"/>
</a>
</g>
</g>
<!-- Node5 -->
<g id="Node000005" class="node">
<title>Node5</title>
<g id="a_Node000005"><a xlink:href="carrinho_8c.html#ac7c0935e24e573b2929d0df7f9e6b82f" target="_top" xlink:title=" ">
<polygon fill="white" stroke="#666666" points="481.75,-364.75 402.75,-364.75 402.75,-344 481.75,-344 481.75,-364.75"/>
<text xml:space="preserve" text-anchor="middle" x="442.25" y="-351.25" font-family="Helvetica,sans-Serif" font-size="10.00">analog_write</text>
</a>
</g>
</g>
<!-- Node4&#45;&gt;Node5 -->
<g id="edge4_Node000004_Node000005" class="edge">
<title>Node4&#45;&gt;Node5</title>
<g id="a_edge4_Node000004_Node000005"><a xlink:title=" ">
<path fill="none" stroke="#63b8ff" d="M327.82,-354.38C344.92,-354.38 369.29,-354.38 391.06,-354.38"/>
<polygon fill="#63b8ff" stroke="#63b8ff" points="390.97,-357.88 400.97,-354.38 390.97,-350.88 390.97,-357.88"/>
</a>
</g>
</g>
<!-- Node7 -->
<g id="Node000007" class="node">
<title>Node7</title>
<g id="a_Node000007"><a xlink:href="nrf24__avr_8c.html#abefdb1d58b989853c0646a6c8b18b7d3" target="_top" xlink:title=" ">
<polygon fill="white" stroke="#666666" points="471.62,-403.75 412.88,-403.75 412.88,-383 471.62,-383 471.62,-403.75"/>
<text xml:space="preserve" text-anchor="middle" x="442.25" y="-390.25" font-family="Helvetica,sans-Serif" font-size="10.00">read_reg</text>
</a>
</g>
</g>
<!-- Node6&#45;&gt;Node7 -->
<g id="edge7_Node000006_Node000007" class="edge">
<title>Node6&#45;&gt;Node7</title>
<g id="a_edge7_Node000006_Node000007"><a xlink:title=" ">
<path fill="none" stroke="#63b8ff" d="M350.87,-405.38C367.22,-403.21 385.57,-400.77 401.43,-398.66"/>
<polygon fill="#63b8ff" stroke="#63b8ff" points="401.53,-402.18 410.98,-397.4 400.61,-395.24 401.53,-402.18"/>
</a>
</g>
</g>
<!-- Node8 -->
<g id="Node000008" class="node">
<title>Node8</title>
<g id="a_Node000008"><a xlink:href="nrf24__avr_8c.html#adaef88bc02a8e805de3b3a82bf317549" target="_top" xlink:title=" ">
<polygon fill="white" stroke="#666666" points="585.5,-286.75 526.75,-286.75 526.75,-266 585.5,-266 585.5,-286.75"/>
<text xml:space="preserve" text-anchor="middle" x="556.12" y="-273.25" font-family="Helvetica,sans-Serif" font-size="10.00">csn_high</text>
</a>
</g>
</g>
<!-- Node7&#45;&gt;Node8 -->
<g id="edge8_Node000007_Node000008" class="edge">
<title>Node7&#45;&gt;Node8</title>
<g id="a_edge8_Node000007_Node000008"><a xlink:title=" ">
<path fill="none" stroke="#63b8ff" d="M471.15,-382.51C475.55,-379.96 479.78,-376.93 483.25,-373.38 509.61,-346.31 493.51,-324.02 519.25,-296.38 520.08,-295.49 520.95,-294.63 521.86,-293.8"/>
<polygon fill="#63b8ff" stroke="#63b8ff" points="523.68,-296.82 529.63,-288.05 519.51,-291.19 523.68,-296.82"/>
</a>
</g>
</g>
<!-- Node10 -->
<g id="Node000010" class="node">
<title>Node10</title>
<g id="a_Node000010"><a xlink:href="nrf24__avr_8c.html#a42f8c1120431b7c37e116a4e1eac1cc2" target="_top" xlink:title=" ">
<polygon fill="white" stroke="#666666" points="583.62,-364.75 528.62,-364.75 528.62,-344 583.62,-344 583.62,-364.75"/>
<text xml:space="preserve" text-anchor="middle" x="556.12" y="-351.25" font-family="Helvetica,sans-Serif" font-size="10.00">csn_low</text>
</a>
</g>
</g>
<!-- Node7&#45;&gt;Node10 -->
<g id="edge10_Node000007_Node000010" class="edge">
<title>Node7&#45;&gt;Node10</title>
<g id="a_edge10_Node000007_Node000010"><a xlink:title=" ">
<path fill="none" stroke="#63b8ff" d="M472.06,-383.33C486.02,-378.46 502.96,-372.56 517.89,-367.36"/>
<polygon fill="#63b8ff" stroke="#63b8ff" points="518.61,-370.81 526.9,-364.21 516.31,-364.2 518.61,-370.81"/>
</a>
</g>
</g>
<!-- Node11 -->
<g id="Node000011" class="node">
<title>Node11</title>
<g id="a_Node000011"><a xlink:href="nrf24__avr_8c.html#a8d161d483c095113df5b69798e9cd725" target="_top" xlink:title=" ">
<polygon fill="white" stroke="#666666" points="593,-325.75 519.25,-325.75 519.25,-305 593,-305 593,-325.75"/>
<text xml:space="preserve" text-anchor="middle" x="556.12" y="-312.25" font-family="Helvetica,sans-Serif" font-size="10.00">spi_transfer</text>
</a>
</g>
</g>
<!-- Node7&#45;&gt;Node11 -->
<g id="edge12_Node000007_Node000011" class="edge">
<title>Node7&#45;&gt;Node11</title>
<g id="a_edge12_Node000007_Node000011"><a xlink:title=" ">
<path fill="none" stroke="#63b8ff" d="M468.16,-382.61C473.35,-379.91 478.63,-376.8 483.25,-373.38 501.94,-359.52 500.88,-349.65 519.25,-335.38 520.72,-334.23 522.27,-333.11 523.85,-332.03"/>
<polygon fill="#63b8ff" stroke="#63b8ff" points="525.28,-335.26 531.92,-327 521.58,-329.32 525.28,-335.26"/>
</a>
</g>
</g>
<!-- Node9 -->
<g id="Node000009" class="node">
<title>Node9</title>
<g id="a_Node000009"><a xlink:href="nrf24__avr_8c.html#a019970fc17b6b18fa4e45e0baf22c93f" target="_top" xlink:title=" ">
<polygon fill="white" stroke="#666666" points="713.25,-325.75 629,-325.75 629,-305 713.25,-305 713.25,-325.75"/>
<text xml:space="preserve" text-anchor="middle" x="671.12" y="-312.25" font-family="Helvetica,sans-Serif" font-size="10.00">digitalWrite_d</text>
</a>
</g>
</g>
<!-- Node8&#45;&gt;Node9 -->
<g id="edge9_Node000008_Node000009" class="edge">
<title>Node8&#45;&gt;Node9</title>
<g id="a_edge9_Node000008_Node000009"><a xlink:title=" ">
<path fill="none" stroke="#63b8ff" d="M585.93,-286.32C598.85,-290.78 614.34,-296.12 628.5,-301.01"/>
<polygon fill="#63b8ff" stroke="#63b8ff" points="626.96,-304.18 637.56,-304.14 629.25,-297.56 626.96,-304.18"/>
</a>
</g>
</g>
<!-- Node10&#45;&gt;Node9 -->
<g id="edge11_Node000010_Node000009" class="edge">
<title>Node10&#45;&gt;Node9</title>
<g id="a_edge11_Node000010_Node000009"><a xlink:title=" ">
<path fill="none" stroke="#63b8ff" d="M583.9,-345.13C597.14,-340.56 613.41,-334.95 628.25,-329.83"/>
<polygon fill="#63b8ff" stroke="#63b8ff" points="628.99,-333.28 637.3,-326.7 626.7,-326.66 628.99,-333.28"/>
</a>
</g>
</g>
<!-- Node13 -->
<g id="Node000013" class="node">
<title>Node13</title>
<g id="a_Node000013"><a xlink:href="nrf24__avr_8c.html#ac4a676257b5b86b05f4ea608636cb2cf" target="_top" xlink:title=" ">
<polygon fill="white" stroke="#666666" points="483.25,-325.75 401.25,-325.75 401.25,-305 483.25,-305 483.25,-325.75"/>
<text xml:space="preserve" text-anchor="middle" x="442.25" y="-312.25" font-family="Helvetica,sans-Serif" font-size="10.00">read_payload</text>
</a>
</g>
</g>
<!-- Node12&#45;&gt;Node13 -->
<g id="edge14_Node000012_Node000013" class="edge">
<title>Node12&#45;&gt;Node13</title>
<g id="a_edge14_Node000012_Node000013"><a xlink:title=" ">
<path fill="none" stroke="#63b8ff" d="M339.24,-315.38C354.4,-315.38 372.66,-315.38 389.51,-315.38"/>
<polygon fill="#63b8ff" stroke="#63b8ff" points="389.39,-318.88 399.39,-315.38 389.39,-311.88 389.39,-318.88"/>
</a>
</g>
</g>
<!-- Node14 -->
<g id="Node000014" class="node">
<title>Node14</title>
<g id="a_Node000014"><a xlink:href="nrf24__avr_8c.html#a08bc978021db604d02a6da754f73e7e2" target="_top" xlink:title=" ">
<polygon fill="white" stroke="#666666" points="473.12,-286.75 411.38,-286.75 411.38,-266 473.12,-266 473.12,-286.75"/>
<text xml:space="preserve" text-anchor="middle" x="442.25" y="-273.25" font-family="Helvetica,sans-Serif" font-size="10.00">write_reg</text>
</a>
</g>
</g>
<!-- Node12&#45;&gt;Node14 -->
<g id="edge18_Node000012_Node000014" class="edge">
<title>Node12&#45;&gt;Node14</title>
<g id="a_edge18_Node000012_Node000014"><a xlink:title=" ">
<path fill="none" stroke="#63b8ff" d="M339.24,-305.73C357.59,-300.45 380.48,-293.87 399.92,-288.27"/>
<polygon fill="#63b8ff" stroke="#63b8ff" points="400.82,-291.65 409.46,-285.52 398.88,-284.93 400.82,-291.65"/>
</a>
</g>
</g>
<!-- Node13&#45;&gt;Node8 -->
<g id="edge15_Node000013_Node000008" class="edge">
<title>Node13&#45;&gt;Node8</title>
<g id="a_edge15_Node000013_Node000008"><a xlink:title=" ">
<path fill="none" stroke="#63b8ff" d="M474.41,-304.51C487.27,-300.03 502.31,-294.79 515.91,-290.05"/>
<polygon fill="#63b8ff" stroke="#63b8ff" points="516.71,-293.47 525,-286.88 514.4,-286.86 516.71,-293.47"/>
</a>
</g>
</g>
<!-- Node13&#45;&gt;Node10 -->
<g id="edge16_Node000013_Node000010" class="edge">
<title>Node13&#45;&gt;Node10</title>
<g id="a_edge16_Node000013_Node000010"><a xlink:title=" ">
<path fill="none" stroke="#63b8ff" d="M474.41,-326.24C487.78,-330.9 503.51,-336.38 517.52,-341.27"/>
<polygon fill="#63b8ff" stroke="#63b8ff" points="516.28,-344.54 526.87,-344.53 518.58,-337.93 516.28,-344.54"/>
</a>
</g>
</g>
<!-- Node13&#45;&gt;Node11 -->
<g id="edge17_Node000013_Node000011" class="edge">
<title>Node13&#45;&gt;Node11</title>
<g id="a_edge17_Node000013_Node000011"><a xlink:title=" ">
<path fill="none" stroke="#63b8ff" d="M483.64,-315.38C491.38,-315.38 499.55,-315.38 507.49,-315.38"/>
<polygon fill="#63b8ff" stroke="#63b8ff" points="507.37,-318.88 517.37,-315.38 507.37,-311.88 507.37,-318.88"/>
</a>
</g>
</g>
<!-- Node14&#45;&gt;Node8 -->
<g id="edge19_Node000014_Node000008" class="edge">
<title>Node14&#45;&gt;Node8</title>
<g id="a_edge19_Node000014_Node000008"><a xlink:title=" ">
<path fill="none" stroke="#63b8ff" d="M473.52,-276.38C486.37,-276.38 501.51,-276.38 515.24,-276.38"/>
<polygon fill="#63b8ff" stroke="#63b8ff" points="514.85,-279.88 524.85,-276.38 514.85,-272.88 514.85,-279.88"/>
</a>
</g>
</g>
<!-- Node14&#45;&gt;Node10 -->
<g id="edge20_Node000014_Node000010" class="edge">
<title>Node14&#45;&gt;Node10</title>
<g id="a_edge20_Node000014_Node000010"><a xlink:title=" ">
<path fill="none" stroke="#63b8ff" d="M468.16,-287.14C473.35,-289.84 478.63,-292.95 483.25,-296.38 501.94,-310.23 500.88,-320.1 519.25,-334.38 520.72,-335.52 522.27,-336.64 523.85,-337.72"/>
<polygon fill="#63b8ff" stroke="#63b8ff" points="521.58,-340.43 531.92,-342.75 525.28,-334.49 521.58,-340.43"/>
</a>
</g>
</g>
<!-- Node14&#45;&gt;Node11 -->
<g id="edge21_Node000014_Node000011" class="edge">
<title>Node14&#45;&gt;Node11</title>
<g id="a_edge21_Node000014_Node000011"><a xlink:title=" ">
<path fill="none" stroke="#63b8ff" d="M473.52,-286.93C485.76,-291.19 500.09,-296.19 513.29,-300.79"/>
<polygon fill="#63b8ff" stroke="#63b8ff" points="512.02,-304.06 522.62,-304.04 514.33,-297.45 512.02,-304.06"/>
</a>
</g>
</g>
<!-- Node15&#45;&gt;Node8 -->
<g id="edge25_Node000015_Node000008" class="edge">
<title>Node15&#45;&gt;Node8</title>
<g id="a_edge25_Node000015_Node000008"><a xlink:title=" ">
<path fill="none" stroke="#63b8ff" d="M179.67,-121.89C224.61,-118.89 302.96,-118.02 365.25,-140.38 436.76,-166.04 505.32,-227 536.93,-257.83"/>
<polygon fill="#63b8ff" stroke="#63b8ff" points="534.2,-260.05 543.76,-264.61 539.13,-255.08 534.2,-260.05"/>
</a>
</g>
</g>
<!-- Node15&#45;&gt;Node14 -->
<g id="edge31_Node000015_Node000014" class="edge">
<title>Node15&#45;&gt;Node14</title>
<g id="a_edge31_Node000015_Node000014"><a xlink:title=" ">
<path fill="none" stroke="#63b8ff" d="M179.85,-131.84C234.49,-142.03 334.65,-162.71 365.25,-182.38 394.25,-201.01 417.32,-234.43 430.13,-255.99"/>
<polygon fill="#63b8ff" stroke="#63b8ff" points="426.98,-257.52 434.98,-264.46 433.05,-254.04 426.98,-257.52"/>
</a>
</g>
</g>
<!-- Node16 -->
<g id="Node000016" class="node">
<title>Node16</title>
<g id="a_Node000016"><a xlink:href="nrf24__avr_8c.html#a77c5f7c57c01266d04faea3052a47f49" target="_top" xlink:title=" ">
<polygon fill="white" stroke="#666666" points="581,-172.75 531.25,-172.75 531.25,-152 581,-152 581,-172.75"/>
<text xml:space="preserve" text-anchor="middle" x="556.12" y="-159.25" font-family="Helvetica,sans-Serif" font-size="10.00">ce_low</text>
</a>
</g>
</g>
<!-- Node15&#45;&gt;Node16 -->
<g id="edge23_Node000015_Node000016" class="edge">
<title>Node15&#45;&gt;Node16</title>
<g id="a_edge23_Node000015_Node000016"><a xlink:title=" ">
<path fill="none" stroke="#63b8ff" d="M179.79,-115.92C243.13,-101.14 377.23,-77.58 483.25,-111.38 503.39,-117.79 522.72,-132.13 536.25,-143.98"/>
<polygon fill="#63b8ff" stroke="#63b8ff" points="533.78,-146.46 543.51,-150.63 538.5,-141.29 533.78,-146.46"/>
</a>
</g>
</g>
<!-- Node17 -->
<g id="Node000017" class="node">
<title>Node17</title>
<g id="a_Node000017"><a xlink:href="nrf24__avr_8c.html#a023289d1e49bf7f3b61e0e1c5312c8cf" target="_top" xlink:title=" ">
<polygon fill="white" stroke="#666666" points="352.88,-59.75 256.62,-59.75 256.62,-39 352.88,-39 352.88,-59.75"/>
<text xml:space="preserve" text-anchor="middle" x="304.75" y="-46.25" font-family="Helvetica,sans-Serif" font-size="10.00">nrf24_init_hwspi</text>
</a>
</g>
</g>
<!-- Node15&#45;&gt;Node17 -->
<g id="edge26_Node000015_Node000017" class="edge">
<title>Node15&#45;&gt;Node17</title>
<g id="a_edge26_Node000015_Node000017"><a xlink:title=" ">
<path fill="none" stroke="#63b8ff" d="M162.92,-114.66C183.02,-103.75 215.44,-86.58 244.25,-73.38 250.83,-70.36 257.9,-67.33 264.79,-64.48"/>
<polygon fill="#63b8ff" stroke="#63b8ff" points="266.02,-67.76 273.97,-60.77 263.39,-61.28 266.02,-67.76"/>
</a>
</g>
</g>
<!-- Node19 -->
<g id="Node000019" class="node">
<title>Node19</title>
<g id="a_Node000019"><a xlink:href="nrf24__avr_8c.html#aaf2900e7932ebbf7f0ecdc6bce5840e1" target="_top" xlink:title=" ">
<polygon fill="white" stroke="#666666" points="365.25,-211.75 244.25,-211.75 244.25,-191 365.25,-191 365.25,-211.75"/>
<text xml:space="preserve" text-anchor="middle" x="304.75" y="-198.25" font-family="Helvetica,sans-Serif" font-size="10.00">nrf24_setPayloadSize</text>
</a>
</g>
</g>
<!-- Node15&#45;&gt;Node19 -->
<g id="edge28_Node000015_Node000019" class="edge">
<title>Node15&#45;&gt;Node19</title>
<g id="a_edge28_Node000015_Node000019"><a xlink:title=" ">
<path fill="none" stroke="#63b8ff" d="M162.92,-136.09C183.02,-147 215.44,-164.17 244.25,-177.38 250.83,-180.39 257.9,-183.42 264.79,-186.27"/>
<polygon fill="#63b8ff" stroke="#63b8ff" points="263.39,-189.47 273.97,-189.98 266.02,-182.99 263.39,-189.47"/>
</a>
</g>
</g>
<!-- Node20 -->
<g id="Node000020" class="node">
<title>Node20</title>
<g id="a_Node000020"><a xlink:href="nrf24__avr_8c.html#aa3db4917fa58896ce0a8027a30795033" target="_top" xlink:title=" ">
<polygon fill="white" stroke="#666666" points="339.38,-20.75 270.12,-20.75 270.12,0 339.38,0 339.38,-20.75"/>
<text xml:space="preserve" text-anchor="middle" x="304.75" y="-7.25" font-family="Helvetica,sans-Serif" font-size="10.00">pinMode_d</text>
</a>
</g>
</g>
<!-- Node15&#45;&gt;Node20 -->
<g id="edge30_Node000015_Node000020" class="edge">
<title>Node15&#45;&gt;Node20</title>
<g id="a_edge30_Node000015_Node000020"><a xlink:title=" ">
<path fill="none" stroke="#63b8ff" d="M152.07,-114.68C168.17,-95.25 204.87,-53.99 244.25,-30.38 248.91,-27.58 254.02,-25.11 259.21,-22.96"/>
<polygon fill="#63b8ff" stroke="#63b8ff" points="260.34,-26.27 268.48,-19.48 257.89,-19.72 260.34,-26.27"/>
</a>
</g>
</g>
<!-- Node16&#45;&gt;Node9 -->
<g id="edge24_Node000016_Node000009" class="edge">
<title>Node16&#45;&gt;Node9</title>
<g id="a_edge24_Node000016_Node000009"><a xlink:title=" ">
<path fill="none" stroke="#63b8ff" d="M564.89,-172.89C583.6,-198.22 631.4,-262.94 655.61,-295.72"/>
<polygon fill="#63b8ff" stroke="#63b8ff" points="652.65,-297.6 661.4,-303.57 658.28,-293.44 652.65,-297.6"/>
</a>
</g>
</g>
<!-- Node18 -->
<g id="Node000018" class="node">
<title>Node18</title>
<g id="a_Node000018"><a xlink:href="nrf24__avr_8c.html#aa653f4dc3541758224a53eef3f04d490" target="_top" xlink:title=" ">
<polygon fill="white" stroke="#666666" points="467.88,-59.75 416.62,-59.75 416.62,-39 467.88,-39 467.88,-59.75"/>
<text xml:space="preserve" text-anchor="middle" x="442.25" y="-46.25" font-family="Helvetica,sans-Serif" font-size="10.00">spi_init</text>
</a>
</g>
</g>
<!-- Node17&#45;&gt;Node18 -->
<g id="edge27_Node000017_Node000018" class="edge">
<title>Node17&#45;&gt;Node18</title>
<g id="a_edge27_Node000017_Node000018"><a xlink:title=" ">
<path fill="none" stroke="#63b8ff" d="M353.14,-49.38C370.05,-49.38 388.82,-49.38 404.68,-49.38"/>
<polygon fill="#63b8ff" stroke="#63b8ff" points="404.64,-52.88 414.64,-49.38 404.64,-45.88 404.64,-52.88"/>
</a>
</g>
</g>
<!-- Node19&#45;&gt;Node14 -->
<g id="edge29_Node000019_Node000014" class="edge">
<title>Node19&#45;&gt;Node14</title>
<g id="a_edge29_Node000019_Node000014"><a xlink:title=" ">
<path fill="none" stroke="#63b8ff" d="M335.96,-212.15C345.52,-215.94 356,-220.47 365.25,-225.38 383.73,-235.17 403.3,-248.37 417.95,-258.89"/>
<polygon fill="#63b8ff" stroke="#63b8ff" points="415.87,-261.71 426.01,-264.78 420,-256.05 415.87,-261.71"/>
</a>
</g>
</g>
<!-- Node21&#45;&gt;Node14 -->
<g id="edge33_Node000021_Node000014" class="edge">
<title>Node21&#45;&gt;Node14</title>
<g id="a_edge33_Node000021_Node000014"><a xlink:title=" ">
<path fill="none" stroke="#63b8ff" d="M208.47,-247.45C266.61,-254.67 350.1,-265.05 399.68,-271.21"/>
<polygon fill="#63b8ff" stroke="#63b8ff" points="399.07,-274.66 409.42,-272.42 399.93,-267.71 399.07,-274.66"/>
</a>
</g>
</g>
<!-- Node22&#45;&gt;Node14 -->
<g id="edge35_Node000022_Node000014" class="edge">
<title>Node22&#45;&gt;Node14</title>
<g id="a_edge35_Node000022_Node000014"><a xlink:title=" ">
<path fill="none" stroke="#63b8ff" d="M193.67,-278.04C251.57,-277.65 345.73,-277.02 399.71,-276.65"/>
<polygon fill="#63b8ff" stroke="#63b8ff" points="399.42,-280.16 409.39,-276.59 399.37,-273.16 399.42,-280.16"/>
</a>
</g>
</g>
<!-- Node23&#45;&gt;Node7 -->
<g id="edge39_Node000023_Node000007" class="edge">
<title>Node23&#45;&gt;Node7</title>
<g id="a_edge39_Node000023_Node000007"><a xlink:title=" ">
<path fill="none" stroke="#63b8ff" d="M340.32,-439.59C348.57,-436.79 357.28,-433.64 365.25,-430.38 380.62,-424.08 397.25,-416.12 411.02,-409.2"/>
<polygon fill="#63b8ff" stroke="#63b8ff" points="412.26,-412.5 419.58,-404.84 409.08,-406.26 412.26,-412.5"/>
</a>
</g>
</g>
<!-- Node23&#45;&gt;Node14 -->
<g id="edge40_Node000023_Node000014" class="edge">
<title>Node23&#45;&gt;Node14</title>
<g id="a_edge40_Node000023_Node000014"><a xlink:title=" ">
<path fill="none" stroke="#63b8ff" d="M352.96,-439.61C357.52,-437.14 361.74,-434.11 365.25,-430.38 407.49,-385.44 362.24,-344.14 401.25,-296.38 401.8,-295.7 402.38,-295.04 402.99,-294.41"/>
<polygon fill="#63b8ff" stroke="#63b8ff" points="405.16,-297.15 410.81,-288.19 400.8,-291.67 405.16,-297.15"/>
</a>
</g>
</g>
<!-- Node24 -->
<g id="Node000024" class="node">
<title>Node24</title>
<g id="a_Node000024"><a xlink:href="nrf24__avr_8c.html#a5336963072afb877d785bed84eb6b5f4" target="_top" xlink:title=" ">
<polygon fill="white" stroke="#666666" points="582.88,-422.75 529.38,-422.75 529.38,-402 582.88,-402 582.88,-422.75"/>
<text xml:space="preserve" text-anchor="middle" x="556.12" y="-409.25" font-family="Helvetica,sans-Serif" font-size="10.00">ce_high</text>
</a>
</g>
</g>
<!-- Node23&#45;&gt;Node24 -->
<g id="edge37_Node000023_Node000024" class="edge">
<title>Node23&#45;&gt;Node24</title>
<g id="a_edge37_Node000023_Node000024"><a xlink:title=" ">
<path fill="none" stroke="#63b8ff" d="M361.71,-441.85C409.39,-434.58 476.56,-424.35 517.9,-418.05"/>
<polygon fill="#63b8ff" stroke="#63b8ff" points="518.23,-421.54 527.59,-416.57 517.18,-414.62 518.23,-421.54"/>
</a>
</g>
</g>
<!-- Node24&#45;&gt;Node9 -->
<g id="edge38_Node000024_Node000009" class="edge">
<title>Node24&#45;&gt;Node9</title>
<g id="a_edge38_Node000024_Node000009"><a xlink:title=" ">
<path fill="none" stroke="#63b8ff" d="M569.65,-401.62C588.83,-385.16 625.69,-353.52 649.03,-333.48"/>
<polygon fill="#63b8ff" stroke="#63b8ff" points="651.09,-336.33 656.4,-327.16 646.53,-331.02 651.09,-336.33"/>
</a>
</g>
</g>
</g>
</svg>

<g id="navigator" transform="translate(0 0)" fill="#404254">
  <rect fill="#f2f5e9" fill-opacity="0.5" stroke="#606060" stroke-width=".5" x="0" y="0" width="60" height="60"/>
  <use id="zoomplus" xlink:href="#zoomPlus" x="17" y="9" onmousedown="handleZoom(evt,'in')"/>
  <use id="zoomminus" xlink:href="#zoomMin" x="42" y="9" onmousedown="handleZoom(evt,'out')"/>
  <use id="reset" xlink:href="#resetDef" x="30" y="36" onmousedown="handleReset()"/>
   <use id="arrowup" xlink:href="#arrowUp" x="0" y="0" onmousedown="handlePan(0,-1)"/>
  <use id="arrowright" xlink:href="#arrowRight" x="0" y="0" onmousedown="handlePan(1,0)"/>
  <use id="arrowdown" xlink:href="#arrowDown" x="0" y="0" onmousedown="handlePan(0,1)"/>
  <use id="arrowleft" xlink:href="#arrowLeft" x="0" y="0" onmousedown="handlePan(-1,0)"/>
</g>
<svg viewBox="0 0 15 15" width="100%" height="30px" preserveAspectRatio="xMaxYMin meet">
 <g id="arrow_out" transform="scale(0.3 0.3)">
  <a xlink:href="carrinho_8c_ae66f6b31b5ad750f1fe042a706a4e3d4_cgraph_org.svg" target="_base">
   <rect id="button" ry="5" rx="5" y="6" x="6" height="38" width="38"
        fill="#f2f5e9" fill-opacity="0.5" stroke="#606060" stroke-width="1.0"/>
   <path id="arrow"
     d="M 11.500037,31.436501 C 11.940474,20.09759 22.043105,11.32322 32.158766,21.979434 L 37.068811,17.246167 C 37.068811,17.246167 37.088388,32 37.088388,32 L 22.160133,31.978069 C 22.160133,31.978069 26.997745,27.140456 26.997745,27.140456 C 18.528582,18.264221 13.291696,25.230495 11.500037,31.436501 z"
     style="fill:#404040;"/>
  </a>
 </g>
</svg>

<style type='text/css'>
<![CDATA[
[data-mouse-over-selected='false'] { opacity: 0.7; }
[data-mouse-over-selected='true']  { opacity: 1.0; }
]]>
</style>
<script type="application/ecmascript"><![CDATA[
document.addEventListener('DOMContentLoaded', (event) => {
  highlightEdges();
  highlightAdjacentNodes();
});
]]></script>
</svg>
