<?xml version="1.0" encoding="UTF-8" standalone="no"?>
<!DOCTYPE svg PUBLIC "-//W3C//DTD SVG 1.1//EN"
 "http://www.w3.org/Graphics/SVG/1.1/DTD/svg11.dtd">
<!-- Generated by graphviz version 14.0.4 (0)
 -->
<!-- Title: analog_write Pages: 1 -->
<svg width="271pt" height="68pt"
 viewBox="0.00 0.00 271.00 68.00" xmlns="http://www.w3.org/2000/svg" xmlns:xlink="http://www.w3.org/1999/xlink">
<g id="graph0" class="graph" transform="scale(1 1) rotate(0) translate(4 63.75)">
<title>analog_write</title>
<!-- Node1 -->
<g id="Node000001" class="node">
<title>Node1</title>
<g id="a_Node000001"><a xlink:title="Escreve um valor PWM em um pino específico.">
<polygon fill="#999999" stroke="#666666" points="263.25,-39.75 184.25,-39.75 184.25,-19 263.25,-19 263.25,-39.75"/>
<text xml:space="preserve" text-anchor="middle" x="223.75" y="-26.25" font-family="Helvetica,sans-Serif" font-size="10.00">analog_write</text>
</a>
</g>
</g>
<!-- Node2 -->
<g id="Node000002" class="node">
<title>Node2</title>
<g id="a_Node000002"><a xlink:href="codigo_8c.html#afe461d27b9c48d5921c00d521181f12f" target="_top" xlink:title="Loop principal de lógica do sistema.">
<polygon fill="white" stroke="#666666" points="144.12,-59.75 107.12,-59.75 107.12,-39 144.12,-39 144.12,-59.75"/>
<text xml:space="preserve" text-anchor="middle" x="125.62" y="-46.25" font-family="Helvetica,sans-Serif" font-size="10.00">loop</text>
</a>
</g>
</g>
<!-- Node1&#45;&gt;Node2 -->
<g id="edge1_Node000001_Node000002" class="edge">
<title>Node1&#45;&gt;Node2</title>
<g id="a_edge1_Node000001_Node000002"><a xlink:title=" ">
<path fill="none" stroke="#63b8ff" d="M172.92,-39.74C162.73,-41.86 152.65,-43.96 144.51,-45.65"/>
<polygon fill="#63b8ff" stroke="#63b8ff" points="173.37,-43.22 182.45,-37.76 171.94,-36.37 173.37,-43.22"/>
</a>
</g>
</g>
<!-- Node4 -->
<g id="Node000004" class="node">
<title>Node4</title>
<g id="a_Node000004"><a xlink:href="codigo_8c.html#a83f9abde8522ce95dd4c5ce5ba3d9d39" target="_top" xlink:title="Controla a direção e velocidade de um motor DC.">
<polygon fill="white" stroke="#666666" points="148.25,-20.75 103,-20.75 103,0 148.25,0 148.25,-20.75"/>
<text xml:space="preserve" text-anchor="middle" x="125.62" y="-7.25" font-family="Helvetica,sans-Serif" font-size="10.00">motor</text>
</a>
</g>
</g>
<!-- Node1&#45;&gt;Node4 -->
<g id="edge3_Node000001_Node000004" class="edge">
<title>Node1&#45;&gt;Node4</title>
<g id="a_edge3_Node000001_Node000004"><a xlink:title=" ">
<path fill="none" stroke="#63b8ff" d="M172.84,-19.51C164.37,-17.84 155.98,-16.18 148.72,-14.74"/>
<polygon fill="#63b8ff" stroke="#63b8ff" points="171.96,-22.9 182.44,-21.41 173.31,-16.04 171.96,-22.9"/>
</a>
</g>
</g>
<!-- Node3 -->
<g id="Node000003" class="node">
<title>Node3</title>
<g id="a_Node000003"><a xlink:href="codigo_8c.html#ae66f6b31b5ad750f1fe042a706a4e3d4" target="_top" xlink:title="Ponto de entrada do programa (Setup e Loop Infinito).">
<polygon fill="white" stroke="#666666" points="53.88,-59.75 13.12,-59.75 13.12,-39 53.88,-39 53.88,-59.75"/>
<text xml:space="preserve" text-anchor="middle" x="33.5" y="-46.25" font-family="Helvetica,sans-Serif" font-size="10.00">main</text>
</a>
</g>
</g>
<!-- Node2&#45;&gt;Node3 -->
<g id="edge2_Node000002_Node000003" class="edge">
<title>Node2&#45;&gt;Node3</title>
<g id="a_edge2_Node000002_Node000003"><a xlink:title=" ">
<path fill="none" stroke="#63b8ff" d="M95.63,-49.38C82.07,-49.38 66.28,-49.38 54.15,-49.38"/>
<polygon fill="#63b8ff" stroke="#63b8ff" points="95.31,-52.88 105.31,-49.38 95.31,-45.88 95.31,-52.88"/>
</a>
</g>
</g>
<!-- Node5 -->
<g id="Node000005" class="node">
<title>Node5</title>
<g id="a_Node000005"><a xlink:href="codigo_8c.html#a026d019671eda0cfe729200fc24d23ba" target="_top" xlink:title="Executa a rotina de &quot;Game Over&quot;.">
<polygon fill="white" stroke="#666666" points="67,-20.75 0,-20.75 0,0 67,0 67,-20.75"/>
<text xml:space="preserve" text-anchor="middle" x="33.5" y="-7.25" font-family="Helvetica,sans-Serif" font-size="10.00">gameOver</text>
</a>
</g>
</g>
<!-- Node4&#45;&gt;Node5 -->
<g id="edge4_Node000004_Node000005" class="edge">
<title>Node4&#45;&gt;Node5</title>
<g id="a_edge4_Node000004_Node000005"><a xlink:title=" ">
<path fill="none" stroke="#63b8ff" d="M91.43,-10.38C83.58,-10.38 75.21,-10.38 67.38,-10.38"/>
<polygon fill="#63b8ff" stroke="#63b8ff" points="91.29,-13.88 101.29,-10.38 91.29,-6.88 91.29,-13.88"/>
</a>
</g>
</g>
</g>
</svg>
