<?xml version="1.0" encoding="UTF-8" standalone="no"?>
<!DOCTYPE svg PUBLIC "-//W3C//DTD SVG 1.1//EN"
 "http://www.w3.org/Graphics/SVG/1.1/DTD/svg11.dtd">
<!-- Generated by graphviz version 14.0.4 (0)
 -->
<!-- Title: main Pages: 1 -->
<!--zoomable 454 -->

<svg id="main" version="1.1" xmlns="http://www.w3.org/2000/svg" xmlns:xlink="http://www.w3.org/1999/xlink" xml:space="preserve" onload="init(evt)">

<style type="text/css"><![CDATA[
.node, .edge {opacity: 0.7;}
.node.selected, .edge.selected {opacity: 1;}
.edge:hover path { stroke: red; }
.edge:hover polygon { stroke: red; fill: red; }
]]></style>

<defs>
  <circle id="rim" cx="0" cy="0" r="7"/>
  <circle id="rim2" cx="0" cy="0" r="3.5"/>
  <g id="zoomPlus">
    <use xlink:href="#rim" fill="#404040"><set attributeName="fill" to="#808080" begin="zoomplus.mouseover" end="zoomplus.mouseout"/></use>
    <path d="M-4,0h8M0,-4v8" fill="none" stroke="white" stroke-width="1.5" pointer-events="none"/>
  </g>
  <g id="zoomMin">
    <use xlink:href="#rim" fill="#404040"><set attributeName="fill" to="#808080" begin="zoomminus.mouseover" end="zoomminus.mouseout"/></use>
    <path d="M-4,0h8" fill="none" stroke="white" stroke-width="1.5" pointer-events="none"/>
  </g>
  <g id="arrowUp" transform="translate(30 24)">
    <use xlink:href="#rim"/>
    <path pointer-events="none" fill="none" stroke="white" stroke-width="1.5" d="M0,-3.0v7 M-2.5,-0.5L0,-3.0L2.5,-0.5"/>
  </g>
  <g id="arrowRight" transform="rotate(90) translate(36 -43)">
    <use xlink:href="#rim"/>
    <path pointer-events="none" fill="none" stroke="white" stroke-width="1.5" d="M0,-3.0v7 M-2.5,-0.5L0,-3.0L2.5,-0.5"/>
  </g>
  <g id="arrowDown" transform="rotate(180) translate(-30 -48)">
    <use xlink:href="#rim"/>
    <path pointer-events="none" fill="none" stroke="white" stroke-width="1.5" d="M0,-3.0v7 M-2.5,-0.5L0,-3.0L2.5,-0.5"/>
  </g>
  <g id="arrowLeft" transform="rotate(270) translate(-36 17)">
    <use xlink:href="#rim"/>
    <path pointer-events="none" fill="none" stroke="white" stroke-width="1.5" d="M0,-3.0v7 M-2.5,-0.5L0,-3.0L2.5,-0.5"/>
  </g>
  <g id="resetDef">
    <use xlink:href="#rim2" fill="#404040"><set attributeName="fill" to="#808080" begin="reset.mouseover" end="reset.mouseout"/></use>
  </g>
</defs>
<script type="application/ecmascript">
var viewWidth = 721;
var viewHeight = 454;
var sectionId = 'dynsection-6';
</script>
<script type="application/ecmascript" xlink:href="svg.min.js"/>
<svg id="graph" class="graph">
<g id="viewport">
<title>main</title>
<!-- Node1 -->
<g id="Node000001" class="node">
<title>Node1</title>
<g id="a_Node000001"><a xlink:title="Ponto de entrada do programa (Setup e Loop Infinito).">
<polygon fill="#999999" stroke="#666666" points="40.75,-310.97 0,-310.97 0,-290.22 40.75,-290.22 40.75,-310.97"/>
<text xml:space="preserve" text-anchor="middle" x="20.38" y="-297.47" font-family="Helvetica,sans-Serif" font-size="10.00">main</text>
</a>
</g>
</g>
<!-- Node2 -->
<g id="Node000002" class="node">
<title>Node2</title>
<g id="a_Node000002"><a xlink:href="codigo_8c.html#a1fc0a8f5b026eb5e606e738ca5434d2d" target="_top" xlink:title="Configura o ADC e os Timers para PWM.">
<polygon fill="white" stroke="#666666" points="183.12,-406.97 101.88,-406.97 101.88,-386.22 183.12,-386.22 183.12,-406.97"/>
<text xml:space="preserve" text-anchor="middle" x="142.5" y="-393.47" font-family="Helvetica,sans-Serif" font-size="10.00">analog_setup</text>
</a>
</g>
</g>
<!-- Node1&#45;&gt;Node2 -->
<g id="edge1_Node000001_Node000002" class="edge">
<title>Node1&#45;&gt;Node2</title>
<g id="a_edge1_Node000001_Node000002"><a xlink:title=" ">
<path fill="none" stroke="#63b8ff" d="M26.39,-311.37C34.59,-327.85 52.44,-359.23 76.75,-376.6 81.13,-379.72 86.01,-382.37 91.07,-384.61"/>
<polygon fill="#63b8ff" stroke="#63b8ff" points="89.61,-387.8 100.2,-388.12 92.12,-381.26 89.61,-387.8"/>
</a>
</g>
</g>
<!-- Node3 -->
<g id="Node000003" class="node">
<title>Node3</title>
<g id="a_Node000003"><a xlink:href="codigo_8c.html#afe461d27b9c48d5921c00d521181f12f" target="_top" xlink:title="Loop principal de lógica do sistema.">
<polygon fill="white" stroke="#666666" points="161,-367.97 124,-367.97 124,-347.22 161,-347.22 161,-367.97"/>
<text xml:space="preserve" text-anchor="middle" x="142.5" y="-354.47" font-family="Helvetica,sans-Serif" font-size="10.00">loop</text>
</a>
</g>
</g>
<!-- Node1&#45;&gt;Node3 -->
<g id="edge2_Node000001_Node000003" class="edge">
<title>Node1&#45;&gt;Node3</title>
<g id="a_edge2_Node000001_Node000003"><a xlink:title=" ">
<path fill="none" stroke="#63b8ff" d="M37.42,-311.22C48.25,-318.12 63.02,-327.03 76.75,-333.6 88.27,-339.11 101.41,-344.18 112.83,-348.24"/>
<polygon fill="#63b8ff" stroke="#63b8ff" points="111.53,-351.49 122.12,-351.43 113.8,-344.87 111.53,-351.49"/>
</a>
</g>
</g>
<!-- Node14 -->
<g id="Node000014" class="node">
<title>Node14</title>
<g id="a_Node000014"><a xlink:href="nrf24__avr_8c.html#ab6fb4c1aa834152310116e7dec65d8e3" target="_top" xlink:title=" ">
<polygon fill="white" stroke="#666666" points="179.38,-137.97 105.62,-137.97 105.62,-117.22 179.38,-117.22 179.38,-137.97"/>
<text xml:space="preserve" text-anchor="middle" x="142.5" y="-124.47" font-family="Helvetica,sans-Serif" font-size="10.00">nrf24_begin</text>
</a>
</g>
</g>
<!-- Node1&#45;&gt;Node14 -->
<g id="edge20_Node000001_Node000014" class="edge">
<title>Node1&#45;&gt;Node14</title>
<g id="a_edge20_Node000001_Node000014"><a xlink:title=" ">
<path fill="none" stroke="#63b8ff" d="M28.89,-289.77C48.61,-261.37 102.07,-184.38 127.58,-147.64"/>
<polygon fill="#63b8ff" stroke="#63b8ff" points="130.3,-149.87 133.13,-139.66 124.55,-145.87 130.3,-149.87"/>
</a>
</g>
</g>
<!-- Node20 -->
<g id="Node000020" class="node">
<title>Node20</title>
<g id="a_Node000020"><a xlink:href="nrf24__avr_8c.html#a5af2f11537aed8a56d8489355af0ff16" target="_top" xlink:title=" ">
<polygon fill="white" stroke="#666666" points="208.25,-291.97 76.75,-291.97 76.75,-271.22 208.25,-271.22 208.25,-291.97"/>
<text xml:space="preserve" text-anchor="middle" x="142.5" y="-278.47" font-family="Helvetica,sans-Serif" font-size="10.00">nrf24_openReadingPipe</text>
</a>
</g>
</g>
<!-- Node1&#45;&gt;Node20 -->
<g id="edge30_Node000001_Node000020" class="edge">
<title>Node1&#45;&gt;Node20</title>
<g id="a_edge30_Node000001_Node000020"><a xlink:title=" ">
<path fill="none" stroke="#63b8ff" d="M41.21,-297.46C48.15,-296.36 56.4,-295.05 65.16,-293.67"/>
<polygon fill="#63b8ff" stroke="#63b8ff" points="65.64,-297.14 74.97,-292.12 64.54,-290.22 65.64,-297.14"/>
</a>
</g>
</g>
<!-- Node21 -->
<g id="Node000021" class="node">
<title>Node21</title>
<g id="a_Node000021"><a xlink:href="nrf24__avr_8c.html#a49aa88b1042d6d62114cfbca271d9e2b" target="_top" xlink:title=" ">
<polygon fill="white" stroke="#666666" points="193.25,-252.97 91.75,-252.97 91.75,-232.22 193.25,-232.22 193.25,-252.97"/>
<text xml:space="preserve" text-anchor="middle" x="142.5" y="-239.47" font-family="Helvetica,sans-Serif" font-size="10.00">nrf24_setChannel</text>
</a>
</g>
</g>
<!-- Node1&#45;&gt;Node21 -->
<g id="edge32_Node000001_Node000021" class="edge">
<title>Node1&#45;&gt;Node21</title>
<g id="a_edge32_Node000001_Node000021"><a xlink:title=" ">
<path fill="none" stroke="#63b8ff" d="M34.33,-290.02C45.13,-281.64 61.22,-270.11 76.75,-262.6 80.75,-260.66 84.97,-258.86 89.27,-257.2"/>
<polygon fill="#63b8ff" stroke="#63b8ff" points="90.36,-260.53 98.6,-253.87 88,-253.94 90.36,-260.53"/>
</a>
</g>
</g>
<!-- Node22 -->
<g id="Node000022" class="node">
<title>Node22</title>
<g id="a_Node000022"><a xlink:href="nrf24__avr_8c.html#a71c5628e9583f6a6fd0871b3ae1bf6df" target="_top" xlink:title=" ">
<polygon fill="white" stroke="#666666" points="361.5,-367.97 248,-367.97 248,-347.22 361.5,-347.22 361.5,-367.97"/>
<text xml:space="preserve" text-anchor="middle" x="304.75" y="-354.47" font-family="Helvetica,sans-Serif" font-size="10.00">nrf24_startListening</text>
</a>
</g>
</g>
<!-- Node1&#45;&gt;Node22 -->
<g id="edge34_Node000001_Node000022" class="edge">
<title>Node1&#45;&gt;Node22</title>
<g id="a_edge34_Node000001_Node000022"><a xlink:title=" ">
<path fill="none" stroke="#63b8ff" d="M41.23,-304.6C81.67,-312.77 175.16,-331.64 238.92,-344.51"/>
<polygon fill="#63b8ff" stroke="#63b8ff" points="238.09,-347.91 248.58,-346.46 239.47,-341.05 238.09,-347.91"/>
</a>
</g>
</g>
<!-- Node4 -->
<g id="Node000004" class="node">
<title>Node4</title>
<g id="a_Node000004"><a xlink:href="codigo_8c.html#ac7c0935e24e573b2929d0df7f9e6b82f" target="_top" xlink:title="Escreve um valor PWM em um pino específico.">
<polygon fill="white" stroke="#666666" points="344.25,-445.97 265.25,-445.97 265.25,-425.22 344.25,-425.22 344.25,-445.97"/>
<text xml:space="preserve" text-anchor="middle" x="304.75" y="-432.47" font-family="Helvetica,sans-Serif" font-size="10.00">analog_write</text>
</a>
</g>
</g>
<!-- Node3&#45;&gt;Node4 -->
<g id="edge3_Node000003_Node000004" class="edge">
<title>Node3&#45;&gt;Node4</title>
<g id="a_edge3_Node000003_Node000004"><a xlink:title=" ">
<path fill="none" stroke="#63b8ff" d="M161.29,-360.54C174.91,-363.37 193.76,-368.59 208.25,-377.6 228.01,-389.87 224.64,-403.07 244.25,-415.6 247.52,-417.68 251.03,-419.58 254.65,-421.29"/>
<polygon fill="#63b8ff" stroke="#63b8ff" points="253.06,-424.42 263.64,-425.06 255.77,-417.96 253.06,-424.42"/>
</a>
</g>
</g>
<!-- Node5 -->
<g id="Node000005" class="node">
<title>Node5</title>
<g id="a_Node000005"><a xlink:href="nrf24__avr_8c.html#a0f64caa74329fd5799a33f30bd8ebf82" target="_top" xlink:title=" ">
<polygon fill="white" stroke="#666666" points="350.62,-406.97 258.88,-406.97 258.88,-386.22 350.62,-386.22 350.62,-406.97"/>
<text xml:space="preserve" text-anchor="middle" x="304.75" y="-393.47" font-family="Helvetica,sans-Serif" font-size="10.00">nrf24_available</text>
</a>
</g>
</g>
<!-- Node3&#45;&gt;Node5 -->
<g id="edge4_Node000003_Node000005" class="edge">
<title>Node3&#45;&gt;Node5</title>
<g id="a_edge4_Node000003_Node000005"><a xlink:title=" ">
<path fill="none" stroke="#63b8ff" d="M161.26,-361.92C182.16,-367.01 217.88,-375.7 248.33,-383.11"/>
<polygon fill="#63b8ff" stroke="#63b8ff" points="247.26,-386.45 257.8,-385.41 248.91,-379.65 247.26,-386.45"/>
</a>
</g>
</g>
<!-- Node11 -->
<g id="Node000011" class="node">
<title>Node11</title>
<g id="a_Node000011"><a xlink:href="nrf24__avr_8c.html#aa0767db791fc0b45ebadab011c1900bf" target="_top" xlink:title=" ">
<polygon fill="white" stroke="#666666" points="339,-328.97 270.5,-328.97 270.5,-308.22 339,-308.22 339,-328.97"/>
<text xml:space="preserve" text-anchor="middle" x="304.75" y="-315.47" font-family="Helvetica,sans-Serif" font-size="10.00">nrf24_read</text>
</a>
</g>
</g>
<!-- Node3&#45;&gt;Node11 -->
<g id="edge11_Node000003_Node000011" class="edge">
<title>Node3&#45;&gt;Node11</title>
<g id="a_edge11_Node000003_Node000011"><a xlink:title=" ">
<path fill="none" stroke="#63b8ff" d="M161.26,-353.27C184.73,-347.56 226.89,-337.3 259.28,-329.42"/>
<polygon fill="#63b8ff" stroke="#63b8ff" points="259.93,-332.86 268.82,-327.1 258.27,-326.06 259.93,-332.86"/>
</a>
</g>
</g>
<!-- Node6 -->
<g id="Node000006" class="node">
<title>Node6</title>
<g id="a_Node000006"><a xlink:href="nrf24__avr_8c.html#abefdb1d58b989853c0646a6c8b18b7d3" target="_top" xlink:title=" ">
<polygon fill="white" stroke="#666666" points="471.62,-348.97 412.88,-348.97 412.88,-328.22 471.62,-328.22 471.62,-348.97"/>
<text xml:space="preserve" text-anchor="middle" x="442.25" y="-335.47" font-family="Helvetica,sans-Serif" font-size="10.00">read_reg</text>
</a>
</g>
</g>
<!-- Node5&#45;&gt;Node6 -->
<g id="edge5_Node000005_Node000006" class="edge">
<title>Node5&#45;&gt;Node6</title>
<g id="a_edge5_Node000005_Node000006"><a xlink:title=" ">
<path fill="none" stroke="#63b8ff" d="M340.66,-385.77C348.81,-382.99 357.4,-379.86 365.25,-376.6 380.88,-370.1 397.77,-361.79 411.65,-354.6"/>
<polygon fill="#63b8ff" stroke="#63b8ff" points="413.04,-357.82 420.26,-350.07 409.78,-351.63 413.04,-357.82"/>
</a>
</g>
</g>
<!-- Node7 -->
<g id="Node000007" class="node">
<title>Node7</title>
<g id="a_Node000007"><a xlink:href="nrf24__avr_8c.html#adaef88bc02a8e805de3b3a82bf317549" target="_top" xlink:title=" ">
<polygon fill="white" stroke="#666666" points="585.5,-269.97 526.75,-269.97 526.75,-249.22 585.5,-249.22 585.5,-269.97"/>
<text xml:space="preserve" text-anchor="middle" x="556.12" y="-256.47" font-family="Helvetica,sans-Serif" font-size="10.00">csn_high</text>
</a>
</g>
</g>
<!-- Node6&#45;&gt;Node7 -->
<g id="edge6_Node000006_Node000007" class="edge">
<title>Node6&#45;&gt;Node7</title>
<g id="a_edge6_Node000006_Node000007"><a xlink:title=" ">
<path fill="none" stroke="#63b8ff" d="M468.19,-327.88C473.38,-325.17 478.66,-322.05 483.25,-318.6 502.11,-304.42 500.72,-294.19 519.25,-279.6 520.71,-278.44 522.25,-277.32 523.84,-276.23"/>
<polygon fill="#63b8ff" stroke="#63b8ff" points="525.27,-279.46 531.89,-271.18 521.56,-273.52 525.27,-279.46"/>
</a>
</g>
</g>
<!-- Node9 -->
<g id="Node000009" class="node">
<title>Node9</title>
<g id="a_Node000009"><a xlink:href="nrf24__avr_8c.html#a42f8c1120431b7c37e116a4e1eac1cc2" target="_top" xlink:title=" ">
<polygon fill="white" stroke="#666666" points="583.62,-308.97 528.62,-308.97 528.62,-288.22 583.62,-288.22 583.62,-308.97"/>
<text xml:space="preserve" text-anchor="middle" x="556.12" y="-295.47" font-family="Helvetica,sans-Serif" font-size="10.00">csn_low</text>
</a>
</g>
</g>
<!-- Node6&#45;&gt;Node9 -->
<g id="edge8_Node000006_Node000009" class="edge">
<title>Node6&#45;&gt;Node9</title>
<g id="a_edge8_Node000006_Node000009"><a xlink:title=" ">
<path fill="none" stroke="#63b8ff" d="M472.06,-328.29C486.02,-323.3 502.96,-317.25 517.89,-311.91"/>
<polygon fill="#63b8ff" stroke="#63b8ff" points="518.67,-315.35 526.91,-308.68 516.31,-308.76 518.67,-315.35"/>
</a>
</g>
</g>
<!-- Node10 -->
<g id="Node000010" class="node">
<title>Node10</title>
<g id="a_Node000010"><a xlink:href="nrf24__avr_8c.html#a8d161d483c095113df5b69798e9cd725" target="_top" xlink:title=" ">
<polygon fill="white" stroke="#666666" points="593,-347.97 519.25,-347.97 519.25,-327.22 593,-327.22 593,-347.97"/>
<text xml:space="preserve" text-anchor="middle" x="556.12" y="-334.47" font-family="Helvetica,sans-Serif" font-size="10.00">spi_transfer</text>
</a>
</g>
</g>
<!-- Node6&#45;&gt;Node10 -->
<g id="edge10_Node000006_Node000010" class="edge">
<title>Node6&#45;&gt;Node10</title>
<g id="a_edge10_Node000006_Node000010"><a xlink:title=" ">
<path fill="none" stroke="#63b8ff" d="M472.06,-338.34C482.85,-338.24 495.43,-338.13 507.47,-338.02"/>
<polygon fill="#63b8ff" stroke="#63b8ff" points="507.31,-341.52 517.27,-337.93 507.24,-334.52 507.31,-341.52"/>
</a>
</g>
</g>
<!-- Node8 -->
<g id="Node000008" class="node">
<title>Node8</title>
<g id="a_Node000008"><a xlink:href="nrf24__avr_8c.html#a019970fc17b6b18fa4e45e0baf22c93f" target="_top" xlink:title=" ">
<polygon fill="white" stroke="#666666" points="713.25,-288.97 629,-288.97 629,-268.22 713.25,-268.22 713.25,-288.97"/>
<text xml:space="preserve" text-anchor="middle" x="671.12" y="-275.47" font-family="Helvetica,sans-Serif" font-size="10.00">digitalWrite_d</text>
</a>
</g>
</g>
<!-- Node7&#45;&gt;Node8 -->
<g id="edge7_Node000007_Node000008" class="edge">
<title>Node7&#45;&gt;Node8</title>
<g id="a_edge7_Node000007_Node000008"><a xlink:title=" ">
<path fill="none" stroke="#63b8ff" d="M585.93,-264.44C595.54,-266.05 606.57,-267.91 617.41,-269.73"/>
<polygon fill="#63b8ff" stroke="#63b8ff" points="616.64,-273.15 627.08,-271.36 617.8,-266.25 616.64,-273.15"/>
</a>
</g>
</g>
<!-- Node9&#45;&gt;Node8 -->
<g id="edge9_Node000009_Node000008" class="edge">
<title>Node9&#45;&gt;Node8</title>
<g id="a_edge9_Node000009_Node000008"><a xlink:title=" ">
<path fill="none" stroke="#63b8ff" d="M583.9,-293.86C593.99,-292.07 605.85,-289.97 617.49,-287.91"/>
<polygon fill="#63b8ff" stroke="#63b8ff" points="617.79,-291.41 627.02,-286.22 616.57,-284.52 617.79,-291.41"/>
</a>
</g>
</g>
<!-- Node12 -->
<g id="Node000012" class="node">
<title>Node12</title>
<g id="a_Node000012"><a xlink:href="nrf24__avr_8c.html#ac4a676257b5b86b05f4ea608636cb2cf" target="_top" xlink:title=" ">
<polygon fill="white" stroke="#666666" points="483.25,-309.97 401.25,-309.97 401.25,-289.22 483.25,-289.22 483.25,-309.97"/>
<text xml:space="preserve" text-anchor="middle" x="442.25" y="-296.47" font-family="Helvetica,sans-Serif" font-size="10.00">read_payload</text>
</a>
</g>
</g>
<!-- Node11&#45;&gt;Node12 -->
<g id="edge12_Node000011_Node000012" class="edge">
<title>Node11&#45;&gt;Node12</title>
<g id="a_edge12_Node000011_Node000012"><a xlink:title=" ">
<path fill="none" stroke="#63b8ff" d="M339.24,-313.9C354.4,-311.77 372.66,-309.21 389.51,-306.85"/>
<polygon fill="#63b8ff" stroke="#63b8ff" points="389.99,-310.32 399.4,-305.46 389.01,-303.39 389.99,-310.32"/>
</a>
</g>
</g>
<!-- Node13 -->
<g id="Node000013" class="node">
<title>Node13</title>
<g id="a_Node000013"><a xlink:href="nrf24__avr_8c.html#a08bc978021db604d02a6da754f73e7e2" target="_top" xlink:title=" ">
<polygon fill="white" stroke="#666666" points="473.12,-270.97 411.38,-270.97 411.38,-250.22 473.12,-250.22 473.12,-270.97"/>
<text xml:space="preserve" text-anchor="middle" x="442.25" y="-257.47" font-family="Helvetica,sans-Serif" font-size="10.00">write_reg</text>
</a>
</g>
</g>
<!-- Node11&#45;&gt;Node13 -->
<g id="edge16_Node000011_Node000013" class="edge">
<title>Node11&#45;&gt;Node13</title>
<g id="a_edge16_Node000011_Node000013"><a xlink:title=" ">
<path fill="none" stroke="#63b8ff" d="M333.09,-307.82C343.23,-303.75 354.79,-299.04 365.25,-294.6 379.07,-288.72 394.19,-282.01 407.28,-276.12"/>
<polygon fill="#63b8ff" stroke="#63b8ff" points="408.68,-279.32 416.35,-272.01 405.8,-272.95 408.68,-279.32"/>
</a>
</g>
</g>
<!-- Node12&#45;&gt;Node7 -->
<g id="edge13_Node000012_Node000007" class="edge">
<title>Node12&#45;&gt;Node7</title>
<g id="a_edge13_Node000012_Node000007"><a xlink:title=" ">
<path fill="none" stroke="#63b8ff" d="M473.52,-288.77C486.49,-284.13 501.81,-278.66 515.66,-273.71"/>
<polygon fill="#63b8ff" stroke="#63b8ff" points="516.7,-277.05 524.94,-270.39 514.35,-270.46 516.7,-277.05"/>
</a>
</g>
</g>
<!-- Node12&#45;&gt;Node9 -->
<g id="edge14_Node000012_Node000009" class="edge">
<title>Node12&#45;&gt;Node9</title>
<g id="a_edge14_Node000012_Node000009"><a xlink:title=" ">
<path fill="none" stroke="#63b8ff" d="M483.64,-299.23C494.58,-299.14 506.38,-299.03 517.18,-298.93"/>
<polygon fill="#63b8ff" stroke="#63b8ff" points="516.94,-302.44 526.9,-298.85 516.87,-295.44 516.94,-302.44"/>
</a>
</g>
</g>
<!-- Node12&#45;&gt;Node10 -->
<g id="edge15_Node000012_Node000010" class="edge">
<title>Node12&#45;&gt;Node10</title>
<g id="a_edge15_Node000012_Node000010"><a xlink:title=" ">
<path fill="none" stroke="#63b8ff" d="M475.01,-310.38C486.7,-314.35 500.14,-318.92 512.62,-323.16"/>
<polygon fill="#63b8ff" stroke="#63b8ff" points="511.26,-326.39 521.85,-326.29 513.51,-319.76 511.26,-326.39"/>
</a>
</g>
</g>
<!-- Node13&#45;&gt;Node7 -->
<g id="edge17_Node000013_Node000007" class="edge">
<title>Node13&#45;&gt;Node7</title>
<g id="a_edge17_Node000013_Node000007"><a xlink:title=" ">
<path fill="none" stroke="#63b8ff" d="M473.52,-260.32C486.37,-260.21 501.51,-260.07 515.24,-259.95"/>
<polygon fill="#63b8ff" stroke="#63b8ff" points="514.89,-263.46 524.85,-259.87 514.82,-256.46 514.89,-263.46"/>
</a>
</g>
</g>
<!-- Node13&#45;&gt;Node9 -->
<g id="edge18_Node000013_Node000009" class="edge">
<title>Node13&#45;&gt;Node9</title>
<g id="a_edge18_Node000013_Node000009"><a xlink:title=" ">
<path fill="none" stroke="#63b8ff" d="M473.52,-270.88C487.14,-275.5 503.34,-281.01 517.71,-285.89"/>
<polygon fill="#63b8ff" stroke="#63b8ff" points="516.23,-289.08 526.83,-288.98 518.49,-282.45 516.23,-289.08"/>
</a>
</g>
</g>
<!-- Node13&#45;&gt;Node10 -->
<g id="edge19_Node000013_Node000010" class="edge">
<title>Node13&#45;&gt;Node10</title>
<g id="a_edge19_Node000013_Node000010"><a xlink:title=" ">
<path fill="none" stroke="#63b8ff" d="M468.12,-271.41C473.31,-274.1 478.61,-277.2 483.25,-280.6 501.77,-294.14 501.04,-303.64 519.25,-317.6 520.73,-318.73 522.28,-319.84 523.87,-320.92"/>
<polygon fill="#63b8ff" stroke="#63b8ff" points="521.61,-323.63 531.95,-325.93 525.3,-317.68 521.61,-323.63"/>
</a>
</g>
</g>
<!-- Node14&#45;&gt;Node7 -->
<g id="edge23_Node000014_Node000007" class="edge">
<title>Node14&#45;&gt;Node7</title>
<g id="a_edge23_Node000014_Node000007"><a xlink:title=" ">
<path fill="none" stroke="#63b8ff" d="M179.56,-117.07C224.38,-105.82 302.62,-92.3 365.25,-113.6 440.1,-139.05 508.5,-207.22 538.75,-240.62"/>
<polygon fill="#63b8ff" stroke="#63b8ff" points="535.98,-242.78 545.23,-247.93 541.21,-238.13 535.98,-242.78"/>
</a>
</g>
</g>
<!-- Node14&#45;&gt;Node13 -->
<g id="edge29_Node000014_Node000013" class="edge">
<title>Node14&#45;&gt;Node13</title>
<g id="a_edge29_Node000014_Node000013"><a xlink:title=" ">
<path fill="none" stroke="#63b8ff" d="M179.77,-121.61C226.2,-115.87 307.55,-112.47 365.25,-146.6 400.74,-167.59 423.01,-212.42 433.7,-239.18"/>
<polygon fill="#63b8ff" stroke="#63b8ff" points="430.34,-240.21 437.15,-248.33 436.89,-237.73 430.34,-240.21"/>
</a>
</g>
</g>
<!-- Node15 -->
<g id="Node000015" class="node">
<title>Node15</title>
<g id="a_Node000015"><a xlink:href="nrf24__avr_8c.html#a77c5f7c57c01266d04faea3052a47f49" target="_top" xlink:title=" ">
<polygon fill="white" stroke="#666666" points="581,-136.97 531.25,-136.97 531.25,-116.22 581,-116.22 581,-136.97"/>
<text xml:space="preserve" text-anchor="middle" x="556.12" y="-123.47" font-family="Helvetica,sans-Serif" font-size="10.00">ce_low</text>
</a>
</g>
</g>
<!-- Node14&#45;&gt;Node15 -->
<g id="edge21_Node000014_Node000015" class="edge">
<title>Node14&#45;&gt;Node15</title>
<g id="a_edge21_Node000014_Node000015"><a xlink:title=" ">
<path fill="none" stroke="#63b8ff" d="M150.51,-116.93C165.03,-95.96 200.68,-49.9 244.25,-32.6 342.97,6.61 388.02,14.47 483.25,-32.6 513.82,-47.7 534.96,-82.73 546.05,-105.5"/>
<polygon fill="#63b8ff" stroke="#63b8ff" points="542.81,-106.84 550.17,-114.46 549.17,-103.91 542.81,-106.84"/>
</a>
</g>
</g>
<!-- Node16 -->
<g id="Node000016" class="node">
<title>Node16</title>
<g id="a_Node000016"><a xlink:href="nrf24__avr_8c.html#a023289d1e49bf7f3b61e0e1c5312c8cf" target="_top" xlink:title=" ">
<polygon fill="white" stroke="#666666" points="352.88,-61.97 256.62,-61.97 256.62,-41.22 352.88,-41.22 352.88,-61.97"/>
<text xml:space="preserve" text-anchor="middle" x="304.75" y="-48.47" font-family="Helvetica,sans-Serif" font-size="10.00">nrf24_init_hwspi</text>
</a>
</g>
</g>
<!-- Node14&#45;&gt;Node16 -->
<g id="edge24_Node000014_Node000016" class="edge">
<title>Node14&#45;&gt;Node16</title>
<g id="a_edge24_Node000014_Node000016"><a xlink:title=" ">
<path fill="none" stroke="#63b8ff" d="M162.92,-116.88C183.02,-105.97 215.44,-88.8 244.25,-75.6 250.83,-72.58 257.9,-69.55 264.79,-66.7"/>
<polygon fill="#63b8ff" stroke="#63b8ff" points="266.02,-69.98 273.97,-62.99 263.39,-63.5 266.02,-69.98"/>
</a>
</g>
</g>
<!-- Node18 -->
<g id="Node000018" class="node">
<title>Node18</title>
<g id="a_Node000018"><a xlink:href="nrf24__avr_8c.html#aaf2900e7932ebbf7f0ecdc6bce5840e1" target="_top" xlink:title=" ">
<polygon fill="white" stroke="#666666" points="365.25,-175.97 244.25,-175.97 244.25,-155.22 365.25,-155.22 365.25,-175.97"/>
<text xml:space="preserve" text-anchor="middle" x="304.75" y="-162.47" font-family="Helvetica,sans-Serif" font-size="10.00">nrf24_setPayloadSize</text>
</a>
</g>
</g>
<!-- Node14&#45;&gt;Node18 -->
<g id="edge26_Node000014_Node000018" class="edge">
<title>Node14&#45;&gt;Node18</title>
<g id="a_edge26_Node000014_Node000018"><a xlink:title=" ">
<path fill="none" stroke="#63b8ff" d="M179.86,-136.22C199.69,-140.92 224.68,-146.85 247.01,-152.14"/>
<polygon fill="#63b8ff" stroke="#63b8ff" points="246.05,-155.51 256.59,-154.41 247.67,-148.7 246.05,-155.51"/>
</a>
</g>
</g>
<!-- Node19 -->
<g id="Node000019" class="node">
<title>Node19</title>
<g id="a_Node000019"><a xlink:href="nrf24__avr_8c.html#aa3db4917fa58896ce0a8027a30795033" target="_top" xlink:title=" ">
<polygon fill="white" stroke="#666666" points="339.38,-214.97 270.12,-214.97 270.12,-194.22 339.38,-194.22 339.38,-214.97"/>
<text xml:space="preserve" text-anchor="middle" x="304.75" y="-201.47" font-family="Helvetica,sans-Serif" font-size="10.00">pinMode_d</text>
</a>
</g>
</g>
<!-- Node14&#45;&gt;Node19 -->
<g id="edge28_Node000014_Node000019" class="edge">
<title>Node14&#45;&gt;Node19</title>
<g id="a_edge28_Node000014_Node000019"><a xlink:title=" ">
<path fill="none" stroke="#63b8ff" d="M160.1,-138.3C179.66,-150.59 213.42,-170.84 244.25,-184.6 248.91,-186.67 253.86,-188.66 258.83,-190.52"/>
<polygon fill="#63b8ff" stroke="#63b8ff" points="257.63,-193.81 268.23,-193.87 259.98,-187.22 257.63,-193.81"/>
</a>
</g>
</g>
<!-- Node15&#45;&gt;Node8 -->
<g id="edge22_Node000015_Node000008" class="edge">
<title>Node15&#45;&gt;Node8</title>
<g id="a_edge22_Node000015_Node000008"><a xlink:title=" ">
<path fill="none" stroke="#63b8ff" d="M564.89,-137.04C583.6,-162.21 631.4,-226.5 655.61,-259.07"/>
<polygon fill="#63b8ff" stroke="#63b8ff" points="652.63,-260.92 661.4,-266.86 658.24,-256.75 652.63,-260.92"/>
</a>
</g>
</g>
<!-- Node17 -->
<g id="Node000017" class="node">
<title>Node17</title>
<g id="a_Node000017"><a xlink:href="nrf24__avr_8c.html#aa653f4dc3541758224a53eef3f04d490" target="_top" xlink:title=" ">
<polygon fill="white" stroke="#666666" points="467.88,-61.97 416.62,-61.97 416.62,-41.22 467.88,-41.22 467.88,-61.97"/>
<text xml:space="preserve" text-anchor="middle" x="442.25" y="-48.47" font-family="Helvetica,sans-Serif" font-size="10.00">spi_init</text>
</a>
</g>
</g>
<!-- Node16&#45;&gt;Node17 -->
<g id="edge25_Node000016_Node000017" class="edge">
<title>Node16&#45;&gt;Node17</title>
<g id="a_edge25_Node000016_Node000017"><a xlink:title=" ">
<path fill="none" stroke="#63b8ff" d="M353.14,-51.6C370.05,-51.6 388.82,-51.6 404.68,-51.6"/>
<polygon fill="#63b8ff" stroke="#63b8ff" points="404.64,-55.1 414.64,-51.6 404.64,-48.1 404.64,-55.1"/>
</a>
</g>
</g>
<!-- Node18&#45;&gt;Node13 -->
<g id="edge27_Node000018_Node000013" class="edge">
<title>Node18&#45;&gt;Node13</title>
<g id="a_edge27_Node000018_Node000013"><a xlink:title=" ">
<path fill="none" stroke="#63b8ff" d="M346.24,-176.42C352.83,-178.96 359.4,-182 365.25,-185.6 389.5,-200.51 412,-224.52 426.13,-241.34"/>
<polygon fill="#63b8ff" stroke="#63b8ff" points="423.08,-243.15 432.12,-248.68 428.5,-238.72 423.08,-243.15"/>
</a>
</g>
</g>
<!-- Node20&#45;&gt;Node13 -->
<g id="edge31_Node000020_Node000013" class="edge">
<title>Node20&#45;&gt;Node13</title>
<g id="a_edge31_Node000020_Node000013"><a xlink:title=" ">
<path fill="none" stroke="#63b8ff" d="M208.52,-277.39C252.73,-274.48 312.53,-270.46 365.25,-266.6 376.42,-265.78 388.51,-264.84 399.69,-263.96"/>
<polygon fill="#63b8ff" stroke="#63b8ff" points="399.73,-267.47 409.42,-263.19 399.18,-260.49 399.73,-267.47"/>
</a>
</g>
</g>
<!-- Node21&#45;&gt;Node13 -->
<g id="edge33_Node000021_Node000013" class="edge">
<title>Node21&#45;&gt;Node13</title>
<g id="a_edge33_Node000021_Node000013"><a xlink:title=" ">
<path fill="none" stroke="#63b8ff" d="M193.67,-245.63C251.57,-249.13 345.73,-254.82 399.71,-258.08"/>
<polygon fill="#63b8ff" stroke="#63b8ff" points="399.2,-261.56 409.4,-258.67 399.63,-254.57 399.2,-261.56"/>
</a>
</g>
</g>
<!-- Node22&#45;&gt;Node6 -->
<g id="edge37_Node000022_Node000006" class="edge">
<title>Node22&#45;&gt;Node6</title>
<g id="a_edge37_Node000022_Node000006"><a xlink:title=" ">
<path fill="none" stroke="#63b8ff" d="M361.65,-349.76C374.9,-347.9 388.79,-345.95 401.18,-344.21"/>
<polygon fill="#63b8ff" stroke="#63b8ff" points="401.62,-347.69 411.04,-342.83 400.65,-340.75 401.62,-347.69"/>
</a>
</g>
</g>
<!-- Node22&#45;&gt;Node13 -->
<g id="edge38_Node000022_Node000013" class="edge">
<title>Node22&#45;&gt;Node13</title>
<g id="a_edge38_Node000022_Node000013"><a xlink:title=" ">
<path fill="none" stroke="#63b8ff" d="M349.47,-346.82C355.1,-344.33 360.54,-341.3 365.25,-337.6 388.81,-319.09 379.03,-300.7 401.25,-280.6 402.47,-279.49 403.77,-278.43 405.12,-277.41"/>
<polygon fill="#63b8ff" stroke="#63b8ff" points="406.74,-280.53 413.28,-272.2 402.97,-274.63 406.74,-280.53"/>
</a>
</g>
</g>
<!-- Node23 -->
<g id="Node000023" class="node">
<title>Node23</title>
<g id="a_Node000023"><a xlink:href="nrf24__avr_8c.html#a5336963072afb877d785bed84eb6b5f4" target="_top" xlink:title=" ">
<polygon fill="white" stroke="#666666" points="582.88,-386.97 529.38,-386.97 529.38,-366.22 582.88,-366.22 582.88,-386.97"/>
<text xml:space="preserve" text-anchor="middle" x="556.12" y="-373.47" font-family="Helvetica,sans-Serif" font-size="10.00">ce_high</text>
</a>
</g>
</g>
<!-- Node22&#45;&gt;Node23 -->
<g id="edge35_Node000022_Node000023" class="edge">
<title>Node22&#45;&gt;Node23</title>
<g id="a_edge35_Node000022_Node000023"><a xlink:title=" ">
<path fill="none" stroke="#63b8ff" d="M361.71,-361.86C409.29,-365.48 476.28,-370.59 517.63,-373.74"/>
<polygon fill="#63b8ff" stroke="#63b8ff" points="517.34,-377.23 527.58,-374.5 517.87,-370.25 517.34,-377.23"/>
</a>
</g>
</g>
<!-- Node23&#45;&gt;Node8 -->
<g id="edge36_Node000023_Node000008" class="edge">
<title>Node23&#45;&gt;Node8</title>
<g id="a_edge36_Node000023_Node000008"><a xlink:title=" ">
<path fill="none" stroke="#63b8ff" d="M578.62,-365.91C583.51,-363.13 588.57,-359.96 593,-356.6 616.16,-339 639.13,-314.64 653.9,-297.85"/>
<polygon fill="#63b8ff" stroke="#63b8ff" points="656.33,-300.39 660.22,-290.53 651.04,-295.81 656.33,-300.39"/>
</a>
</g>
</g>
</g>
</svg>

<g id="navigator" transform="translate(0 0)" fill="#404254">
  <rect fill="#f2f5e9" fill-opacity="0.5" stroke="#606060" stroke-width=".5" x="0" y="0" width="60" height="60"/>
  <use id="zoomplus" xlink:href="#zoomPlus" x="17" y="9" onmousedown="handleZoom(evt,'in')"/>
  <use id="zoomminus" xlink:href="#zoomMin" x="42" y="9" onmousedown="handleZoom(evt,'out')"/>
  <use id="reset" xlink:href="#resetDef" x="30" y="36" onmousedown="handleReset()"/>
   <use id="arrowup" xlink:href="#arrowUp" x="0" y="0" onmousedown="handlePan(0,-1)"/>
  <use id="arrowright" xlink:href="#arrowRight" x="0" y="0" onmousedown="handlePan(1,0)"/>
  <use id="arrowdown" xlink:href="#arrowDown" x="0" y="0" onmousedown="handlePan(0,1)"/>
  <use id="arrowleft" xlink:href="#arrowLeft" x="0" y="0" onmousedown="handlePan(-1,0)"/>
</g>
<svg viewBox="0 0 15 15" width="100%" height="30px" preserveAspectRatio="xMaxYMin meet">
 <g id="arrow_out" transform="scale(0.3 0.3)">
  <a xlink:href="codigo_8c_ae66f6b31b5ad750f1fe042a706a4e3d4_cgraph_org.svg" target="_base">
   <rect id="button" ry="5" rx="5" y="6" x="6" height="38" width="38"
        fill="#f2f5e9" fill-opacity="0.5" stroke="#606060" stroke-width="1.0"/>
   <path id="arrow"
     d="M 11.500037,31.436501 C 11.940474,20.09759 22.043105,11.32322 32.158766,21.979434 L 37.068811,17.246167 C 37.068811,17.246167 37.088388,32 37.088388,32 L 22.160133,31.978069 C 22.160133,31.978069 26.997745,27.140456 26.997745,27.140456 C 18.528582,18.264221 13.291696,25.230495 11.500037,31.436501 z"
     style="fill:#404040;"/>
  </a>
 </g>
</svg>

<style type='text/css'>
<![CDATA[
[data-mouse-over-selected='false'] { opacity: 0.7; }
[data-mouse-over-selected='true']  { opacity: 1.0; }
]]>
</style>
<script type="application/ecmascript"><![CDATA[
document.addEventListener('DOMContentLoaded', (event) => {
  highlightEdges();
  highlightAdjacentNodes();
});
]]></script>
</svg>
