<?xml version="1.0" encoding="UTF-8" standalone="no"?>
<!DOCTYPE svg PUBLIC "-//W3C//DTD SVG 1.1//EN"
 "http://www.w3.org/Graphics/SVG/1.1/DTD/svg11.dtd">
<!-- Generated by graphviz version 14.0.4 (0)
 -->
<!-- Title: gameOver Pages: 1 -->
<svg width="271pt" height="86pt"
 viewBox="0.00 0.00 271.00 86.00" xmlns="http://www.w3.org/2000/svg" xmlns:xlink="http://www.w3.org/1999/xlink">
<g id="graph0" class="graph" transform="scale(1 1) rotate(0) translate(4 81.75)">
<title>gameOver</title>
<!-- Node1 -->
<g id="Node000001" class="node">
<title>Node1</title>
<g id="a_Node000001"><a xlink:title="Executa a rotina de &quot;Game Over&quot;.">
<polygon fill="#999999" stroke="#666666" points="67,-48.75 0,-48.75 0,-28 67,-28 67,-48.75"/>
<text xml:space="preserve" text-anchor="middle" x="33.5" y="-35.25" font-family="Helvetica,sans-Serif" font-size="10.00">gameOver</text>
</a>
</g>
</g>
<!-- Node2 -->
<g id="Node000002" class="node">
<title>Node2</title>
<g id="a_Node000002"><a xlink:href="codigo_8c.html#a83f9abde8522ce95dd4c5ce5ba3d9d39" target="_top" xlink:title="Controla a direção e velocidade de um motor DC.">
<polygon fill="white" stroke="#666666" points="148.25,-48.75 103,-48.75 103,-28 148.25,-28 148.25,-48.75"/>
<text xml:space="preserve" text-anchor="middle" x="125.62" y="-35.25" font-family="Helvetica,sans-Serif" font-size="10.00">motor</text>
</a>
</g>
</g>
<!-- Node1&#45;&gt;Node2 -->
<g id="edge1_Node000001_Node000002" class="edge">
<title>Node1&#45;&gt;Node2</title>
<g id="a_edge1_Node000001_Node000002"><a xlink:title=" ">
<path fill="none" stroke="#63b8ff" d="M67.29,-38.38C75.11,-38.38 83.47,-38.38 91.31,-38.38"/>
<polygon fill="#63b8ff" stroke="#63b8ff" points="91.18,-41.88 101.18,-38.38 91.18,-34.88 91.18,-41.88"/>
</a>
</g>
</g>
<!-- Node3 -->
<g id="Node000003" class="node">
<title>Node3</title>
<g id="a_Node000003"><a xlink:href="codigo_8c.html#ac7c0935e24e573b2929d0df7f9e6b82f" target="_top" xlink:title="Escreve um valor PWM em um pino específico.">
<polygon fill="white" stroke="#666666" points="263.25,-77.75 184.25,-77.75 184.25,-57 263.25,-57 263.25,-77.75"/>
<text xml:space="preserve" text-anchor="middle" x="223.75" y="-64.25" font-family="Helvetica,sans-Serif" font-size="10.00">analog_write</text>
</a>
</g>
</g>
<!-- Node2&#45;&gt;Node3 -->
<g id="edge2_Node000002_Node000003" class="edge">
<title>Node2&#45;&gt;Node3</title>
<g id="a_edge2_Node000002_Node000003"><a xlink:title=" ">
<path fill="none" stroke="#63b8ff" d="M148.44,-44.96C156.73,-47.46 166.52,-50.41 176.23,-53.34"/>
<polygon fill="#63b8ff" stroke="#63b8ff" points="175.04,-56.64 185.62,-56.17 177.06,-49.94 175.04,-56.64"/>
</a>
</g>
</g>
<!-- Node4 -->
<g id="Node000004" class="node">
<title>Node4</title>
<g id="a_Node000004"><a xlink:href="carrinho__ino_8ino.html#a83f9abde8522ce95dd4c5ce5ba3d9d39" target="_top" xlink:title=" ">
<polygon fill="white" stroke="#666666" points="246.38,-20.75 201.12,-20.75 201.12,0 246.38,0 246.38,-20.75"/>
<text xml:space="preserve" text-anchor="middle" x="223.75" y="-7.25" font-family="Helvetica,sans-Serif" font-size="10.00">motor</text>
</a>
</g>
</g>
<!-- Node2&#45;&gt;Node4 -->
<g id="edge3_Node000002_Node000004" class="edge">
<title>Node2&#45;&gt;Node4</title>
<g id="a_edge3_Node000002_Node000004"><a xlink:title=" ">
<path fill="none" stroke="#63b8ff" d="M148.44,-32.02C160.64,-28.47 176.1,-23.96 189.76,-19.99"/>
<polygon fill="#63b8ff" stroke="#63b8ff" points="190.62,-23.38 199.24,-17.22 188.66,-16.66 190.62,-23.38"/>
</a>
</g>
</g>
<!-- Node4&#45;&gt;Node4 -->
<g id="edge4_Node000004_Node000004" class="edge">
<title>Node4&#45;&gt;Node4</title>
<g id="a_edge4_Node000004_Node000004"><a xlink:title=" ">
<path fill="none" stroke="#63b8ff" d="M207.94,-21.15C201.61,-29.81 206.88,-38.75 223.75,-38.75 232.71,-38.75 238.4,-36.23 240.81,-32.56"/>
<polygon fill="#63b8ff" stroke="#63b8ff" points="244.29,-32.21 239.73,-22.65 237.34,-32.97 244.29,-32.21"/>
</a>
</g>
</g>
</g>
</svg>
