<?xml version="1.0" encoding="UTF-8" standalone="no"?>
<!DOCTYPE svg PUBLIC "-//W3C//DTD SVG 1.1//EN"
 "http://www.w3.org/Graphics/SVG/1.1/DTD/svg11.dtd">
<!-- Generated by graphviz version 14.0.4 (0)
 -->
<!-- Title: nrf24_openWritingPipe Pages: 1 -->
<svg width="463pt" height="107pt"
 viewBox="0.00 0.00 463.00 107.00" xmlns="http://www.w3.org/2000/svg" xmlns:xlink="http://www.w3.org/1999/xlink">

<svg id="main" version="1.1" xmlns="http://www.w3.org/2000/svg" xmlns:xlink="http://www.w3.org/1999/xlink" xml:space="preserve">

<style type="text/css"><![CDATA[
.node, .edge {opacity: 0.7;}
.node.selected, .edge.selected {opacity: 1;}
.edge:hover path { stroke: red; }
.edge:hover polygon { stroke: red; fill: red; }
]]></style>
<script type="application/ecmascript" xlink:href="svg.min.js"/>
<svg id="graph" class="graph">
<g id="graph0" class="graph" transform="scale(1 1) rotate(0) translate(4 102.75)">
<title>nrf24_openWritingPipe</title>
<!-- Node1 -->
<g id="Node000001" class="node">
<title>Node1</title>
<g id="a_Node000001"><a xlink:title=" ">
<polygon fill="#999999" stroke="#666666" points="127,-59.75 0,-59.75 0,-39 127,-39 127,-59.75"/>
<text xml:space="preserve" text-anchor="middle" x="63.5" y="-46.25" font-family="Helvetica,sans-Serif" font-size="10.00">nrf24_openWritingPipe</text>
</a>
</g>
</g>
<!-- Node2 -->
<g id="Node000002" class="node">
<title>Node2</title>
<g id="a_Node000002"><a xlink:href="carrinho_2nrf24__avr_8c.html#a08bc978021db604d02a6da754f73e7e2" target="_top" xlink:title=" ">
<polygon fill="white" stroke="#666666" points="224.75,-59.75 163,-59.75 163,-39 224.75,-39 224.75,-59.75"/>
<text xml:space="preserve" text-anchor="middle" x="193.88" y="-46.25" font-family="Helvetica,sans-Serif" font-size="10.00">write_reg</text>
</a>
</g>
</g>
<!-- Node1&#45;&gt;Node2 -->
<g id="edge1_Node000001_Node000002" class="edge">
<title>Node1&#45;&gt;Node2</title>
<g id="a_edge1_Node000001_Node000002"><a xlink:title=" ">
<path fill="none" stroke="#63b8ff" d="M127.18,-49.38C135.38,-49.38 143.62,-49.38 151.34,-49.38"/>
<polygon fill="#63b8ff" stroke="#63b8ff" points="151.11,-52.88 161.11,-49.38 151.11,-45.88 151.11,-52.88"/>
</a>
</g>
</g>
<!-- Node3 -->
<g id="Node000003" class="node">
<title>Node3</title>
<g id="a_Node000003"><a xlink:href="carrinho_2nrf24__avr_8c.html#adaef88bc02a8e805de3b3a82bf317549" target="_top" xlink:title=" ">
<polygon fill="white" stroke="#666666" points="327,-98.75 268.25,-98.75 268.25,-78 327,-78 327,-98.75"/>
<text xml:space="preserve" text-anchor="middle" x="297.62" y="-85.25" font-family="Helvetica,sans-Serif" font-size="10.00">csn_high</text>
</a>
</g>
</g>
<!-- Node2&#45;&gt;Node3 -->
<g id="edge2_Node000002_Node000003" class="edge">
<title>Node2&#45;&gt;Node3</title>
<g id="a_edge2_Node000002_Node000003"><a xlink:title=" ">
<path fill="none" stroke="#63b8ff" d="M223.22,-60.24C233.91,-64.34 246.27,-69.08 257.76,-73.48"/>
<polygon fill="#63b8ff" stroke="#63b8ff" points="256.43,-76.72 267.02,-77.03 258.94,-70.18 256.43,-76.72"/>
</a>
</g>
</g>
<!-- Node5 -->
<g id="Node000005" class="node">
<title>Node5</title>
<g id="a_Node000005"><a xlink:href="carrinho_2nrf24__avr_8c.html#a42f8c1120431b7c37e116a4e1eac1cc2" target="_top" xlink:title=" ">
<polygon fill="white" stroke="#666666" points="325.12,-59.75 270.12,-59.75 270.12,-39 325.12,-39 325.12,-59.75"/>
<text xml:space="preserve" text-anchor="middle" x="297.62" y="-46.25" font-family="Helvetica,sans-Serif" font-size="10.00">csn_low</text>
</a>
</g>
</g>
<!-- Node2&#45;&gt;Node5 -->
<g id="edge4_Node000002_Node000005" class="edge">
<title>Node2&#45;&gt;Node5</title>
<g id="a_edge4_Node000002_Node000005"><a xlink:title=" ">
<path fill="none" stroke="#63b8ff" d="M225.13,-49.38C235.54,-49.38 247.34,-49.38 258.3,-49.38"/>
<polygon fill="#63b8ff" stroke="#63b8ff" points="258.26,-52.88 268.26,-49.38 258.26,-45.88 258.26,-52.88"/>
</a>
</g>
</g>
<!-- Node6 -->
<g id="Node000006" class="node">
<title>Node6</title>
<g id="a_Node000006"><a xlink:href="carrinho_2nrf24__avr_8c.html#a8d161d483c095113df5b69798e9cd725" target="_top" xlink:title=" ">
<polygon fill="white" stroke="#666666" points="334.5,-20.75 260.75,-20.75 260.75,0 334.5,0 334.5,-20.75"/>
<text xml:space="preserve" text-anchor="middle" x="297.62" y="-7.25" font-family="Helvetica,sans-Serif" font-size="10.00">spi_transfer</text>
</a>
</g>
</g>
<!-- Node2&#45;&gt;Node6 -->
<g id="edge6_Node000002_Node000006" class="edge">
<title>Node2&#45;&gt;Node6</title>
<g id="a_edge6_Node000002_Node000006"><a xlink:title=" ">
<path fill="none" stroke="#63b8ff" d="M223.22,-38.51C233.91,-34.41 246.27,-29.67 257.76,-25.27"/>
<polygon fill="#63b8ff" stroke="#63b8ff" points="258.94,-28.57 267.02,-21.72 256.43,-22.03 258.94,-28.57"/>
</a>
</g>
</g>
<!-- Node4 -->
<g id="Node000004" class="node">
<title>Node4</title>
<g id="a_Node000004"><a xlink:href="carrinho_2nrf24__avr_8c.html#a019970fc17b6b18fa4e45e0baf22c93f" target="_top" xlink:title=" ">
<polygon fill="white" stroke="#666666" points="454.75,-78.75 370.5,-78.75 370.5,-58 454.75,-58 454.75,-78.75"/>
<text xml:space="preserve" text-anchor="middle" x="412.62" y="-65.25" font-family="Helvetica,sans-Serif" font-size="10.00">digitalWrite_d</text>
</a>
</g>
</g>
<!-- Node3&#45;&gt;Node4 -->
<g id="edge3_Node000003_Node000004" class="edge">
<title>Node3&#45;&gt;Node4</title>
<g id="a_edge3_Node000003_Node000004"><a xlink:title=" ">
<path fill="none" stroke="#63b8ff" d="M327.43,-83.28C337.04,-81.58 348.07,-79.62 358.91,-77.7"/>
<polygon fill="#63b8ff" stroke="#63b8ff" points="359.35,-81.18 368.59,-75.99 358.13,-74.29 359.35,-81.18"/>
</a>
</g>
</g>
<!-- Node5&#45;&gt;Node4 -->
<g id="edge5_Node000005_Node000004" class="edge">
<title>Node5&#45;&gt;Node4</title>
<g id="a_edge5_Node000005_Node000004"><a xlink:title=" ">
<path fill="none" stroke="#63b8ff" d="M325.4,-53.88C335.49,-55.57 347.35,-57.57 358.99,-59.52"/>
<polygon fill="#63b8ff" stroke="#63b8ff" points="358.08,-62.92 368.52,-61.13 359.24,-56.02 358.08,-62.92"/>
</a>
</g>
</g>
</g>
</svg>
</svg>

<style type='text/css'>
<![CDATA[
[data-mouse-over-selected='false'] { opacity: 0.7; }
[data-mouse-over-selected='true']  { opacity: 1.0; }
]]>
</style>
<script type="application/ecmascript"><![CDATA[
document.addEventListener('DOMContentLoaded', (event) => {
  highlightEdges();
  highlightAdjacentNodes();
});
]]></script>
</svg>
