<?xml version="1.0" encoding="UTF-8" standalone="no"?>
<!DOCTYPE svg PUBLIC "-//W3C//DTD SVG 1.1//EN"
 "http://www.w3.org/Graphics/SVG/1.1/DTD/svg11.dtd">
<!-- Generated by graphviz version 14.0.4 (0)
 -->
<!-- Title: main Pages: 1 -->
<!--zoomable 582 -->

<svg id="main" version="1.1" xmlns="http://www.w3.org/2000/svg" xmlns:xlink="http://www.w3.org/1999/xlink" xml:space="preserve" onload="init(evt)">

<style type="text/css"><![CDATA[
.node, .edge {opacity: 0.7;}
.node.selected, .edge.selected {opacity: 1;}
.edge:hover path { stroke: red; }
.edge:hover polygon { stroke: red; fill: red; }
]]></style>

<defs>
  <circle id="rim" cx="0" cy="0" r="7"/>
  <circle id="rim2" cx="0" cy="0" r="3.5"/>
  <g id="zoomPlus">
    <use xlink:href="#rim" fill="#404040"><set attributeName="fill" to="#808080" begin="zoomplus.mouseover" end="zoomplus.mouseout"/></use>
    <path d="M-4,0h8M0,-4v8" fill="none" stroke="white" stroke-width="1.5" pointer-events="none"/>
  </g>
  <g id="zoomMin">
    <use xlink:href="#rim" fill="#404040"><set attributeName="fill" to="#808080" begin="zoomminus.mouseover" end="zoomminus.mouseout"/></use>
    <path d="M-4,0h8" fill="none" stroke="white" stroke-width="1.5" pointer-events="none"/>
  </g>
  <g id="arrowUp" transform="translate(30 24)">
    <use xlink:href="#rim"/>
    <path pointer-events="none" fill="none" stroke="white" stroke-width="1.5" d="M0,-3.0v7 M-2.5,-0.5L0,-3.0L2.5,-0.5"/>
  </g>
  <g id="arrowRight" transform="rotate(90) translate(36 -43)">
    <use xlink:href="#rim"/>
    <path pointer-events="none" fill="none" stroke="white" stroke-width="1.5" d="M0,-3.0v7 M-2.5,-0.5L0,-3.0L2.5,-0.5"/>
  </g>
  <g id="arrowDown" transform="rotate(180) translate(-30 -48)">
    <use xlink:href="#rim"/>
    <path pointer-events="none" fill="none" stroke="white" stroke-width="1.5" d="M0,-3.0v7 M-2.5,-0.5L0,-3.0L2.5,-0.5"/>
  </g>
  <g id="arrowLeft" transform="rotate(270) translate(-36 17)">
    <use xlink:href="#rim"/>
    <path pointer-events="none" fill="none" stroke="white" stroke-width="1.5" d="M0,-3.0v7 M-2.5,-0.5L0,-3.0L2.5,-0.5"/>
  </g>
  <g id="resetDef">
    <use xlink:href="#rim2" fill="#404040"><set attributeName="fill" to="#808080" begin="reset.mouseover" end="reset.mouseout"/></use>
  </g>
</defs>
<script type="application/ecmascript">
var viewWidth = 836;
var viewHeight = 582;
var sectionId = 'dynsection-7';
</script>
<script type="application/ecmascript" xlink:href="svg.min.js"/>
<svg id="graph" class="graph">
<g id="viewport">
<title>main</title>
<!-- Node1 -->
<g id="Node000001" class="node">
<title>Node1</title>
<g id="a_Node000001"><a xlink:title=" ">
<polygon fill="#999999" stroke="#666666" points="40.75,-357.59 0,-357.59 0,-336.84 40.75,-336.84 40.75,-357.59"/>
<text xml:space="preserve" text-anchor="middle" x="20.38" y="-344.09" font-family="Helvetica,sans-Serif" font-size="10.00">main</text>
</a>
</g>
</g>
<!-- Node2 -->
<g id="Node000002" class="node">
<title>Node2</title>
<g id="a_Node000002"><a xlink:href="controle_8c.html#a1fc0a8f5b026eb5e606e738ca5434d2d" target="_top" xlink:title=" ">
<polygon fill="white" stroke="#666666" points="180.88,-495.59 99.62,-495.59 99.62,-474.84 180.88,-474.84 180.88,-495.59"/>
<text xml:space="preserve" text-anchor="middle" x="140.25" y="-482.09" font-family="Helvetica,sans-Serif" font-size="10.00">analog_setup</text>
</a>
</g>
</g>
<!-- Node1&#45;&gt;Node2 -->
<g id="edge1_Node000001_Node000002" class="edge">
<title>Node1&#45;&gt;Node2</title>
<g id="a_edge1_Node000001_Node000002"><a xlink:title=" ">
<path fill="none" stroke="#63b8ff" d="M23.43,-358.09C28.37,-381.23 43.09,-435.64 76.75,-465.22 80.36,-468.39 84.48,-471.06 88.84,-473.3"/>
<polygon fill="#63b8ff" stroke="#63b8ff" points="87.37,-476.48 97.94,-477.22 90.13,-470.05 87.37,-476.48"/>
</a>
</g>
</g>
<!-- Node3 -->
<g id="Node000003" class="node">
<title>Node3</title>
<g id="a_Node000003"><a xlink:href="controle_8c.html#afe461d27b9c48d5921c00d521181f12f" target="_top" xlink:title=" ">
<polygon fill="white" stroke="#666666" points="158.75,-456.59 121.75,-456.59 121.75,-435.84 158.75,-435.84 158.75,-456.59"/>
<text xml:space="preserve" text-anchor="middle" x="140.25" y="-443.09" font-family="Helvetica,sans-Serif" font-size="10.00">loop</text>
</a>
</g>
</g>
<!-- Node1&#45;&gt;Node3 -->
<g id="edge2_Node000001_Node000003" class="edge">
<title>Node1&#45;&gt;Node3</title>
<g id="a_edge2_Node000001_Node000003"><a xlink:title=" ">
<path fill="none" stroke="#63b8ff" d="M33.99,-357.81C54,-374.62 93.26,-407.59 117.77,-428.17"/>
<polygon fill="#63b8ff" stroke="#63b8ff" points="115.3,-430.67 125.21,-434.42 119.8,-425.31 115.3,-430.67"/>
</a>
</g>
</g>
<!-- Node16 -->
<g id="Node000016" class="node">
<title>Node16</title>
<g id="a_Node000016"><a xlink:href="carrinho_2nrf24__avr_8c.html#a33899bc3c0f4d2293f37c306d0b8e297" target="_top" xlink:title=" ">
<polygon fill="white" stroke="#666666" points="471.25,-379.59 359.25,-379.59 359.25,-358.84 471.25,-358.84 471.25,-379.59"/>
<text xml:space="preserve" text-anchor="middle" x="415.25" y="-366.09" font-family="Helvetica,sans-Serif" font-size="10.00">nrf24_stopListening</text>
</a>
</g>
</g>
<!-- Node1&#45;&gt;Node16 -->
<g id="edge47_Node000001_Node000016" class="edge">
<title>Node1&#45;&gt;Node16</title>
<g id="a_edge47_Node000001_Node000016"><a xlink:title=" ">
<path fill="none" stroke="#63b8ff" d="M41.13,-348.32C96.64,-351.43 255.94,-360.35 347.44,-365.47"/>
<polygon fill="#63b8ff" stroke="#63b8ff" points="347.11,-368.96 357.29,-366.03 347.5,-361.97 347.11,-368.96"/>
</a>
</g>
</g>
<!-- Node20 -->
<g id="Node000020" class="node">
<title>Node20</title>
<g id="a_Node000020"><a xlink:href="carrinho_2nrf24__avr_8c.html#ab6fb4c1aa834152310116e7dec65d8e3" target="_top" xlink:title=" ">
<polygon fill="white" stroke="#666666" points="316.12,-151.59 242.38,-151.59 242.38,-130.84 316.12,-130.84 316.12,-151.59"/>
<text xml:space="preserve" text-anchor="middle" x="279.25" y="-138.09" font-family="Helvetica,sans-Serif" font-size="10.00">nrf24_begin</text>
</a>
</g>
</g>
<!-- Node1&#45;&gt;Node20 -->
<g id="edge34_Node000001_Node000020" class="edge">
<title>Node1&#45;&gt;Node20</title>
<g id="a_edge34_Node000001_Node000020"><a xlink:title=" ">
<path fill="none" stroke="#63b8ff" d="M22.43,-336.59C25.59,-310.39 37.37,-242.14 76.75,-205.22 118.99,-165.61 185.7,-150.51 230.67,-144.76"/>
<polygon fill="#63b8ff" stroke="#63b8ff" points="230.86,-148.26 240.39,-143.63 230.05,-141.31 230.86,-148.26"/>
</a>
</g>
</g>
<!-- Node25 -->
<g id="Node000025" class="node">
<title>Node25</title>
<g id="a_Node000025"><a xlink:href="carrinho_2nrf24__avr_8c.html#a21d638882f746748de35324bdc21f448" target="_top" xlink:title=" ">
<polygon fill="white" stroke="#666666" points="203.75,-234.59 76.75,-234.59 76.75,-213.84 203.75,-213.84 203.75,-234.59"/>
<text xml:space="preserve" text-anchor="middle" x="140.25" y="-221.09" font-family="Helvetica,sans-Serif" font-size="10.00">nrf24_openWritingPipe</text>
</a>
</g>
</g>
<!-- Node1&#45;&gt;Node25 -->
<g id="edge43_Node000001_Node000025" class="edge">
<title>Node1&#45;&gt;Node25</title>
<g id="a_edge43_Node000001_Node000025"><a xlink:title=" ">
<path fill="none" stroke="#63b8ff" d="M27.88,-336.55C37.47,-321.32 56.46,-292.89 76.75,-272.22 87.83,-260.92 101.65,-250.04 113.48,-241.5"/>
<polygon fill="#63b8ff" stroke="#63b8ff" points="115.43,-244.4 121.6,-235.79 111.4,-238.68 115.43,-244.4"/>
</a>
</g>
</g>
<!-- Node26 -->
<g id="Node000026" class="node">
<title>Node26</title>
<g id="a_Node000026"><a xlink:href="carrinho_2nrf24__avr_8c.html#a49aa88b1042d6d62114cfbca271d9e2b" target="_top" xlink:title=" ">
<polygon fill="white" stroke="#666666" points="191,-301.59 89.5,-301.59 89.5,-280.84 191,-280.84 191,-301.59"/>
<text xml:space="preserve" text-anchor="middle" x="140.25" y="-288.09" font-family="Helvetica,sans-Serif" font-size="10.00">nrf24_setChannel</text>
</a>
</g>
</g>
<!-- Node1&#45;&gt;Node26 -->
<g id="edge45_Node000001_Node000026" class="edge">
<title>Node1&#45;&gt;Node26</title>
<g id="a_edge45_Node000001_Node000026"><a xlink:title=" ">
<path fill="none" stroke="#63b8ff" d="M41.1,-337.84C58.85,-329.41 85.28,-316.86 106.24,-306.9"/>
<polygon fill="#63b8ff" stroke="#63b8ff" points="107.73,-310.06 115.27,-302.61 104.73,-303.74 107.73,-310.06"/>
</a>
</g>
</g>
<!-- Node4 -->
<g id="Node000004" class="node">
<title>Node4</title>
<g id="a_Node000004"><a xlink:href="controle_8c.html#aaa87dddb1e62142fd07ee17db1b5d673" target="_top" xlink:title=" ">
<polygon fill="white" stroke="#666666" points="295.88,-495.59 262.62,-495.59 262.62,-474.84 295.88,-474.84 295.88,-495.59"/>
<text xml:space="preserve" text-anchor="middle" x="279.25" y="-482.09" font-family="Helvetica,sans-Serif" font-size="10.00">abs</text>
</a>
</g>
</g>
<!-- Node3&#45;&gt;Node4 -->
<g id="edge3_Node000003_Node000004" class="edge">
<title>Node3&#45;&gt;Node4</title>
<g id="a_edge3_Node000003_Node000004"><a xlink:title=" ">
<path fill="none" stroke="#63b8ff" d="M159.16,-451.31C182.66,-458.01 224.12,-469.81 251.39,-477.57"/>
<polygon fill="#63b8ff" stroke="#63b8ff" points="250.43,-480.93 261,-480.31 252.34,-474.2 250.43,-480.93"/>
</a>
</g>
</g>
<!-- Node5 -->
<g id="Node000005" class="node">
<title>Node5</title>
<g id="a_Node000005"><a xlink:href="controle_8c.html#a08bebecdd1ca2d6e7ef3f68cd452ccf9" target="_top" xlink:title=" ">
<polygon fill="white" stroke="#666666" points="317.25,-456.59 241.25,-456.59 241.25,-435.84 317.25,-435.84 317.25,-456.59"/>
<text xml:space="preserve" text-anchor="middle" x="279.25" y="-443.09" font-family="Helvetica,sans-Serif" font-size="10.00">analog_read</text>
</a>
</g>
</g>
<!-- Node3&#45;&gt;Node5 -->
<g id="edge4_Node000003_Node000005" class="edge">
<title>Node3&#45;&gt;Node5</title>
<g id="a_edge4_Node000003_Node000005"><a xlink:title=" ">
<path fill="none" stroke="#63b8ff" d="M159.16,-446.22C177.01,-446.22 205.2,-446.22 229.68,-446.22"/>
<polygon fill="#63b8ff" stroke="#63b8ff" points="229.46,-449.72 239.46,-446.22 229.46,-442.72 229.46,-449.72"/>
</a>
</g>
</g>
<!-- Node6 -->
<g id="Node000006" class="node">
<title>Node6</title>
<g id="a_Node000006"><a xlink:href="controle_8c.html#ac7c0935e24e573b2929d0df7f9e6b82f" target="_top" xlink:title=" ">
<polygon fill="white" stroke="#666666" points="318.75,-573.59 239.75,-573.59 239.75,-552.84 318.75,-552.84 318.75,-573.59"/>
<text xml:space="preserve" text-anchor="middle" x="279.25" y="-560.09" font-family="Helvetica,sans-Serif" font-size="10.00">analog_write</text>
</a>
</g>
</g>
<!-- Node3&#45;&gt;Node6 -->
<g id="edge5_Node000003_Node000006" class="edge">
<title>Node3&#45;&gt;Node6</title>
<g id="a_edge5_Node000003_Node000006"><a xlink:title=" ">
<path fill="none" stroke="#63b8ff" d="M159.03,-448.03C172.69,-450.27 191.26,-455.23 203.75,-466.22 232.11,-491.17 213.6,-515.95 239.75,-543.22 240.61,-544.11 241.52,-544.98 242.47,-545.81"/>
<polygon fill="#63b8ff" stroke="#63b8ff" points="240.38,-548.62 250.56,-551.57 244.44,-542.92 240.38,-548.62"/>
</a>
</g>
</g>
<!-- Node7 -->
<g id="Node000007" class="node">
<title>Node7</title>
<g id="a_Node000007"><a xlink:href="controle_8c.html#ab66e88e73e935433d27613e6b65139dd" target="_top" xlink:title=" ">
<polygon fill="white" stroke="#666666" points="298.12,-534.59 260.38,-534.59 260.38,-513.84 298.12,-513.84 298.12,-534.59"/>
<text xml:space="preserve" text-anchor="middle" x="279.25" y="-521.09" font-family="Helvetica,sans-Serif" font-size="10.00">map</text>
</a>
</g>
</g>
<!-- Node3&#45;&gt;Node7 -->
<g id="edge6_Node000003_Node000007" class="edge">
<title>Node3&#45;&gt;Node7</title>
<g id="a_edge6_Node000003_Node000007"><a xlink:title=" ">
<path fill="none" stroke="#63b8ff" d="M159.24,-449.46C172.32,-452.4 190.05,-457.61 203.75,-466.22 223.45,-478.59 221.17,-490.22 239.75,-504.22 242.91,-506.6 246.4,-508.85 249.95,-510.92"/>
<polygon fill="#63b8ff" stroke="#63b8ff" points="248.07,-513.88 258.54,-515.52 251.38,-507.71 248.07,-513.88"/>
</a>
</g>
</g>
<!-- Node8 -->
<g id="Node000008" class="node">
<title>Node8</title>
<g id="a_Node000008"><a xlink:href="carrinho_2nrf24__avr_8c.html#a8232e1982aabc6f52408c318402cb578" target="_top" xlink:title=" ">
<polygon fill="white" stroke="#666666" points="315,-417.59 243.5,-417.59 243.5,-396.84 315,-396.84 315,-417.59"/>
<text xml:space="preserve" text-anchor="middle" x="279.25" y="-404.09" font-family="Helvetica,sans-Serif" font-size="10.00">nrf24_write</text>
</a>
</g>
</g>
<!-- Node3&#45;&gt;Node8 -->
<g id="edge7_Node000003_Node000008" class="edge">
<title>Node3&#45;&gt;Node8</title>
<g id="a_edge7_Node000003_Node000008"><a xlink:title=" ">
<path fill="none" stroke="#63b8ff" d="M159.16,-441.12C177.67,-435.85 207.32,-427.41 232.4,-420.27"/>
<polygon fill="#63b8ff" stroke="#63b8ff" points="233.07,-423.72 241.73,-417.61 231.16,-416.98 233.07,-423.72"/>
</a>
</g>
</g>
<!-- Node9 -->
<g id="Node000009" class="node">
<title>Node9</title>
<g id="a_Node000009"><a xlink:href="carrinho_2nrf24__avr_8c.html#a5336963072afb877d785bed84eb6b5f4" target="_top" xlink:title=" ">
<polygon fill="white" stroke="#666666" points="697.12,-551.59 643.62,-551.59 643.62,-530.84 697.12,-530.84 697.12,-551.59"/>
<text xml:space="preserve" text-anchor="middle" x="670.38" y="-538.09" font-family="Helvetica,sans-Serif" font-size="10.00">ce_high</text>
</a>
</g>
</g>
<!-- Node8&#45;&gt;Node9 -->
<g id="edge8_Node000008_Node000009" class="edge">
<title>Node8&#45;&gt;Node9</title>
<g id="a_edge8_Node000008_Node000009"><a xlink:title=" ">
<path fill="none" stroke="#63b8ff" d="M305.56,-417.87C310.25,-420.51 314.88,-423.63 318.75,-427.22 341.01,-447.83 329.64,-468.19 354.75,-485.22 440.82,-543.56 569.5,-546.49 632.27,-543.87"/>
<polygon fill="#63b8ff" stroke="#63b8ff" points="632.23,-547.38 642.04,-543.39 631.88,-540.39 632.23,-547.38"/>
</a>
</g>
</g>
<!-- Node11 -->
<g id="Node000011" class="node">
<title>Node11</title>
<g id="a_Node000011"><a xlink:href="carrinho_2nrf24__avr_8c.html#a77c5f7c57c01266d04faea3052a47f49" target="_top" xlink:title=" ">
<polygon fill="white" stroke="#666666" points="579.5,-379.59 529.75,-379.59 529.75,-358.84 579.5,-358.84 579.5,-379.59"/>
<text xml:space="preserve" text-anchor="middle" x="554.62" y="-366.09" font-family="Helvetica,sans-Serif" font-size="10.00">ce_low</text>
</a>
</g>
</g>
<!-- Node8&#45;&gt;Node11 -->
<g id="edge10_Node000008_Node000011" class="edge">
<title>Node8&#45;&gt;Node11</title>
<g id="a_edge10_Node000008_Node000011"><a xlink:title=" ">
<path fill="none" stroke="#63b8ff" d="M315.41,-405.31C354.7,-402.83 420.11,-397.66 475.75,-388.22 489.76,-385.84 504.98,-382.34 518.22,-378.98"/>
<polygon fill="#63b8ff" stroke="#63b8ff" points="519,-382.4 527.79,-376.49 517.24,-375.62 519,-382.4"/>
</a>
</g>
</g>
<!-- Node12 -->
<g id="Node000012" class="node">
<title>Node12</title>
<g id="a_Node000012"><a xlink:href="carrinho_2nrf24__avr_8c.html#a617ab4b2604d6f482796e35da85369ad" target="_top" xlink:title=" ">
<polygon fill="white" stroke="#666666" points="597.5,-457.59 511.75,-457.59 511.75,-436.84 597.5,-436.84 597.5,-457.59"/>
<text xml:space="preserve" text-anchor="middle" x="554.62" y="-444.09" font-family="Helvetica,sans-Serif" font-size="10.00">nrf24_flush_tx</text>
</a>
</g>
</g>
<!-- Node8&#45;&gt;Node12 -->
<g id="edge12_Node000008_Node000012" class="edge">
<title>Node8&#45;&gt;Node12</title>
<g id="a_edge12_Node000008_Node000012"><a xlink:title=" ">
<path fill="none" stroke="#63b8ff" d="M301.48,-417.98C316.07,-424.81 336.09,-433.11 354.75,-437.22 403.15,-447.86 459.7,-449.72 500.1,-449.3"/>
<polygon fill="#63b8ff" stroke="#63b8ff" points="500.12,-452.8 510.06,-449.13 500,-445.8 500.12,-452.8"/>
</a>
</g>
</g>
<!-- Node8&#45;&gt;Node16 -->
<g id="edge18_Node000008_Node000016" class="edge">
<title>Node8&#45;&gt;Node16</title>
<g id="a_edge18_Node000008_Node000016"><a xlink:title=" ">
<path fill="none" stroke="#63b8ff" d="M315.46,-397.23C330.58,-392.94 348.51,-387.86 364.92,-383.2"/>
<polygon fill="#63b8ff" stroke="#63b8ff" points="365.86,-386.58 374.53,-380.48 363.95,-379.84 365.86,-386.58"/>
</a>
</g>
</g>
<!-- Node17 -->
<g id="Node000017" class="node">
<title>Node17</title>
<g id="a_Node000017"><a xlink:href="carrinho_2nrf24__avr_8c.html#abefdb1d58b989853c0646a6c8b18b7d3" target="_top" xlink:title=" ">
<polygon fill="white" stroke="#666666" points="584,-418.59 525.25,-418.59 525.25,-397.84 584,-397.84 584,-418.59"/>
<text xml:space="preserve" text-anchor="middle" x="554.62" y="-405.09" font-family="Helvetica,sans-Serif" font-size="10.00">read_reg</text>
</a>
</g>
</g>
<!-- Node8&#45;&gt;Node17 -->
<g id="edge28_Node000008_Node000017" class="edge">
<title>Node8&#45;&gt;Node17</title>
<g id="a_edge28_Node000008_Node000017"><a xlink:title=" ">
<path fill="none" stroke="#63b8ff" d="M315.3,-415.19C327.7,-417.64 341.78,-420.01 354.75,-421.22 408.3,-426.2 422.16,-425.66 475.75,-421.22 488.17,-420.19 501.6,-418.25 513.74,-416.18"/>
<polygon fill="#63b8ff" stroke="#63b8ff" points="514.2,-419.65 523.43,-414.44 512.97,-412.76 514.2,-419.65"/>
</a>
</g>
</g>
<!-- Node18 -->
<g id="Node000018" class="node">
<title>Node18</title>
<g id="a_Node000018"><a xlink:href="carrinho_2nrf24__avr_8c.html#a08bc978021db604d02a6da754f73e7e2" target="_top" xlink:title=" ">
<polygon fill="white" stroke="#666666" points="585.5,-340.59 523.75,-340.59 523.75,-319.84 585.5,-319.84 585.5,-340.59"/>
<text xml:space="preserve" text-anchor="middle" x="554.62" y="-327.09" font-family="Helvetica,sans-Serif" font-size="10.00">write_reg</text>
</a>
</g>
</g>
<!-- Node8&#45;&gt;Node18 -->
<g id="edge33_Node000008_Node000018" class="edge">
<title>Node8&#45;&gt;Node18</title>
<g id="a_edge33_Node000008_Node000018"><a xlink:title=" ">
<path fill="none" stroke="#63b8ff" d="M290.17,-396.63C303.45,-383.23 328.4,-360.64 354.75,-350.22 406.26,-329.84 470.85,-327.1 512.19,-327.92"/>
<polygon fill="#63b8ff" stroke="#63b8ff" points="511.84,-331.41 521.94,-328.2 512.05,-324.42 511.84,-331.41"/>
</a>
</g>
</g>
<!-- Node19 -->
<g id="Node000019" class="node">
<title>Node19</title>
<g id="a_Node000019"><a xlink:href="carrinho_2nrf24__avr_8c.html#a3c9fd94e9894bf0792d4ff5891c16436" target="_top" xlink:title=" ">
<polygon fill="white" stroke="#666666" points="597.12,-496.59 512.12,-496.59 512.12,-475.84 597.12,-475.84 597.12,-496.59"/>
<text xml:space="preserve" text-anchor="middle" x="554.62" y="-483.09" font-family="Helvetica,sans-Serif" font-size="10.00">write_payload</text>
</a>
</g>
</g>
<!-- Node8&#45;&gt;Node19 -->
<g id="edge29_Node000008_Node000019" class="edge">
<title>Node8&#45;&gt;Node19</title>
<g id="a_edge29_Node000008_Node000019"><a xlink:title=" ">
<path fill="none" stroke="#63b8ff" d="M303.11,-418.06C308.37,-420.83 313.86,-423.96 318.75,-427.22 336.09,-438.75 335.73,-448.73 354.75,-457.22 401.1,-477.9 459,-484.44 500.35,-486.23"/>
<polygon fill="#63b8ff" stroke="#63b8ff" points="500.19,-489.73 510.3,-486.58 500.43,-482.74 500.19,-489.73"/>
</a>
</g>
</g>
<!-- Node10 -->
<g id="Node000010" class="node">
<title>Node10</title>
<g id="a_Node000010"><a xlink:href="carrinho_2nrf24__avr_8c.html#a019970fc17b6b18fa4e45e0baf22c93f" target="_top" xlink:title=" ">
<polygon fill="white" stroke="#666666" points="827.5,-456.59 743.25,-456.59 743.25,-435.84 827.5,-435.84 827.5,-456.59"/>
<text xml:space="preserve" text-anchor="middle" x="785.38" y="-443.09" font-family="Helvetica,sans-Serif" font-size="10.00">digitalWrite_d</text>
</a>
</g>
</g>
<!-- Node9&#45;&gt;Node10 -->
<g id="edge9_Node000009_Node000010" class="edge">
<title>Node9&#45;&gt;Node10</title>
<g id="a_edge9_Node000009_Node000010"><a xlink:title=" ">
<path fill="none" stroke="#63b8ff" d="M683.9,-530.69C702.97,-514.65 739.55,-483.9 762.91,-464.26"/>
<polygon fill="#63b8ff" stroke="#63b8ff" points="764.89,-467.17 770.29,-458.06 760.38,-461.81 764.89,-467.17"/>
</a>
</g>
</g>
<!-- Node11&#45;&gt;Node10 -->
<g id="edge11_Node000011_Node000010" class="edge">
<title>Node11&#45;&gt;Node10</title>
<g id="a_edge11_Node000011_Node000010"><a xlink:title=" ">
<path fill="none" stroke="#63b8ff" d="M579.96,-368.48C610.73,-368.38 664.83,-371.04 707.25,-388.22 729.63,-397.28 751.25,-414.51 765.87,-427.85"/>
<polygon fill="#63b8ff" stroke="#63b8ff" points="763.25,-430.18 772.92,-434.5 768.05,-425.09 763.25,-430.18"/>
</a>
</g>
</g>
<!-- Node13 -->
<g id="Node000013" class="node">
<title>Node13</title>
<g id="a_Node000013"><a xlink:href="carrinho_2nrf24__avr_8c.html#adaef88bc02a8e805de3b3a82bf317549" target="_top" xlink:title=" ">
<polygon fill="white" stroke="#666666" points="699.75,-417.59 641,-417.59 641,-396.84 699.75,-396.84 699.75,-417.59"/>
<text xml:space="preserve" text-anchor="middle" x="670.38" y="-404.09" font-family="Helvetica,sans-Serif" font-size="10.00">csn_high</text>
</a>
</g>
</g>
<!-- Node12&#45;&gt;Node13 -->
<g id="edge13_Node000012_Node000013" class="edge">
<title>Node12&#45;&gt;Node13</title>
<g id="a_edge13_Node000012_Node000013"><a xlink:title=" ">
<path fill="none" stroke="#63b8ff" d="M586.41,-436.39C599.83,-431.67 615.73,-426.08 630,-421.06"/>
<polygon fill="#63b8ff" stroke="#63b8ff" points="630.82,-424.48 639.1,-417.86 628.5,-417.88 630.82,-424.48"/>
</a>
</g>
</g>
<!-- Node14 -->
<g id="Node000014" class="node">
<title>Node14</title>
<g id="a_Node000014"><a xlink:href="carrinho_2nrf24__avr_8c.html#a42f8c1120431b7c37e116a4e1eac1cc2" target="_top" xlink:title=" ">
<polygon fill="white" stroke="#666666" points="697.88,-495.59 642.88,-495.59 642.88,-474.84 697.88,-474.84 697.88,-495.59"/>
<text xml:space="preserve" text-anchor="middle" x="670.38" y="-482.09" font-family="Helvetica,sans-Serif" font-size="10.00">csn_low</text>
</a>
</g>
</g>
<!-- Node12&#45;&gt;Node14 -->
<g id="edge15_Node000012_Node000014" class="edge">
<title>Node12&#45;&gt;Node14</title>
<g id="a_edge15_Node000012_Node000014"><a xlink:title=" ">
<path fill="none" stroke="#63b8ff" d="M587.92,-458C601.5,-462.54 617.39,-467.85 631.52,-472.57"/>
<polygon fill="#63b8ff" stroke="#63b8ff" points="630.36,-475.87 640.95,-475.72 632.57,-469.23 630.36,-475.87"/>
</a>
</g>
</g>
<!-- Node15 -->
<g id="Node000015" class="node">
<title>Node15</title>
<g id="a_Node000015"><a xlink:href="carrinho_2nrf24__avr_8c.html#a8d161d483c095113df5b69798e9cd725" target="_top" xlink:title=" ">
<polygon fill="white" stroke="#666666" points="707.25,-456.59 633.5,-456.59 633.5,-435.84 707.25,-435.84 707.25,-456.59"/>
<text xml:space="preserve" text-anchor="middle" x="670.38" y="-443.09" font-family="Helvetica,sans-Serif" font-size="10.00">spi_transfer</text>
</a>
</g>
</g>
<!-- Node12&#45;&gt;Node15 -->
<g id="edge17_Node000012_Node000015" class="edge">
<title>Node12&#45;&gt;Node15</title>
<g id="a_edge17_Node000012_Node000015"><a xlink:title=" ">
<path fill="none" stroke="#63b8ff" d="M597.98,-446.84C605.79,-446.77 613.99,-446.7 621.94,-446.63"/>
<polygon fill="#63b8ff" stroke="#63b8ff" points="621.84,-450.13 631.81,-446.55 621.78,-443.13 621.84,-450.13"/>
</a>
</g>
</g>
<!-- Node13&#45;&gt;Node10 -->
<g id="edge14_Node000013_Node000010" class="edge">
<title>Node13&#45;&gt;Node10</title>
<g id="a_edge14_Node000013_Node000010"><a xlink:title=" ">
<path fill="none" stroke="#63b8ff" d="M700.18,-417.16C713.1,-421.62 728.59,-426.96 742.75,-431.85"/>
<polygon fill="#63b8ff" stroke="#63b8ff" points="741.21,-435.02 751.81,-434.98 743.5,-428.41 741.21,-435.02"/>
</a>
</g>
</g>
<!-- Node14&#45;&gt;Node10 -->
<g id="edge16_Node000014_Node000010" class="edge">
<title>Node14&#45;&gt;Node10</title>
<g id="a_edge16_Node000014_Node000010"><a xlink:title=" ">
<path fill="none" stroke="#63b8ff" d="M698.15,-475.97C711.39,-471.41 727.66,-465.79 742.5,-460.67"/>
<polygon fill="#63b8ff" stroke="#63b8ff" points="743.24,-464.12 751.55,-457.55 740.95,-457.5 743.24,-464.12"/>
</a>
</g>
</g>
<!-- Node16&#45;&gt;Node11 -->
<g id="edge19_Node000016_Node000011" class="edge">
<title>Node16&#45;&gt;Node11</title>
<g id="a_edge19_Node000016_Node000011"><a xlink:title=" ">
<path fill="none" stroke="#63b8ff" d="M471.73,-369.22C487.44,-369.22 504.1,-369.22 518.27,-369.22"/>
<polygon fill="#63b8ff" stroke="#63b8ff" points="517.99,-372.72 527.99,-369.22 517.99,-365.72 517.99,-372.72"/>
</a>
</g>
</g>
<!-- Node16&#45;&gt;Node17 -->
<g id="edge20_Node000016_Node000017" class="edge">
<title>Node16&#45;&gt;Node17</title>
<g id="a_edge20_Node000016_Node000017"><a xlink:title=" ">
<path fill="none" stroke="#63b8ff" d="M454.52,-380.08C473.14,-385.37 495.51,-391.72 514.28,-397.05"/>
<polygon fill="#63b8ff" stroke="#63b8ff" points="513.12,-400.35 523.69,-399.72 515.03,-393.62 513.12,-400.35"/>
</a>
</g>
</g>
<!-- Node16&#45;&gt;Node18 -->
<g id="edge24_Node000016_Node000018" class="edge">
<title>Node16&#45;&gt;Node18</title>
<g id="a_edge24_Node000016_Node000018"><a xlink:title=" ">
<path fill="none" stroke="#63b8ff" d="M454.52,-358.35C472.53,-353.24 494.04,-347.13 512.42,-341.91"/>
<polygon fill="#63b8ff" stroke="#63b8ff" points="513.27,-345.31 521.93,-339.21 511.36,-338.58 513.27,-345.31"/>
</a>
</g>
</g>
<!-- Node17&#45;&gt;Node13 -->
<g id="edge21_Node000017_Node000013" class="edge">
<title>Node17&#45;&gt;Node13</title>
<g id="a_edge21_Node000017_Node000013"><a xlink:title=" ">
<path fill="none" stroke="#63b8ff" d="M584.33,-407.96C597.94,-407.84 614.42,-407.7 629.24,-407.57"/>
<polygon fill="#63b8ff" stroke="#63b8ff" points="629.2,-411.07 639.17,-407.48 629.14,-404.07 629.2,-411.07"/>
</a>
</g>
</g>
<!-- Node17&#45;&gt;Node14 -->
<g id="edge22_Node000017_Node000014" class="edge">
<title>Node17&#45;&gt;Node14</title>
<g id="a_edge22_Node000017_Node000014"><a xlink:title=" ">
<path fill="none" stroke="#63b8ff" d="M581.68,-418.9C587.11,-421.6 592.66,-424.74 597.5,-428.22 616.14,-441.59 615.29,-451.26 633.5,-465.22 634.98,-466.35 636.53,-467.46 638.12,-468.54"/>
<polygon fill="#63b8ff" stroke="#63b8ff" points="635.86,-471.25 646.2,-473.55 639.55,-465.3 635.86,-471.25"/>
</a>
</g>
</g>
<!-- Node17&#45;&gt;Node15 -->
<g id="edge23_Node000017_Node000015" class="edge">
<title>Node17&#45;&gt;Node15</title>
<g id="a_edge23_Node000017_Node000015"><a xlink:title=" ">
<path fill="none" stroke="#63b8ff" d="M584.33,-417.8C597,-422.04 612.17,-427.1 626.16,-431.78"/>
<polygon fill="#63b8ff" stroke="#63b8ff" points="625.03,-435.09 635.63,-434.94 627.25,-428.45 625.03,-435.09"/>
</a>
</g>
</g>
<!-- Node18&#45;&gt;Node13 -->
<g id="edge25_Node000018_Node000013" class="edge">
<title>Node18&#45;&gt;Node13</title>
<g id="a_edge25_Node000018_Node000013"><a xlink:title=" ">
<path fill="none" stroke="#63b8ff" d="M580.47,-340.95C586.2,-343.73 592.17,-346.89 597.5,-350.22 616.01,-361.77 635.29,-377.28 649.22,-389.2"/>
<polygon fill="#63b8ff" stroke="#63b8ff" points="646.55,-391.52 656.39,-395.45 651.15,-386.24 646.55,-391.52"/>
</a>
</g>
</g>
<!-- Node18&#45;&gt;Node14 -->
<g id="edge26_Node000018_Node000014" class="edge">
<title>Node18&#45;&gt;Node14</title>
<g id="a_edge26_Node000018_Node000014"><a xlink:title=" ">
<path fill="none" stroke="#63b8ff" d="M585.68,-340.76C590.08,-343.32 594.23,-346.44 597.5,-350.22 632.58,-390.68 599.71,-423.67 633.5,-465.22 634.15,-466.01 634.84,-466.79 635.56,-467.53"/>
<polygon fill="#63b8ff" stroke="#63b8ff" points="633.16,-470.09 643.15,-473.61 637.53,-464.62 633.16,-470.09"/>
</a>
</g>
</g>
<!-- Node18&#45;&gt;Node15 -->
<g id="edge27_Node000018_Node000015" class="edge">
<title>Node18&#45;&gt;Node15</title>
<g id="a_edge27_Node000018_Node000015"><a xlink:title=" ">
<path fill="none" stroke="#63b8ff" d="M584.81,-340.93C589.42,-343.49 593.86,-346.56 597.5,-350.22 623.89,-376.69 607.96,-398.93 633.5,-426.22 634.33,-427.1 635.2,-427.96 636.12,-428.78"/>
<polygon fill="#63b8ff" stroke="#63b8ff" points="633.77,-431.4 643.89,-434.53 637.93,-425.77 633.77,-431.4"/>
</a>
</g>
</g>
<!-- Node19&#45;&gt;Node13 -->
<g id="edge30_Node000019_Node000013" class="edge">
<title>Node19&#45;&gt;Node13</title>
<g id="a_edge30_Node000019_Node000013"><a xlink:title=" ">
<path fill="none" stroke="#63b8ff" d="M582.19,-475.41C587.48,-472.75 592.83,-469.66 597.5,-466.22 616.48,-452.21 614.97,-441.81 633.5,-427.22 634.96,-426.06 636.5,-424.94 638.09,-423.85"/>
<polygon fill="#63b8ff" stroke="#63b8ff" points="639.52,-427.08 646.14,-418.8 635.81,-421.14 639.52,-427.08"/>
</a>
</g>
</g>
<!-- Node19&#45;&gt;Node14 -->
<g id="edge31_Node000019_Node000014" class="edge">
<title>Node19&#45;&gt;Node14</title>
<g id="a_edge31_Node000019_Node000014"><a xlink:title=" ">
<path fill="none" stroke="#63b8ff" d="M597.34,-485.85C608.42,-485.75 620.33,-485.65 631.21,-485.55"/>
<polygon fill="#63b8ff" stroke="#63b8ff" points="631.05,-489.05 641.01,-485.47 630.98,-482.05 631.05,-489.05"/>
</a>
</g>
</g>
<!-- Node19&#45;&gt;Node15 -->
<g id="edge32_Node000019_Node000015" class="edge">
<title>Node19&#45;&gt;Node15</title>
<g id="a_edge32_Node000019_Node000015"><a xlink:title=" ">
<path fill="none" stroke="#63b8ff" d="M586.41,-475.39C599.18,-470.9 614.19,-465.62 627.91,-460.8"/>
<polygon fill="#63b8ff" stroke="#63b8ff" points="628.87,-464.17 637.14,-457.55 626.55,-457.57 628.87,-464.17"/>
</a>
</g>
</g>
<!-- Node20&#45;&gt;Node11 -->
<g id="edge35_Node000020_Node000011" class="edge">
<title>Node20&#45;&gt;Node11</title>
<g id="a_edge35_Node000020_Node000011"><a xlink:title=" ">
<path fill="none" stroke="#63b8ff" d="M289.97,-151.9C320.24,-184.7 416.49,-285.6 511.75,-349.22 514.15,-350.82 516.71,-352.37 519.32,-353.84"/>
<polygon fill="#63b8ff" stroke="#63b8ff" points="517.67,-356.93 528.16,-358.44 520.9,-350.72 517.67,-356.93"/>
</a>
</g>
</g>
<!-- Node20&#45;&gt;Node13 -->
<g id="edge36_Node000020_Node000013" class="edge">
<title>Node20&#45;&gt;Node13</title>
<g id="a_edge36_Node000020_Node000013"><a xlink:title=" ">
<path fill="none" stroke="#63b8ff" d="M284.6,-130.44C293.82,-109.22 317.61,-62.52 354.75,-44.22 451.52,3.48 514.13,24.26 597.5,-44.22 650.77,-87.97 665.24,-313.48 668.52,-385.25"/>
<polygon fill="#63b8ff" stroke="#63b8ff" points="665.01,-385.09 668.94,-394.93 672.01,-384.79 665.01,-385.09"/>
</a>
</g>
</g>
<!-- Node20&#45;&gt;Node18 -->
<g id="edge42_Node000020_Node000018" class="edge">
<title>Node20&#45;&gt;Node18</title>
<g id="a_edge42_Node000020_Node000018"><a xlink:title=" ">
<path fill="none" stroke="#63b8ff" d="M316.61,-151.26C369.56,-166.11 462.99,-193.23 475.75,-203.22 511.58,-231.25 534.93,-280.7 546.04,-308.92"/>
<polygon fill="#63b8ff" stroke="#63b8ff" points="542.73,-310.04 549.52,-318.17 549.28,-307.58 542.73,-310.04"/>
</a>
</g>
</g>
<!-- Node21 -->
<g id="Node000021" class="node">
<title>Node21</title>
<g id="a_Node000021"><a xlink:href="carrinho_2nrf24__avr_8c.html#a023289d1e49bf7f3b61e0e1c5312c8cf" target="_top" xlink:title=" ">
<polygon fill="white" stroke="#666666" points="463.38,-73.59 367.12,-73.59 367.12,-52.84 463.38,-52.84 463.38,-73.59"/>
<text xml:space="preserve" text-anchor="middle" x="415.25" y="-60.09" font-family="Helvetica,sans-Serif" font-size="10.00">nrf24_init_hwspi</text>
</a>
</g>
</g>
<!-- Node20&#45;&gt;Node21 -->
<g id="edge37_Node000020_Node000021" class="edge">
<title>Node20&#45;&gt;Node21</title>
<g id="a_edge37_Node000020_Node000021"><a xlink:title=" ">
<path fill="none" stroke="#63b8ff" d="M291.51,-130.44C305.4,-117.65 330.2,-96.4 354.75,-83.22 358.01,-81.46 361.46,-79.82 364.98,-78.3"/>
<polygon fill="#63b8ff" stroke="#63b8ff" points="366.26,-81.55 374.27,-74.62 363.68,-75.05 366.26,-81.55"/>
</a>
</g>
</g>
<!-- Node23 -->
<g id="Node000023" class="node">
<title>Node23</title>
<g id="a_Node000023"><a xlink:href="carrinho_2nrf24__avr_8c.html#aaf2900e7932ebbf7f0ecdc6bce5840e1" target="_top" xlink:title=" ">
<polygon fill="white" stroke="#666666" points="475.75,-112.59 354.75,-112.59 354.75,-91.84 475.75,-91.84 475.75,-112.59"/>
<text xml:space="preserve" text-anchor="middle" x="415.25" y="-99.09" font-family="Helvetica,sans-Serif" font-size="10.00">nrf24_setPayloadSize</text>
</a>
</g>
</g>
<!-- Node20&#45;&gt;Node23 -->
<g id="edge39_Node000020_Node000023" class="edge">
<title>Node20&#45;&gt;Node23</title>
<g id="a_edge39_Node000020_Node000023"><a xlink:title=" ">
<path fill="none" stroke="#63b8ff" d="M316.51,-130.66C331.75,-126.23 349.7,-121 366.03,-116.25"/>
<polygon fill="#63b8ff" stroke="#63b8ff" points="366.95,-119.63 375.57,-113.47 364.99,-112.91 366.95,-119.63"/>
</a>
</g>
</g>
<!-- Node24 -->
<g id="Node000024" class="node">
<title>Node24</title>
<g id="a_Node000024"><a xlink:href="carrinho_2nrf24__avr_8c.html#aa3db4917fa58896ce0a8027a30795033" target="_top" xlink:title=" ">
<polygon fill="white" stroke="#666666" points="449.88,-151.59 380.62,-151.59 380.62,-130.84 449.88,-130.84 449.88,-151.59"/>
<text xml:space="preserve" text-anchor="middle" x="415.25" y="-138.09" font-family="Helvetica,sans-Serif" font-size="10.00">pinMode_d</text>
</a>
</g>
</g>
<!-- Node20&#45;&gt;Node24 -->
<g id="edge41_Node000020_Node000024" class="edge">
<title>Node20&#45;&gt;Node24</title>
<g id="a_edge41_Node000020_Node000024"><a xlink:title=" ">
<path fill="none" stroke="#63b8ff" d="M316.51,-141.22C332.63,-141.22 351.79,-141.22 368.85,-141.22"/>
<polygon fill="#63b8ff" stroke="#63b8ff" points="368.75,-144.72 378.75,-141.22 368.75,-137.72 368.75,-144.72"/>
</a>
</g>
</g>
<!-- Node22 -->
<g id="Node000022" class="node">
<title>Node22</title>
<g id="a_Node000022"><a xlink:href="carrinho_2nrf24__avr_8c.html#aa653f4dc3541758224a53eef3f04d490" target="_top" xlink:title=" ">
<polygon fill="white" stroke="#666666" points="580.25,-73.59 529,-73.59 529,-52.84 580.25,-52.84 580.25,-73.59"/>
<text xml:space="preserve" text-anchor="middle" x="554.62" y="-60.09" font-family="Helvetica,sans-Serif" font-size="10.00">spi_init</text>
</a>
</g>
</g>
<!-- Node21&#45;&gt;Node22 -->
<g id="edge38_Node000021_Node000022" class="edge">
<title>Node21&#45;&gt;Node22</title>
<g id="a_edge38_Node000021_Node000022"><a xlink:title=" ">
<path fill="none" stroke="#63b8ff" d="M463.53,-63.22C481.14,-63.22 500.84,-63.22 517.31,-63.22"/>
<polygon fill="#63b8ff" stroke="#63b8ff" points="517.15,-66.72 527.15,-63.22 517.15,-59.72 517.15,-66.72"/>
</a>
</g>
</g>
<!-- Node23&#45;&gt;Node18 -->
<g id="edge40_Node000023_Node000018" class="edge">
<title>Node23&#45;&gt;Node18</title>
<g id="a_edge40_Node000023_Node000018"><a xlink:title=" ">
<path fill="none" stroke="#63b8ff" d="M462.51,-113.02C467.36,-115.48 471.91,-118.5 475.75,-122.22 529.27,-173.94 546.35,-265.92 551.52,-308.04"/>
<polygon fill="#63b8ff" stroke="#63b8ff" points="548.03,-308.35 552.6,-317.91 554.99,-307.59 548.03,-308.35"/>
</a>
</g>
</g>
<!-- Node25&#45;&gt;Node18 -->
<g id="edge44_Node000025_Node000018" class="edge">
<title>Node25&#45;&gt;Node18</title>
<g id="a_edge44_Node000025_Node000018"><a xlink:title=" ">
<path fill="none" stroke="#63b8ff" d="M187.68,-235.05C252.42,-250.32 373.4,-279.42 475.75,-307.22 487.71,-310.46 500.64,-314.19 512.46,-317.69"/>
<polygon fill="#63b8ff" stroke="#63b8ff" points="511.35,-321.01 521.94,-320.52 513.35,-314.3 511.35,-321.01"/>
</a>
</g>
</g>
<!-- Node26&#45;&gt;Node18 -->
<g id="edge46_Node000026_Node000018" class="edge">
<title>Node26&#45;&gt;Node18</title>
<g id="a_edge46_Node000026_Node000018"><a xlink:title=" ">
<path fill="none" stroke="#63b8ff" d="M191.4,-295.96C273.78,-303.75 436.19,-319.11 512.36,-326.31"/>
<polygon fill="#63b8ff" stroke="#63b8ff" points="511.6,-329.76 521.88,-327.21 512.26,-322.79 511.6,-329.76"/>
</a>
</g>
</g>
</g>
</svg>

<g id="navigator" transform="translate(0 0)" fill="#404254">
  <rect fill="#f2f5e9" fill-opacity="0.5" stroke="#606060" stroke-width=".5" x="0" y="0" width="60" height="60"/>
  <use id="zoomplus" xlink:href="#zoomPlus" x="17" y="9" onmousedown="handleZoom(evt,'in')"/>
  <use id="zoomminus" xlink:href="#zoomMin" x="42" y="9" onmousedown="handleZoom(evt,'out')"/>
  <use id="reset" xlink:href="#resetDef" x="30" y="36" onmousedown="handleReset()"/>
   <use id="arrowup" xlink:href="#arrowUp" x="0" y="0" onmousedown="handlePan(0,-1)"/>
  <use id="arrowright" xlink:href="#arrowRight" x="0" y="0" onmousedown="handlePan(1,0)"/>
  <use id="arrowdown" xlink:href="#arrowDown" x="0" y="0" onmousedown="handlePan(0,1)"/>
  <use id="arrowleft" xlink:href="#arrowLeft" x="0" y="0" onmousedown="handlePan(-1,0)"/>
</g>
<svg viewBox="0 0 15 15" width="100%" height="30px" preserveAspectRatio="xMaxYMin meet">
 <g id="arrow_out" transform="scale(0.3 0.3)">
  <a xlink:href="controle_8c_ae66f6b31b5ad750f1fe042a706a4e3d4_cgraph_org.svg" target="_base">
   <rect id="button" ry="5" rx="5" y="6" x="6" height="38" width="38"
        fill="#f2f5e9" fill-opacity="0.5" stroke="#606060" stroke-width="1.0"/>
   <path id="arrow"
     d="M 11.500037,31.436501 C 11.940474,20.09759 22.043105,11.32322 32.158766,21.979434 L 37.068811,17.246167 C 37.068811,17.246167 37.088388,32 37.088388,32 L 22.160133,31.978069 C 22.160133,31.978069 26.997745,27.140456 26.997745,27.140456 C 18.528582,18.264221 13.291696,25.230495 11.500037,31.436501 z"
     style="fill:#404040;"/>
  </a>
 </g>
</svg>

<style type='text/css'>
<![CDATA[
[data-mouse-over-selected='false'] { opacity: 0.7; }
[data-mouse-over-selected='true']  { opacity: 1.0; }
]]>
</style>
<script type="application/ecmascript"><![CDATA[
document.addEventListener('DOMContentLoaded', (event) => {
  highlightEdges();
  highlightAdjacentNodes();
});
]]></script>
</svg>
