<?xml version="1.0" encoding="UTF-8" standalone="no"?>
<!DOCTYPE svg PUBLIC "-//W3C//DTD SVG 1.1//EN"
 "http://www.w3.org/Graphics/SVG/1.1/DTD/svg11.dtd">
<!-- Generated by graphviz version 14.0.4 (0)
 -->
<!-- Title: nrf24_begin Pages: 1 -->
<svg width="567pt" height="220pt"
 viewBox="0.00 0.00 567.00 220.00" xmlns="http://www.w3.org/2000/svg" xmlns:xlink="http://www.w3.org/1999/xlink">
<g id="graph0" class="graph" transform="scale(1 1) rotate(0) translate(4 215.75)">
<title>nrf24_begin</title>
<!-- Node1 -->
<g id="Node000001" class="node">
<title>Node1</title>
<g id="a_Node000001"><a xlink:title=" ">
<polygon fill="#999999" stroke="#666666" points="73.75,-115.75 0,-115.75 0,-95 73.75,-95 73.75,-115.75"/>
<text xml:space="preserve" text-anchor="middle" x="36.88" y="-102.25" font-family="Helvetica,sans-Serif" font-size="10.00">nrf24_begin</text>
</a>
</g>
</g>
<!-- Node2 -->
<g id="Node000002" class="node">
<title>Node2</title>
<g id="a_Node000002"><a xlink:href="carrinho_2nrf24__avr_8c.html#a77c5f7c57c01266d04faea3052a47f49" target="_top" xlink:title=" ">
<polygon fill="white" stroke="#666666" points="322.5,-211.75 272.75,-211.75 272.75,-191 322.5,-191 322.5,-211.75"/>
<text xml:space="preserve" text-anchor="middle" x="297.62" y="-198.25" font-family="Helvetica,sans-Serif" font-size="10.00">ce_low</text>
</a>
</g>
</g>
<!-- Node1&#45;&gt;Node2 -->
<g id="edge1_Node000001_Node000002" class="edge">
<title>Node1&#45;&gt;Node2</title>
<g id="a_edge1_Node000001_Node000002"><a xlink:title=" ">
<path fill="none" stroke="#63b8ff" d="M45,-116.12C56.48,-132.45 80.74,-163.11 109.75,-177.38 158.3,-201.25 222.12,-204.29 261.21,-203.46"/>
<polygon fill="#63b8ff" stroke="#63b8ff" points="261.11,-206.96 270.99,-203.14 260.88,-199.96 261.11,-206.96"/>
</a>
</g>
</g>
<!-- Node4 -->
<g id="Node000004" class="node">
<title>Node4</title>
<g id="a_Node000004"><a xlink:href="carrinho_2nrf24__avr_8c.html#adaef88bc02a8e805de3b3a82bf317549" target="_top" xlink:title=" ">
<polygon fill="white" stroke="#666666" points="430.75,-173.75 372,-173.75 372,-153 430.75,-153 430.75,-173.75"/>
<text xml:space="preserve" text-anchor="middle" x="401.38" y="-160.25" font-family="Helvetica,sans-Serif" font-size="10.00">csn_high</text>
</a>
</g>
</g>
<!-- Node1&#45;&gt;Node4 -->
<g id="edge3_Node000001_Node000004" class="edge">
<title>Node1&#45;&gt;Node4</title>
<g id="a_edge3_Node000001_Node000004"><a xlink:title=" ">
<path fill="none" stroke="#63b8ff" d="M53.01,-116.13C67,-125.43 88.75,-138.31 109.75,-144.38 196.37,-169.4 303.33,-168.78 360.26,-166.1"/>
<polygon fill="#63b8ff" stroke="#63b8ff" points="360.31,-169.6 370.11,-165.59 359.94,-162.61 360.31,-169.6"/>
</a>
</g>
</g>
<!-- Node5 -->
<g id="Node000005" class="node">
<title>Node5</title>
<g id="a_Node000005"><a xlink:href="carrinho_2nrf24__avr_8c.html#a023289d1e49bf7f3b61e0e1c5312c8cf" target="_top" xlink:title=" ">
<polygon fill="white" stroke="#666666" points="218.38,-135.75 122.12,-135.75 122.12,-115 218.38,-115 218.38,-135.75"/>
<text xml:space="preserve" text-anchor="middle" x="170.25" y="-122.25" font-family="Helvetica,sans-Serif" font-size="10.00">nrf24_init_hwspi</text>
</a>
</g>
</g>
<!-- Node1&#45;&gt;Node5 -->
<g id="edge5_Node000001_Node000005" class="edge">
<title>Node1&#45;&gt;Node5</title>
<g id="a_edge5_Node000001_Node000005"><a xlink:title=" ">
<path fill="none" stroke="#63b8ff" d="M74.12,-110.89C85.4,-112.61 98.14,-114.55 110.55,-116.44"/>
<polygon fill="#63b8ff" stroke="#63b8ff" points="109.89,-119.88 120.3,-117.92 110.94,-112.96 109.89,-119.88"/>
</a>
</g>
</g>
<!-- Node7 -->
<g id="Node000007" class="node">
<title>Node7</title>
<g id="a_Node000007"><a xlink:href="carrinho_2nrf24__avr_8c.html#aaf2900e7932ebbf7f0ecdc6bce5840e1" target="_top" xlink:title=" ">
<polygon fill="white" stroke="#666666" points="230.75,-96.75 109.75,-96.75 109.75,-76 230.75,-76 230.75,-96.75"/>
<text xml:space="preserve" text-anchor="middle" x="170.25" y="-83.25" font-family="Helvetica,sans-Serif" font-size="10.00">nrf24_setPayloadSize</text>
</a>
</g>
</g>
<!-- Node1&#45;&gt;Node7 -->
<g id="edge7_Node000001_Node000007" class="edge">
<title>Node1&#45;&gt;Node7</title>
<g id="a_edge7_Node000001_Node000007"><a xlink:title=" ">
<path fill="none" stroke="#63b8ff" d="M74.12,-100.13C81.64,-99.05 89.81,-97.86 98.09,-96.67"/>
<polygon fill="#63b8ff" stroke="#63b8ff" points="98.52,-100.14 107.92,-95.25 97.52,-93.21 98.52,-100.14"/>
</a>
</g>
</g>
<!-- Node8 -->
<g id="Node000008" class="node">
<title>Node8</title>
<g id="a_Node000008"><a xlink:href="carrinho_2nrf24__avr_8c.html#a08bc978021db604d02a6da754f73e7e2" target="_top" xlink:title=" ">
<polygon fill="white" stroke="#666666" points="328.5,-96.75 266.75,-96.75 266.75,-76 328.5,-76 328.5,-96.75"/>
<text xml:space="preserve" text-anchor="middle" x="297.62" y="-83.25" font-family="Helvetica,sans-Serif" font-size="10.00">write_reg</text>
</a>
</g>
</g>
<!-- Node1&#45;&gt;Node8 -->
<g id="edge14_Node000001_Node000008" class="edge">
<title>Node1&#45;&gt;Node8</title>
<g id="a_edge14_Node000001_Node000008"><a xlink:title=" ">
<path fill="none" stroke="#63b8ff" d="M52.97,-94.58C66.93,-85.3 88.65,-72.61 109.75,-67.38 161.95,-54.43 177.5,-59.85 230.75,-67.38 238.93,-68.53 247.52,-70.46 255.7,-72.65"/>
<polygon fill="#63b8ff" stroke="#63b8ff" points="254.48,-75.94 265.06,-75.35 256.41,-69.22 254.48,-75.94"/>
</a>
</g>
</g>
<!-- Node11 -->
<g id="Node000011" class="node">
<title>Node11</title>
<g id="a_Node000011"><a xlink:href="carrinho_2nrf24__avr_8c.html#aa3db4917fa58896ce0a8027a30795033" target="_top" xlink:title=" ">
<polygon fill="white" stroke="#666666" points="204.88,-20.75 135.62,-20.75 135.62,0 204.88,0 204.88,-20.75"/>
<text xml:space="preserve" text-anchor="middle" x="170.25" y="-7.25" font-family="Helvetica,sans-Serif" font-size="10.00">pinMode_d</text>
</a>
</g>
</g>
<!-- Node1&#45;&gt;Node11 -->
<g id="edge13_Node000001_Node000011" class="edge">
<title>Node1&#45;&gt;Node11</title>
<g id="a_edge13_Node000001_Node000011"><a xlink:title=" ">
<path fill="none" stroke="#63b8ff" d="M46.35,-94.65C58.83,-79.46 83.51,-51.62 109.75,-34.38 114.57,-31.21 119.88,-28.34 125.28,-25.78"/>
<polygon fill="#63b8ff" stroke="#63b8ff" points="126.52,-29.05 134.28,-21.84 123.71,-22.64 126.52,-29.05"/>
</a>
</g>
</g>
<!-- Node3 -->
<g id="Node000003" class="node">
<title>Node3</title>
<g id="a_Node000003"><a xlink:href="carrinho_2nrf24__avr_8c.html#a019970fc17b6b18fa4e45e0baf22c93f" target="_top" xlink:title=" ">
<polygon fill="white" stroke="#666666" points="558.5,-173.75 474.25,-173.75 474.25,-153 558.5,-153 558.5,-173.75"/>
<text xml:space="preserve" text-anchor="middle" x="516.38" y="-160.25" font-family="Helvetica,sans-Serif" font-size="10.00">digitalWrite_d</text>
</a>
</g>
</g>
<!-- Node2&#45;&gt;Node3 -->
<g id="edge2_Node000002_Node000003" class="edge">
<title>Node2&#45;&gt;Node3</title>
<g id="a_edge2_Node000002_Node000003"><a xlink:title=" ">
<path fill="none" stroke="#63b8ff" d="M322.97,-198.86C350.93,-195.78 398.12,-190.03 438.25,-182.38 446.54,-180.79 455.27,-178.88 463.76,-176.89"/>
<polygon fill="#63b8ff" stroke="#63b8ff" points="464.35,-180.35 473.25,-174.6 462.71,-173.54 464.35,-180.35"/>
</a>
</g>
</g>
<!-- Node4&#45;&gt;Node3 -->
<g id="edge4_Node000004_Node000003" class="edge">
<title>Node4&#45;&gt;Node3</title>
<g id="a_edge4_Node000004_Node000003"><a xlink:title=" ">
<path fill="none" stroke="#63b8ff" d="M431.18,-163.38C440.69,-163.38 451.59,-163.38 462.32,-163.38"/>
<polygon fill="#63b8ff" stroke="#63b8ff" points="462.31,-166.88 472.31,-163.38 462.31,-159.88 462.31,-166.88"/>
</a>
</g>
</g>
<!-- Node6 -->
<g id="Node000006" class="node">
<title>Node6</title>
<g id="a_Node000006"><a xlink:href="carrinho_2nrf24__avr_8c.html#aa653f4dc3541758224a53eef3f04d490" target="_top" xlink:title=" ">
<polygon fill="white" stroke="#666666" points="323.25,-135.75 272,-135.75 272,-115 323.25,-115 323.25,-135.75"/>
<text xml:space="preserve" text-anchor="middle" x="297.62" y="-122.25" font-family="Helvetica,sans-Serif" font-size="10.00">spi_init</text>
</a>
</g>
</g>
<!-- Node5&#45;&gt;Node6 -->
<g id="edge6_Node000005_Node000006" class="edge">
<title>Node5&#45;&gt;Node6</title>
<g id="a_edge6_Node000005_Node000006"><a xlink:title=" ">
<path fill="none" stroke="#63b8ff" d="M218.65,-125.38C232.45,-125.38 247.31,-125.38 260.31,-125.38"/>
<polygon fill="#63b8ff" stroke="#63b8ff" points="260.14,-128.88 270.14,-125.38 260.14,-121.88 260.14,-128.88"/>
</a>
</g>
</g>
<!-- Node7&#45;&gt;Node8 -->
<g id="edge8_Node000007_Node000008" class="edge">
<title>Node7&#45;&gt;Node8</title>
<g id="a_edge8_Node000007_Node000008"><a xlink:title=" ">
<path fill="none" stroke="#63b8ff" d="M231,-86.38C239.13,-86.38 247.32,-86.38 255.03,-86.38"/>
<polygon fill="#63b8ff" stroke="#63b8ff" points="254.77,-89.88 264.77,-86.38 254.77,-82.88 254.77,-89.88"/>
</a>
</g>
</g>
<!-- Node8&#45;&gt;Node4 -->
<g id="edge9_Node000008_Node000004" class="edge">
<title>Node8&#45;&gt;Node4</title>
<g id="a_edge9_Node000008_Node000004"><a xlink:title=" ">
<path fill="none" stroke="#63b8ff" d="M316.13,-97.2C320.31,-100.03 324.66,-103.18 328.5,-106.38 346.13,-121.06 346.29,-129.42 364.5,-143.38 365.98,-144.51 367.53,-145.62 369.12,-146.7"/>
<polygon fill="#63b8ff" stroke="#63b8ff" points="366.86,-149.41 377.2,-151.71 370.55,-143.46 366.86,-149.41"/>
</a>
</g>
</g>
<!-- Node9 -->
<g id="Node000009" class="node">
<title>Node9</title>
<g id="a_Node000009"><a xlink:href="carrinho_2nrf24__avr_8c.html#a42f8c1120431b7c37e116a4e1eac1cc2" target="_top" xlink:title=" ">
<polygon fill="white" stroke="#666666" points="428.88,-134.75 373.88,-134.75 373.88,-114 428.88,-114 428.88,-134.75"/>
<text xml:space="preserve" text-anchor="middle" x="401.38" y="-121.25" font-family="Helvetica,sans-Serif" font-size="10.00">csn_low</text>
</a>
</g>
</g>
<!-- Node8&#45;&gt;Node9 -->
<g id="edge10_Node000008_Node000009" class="edge">
<title>Node8&#45;&gt;Node9</title>
<g id="a_edge10_Node000008_Node000009"><a xlink:title=" ">
<path fill="none" stroke="#63b8ff" d="M327.51,-97.16C338.46,-101.25 351.1,-105.97 362.74,-110.32"/>
<polygon fill="#63b8ff" stroke="#63b8ff" points="361.5,-113.59 372.09,-113.81 363.95,-107.04 361.5,-113.59"/>
</a>
</g>
</g>
<!-- Node10 -->
<g id="Node000010" class="node">
<title>Node10</title>
<g id="a_Node000010"><a xlink:href="carrinho_2nrf24__avr_8c.html#a8d161d483c095113df5b69798e9cd725" target="_top" xlink:title=" ">
<polygon fill="white" stroke="#666666" points="438.25,-95.75 364.5,-95.75 364.5,-75 438.25,-75 438.25,-95.75"/>
<text xml:space="preserve" text-anchor="middle" x="401.38" y="-82.25" font-family="Helvetica,sans-Serif" font-size="10.00">spi_transfer</text>
</a>
</g>
</g>
<!-- Node8&#45;&gt;Node10 -->
<g id="edge12_Node000008_Node000010" class="edge">
<title>Node8&#45;&gt;Node10</title>
<g id="a_edge12_Node000008_Node000010"><a xlink:title=" ">
<path fill="none" stroke="#63b8ff" d="M328.88,-86.08C336.44,-86 344.74,-85.92 352.92,-85.84"/>
<polygon fill="#63b8ff" stroke="#63b8ff" points="352.84,-89.34 362.8,-85.74 352.77,-82.34 352.84,-89.34"/>
</a>
</g>
</g>
<!-- Node9&#45;&gt;Node3 -->
<g id="edge11_Node000009_Node000003" class="edge">
<title>Node9&#45;&gt;Node3</title>
<g id="a_edge11_Node000009_Node000003"><a xlink:title=" ">
<path fill="none" stroke="#63b8ff" d="M429.15,-133.62C442.39,-138.19 458.66,-143.8 473.5,-148.92"/>
<polygon fill="#63b8ff" stroke="#63b8ff" points="471.95,-152.09 482.55,-152.05 474.24,-145.47 471.95,-152.09"/>
</a>
</g>
</g>
</g>
</svg>
