<?xml version="1.0" encoding="UTF-8" standalone="no"?>
<!DOCTYPE svg PUBLIC "-//W3C//DTD SVG 1.1//EN"
 "http://www.w3.org/Graphics/SVG/1.1/DTD/svg11.dtd">
<!-- Generated by graphviz version 14.0.4 (0)
 -->
<!-- Title: nrf24_flush_tx Pages: 1 -->
<svg width="324pt" height="107pt"
 viewBox="0.00 0.00 324.00 107.00" xmlns="http://www.w3.org/2000/svg" xmlns:xlink="http://www.w3.org/1999/xlink">
<g id="graph0" class="graph" transform="scale(1 1) rotate(0) translate(4 102.75)">
<title>nrf24_flush_tx</title>
<!-- Node1 -->
<g id="Node000001" class="node">
<title>Node1</title>
<g id="a_Node000001"><a xlink:title=" ">
<polygon fill="#999999" stroke="#666666" points="85.75,-59.75 0,-59.75 0,-39 85.75,-39 85.75,-59.75"/>
<text xml:space="preserve" text-anchor="middle" x="42.88" y="-46.25" font-family="Helvetica,sans-Serif" font-size="10.00">nrf24_flush_tx</text>
</a>
</g>
</g>
<!-- Node2 -->
<g id="Node000002" class="node">
<title>Node2</title>
<g id="a_Node000002"><a xlink:href="carrinho_2nrf24__avr_8c.html#adaef88bc02a8e805de3b3a82bf317549" target="_top" xlink:title=" ">
<polygon fill="white" stroke="#666666" points="188,-98.75 129.25,-98.75 129.25,-78 188,-78 188,-98.75"/>
<text xml:space="preserve" text-anchor="middle" x="158.62" y="-85.25" font-family="Helvetica,sans-Serif" font-size="10.00">csn_high</text>
</a>
</g>
</g>
<!-- Node1&#45;&gt;Node2 -->
<g id="edge1_Node000001_Node000002" class="edge">
<title>Node1&#45;&gt;Node2</title>
<g id="a_edge1_Node000001_Node000002"><a xlink:title=" ">
<path fill="none" stroke="#63b8ff" d="M75.56,-60.24C88.74,-64.76 104.17,-70.05 118.08,-74.82"/>
<polygon fill="#63b8ff" stroke="#63b8ff" points="116.81,-78.08 127.4,-78.01 119.08,-71.46 116.81,-78.08"/>
</a>
</g>
</g>
<!-- Node4 -->
<g id="Node000004" class="node">
<title>Node4</title>
<g id="a_Node000004"><a xlink:href="carrinho_2nrf24__avr_8c.html#a42f8c1120431b7c37e116a4e1eac1cc2" target="_top" xlink:title=" ">
<polygon fill="white" stroke="#666666" points="186.12,-59.75 131.12,-59.75 131.12,-39 186.12,-39 186.12,-59.75"/>
<text xml:space="preserve" text-anchor="middle" x="158.62" y="-46.25" font-family="Helvetica,sans-Serif" font-size="10.00">csn_low</text>
</a>
</g>
</g>
<!-- Node1&#45;&gt;Node4 -->
<g id="edge3_Node000001_Node000004" class="edge">
<title>Node1&#45;&gt;Node4</title>
<g id="a_edge3_Node000001_Node000004"><a xlink:title=" ">
<path fill="none" stroke="#63b8ff" d="M86.23,-49.38C97.06,-49.38 108.65,-49.38 119.26,-49.38"/>
<polygon fill="#63b8ff" stroke="#63b8ff" points="119.24,-52.88 129.24,-49.38 119.24,-45.88 119.24,-52.88"/>
</a>
</g>
</g>
<!-- Node5 -->
<g id="Node000005" class="node">
<title>Node5</title>
<g id="a_Node000005"><a xlink:href="carrinho_2nrf24__avr_8c.html#a8d161d483c095113df5b69798e9cd725" target="_top" xlink:title=" ">
<polygon fill="white" stroke="#666666" points="195.5,-20.75 121.75,-20.75 121.75,0 195.5,0 195.5,-20.75"/>
<text xml:space="preserve" text-anchor="middle" x="158.62" y="-7.25" font-family="Helvetica,sans-Serif" font-size="10.00">spi_transfer</text>
</a>
</g>
</g>
<!-- Node1&#45;&gt;Node5 -->
<g id="edge5_Node000001_Node000005" class="edge">
<title>Node1&#45;&gt;Node5</title>
<g id="a_edge5_Node000001_Node000005"><a xlink:title=" ">
<path fill="none" stroke="#63b8ff" d="M75.56,-38.51C87.89,-34.29 102.19,-29.38 115.37,-24.86"/>
<polygon fill="#63b8ff" stroke="#63b8ff" points="116.35,-28.23 124.68,-21.67 114.08,-21.6 116.35,-28.23"/>
</a>
</g>
</g>
<!-- Node3 -->
<g id="Node000003" class="node">
<title>Node3</title>
<g id="a_Node000003"><a xlink:href="carrinho_2nrf24__avr_8c.html#a019970fc17b6b18fa4e45e0baf22c93f" target="_top" xlink:title=" ">
<polygon fill="white" stroke="#666666" points="315.75,-78.75 231.5,-78.75 231.5,-58 315.75,-58 315.75,-78.75"/>
<text xml:space="preserve" text-anchor="middle" x="273.62" y="-65.25" font-family="Helvetica,sans-Serif" font-size="10.00">digitalWrite_d</text>
</a>
</g>
</g>
<!-- Node2&#45;&gt;Node3 -->
<g id="edge2_Node000002_Node000003" class="edge">
<title>Node2&#45;&gt;Node3</title>
<g id="a_edge2_Node000002_Node000003"><a xlink:title=" ">
<path fill="none" stroke="#63b8ff" d="M188.43,-83.28C198.04,-81.58 209.07,-79.62 219.91,-77.7"/>
<polygon fill="#63b8ff" stroke="#63b8ff" points="220.35,-81.18 229.59,-75.99 219.13,-74.29 220.35,-81.18"/>
</a>
</g>
</g>
<!-- Node4&#45;&gt;Node3 -->
<g id="edge4_Node000004_Node000003" class="edge">
<title>Node4&#45;&gt;Node3</title>
<g id="a_edge4_Node000004_Node000003"><a xlink:title=" ">
<path fill="none" stroke="#63b8ff" d="M186.4,-53.88C196.49,-55.57 208.35,-57.57 219.99,-59.52"/>
<polygon fill="#63b8ff" stroke="#63b8ff" points="219.08,-62.92 229.52,-61.13 220.24,-56.02 219.08,-62.92"/>
</a>
</g>
</g>
</g>
</svg>
