<?xml version="1.0" encoding="UTF-8" standalone="no"?>
<!DOCTYPE svg PUBLIC "-//W3C//DTD SVG 1.1//EN"
 "http://www.w3.org/Graphics/SVG/1.1/DTD/svg11.dtd">
<!-- Generated by graphviz version 14.0.5 (0)
 -->
<!-- Title: loop Pages: 1 -->
<svg width="652pt" height="299pt"
 viewBox="0.00 0.00 652.00 299.00" xmlns="http://www.w3.org/2000/svg" xmlns:xlink="http://www.w3.org/1999/xlink">
<g id="graph0" class="graph" transform="scale(1 1) rotate(0) translate(4 294.75)">
<title>loop</title>
<!-- Node1 -->
<g id="Node000001" class="node">
<title>Node1</title>
<g id="a_Node000001"><a xlink:title="Loop principal: lê controles, aplica deadzone, envia por RF e atualiza LEDs.">
<polygon fill="#999999" stroke="#666666" points="37,-192.75 0,-192.75 0,-172 37,-172 37,-192.75"/>
<text xml:space="preserve" text-anchor="middle" x="18.5" y="-179.25" font-family="Helvetica,sans-Serif" font-size="10.00">loop</text>
</a>
</g>
</g>
<!-- Node2 -->
<g id="Node000002" class="node">
<title>Node2</title>
<g id="a_Node000002"><a xlink:href="controle_8c.html#a3785cfdfc42be12ee699c8b8b4e4d01f" target="_top" xlink:title="Retorna valor absoluto de um inteiro.">
<polygon fill="white" stroke="#666666" points="134.38,-290.75 83.12,-290.75 83.12,-270 134.38,-270 134.38,-290.75"/>
<text xml:space="preserve" text-anchor="middle" x="108.75" y="-277.25" font-family="Helvetica,sans-Serif" font-size="10.00">abs_int</text>
</a>
</g>
</g>
<!-- Node1&#45;&gt;Node2 -->
<g id="edge1_Node000001_Node000002" class="edge">
<title>Node1&#45;&gt;Node2</title>
<g id="a_edge1_Node000001_Node000002"><a xlink:title=" ">
<path fill="none" stroke="#63b8ff" d="M24.82,-193.08C33.27,-209.23 51.05,-240.09 73,-260.38 74.04,-261.33 75.12,-262.26 76.25,-263.16"/>
<polygon fill="#63b8ff" stroke="#63b8ff" points="73.95,-265.83 84.16,-268.64 77.93,-260.07 73.95,-265.83"/>
</a>
</g>
</g>
<!-- Node3 -->
<g id="Node000003" class="node">
<title>Node3</title>
<g id="a_Node000003"><a xlink:href="controle_8c.html#a7c3d687942e3acba4e53cac61d9e71ea" target="_top" xlink:title="Lê o ADC em um canal específico.">
<polygon fill="white" stroke="#666666" points="138.88,-251.75 78.62,-251.75 78.62,-231 138.88,-231 138.88,-251.75"/>
<text xml:space="preserve" text-anchor="middle" x="108.75" y="-238.25" font-family="Helvetica,sans-Serif" font-size="10.00">adc_read</text>
</a>
</g>
</g>
<!-- Node1&#45;&gt;Node3 -->
<g id="edge2_Node000001_Node000003" class="edge">
<title>Node1&#45;&gt;Node3</title>
<g id="a_edge2_Node000001_Node000003"><a xlink:title=" ">
<path fill="none" stroke="#63b8ff" d="M33.29,-193.06C43.93,-201.15 59.12,-212.36 73,-221.38 74.8,-222.54 76.66,-223.72 78.55,-224.88"/>
<polygon fill="#63b8ff" stroke="#63b8ff" points="76.36,-227.65 86.75,-229.75 79.94,-221.63 76.36,-227.65"/>
</a>
</g>
</g>
<!-- Node4 -->
<g id="Node000004" class="node">
<title>Node4</title>
<g id="a_Node000004"><a xlink:href="controle_8c.html#a2d443dafac1b8dfb9be2bc8b797d6820" target="_top" xlink:title=" ">
<polygon fill="white" stroke="#666666" points="143.75,-212.75 73.75,-212.75 73.75,-192 143.75,-192 143.75,-212.75"/>
<text xml:space="preserve" text-anchor="middle" x="108.75" y="-199.25" font-family="Helvetica,sans-Serif" font-size="10.00">delay20ms</text>
</a>
</g>
</g>
<!-- Node1&#45;&gt;Node4 -->
<g id="edge3_Node000001_Node000004" class="edge">
<title>Node1&#45;&gt;Node4</title>
<g id="a_edge3_Node000001_Node000004"><a xlink:title=" ">
<path fill="none" stroke="#63b8ff" d="M37.36,-186.42C44.65,-188.08 53.45,-190.07 62.33,-192.08"/>
<polygon fill="#63b8ff" stroke="#63b8ff" points="61.49,-195.48 72.02,-194.28 63.04,-188.65 61.49,-195.48"/>
</a>
</g>
</g>
<!-- Node5 -->
<g id="Node000005" class="node">
<title>Node5</title>
<g id="a_Node000005"><a xlink:href="controle_8c.html#aada2d75bc8a8c6eb845bd940eadfa3fd" target="_top" xlink:title="Função equivalente ao map() do Arduino.">
<polygon fill="white" stroke="#666666" points="127.62,-173.75 89.88,-173.75 89.88,-153 127.62,-153 127.62,-173.75"/>
<text xml:space="preserve" text-anchor="middle" x="108.75" y="-160.25" font-family="Helvetica,sans-Serif" font-size="10.00">map</text>
</a>
</g>
</g>
<!-- Node1&#45;&gt;Node5 -->
<g id="edge4_Node000001_Node000005" class="edge">
<title>Node1&#45;&gt;Node5</title>
<g id="a_edge4_Node000001_Node000005"><a xlink:title=" ">
<path fill="none" stroke="#63b8ff" d="M37.36,-178.53C49.12,-176 64.8,-172.62 78.38,-169.7"/>
<polygon fill="#63b8ff" stroke="#63b8ff" points="79.1,-173.12 88.14,-167.6 77.62,-166.28 79.1,-173.12"/>
</a>
</g>
</g>
<!-- Node6 -->
<g id="Node000006" class="node">
<title>Node6</title>
<g id="a_Node000006"><a xlink:href="carrinho_2nrf24__avr_8c.html#a8232e1982aabc6f52408c318402cb578" target="_top" xlink:title=" ">
<polygon fill="white" stroke="#666666" points="144.5,-134.75 73,-134.75 73,-114 144.5,-114 144.5,-134.75"/>
<text xml:space="preserve" text-anchor="middle" x="108.75" y="-121.25" font-family="Helvetica,sans-Serif" font-size="10.00">nrf24_write</text>
</a>
</g>
</g>
<!-- Node1&#45;&gt;Node6 -->
<g id="edge5_Node000001_Node000006" class="edge">
<title>Node1&#45;&gt;Node6</title>
<g id="a_edge5_Node000001_Node000006"><a xlink:title=" ">
<path fill="none" stroke="#63b8ff" d="M33.78,-171.67C44.41,-163.84 59.38,-153.1 73,-144.38 74.85,-143.19 76.76,-142 78.71,-140.81"/>
<polygon fill="#63b8ff" stroke="#63b8ff" points="80.31,-143.93 87.13,-135.83 76.74,-137.91 80.31,-143.93"/>
</a>
</g>
</g>
<!-- Node18 -->
<g id="Node000018" class="node">
<title>Node18</title>
<g id="a_Node000018"><a xlink:href="controle_8c.html#a0bf689abd3a20724062e39ce568130b1" target="_top" xlink:title="Escreve valor PWM em LED1 ou LED2.">
<polygon fill="white" stroke="#666666" points="143.75,-95.75 73.75,-95.75 73.75,-75 143.75,-75 143.75,-95.75"/>
<text xml:space="preserve" text-anchor="middle" x="108.75" y="-82.25" font-family="Helvetica,sans-Serif" font-size="10.00">pwm_write</text>
</a>
</g>
</g>
<!-- Node1&#45;&gt;Node18 -->
<g id="edge32_Node000001_Node000018" class="edge">
<title>Node1&#45;&gt;Node18</title>
<g id="a_edge32_Node000001_Node000018"><a xlink:title=" ">
<path fill="none" stroke="#63b8ff" d="M25,-171.55C33.54,-155.54 51.3,-125.3 73,-105.38 74.07,-104.4 75.19,-103.44 76.35,-102.52"/>
<polygon fill="#63b8ff" stroke="#63b8ff" points="78.27,-105.45 84.54,-96.9 74.31,-99.67 78.27,-105.45"/>
</a>
</g>
</g>
<!-- Node7 -->
<g id="Node000007" class="node">
<title>Node7</title>
<g id="a_Node000007"><a xlink:href="carrinho_2nrf24__avr_8c.html#a5336963072afb877d785bed84eb6b5f4" target="_top" xlink:title=" ">
<polygon fill="white" stroke="#666666" points="263.25,-248.75 209.75,-248.75 209.75,-228 263.25,-228 263.25,-248.75"/>
<text xml:space="preserve" text-anchor="middle" x="236.5" y="-235.25" font-family="Helvetica,sans-Serif" font-size="10.00">ce_high</text>
</a>
</g>
</g>
<!-- Node6&#45;&gt;Node7 -->
<g id="edge6_Node000006_Node000007" class="edge">
<title>Node6&#45;&gt;Node7</title>
<g id="a_edge6_Node000006_Node000007"><a xlink:title=" ">
<path fill="none" stroke="#63b8ff" d="M132.8,-135.12C137.01,-137.76 141.14,-140.85 144.5,-144.38 168.65,-169.69 154.99,-190.44 180.5,-214.38 185.78,-219.33 192.26,-223.37 198.88,-226.62"/>
<polygon fill="#63b8ff" stroke="#63b8ff" points="197.32,-229.75 207.88,-230.5 200.09,-223.32 197.32,-229.75"/>
</a>
</g>
</g>
<!-- Node9 -->
<g id="Node000009" class="node">
<title>Node9</title>
<g id="a_Node000009"><a xlink:href="carrinho_2nrf24__avr_8c.html#a77c5f7c57c01266d04faea3052a47f49" target="_top" xlink:title=" ">
<polygon fill="white" stroke="#666666" points="396.25,-176.75 346.5,-176.75 346.5,-156 396.25,-156 396.25,-176.75"/>
<text xml:space="preserve" text-anchor="middle" x="371.38" y="-163.25" font-family="Helvetica,sans-Serif" font-size="10.00">ce_low</text>
</a>
</g>
</g>
<!-- Node6&#45;&gt;Node9 -->
<g id="edge8_Node000006_Node000009" class="edge">
<title>Node6&#45;&gt;Node9</title>
<g id="a_edge8_Node000006_Node000009"><a xlink:title=" ">
<path fill="none" stroke="#63b8ff" d="M129.29,-135.2C146.44,-144.49 170.2,-156.77 180.5,-159.38 232.98,-172.67 296.22,-171.8 334.84,-169.45"/>
<polygon fill="#63b8ff" stroke="#63b8ff" points="334.99,-172.95 344.73,-168.78 334.51,-165.97 334.99,-172.95"/>
</a>
</g>
</g>
<!-- Node10 -->
<g id="Node000010" class="node">
<title>Node10</title>
<g id="a_Node000010"><a xlink:href="carrinho_2nrf24__avr_8c.html#a617ab4b2604d6f482796e35da85369ad" target="_top" xlink:title=" ">
<polygon fill="white" stroke="#666666" points="414.25,-20.75 328.5,-20.75 328.5,0 414.25,0 414.25,-20.75"/>
<text xml:space="preserve" text-anchor="middle" x="371.38" y="-7.25" font-family="Helvetica,sans-Serif" font-size="10.00">nrf24_flush_tx</text>
</a>
</g>
</g>
<!-- Node6&#45;&gt;Node10 -->
<g id="edge10_Node000006_Node000010" class="edge">
<title>Node6&#45;&gt;Node10</title>
<g id="a_edge10_Node000006_Node000010"><a xlink:title=" ">
<path fill="none" stroke="#63b8ff" d="M131.62,-113.6C136.11,-110.9 140.64,-107.79 144.5,-104.38 164.46,-86.7 158.23,-71.04 180.5,-56.38 221.45,-29.4 276.7,-18.22 317.04,-13.6"/>
<polygon fill="#63b8ff" stroke="#63b8ff" points="317.17,-17.11 326.76,-12.6 316.45,-10.14 317.17,-17.11"/>
</a>
</g>
</g>
<!-- Node14 -->
<g id="Node000014" class="node">
<title>Node14</title>
<g id="a_Node000014"><a xlink:href="carrinho_2nrf24__avr_8c.html#a33899bc3c0f4d2293f37c306d0b8e297" target="_top" xlink:title=" ">
<polygon fill="white" stroke="#666666" points="292.5,-134.75 180.5,-134.75 180.5,-114 292.5,-114 292.5,-134.75"/>
<text xml:space="preserve" text-anchor="middle" x="236.5" y="-121.25" font-family="Helvetica,sans-Serif" font-size="10.00">nrf24_stopListening</text>
</a>
</g>
</g>
<!-- Node6&#45;&gt;Node14 -->
<g id="edge16_Node000006_Node000014" class="edge">
<title>Node6&#45;&gt;Node14</title>
<g id="a_edge16_Node000006_Node000014"><a xlink:title=" ">
<path fill="none" stroke="#63b8ff" d="M144.78,-124.38C152.37,-124.38 160.65,-124.38 169.01,-124.38"/>
<polygon fill="#63b8ff" stroke="#63b8ff" points="168.89,-127.88 178.89,-124.38 168.89,-120.88 168.89,-127.88"/>
</a>
</g>
</g>
<!-- Node15 -->
<g id="Node000015" class="node">
<title>Node15</title>
<g id="a_Node000015"><a xlink:href="carrinho_2nrf24__avr_8c.html#abefdb1d58b989853c0646a6c8b18b7d3" target="_top" xlink:title=" ">
<polygon fill="white" stroke="#666666" points="400.75,-98.75 342,-98.75 342,-78 400.75,-78 400.75,-98.75"/>
<text xml:space="preserve" text-anchor="middle" x="371.38" y="-85.25" font-family="Helvetica,sans-Serif" font-size="10.00">read_reg</text>
</a>
</g>
</g>
<!-- Node6&#45;&gt;Node15 -->
<g id="edge26_Node000006_Node000015" class="edge">
<title>Node6&#45;&gt;Node15</title>
<g id="a_edge26_Node000006_Node000015"><a xlink:title=" ">
<path fill="none" stroke="#63b8ff" d="M144.75,-113.69C156.06,-110.58 168.73,-107.47 180.5,-105.38 231.74,-96.27 291.66,-91.94 330.28,-89.95"/>
<polygon fill="#63b8ff" stroke="#63b8ff" points="330.21,-93.46 340.03,-89.48 329.87,-86.46 330.21,-93.46"/>
</a>
</g>
</g>
<!-- Node16 -->
<g id="Node000016" class="node">
<title>Node16</title>
<g id="a_Node000016"><a xlink:href="carrinho_2nrf24__avr_8c.html#a08bc978021db604d02a6da754f73e7e2" target="_top" xlink:title=" ">
<polygon fill="white" stroke="#666666" points="402.25,-137.75 340.5,-137.75 340.5,-117 402.25,-117 402.25,-137.75"/>
<text xml:space="preserve" text-anchor="middle" x="371.38" y="-124.25" font-family="Helvetica,sans-Serif" font-size="10.00">write_reg</text>
</a>
</g>
</g>
<!-- Node6&#45;&gt;Node16 -->
<g id="edge31_Node000006_Node000016" class="edge">
<title>Node6&#45;&gt;Node16</title>
<g id="a_edge31_Node000006_Node000016"><a xlink:title=" ">
<path fill="none" stroke="#63b8ff" d="M142.86,-135.19C154.61,-138.51 168.02,-141.73 180.5,-143.38 229.85,-149.89 242.98,-148.41 292.5,-143.38 304.57,-142.15 317.53,-139.88 329.35,-137.42"/>
<polygon fill="#63b8ff" stroke="#63b8ff" points="329.77,-140.92 338.79,-135.37 328.27,-134.08 329.77,-140.92"/>
</a>
</g>
</g>
<!-- Node17 -->
<g id="Node000017" class="node">
<title>Node17</title>
<g id="a_Node000017"><a xlink:href="carrinho_2nrf24__avr_8c.html#a3c9fd94e9894bf0792d4ff5891c16436" target="_top" xlink:title=" ">
<polygon fill="white" stroke="#666666" points="413.88,-59.75 328.88,-59.75 328.88,-39 413.88,-39 413.88,-59.75"/>
<text xml:space="preserve" text-anchor="middle" x="371.38" y="-46.25" font-family="Helvetica,sans-Serif" font-size="10.00">write_payload</text>
</a>
</g>
</g>
<!-- Node6&#45;&gt;Node17 -->
<g id="edge27_Node000006_Node000017" class="edge">
<title>Node6&#45;&gt;Node17</title>
<g id="a_edge27_Node000006_Node000017"><a xlink:title=" ">
<path fill="none" stroke="#63b8ff" d="M129.39,-113.63C146.61,-104.36 170.42,-91.9 180.5,-88.38 225.45,-72.64 278.74,-62.39 317.4,-56.36"/>
<polygon fill="#63b8ff" stroke="#63b8ff" points="317.54,-59.88 326.9,-54.92 316.49,-52.96 317.54,-59.88"/>
</a>
</g>
</g>
<!-- Node8 -->
<g id="Node000008" class="node">
<title>Node8</title>
<g id="a_Node000008"><a xlink:href="carrinho_2nrf24__avr_8c.html#a019970fc17b6b18fa4e45e0baf22c93f" target="_top" xlink:title=" ">
<polygon fill="white" stroke="#666666" points="644.25,-137.75 560,-137.75 560,-117 644.25,-117 644.25,-137.75"/>
<text xml:space="preserve" text-anchor="middle" x="602.12" y="-124.25" font-family="Helvetica,sans-Serif" font-size="10.00">digitalWrite_d</text>
</a>
</g>
</g>
<!-- Node7&#45;&gt;Node8 -->
<g id="edge7_Node000007_Node000008" class="edge">
<title>Node7&#45;&gt;Node8</title>
<g id="a_edge7_Node000007_Node000008"><a xlink:title=" ">
<path fill="none" stroke="#63b8ff" d="M263.73,-233.6C314.82,-223.88 430.83,-199.77 524,-165.38 540.29,-159.36 557.7,-150.96 571.86,-143.59"/>
<polygon fill="#63b8ff" stroke="#63b8ff" points="573.45,-146.71 580.63,-138.92 570.16,-140.53 573.45,-146.71"/>
</a>
</g>
</g>
<!-- Node9&#45;&gt;Node8 -->
<g id="edge9_Node000009_Node000008" class="edge">
<title>Node9&#45;&gt;Node8</title>
<g id="a_edge9_Node000009_Node000008"><a xlink:title=" ">
<path fill="none" stroke="#63b8ff" d="M396.67,-164.01C426.72,-160.88 479.38,-154.79 524,-146.38 532.39,-144.79 541.22,-142.87 549.81,-140.85"/>
<polygon fill="#63b8ff" stroke="#63b8ff" points="550.51,-144.28 559.41,-138.53 548.87,-137.48 550.51,-144.28"/>
</a>
</g>
</g>
<!-- Node11 -->
<g id="Node000011" class="node">
<title>Node11</title>
<g id="a_Node000011"><a xlink:href="carrinho_2nrf24__avr_8c.html#adaef88bc02a8e805de3b3a82bf317549" target="_top" xlink:title=" ">
<polygon fill="white" stroke="#666666" points="516.5,-59.75 457.75,-59.75 457.75,-39 516.5,-39 516.5,-59.75"/>
<text xml:space="preserve" text-anchor="middle" x="487.12" y="-46.25" font-family="Helvetica,sans-Serif" font-size="10.00">csn_high</text>
</a>
</g>
</g>
<!-- Node10&#45;&gt;Node11 -->
<g id="edge11_Node000010_Node000011" class="edge">
<title>Node10&#45;&gt;Node11</title>
<g id="a_edge11_Node000010_Node000011"><a xlink:title=" ">
<path fill="none" stroke="#63b8ff" d="M404.06,-21.24C417.24,-25.76 432.67,-31.05 446.58,-35.82"/>
<polygon fill="#63b8ff" stroke="#63b8ff" points="445.31,-39.08 455.9,-39.01 447.58,-32.46 445.31,-39.08"/>
</a>
</g>
</g>
<!-- Node12 -->
<g id="Node000012" class="node">
<title>Node12</title>
<g id="a_Node000012"><a xlink:href="carrinho_2nrf24__avr_8c.html#a42f8c1120431b7c37e116a4e1eac1cc2" target="_top" xlink:title=" ">
<polygon fill="white" stroke="#666666" points="514.62,-98.75 459.62,-98.75 459.62,-78 514.62,-78 514.62,-98.75"/>
<text xml:space="preserve" text-anchor="middle" x="487.12" y="-85.25" font-family="Helvetica,sans-Serif" font-size="10.00">csn_low</text>
</a>
</g>
</g>
<!-- Node10&#45;&gt;Node12 -->
<g id="edge13_Node000010_Node000012" class="edge">
<title>Node10&#45;&gt;Node12</title>
<g id="a_edge13_Node000010_Node000012"><a xlink:title=" ">
<path fill="none" stroke="#63b8ff" d="M398.91,-21.23C404.19,-23.89 409.56,-26.96 414.25,-30.38 433.06,-44.06 431.88,-54.1 450.25,-68.38 451.72,-69.52 453.27,-70.64 454.85,-71.72"/>
<polygon fill="#63b8ff" stroke="#63b8ff" points="452.58,-74.43 462.92,-76.75 456.28,-68.49 452.58,-74.43"/>
</a>
</g>
</g>
<!-- Node13 -->
<g id="Node000013" class="node">
<title>Node13</title>
<g id="a_Node000013"><a xlink:href="carrinho_2nrf24__avr_8c.html#a8d161d483c095113df5b69798e9cd725" target="_top" xlink:title=" ">
<polygon fill="white" stroke="#666666" points="524,-137.75 450.25,-137.75 450.25,-117 524,-117 524,-137.75"/>
<text xml:space="preserve" text-anchor="middle" x="487.12" y="-124.25" font-family="Helvetica,sans-Serif" font-size="10.00">spi_transfer</text>
</a>
</g>
</g>
<!-- Node10&#45;&gt;Node13 -->
<g id="edge15_Node000010_Node000013" class="edge">
<title>Node10&#45;&gt;Node13</title>
<g id="a_edge15_Node000010_Node000013"><a xlink:title=" ">
<path fill="none" stroke="#63b8ff" d="M401.58,-21.07C406.19,-23.63 410.62,-26.71 414.25,-30.38 440.85,-57.2 424.51,-79.73 450.25,-107.38 451.08,-108.26 451.95,-109.12 452.86,-109.95"/>
<polygon fill="#63b8ff" stroke="#63b8ff" points="450.51,-112.56 460.63,-115.7 454.68,-106.93 450.51,-112.56"/>
</a>
</g>
</g>
<!-- Node11&#45;&gt;Node8 -->
<g id="edge12_Node000011_Node000008" class="edge">
<title>Node11&#45;&gt;Node8</title>
<g id="a_edge12_Node000011_Node000008"><a xlink:title=" ">
<path fill="none" stroke="#63b8ff" d="M508.52,-60.11C513.66,-62.99 519.1,-66.19 524,-69.38 543.31,-81.93 564.12,-97.73 579.25,-109.66"/>
<polygon fill="#63b8ff" stroke="#63b8ff" points="576.69,-112.1 586.69,-115.59 581.05,-106.62 576.69,-112.1"/>
</a>
</g>
</g>
<!-- Node12&#45;&gt;Node8 -->
<g id="edge14_Node000012_Node000008" class="edge">
<title>Node12&#45;&gt;Node8</title>
<g id="a_edge14_Node000012_Node000008"><a xlink:title=" ">
<path fill="none" stroke="#63b8ff" d="M514.9,-97.62C528.14,-102.19 544.41,-107.8 559.25,-112.92"/>
<polygon fill="#63b8ff" stroke="#63b8ff" points="557.7,-116.09 568.3,-116.05 559.99,-109.47 557.7,-116.09"/>
</a>
</g>
</g>
<!-- Node14&#45;&gt;Node9 -->
<g id="edge17_Node000014_Node000009" class="edge">
<title>Node14&#45;&gt;Node9</title>
<g id="a_edge17_Node000014_Node000009"><a xlink:title=" ">
<path fill="none" stroke="#63b8ff" d="M271.72,-135.19C291.26,-141.37 315.71,-149.1 335.38,-155.31"/>
<polygon fill="#63b8ff" stroke="#63b8ff" points="334.3,-158.64 344.89,-158.32 336.41,-151.97 334.3,-158.64"/>
</a>
</g>
</g>
<!-- Node14&#45;&gt;Node15 -->
<g id="edge18_Node000014_Node000015" class="edge">
<title>Node14&#45;&gt;Node15</title>
<g id="a_edge18_Node000014_Node000015"><a xlink:title=" ">
<path fill="none" stroke="#63b8ff" d="M277.37,-113.57C294.3,-108.99 313.99,-103.65 330.88,-99.08"/>
<polygon fill="#63b8ff" stroke="#63b8ff" points="331.32,-102.58 340.05,-96.59 329.49,-95.83 331.32,-102.58"/>
</a>
</g>
</g>
<!-- Node14&#45;&gt;Node16 -->
<g id="edge22_Node000014_Node000016" class="edge">
<title>Node14&#45;&gt;Node16</title>
<g id="a_edge22_Node000014_Node000016"><a xlink:title=" ">
<path fill="none" stroke="#63b8ff" d="M292.7,-125.62C304.76,-125.89 317.34,-126.18 328.77,-126.44"/>
<polygon fill="#63b8ff" stroke="#63b8ff" points="328.61,-129.93 338.68,-126.66 328.76,-122.93 328.61,-129.93"/>
</a>
</g>
</g>
<!-- Node15&#45;&gt;Node11 -->
<g id="edge19_Node000015_Node000011" class="edge">
<title>Node15&#45;&gt;Node11</title>
<g id="a_edge19_Node000015_Node000011"><a xlink:title=" ">
<path fill="none" stroke="#63b8ff" d="M401.08,-78.53C414.95,-73.78 431.82,-67.99 446.87,-62.83"/>
<polygon fill="#63b8ff" stroke="#63b8ff" points="447.67,-66.26 456,-59.7 445.4,-59.64 447.67,-66.26"/>
</a>
</g>
</g>
<!-- Node15&#45;&gt;Node12 -->
<g id="edge20_Node000015_Node000012" class="edge">
<title>Node15&#45;&gt;Node12</title>
<g id="a_edge20_Node000015_Node000012"><a xlink:title=" ">
<path fill="none" stroke="#63b8ff" d="M401.08,-88.38C415.34,-88.38 432.77,-88.38 448.13,-88.38"/>
<polygon fill="#63b8ff" stroke="#63b8ff" points="447.87,-91.88 457.87,-88.38 447.87,-84.88 447.87,-91.88"/>
</a>
</g>
</g>
<!-- Node15&#45;&gt;Node13 -->
<g id="edge21_Node000015_Node000013" class="edge">
<title>Node15&#45;&gt;Node13</title>
<g id="a_edge21_Node000015_Node000013"><a xlink:title=" ">
<path fill="none" stroke="#63b8ff" d="M401.08,-98.22C414.09,-102.68 429.72,-108.04 444.02,-112.94"/>
<polygon fill="#63b8ff" stroke="#63b8ff" points="442.6,-116.15 453.2,-116.09 444.87,-109.53 442.6,-116.15"/>
</a>
</g>
</g>
<!-- Node16&#45;&gt;Node11 -->
<g id="edge23_Node000016_Node000011" class="edge">
<title>Node16&#45;&gt;Node11</title>
<g id="a_edge23_Node000016_Node000011"><a xlink:title=" ">
<path fill="none" stroke="#63b8ff" d="M398.91,-116.52C404.19,-113.86 409.56,-110.79 414.25,-107.38 433.06,-93.69 431.88,-83.65 450.25,-69.38 451.72,-68.23 453.27,-67.11 454.85,-66.03"/>
<polygon fill="#63b8ff" stroke="#63b8ff" points="456.28,-69.26 462.92,-61 452.58,-63.32 456.28,-69.26"/>
</a>
</g>
</g>
<!-- Node16&#45;&gt;Node12 -->
<g id="edge24_Node000016_Node000012" class="edge">
<title>Node16&#45;&gt;Node12</title>
<g id="a_edge24_Node000016_Node000012"><a xlink:title=" ">
<path fill="none" stroke="#63b8ff" d="M402.56,-117.03C416.75,-112.16 433.82,-106.31 448.81,-101.17"/>
<polygon fill="#63b8ff" stroke="#63b8ff" points="449.54,-104.62 457.86,-98.06 447.27,-98 449.54,-104.62"/>
</a>
</g>
</g>
<!-- Node16&#45;&gt;Node13 -->
<g id="edge25_Node000016_Node000013" class="edge">
<title>Node16&#45;&gt;Node13</title>
<g id="a_edge25_Node000016_Node000013"><a xlink:title=" ">
<path fill="none" stroke="#63b8ff" d="M402.56,-127.38C413.63,-127.38 426.45,-127.38 438.67,-127.38"/>
<polygon fill="#63b8ff" stroke="#63b8ff" points="438.62,-130.88 448.62,-127.38 438.62,-123.88 438.62,-130.88"/>
</a>
</g>
</g>
<!-- Node17&#45;&gt;Node11 -->
<g id="edge28_Node000017_Node000011" class="edge">
<title>Node17&#45;&gt;Node11</title>
<g id="a_edge28_Node000017_Node000011"><a xlink:title=" ">
<path fill="none" stroke="#63b8ff" d="M414.09,-49.38C424.59,-49.38 435.84,-49.38 446.25,-49.38"/>
<polygon fill="#63b8ff" stroke="#63b8ff" points="446.05,-52.88 456.05,-49.38 446.05,-45.88 446.05,-52.88"/>
</a>
</g>
</g>
<!-- Node17&#45;&gt;Node12 -->
<g id="edge29_Node000017_Node000012" class="edge">
<title>Node17&#45;&gt;Node12</title>
<g id="a_edge29_Node000017_Node000012"><a xlink:title=" ">
<path fill="none" stroke="#63b8ff" d="M404.06,-60.24C417.89,-64.98 434.21,-70.58 448.64,-75.52"/>
<polygon fill="#63b8ff" stroke="#63b8ff" points="447.2,-78.73 457.8,-78.66 449.47,-72.11 447.2,-78.73"/>
</a>
</g>
</g>
<!-- Node17&#45;&gt;Node13 -->
<g id="edge30_Node000017_Node000013" class="edge">
<title>Node17&#45;&gt;Node13</title>
<g id="a_edge30_Node000017_Node000013"><a xlink:title=" ">
<path fill="none" stroke="#63b8ff" d="M398.91,-60.23C404.19,-62.89 409.56,-65.96 414.25,-69.38 433.06,-83.06 431.88,-93.1 450.25,-107.38 451.72,-108.52 453.27,-109.64 454.85,-110.72"/>
<polygon fill="#63b8ff" stroke="#63b8ff" points="452.58,-113.43 462.92,-115.75 456.28,-107.49 452.58,-113.43"/>
</a>
</g>
</g>
</g>
</svg>
