<?xml version="1.0" encoding="UTF-8" standalone="no"?>
<!DOCTYPE svg PUBLIC "-//W3C//DTD SVG 1.1//EN"
 "http://www.w3.org/Graphics/SVG/1.1/DTD/svg11.dtd">
<!-- Generated by graphviz version 14.0.5 (0)
 -->
<!-- Title: controle/controle.c Pages: 1 -->
<svg width="358pt" height="142pt"
 viewBox="0.00 0.00 358.00 142.00" xmlns="http://www.w3.org/2000/svg" xmlns:xlink="http://www.w3.org/1999/xlink">
<g id="graph0" class="graph" transform="scale(1 1) rotate(0) translate(4 138.25)">
<title>controle/controle.c</title>
<!-- Node1 -->
<g id="Node000001" class="node">
<title>Node1</title>
<g id="a_Node000001"><a xlink:title=" ">
<polygon fill="#999999" stroke="#666666" points="166.75,-134.25 60,-134.25 60,-113.5 166.75,-113.5 166.75,-134.25"/>
<text xml:space="preserve" text-anchor="middle" x="113.38" y="-120.75" font-family="Helvetica,sans-Serif" font-size="10.00">controle/controle.c</text>
</a>
</g>
</g>
<!-- Node2 -->
<g id="Node000002" class="node">
<title>Node2</title>
<g id="a_Node000002"><a xlink:title=" ">
<polygon fill="#e0e0e0" stroke="#999999" points="52.75,-77.5 0,-77.5 0,-56.75 52.75,-56.75 52.75,-77.5"/>
<text xml:space="preserve" text-anchor="middle" x="26.38" y="-64" font-family="Helvetica,sans-Serif" font-size="10.00">avr/io.h</text>
</a>
</g>
</g>
<!-- Node1&#45;&gt;Node2 -->
<g id="edge1_Node000001_Node000002" class="edge">
<title>Node1&#45;&gt;Node2</title>
<g id="a_edge1_Node000001_Node000002"><a xlink:title=" ">
<path fill="none" stroke="#63b8ff" d="M97.82,-113.09C84.95,-104.99 66.43,-93.33 51.47,-83.92"/>
<polygon fill="#63b8ff" stroke="#63b8ff" points="53.4,-81 43.08,-78.63 49.67,-86.92 53.4,-81"/>
</a>
</g>
</g>
<!-- Node3 -->
<g id="Node000003" class="node">
<title>Node3</title>
<g id="a_Node000003"><a xlink:title=" ">
<polygon fill="#e0e0e0" stroke="#999999" points="156.25,-77.5 70.5,-77.5 70.5,-56.75 156.25,-56.75 156.25,-77.5"/>
<text xml:space="preserve" text-anchor="middle" x="113.38" y="-64" font-family="Helvetica,sans-Serif" font-size="10.00">avr/interrupt.h</text>
</a>
</g>
</g>
<!-- Node1&#45;&gt;Node3 -->
<g id="edge2_Node000001_Node000003" class="edge">
<title>Node1&#45;&gt;Node3</title>
<g id="a_edge2_Node000001_Node000003"><a xlink:title=" ">
<path fill="none" stroke="#63b8ff" d="M113.38,-113.09C113.38,-106.47 113.38,-97.47 113.38,-89.27"/>
<polygon fill="#63b8ff" stroke="#63b8ff" points="116.88,-89.34 113.38,-79.34 109.88,-89.34 116.88,-89.34"/>
</a>
</g>
</g>
<!-- Node4 -->
<g id="Node000004" class="node">
<title>Node4</title>
<g id="a_Node000004"><a xlink:href="controle_2nrf24__avr_8h.html" target="_top" xlink:title=" ">
<polygon fill="white" stroke="#666666" points="246.12,-77.5 174.62,-77.5 174.62,-56.75 246.12,-56.75 246.12,-77.5"/>
<text xml:space="preserve" text-anchor="middle" x="210.38" y="-64" font-family="Helvetica,sans-Serif" font-size="10.00">nrf24_avr.h</text>
</a>
</g>
</g>
<!-- Node1&#45;&gt;Node4 -->
<g id="edge3_Node000001_Node000004" class="edge">
<title>Node1&#45;&gt;Node4</title>
<g id="a_edge3_Node000001_Node000004"><a xlink:title=" ">
<path fill="none" stroke="#63b8ff" d="M130.72,-113.09C145.34,-104.83 166.51,-92.88 183.35,-83.38"/>
<polygon fill="#63b8ff" stroke="#63b8ff" points="184.88,-86.54 191.87,-78.57 181.44,-80.44 184.88,-86.54"/>
</a>
</g>
</g>
<!-- Node5 -->
<g id="Node000005" class="node">
<title>Node5</title>
<g id="a_Node000005"><a xlink:title=" ">
<polygon fill="#e0e0e0" stroke="#999999" points="155.75,-20.75 103,-20.75 103,0 155.75,0 155.75,-20.75"/>
<text xml:space="preserve" text-anchor="middle" x="129.38" y="-7.25" font-family="Helvetica,sans-Serif" font-size="10.00">stdint.h</text>
</a>
</g>
</g>
<!-- Node4&#45;&gt;Node5 -->
<g id="edge4_Node000004_Node000005" class="edge">
<title>Node4&#45;&gt;Node5</title>
<g id="a_edge4_Node000004_Node000005"><a xlink:title=" ">
<path fill="none" stroke="#63b8ff" d="M195.89,-56.34C184.03,-48.32 167,-36.81 153.14,-27.44"/>
<polygon fill="#63b8ff" stroke="#63b8ff" points="155.23,-24.63 144.98,-21.93 151.31,-30.43 155.23,-24.63"/>
</a>
</g>
</g>
<!-- Node6 -->
<g id="Node000006" class="node">
<title>Node6</title>
<g id="a_Node000006"><a xlink:href="controle_2nRF24L01_8h.html" target="_top" xlink:title=" ">
<polygon fill="white" stroke="#666666" points="246.88,-20.75 173.88,-20.75 173.88,0 246.88,0 246.88,-20.75"/>
<text xml:space="preserve" text-anchor="middle" x="210.38" y="-7.25" font-family="Helvetica,sans-Serif" font-size="10.00">nRF24L01.h</text>
</a>
</g>
</g>
<!-- Node4&#45;&gt;Node6 -->
<g id="edge5_Node000004_Node000006" class="edge">
<title>Node4&#45;&gt;Node6</title>
<g id="a_edge5_Node000004_Node000006"><a xlink:title=" ">
<path fill="none" stroke="#63b8ff" d="M210.38,-56.34C210.38,-49.72 210.38,-40.72 210.38,-32.52"/>
<polygon fill="#63b8ff" stroke="#63b8ff" points="213.88,-32.59 210.38,-22.59 206.88,-32.59 213.88,-32.59"/>
</a>
</g>
</g>
<!-- Node7 -->
<g id="Node000007" class="node">
<title>Node7</title>
<g id="a_Node000007"><a xlink:href="controle_2RF24__config_8h.html" target="_top" xlink:title=" ">
<polygon fill="white" stroke="#666666" points="349.88,-20.75 264.88,-20.75 264.88,0 349.88,0 349.88,-20.75"/>
<text xml:space="preserve" text-anchor="middle" x="307.38" y="-7.25" font-family="Helvetica,sans-Serif" font-size="10.00">RF24_config.h</text>
</a>
</g>
</g>
<!-- Node4&#45;&gt;Node7 -->
<g id="edge6_Node000004_Node000007" class="edge">
<title>Node4&#45;&gt;Node7</title>
<g id="a_edge6_Node000004_Node000007"><a xlink:title=" ">
<path fill="none" stroke="#63b8ff" d="M227.72,-56.34C242.34,-48.08 263.51,-36.13 280.35,-26.63"/>
<polygon fill="#63b8ff" stroke="#63b8ff" points="281.88,-29.79 288.87,-21.82 278.44,-23.69 281.88,-29.79"/>
</a>
</g>
</g>
</g>
</svg>
