<?xml version="1.0" encoding="UTF-8" standalone="no"?>
<!DOCTYPE svg PUBLIC "-//W3C//DTD SVG 1.1//EN"
 "http://www.w3.org/Graphics/SVG/1.1/DTD/svg11.dtd">
<!-- Generated by graphviz version 14.0.4 (0)
 -->
<!-- Title: setup Pages: 1 -->
<svg width="699pt" height="287pt"
 viewBox="0.00 0.00 699.00 287.00" xmlns="http://www.w3.org/2000/svg" xmlns:xlink="http://www.w3.org/1999/xlink">
<g id="graph0" class="graph" transform="scale(1 1) rotate(0) translate(4 283.32)">
<title>setup</title>
<!-- Node1 -->
<g id="Node000001" class="node">
<title>Node1</title>
<g id="a_Node000001"><a xlink:title="Inicializações principais (ADC, PWM, entradas e rádio).">
<polygon fill="#999999" stroke="#666666" points="43,-201.75 0,-201.75 0,-181 43,-181 43,-201.75"/>
<text xml:space="preserve" text-anchor="middle" x="21.5" y="-188.25" font-family="Helvetica,sans-Serif" font-size="10.00">setup</text>
</a>
</g>
</g>
<!-- Node2 -->
<g id="Node000002" class="node">
<title>Node2</title>
<g id="a_Node000002"><a xlink:href="controle_8c.html#af5e0a217880b6f6976ff1c2b1297f7a3" target="_top" xlink:title="Inicializa o ADC do AVR para leitura dos analógicos.">
<polygon fill="white" stroke="#666666" points="175.25,-277.75 109.75,-277.75 109.75,-257 175.25,-257 175.25,-277.75"/>
<text xml:space="preserve" text-anchor="middle" x="142.5" y="-264.25" font-family="Helvetica,sans-Serif" font-size="10.00">adc_setup</text>
</a>
</g>
</g>
<!-- Node1&#45;&gt;Node2 -->
<g id="edge1_Node000001_Node000002" class="edge">
<title>Node1&#45;&gt;Node2</title>
<g id="a_edge1_Node000001_Node000002"><a xlink:title=" ">
<path fill="none" stroke="#63b8ff" d="M31.95,-202.23C42.46,-213.75 60.42,-231.85 79,-243.38 85.16,-247.2 92.02,-250.58 98.89,-253.51"/>
<polygon fill="#63b8ff" stroke="#63b8ff" points="97.57,-256.75 108.16,-257.19 100.15,-250.25 97.57,-256.75"/>
</a>
</g>
</g>
<!-- Node3 -->
<g id="Node000003" class="node">
<title>Node3</title>
<g id="a_Node000003"><a xlink:href="carrinho_2nrf24__avr_8c.html#ab6fb4c1aa834152310116e7dec65d8e3" target="_top" xlink:title=" ">
<polygon fill="white" stroke="#666666" points="179.38,-144.75 105.62,-144.75 105.62,-124 179.38,-124 179.38,-144.75"/>
<text xml:space="preserve" text-anchor="middle" x="142.5" y="-131.25" font-family="Helvetica,sans-Serif" font-size="10.00">nrf24_begin</text>
</a>
</g>
</g>
<!-- Node1&#45;&gt;Node3 -->
<g id="edge2_Node000001_Node000003" class="edge">
<title>Node1&#45;&gt;Node3</title>
<g id="a_edge2_Node000001_Node000003"><a xlink:title=" ">
<path fill="none" stroke="#63b8ff" d="M43.23,-181.45C61.26,-172.81 87.71,-160.14 108.63,-150.12"/>
<polygon fill="#63b8ff" stroke="#63b8ff" points="110.11,-153.29 117.62,-145.81 107.09,-146.98 110.11,-153.29"/>
</a>
</g>
</g>
<!-- Node14 -->
<g id="Node000014" class="node">
<title>Node14</title>
<g id="a_Node000014"><a xlink:href="carrinho_2nrf24__avr_8c.html#a21d638882f746748de35324bdc21f448" target="_top" xlink:title=" ">
<polygon fill="white" stroke="#666666" points="206,-201.75 79,-201.75 79,-181 206,-181 206,-201.75"/>
<text xml:space="preserve" text-anchor="middle" x="142.5" y="-188.25" font-family="Helvetica,sans-Serif" font-size="10.00">nrf24_openWritingPipe</text>
</a>
</g>
</g>
<!-- Node1&#45;&gt;Node14 -->
<g id="edge17_Node000001_Node000014" class="edge">
<title>Node1&#45;&gt;Node14</title>
<g id="a_edge17_Node000001_Node000014"><a xlink:title=" ">
<path fill="none" stroke="#63b8ff" d="M43.23,-191.38C50.25,-191.38 58.55,-191.38 67.3,-191.38"/>
<polygon fill="#63b8ff" stroke="#63b8ff" points="67.06,-194.88 77.06,-191.38 67.06,-187.88 67.06,-194.88"/>
</a>
</g>
</g>
<!-- Node15 -->
<g id="Node000015" class="node">
<title>Node15</title>
<g id="a_Node000015"><a xlink:href="carrinho_2nrf24__avr_8c.html#a33899bc3c0f4d2293f37c306d0b8e297" target="_top" xlink:title=" ">
<polygon fill="white" stroke="#666666" points="358.5,-249.75 246.5,-249.75 246.5,-229 358.5,-229 358.5,-249.75"/>
<text xml:space="preserve" text-anchor="middle" x="302.5" y="-236.25" font-family="Helvetica,sans-Serif" font-size="10.00">nrf24_stopListening</text>
</a>
</g>
</g>
<!-- Node1&#45;&gt;Node15 -->
<g id="edge19_Node000001_Node000015" class="edge">
<title>Node1&#45;&gt;Node15</title>
<g id="a_edge19_Node000001_Node000015"><a xlink:title=" ">
<path fill="none" stroke="#63b8ff" d="M43.42,-199.49C53.95,-203.3 67,-207.6 79,-210.38 130.68,-222.31 190.32,-229.75 234.84,-234.11"/>
<polygon fill="#63b8ff" stroke="#63b8ff" points="234.31,-237.57 244.6,-235.03 234.97,-230.6 234.31,-237.57"/>
</a>
</g>
</g>
<!-- Node17 -->
<g id="Node000017" class="node">
<title>Node17</title>
<g id="a_Node000017"><a xlink:href="controle_8c.html#a6b11f55ddc2f9d1125c97a47e4a799f6" target="_top" xlink:title="Configura PWM dos pinos LED1 e LED2.">
<polygon fill="white" stroke="#666666" points="178.62,-105.75 106.38,-105.75 106.38,-85 178.62,-85 178.62,-105.75"/>
<text xml:space="preserve" text-anchor="middle" x="142.5" y="-92.25" font-family="Helvetica,sans-Serif" font-size="10.00">pwm_setup</text>
</a>
</g>
</g>
<!-- Node1&#45;&gt;Node17 -->
<g id="edge26_Node000001_Node000017" class="edge">
<title>Node1&#45;&gt;Node17</title>
<g id="a_edge26_Node000001_Node000017"><a xlink:title=" ">
<path fill="none" stroke="#63b8ff" d="M27.69,-180.63C36.17,-164.19 54.52,-132.87 79,-115.38 83.98,-111.81 89.63,-108.87 95.44,-106.43"/>
<polygon fill="#63b8ff" stroke="#63b8ff" points="96.35,-109.82 104.54,-103.1 93.95,-103.25 96.35,-109.82"/>
</a>
</g>
</g>
<!-- Node4 -->
<g id="Node000004" class="node">
<title>Node4</title>
<g id="a_Node000004"><a xlink:href="carrinho_2nrf24__avr_8c.html#a77c5f7c57c01266d04faea3052a47f49" target="_top" xlink:title=" ">
<polygon fill="white" stroke="#666666" points="454.75,-269.75 405,-269.75 405,-249 454.75,-249 454.75,-269.75"/>
<text xml:space="preserve" text-anchor="middle" x="429.88" y="-256.25" font-family="Helvetica,sans-Serif" font-size="10.00">ce_low</text>
</a>
</g>
</g>
<!-- Node3&#45;&gt;Node4 -->
<g id="edge3_Node000003_Node000004" class="edge">
<title>Node3&#45;&gt;Node4</title>
<g id="a_edge3_Node000003_Node000004"><a xlink:title=" ">
<path fill="none" stroke="#63b8ff" d="M168.95,-145.21C181.47,-151.6 195.98,-160.73 206,-172.38 233.02,-203.79 207.57,-235.33 242,-258.38 287.15,-288.6 353.2,-279.71 393.48,-269.94"/>
<polygon fill="#63b8ff" stroke="#63b8ff" points="394.35,-273.33 403.15,-267.44 392.59,-266.56 394.35,-273.33"/>
</a>
</g>
</g>
<!-- Node6 -->
<g id="Node000006" class="node">
<title>Node6</title>
<g id="a_Node000006"><a xlink:href="carrinho_2nrf24__avr_8c.html#adaef88bc02a8e805de3b3a82bf317549" target="_top" xlink:title=" ">
<polygon fill="white" stroke="#666666" points="563,-152.75 504.25,-152.75 504.25,-132 563,-132 563,-152.75"/>
<text xml:space="preserve" text-anchor="middle" x="533.62" y="-139.25" font-family="Helvetica,sans-Serif" font-size="10.00">csn_high</text>
</a>
</g>
</g>
<!-- Node3&#45;&gt;Node6 -->
<g id="edge5_Node000003_Node000006" class="edge">
<title>Node3&#45;&gt;Node6</title>
<g id="a_edge5_Node000003_Node000006"><a xlink:title=" ">
<path fill="none" stroke="#63b8ff" d="M179.47,-130.3C198.1,-128.38 221.24,-126.32 242,-125.38 295.72,-122.93 309.29,-122.69 363,-125.38 407.42,-127.6 458.14,-133.07 492.46,-137.21"/>
<polygon fill="#63b8ff" stroke="#63b8ff" points="492.02,-140.68 502.38,-138.43 492.88,-133.73 492.02,-140.68"/>
</a>
</g>
</g>
<!-- Node7 -->
<g id="Node000007" class="node">
<title>Node7</title>
<g id="a_Node000007"><a xlink:href="carrinho_2nrf24__avr_8c.html#a023289d1e49bf7f3b61e0e1c5312c8cf" target="_top" xlink:title=" ">
<polygon fill="white" stroke="#666666" points="350.62,-59.75 254.38,-59.75 254.38,-39 350.62,-39 350.62,-59.75"/>
<text xml:space="preserve" text-anchor="middle" x="302.5" y="-46.25" font-family="Helvetica,sans-Serif" font-size="10.00">nrf24_init_hwspi</text>
</a>
</g>
</g>
<!-- Node3&#45;&gt;Node7 -->
<g id="edge7_Node000003_Node000007" class="edge">
<title>Node3&#45;&gt;Node7</title>
<g id="a_edge7_Node000003_Node000007"><a xlink:title=" ">
<path fill="none" stroke="#63b8ff" d="M179.71,-126.42C188.74,-123.48 198.09,-119.56 206,-114.38 226.28,-101.09 222.22,-87.4 242,-73.38 246.42,-70.24 251.32,-67.43 256.34,-64.93"/>
<polygon fill="#63b8ff" stroke="#63b8ff" points="257.67,-68.17 265.35,-60.87 254.79,-61.79 257.67,-68.17"/>
</a>
</g>
</g>
<!-- Node9 -->
<g id="Node000009" class="node">
<title>Node9</title>
<g id="a_Node000009"><a xlink:href="carrinho_2nrf24__avr_8c.html#aaf2900e7932ebbf7f0ecdc6bce5840e1" target="_top" xlink:title=" ">
<polygon fill="white" stroke="#666666" points="363,-173.75 242,-173.75 242,-153 363,-153 363,-173.75"/>
<text xml:space="preserve" text-anchor="middle" x="302.5" y="-160.25" font-family="Helvetica,sans-Serif" font-size="10.00">nrf24_setPayloadSize</text>
</a>
</g>
</g>
<!-- Node3&#45;&gt;Node9 -->
<g id="edge9_Node000003_Node000009" class="edge">
<title>Node3&#45;&gt;Node9</title>
<g id="a_edge9_Node000003_Node000009"><a xlink:title=" ">
<path fill="none" stroke="#63b8ff" d="M179.75,-141.03C195.07,-143.84 213.46,-147.21 231.24,-150.48"/>
<polygon fill="#63b8ff" stroke="#63b8ff" points="230.55,-153.91 241.02,-152.27 231.82,-147.03 230.55,-153.91"/>
</a>
</g>
</g>
<!-- Node10 -->
<g id="Node000010" class="node">
<title>Node10</title>
<g id="a_Node000010"><a xlink:href="carrinho_2nrf24__avr_8c.html#a08bc978021db604d02a6da754f73e7e2" target="_top" xlink:title=" ">
<polygon fill="white" stroke="#666666" points="460.75,-191.75 399,-191.75 399,-171 460.75,-171 460.75,-191.75"/>
<text xml:space="preserve" text-anchor="middle" x="429.88" y="-178.25" font-family="Helvetica,sans-Serif" font-size="10.00">write_reg</text>
</a>
</g>
</g>
<!-- Node3&#45;&gt;Node10 -->
<g id="edge16_Node000003_Node000010" class="edge">
<title>Node3&#45;&gt;Node10</title>
<g id="a_edge16_Node000003_Node000010"><a xlink:title=" ">
<path fill="none" stroke="#63b8ff" d="M179.67,-130.99C223.87,-127.99 300.47,-126.49 363,-144.38 377.88,-148.63 393.03,-156.82 405.05,-164.42"/>
<polygon fill="#63b8ff" stroke="#63b8ff" points="402.8,-167.12 413.07,-169.72 406.66,-161.29 402.8,-167.12"/>
</a>
</g>
</g>
<!-- Node13 -->
<g id="Node000013" class="node">
<title>Node13</title>
<g id="a_Node000013"><a xlink:href="carrinho_2nrf24__avr_8c.html#aa3db4917fa58896ce0a8027a30795033" target="_top" xlink:title=" ">
<polygon fill="white" stroke="#666666" points="337.12,-20.75 267.88,-20.75 267.88,0 337.12,0 337.12,-20.75"/>
<text xml:space="preserve" text-anchor="middle" x="302.5" y="-7.25" font-family="Helvetica,sans-Serif" font-size="10.00">pinMode_d</text>
</a>
</g>
</g>
<!-- Node3&#45;&gt;Node13 -->
<g id="edge15_Node000003_Node000013" class="edge">
<title>Node3&#45;&gt;Node13</title>
<g id="a_edge15_Node000003_Node000013"><a xlink:title=" ">
<path fill="none" stroke="#63b8ff" d="M179.66,-128.45C189.1,-125.49 198.67,-121.04 206,-114.38 236.05,-87.05 212.14,-57.92 242,-30.38 246.34,-26.37 251.52,-23.16 256.98,-20.59"/>
<polygon fill="#63b8ff" stroke="#63b8ff" points="258.23,-23.86 266.27,-16.96 255.68,-17.34 258.23,-23.86"/>
</a>
</g>
</g>
<!-- Node5 -->
<g id="Node000005" class="node">
<title>Node5</title>
<g id="a_Node000005"><a xlink:href="carrinho_2nrf24__avr_8c.html#a019970fc17b6b18fa4e45e0baf22c93f" target="_top" xlink:title=" ">
<polygon fill="white" stroke="#666666" points="690.75,-230.75 606.5,-230.75 606.5,-210 690.75,-210 690.75,-230.75"/>
<text xml:space="preserve" text-anchor="middle" x="648.62" y="-217.25" font-family="Helvetica,sans-Serif" font-size="10.00">digitalWrite_d</text>
</a>
</g>
</g>
<!-- Node4&#45;&gt;Node5 -->
<g id="edge4_Node000004_Node000005" class="edge">
<title>Node4&#45;&gt;Node5</title>
<g id="a_edge4_Node000004_Node000005"><a xlink:title=" ">
<path fill="none" stroke="#63b8ff" d="M455.21,-256.63C483.17,-253.31 530.36,-247.17 570.5,-239.38 578.78,-237.77 587.51,-235.84 596,-233.84"/>
<polygon fill="#63b8ff" stroke="#63b8ff" points="596.6,-237.3 605.49,-231.55 594.95,-230.49 596.6,-237.3"/>
</a>
</g>
</g>
<!-- Node6&#45;&gt;Node5 -->
<g id="edge6_Node000006_Node000005" class="edge">
<title>Node6&#45;&gt;Node5</title>
<g id="a_edge6_Node000006_Node000005"><a xlink:title=" ">
<path fill="none" stroke="#63b8ff" d="M555.02,-153.11C560.16,-155.99 565.6,-159.19 570.5,-162.38 589.81,-174.93 610.62,-190.73 625.75,-202.66"/>
<polygon fill="#63b8ff" stroke="#63b8ff" points="623.19,-205.1 633.19,-208.59 627.55,-199.62 623.19,-205.1"/>
</a>
</g>
</g>
<!-- Node8 -->
<g id="Node000008" class="node">
<title>Node8</title>
<g id="a_Node000008"><a xlink:href="carrinho_2nrf24__avr_8c.html#aa653f4dc3541758224a53eef3f04d490" target="_top" xlink:title=" ">
<polygon fill="white" stroke="#666666" points="455.5,-59.75 404.25,-59.75 404.25,-39 455.5,-39 455.5,-59.75"/>
<text xml:space="preserve" text-anchor="middle" x="429.88" y="-46.25" font-family="Helvetica,sans-Serif" font-size="10.00">spi_init</text>
</a>
</g>
</g>
<!-- Node7&#45;&gt;Node8 -->
<g id="edge8_Node000007_Node000008" class="edge">
<title>Node7&#45;&gt;Node8</title>
<g id="a_edge8_Node000007_Node000008"><a xlink:title=" ">
<path fill="none" stroke="#63b8ff" d="M350.9,-49.38C364.7,-49.38 379.56,-49.38 392.56,-49.38"/>
<polygon fill="#63b8ff" stroke="#63b8ff" points="392.39,-52.88 402.39,-49.38 392.39,-45.88 392.39,-52.88"/>
</a>
</g>
</g>
<!-- Node9&#45;&gt;Node10 -->
<g id="edge10_Node000009_Node000010" class="edge">
<title>Node9&#45;&gt;Node10</title>
<g id="a_edge10_Node000009_Node000010"><a xlink:title=" ">
<path fill="none" stroke="#63b8ff" d="M363.25,-171.95C371.38,-173.12 379.57,-174.3 387.28,-175.4"/>
<polygon fill="#63b8ff" stroke="#63b8ff" points="386.64,-178.85 397.04,-176.8 387.64,-171.92 386.64,-178.85"/>
</a>
</g>
</g>
<!-- Node10&#45;&gt;Node6 -->
<g id="edge11_Node000010_Node000006" class="edge">
<title>Node10&#45;&gt;Node6</title>
<g id="a_edge11_Node000010_Node000006"><a xlink:title=" ">
<path fill="none" stroke="#63b8ff" d="M459.22,-170.51C469.91,-166.41 482.27,-161.67 493.76,-157.27"/>
<polygon fill="#63b8ff" stroke="#63b8ff" points="494.94,-160.57 503.02,-153.72 492.43,-154.03 494.94,-160.57"/>
</a>
</g>
</g>
<!-- Node11 -->
<g id="Node000011" class="node">
<title>Node11</title>
<g id="a_Node000011"><a xlink:href="carrinho_2nrf24__avr_8c.html#a42f8c1120431b7c37e116a4e1eac1cc2" target="_top" xlink:title=" ">
<polygon fill="white" stroke="#666666" points="561.12,-230.75 506.12,-230.75 506.12,-210 561.12,-210 561.12,-230.75"/>
<text xml:space="preserve" text-anchor="middle" x="533.62" y="-217.25" font-family="Helvetica,sans-Serif" font-size="10.00">csn_low</text>
</a>
</g>
</g>
<!-- Node10&#45;&gt;Node11 -->
<g id="edge12_Node000010_Node000011" class="edge">
<title>Node10&#45;&gt;Node11</title>
<g id="a_edge12_Node000010_Node000011"><a xlink:title=" ">
<path fill="none" stroke="#63b8ff" d="M459.22,-192.24C470.38,-196.52 483.36,-201.49 495.28,-206.06"/>
<polygon fill="#63b8ff" stroke="#63b8ff" points="493.83,-209.25 504.42,-209.56 496.33,-202.72 493.83,-209.25"/>
</a>
</g>
</g>
<!-- Node12 -->
<g id="Node000012" class="node">
<title>Node12</title>
<g id="a_Node000012"><a xlink:href="carrinho_2nrf24__avr_8c.html#a8d161d483c095113df5b69798e9cd725" target="_top" xlink:title=" ">
<polygon fill="white" stroke="#666666" points="570.5,-191.75 496.75,-191.75 496.75,-171 570.5,-171 570.5,-191.75"/>
<text xml:space="preserve" text-anchor="middle" x="533.62" y="-178.25" font-family="Helvetica,sans-Serif" font-size="10.00">spi_transfer</text>
</a>
</g>
</g>
<!-- Node10&#45;&gt;Node12 -->
<g id="edge14_Node000010_Node000012" class="edge">
<title>Node10&#45;&gt;Node12</title>
<g id="a_edge14_Node000010_Node000012"><a xlink:title=" ">
<path fill="none" stroke="#63b8ff" d="M461.13,-181.38C468.69,-181.38 476.99,-181.38 485.17,-181.38"/>
<polygon fill="#63b8ff" stroke="#63b8ff" points="485.05,-184.88 495.05,-181.38 485.05,-177.88 485.05,-184.88"/>
</a>
</g>
</g>
<!-- Node11&#45;&gt;Node5 -->
<g id="edge13_Node000011_Node000005" class="edge">
<title>Node11&#45;&gt;Node5</title>
<g id="a_edge13_Node000011_Node000005"><a xlink:title=" ">
<path fill="none" stroke="#63b8ff" d="M561.4,-220.38C571.39,-220.38 583.11,-220.38 594.63,-220.38"/>
<polygon fill="#63b8ff" stroke="#63b8ff" points="594.5,-223.88 604.5,-220.38 594.5,-216.88 594.5,-223.88"/>
</a>
</g>
</g>
<!-- Node14&#45;&gt;Node10 -->
<g id="edge18_Node000014_Node000010" class="edge">
<title>Node14&#45;&gt;Node10</title>
<g id="a_edge18_Node000014_Node000010"><a xlink:title=" ">
<path fill="none" stroke="#63b8ff" d="M206.48,-189.17C261.56,-187.24 339.97,-184.49 387.47,-182.83"/>
<polygon fill="#63b8ff" stroke="#63b8ff" points="387.46,-186.33 397.33,-182.48 387.22,-179.33 387.46,-186.33"/>
</a>
</g>
</g>
<!-- Node15&#45;&gt;Node4 -->
<g id="edge20_Node000015_Node000004" class="edge">
<title>Node15&#45;&gt;Node4</title>
<g id="a_edge20_Node000015_Node000004"><a xlink:title=" ">
<path fill="none" stroke="#63b8ff" d="M358.86,-248.21C370.61,-250.08 382.71,-252.01 393.48,-253.73"/>
<polygon fill="#63b8ff" stroke="#63b8ff" points="392.64,-257.14 403.07,-255.26 393.74,-250.23 392.64,-257.14"/>
</a>
</g>
</g>
<!-- Node15&#45;&gt;Node10 -->
<g id="edge25_Node000015_Node000010" class="edge">
<title>Node15&#45;&gt;Node10</title>
<g id="a_edge25_Node000015_Node000010"><a xlink:title=" ">
<path fill="none" stroke="#63b8ff" d="M331.88,-228.55C341.81,-224.6 352.98,-219.97 363,-215.38 374.97,-209.89 387.89,-203.36 399.09,-197.49"/>
<polygon fill="#63b8ff" stroke="#63b8ff" points="400.68,-200.61 407.88,-192.84 397.41,-194.42 400.68,-200.61"/>
</a>
</g>
</g>
<!-- Node16 -->
<g id="Node000016" class="node">
<title>Node16</title>
<g id="a_Node000016"><a xlink:href="carrinho_2nrf24__avr_8c.html#abefdb1d58b989853c0646a6c8b18b7d3" target="_top" xlink:title=" ">
<polygon fill="white" stroke="#666666" points="459.25,-230.75 400.5,-230.75 400.5,-210 459.25,-210 459.25,-230.75"/>
<text xml:space="preserve" text-anchor="middle" x="429.88" y="-217.25" font-family="Helvetica,sans-Serif" font-size="10.00">read_reg</text>
</a>
</g>
</g>
<!-- Node15&#45;&gt;Node16 -->
<g id="edge21_Node000015_Node000016" class="edge">
<title>Node15&#45;&gt;Node16</title>
<g id="a_edge21_Node000015_Node000016"><a xlink:title=" ">
<path fill="none" stroke="#63b8ff" d="M358.86,-230.99C369.02,-229.45 379.45,-227.87 389.05,-226.41"/>
<polygon fill="#63b8ff" stroke="#63b8ff" points="389.41,-229.9 398.78,-224.94 388.37,-222.97 389.41,-229.9"/>
</a>
</g>
</g>
<!-- Node16&#45;&gt;Node6 -->
<g id="edge22_Node000016_Node000006" class="edge">
<title>Node16&#45;&gt;Node6</title>
<g id="a_edge22_Node000016_Node000006"><a xlink:title=" ">
<path fill="none" stroke="#63b8ff" d="M448.41,-209.58C452.59,-206.76 456.93,-203.6 460.75,-200.38 478.53,-185.37 478.38,-176.65 496.75,-162.38 498.22,-161.23 499.77,-160.11 501.35,-159.03"/>
<polygon fill="#63b8ff" stroke="#63b8ff" points="502.78,-162.26 509.42,-154 499.08,-156.32 502.78,-162.26"/>
</a>
</g>
</g>
<!-- Node16&#45;&gt;Node11 -->
<g id="edge23_Node000016_Node000011" class="edge">
<title>Node16&#45;&gt;Node11</title>
<g id="a_edge23_Node000016_Node000011"><a xlink:title=" ">
<path fill="none" stroke="#63b8ff" d="M459.49,-220.38C470.42,-220.38 483.06,-220.38 494.73,-220.38"/>
<polygon fill="#63b8ff" stroke="#63b8ff" points="494.46,-223.88 504.46,-220.38 494.46,-216.88 494.46,-223.88"/>
</a>
</g>
</g>
<!-- Node16&#45;&gt;Node12 -->
<g id="edge24_Node000016_Node000012" class="edge">
<title>Node16&#45;&gt;Node12</title>
<g id="a_edge24_Node000016_Node000012"><a xlink:title=" ">
<path fill="none" stroke="#63b8ff" d="M459.22,-209.51C469.91,-205.41 482.27,-200.67 493.76,-196.27"/>
<polygon fill="#63b8ff" stroke="#63b8ff" points="494.94,-199.57 503.02,-192.72 492.43,-193.03 494.94,-199.57"/>
</a>
</g>
</g>
</g>
</svg>
