<?xml version="1.0" encoding="UTF-8" standalone="no"?>
<!DOCTYPE svg PUBLIC "-//W3C//DTD SVG 1.1//EN"
 "http://www.w3.org/Graphics/SVG/1.1/DTD/svg11.dtd">
<!-- Generated by graphviz version 14.0.4 (0)
 -->
<!-- Title: main Pages: 1 -->
<svg width="752pt" height="510pt"
 viewBox="0.00 0.00 752.00 510.00" xmlns="http://www.w3.org/2000/svg" xmlns:xlink="http://www.w3.org/1999/xlink">
<g id="graph0" class="graph" transform="scale(1 1) rotate(0) translate(4 505.75)">
<title>main</title>
<!-- Node1 -->
<g id="Node000001" class="node">
<title>Node1</title>
<g id="a_Node000001"><a xlink:title="Função principal do firmware.">
<polygon fill="#999999" stroke="#666666" points="40.75,-259.75 0,-259.75 0,-239 40.75,-239 40.75,-259.75"/>
<text xml:space="preserve" text-anchor="middle" x="20.38" y="-246.25" font-family="Helvetica,sans-Serif" font-size="10.00">main</text>
</a>
</g>
</g>
<!-- Node2 -->
<g id="Node000002" class="node">
<title>Node2</title>
<g id="a_Node000002"><a xlink:href="controle_8c.html#afe461d27b9c48d5921c00d521181f12f" target="_top" xlink:title="Loop principal: lê controles, aplica deadzone, envia por RF e atualiza LEDs.">
<polygon fill="white" stroke="#666666" points="116.75,-403.75 79.75,-403.75 79.75,-383 116.75,-383 116.75,-403.75"/>
<text xml:space="preserve" text-anchor="middle" x="98.25" y="-390.25" font-family="Helvetica,sans-Serif" font-size="10.00">loop</text>
</a>
</g>
</g>
<!-- Node1&#45;&gt;Node2 -->
<g id="edge1_Node000001_Node000002" class="edge">
<title>Node1&#45;&gt;Node2</title>
<g id="a_edge1_Node000001_Node000002"><a xlink:title=" ">
<path fill="none" stroke="#63b8ff" d="M27.08,-260.2C39.66,-284.08 69.99,-341.64 86.35,-372.69"/>
<polygon fill="#63b8ff" stroke="#63b8ff" points="83.22,-374.26 90.98,-381.48 89.42,-371 83.22,-374.26"/>
</a>
</g>
</g>
<!-- Node19 -->
<g id="Node000019" class="node">
<title>Node19</title>
<g id="a_Node000019"><a xlink:href="controle_8c.html#a4fc01d736fe50cf5b977f755b675f11d" target="_top" xlink:title="Inicializações principais (ADC, PWM, entradas e rádio).">
<polygon fill="white" stroke="#666666" points="119.75,-202.75 76.75,-202.75 76.75,-182 119.75,-182 119.75,-202.75"/>
<text xml:space="preserve" text-anchor="middle" x="98.25" y="-189.25" font-family="Helvetica,sans-Serif" font-size="10.00">setup</text>
</a>
</g>
</g>
<!-- Node1&#45;&gt;Node19 -->
<g id="edge33_Node000001_Node000019" class="edge">
<title>Node1&#45;&gt;Node19</title>
<g id="a_edge33_Node000001_Node000019"><a xlink:title=" ">
<path fill="none" stroke="#63b8ff" d="M35.65,-238.65C46.39,-230.58 61.34,-219.35 73.83,-209.97"/>
<polygon fill="#63b8ff" stroke="#63b8ff" points="75.68,-212.96 81.57,-204.15 71.48,-207.36 75.68,-212.96"/>
</a>
</g>
</g>
<!-- Node3 -->
<g id="Node000003" class="node">
<title>Node3</title>
<g id="a_Node000003"><a xlink:href="controle_8c.html#a3785cfdfc42be12ee699c8b8b4e4d01f" target="_top" xlink:title="Retorna valor absoluto de um inteiro.">
<polygon fill="white" stroke="#666666" points="218.25,-501.75 167,-501.75 167,-481 218.25,-481 218.25,-501.75"/>
<text xml:space="preserve" text-anchor="middle" x="192.62" y="-488.25" font-family="Helvetica,sans-Serif" font-size="10.00">abs_int</text>
</a>
</g>
</g>
<!-- Node2&#45;&gt;Node3 -->
<g id="edge2_Node000002_Node000003" class="edge">
<title>Node2&#45;&gt;Node3</title>
<g id="a_edge2_Node000002_Node000003"><a xlink:title=" ">
<path fill="none" stroke="#63b8ff" d="M104.98,-404.09C114.04,-420.27 133,-451.17 155.75,-471.38 156.83,-472.33 157.96,-473.27 159.13,-474.17"/>
<polygon fill="#63b8ff" stroke="#63b8ff" points="157.1,-477.02 167.36,-479.67 160.99,-471.2 157.1,-477.02"/>
</a>
</g>
</g>
<!-- Node4 -->
<g id="Node000004" class="node">
<title>Node4</title>
<g id="a_Node000004"><a xlink:href="controle_8c.html#a7c3d687942e3acba4e53cac61d9e71ea" target="_top" xlink:title="Lê o ADC em um canal específico.">
<polygon fill="white" stroke="#666666" points="222.75,-462.75 162.5,-462.75 162.5,-442 222.75,-442 222.75,-462.75"/>
<text xml:space="preserve" text-anchor="middle" x="192.62" y="-449.25" font-family="Helvetica,sans-Serif" font-size="10.00">adc_read</text>
</a>
</g>
</g>
<!-- Node2&#45;&gt;Node4 -->
<g id="edge3_Node000002_Node000004" class="edge">
<title>Node2&#45;&gt;Node4</title>
<g id="a_edge3_Node000002_Node000004"><a xlink:title=" ">
<path fill="none" stroke="#63b8ff" d="M113.86,-404.03C125.12,-412.1 141.18,-423.31 155.75,-432.38 157.74,-433.61 159.8,-434.86 161.9,-436.09"/>
<polygon fill="#63b8ff" stroke="#63b8ff" points="159.96,-439.02 170.38,-440.95 163.44,-432.94 159.96,-439.02"/>
</a>
</g>
</g>
<!-- Node5 -->
<g id="Node000005" class="node">
<title>Node5</title>
<g id="a_Node000005"><a xlink:href="controle_8c.html#aada2d75bc8a8c6eb845bd940eadfa3fd" target="_top" xlink:title="Função equivalente ao map() do Arduino.">
<polygon fill="white" stroke="#666666" points="211.5,-423.75 173.75,-423.75 173.75,-403 211.5,-403 211.5,-423.75"/>
<text xml:space="preserve" text-anchor="middle" x="192.62" y="-410.25" font-family="Helvetica,sans-Serif" font-size="10.00">map</text>
</a>
</g>
</g>
<!-- Node2&#45;&gt;Node5 -->
<g id="edge4_Node000002_Node000005" class="edge">
<title>Node2&#45;&gt;Node5</title>
<g id="a_edge4_Node000002_Node000005"><a xlink:title=" ">
<path fill="none" stroke="#63b8ff" d="M117.06,-397.23C129.89,-400.01 147.47,-403.82 162.35,-407.04"/>
<polygon fill="#63b8ff" stroke="#63b8ff" points="161.56,-410.45 172.07,-409.14 163.04,-403.61 161.56,-410.45"/>
</a>
</g>
</g>
<!-- Node6 -->
<g id="Node000006" class="node">
<title>Node6</title>
<g id="a_Node000006"><a xlink:href="carrinho_2nrf24__avr_8c.html#a8232e1982aabc6f52408c318402cb578" target="_top" xlink:title=" ">
<polygon fill="white" stroke="#666666" points="228.38,-384.75 156.88,-384.75 156.88,-364 228.38,-364 228.38,-384.75"/>
<text xml:space="preserve" text-anchor="middle" x="192.62" y="-371.25" font-family="Helvetica,sans-Serif" font-size="10.00">nrf24_write</text>
</a>
</g>
</g>
<!-- Node2&#45;&gt;Node6 -->
<g id="edge5_Node000002_Node000006" class="edge">
<title>Node2&#45;&gt;Node6</title>
<g id="a_edge5_Node000002_Node000006"><a xlink:title=" ">
<path fill="none" stroke="#63b8ff" d="M117.06,-389.71C125.3,-388.02 135.51,-385.92 145.7,-383.82"/>
<polygon fill="#63b8ff" stroke="#63b8ff" points="146.08,-387.32 155.17,-381.87 144.67,-380.46 146.08,-387.32"/>
</a>
</g>
</g>
<!-- Node18 -->
<g id="Node000018" class="node">
<title>Node18</title>
<g id="a_Node000018"><a xlink:href="controle_8c.html#a0bf689abd3a20724062e39ce568130b1" target="_top" xlink:title="Escreve valor PWM em LED1 ou LED2.">
<polygon fill="white" stroke="#666666" points="227.62,-345.75 157.62,-345.75 157.62,-325 227.62,-325 227.62,-345.75"/>
<text xml:space="preserve" text-anchor="middle" x="192.62" y="-332.25" font-family="Helvetica,sans-Serif" font-size="10.00">pwm_write</text>
</a>
</g>
</g>
<!-- Node2&#45;&gt;Node18 -->
<g id="edge32_Node000002_Node000018" class="edge">
<title>Node2&#45;&gt;Node18</title>
<g id="a_edge32_Node000002_Node000018"><a xlink:title=" ">
<path fill="none" stroke="#63b8ff" d="M114.37,-382.7C125.62,-374.89 141.44,-364.15 155.75,-355.38 157.74,-354.15 159.82,-352.91 161.91,-351.68"/>
<polygon fill="#63b8ff" stroke="#63b8ff" points="163.45,-354.83 170.4,-346.84 159.98,-348.76 163.45,-354.83"/>
</a>
</g>
</g>
<!-- Node7 -->
<g id="Node000007" class="node">
<title>Node7</title>
<g id="a_Node000007"><a xlink:href="carrinho_2nrf24__avr_8c.html#a5336963072afb877d785bed84eb6b5f4" target="_top" xlink:title=" ">
<polygon fill="white" stroke="#666666" points="613.88,-480.75 560.38,-480.75 560.38,-460 613.88,-460 613.88,-480.75"/>
<text xml:space="preserve" text-anchor="middle" x="587.12" y="-467.25" font-family="Helvetica,sans-Serif" font-size="10.00">ce_high</text>
</a>
</g>
</g>
<!-- Node6&#45;&gt;Node7 -->
<g id="edge6_Node000006_Node000007" class="edge">
<title>Node6&#45;&gt;Node7</title>
<g id="a_edge6_Node000006_Node000007"><a xlink:title=" ">
<path fill="none" stroke="#63b8ff" d="M216.67,-385.2C221.17,-387.86 225.68,-390.94 229.5,-394.38 250.13,-412.93 241.38,-431.66 265.5,-445.38 356.24,-496.97 485.44,-486.54 548.54,-477.16"/>
<polygon fill="#63b8ff" stroke="#63b8ff" points="549.05,-480.62 558.39,-475.61 547.97,-473.71 549.05,-480.62"/>
</a>
</g>
</g>
<!-- Node9 -->
<g id="Node000009" class="node">
<title>Node9</title>
<g id="a_Node000009"><a xlink:href="carrinho_2nrf24__avr_8c.html#a77c5f7c57c01266d04faea3052a47f49" target="_top" xlink:title=" ">
<polygon fill="white" stroke="#666666" points="496.25,-221.75 446.5,-221.75 446.5,-201 496.25,-201 496.25,-221.75"/>
<text xml:space="preserve" text-anchor="middle" x="471.38" y="-208.25" font-family="Helvetica,sans-Serif" font-size="10.00">ce_low</text>
</a>
</g>
</g>
<!-- Node6&#45;&gt;Node9 -->
<g id="edge8_Node000006_Node000009" class="edge">
<title>Node6&#45;&gt;Node9</title>
<g id="a_edge8_Node000006_Node000009"><a xlink:title=" ">
<path fill="none" stroke="#63b8ff" d="M219.16,-363.57C223.05,-361.02 226.69,-357.97 229.5,-354.38 267.42,-305.75 217.4,-258.96 265.5,-220.38 313.55,-181.82 390.25,-191.28 434.91,-201.45"/>
<polygon fill="#63b8ff" stroke="#63b8ff" points="434.06,-204.85 444.6,-203.81 435.71,-198.04 434.06,-204.85"/>
</a>
</g>
</g>
<!-- Node10 -->
<g id="Node000010" class="node">
<title>Node10</title>
<g id="a_Node000010"><a xlink:href="carrinho_2nrf24__avr_8c.html#a617ab4b2604d6f482796e35da85369ad" target="_top" xlink:title=" ">
<polygon fill="white" stroke="#666666" points="514.25,-424.75 428.5,-424.75 428.5,-404 514.25,-404 514.25,-424.75"/>
<text xml:space="preserve" text-anchor="middle" x="471.38" y="-411.25" font-family="Helvetica,sans-Serif" font-size="10.00">nrf24_flush_tx</text>
</a>
</g>
</g>
<!-- Node6&#45;&gt;Node10 -->
<g id="edge10_Node000006_Node000010" class="edge">
<title>Node6&#45;&gt;Node10</title>
<g id="a_edge10_Node000006_Node000010"><a xlink:title=" ">
<path fill="none" stroke="#63b8ff" d="M214.55,-385.1C219.57,-387.93 224.82,-391.11 229.5,-394.38 246.81,-406.47 245.71,-418.03 265.5,-425.38 316.12,-444.17 378.64,-436.85 421.21,-427.75"/>
<polygon fill="#63b8ff" stroke="#63b8ff" points="421.93,-431.17 430.91,-425.55 420.38,-424.34 421.93,-431.17"/>
</a>
</g>
</g>
<!-- Node14 -->
<g id="Node000014" class="node">
<title>Node14</title>
<g id="a_Node000014"><a xlink:href="carrinho_2nrf24__avr_8c.html#a33899bc3c0f4d2293f37c306d0b8e297" target="_top" xlink:title=" ">
<polygon fill="white" stroke="#666666" points="385,-327.75 273,-327.75 273,-307 385,-307 385,-327.75"/>
<text xml:space="preserve" text-anchor="middle" x="329" y="-314.25" font-family="Helvetica,sans-Serif" font-size="10.00">nrf24_stopListening</text>
</a>
</g>
</g>
<!-- Node6&#45;&gt;Node14 -->
<g id="edge16_Node000006_Node000014" class="edge">
<title>Node6&#45;&gt;Node14</title>
<g id="a_edge16_Node000006_Node000014"><a xlink:title=" ">
<path fill="none" stroke="#63b8ff" d="M216.12,-363.6C230.21,-356.96 248.8,-348.41 265.5,-341.38 272.7,-338.34 280.42,-335.25 287.9,-332.34"/>
<polygon fill="#63b8ff" stroke="#63b8ff" points="289.1,-335.63 297.18,-328.77 286.59,-329.09 289.1,-335.63"/>
</a>
</g>
</g>
<!-- Node15 -->
<g id="Node000015" class="node">
<title>Node15</title>
<g id="a_Node000015"><a xlink:href="carrinho_2nrf24__avr_8c.html#abefdb1d58b989853c0646a6c8b18b7d3" target="_top" xlink:title=" ">
<polygon fill="white" stroke="#666666" points="500.75,-346.75 442,-346.75 442,-326 500.75,-326 500.75,-346.75"/>
<text xml:space="preserve" text-anchor="middle" x="471.38" y="-333.25" font-family="Helvetica,sans-Serif" font-size="10.00">read_reg</text>
</a>
</g>
</g>
<!-- Node6&#45;&gt;Node15 -->
<g id="edge26_Node000006_Node000015" class="edge">
<title>Node6&#45;&gt;Node15</title>
<g id="a_edge26_Node000006_Node000015"><a xlink:title=" ">
<path fill="none" stroke="#63b8ff" d="M228.58,-377.4C268.67,-379.98 336.13,-381.57 392.5,-369.38 401.53,-367.42 420.51,-359.41 437.47,-351.77"/>
<polygon fill="#63b8ff" stroke="#63b8ff" points="438.64,-355.09 446.28,-347.75 435.73,-348.72 438.64,-355.09"/>
</a>
</g>
</g>
<!-- Node16 -->
<g id="Node000016" class="node">
<title>Node16</title>
<g id="a_Node000016"><a xlink:href="carrinho_2nrf24__avr_8c.html#a08bc978021db604d02a6da754f73e7e2" target="_top" xlink:title=" ">
<polygon fill="white" stroke="#666666" points="502.25,-307.75 440.5,-307.75 440.5,-287 502.25,-287 502.25,-307.75"/>
<text xml:space="preserve" text-anchor="middle" x="471.38" y="-294.25" font-family="Helvetica,sans-Serif" font-size="10.00">write_reg</text>
</a>
</g>
</g>
<!-- Node6&#45;&gt;Node16 -->
<g id="edge31_Node000006_Node000016" class="edge">
<title>Node6&#45;&gt;Node16</title>
<g id="a_edge31_Node000006_Node000016"><a xlink:title=" ">
<path fill="none" stroke="#63b8ff" d="M228.57,-370.88C268.94,-366.11 336.94,-355.86 392.5,-336.38 409.57,-330.39 412.33,-325.5 428.5,-317.38 431.24,-316 434.09,-314.59 436.96,-313.19"/>
<polygon fill="#63b8ff" stroke="#63b8ff" points="438.41,-316.37 445.89,-308.87 435.37,-310.07 438.41,-316.37"/>
</a>
</g>
</g>
<!-- Node17 -->
<g id="Node000017" class="node">
<title>Node17</title>
<g id="a_Node000017"><a xlink:href="carrinho_2nrf24__avr_8c.html#a3c9fd94e9894bf0792d4ff5891c16436" target="_top" xlink:title=" ">
<polygon fill="white" stroke="#666666" points="513.88,-385.75 428.88,-385.75 428.88,-365 513.88,-365 513.88,-385.75"/>
<text xml:space="preserve" text-anchor="middle" x="471.38" y="-372.25" font-family="Helvetica,sans-Serif" font-size="10.00">write_payload</text>
</a>
</g>
</g>
<!-- Node6&#45;&gt;Node17 -->
<g id="edge27_Node000006_Node000017" class="edge">
<title>Node6&#45;&gt;Node17</title>
<g id="a_edge27_Node000006_Node000017"><a xlink:title=" ">
<path fill="none" stroke="#63b8ff" d="M214.53,-385.19C231.88,-393.93 255.31,-405.15 265.5,-407.38 320.64,-419.43 337.12,-418.31 392.5,-407.38 401.41,-405.62 420.01,-398.03 436.79,-390.69"/>
<polygon fill="#63b8ff" stroke="#63b8ff" points="437.8,-394.07 445.53,-386.81 434.97,-387.67 437.8,-394.07"/>
</a>
</g>
</g>
<!-- Node8 -->
<g id="Node000008" class="node">
<title>Node8</title>
<g id="a_Node000008"><a xlink:href="carrinho_2nrf24__avr_8c.html#a019970fc17b6b18fa4e45e0baf22c93f" target="_top" xlink:title=" ">
<polygon fill="white" stroke="#666666" points="744.25,-326.75 660,-326.75 660,-306 744.25,-306 744.25,-326.75"/>
<text xml:space="preserve" text-anchor="middle" x="702.12" y="-313.25" font-family="Helvetica,sans-Serif" font-size="10.00">digitalWrite_d</text>
</a>
</g>
</g>
<!-- Node7&#45;&gt;Node8 -->
<g id="edge7_Node000007_Node000008" class="edge">
<title>Node7&#45;&gt;Node8</title>
<g id="a_edge7_Node000007_Node000008"><a xlink:title=" ">
<path fill="none" stroke="#63b8ff" d="M595.89,-459.79C614.6,-434.29 662.4,-369.15 686.61,-336.16"/>
<polygon fill="#63b8ff" stroke="#63b8ff" points="689.31,-338.39 692.41,-328.25 683.67,-334.25 689.31,-338.39"/>
</a>
</g>
</g>
<!-- Node9&#45;&gt;Node8 -->
<g id="edge9_Node000009_Node000008" class="edge">
<title>Node9&#45;&gt;Node8</title>
<g id="a_edge9_Node000009_Node000008"><a xlink:title=" ">
<path fill="none" stroke="#63b8ff" d="M496.68,-221.74C526.74,-234.65 579.41,-257.55 624,-278.38 639.2,-285.47 655.91,-293.66 669.88,-300.61"/>
<polygon fill="#63b8ff" stroke="#63b8ff" points="668.1,-303.63 678.61,-304.97 671.23,-297.37 668.1,-303.63"/>
</a>
</g>
</g>
<!-- Node11 -->
<g id="Node000011" class="node">
<title>Node11</title>
<g id="a_Node000011"><a xlink:href="carrinho_2nrf24__avr_8c.html#adaef88bc02a8e805de3b3a82bf317549" target="_top" xlink:title=" ">
<polygon fill="white" stroke="#666666" points="616.5,-307.75 557.75,-307.75 557.75,-287 616.5,-287 616.5,-307.75"/>
<text xml:space="preserve" text-anchor="middle" x="587.12" y="-294.25" font-family="Helvetica,sans-Serif" font-size="10.00">csn_high</text>
</a>
</g>
</g>
<!-- Node10&#45;&gt;Node11 -->
<g id="edge11_Node000010_Node000011" class="edge">
<title>Node10&#45;&gt;Node11</title>
<g id="a_edge11_Node000010_Node000011"><a xlink:title=" ">
<path fill="none" stroke="#63b8ff" d="M501.58,-403.68C506.19,-401.12 510.62,-398.04 514.25,-394.38 540.85,-367.55 524.51,-345.02 550.25,-317.38 551.08,-316.49 551.95,-315.63 552.86,-314.8"/>
<polygon fill="#63b8ff" stroke="#63b8ff" points="554.68,-317.82 560.63,-309.05 550.51,-312.19 554.68,-317.82"/>
</a>
</g>
</g>
<!-- Node12 -->
<g id="Node000012" class="node">
<title>Node12</title>
<g id="a_Node000012"><a xlink:href="carrinho_2nrf24__avr_8c.html#a42f8c1120431b7c37e116a4e1eac1cc2" target="_top" xlink:title=" ">
<polygon fill="white" stroke="#666666" points="614.62,-346.75 559.62,-346.75 559.62,-326 614.62,-326 614.62,-346.75"/>
<text xml:space="preserve" text-anchor="middle" x="587.12" y="-333.25" font-family="Helvetica,sans-Serif" font-size="10.00">csn_low</text>
</a>
</g>
</g>
<!-- Node10&#45;&gt;Node12 -->
<g id="edge13_Node000010_Node000012" class="edge">
<title>Node10&#45;&gt;Node12</title>
<g id="a_edge13_Node000010_Node000012"><a xlink:title=" ">
<path fill="none" stroke="#63b8ff" d="M498.91,-403.52C504.19,-400.86 509.56,-397.79 514.25,-394.38 533.06,-380.69 531.88,-370.65 550.25,-356.38 551.72,-355.23 553.27,-354.11 554.85,-353.03"/>
<polygon fill="#63b8ff" stroke="#63b8ff" points="556.28,-356.26 562.92,-348 552.58,-350.32 556.28,-356.26"/>
</a>
</g>
</g>
<!-- Node13 -->
<g id="Node000013" class="node">
<title>Node13</title>
<g id="a_Node000013"><a xlink:href="carrinho_2nrf24__avr_8c.html#a8d161d483c095113df5b69798e9cd725" target="_top" xlink:title=" ">
<polygon fill="white" stroke="#666666" points="624,-385.75 550.25,-385.75 550.25,-365 624,-365 624,-385.75"/>
<text xml:space="preserve" text-anchor="middle" x="587.12" y="-372.25" font-family="Helvetica,sans-Serif" font-size="10.00">spi_transfer</text>
</a>
</g>
</g>
<!-- Node10&#45;&gt;Node13 -->
<g id="edge15_Node000010_Node000013" class="edge">
<title>Node10&#45;&gt;Node13</title>
<g id="a_edge15_Node000010_Node000013"><a xlink:title=" ">
<path fill="none" stroke="#63b8ff" d="M504.06,-403.51C516.39,-399.29 530.69,-394.38 543.87,-389.86"/>
<polygon fill="#63b8ff" stroke="#63b8ff" points="544.85,-393.23 553.18,-386.67 542.58,-386.6 544.85,-393.23"/>
</a>
</g>
</g>
<!-- Node11&#45;&gt;Node8 -->
<g id="edge12_Node000011_Node000008" class="edge">
<title>Node11&#45;&gt;Node8</title>
<g id="a_edge12_Node000011_Node000008"><a xlink:title=" ">
<path fill="none" stroke="#63b8ff" d="M616.93,-302.22C626.54,-303.83 637.57,-305.69 648.41,-307.51"/>
<polygon fill="#63b8ff" stroke="#63b8ff" points="647.64,-310.93 658.08,-309.14 648.8,-304.03 647.64,-310.93"/>
</a>
</g>
</g>
<!-- Node12&#45;&gt;Node8 -->
<g id="edge14_Node000012_Node000008" class="edge">
<title>Node12&#45;&gt;Node8</title>
<g id="a_edge14_Node000012_Node000008"><a xlink:title=" ">
<path fill="none" stroke="#63b8ff" d="M614.9,-331.64C624.99,-329.85 636.85,-327.75 648.49,-325.69"/>
<polygon fill="#63b8ff" stroke="#63b8ff" points="648.79,-329.19 658.02,-324 647.57,-322.3 648.79,-329.19"/>
</a>
</g>
</g>
<!-- Node14&#45;&gt;Node9 -->
<g id="edge17_Node000014_Node000009" class="edge">
<title>Node14&#45;&gt;Node9</title>
<g id="a_edge17_Node000014_Node000009"><a xlink:title=" ">
<path fill="none" stroke="#63b8ff" d="M374.03,-306.54C380.48,-304.04 386.85,-301.02 392.5,-297.38 419.48,-279.99 443.05,-250.92 457,-231.46"/>
<polygon fill="#63b8ff" stroke="#63b8ff" points="459.86,-233.47 462.69,-223.26 454.11,-229.48 459.86,-233.47"/>
</a>
</g>
</g>
<!-- Node14&#45;&gt;Node15 -->
<g id="edge18_Node000014_Node000015" class="edge">
<title>Node14&#45;&gt;Node15</title>
<g id="a_edge18_Node000014_Node000015"><a xlink:title=" ">
<path fill="none" stroke="#63b8ff" d="M385.48,-324.88C400.57,-326.93 416.6,-329.1 430.63,-331"/>
<polygon fill="#63b8ff" stroke="#63b8ff" points="429.99,-334.44 440.37,-332.31 430.93,-327.5 429.99,-334.44"/>
</a>
</g>
</g>
<!-- Node14&#45;&gt;Node16 -->
<g id="edge22_Node000014_Node000016" class="edge">
<title>Node14&#45;&gt;Node16</title>
<g id="a_edge22_Node000014_Node000016"><a xlink:title=" ">
<path fill="none" stroke="#63b8ff" d="M385.48,-309.47C400.09,-307.39 415.59,-305.18 429.29,-303.23"/>
<polygon fill="#63b8ff" stroke="#63b8ff" points="429.41,-306.75 438.82,-301.87 428.42,-299.82 429.41,-306.75"/>
</a>
</g>
</g>
<!-- Node15&#45;&gt;Node11 -->
<g id="edge19_Node000015_Node000011" class="edge">
<title>Node15&#45;&gt;Node11</title>
<g id="a_edge19_Node000015_Node000011"><a xlink:title=" ">
<path fill="none" stroke="#63b8ff" d="M501.08,-326.53C514.95,-321.78 531.82,-315.99 546.87,-310.83"/>
<polygon fill="#63b8ff" stroke="#63b8ff" points="547.67,-314.26 556,-307.7 545.4,-307.64 547.67,-314.26"/>
</a>
</g>
</g>
<!-- Node15&#45;&gt;Node12 -->
<g id="edge20_Node000015_Node000012" class="edge">
<title>Node15&#45;&gt;Node12</title>
<g id="a_edge20_Node000015_Node000012"><a xlink:title=" ">
<path fill="none" stroke="#63b8ff" d="M501.08,-336.38C515.34,-336.38 532.77,-336.38 548.13,-336.38"/>
<polygon fill="#63b8ff" stroke="#63b8ff" points="547.87,-339.88 557.87,-336.38 547.87,-332.88 547.87,-339.88"/>
</a>
</g>
</g>
<!-- Node15&#45;&gt;Node13 -->
<g id="edge21_Node000015_Node000013" class="edge">
<title>Node15&#45;&gt;Node13</title>
<g id="a_edge21_Node000015_Node000013"><a xlink:title=" ">
<path fill="none" stroke="#63b8ff" d="M501.08,-346.22C514.09,-350.68 529.72,-356.04 544.02,-360.94"/>
<polygon fill="#63b8ff" stroke="#63b8ff" points="542.6,-364.15 553.2,-364.09 544.87,-357.53 542.6,-364.15"/>
</a>
</g>
</g>
<!-- Node16&#45;&gt;Node11 -->
<g id="edge23_Node000016_Node000011" class="edge">
<title>Node16&#45;&gt;Node11</title>
<g id="a_edge23_Node000016_Node000011"><a xlink:title=" ">
<path fill="none" stroke="#63b8ff" d="M502.56,-297.38C515.96,-297.38 531.91,-297.38 546.27,-297.38"/>
<polygon fill="#63b8ff" stroke="#63b8ff" points="545.86,-300.88 555.86,-297.38 545.86,-293.88 545.86,-300.88"/>
</a>
</g>
</g>
<!-- Node16&#45;&gt;Node12 -->
<g id="edge24_Node000016_Node000012" class="edge">
<title>Node16&#45;&gt;Node12</title>
<g id="a_edge24_Node000016_Node000012"><a xlink:title=" ">
<path fill="none" stroke="#63b8ff" d="M502.56,-307.72C516.75,-312.59 533.82,-318.44 548.81,-323.58"/>
<polygon fill="#63b8ff" stroke="#63b8ff" points="547.27,-326.75 557.86,-326.69 549.54,-320.13 547.27,-326.75"/>
</a>
</g>
</g>
<!-- Node16&#45;&gt;Node13 -->
<g id="edge25_Node000016_Node000013" class="edge">
<title>Node16&#45;&gt;Node13</title>
<g id="a_edge25_Node000016_Node000013"><a xlink:title=" ">
<path fill="none" stroke="#63b8ff" d="M498.91,-308.23C504.19,-310.89 509.56,-313.96 514.25,-317.38 533.06,-331.06 531.88,-341.1 550.25,-355.38 551.72,-356.52 553.27,-357.64 554.85,-358.72"/>
<polygon fill="#63b8ff" stroke="#63b8ff" points="552.58,-361.43 562.92,-363.75 556.28,-355.49 552.58,-361.43"/>
</a>
</g>
</g>
<!-- Node17&#45;&gt;Node11 -->
<g id="edge28_Node000017_Node000011" class="edge">
<title>Node17&#45;&gt;Node11</title>
<g id="a_edge28_Node000017_Node000011"><a xlink:title=" ">
<path fill="none" stroke="#63b8ff" d="M498.91,-364.52C504.19,-361.86 509.56,-358.79 514.25,-355.38 533.06,-341.69 531.88,-331.65 550.25,-317.38 551.72,-316.23 553.27,-315.11 554.85,-314.03"/>
<polygon fill="#63b8ff" stroke="#63b8ff" points="556.28,-317.26 562.92,-309 552.58,-311.32 556.28,-317.26"/>
</a>
</g>
</g>
<!-- Node17&#45;&gt;Node12 -->
<g id="edge29_Node000017_Node000012" class="edge">
<title>Node17&#45;&gt;Node12</title>
<g id="a_edge29_Node000017_Node000012"><a xlink:title=" ">
<path fill="none" stroke="#63b8ff" d="M504.06,-364.51C517.89,-359.77 534.21,-354.17 548.64,-349.23"/>
<polygon fill="#63b8ff" stroke="#63b8ff" points="549.47,-352.64 557.8,-346.09 547.2,-346.02 549.47,-352.64"/>
</a>
</g>
</g>
<!-- Node17&#45;&gt;Node13 -->
<g id="edge30_Node000017_Node000013" class="edge">
<title>Node17&#45;&gt;Node13</title>
<g id="a_edge30_Node000017_Node000013"><a xlink:title=" ">
<path fill="none" stroke="#63b8ff" d="M514.09,-375.38C522.1,-375.38 530.55,-375.38 538.73,-375.38"/>
<polygon fill="#63b8ff" stroke="#63b8ff" points="538.53,-378.88 548.53,-375.38 538.53,-371.88 538.53,-378.88"/>
</a>
</g>
</g>
<!-- Node19&#45;&gt;Node14 -->
<g id="edge46_Node000019_Node000014" class="edge">
<title>Node19&#45;&gt;Node14</title>
<g id="a_edge46_Node000019_Node000014"><a xlink:title=" ">
<path fill="none" stroke="#63b8ff" d="M108.89,-202.93C119.57,-214.2 137.67,-232.09 155.75,-244.38 194.7,-270.85 244.79,-290.75 280.9,-303.03"/>
<polygon fill="#63b8ff" stroke="#63b8ff" points="279.6,-306.29 290.2,-306.12 281.81,-299.65 279.6,-306.29"/>
</a>
</g>
</g>
<!-- Node20 -->
<g id="Node000020" class="node">
<title>Node20</title>
<g id="a_Node000020"><a xlink:href="controle_8c.html#af5e0a217880b6f6976ff1c2b1297f7a3" target="_top" xlink:title="Inicializa o ADC do AVR para leitura dos analógicos.">
<polygon fill="white" stroke="#666666" points="225.38,-134.75 159.88,-134.75 159.88,-114 225.38,-114 225.38,-134.75"/>
<text xml:space="preserve" text-anchor="middle" x="192.62" y="-121.25" font-family="Helvetica,sans-Serif" font-size="10.00">adc_setup</text>
</a>
</g>
</g>
<!-- Node19&#45;&gt;Node20 -->
<g id="edge34_Node000019_Node000020" class="edge">
<title>Node19&#45;&gt;Node20</title>
<g id="a_edge34_Node000019_Node000020"><a xlink:title=" ">
<path fill="none" stroke="#63b8ff" d="M110.4,-181.75C121.43,-171.53 139.04,-155.96 155.75,-144.38 157.51,-143.16 159.35,-141.95 161.22,-140.76"/>
<polygon fill="#63b8ff" stroke="#63b8ff" points="162.6,-144.01 169.42,-135.9 159.03,-138 162.6,-144.01"/>
</a>
</g>
</g>
<!-- Node21 -->
<g id="Node000021" class="node">
<title>Node21</title>
<g id="a_Node000021"><a xlink:href="carrinho_2nrf24__avr_8c.html#ab6fb4c1aa834152310116e7dec65d8e3" target="_top" xlink:title=" ">
<polygon fill="white" stroke="#666666" points="229.5,-173.75 155.75,-173.75 155.75,-153 229.5,-153 229.5,-173.75"/>
<text xml:space="preserve" text-anchor="middle" x="192.62" y="-160.25" font-family="Helvetica,sans-Serif" font-size="10.00">nrf24_begin</text>
</a>
</g>
</g>
<!-- Node19&#45;&gt;Node21 -->
<g id="edge35_Node000019_Node000021" class="edge">
<title>Node19&#45;&gt;Node21</title>
<g id="a_edge35_Node000019_Node000021"><a xlink:title=" ">
<path fill="none" stroke="#63b8ff" d="M120.21,-185.79C128.09,-183.32 137.39,-180.4 146.62,-177.5"/>
<polygon fill="#63b8ff" stroke="#63b8ff" points="147.4,-180.93 155.9,-174.59 145.31,-174.25 147.4,-180.93"/>
</a>
</g>
</g>
<!-- Node26 -->
<g id="Node000026" class="node">
<title>Node26</title>
<g id="a_Node000026"><a xlink:href="carrinho_2nrf24__avr_8c.html#a21d638882f746748de35324bdc21f448" target="_top" xlink:title=" ">
<polygon fill="white" stroke="#666666" points="392.5,-288.75 265.5,-288.75 265.5,-268 392.5,-268 392.5,-288.75"/>
<text xml:space="preserve" text-anchor="middle" x="329" y="-275.25" font-family="Helvetica,sans-Serif" font-size="10.00">nrf24_openWritingPipe</text>
</a>
</g>
</g>
<!-- Node19&#45;&gt;Node26 -->
<g id="edge44_Node000019_Node000026" class="edge">
<title>Node19&#45;&gt;Node26</title>
<g id="a_edge44_Node000019_Node000026"><a xlink:title=" ">
<path fill="none" stroke="#63b8ff" d="M120.07,-201.17C151.39,-214.28 212.58,-239.43 265.5,-258.38 270.86,-260.29 276.51,-262.23 282.13,-264.09"/>
<polygon fill="#63b8ff" stroke="#63b8ff" points="280.79,-267.34 291.38,-267.11 282.96,-260.68 280.79,-267.34"/>
</a>
</g>
</g>
<!-- Node27 -->
<g id="Node000027" class="node">
<title>Node27</title>
<g id="a_Node000027"><a xlink:href="controle_8c.html#a6b11f55ddc2f9d1125c97a47e4a799f6" target="_top" xlink:title="Configura PWM dos pinos LED1 e LED2.">
<polygon fill="white" stroke="#666666" points="228.75,-95.75 156.5,-95.75 156.5,-75 228.75,-75 228.75,-95.75"/>
<text xml:space="preserve" text-anchor="middle" x="192.62" y="-82.25" font-family="Helvetica,sans-Serif" font-size="10.00">pwm_setup</text>
</a>
</g>
</g>
<!-- Node19&#45;&gt;Node27 -->
<g id="edge47_Node000019_Node000027" class="edge">
<title>Node19&#45;&gt;Node27</title>
<g id="a_edge47_Node000019_Node000027"><a xlink:title=" ">
<path fill="none" stroke="#63b8ff" d="M104.12,-181.55C112.54,-163.81 131.28,-128.25 155.75,-105.38 156.8,-104.39 157.92,-103.43 159.07,-102.51"/>
<polygon fill="#63b8ff" stroke="#63b8ff" points="160.95,-105.47 167.23,-96.94 157,-99.69 160.95,-105.47"/>
</a>
</g>
</g>
<!-- Node21&#45;&gt;Node9 -->
<g id="edge36_Node000021_Node000009" class="edge">
<title>Node21&#45;&gt;Node9</title>
<g id="a_edge36_Node000021_Node000009"><a xlink:title=" ">
<path fill="none" stroke="#63b8ff" d="M229.24,-152.56C269.93,-142.07 337.93,-130.31 392.5,-149.38 417.05,-157.95 439.64,-177.87 454.1,-192.83"/>
<polygon fill="#63b8ff" stroke="#63b8ff" points="451.23,-194.88 460.59,-199.83 456.36,-190.12 451.23,-194.88"/>
</a>
</g>
</g>
<!-- Node21&#45;&gt;Node11 -->
<g id="edge37_Node000021_Node000011" class="edge">
<title>Node21&#45;&gt;Node11</title>
<g id="a_edge37_Node000021_Node000011"><a xlink:title=" ">
<path fill="none" stroke="#63b8ff" d="M215.02,-152.62C229,-146.21 247.86,-138.69 265.5,-135.38 320.97,-124.95 337.4,-123.12 392.5,-135.38 450.82,-148.35 468.71,-153.69 514.25,-192.38 542.32,-216.22 564.31,-253.54 576.24,-276.67"/>
<polygon fill="#63b8ff" stroke="#63b8ff" points="573,-278.02 580.59,-285.41 579.27,-274.9 573,-278.02"/>
</a>
</g>
</g>
<!-- Node21&#45;&gt;Node16 -->
<g id="edge43_Node000021_Node000016" class="edge">
<title>Node21&#45;&gt;Node16</title>
<g id="a_edge43_Node000021_Node000016"><a xlink:title=" ">
<path fill="none" stroke="#63b8ff" d="M229.88,-168.21C271.46,-174.97 340.58,-189.99 392.5,-220.38 417.98,-235.28 441.19,-260.43 455.52,-277.91"/>
<polygon fill="#63b8ff" stroke="#63b8ff" points="452.62,-279.89 461.58,-285.54 458.1,-275.53 452.62,-279.89"/>
</a>
</g>
</g>
<!-- Node22 -->
<g id="Node000022" class="node">
<title>Node22</title>
<g id="a_Node000022"><a xlink:href="carrinho_2nrf24__avr_8c.html#a023289d1e49bf7f3b61e0e1c5312c8cf" target="_top" xlink:title=" ">
<polygon fill="white" stroke="#666666" points="377.12,-59.75 280.88,-59.75 280.88,-39 377.12,-39 377.12,-59.75"/>
<text xml:space="preserve" text-anchor="middle" x="329" y="-46.25" font-family="Helvetica,sans-Serif" font-size="10.00">nrf24_init_hwspi</text>
</a>
</g>
</g>
<!-- Node21&#45;&gt;Node22 -->
<g id="edge38_Node000021_Node000022" class="edge">
<title>Node21&#45;&gt;Node22</title>
<g id="a_edge38_Node000021_Node000022"><a xlink:title=" ">
<path fill="none" stroke="#63b8ff" d="M217.42,-152.73C221.78,-150.08 226.03,-146.96 229.5,-143.38 253.82,-118.23 239.46,-96.74 265.5,-73.38 268.86,-70.36 272.64,-67.71 276.63,-65.38"/>
<polygon fill="#63b8ff" stroke="#63b8ff" points="278.16,-68.53 285.53,-60.91 275.02,-62.27 278.16,-68.53"/>
</a>
</g>
</g>
<!-- Node24 -->
<g id="Node000024" class="node">
<title>Node24</title>
<g id="a_Node000024"><a xlink:href="carrinho_2nrf24__avr_8c.html#aaf2900e7932ebbf7f0ecdc6bce5840e1" target="_top" xlink:title=" ">
<polygon fill="white" stroke="#666666" points="389.5,-249.75 268.5,-249.75 268.5,-229 389.5,-229 389.5,-249.75"/>
<text xml:space="preserve" text-anchor="middle" x="329" y="-236.25" font-family="Helvetica,sans-Serif" font-size="10.00">nrf24_setPayloadSize</text>
</a>
</g>
</g>
<!-- Node21&#45;&gt;Node24 -->
<g id="edge40_Node000021_Node000024" class="edge">
<title>Node21&#45;&gt;Node24</title>
<g id="a_edge40_Node000021_Node000024"><a xlink:title=" ">
<path fill="none" stroke="#63b8ff" d="M212.59,-174.1C235.2,-186.89 273.21,-208.39 299.39,-223.19"/>
<polygon fill="#63b8ff" stroke="#63b8ff" points="297.38,-226.08 307.81,-227.96 300.83,-219.99 297.38,-226.08"/>
</a>
</g>
</g>
<!-- Node25 -->
<g id="Node000025" class="node">
<title>Node25</title>
<g id="a_Node000025"><a xlink:href="carrinho_2nrf24__avr_8c.html#aa3db4917fa58896ce0a8027a30795033" target="_top" xlink:title=" ">
<polygon fill="white" stroke="#666666" points="363.62,-20.75 294.38,-20.75 294.38,0 363.62,0 363.62,-20.75"/>
<text xml:space="preserve" text-anchor="middle" x="329" y="-7.25" font-family="Helvetica,sans-Serif" font-size="10.00">pinMode_d</text>
</a>
</g>
</g>
<!-- Node21&#45;&gt;Node25 -->
<g id="edge42_Node000021_Node000025" class="edge">
<title>Node21&#45;&gt;Node25</title>
<g id="a_edge42_Node000021_Node000025"><a xlink:title=" ">
<path fill="none" stroke="#63b8ff" d="M218.65,-152.7C222.69,-150.11 226.52,-147.02 229.5,-143.38 262.86,-102.57 228.25,-67.67 265.5,-30.38 270.52,-25.35 276.8,-21.59 283.43,-18.77"/>
<polygon fill="#63b8ff" stroke="#63b8ff" points="284.29,-22.17 292.58,-15.57 281.98,-15.56 284.29,-22.17"/>
</a>
</g>
</g>
<!-- Node23 -->
<g id="Node000023" class="node">
<title>Node23</title>
<g id="a_Node000023"><a xlink:href="carrinho_2nrf24__avr_8c.html#aa653f4dc3541758224a53eef3f04d490" target="_top" xlink:title=" ">
<polygon fill="white" stroke="#666666" points="497,-59.75 445.75,-59.75 445.75,-39 497,-39 497,-59.75"/>
<text xml:space="preserve" text-anchor="middle" x="471.38" y="-46.25" font-family="Helvetica,sans-Serif" font-size="10.00">spi_init</text>
</a>
</g>
</g>
<!-- Node22&#45;&gt;Node23 -->
<g id="edge39_Node000022_Node000023" class="edge">
<title>Node22&#45;&gt;Node23</title>
<g id="a_edge39_Node000022_Node000023"><a xlink:title=" ">
<path fill="none" stroke="#63b8ff" d="M377.52,-49.38C396.01,-49.38 416.84,-49.38 434.08,-49.38"/>
<polygon fill="#63b8ff" stroke="#63b8ff" points="433.86,-52.88 443.86,-49.38 433.86,-45.88 433.86,-52.88"/>
</a>
</g>
</g>
<!-- Node24&#45;&gt;Node16 -->
<g id="edge41_Node000024_Node000016" class="edge">
<title>Node24&#45;&gt;Node16</title>
<g id="a_edge41_Node000024_Node000016"><a xlink:title=" ">
<path fill="none" stroke="#63b8ff" d="M367,-250.24C375.46,-252.99 384.36,-256.11 392.5,-259.38 408.52,-265.81 425.82,-274.11 440.04,-281.31"/>
<polygon fill="#63b8ff" stroke="#63b8ff" points="438.4,-284.4 448.9,-285.86 441.6,-278.18 438.4,-284.4"/>
</a>
</g>
</g>
<!-- Node26&#45;&gt;Node16 -->
<g id="edge45_Node000026_Node000016" class="edge">
<title>Node26&#45;&gt;Node16</title>
<g id="a_edge45_Node000026_Node000016"><a xlink:title=" ">
<path fill="none" stroke="#63b8ff" d="M392.8,-286.87C405.04,-288.53 417.59,-290.23 428.93,-291.77"/>
<polygon fill="#63b8ff" stroke="#63b8ff" points="428.36,-295.22 438.74,-293.09 429.3,-288.28 428.36,-295.22"/>
</a>
</g>
</g>
</g>
</svg>
