<?xml version="1.0" encoding="UTF-8" standalone="no"?>
<!DOCTYPE svg PUBLIC "-//W3C//DTD SVG 1.1//EN"
 "http://www.w3.org/Graphics/SVG/1.1/DTD/svg11.dtd">
<!-- Generated by graphviz version 14.0.4 (0)
 -->
<!-- Title: arduino/controle_ino.ino Pages: 1 -->
<svg width="207pt" height="86pt"
 viewBox="0.00 0.00 207.00 86.00" xmlns="http://www.w3.org/2000/svg" xmlns:xlink="http://www.w3.org/1999/xlink">
<g id="graph0" class="graph" transform="scale(1 1) rotate(0) translate(4 81.5)">
<title>arduino/controle_ino.ino</title>
<!-- Node1 -->
<g id="Node000001" class="node">
<title>Node1</title>
<g id="a_Node000001"><a xlink:title=" ">
<polygon fill="#999999" stroke="#666666" points="161.88,-77.5 28.12,-77.5 28.12,-56.75 161.88,-56.75 161.88,-77.5"/>
<text xml:space="preserve" text-anchor="middle" x="95" y="-64" font-family="Helvetica,sans-Serif" font-size="10.00">arduino/controle_ino.ino</text>
</a>
</g>
</g>
<!-- Node2 -->
<g id="Node000002" class="node">
<title>Node2</title>
<g id="a_Node000002"><a xlink:title=" ">
<polygon fill="#e0e0e0" stroke="#999999" points="40,-20.75 0,-20.75 0,0 40,0 40,-20.75"/>
<text xml:space="preserve" text-anchor="middle" x="20" y="-7.25" font-family="Helvetica,sans-Serif" font-size="10.00">SPI.h</text>
</a>
</g>
</g>
<!-- Node1&#45;&gt;Node2 -->
<g id="edge1_Node000001_Node000002" class="edge">
<title>Node1&#45;&gt;Node2</title>
<g id="a_edge1_Node000001_Node000002"><a xlink:title=" ">
<path fill="none" stroke="#63b8ff" d="M81.59,-56.34C70.71,-48.4 55.14,-37.03 42.38,-27.71"/>
<polygon fill="#63b8ff" stroke="#63b8ff" points="44.66,-25.04 34.51,-21.97 40.53,-30.69 44.66,-25.04"/>
</a>
</g>
</g>
<!-- Node3 -->
<g id="Node000003" class="node">
<title>Node3</title>
<g id="a_Node000003"><a xlink:title=" ">
<polygon fill="#e0e0e0" stroke="#999999" points="131.5,-20.75 58.5,-20.75 58.5,0 131.5,0 131.5,-20.75"/>
<text xml:space="preserve" text-anchor="middle" x="95" y="-7.25" font-family="Helvetica,sans-Serif" font-size="10.00">nRF24L01.h</text>
</a>
</g>
</g>
<!-- Node1&#45;&gt;Node3 -->
<g id="edge2_Node000001_Node000003" class="edge">
<title>Node1&#45;&gt;Node3</title>
<g id="a_edge2_Node000001_Node000003"><a xlink:title=" ">
<path fill="none" stroke="#63b8ff" d="M95,-56.34C95,-49.72 95,-40.72 95,-32.52"/>
<polygon fill="#63b8ff" stroke="#63b8ff" points="98.5,-32.59 95,-22.59 91.5,-32.59 98.5,-32.59"/>
</a>
</g>
</g>
<!-- Node4 -->
<g id="Node000004" class="node">
<title>Node4</title>
<g id="a_Node000004"><a xlink:title=" ">
<polygon fill="#e0e0e0" stroke="#999999" points="198.88,-20.75 149.12,-20.75 149.12,0 198.88,0 198.88,-20.75"/>
<text xml:space="preserve" text-anchor="middle" x="174" y="-7.25" font-family="Helvetica,sans-Serif" font-size="10.00">RF24.h</text>
</a>
</g>
</g>
<!-- Node1&#45;&gt;Node4 -->
<g id="edge3_Node000001_Node000004" class="edge">
<title>Node1&#45;&gt;Node4</title>
<g id="a_edge3_Node000001_Node000004"><a xlink:title=" ">
<path fill="none" stroke="#63b8ff" d="M109.12,-56.34C120.69,-48.32 137.3,-36.81 150.82,-27.44"/>
<polygon fill="#63b8ff" stroke="#63b8ff" points="152.53,-30.51 158.75,-21.94 148.54,-24.76 152.53,-30.51"/>
</a>
</g>
</g>
</g>
</svg>
