<?xml version="1.0" encoding="UTF-8" standalone="no"?>
<!DOCTYPE svg PUBLIC "-//W3C//DTD SVG 1.1//EN"
 "http://www.w3.org/Graphics/SVG/1.1/DTD/svg11.dtd">
<!-- Generated by graphviz version 14.0.4 (0)
 -->
<!-- Title: nrf24_startListening Pages: 1 -->
<svg width="449pt" height="145pt"
 viewBox="0.00 0.00 449.00 145.00" xmlns="http://www.w3.org/2000/svg" xmlns:xlink="http://www.w3.org/1999/xlink">

<svg id="main" version="1.1" xmlns="http://www.w3.org/2000/svg" xmlns:xlink="http://www.w3.org/1999/xlink" xml:space="preserve">

<style type="text/css"><![CDATA[
.node, .edge {opacity: 0.7;}
.node.selected, .edge.selected {opacity: 1;}
.edge:hover path { stroke: red; }
.edge:hover polygon { stroke: red; fill: red; }
]]></style>
<script type="application/ecmascript" xlink:href="svg.min.js"/>
<svg id="graph" class="graph">
<g id="graph0" class="graph" transform="scale(1 1) rotate(0) translate(4 140.75)">
<title>nrf24_startListening</title>
<!-- Node1 -->
<g id="Node000001" class="node">
<title>Node1</title>
<g id="a_Node000001"><a xlink:title=" ">
<polygon fill="#999999" stroke="#666666" points="113.5,-59.75 0,-59.75 0,-39 113.5,-39 113.5,-59.75"/>
<text xml:space="preserve" text-anchor="middle" x="56.75" y="-46.25" font-family="Helvetica,sans-Serif" font-size="10.00">nrf24_startListening</text>
</a>
</g>
</g>
<!-- Node2 -->
<g id="Node000002" class="node">
<title>Node2</title>
<g id="a_Node000002"><a xlink:href="carrinho_2nrf24__avr_8c.html#a5336963072afb877d785bed84eb6b5f4" target="_top" xlink:title=" ">
<polygon fill="white" stroke="#666666" points="207.12,-20.75 153.62,-20.75 153.62,0 207.12,0 207.12,-20.75"/>
<text xml:space="preserve" text-anchor="middle" x="180.38" y="-7.25" font-family="Helvetica,sans-Serif" font-size="10.00">ce_high</text>
</a>
</g>
</g>
<!-- Node1&#45;&gt;Node2 -->
<g id="edge1_Node000001_Node000002" class="edge">
<title>Node1&#45;&gt;Node2</title>
<g id="a_edge1_Node000001_Node000002"><a xlink:title=" ">
<path fill="none" stroke="#63b8ff" d="M91.63,-38.51C107.51,-33.42 126.45,-27.35 142.67,-22.15"/>
<polygon fill="#63b8ff" stroke="#63b8ff" points="143.49,-25.56 151.95,-19.17 141.36,-18.89 143.49,-25.56"/>
</a>
</g>
</g>
<!-- Node4 -->
<g id="Node000004" class="node">
<title>Node4</title>
<g id="a_Node000004"><a xlink:href="carrinho_2nrf24__avr_8c.html#abefdb1d58b989853c0646a6c8b18b7d3" target="_top" xlink:title=" ">
<polygon fill="white" stroke="#666666" points="209.75,-98.75 151,-98.75 151,-78 209.75,-78 209.75,-98.75"/>
<text xml:space="preserve" text-anchor="middle" x="180.38" y="-85.25" font-family="Helvetica,sans-Serif" font-size="10.00">read_reg</text>
</a>
</g>
</g>
<!-- Node1&#45;&gt;Node4 -->
<g id="edge3_Node000001_Node000004" class="edge">
<title>Node1&#45;&gt;Node4</title>
<g id="a_edge3_Node000001_Node000004"><a xlink:title=" ">
<path fill="none" stroke="#63b8ff" d="M91.63,-60.24C106.56,-65.03 124.21,-70.69 139.75,-75.67"/>
<polygon fill="#63b8ff" stroke="#63b8ff" points="138.59,-78.97 149.18,-78.69 140.72,-72.31 138.59,-78.97"/>
</a>
</g>
</g>
<!-- Node8 -->
<g id="Node000008" class="node">
<title>Node8</title>
<g id="a_Node000008"><a xlink:href="carrinho_2nrf24__avr_8c.html#a08bc978021db604d02a6da754f73e7e2" target="_top" xlink:title=" ">
<polygon fill="white" stroke="#666666" points="211.25,-59.75 149.5,-59.75 149.5,-39 211.25,-39 211.25,-59.75"/>
<text xml:space="preserve" text-anchor="middle" x="180.38" y="-46.25" font-family="Helvetica,sans-Serif" font-size="10.00">write_reg</text>
</a>
</g>
</g>
<!-- Node1&#45;&gt;Node8 -->
<g id="edge9_Node000001_Node000008" class="edge">
<title>Node1&#45;&gt;Node8</title>
<g id="a_edge9_Node000001_Node000008"><a xlink:title=" ">
<path fill="none" stroke="#63b8ff" d="M113.93,-49.38C122.04,-49.38 130.25,-49.38 137.99,-49.38"/>
<polygon fill="#63b8ff" stroke="#63b8ff" points="137.79,-52.88 147.79,-49.38 137.79,-45.88 137.79,-52.88"/>
</a>
</g>
</g>
<!-- Node3 -->
<g id="Node000003" class="node">
<title>Node3</title>
<g id="a_Node000003"><a xlink:href="carrinho_2nrf24__avr_8c.html#a019970fc17b6b18fa4e45e0baf22c93f" target="_top" xlink:title=" ">
<polygon fill="white" stroke="#666666" points="441.25,-58.75 357,-58.75 357,-38 441.25,-38 441.25,-58.75"/>
<text xml:space="preserve" text-anchor="middle" x="399.12" y="-45.25" font-family="Helvetica,sans-Serif" font-size="10.00">digitalWrite_d</text>
</a>
</g>
</g>
<!-- Node2&#45;&gt;Node3 -->
<g id="edge2_Node000002_Node000003" class="edge">
<title>Node2&#45;&gt;Node3</title>
<g id="a_edge2_Node000002_Node000003"><a xlink:title=" ">
<path fill="none" stroke="#63b8ff" d="M207.5,-13.09C235.65,-16.21 281.71,-21.88 321,-29.38 329.29,-30.96 338.02,-32.87 346.51,-34.86"/>
<polygon fill="#63b8ff" stroke="#63b8ff" points="345.46,-38.21 356,-37.15 347.1,-31.4 345.46,-38.21"/>
</a>
</g>
</g>
<!-- Node5 -->
<g id="Node000005" class="node">
<title>Node5</title>
<g id="a_Node000005"><a xlink:href="carrinho_2nrf24__avr_8c.html#adaef88bc02a8e805de3b3a82bf317549" target="_top" xlink:title=" ">
<polygon fill="white" stroke="#666666" points="313.5,-58.75 254.75,-58.75 254.75,-38 313.5,-38 313.5,-58.75"/>
<text xml:space="preserve" text-anchor="middle" x="284.12" y="-45.25" font-family="Helvetica,sans-Serif" font-size="10.00">csn_high</text>
</a>
</g>
</g>
<!-- Node4&#45;&gt;Node5 -->
<g id="edge4_Node000004_Node000005" class="edge">
<title>Node4&#45;&gt;Node5</title>
<g id="a_edge4_Node000004_Node000005"><a xlink:title=" ">
<path fill="none" stroke="#63b8ff" d="M208.91,-77.55C219.99,-73.19 232.97,-68.09 244.94,-63.39"/>
<polygon fill="#63b8ff" stroke="#63b8ff" points="246.13,-66.68 254.16,-59.76 243.57,-60.16 246.13,-66.68"/>
</a>
</g>
</g>
<!-- Node6 -->
<g id="Node000006" class="node">
<title>Node6</title>
<g id="a_Node000006"><a xlink:href="carrinho_2nrf24__avr_8c.html#a42f8c1120431b7c37e116a4e1eac1cc2" target="_top" xlink:title=" ">
<polygon fill="white" stroke="#666666" points="311.62,-97.75 256.62,-97.75 256.62,-77 311.62,-77 311.62,-97.75"/>
<text xml:space="preserve" text-anchor="middle" x="284.12" y="-84.25" font-family="Helvetica,sans-Serif" font-size="10.00">csn_low</text>
</a>
</g>
</g>
<!-- Node4&#45;&gt;Node6 -->
<g id="edge6_Node000004_Node000006" class="edge">
<title>Node4&#45;&gt;Node6</title>
<g id="a_edge6_Node000004_Node000006"><a xlink:title=" ">
<path fill="none" stroke="#63b8ff" d="M209.99,-88.09C220.92,-87.99 233.56,-87.86 245.23,-87.75"/>
<polygon fill="#63b8ff" stroke="#63b8ff" points="244.99,-91.25 254.96,-87.65 244.92,-84.25 244.99,-91.25"/>
</a>
</g>
</g>
<!-- Node7 -->
<g id="Node000007" class="node">
<title>Node7</title>
<g id="a_Node000007"><a xlink:href="carrinho_2nrf24__avr_8c.html#a8d161d483c095113df5b69798e9cd725" target="_top" xlink:title=" ">
<polygon fill="white" stroke="#666666" points="321,-136.75 247.25,-136.75 247.25,-116 321,-116 321,-136.75"/>
<text xml:space="preserve" text-anchor="middle" x="284.12" y="-123.25" font-family="Helvetica,sans-Serif" font-size="10.00">spi_transfer</text>
</a>
</g>
</g>
<!-- Node4&#45;&gt;Node7 -->
<g id="edge8_Node000004_Node000007" class="edge">
<title>Node4&#45;&gt;Node7</title>
<g id="a_edge8_Node000004_Node000007"><a xlink:title=" ">
<path fill="none" stroke="#63b8ff" d="M209.99,-99.06C220.3,-102.91 232.14,-107.33 243.24,-111.48"/>
<polygon fill="#63b8ff" stroke="#63b8ff" points="242.01,-114.76 252.6,-114.98 244.46,-108.2 242.01,-114.76"/>
</a>
</g>
</g>
<!-- Node5&#45;&gt;Node3 -->
<g id="edge5_Node000005_Node000003" class="edge">
<title>Node5&#45;&gt;Node3</title>
<g id="a_edge5_Node000005_Node000003"><a xlink:title=" ">
<path fill="none" stroke="#63b8ff" d="M313.93,-48.38C323.44,-48.38 334.34,-48.38 345.07,-48.38"/>
<polygon fill="#63b8ff" stroke="#63b8ff" points="345.06,-51.88 355.06,-48.38 345.06,-44.88 345.06,-51.88"/>
</a>
</g>
</g>
<!-- Node6&#45;&gt;Node3 -->
<g id="edge7_Node000006_Node000003" class="edge">
<title>Node6&#45;&gt;Node3</title>
<g id="a_edge7_Node000006_Node000003"><a xlink:title=" ">
<path fill="none" stroke="#63b8ff" d="M311.9,-78.13C325.14,-73.56 341.41,-67.95 356.25,-62.83"/>
<polygon fill="#63b8ff" stroke="#63b8ff" points="356.99,-66.28 365.3,-59.7 354.7,-59.66 356.99,-66.28"/>
</a>
</g>
</g>
<!-- Node8&#45;&gt;Node5 -->
<g id="edge10_Node000008_Node000005" class="edge">
<title>Node8&#45;&gt;Node5</title>
<g id="a_edge10_Node000008_Node000005"><a xlink:title=" ">
<path fill="none" stroke="#63b8ff" d="M211.63,-49.08C221.5,-48.98 232.62,-48.87 243.1,-48.77"/>
<polygon fill="#63b8ff" stroke="#63b8ff" points="243.08,-52.27 253.04,-48.67 243.01,-45.27 243.08,-52.27"/>
</a>
</g>
</g>
<!-- Node8&#45;&gt;Node6 -->
<g id="edge11_Node000008_Node000006" class="edge">
<title>Node8&#45;&gt;Node6</title>
<g id="a_edge11_Node000008_Node000006"><a xlink:title=" ">
<path fill="none" stroke="#63b8ff" d="M210.26,-60.16C221.21,-64.25 233.85,-68.97 245.49,-73.32"/>
<polygon fill="#63b8ff" stroke="#63b8ff" points="244.25,-76.59 254.84,-76.81 246.7,-70.04 244.25,-76.59"/>
</a>
</g>
</g>
<!-- Node8&#45;&gt;Node7 -->
<g id="edge12_Node000008_Node000007" class="edge">
<title>Node8&#45;&gt;Node7</title>
<g id="a_edge12_Node000008_Node000007"><a xlink:title=" ">
<path fill="none" stroke="#63b8ff" d="M198.88,-60.2C203.06,-63.03 207.41,-66.18 211.25,-69.38 228.88,-84.06 229.04,-92.42 247.25,-106.38 248.73,-107.51 250.28,-108.62 251.87,-109.7"/>
<polygon fill="#63b8ff" stroke="#63b8ff" points="249.61,-112.41 259.95,-114.71 253.3,-106.46 249.61,-112.41"/>
</a>
</g>
</g>
</g>
</svg>
</svg>

<style type='text/css'>
<![CDATA[
[data-mouse-over-selected='false'] { opacity: 0.7; }
[data-mouse-over-selected='true']  { opacity: 1.0; }
]]>
</style>
<script type="application/ecmascript"><![CDATA[
document.addEventListener('DOMContentLoaded', (event) => {
  highlightEdges();
  highlightAdjacentNodes();
});
]]></script>
</svg>
