<?xml version="1.0" encoding="UTF-8" standalone="no"?>
<!DOCTYPE svg PUBLIC "-//W3C//DTD SVG 1.1//EN"
 "http://www.w3.org/Graphics/SVG/1.1/DTD/svg11.dtd">
<!-- Generated by graphviz version 14.0.4 (0)
 -->
<!-- Title: controle_ino/controle_ino.ino Pages: 1 -->
<svg width="207pt" height="98pt"
 viewBox="0.00 0.00 207.00 98.00" xmlns="http://www.w3.org/2000/svg" xmlns:xlink="http://www.w3.org/1999/xlink">

<svg id="main" version="1.1" xmlns="http://www.w3.org/2000/svg" xmlns:xlink="http://www.w3.org/1999/xlink" xml:space="preserve">

<style type="text/css"><![CDATA[
.node, .edge {opacity: 0.7;}
.node.selected, .edge.selected {opacity: 1;}
.edge:hover path { stroke: red; }
.edge:hover polygon { stroke: red; fill: red; }
]]></style>
<script type="application/ecmascript" xlink:href="svg.min.js"/>
<svg id="graph" class="graph">
<g id="graph0" class="graph" transform="scale(1 1) rotate(0) translate(4 94.25)">
<title>controle_ino/controle_ino.ino</title>
<!-- Node1 -->
<g id="Node000001" class="node">
<title>Node1</title>
<g id="a_Node000001"><a xlink:title=" ">
<polygon fill="#999999" stroke="#666666" points="154.38,-90.25 35.62,-90.25 35.62,-56.75 154.38,-56.75 154.38,-90.25"/>
<text xml:space="preserve" text-anchor="start" x="43.62" y="-76.75" font-family="Helvetica,sans-Serif" font-size="10.00">controle_ino/controle</text>
<text xml:space="preserve" text-anchor="middle" x="95" y="-64" font-family="Helvetica,sans-Serif" font-size="10.00">_ino.ino</text>
</a>
</g>
</g>
<!-- Node2 -->
<g id="Node000002" class="node">
<title>Node2</title>
<g id="a_Node000002"><a xlink:title=" ">
<polygon fill="#e0e0e0" stroke="#999999" points="40,-20.75 0,-20.75 0,0 40,0 40,-20.75"/>
<text xml:space="preserve" text-anchor="middle" x="20" y="-7.25" font-family="Helvetica,sans-Serif" font-size="10.00">SPI.h</text>
</a>
</g>
</g>
<!-- Node1&#45;&gt;Node2 -->
<g id="edge1_Node000001_Node000002" class="edge">
<title>Node1&#45;&gt;Node2</title>
<g id="a_edge1_Node000001_Node000002"><a xlink:title=" ">
<path fill="none" stroke="#63b8ff" d="M75.29,-56.44C64.69,-47.8 51.61,-37.13 40.83,-28.35"/>
<polygon fill="#63b8ff" stroke="#63b8ff" points="43.21,-25.78 33.25,-22.17 38.79,-31.2 43.21,-25.78"/>
</a>
</g>
</g>
<!-- Node3 -->
<g id="Node000003" class="node">
<title>Node3</title>
<g id="a_Node000003"><a xlink:title=" ">
<polygon fill="#e0e0e0" stroke="#999999" points="131.5,-20.75 58.5,-20.75 58.5,0 131.5,0 131.5,-20.75"/>
<text xml:space="preserve" text-anchor="middle" x="95" y="-7.25" font-family="Helvetica,sans-Serif" font-size="10.00">nRF24L01.h</text>
</a>
</g>
</g>
<!-- Node1&#45;&gt;Node3 -->
<g id="edge2_Node000001_Node000003" class="edge">
<title>Node1&#45;&gt;Node3</title>
<g id="a_edge2_Node000001_Node000003"><a xlink:title=" ">
<path fill="none" stroke="#63b8ff" d="M95,-56.44C95,-49.1 95,-40.32 95,-32.46"/>
<polygon fill="#63b8ff" stroke="#63b8ff" points="98.5,-32.73 95,-22.73 91.5,-32.73 98.5,-32.73"/>
</a>
</g>
</g>
<!-- Node4 -->
<g id="Node000004" class="node">
<title>Node4</title>
<g id="a_Node000004"><a xlink:title=" ">
<polygon fill="#e0e0e0" stroke="#999999" points="198.88,-20.75 149.12,-20.75 149.12,0 198.88,0 198.88,-20.75"/>
<text xml:space="preserve" text-anchor="middle" x="174" y="-7.25" font-family="Helvetica,sans-Serif" font-size="10.00">RF24.h</text>
</a>
</g>
</g>
<!-- Node1&#45;&gt;Node4 -->
<g id="edge3_Node000001_Node000004" class="edge">
<title>Node1&#45;&gt;Node4</title>
<g id="a_edge3_Node000001_Node000004"><a xlink:title=" ">
<path fill="none" stroke="#63b8ff" d="M115.76,-56.44C127.04,-47.71 140.99,-36.92 152.4,-28.09"/>
<polygon fill="#63b8ff" stroke="#63b8ff" points="154.32,-31.03 160.08,-22.14 150.03,-25.49 154.32,-31.03"/>
</a>
</g>
</g>
</g>
</svg>
</svg>

<style type='text/css'>
<![CDATA[
[data-mouse-over-selected='false'] { opacity: 0.7; }
[data-mouse-over-selected='true']  { opacity: 1.0; }
]]>
</style>
<script type="application/ecmascript"><![CDATA[
document.addEventListener('DOMContentLoaded', (event) => {
  highlightEdges();
  highlightAdjacentNodes();
});
]]></script>
</svg>
