<?xml version="1.0" encoding="UTF-8" standalone="no"?>
<!DOCTYPE svg PUBLIC "-//W3C//DTD SVG 1.1//EN"
 "http://www.w3.org/Graphics/SVG/1.1/DTD/svg11.dtd">
<!-- Generated by graphviz version 14.0.4 (0)
 -->
<!-- Title: nrf24_available Pages: 1 -->
<svg width="253pt" height="68pt"
 viewBox="0.00 0.00 253.00 68.00" xmlns="http://www.w3.org/2000/svg" xmlns:xlink="http://www.w3.org/1999/xlink">
<g id="graph0" class="graph" transform="scale(1 1) rotate(0) translate(4 63.75)">
<title>nrf24_available</title>
<!-- Node1 -->
<g id="Node000001" class="node">
<title>Node1</title>
<g id="a_Node000001"><a xlink:title=" ">
<polygon fill="#999999" stroke="#666666" points="245.25,-39.75 153.5,-39.75 153.5,-19 245.25,-19 245.25,-39.75"/>
<text xml:space="preserve" text-anchor="middle" x="199.38" y="-26.25" font-family="Helvetica,sans-Serif" font-size="10.00">nrf24_available</text>
</a>
</g>
</g>
<!-- Node2 -->
<g id="Node000002" class="node">
<title>Node2</title>
<g id="a_Node000002"><a xlink:href="carrinho_8c.html#afe461d27b9c48d5921c00d521181f12f" target="_top" xlink:title="Laço principal contendo toda a lógica do robô.">
<polygon fill="white" stroke="#666666" points="115.62,-59.75 78.62,-59.75 78.62,-39 115.62,-39 115.62,-59.75"/>
<text xml:space="preserve" text-anchor="middle" x="97.12" y="-46.25" font-family="Helvetica,sans-Serif" font-size="10.00">loop</text>
</a>
</g>
</g>
<!-- Node1&#45;&gt;Node2 -->
<g id="edge1_Node000001_Node000002" class="edge">
<title>Node1&#45;&gt;Node2</title>
<g id="a_edge1_Node000001_Node000002"><a xlink:title=" ">
<path fill="none" stroke="#63b8ff" d="M141.98,-40.63C132.44,-42.53 123.21,-44.37 115.7,-45.87"/>
<polygon fill="#63b8ff" stroke="#63b8ff" points="142.63,-44.07 151.75,-38.68 141.26,-37.2 142.63,-44.07"/>
</a>
</g>
</g>
<!-- Node4 -->
<g id="Node000004" class="node">
<title>Node4</title>
<g id="a_Node000004"><a xlink:href="main_8c.html#a840291bc02cba5474a4cb46a9b9566fe" target="_top" xlink:title=" ">
<polygon fill="white" stroke="#666666" points="117.5,-20.75 76.75,-20.75 76.75,0 117.5,0 117.5,-20.75"/>
<text xml:space="preserve" text-anchor="middle" x="97.12" y="-7.25" font-family="Helvetica,sans-Serif" font-size="10.00">main</text>
</a>
</g>
</g>
<!-- Node1&#45;&gt;Node4 -->
<g id="edge3_Node000001_Node000004" class="edge">
<title>Node1&#45;&gt;Node4</title>
<g id="a_edge3_Node000001_Node000004"><a xlink:title=" ">
<path fill="none" stroke="#63b8ff" d="M142.19,-18.73C133.51,-17.08 125.08,-15.48 117.95,-14.13"/>
<polygon fill="#63b8ff" stroke="#63b8ff" points="141.27,-22.11 151.75,-20.54 142.58,-15.24 141.27,-22.11"/>
</a>
</g>
</g>
<!-- Node3 -->
<g id="Node000003" class="node">
<title>Node3</title>
<g id="a_Node000003"><a xlink:href="carrinho_8c.html#ae66f6b31b5ad750f1fe042a706a4e3d4" target="_top" xlink:title="Função principal: inicializa periféricos e roda loop().">
<polygon fill="white" stroke="#666666" points="40.75,-59.75 0,-59.75 0,-39 40.75,-39 40.75,-59.75"/>
<text xml:space="preserve" text-anchor="middle" x="20.38" y="-46.25" font-family="Helvetica,sans-Serif" font-size="10.00">main</text>
</a>
</g>
</g>
<!-- Node2&#45;&gt;Node3 -->
<g id="edge2_Node000002_Node000003" class="edge">
<title>Node2&#45;&gt;Node3</title>
<g id="a_edge2_Node000002_Node000003"><a xlink:title=" ">
<path fill="none" stroke="#63b8ff" d="M67.11,-49.38C58.39,-49.38 49.03,-49.38 41.07,-49.38"/>
<polygon fill="#63b8ff" stroke="#63b8ff" points="66.9,-52.88 76.9,-49.38 66.9,-45.88 66.9,-52.88"/>
</a>
</g>
</g>
</g>
</svg>
