<?xml version="1.0" encoding="UTF-8" standalone="no"?>
<!DOCTYPE svg PUBLIC "-//W3C//DTD SVG 1.1//EN"
 "http://www.w3.org/Graphics/SVG/1.1/DTD/svg11.dtd">
<!-- Generated by graphviz version 14.0.4 (0)
 -->
<!-- Title: setup Pages: 1 -->
<!--zoomable 283 -->

<svg id="main" version="1.1" xmlns="http://www.w3.org/2000/svg" xmlns:xlink="http://www.w3.org/1999/xlink" xml:space="preserve" onload="init(evt)">

<style type="text/css"><![CDATA[
.node, .edge {opacity: 0.7;}
.node.selected, .edge.selected {opacity: 1;}
.edge:hover path { stroke: red; }
.edge:hover polygon { stroke: red; fill: red; }
]]></style>

<defs>
  <circle id="rim" cx="0" cy="0" r="7"/>
  <circle id="rim2" cx="0" cy="0" r="3.5"/>
  <g id="zoomPlus">
    <use xlink:href="#rim" fill="#404040"><set attributeName="fill" to="#808080" begin="zoomplus.mouseover" end="zoomplus.mouseout"/></use>
    <path d="M-4,0h8M0,-4v8" fill="none" stroke="white" stroke-width="1.5" pointer-events="none"/>
  </g>
  <g id="zoomMin">
    <use xlink:href="#rim" fill="#404040"><set attributeName="fill" to="#808080" begin="zoomminus.mouseover" end="zoomminus.mouseout"/></use>
    <path d="M-4,0h8" fill="none" stroke="white" stroke-width="1.5" pointer-events="none"/>
  </g>
  <g id="arrowUp" transform="translate(30 24)">
    <use xlink:href="#rim"/>
    <path pointer-events="none" fill="none" stroke="white" stroke-width="1.5" d="M0,-3.0v7 M-2.5,-0.5L0,-3.0L2.5,-0.5"/>
  </g>
  <g id="arrowRight" transform="rotate(90) translate(36 -43)">
    <use xlink:href="#rim"/>
    <path pointer-events="none" fill="none" stroke="white" stroke-width="1.5" d="M0,-3.0v7 M-2.5,-0.5L0,-3.0L2.5,-0.5"/>
  </g>
  <g id="arrowDown" transform="rotate(180) translate(-30 -48)">
    <use xlink:href="#rim"/>
    <path pointer-events="none" fill="none" stroke="white" stroke-width="1.5" d="M0,-3.0v7 M-2.5,-0.5L0,-3.0L2.5,-0.5"/>
  </g>
  <g id="arrowLeft" transform="rotate(270) translate(-36 17)">
    <use xlink:href="#rim"/>
    <path pointer-events="none" fill="none" stroke="white" stroke-width="1.5" d="M0,-3.0v7 M-2.5,-0.5L0,-3.0L2.5,-0.5"/>
  </g>
  <g id="resetDef">
    <use xlink:href="#rim2" fill="#404040"><set attributeName="fill" to="#808080" begin="reset.mouseover" end="reset.mouseout"/></use>
  </g>
</defs>
<script type="application/ecmascript">
var viewWidth = 699;
var viewHeight = 283;
var sectionId = 'dynsection-1';
</script>
<script type="application/ecmascript" xlink:href="svg.min.js"/>
<svg id="graph" class="graph">
<g id="viewport">
<title>setup</title>
<!-- Node1 -->
<g id="Node000001" class="node">
<title>Node1</title>
<g id="a_Node000001"><a xlink:title=" ">
<polygon fill="#999999" stroke="#666666" points="43,-154.66 0,-154.66 0,-133.91 43,-133.91 43,-154.66"/>
<text xml:space="preserve" text-anchor="middle" x="21.5" y="-141.16" font-family="Helvetica,sans-Serif" font-size="10.00">setup</text>
</a>
</g>
</g>
<!-- Node2 -->
<g id="Node000002" class="node">
<title>Node2</title>
<g id="a_Node000002"><a xlink:href="carrinho_2nrf24__avr_8c.html#ab6fb4c1aa834152310116e7dec65d8e3" target="_top" xlink:title=" ">
<polygon fill="white" stroke="#666666" points="179.38,-135.66 105.62,-135.66 105.62,-114.91 179.38,-114.91 179.38,-135.66"/>
<text xml:space="preserve" text-anchor="middle" x="142.5" y="-122.16" font-family="Helvetica,sans-Serif" font-size="10.00">nrf24_begin</text>
</a>
</g>
</g>
<!-- Node1&#45;&gt;Node2 -->
<g id="edge1_Node000001_Node000002" class="edge">
<title>Node1&#45;&gt;Node2</title>
<g id="a_edge1_Node000001_Node000002"><a xlink:title=" ">
<path fill="none" stroke="#63b8ff" d="M43.23,-140.98C57.21,-138.75 76.26,-135.71 93.86,-132.9"/>
<polygon fill="#63b8ff" stroke="#63b8ff" points="94.33,-136.37 103.65,-131.33 93.23,-129.45 94.33,-136.37"/>
</a>
</g>
</g>
<!-- Node13 -->
<g id="Node000013" class="node">
<title>Node13</title>
<g id="a_Node000013"><a xlink:href="carrinho_2nrf24__avr_8c.html#a21d638882f746748de35324bdc21f448" target="_top" xlink:title=" ">
<polygon fill="white" stroke="#666666" points="206,-58.66 79,-58.66 79,-37.91 206,-37.91 206,-58.66"/>
<text xml:space="preserve" text-anchor="middle" x="142.5" y="-45.16" font-family="Helvetica,sans-Serif" font-size="10.00">nrf24_openWritingPipe</text>
</a>
</g>
</g>
<!-- Node1&#45;&gt;Node13 -->
<g id="edge16_Node000001_Node000013" class="edge">
<title>Node1&#45;&gt;Node13</title>
<g id="a_edge16_Node000001_Node000013"><a xlink:title=" ">
<path fill="none" stroke="#63b8ff" d="M35.69,-133.65C55.97,-117.29 95.05,-85.77 119.61,-65.95"/>
<polygon fill="#63b8ff" stroke="#63b8ff" points="121.49,-68.93 127.07,-59.93 117.09,-63.48 121.49,-68.93"/>
</a>
</g>
</g>
<!-- Node14 -->
<g id="Node000014" class="node">
<title>Node14</title>
<g id="a_Node000014"><a xlink:href="carrinho_2nrf24__avr_8c.html#a49aa88b1042d6d62114cfbca271d9e2b" target="_top" xlink:title=" ">
<polygon fill="white" stroke="#666666" points="193.25,-192.66 91.75,-192.66 91.75,-171.91 193.25,-171.91 193.25,-192.66"/>
<text xml:space="preserve" text-anchor="middle" x="142.5" y="-179.16" font-family="Helvetica,sans-Serif" font-size="10.00">nrf24_setChannel</text>
</a>
</g>
</g>
<!-- Node1&#45;&gt;Node14 -->
<g id="edge18_Node000001_Node000014" class="edge">
<title>Node1&#45;&gt;Node14</title>
<g id="a_edge18_Node000001_Node000014"><a xlink:title=" ">
<path fill="none" stroke="#63b8ff" d="M43.23,-150.91C57.97,-155.61 78.33,-162.12 96.69,-167.98"/>
<polygon fill="#63b8ff" stroke="#63b8ff" points="95.48,-171.27 106.07,-170.97 97.61,-164.6 95.48,-171.27"/>
</a>
</g>
</g>
<!-- Node15 -->
<g id="Node000015" class="node">
<title>Node15</title>
<g id="a_Node000015"><a xlink:href="carrinho_2nrf24__avr_8c.html#a33899bc3c0f4d2293f37c306d0b8e297" target="_top" xlink:title=" ">
<polygon fill="white" stroke="#666666" points="358.5,-249.66 246.5,-249.66 246.5,-228.91 358.5,-228.91 358.5,-249.66"/>
<text xml:space="preserve" text-anchor="middle" x="302.5" y="-236.16" font-family="Helvetica,sans-Serif" font-size="10.00">nrf24_stopListening</text>
</a>
</g>
</g>
<!-- Node1&#45;&gt;Node15 -->
<g id="edge20_Node000001_Node000015" class="edge">
<title>Node1&#45;&gt;Node15</title>
<g id="a_edge20_Node000001_Node000015"><a xlink:title=" ">
<path fill="none" stroke="#63b8ff" d="M29.89,-155.1C39.54,-168.3 57.74,-190.23 79,-201.29 127.4,-226.45 188.95,-235.49 235.04,-238.49"/>
<polygon fill="#63b8ff" stroke="#63b8ff" points="234.72,-241.98 244.9,-239.05 235.11,-234.99 234.72,-241.98"/>
</a>
</g>
</g>
<!-- Node3 -->
<g id="Node000003" class="node">
<title>Node3</title>
<g id="a_Node000003"><a xlink:href="carrinho_2nrf24__avr_8c.html#a77c5f7c57c01266d04faea3052a47f49" target="_top" xlink:title=" ">
<polygon fill="white" stroke="#666666" points="454.75,-249.66 405,-249.66 405,-228.91 454.75,-228.91 454.75,-249.66"/>
<text xml:space="preserve" text-anchor="middle" x="429.88" y="-236.16" font-family="Helvetica,sans-Serif" font-size="10.00">ce_low</text>
</a>
</g>
</g>
<!-- Node2&#45;&gt;Node3 -->
<g id="edge2_Node000002_Node000003" class="edge">
<title>Node2&#45;&gt;Node3</title>
<g id="a_edge2_Node000002_Node000003"><a xlink:title=" ">
<path fill="none" stroke="#63b8ff" d="M169.43,-136.15C181.92,-142.49 196.26,-151.57 206,-163.29 234.86,-198.02 204.84,-232.64 242,-258.29 287.99,-290.05 356.16,-270.77 396.2,-254.55"/>
<polygon fill="#63b8ff" stroke="#63b8ff" points="397.47,-257.82 405.31,-250.69 394.74,-251.37 397.47,-257.82"/>
</a>
</g>
</g>
<!-- Node5 -->
<g id="Node000005" class="node">
<title>Node5</title>
<g id="a_Node000005"><a xlink:href="carrinho_2nrf24__avr_8c.html#adaef88bc02a8e805de3b3a82bf317549" target="_top" xlink:title=" ">
<polygon fill="white" stroke="#666666" points="563,-119.66 504.25,-119.66 504.25,-98.91 563,-98.91 563,-119.66"/>
<text xml:space="preserve" text-anchor="middle" x="533.62" y="-106.16" font-family="Helvetica,sans-Serif" font-size="10.00">csn_high</text>
</a>
</g>
</g>
<!-- Node2&#45;&gt;Node5 -->
<g id="edge4_Node000002_Node000005" class="edge">
<title>Node2&#45;&gt;Node5</title>
<g id="a_edge4_Node000002_Node000005"><a xlink:title=" ">
<path fill="none" stroke="#63b8ff" d="M155.23,-114.82C167.95,-103.37 188.75,-84.37 206,-67.29 222.54,-50.92 220.63,-38.48 242,-29.29 331.31,9.13 371.95,10.3 460.75,-29.29 487.94,-41.41 509.15,-69.48 521.27,-88.92"/>
<polygon fill="#63b8ff" stroke="#63b8ff" points="518.17,-90.55 526.28,-97.37 524.2,-86.98 518.17,-90.55"/>
</a>
</g>
</g>
<!-- Node6 -->
<g id="Node000006" class="node">
<title>Node6</title>
<g id="a_Node000006"><a xlink:href="carrinho_2nrf24__avr_8c.html#a023289d1e49bf7f3b61e0e1c5312c8cf" target="_top" xlink:title=" ">
<polygon fill="white" stroke="#666666" points="350.62,-58.66 254.38,-58.66 254.38,-37.91 350.62,-37.91 350.62,-58.66"/>
<text xml:space="preserve" text-anchor="middle" x="302.5" y="-45.16" font-family="Helvetica,sans-Serif" font-size="10.00">nrf24_init_hwspi</text>
</a>
</g>
</g>
<!-- Node2&#45;&gt;Node6 -->
<g id="edge6_Node000002_Node000006" class="edge">
<title>Node2&#45;&gt;Node6</title>
<g id="a_edge6_Node000002_Node000006"><a xlink:title=" ">
<path fill="none" stroke="#63b8ff" d="M159.69,-114.56C178.78,-102.23 211.75,-81.96 242,-68.29 246.07,-66.45 250.37,-64.68 254.71,-63.02"/>
<polygon fill="#63b8ff" stroke="#63b8ff" points="255.87,-66.32 264.08,-59.62 253.48,-59.74 255.87,-66.32"/>
</a>
</g>
</g>
<!-- Node8 -->
<g id="Node000008" class="node">
<title>Node8</title>
<g id="a_Node000008"><a xlink:href="carrinho_2nrf24__avr_8c.html#aaf2900e7932ebbf7f0ecdc6bce5840e1" target="_top" xlink:title=" ">
<polygon fill="white" stroke="#666666" points="363,-97.66 242,-97.66 242,-76.91 363,-76.91 363,-97.66"/>
<text xml:space="preserve" text-anchor="middle" x="302.5" y="-84.16" font-family="Helvetica,sans-Serif" font-size="10.00">nrf24_setPayloadSize</text>
</a>
</g>
</g>
<!-- Node2&#45;&gt;Node8 -->
<g id="edge8_Node000002_Node000008" class="edge">
<title>Node2&#45;&gt;Node8</title>
<g id="a_edge8_Node000002_Node000008"><a xlink:title=" ">
<path fill="none" stroke="#63b8ff" d="M179.75,-116.57C199.14,-111.91 223.46,-106.06 245.25,-100.82"/>
<polygon fill="#63b8ff" stroke="#63b8ff" points="246,-104.24 254.91,-98.5 244.36,-97.43 246,-104.24"/>
</a>
</g>
</g>
<!-- Node9 -->
<g id="Node000009" class="node">
<title>Node9</title>
<g id="a_Node000009"><a xlink:href="carrinho_2nrf24__avr_8c.html#a08bc978021db604d02a6da754f73e7e2" target="_top" xlink:title=" ">
<polygon fill="white" stroke="#666666" points="460.75,-144.66 399,-144.66 399,-123.91 460.75,-123.91 460.75,-144.66"/>
<text xml:space="preserve" text-anchor="middle" x="429.88" y="-131.16" font-family="Helvetica,sans-Serif" font-size="10.00">write_reg</text>
</a>
</g>
</g>
<!-- Node2&#45;&gt;Node9 -->
<g id="edge15_Node000002_Node000009" class="edge">
<title>Node2&#45;&gt;Node9</title>
<g id="a_edge15_Node000002_Node000009"><a xlink:title=" ">
<path fill="none" stroke="#63b8ff" d="M179.64,-126.43C232.71,-128.1 331.46,-131.22 387.41,-132.98"/>
<polygon fill="#63b8ff" stroke="#63b8ff" points="387.05,-136.47 397.15,-133.29 387.27,-129.48 387.05,-136.47"/>
</a>
</g>
</g>
<!-- Node12 -->
<g id="Node000012" class="node">
<title>Node12</title>
<g id="a_Node000012"><a xlink:href="carrinho_2nrf24__avr_8c.html#aa3db4917fa58896ce0a8027a30795033" target="_top" xlink:title=" ">
<polygon fill="white" stroke="#666666" points="337.12,-173.66 267.88,-173.66 267.88,-152.91 337.12,-152.91 337.12,-173.66"/>
<text xml:space="preserve" text-anchor="middle" x="302.5" y="-160.16" font-family="Helvetica,sans-Serif" font-size="10.00">pinMode_d</text>
</a>
</g>
</g>
<!-- Node2&#45;&gt;Node12 -->
<g id="edge14_Node000002_Node000012" class="edge">
<title>Node2&#45;&gt;Node12</title>
<g id="a_edge14_Node000002_Node000012"><a xlink:title=" ">
<path fill="none" stroke="#63b8ff" d="M179.75,-134.01C202.56,-139.49 232.17,-146.62 256.48,-152.46"/>
<polygon fill="#63b8ff" stroke="#63b8ff" points="255.57,-155.84 266.11,-154.78 257.21,-149.04 255.57,-155.84"/>
</a>
</g>
</g>
<!-- Node4 -->
<g id="Node000004" class="node">
<title>Node4</title>
<g id="a_Node000004"><a xlink:href="carrinho_2nrf24__avr_8c.html#a019970fc17b6b18fa4e45e0baf22c93f" target="_top" xlink:title=" ">
<polygon fill="white" stroke="#666666" points="690.75,-158.66 606.5,-158.66 606.5,-137.91 690.75,-137.91 690.75,-158.66"/>
<text xml:space="preserve" text-anchor="middle" x="648.62" y="-145.16" font-family="Helvetica,sans-Serif" font-size="10.00">digitalWrite_d</text>
</a>
</g>
</g>
<!-- Node3&#45;&gt;Node4 -->
<g id="edge3_Node000003_Node000004" class="edge">
<title>Node3&#45;&gt;Node4</title>
<g id="a_edge3_Node000003_Node000004"><a xlink:title=" ">
<path fill="none" stroke="#63b8ff" d="M455.09,-236.64C483.75,-232.82 532.39,-224.16 570.5,-206.29 592.11,-196.16 613.55,-179.35 628.31,-166.42"/>
<polygon fill="#63b8ff" stroke="#63b8ff" points="630.37,-169.28 635.47,-159.99 625.69,-164.08 630.37,-169.28"/>
</a>
</g>
</g>
<!-- Node5&#45;&gt;Node4 -->
<g id="edge5_Node000005_Node000004" class="edge">
<title>Node5&#45;&gt;Node4</title>
<g id="a_edge5_Node000005_Node000004"><a xlink:title=" ">
<path fill="none" stroke="#63b8ff" d="M563.43,-119.23C576.35,-123.69 591.84,-129.04 606,-133.92"/>
<polygon fill="#63b8ff" stroke="#63b8ff" points="604.46,-137.1 615.06,-137.05 606.75,-130.48 604.46,-137.1"/>
</a>
</g>
</g>
<!-- Node7 -->
<g id="Node000007" class="node">
<title>Node7</title>
<g id="a_Node000007"><a xlink:href="carrinho_2nrf24__avr_8c.html#aa653f4dc3541758224a53eef3f04d490" target="_top" xlink:title=" ">
<polygon fill="white" stroke="#666666" points="455.5,-58.66 404.25,-58.66 404.25,-37.91 455.5,-37.91 455.5,-58.66"/>
<text xml:space="preserve" text-anchor="middle" x="429.88" y="-45.16" font-family="Helvetica,sans-Serif" font-size="10.00">spi_init</text>
</a>
</g>
</g>
<!-- Node6&#45;&gt;Node7 -->
<g id="edge7_Node000006_Node000007" class="edge">
<title>Node6&#45;&gt;Node7</title>
<g id="a_edge7_Node000006_Node000007"><a xlink:title=" ">
<path fill="none" stroke="#63b8ff" d="M350.9,-48.29C364.7,-48.29 379.56,-48.29 392.56,-48.29"/>
<polygon fill="#63b8ff" stroke="#63b8ff" points="392.39,-51.79 402.39,-48.29 392.39,-44.79 392.39,-51.79"/>
</a>
</g>
</g>
<!-- Node8&#45;&gt;Node9 -->
<g id="edge9_Node000008_Node000009" class="edge">
<title>Node8&#45;&gt;Node9</title>
<g id="a_edge9_Node000008_Node000009"><a xlink:title=" ">
<path fill="none" stroke="#63b8ff" d="M332.26,-98.07C349.23,-104.43 370.93,-112.57 389.47,-119.52"/>
<polygon fill="#63b8ff" stroke="#63b8ff" points="388.24,-122.79 398.83,-123.03 390.69,-116.24 388.24,-122.79"/>
</a>
</g>
</g>
<!-- Node9&#45;&gt;Node5 -->
<g id="edge10_Node000009_Node000005" class="edge">
<title>Node9&#45;&gt;Node5</title>
<g id="a_edge10_Node000009_Node000005"><a xlink:title=" ">
<path fill="none" stroke="#63b8ff" d="M461.13,-126.86C471.11,-124.4 482.36,-121.64 492.94,-119.04"/>
<polygon fill="#63b8ff" stroke="#63b8ff" points="493.71,-122.45 502.59,-116.67 492.04,-115.66 493.71,-122.45"/>
</a>
</g>
</g>
<!-- Node10 -->
<g id="Node000010" class="node">
<title>Node10</title>
<g id="a_Node000010"><a xlink:href="carrinho_2nrf24__avr_8c.html#a42f8c1120431b7c37e116a4e1eac1cc2" target="_top" xlink:title=" ">
<polygon fill="white" stroke="#666666" points="561.12,-158.66 506.12,-158.66 506.12,-137.91 561.12,-137.91 561.12,-158.66"/>
<text xml:space="preserve" text-anchor="middle" x="533.62" y="-145.16" font-family="Helvetica,sans-Serif" font-size="10.00">csn_low</text>
</a>
</g>
</g>
<!-- Node9&#45;&gt;Node10 -->
<g id="edge11_Node000009_Node000010" class="edge">
<title>Node9&#45;&gt;Node10</title>
<g id="a_edge11_Node000009_Node000010"><a xlink:title=" ">
<path fill="none" stroke="#63b8ff" d="M461.13,-138.45C471.65,-139.9 483.59,-141.54 494.65,-143.07"/>
<polygon fill="#63b8ff" stroke="#63b8ff" points="493.89,-146.49 504.27,-144.39 494.84,-139.56 493.89,-146.49"/>
</a>
</g>
</g>
<!-- Node11 -->
<g id="Node000011" class="node">
<title>Node11</title>
<g id="a_Node000011"><a xlink:href="carrinho_2nrf24__avr_8c.html#a8d161d483c095113df5b69798e9cd725" target="_top" xlink:title=" ">
<polygon fill="white" stroke="#666666" points="570.5,-197.66 496.75,-197.66 496.75,-176.91 570.5,-176.91 570.5,-197.66"/>
<text xml:space="preserve" text-anchor="middle" x="533.62" y="-184.16" font-family="Helvetica,sans-Serif" font-size="10.00">spi_transfer</text>
</a>
</g>
</g>
<!-- Node9&#45;&gt;Node11 -->
<g id="edge13_Node000009_Node000011" class="edge">
<title>Node9&#45;&gt;Node11</title>
<g id="a_edge13_Node000009_Node000011"><a xlink:title=" ">
<path fill="none" stroke="#63b8ff" d="M451.47,-145.01C465.95,-152.56 485.57,-162.78 501.9,-171.29"/>
<polygon fill="#63b8ff" stroke="#63b8ff" points="500.24,-174.37 510.72,-175.88 503.47,-168.16 500.24,-174.37"/>
</a>
</g>
</g>
<!-- Node10&#45;&gt;Node4 -->
<g id="edge12_Node000010_Node000004" class="edge">
<title>Node10&#45;&gt;Node4</title>
<g id="a_edge12_Node000010_Node000004"><a xlink:title=" ">
<path fill="none" stroke="#63b8ff" d="M561.4,-148.29C571.39,-148.29 583.11,-148.29 594.63,-148.29"/>
<polygon fill="#63b8ff" stroke="#63b8ff" points="594.5,-151.79 604.5,-148.29 594.5,-144.79 594.5,-151.79"/>
</a>
</g>
</g>
<!-- Node13&#45;&gt;Node9 -->
<g id="edge17_Node000013_Node000009" class="edge">
<title>Node13&#45;&gt;Node9</title>
<g id="a_edge17_Node000013_Node000009"><a xlink:title=" ">
<path fill="none" stroke="#63b8ff" d="M168.76,-37.48C211.67,-20.9 300.24,5.42 363,-29.29 379.72,-38.54 404.93,-85.46 418.81,-113.35"/>
<polygon fill="#63b8ff" stroke="#63b8ff" points="415.65,-114.85 423.19,-122.29 421.94,-111.77 415.65,-114.85"/>
</a>
</g>
</g>
<!-- Node14&#45;&gt;Node9 -->
<g id="edge19_Node000014_Node000009" class="edge">
<title>Node14&#45;&gt;Node9</title>
<g id="a_edge19_Node000014_Node000009"><a xlink:title=" ">
<path fill="none" stroke="#63b8ff" d="M193.69,-190.94C239.1,-196.77 307.2,-200.46 363,-182.29 381.01,-176.42 398.2,-163.57 410.5,-152.63"/>
<polygon fill="#63b8ff" stroke="#63b8ff" points="412.87,-155.21 417.78,-145.83 408.09,-150.1 412.87,-155.21"/>
</a>
</g>
</g>
<!-- Node15&#45;&gt;Node3 -->
<g id="edge21_Node000015_Node000003" class="edge">
<title>Node15&#45;&gt;Node3</title>
<g id="a_edge21_Node000015_Node000003"><a xlink:title=" ">
<path fill="none" stroke="#63b8ff" d="M358.86,-239.29C370.49,-239.29 382.46,-239.29 393.14,-239.29"/>
<polygon fill="#63b8ff" stroke="#63b8ff" points="393.05,-242.79 403.05,-239.29 393.05,-235.79 393.05,-242.79"/>
</a>
</g>
</g>
<!-- Node15&#45;&gt;Node9 -->
<g id="edge26_Node000015_Node000009" class="edge">
<title>Node15&#45;&gt;Node9</title>
<g id="a_edge26_Node000015_Node000009"><a xlink:title=" ">
<path fill="none" stroke="#63b8ff" d="M339.95,-228.48C348.04,-225.06 356.21,-220.71 363,-215.29 384.96,-197.74 380.83,-184.74 399,-163.29 401.96,-159.79 405.29,-156.25 408.63,-152.89"/>
<polygon fill="#63b8ff" stroke="#63b8ff" points="410.86,-155.6 415.62,-146.13 405.99,-150.57 410.86,-155.6"/>
</a>
</g>
</g>
<!-- Node16 -->
<g id="Node000016" class="node">
<title>Node16</title>
<g id="a_Node000016"><a xlink:href="carrinho_2nrf24__avr_8c.html#abefdb1d58b989853c0646a6c8b18b7d3" target="_top" xlink:title=" ">
<polygon fill="white" stroke="#666666" points="459.25,-192.66 400.5,-192.66 400.5,-171.91 459.25,-171.91 459.25,-192.66"/>
<text xml:space="preserve" text-anchor="middle" x="429.88" y="-179.16" font-family="Helvetica,sans-Serif" font-size="10.00">read_reg</text>
</a>
</g>
</g>
<!-- Node15&#45;&gt;Node16 -->
<g id="edge22_Node000015_Node000016" class="edge">
<title>Node15&#45;&gt;Node16</title>
<g id="a_edge22_Node000015_Node000016"><a xlink:title=" ">
<path fill="none" stroke="#63b8ff" d="M331.55,-228.52C341.55,-224.54 352.85,-219.87 363,-215.29 374.66,-210.03 387.27,-203.84 398.3,-198.25"/>
<polygon fill="#63b8ff" stroke="#63b8ff" points="399.66,-201.49 406.97,-193.82 396.47,-195.26 399.66,-201.49"/>
</a>
</g>
</g>
<!-- Node16&#45;&gt;Node5 -->
<g id="edge23_Node000016_Node000005" class="edge">
<title>Node16&#45;&gt;Node5</title>
<g id="a_edge23_Node000016_Node000005"><a xlink:title=" ">
<path fill="none" stroke="#63b8ff" d="M443.02,-171.48C455.89,-160.27 477.03,-142.58 496.75,-129.29 498.52,-128.09 500.37,-126.9 502.26,-125.73"/>
<polygon fill="#63b8ff" stroke="#63b8ff" points="503.63,-128.99 510.47,-120.9 500.08,-122.96 503.63,-128.99"/>
</a>
</g>
</g>
<!-- Node16&#45;&gt;Node10 -->
<g id="edge24_Node000016_Node000010" class="edge">
<title>Node16&#45;&gt;Node10</title>
<g id="a_edge24_Node000016_Node000010"><a xlink:title=" ">
<path fill="none" stroke="#63b8ff" d="M459.49,-172.73C470.54,-169.04 483.33,-164.76 495.09,-160.83"/>
<polygon fill="#63b8ff" stroke="#63b8ff" points="496.16,-164.16 504.53,-157.68 493.94,-157.53 496.16,-164.16"/>
</a>
</g>
</g>
<!-- Node16&#45;&gt;Node11 -->
<g id="edge25_Node000016_Node000011" class="edge">
<title>Node16&#45;&gt;Node11</title>
<g id="a_edge25_Node000016_Node000011"><a xlink:title=" ">
<path fill="none" stroke="#63b8ff" d="M459.49,-183.7C467.5,-184.09 476.43,-184.53 485.22,-184.96"/>
<polygon fill="#63b8ff" stroke="#63b8ff" points="484.93,-188.45 495.09,-185.45 485.27,-181.46 484.93,-188.45"/>
</a>
</g>
</g>
</g>
</svg>

<g id="navigator" transform="translate(0 0)" fill="#404254">
  <rect fill="#f2f5e9" fill-opacity="0.5" stroke="#606060" stroke-width=".5" x="0" y="0" width="60" height="60"/>
  <use id="zoomplus" xlink:href="#zoomPlus" x="17" y="9" onmousedown="handleZoom(evt,'in')"/>
  <use id="zoomminus" xlink:href="#zoomMin" x="42" y="9" onmousedown="handleZoom(evt,'out')"/>
  <use id="reset" xlink:href="#resetDef" x="30" y="36" onmousedown="handleReset()"/>
   <use id="arrowup" xlink:href="#arrowUp" x="0" y="0" onmousedown="handlePan(0,-1)"/>
  <use id="arrowright" xlink:href="#arrowRight" x="0" y="0" onmousedown="handlePan(1,0)"/>
  <use id="arrowdown" xlink:href="#arrowDown" x="0" y="0" onmousedown="handlePan(0,1)"/>
  <use id="arrowleft" xlink:href="#arrowLeft" x="0" y="0" onmousedown="handlePan(-1,0)"/>
</g>
<svg viewBox="0 0 15 15" width="100%" height="30px" preserveAspectRatio="xMaxYMin meet">
 <g id="arrow_out" transform="scale(0.3 0.3)">
  <a xlink:href="controle_8c_a4fc01d736fe50cf5b977f755b675f11d_cgraph_org.svg" target="_base">
   <rect id="button" ry="5" rx="5" y="6" x="6" height="38" width="38"
        fill="#f2f5e9" fill-opacity="0.5" stroke="#606060" stroke-width="1.0"/>
   <path id="arrow"
     d="M 11.500037,31.436501 C 11.940474,20.09759 22.043105,11.32322 32.158766,21.979434 L 37.068811,17.246167 C 37.068811,17.246167 37.088388,32 37.088388,32 L 22.160133,31.978069 C 22.160133,31.978069 26.997745,27.140456 26.997745,27.140456 C 18.528582,18.264221 13.291696,25.230495 11.500037,31.436501 z"
     style="fill:#404040;"/>
  </a>
 </g>
</svg>

<style type='text/css'>
<![CDATA[
[data-mouse-over-selected='false'] { opacity: 0.7; }
[data-mouse-over-selected='true']  { opacity: 1.0; }
]]>
</style>
<script type="application/ecmascript"><![CDATA[
document.addEventListener('DOMContentLoaded', (event) => {
  highlightEdges();
  highlightAdjacentNodes();
});
]]></script>
</svg>
