<?xml version="1.0" encoding="UTF-8" standalone="no"?>
<!DOCTYPE svg PUBLIC "-//W3C//DTD SVG 1.1//EN"
 "http://www.w3.org/Graphics/SVG/1.1/DTD/svg11.dtd">
<!-- Generated by graphviz version 14.0.4 (0)
 -->
<!-- Title: loop Pages: 1 -->
<svg width="122pt" height="107pt"
 viewBox="0.00 0.00 122.00 107.00" xmlns="http://www.w3.org/2000/svg" xmlns:xlink="http://www.w3.org/1999/xlink">
<g id="graph0" class="graph" transform="scale(1 1) rotate(0) translate(4 102.75)">
<title>loop</title>
<!-- Node1 -->
<g id="Node000001" class="node">
<title>Node1</title>
<g id="a_Node000001"><a xlink:title=" ">
<polygon fill="#999999" stroke="#666666" points="37,-59.75 0,-59.75 0,-39 37,-39 37,-59.75"/>
<text xml:space="preserve" text-anchor="middle" x="18.5" y="-46.25" font-family="Helvetica,sans-Serif" font-size="10.00">loop</text>
</a>
</g>
</g>
<!-- Node2 -->
<g id="Node000002" class="node">
<title>Node2</title>
<g id="a_Node000002"><a xlink:href="carrinho_8c.html#aaa87dddb1e62142fd07ee17db1b5d673" target="_top" xlink:title="Retorna o valor absoluto de um inteiro.">
<polygon fill="white" stroke="#666666" points="110,-98.75 76.75,-98.75 76.75,-78 110,-78 110,-98.75"/>
<text xml:space="preserve" text-anchor="middle" x="93.38" y="-85.25" font-family="Helvetica,sans-Serif" font-size="10.00">abs</text>
</a>
</g>
</g>
<!-- Node1&#45;&gt;Node2 -->
<g id="edge1_Node000001_Node000002" class="edge">
<title>Node1&#45;&gt;Node2</title>
<g id="a_edge1_Node000001_Node000002"><a xlink:title=" ">
<path fill="none" stroke="#63b8ff" d="M37.14,-58.82C45.93,-63.52 56.72,-69.29 66.43,-74.49"/>
<polygon fill="#63b8ff" stroke="#63b8ff" points="64.59,-77.47 75.05,-79.11 67.89,-71.3 64.59,-77.47"/>
</a>
</g>
</g>
<!-- Node3 -->
<g id="Node000003" class="node">
<title>Node3</title>
<g id="a_Node000003"><a xlink:href="controle_8c.html#aada2d75bc8a8c6eb845bd940eadfa3fd" target="_top" xlink:title="Função equivalente ao map() do Arduino.">
<polygon fill="white" stroke="#666666" points="112.25,-59.75 74.5,-59.75 74.5,-39 112.25,-39 112.25,-59.75"/>
<text xml:space="preserve" text-anchor="middle" x="93.38" y="-46.25" font-family="Helvetica,sans-Serif" font-size="10.00">map</text>
</a>
</g>
</g>
<!-- Node1&#45;&gt;Node3 -->
<g id="edge2_Node000001_Node000003" class="edge">
<title>Node1&#45;&gt;Node3</title>
<g id="a_edge2_Node000001_Node000003"><a xlink:title=" ">
<path fill="none" stroke="#63b8ff" d="M37.14,-49.38C44.84,-49.38 54.09,-49.38 62.8,-49.38"/>
<polygon fill="#63b8ff" stroke="#63b8ff" points="62.62,-52.88 72.62,-49.38 62.62,-45.88 62.62,-52.88"/>
</a>
</g>
</g>
<!-- Node4 -->
<g id="Node000004" class="node">
<title>Node4</title>
<g id="a_Node000004"><a xlink:href="carrinho__ino_8ino.html#a53cdd46f95419ffdcd44d3f0d6147b54" target="_top" xlink:title=" ">
<polygon fill="white" stroke="#666666" points="113.75,-20.75 73,-20.75 73,0 113.75,0 113.75,-20.75"/>
<text xml:space="preserve" text-anchor="middle" x="93.38" y="-7.25" font-family="Helvetica,sans-Serif" font-size="10.00">radio</text>
</a>
</g>
</g>
<!-- Node1&#45;&gt;Node4 -->
<g id="edge3_Node000001_Node000004" class="edge">
<title>Node1&#45;&gt;Node4</title>
<g id="a_edge3_Node000001_Node000004"><a xlink:title=" ">
<path fill="none" stroke="#63b8ff" d="M37.14,-39.93C44.75,-35.86 53.86,-30.99 62.47,-26.38"/>
<polygon fill="#63b8ff" stroke="#63b8ff" points="64.09,-29.48 71.25,-21.68 60.78,-23.31 64.09,-29.48"/>
</a>
</g>
</g>
</g>
</svg>
