<?xml version="1.0" encoding="UTF-8" standalone="no"?>
<!DOCTYPE svg PUBLIC "-//W3C//DTD SVG 1.1//EN"
 "http://www.w3.org/Graphics/SVG/1.1/DTD/svg11.dtd">
<!-- Generated by graphviz version 14.0.4 (0)
 -->
<!-- Title: nrf24_openReadingPipe Pages: 1 -->
<svg width="467pt" height="107pt"
 viewBox="0.00 0.00 467.00 107.00" xmlns="http://www.w3.org/2000/svg" xmlns:xlink="http://www.w3.org/1999/xlink">
<g id="graph0" class="graph" transform="scale(1 1) rotate(0) translate(4 102.75)">
<title>nrf24_openReadingPipe</title>
<!-- Node1 -->
<g id="Node000001" class="node">
<title>Node1</title>
<g id="a_Node000001"><a xlink:title=" ">
<polygon fill="#999999" stroke="#666666" points="131.5,-59.75 0,-59.75 0,-39 131.5,-39 131.5,-59.75"/>
<text xml:space="preserve" text-anchor="middle" x="65.75" y="-46.25" font-family="Helvetica,sans-Serif" font-size="10.00">nrf24_openReadingPipe</text>
</a>
</g>
</g>
<!-- Node2 -->
<g id="Node000002" class="node">
<title>Node2</title>
<g id="a_Node000002"><a xlink:href="carrinho_2nrf24__avr_8c.html#a08bc978021db604d02a6da754f73e7e2" target="_top" xlink:title=" ">
<polygon fill="white" stroke="#666666" points="229.25,-59.75 167.5,-59.75 167.5,-39 229.25,-39 229.25,-59.75"/>
<text xml:space="preserve" text-anchor="middle" x="198.38" y="-46.25" font-family="Helvetica,sans-Serif" font-size="10.00">write_reg</text>
</a>
</g>
</g>
<!-- Node1&#45;&gt;Node2 -->
<g id="edge1_Node000001_Node000002" class="edge">
<title>Node1&#45;&gt;Node2</title>
<g id="a_edge1_Node000001_Node000002"><a xlink:title=" ">
<path fill="none" stroke="#63b8ff" d="M131.68,-49.38C139.93,-49.38 148.19,-49.38 155.92,-49.38"/>
<polygon fill="#63b8ff" stroke="#63b8ff" points="155.69,-52.88 165.69,-49.38 155.69,-45.88 155.69,-52.88"/>
</a>
</g>
</g>
<!-- Node3 -->
<g id="Node000003" class="node">
<title>Node3</title>
<g id="a_Node000003"><a xlink:href="carrinho_2nrf24__avr_8c.html#adaef88bc02a8e805de3b3a82bf317549" target="_top" xlink:title=" ">
<polygon fill="white" stroke="#666666" points="331.5,-98.75 272.75,-98.75 272.75,-78 331.5,-78 331.5,-98.75"/>
<text xml:space="preserve" text-anchor="middle" x="302.12" y="-85.25" font-family="Helvetica,sans-Serif" font-size="10.00">csn_high</text>
</a>
</g>
</g>
<!-- Node2&#45;&gt;Node3 -->
<g id="edge2_Node000002_Node000003" class="edge">
<title>Node2&#45;&gt;Node3</title>
<g id="a_edge2_Node000002_Node000003"><a xlink:title=" ">
<path fill="none" stroke="#63b8ff" d="M227.72,-60.24C238.41,-64.34 250.77,-69.08 262.26,-73.48"/>
<polygon fill="#63b8ff" stroke="#63b8ff" points="260.93,-76.72 271.52,-77.03 263.44,-70.18 260.93,-76.72"/>
</a>
</g>
</g>
<!-- Node5 -->
<g id="Node000005" class="node">
<title>Node5</title>
<g id="a_Node000005"><a xlink:href="carrinho_2nrf24__avr_8c.html#a42f8c1120431b7c37e116a4e1eac1cc2" target="_top" xlink:title=" ">
<polygon fill="white" stroke="#666666" points="329.62,-59.75 274.62,-59.75 274.62,-39 329.62,-39 329.62,-59.75"/>
<text xml:space="preserve" text-anchor="middle" x="302.12" y="-46.25" font-family="Helvetica,sans-Serif" font-size="10.00">csn_low</text>
</a>
</g>
</g>
<!-- Node2&#45;&gt;Node5 -->
<g id="edge4_Node000002_Node000005" class="edge">
<title>Node2&#45;&gt;Node5</title>
<g id="a_edge4_Node000002_Node000005"><a xlink:title=" ">
<path fill="none" stroke="#63b8ff" d="M229.63,-49.38C240.04,-49.38 251.84,-49.38 262.8,-49.38"/>
<polygon fill="#63b8ff" stroke="#63b8ff" points="262.76,-52.88 272.76,-49.38 262.76,-45.88 262.76,-52.88"/>
</a>
</g>
</g>
<!-- Node6 -->
<g id="Node000006" class="node">
<title>Node6</title>
<g id="a_Node000006"><a xlink:href="carrinho_2nrf24__avr_8c.html#a8d161d483c095113df5b69798e9cd725" target="_top" xlink:title=" ">
<polygon fill="white" stroke="#666666" points="339,-20.75 265.25,-20.75 265.25,0 339,0 339,-20.75"/>
<text xml:space="preserve" text-anchor="middle" x="302.12" y="-7.25" font-family="Helvetica,sans-Serif" font-size="10.00">spi_transfer</text>
</a>
</g>
</g>
<!-- Node2&#45;&gt;Node6 -->
<g id="edge6_Node000002_Node000006" class="edge">
<title>Node2&#45;&gt;Node6</title>
<g id="a_edge6_Node000002_Node000006"><a xlink:title=" ">
<path fill="none" stroke="#63b8ff" d="M227.72,-38.51C238.41,-34.41 250.77,-29.67 262.26,-25.27"/>
<polygon fill="#63b8ff" stroke="#63b8ff" points="263.44,-28.57 271.52,-21.72 260.93,-22.03 263.44,-28.57"/>
</a>
</g>
</g>
<!-- Node4 -->
<g id="Node000004" class="node">
<title>Node4</title>
<g id="a_Node000004"><a xlink:href="carrinho_2nrf24__avr_8c.html#a019970fc17b6b18fa4e45e0baf22c93f" target="_top" xlink:title=" ">
<polygon fill="white" stroke="#666666" points="459.25,-78.75 375,-78.75 375,-58 459.25,-58 459.25,-78.75"/>
<text xml:space="preserve" text-anchor="middle" x="417.12" y="-65.25" font-family="Helvetica,sans-Serif" font-size="10.00">digitalWrite_d</text>
</a>
</g>
</g>
<!-- Node3&#45;&gt;Node4 -->
<g id="edge3_Node000003_Node000004" class="edge">
<title>Node3&#45;&gt;Node4</title>
<g id="a_edge3_Node000003_Node000004"><a xlink:title=" ">
<path fill="none" stroke="#63b8ff" d="M331.93,-83.28C341.54,-81.58 352.57,-79.62 363.41,-77.7"/>
<polygon fill="#63b8ff" stroke="#63b8ff" points="363.85,-81.18 373.09,-75.99 362.63,-74.29 363.85,-81.18"/>
</a>
</g>
</g>
<!-- Node5&#45;&gt;Node4 -->
<g id="edge5_Node000005_Node000004" class="edge">
<title>Node5&#45;&gt;Node4</title>
<g id="a_edge5_Node000005_Node000004"><a xlink:title=" ">
<path fill="none" stroke="#63b8ff" d="M329.9,-53.88C339.99,-55.57 351.85,-57.57 363.49,-59.52"/>
<polygon fill="#63b8ff" stroke="#63b8ff" points="362.58,-62.92 373.02,-61.13 363.74,-56.02 362.58,-62.92"/>
</a>
</g>
</g>
</g>
</svg>
