<?xml version="1.0" encoding="UTF-8" standalone="no"?>
<!DOCTYPE svg PUBLIC "-//W3C//DTD SVG 1.1//EN"
 "http://www.w3.org/Graphics/SVG/1.1/DTD/svg11.dtd">
<!-- Generated by graphviz version 14.0.4 (0)
 -->
<!-- Title: loop Pages: 1 -->
<svg width="660pt" height="299pt"
 viewBox="0.00 0.00 660.00 299.00" xmlns="http://www.w3.org/2000/svg" xmlns:xlink="http://www.w3.org/1999/xlink">
<g id="graph0" class="graph" transform="scale(1 1) rotate(0) translate(4 294.75)">
<title>loop</title>
<!-- Node1 -->
<g id="Node000001" class="node">
<title>Node1</title>
<g id="a_Node000001"><a xlink:title=" ">
<polygon fill="#999999" stroke="#666666" points="37,-212.75 0,-212.75 0,-192 37,-192 37,-212.75"/>
<text xml:space="preserve" text-anchor="middle" x="18.5" y="-199.25" font-family="Helvetica,sans-Serif" font-size="10.00">loop</text>
</a>
</g>
</g>
<!-- Node2 -->
<g id="Node000002" class="node">
<title>Node2</title>
<g id="a_Node000002"><a xlink:href="controle_8c.html#aaa87dddb1e62142fd07ee17db1b5d673" target="_top" xlink:title=" ">
<polygon fill="white" stroke="#666666" points="129.12,-290.75 95.88,-290.75 95.88,-270 129.12,-270 129.12,-290.75"/>
<text xml:space="preserve" text-anchor="middle" x="112.5" y="-277.25" font-family="Helvetica,sans-Serif" font-size="10.00">abs</text>
</a>
</g>
</g>
<!-- Node1&#45;&gt;Node2 -->
<g id="edge1_Node000001_Node000002" class="edge">
<title>Node1&#45;&gt;Node2</title>
<g id="a_edge1_Node000001_Node000002"><a xlink:title=" ">
<path fill="none" stroke="#63b8ff" d="M27.29,-212.83C36.97,-225.3 54.49,-246.24 73,-260.38 76.84,-263.31 81.17,-266.03 85.5,-268.45"/>
<polygon fill="#63b8ff" stroke="#63b8ff" points="83.56,-271.39 94.06,-272.86 86.77,-265.17 83.56,-271.39"/>
</a>
</g>
</g>
<!-- Node3 -->
<g id="Node000003" class="node">
<title>Node3</title>
<g id="a_Node000003"><a xlink:href="controle_8c.html#a08bebecdd1ca2d6e7ef3f68cd452ccf9" target="_top" xlink:title=" ">
<polygon fill="white" stroke="#666666" points="150.5,-251.75 74.5,-251.75 74.5,-231 150.5,-231 150.5,-251.75"/>
<text xml:space="preserve" text-anchor="middle" x="112.5" y="-238.25" font-family="Helvetica,sans-Serif" font-size="10.00">analog_read</text>
</a>
</g>
</g>
<!-- Node1&#45;&gt;Node3 -->
<g id="edge2_Node000001_Node000003" class="edge">
<title>Node1&#45;&gt;Node3</title>
<g id="a_edge2_Node000001_Node000003"><a xlink:title=" ">
<path fill="none" stroke="#63b8ff" d="M37.24,-209.89C48.2,-214.54 62.65,-220.67 75.89,-226.28"/>
<polygon fill="#63b8ff" stroke="#63b8ff" points="74.2,-229.36 84.77,-230.04 76.93,-222.92 74.2,-229.36"/>
</a>
</g>
</g>
<!-- Node4 -->
<g id="Node000004" class="node">
<title>Node4</title>
<g id="a_Node000004"><a xlink:href="controle_8c.html#ac7c0935e24e573b2929d0df7f9e6b82f" target="_top" xlink:title=" ">
<polygon fill="white" stroke="#666666" points="152,-212.75 73,-212.75 73,-192 152,-192 152,-212.75"/>
<text xml:space="preserve" text-anchor="middle" x="112.5" y="-199.25" font-family="Helvetica,sans-Serif" font-size="10.00">analog_write</text>
</a>
</g>
</g>
<!-- Node1&#45;&gt;Node4 -->
<g id="edge3_Node000001_Node000004" class="edge">
<title>Node1&#45;&gt;Node4</title>
<g id="a_edge3_Node000001_Node000004"><a xlink:title=" ">
<path fill="none" stroke="#63b8ff" d="M37.24,-202.38C44.28,-202.38 52.77,-202.38 61.45,-202.38"/>
<polygon fill="#63b8ff" stroke="#63b8ff" points="61.35,-205.88 71.35,-202.38 61.35,-198.88 61.35,-205.88"/>
</a>
</g>
</g>
<!-- Node5 -->
<g id="Node000005" class="node">
<title>Node5</title>
<g id="a_Node000005"><a xlink:href="controle_8c.html#ab66e88e73e935433d27613e6b65139dd" target="_top" xlink:title=" ">
<polygon fill="white" stroke="#666666" points="131.38,-173.75 93.62,-173.75 93.62,-153 131.38,-153 131.38,-173.75"/>
<text xml:space="preserve" text-anchor="middle" x="112.5" y="-160.25" font-family="Helvetica,sans-Serif" font-size="10.00">map</text>
</a>
</g>
</g>
<!-- Node1&#45;&gt;Node5 -->
<g id="edge4_Node000001_Node000005" class="edge">
<title>Node1&#45;&gt;Node5</title>
<g id="a_edge4_Node000001_Node000005"><a xlink:title=" ">
<path fill="none" stroke="#63b8ff" d="M37.24,-194.86C50.18,-189.37 67.99,-181.82 82.93,-175.49"/>
<polygon fill="#63b8ff" stroke="#63b8ff" points="83.95,-178.85 91.79,-171.73 81.22,-172.41 83.95,-178.85"/>
</a>
</g>
</g>
<!-- Node6 -->
<g id="Node000006" class="node">
<title>Node6</title>
<g id="a_Node000006"><a xlink:href="carrinho_2nrf24__avr_8c.html#a8232e1982aabc6f52408c318402cb578" target="_top" xlink:title=" ">
<polygon fill="white" stroke="#666666" points="148.25,-134.75 76.75,-134.75 76.75,-114 148.25,-114 148.25,-134.75"/>
<text xml:space="preserve" text-anchor="middle" x="112.5" y="-121.25" font-family="Helvetica,sans-Serif" font-size="10.00">nrf24_write</text>
</a>
</g>
</g>
<!-- Node1&#45;&gt;Node6 -->
<g id="edge5_Node000001_Node000006" class="edge">
<title>Node1&#45;&gt;Node6</title>
<g id="a_edge5_Node000001_Node000006"><a xlink:title=" ">
<path fill="none" stroke="#63b8ff" d="M27.29,-191.92C36.97,-179.45 54.49,-158.51 73,-144.38 74.52,-143.21 76.12,-142.08 77.77,-140.99"/>
<polygon fill="#63b8ff" stroke="#63b8ff" points="79.4,-144.09 86.21,-135.97 75.82,-138.08 79.4,-144.09"/>
</a>
</g>
</g>
<!-- Node7 -->
<g id="Node000007" class="node">
<title>Node7</title>
<g id="a_Node000007"><a xlink:href="carrinho_2nrf24__avr_8c.html#a5336963072afb877d785bed84eb6b5f4" target="_top" xlink:title=" ">
<polygon fill="white" stroke="#666666" points="270.75,-248.75 217.25,-248.75 217.25,-228 270.75,-228 270.75,-248.75"/>
<text xml:space="preserve" text-anchor="middle" x="244" y="-235.25" font-family="Helvetica,sans-Serif" font-size="10.00">ce_high</text>
</a>
</g>
</g>
<!-- Node6&#45;&gt;Node7 -->
<g id="edge6_Node000006_Node000007" class="edge">
<title>Node6&#45;&gt;Node7</title>
<g id="a_edge6_Node000006_Node000007"><a xlink:title=" ">
<path fill="none" stroke="#63b8ff" d="M139.45,-135.02C143.98,-137.63 148.39,-140.75 152,-144.38 176.69,-169.16 162.49,-190.44 188,-214.38 193.28,-219.33 199.76,-223.37 206.38,-226.62"/>
<polygon fill="#63b8ff" stroke="#63b8ff" points="204.82,-229.75 215.38,-230.5 207.59,-223.32 204.82,-229.75"/>
</a>
</g>
</g>
<!-- Node9 -->
<g id="Node000009" class="node">
<title>Node9</title>
<g id="a_Node000009"><a xlink:href="carrinho_2nrf24__avr_8c.html#a77c5f7c57c01266d04faea3052a47f49" target="_top" xlink:title=" ">
<polygon fill="white" stroke="#666666" points="403.75,-176.75 354,-176.75 354,-156 403.75,-156 403.75,-176.75"/>
<text xml:space="preserve" text-anchor="middle" x="378.88" y="-163.25" font-family="Helvetica,sans-Serif" font-size="10.00">ce_low</text>
</a>
</g>
</g>
<!-- Node6&#45;&gt;Node9 -->
<g id="edge8_Node000006_Node000009" class="edge">
<title>Node6&#45;&gt;Node9</title>
<g id="a_edge8_Node000006_Node000009"><a xlink:title=" ">
<path fill="none" stroke="#63b8ff" d="M134.11,-135.2C152.2,-144.48 177.24,-156.76 188,-159.38 240.61,-172.14 303.81,-171.41 342.39,-169.25"/>
<polygon fill="#63b8ff" stroke="#63b8ff" points="342.51,-172.75 352.26,-168.62 342.06,-165.76 342.51,-172.75"/>
</a>
</g>
</g>
<!-- Node10 -->
<g id="Node000010" class="node">
<title>Node10</title>
<g id="a_Node000010"><a xlink:href="carrinho_2nrf24__avr_8c.html#a617ab4b2604d6f482796e35da85369ad" target="_top" xlink:title=" ">
<polygon fill="white" stroke="#666666" points="421.75,-20.75 336,-20.75 336,0 421.75,0 421.75,-20.75"/>
<text xml:space="preserve" text-anchor="middle" x="378.88" y="-7.25" font-family="Helvetica,sans-Serif" font-size="10.00">nrf24_flush_tx</text>
</a>
</g>
</g>
<!-- Node6&#45;&gt;Node10 -->
<g id="edge10_Node000006_Node000010" class="edge">
<title>Node6&#45;&gt;Node10</title>
<g id="a_edge10_Node000006_Node000010"><a xlink:title=" ">
<path fill="none" stroke="#63b8ff" d="M122.42,-113.55C135.31,-98.61 160.64,-71.88 188,-57.38 230.87,-34.64 285.04,-22.64 324.54,-16.48"/>
<polygon fill="#63b8ff" stroke="#63b8ff" points="324.9,-19.96 334.29,-15.04 323.88,-13.04 324.9,-19.96"/>
</a>
</g>
</g>
<!-- Node14 -->
<g id="Node000014" class="node">
<title>Node14</title>
<g id="a_Node000014"><a xlink:href="carrinho_2nrf24__avr_8c.html#a33899bc3c0f4d2293f37c306d0b8e297" target="_top" xlink:title=" ">
<polygon fill="white" stroke="#666666" points="300,-134.75 188,-134.75 188,-114 300,-114 300,-134.75"/>
<text xml:space="preserve" text-anchor="middle" x="244" y="-121.25" font-family="Helvetica,sans-Serif" font-size="10.00">nrf24_stopListening</text>
</a>
</g>
</g>
<!-- Node6&#45;&gt;Node14 -->
<g id="edge16_Node000006_Node000014" class="edge">
<title>Node6&#45;&gt;Node14</title>
<g id="a_edge16_Node000006_Node000014"><a xlink:title=" ">
<path fill="none" stroke="#63b8ff" d="M148.54,-124.38C157.27,-124.38 166.91,-124.38 176.6,-124.38"/>
<polygon fill="#63b8ff" stroke="#63b8ff" points="176.43,-127.88 186.43,-124.38 176.43,-120.88 176.43,-127.88"/>
</a>
</g>
</g>
<!-- Node15 -->
<g id="Node000015" class="node">
<title>Node15</title>
<g id="a_Node000015"><a xlink:href="carrinho_2nrf24__avr_8c.html#abefdb1d58b989853c0646a6c8b18b7d3" target="_top" xlink:title=" ">
<polygon fill="white" stroke="#666666" points="408.25,-98.75 349.5,-98.75 349.5,-78 408.25,-78 408.25,-98.75"/>
<text xml:space="preserve" text-anchor="middle" x="378.88" y="-85.25" font-family="Helvetica,sans-Serif" font-size="10.00">read_reg</text>
</a>
</g>
</g>
<!-- Node6&#45;&gt;Node15 -->
<g id="edge26_Node000006_Node000015" class="edge">
<title>Node6&#45;&gt;Node15</title>
<g id="a_edge26_Node000006_Node000015"><a xlink:title=" ">
<path fill="none" stroke="#63b8ff" d="M148.5,-114.22C160.88,-110.95 174.97,-107.6 188,-105.38 239.29,-96.6 299.21,-92.19 337.8,-90.09"/>
<polygon fill="#63b8ff" stroke="#63b8ff" points="337.74,-93.6 347.55,-89.59 337.38,-86.61 337.74,-93.6"/>
</a>
</g>
</g>
<!-- Node16 -->
<g id="Node000016" class="node">
<title>Node16</title>
<g id="a_Node000016"><a xlink:href="carrinho_2nrf24__avr_8c.html#a08bc978021db604d02a6da754f73e7e2" target="_top" xlink:title=" ">
<polygon fill="white" stroke="#666666" points="409.75,-137.75 348,-137.75 348,-117 409.75,-117 409.75,-137.75"/>
<text xml:space="preserve" text-anchor="middle" x="378.88" y="-124.25" font-family="Helvetica,sans-Serif" font-size="10.00">write_reg</text>
</a>
</g>
</g>
<!-- Node6&#45;&gt;Node16 -->
<g id="edge31_Node000006_Node000016" class="edge">
<title>Node6&#45;&gt;Node16</title>
<g id="a_edge31_Node000006_Node000016"><a xlink:title=" ">
<path fill="none" stroke="#63b8ff" d="M148.4,-135.19C160.78,-138.52 174.89,-141.73 188,-143.38 237.39,-149.57 250.48,-148.41 300,-143.38 312.07,-142.15 325.03,-139.88 336.85,-137.42"/>
<polygon fill="#63b8ff" stroke="#63b8ff" points="337.27,-140.92 346.29,-135.37 335.77,-134.08 337.27,-140.92"/>
</a>
</g>
</g>
<!-- Node17 -->
<g id="Node000017" class="node">
<title>Node17</title>
<g id="a_Node000017"><a xlink:href="carrinho_2nrf24__avr_8c.html#a3c9fd94e9894bf0792d4ff5891c16436" target="_top" xlink:title=" ">
<polygon fill="white" stroke="#666666" points="421.38,-59.75 336.38,-59.75 336.38,-39 421.38,-39 421.38,-59.75"/>
<text xml:space="preserve" text-anchor="middle" x="378.88" y="-46.25" font-family="Helvetica,sans-Serif" font-size="10.00">write_payload</text>
</a>
</g>
</g>
<!-- Node6&#45;&gt;Node17 -->
<g id="edge27_Node000006_Node000017" class="edge">
<title>Node6&#45;&gt;Node17</title>
<g id="a_edge27_Node000006_Node000017"><a xlink:title=" ">
<path fill="none" stroke="#63b8ff" d="M132.55,-113.54C147.28,-105.57 168.41,-95.01 188,-88.38 233.11,-73.11 286.38,-62.8 324.99,-56.64"/>
<polygon fill="#63b8ff" stroke="#63b8ff" points="325.14,-60.16 334.48,-55.16 324.07,-53.24 325.14,-60.16"/>
</a>
</g>
</g>
<!-- Node8 -->
<g id="Node000008" class="node">
<title>Node8</title>
<g id="a_Node000008"><a xlink:href="carrinho_2nrf24__avr_8c.html#a019970fc17b6b18fa4e45e0baf22c93f" target="_top" xlink:title=" ">
<polygon fill="white" stroke="#666666" points="651.75,-137.75 567.5,-137.75 567.5,-117 651.75,-117 651.75,-137.75"/>
<text xml:space="preserve" text-anchor="middle" x="609.62" y="-124.25" font-family="Helvetica,sans-Serif" font-size="10.00">digitalWrite_d</text>
</a>
</g>
</g>
<!-- Node7&#45;&gt;Node8 -->
<g id="edge7_Node000007_Node000008" class="edge">
<title>Node7&#45;&gt;Node8</title>
<g id="a_edge7_Node000007_Node000008"><a xlink:title=" ">
<path fill="none" stroke="#63b8ff" d="M271.23,-233.6C322.32,-223.88 438.33,-199.77 531.5,-165.38 547.79,-159.36 565.2,-150.96 579.36,-143.59"/>
<polygon fill="#63b8ff" stroke="#63b8ff" points="580.95,-146.71 588.13,-138.92 577.66,-140.53 580.95,-146.71"/>
</a>
</g>
</g>
<!-- Node9&#45;&gt;Node8 -->
<g id="edge9_Node000009_Node000008" class="edge">
<title>Node9&#45;&gt;Node8</title>
<g id="a_edge9_Node000009_Node000008"><a xlink:title=" ">
<path fill="none" stroke="#63b8ff" d="M404.17,-164.01C434.22,-160.88 486.88,-154.79 531.5,-146.38 539.89,-144.79 548.72,-142.87 557.31,-140.85"/>
<polygon fill="#63b8ff" stroke="#63b8ff" points="558.01,-144.28 566.91,-138.53 556.37,-137.48 558.01,-144.28"/>
</a>
</g>
</g>
<!-- Node11 -->
<g id="Node000011" class="node">
<title>Node11</title>
<g id="a_Node000011"><a xlink:href="carrinho_2nrf24__avr_8c.html#adaef88bc02a8e805de3b3a82bf317549" target="_top" xlink:title=" ">
<polygon fill="white" stroke="#666666" points="524,-59.75 465.25,-59.75 465.25,-39 524,-39 524,-59.75"/>
<text xml:space="preserve" text-anchor="middle" x="494.62" y="-46.25" font-family="Helvetica,sans-Serif" font-size="10.00">csn_high</text>
</a>
</g>
</g>
<!-- Node10&#45;&gt;Node11 -->
<g id="edge11_Node000010_Node000011" class="edge">
<title>Node10&#45;&gt;Node11</title>
<g id="a_edge11_Node000010_Node000011"><a xlink:title=" ">
<path fill="none" stroke="#63b8ff" d="M411.56,-21.24C424.74,-25.76 440.17,-31.05 454.08,-35.82"/>
<polygon fill="#63b8ff" stroke="#63b8ff" points="452.81,-39.08 463.4,-39.01 455.08,-32.46 452.81,-39.08"/>
</a>
</g>
</g>
<!-- Node12 -->
<g id="Node000012" class="node">
<title>Node12</title>
<g id="a_Node000012"><a xlink:href="carrinho_2nrf24__avr_8c.html#a42f8c1120431b7c37e116a4e1eac1cc2" target="_top" xlink:title=" ">
<polygon fill="white" stroke="#666666" points="522.12,-98.75 467.12,-98.75 467.12,-78 522.12,-78 522.12,-98.75"/>
<text xml:space="preserve" text-anchor="middle" x="494.62" y="-85.25" font-family="Helvetica,sans-Serif" font-size="10.00">csn_low</text>
</a>
</g>
</g>
<!-- Node10&#45;&gt;Node12 -->
<g id="edge13_Node000010_Node000012" class="edge">
<title>Node10&#45;&gt;Node12</title>
<g id="a_edge13_Node000010_Node000012"><a xlink:title=" ">
<path fill="none" stroke="#63b8ff" d="M406.41,-21.23C411.69,-23.89 417.06,-26.96 421.75,-30.38 440.56,-44.06 439.38,-54.1 457.75,-68.38 459.22,-69.52 460.77,-70.64 462.35,-71.72"/>
<polygon fill="#63b8ff" stroke="#63b8ff" points="460.08,-74.43 470.42,-76.75 463.78,-68.49 460.08,-74.43"/>
</a>
</g>
</g>
<!-- Node13 -->
<g id="Node000013" class="node">
<title>Node13</title>
<g id="a_Node000013"><a xlink:href="carrinho_2nrf24__avr_8c.html#a8d161d483c095113df5b69798e9cd725" target="_top" xlink:title=" ">
<polygon fill="white" stroke="#666666" points="531.5,-137.75 457.75,-137.75 457.75,-117 531.5,-117 531.5,-137.75"/>
<text xml:space="preserve" text-anchor="middle" x="494.62" y="-124.25" font-family="Helvetica,sans-Serif" font-size="10.00">spi_transfer</text>
</a>
</g>
</g>
<!-- Node10&#45;&gt;Node13 -->
<g id="edge15_Node000010_Node000013" class="edge">
<title>Node10&#45;&gt;Node13</title>
<g id="a_edge15_Node000010_Node000013"><a xlink:title=" ">
<path fill="none" stroke="#63b8ff" d="M409.08,-21.07C413.69,-23.63 418.12,-26.71 421.75,-30.38 448.35,-57.2 432.01,-79.73 457.75,-107.38 458.58,-108.26 459.45,-109.12 460.36,-109.95"/>
<polygon fill="#63b8ff" stroke="#63b8ff" points="458.01,-112.56 468.13,-115.7 462.18,-106.93 458.01,-112.56"/>
</a>
</g>
</g>
<!-- Node11&#45;&gt;Node8 -->
<g id="edge12_Node000011_Node000008" class="edge">
<title>Node11&#45;&gt;Node8</title>
<g id="a_edge12_Node000011_Node000008"><a xlink:title=" ">
<path fill="none" stroke="#63b8ff" d="M516.02,-60.11C521.16,-62.99 526.6,-66.19 531.5,-69.38 550.81,-81.93 571.62,-97.73 586.75,-109.66"/>
<polygon fill="#63b8ff" stroke="#63b8ff" points="584.19,-112.1 594.19,-115.59 588.55,-106.62 584.19,-112.1"/>
</a>
</g>
</g>
<!-- Node12&#45;&gt;Node8 -->
<g id="edge14_Node000012_Node000008" class="edge">
<title>Node12&#45;&gt;Node8</title>
<g id="a_edge14_Node000012_Node000008"><a xlink:title=" ">
<path fill="none" stroke="#63b8ff" d="M522.4,-97.62C535.64,-102.19 551.91,-107.8 566.75,-112.92"/>
<polygon fill="#63b8ff" stroke="#63b8ff" points="565.2,-116.09 575.8,-116.05 567.49,-109.47 565.2,-116.09"/>
</a>
</g>
</g>
<!-- Node14&#45;&gt;Node9 -->
<g id="edge17_Node000014_Node000009" class="edge">
<title>Node14&#45;&gt;Node9</title>
<g id="a_edge17_Node000014_Node000009"><a xlink:title=" ">
<path fill="none" stroke="#63b8ff" d="M279.22,-135.19C298.76,-141.37 323.21,-149.1 342.88,-155.31"/>
<polygon fill="#63b8ff" stroke="#63b8ff" points="341.8,-158.64 352.39,-158.32 343.91,-151.97 341.8,-158.64"/>
</a>
</g>
</g>
<!-- Node14&#45;&gt;Node15 -->
<g id="edge18_Node000014_Node000015" class="edge">
<title>Node14&#45;&gt;Node15</title>
<g id="a_edge18_Node000014_Node000015"><a xlink:title=" ">
<path fill="none" stroke="#63b8ff" d="M284.87,-113.57C301.8,-108.99 321.49,-103.65 338.38,-99.08"/>
<polygon fill="#63b8ff" stroke="#63b8ff" points="338.82,-102.58 347.55,-96.59 336.99,-95.83 338.82,-102.58"/>
</a>
</g>
</g>
<!-- Node14&#45;&gt;Node16 -->
<g id="edge22_Node000014_Node000016" class="edge">
<title>Node14&#45;&gt;Node16</title>
<g id="a_edge22_Node000014_Node000016"><a xlink:title=" ">
<path fill="none" stroke="#63b8ff" d="M300.2,-125.62C312.26,-125.89 324.84,-126.18 336.27,-126.44"/>
<polygon fill="#63b8ff" stroke="#63b8ff" points="336.11,-129.93 346.18,-126.66 336.26,-122.93 336.11,-129.93"/>
</a>
</g>
</g>
<!-- Node15&#45;&gt;Node11 -->
<g id="edge19_Node000015_Node000011" class="edge">
<title>Node15&#45;&gt;Node11</title>
<g id="a_edge19_Node000015_Node000011"><a xlink:title=" ">
<path fill="none" stroke="#63b8ff" d="M408.58,-78.53C422.45,-73.78 439.32,-67.99 454.37,-62.83"/>
<polygon fill="#63b8ff" stroke="#63b8ff" points="455.17,-66.26 463.5,-59.7 452.9,-59.64 455.17,-66.26"/>
</a>
</g>
</g>
<!-- Node15&#45;&gt;Node12 -->
<g id="edge20_Node000015_Node000012" class="edge">
<title>Node15&#45;&gt;Node12</title>
<g id="a_edge20_Node000015_Node000012"><a xlink:title=" ">
<path fill="none" stroke="#63b8ff" d="M408.58,-88.38C422.84,-88.38 440.27,-88.38 455.63,-88.38"/>
<polygon fill="#63b8ff" stroke="#63b8ff" points="455.37,-91.88 465.37,-88.38 455.37,-84.88 455.37,-91.88"/>
</a>
</g>
</g>
<!-- Node15&#45;&gt;Node13 -->
<g id="edge21_Node000015_Node000013" class="edge">
<title>Node15&#45;&gt;Node13</title>
<g id="a_edge21_Node000015_Node000013"><a xlink:title=" ">
<path fill="none" stroke="#63b8ff" d="M408.58,-98.22C421.59,-102.68 437.22,-108.04 451.52,-112.94"/>
<polygon fill="#63b8ff" stroke="#63b8ff" points="450.1,-116.15 460.7,-116.09 452.37,-109.53 450.1,-116.15"/>
</a>
</g>
</g>
<!-- Node16&#45;&gt;Node11 -->
<g id="edge23_Node000016_Node000011" class="edge">
<title>Node16&#45;&gt;Node11</title>
<g id="a_edge23_Node000016_Node000011"><a xlink:title=" ">
<path fill="none" stroke="#63b8ff" d="M406.41,-116.52C411.69,-113.86 417.06,-110.79 421.75,-107.38 440.56,-93.69 439.38,-83.65 457.75,-69.38 459.22,-68.23 460.77,-67.11 462.35,-66.03"/>
<polygon fill="#63b8ff" stroke="#63b8ff" points="463.78,-69.26 470.42,-61 460.08,-63.32 463.78,-69.26"/>
</a>
</g>
</g>
<!-- Node16&#45;&gt;Node12 -->
<g id="edge24_Node000016_Node000012" class="edge">
<title>Node16&#45;&gt;Node12</title>
<g id="a_edge24_Node000016_Node000012"><a xlink:title=" ">
<path fill="none" stroke="#63b8ff" d="M410.06,-117.03C424.25,-112.16 441.32,-106.31 456.31,-101.17"/>
<polygon fill="#63b8ff" stroke="#63b8ff" points="457.04,-104.62 465.36,-98.06 454.77,-98 457.04,-104.62"/>
</a>
</g>
</g>
<!-- Node16&#45;&gt;Node13 -->
<g id="edge25_Node000016_Node000013" class="edge">
<title>Node16&#45;&gt;Node13</title>
<g id="a_edge25_Node000016_Node000013"><a xlink:title=" ">
<path fill="none" stroke="#63b8ff" d="M410.06,-127.38C421.13,-127.38 433.95,-127.38 446.17,-127.38"/>
<polygon fill="#63b8ff" stroke="#63b8ff" points="446.12,-130.88 456.12,-127.38 446.12,-123.88 446.12,-130.88"/>
</a>
</g>
</g>
<!-- Node17&#45;&gt;Node11 -->
<g id="edge28_Node000017_Node000011" class="edge">
<title>Node17&#45;&gt;Node11</title>
<g id="a_edge28_Node000017_Node000011"><a xlink:title=" ">
<path fill="none" stroke="#63b8ff" d="M421.59,-49.38C432.09,-49.38 443.34,-49.38 453.75,-49.38"/>
<polygon fill="#63b8ff" stroke="#63b8ff" points="453.55,-52.88 463.55,-49.38 453.55,-45.88 453.55,-52.88"/>
</a>
</g>
</g>
<!-- Node17&#45;&gt;Node12 -->
<g id="edge29_Node000017_Node000012" class="edge">
<title>Node17&#45;&gt;Node12</title>
<g id="a_edge29_Node000017_Node000012"><a xlink:title=" ">
<path fill="none" stroke="#63b8ff" d="M411.56,-60.24C425.39,-64.98 441.71,-70.58 456.14,-75.52"/>
<polygon fill="#63b8ff" stroke="#63b8ff" points="454.7,-78.73 465.3,-78.66 456.97,-72.11 454.7,-78.73"/>
</a>
</g>
</g>
<!-- Node17&#45;&gt;Node13 -->
<g id="edge30_Node000017_Node000013" class="edge">
<title>Node17&#45;&gt;Node13</title>
<g id="a_edge30_Node000017_Node000013"><a xlink:title=" ">
<path fill="none" stroke="#63b8ff" d="M406.41,-60.23C411.69,-62.89 417.06,-65.96 421.75,-69.38 440.56,-83.06 439.38,-93.1 457.75,-107.38 459.22,-108.52 460.77,-109.64 462.35,-110.72"/>
<polygon fill="#63b8ff" stroke="#63b8ff" points="460.08,-113.43 470.42,-115.75 463.78,-107.49 460.08,-113.43"/>
</a>
</g>
</g>
</g>
</svg>
