<?xml version="1.0" encoding="UTF-8" standalone="no"?>
<!DOCTYPE svg PUBLIC "-//W3C//DTD SVG 1.1//EN"
 "http://www.w3.org/Graphics/SVG/1.1/DTD/svg11.dtd">
<!-- Generated by graphviz version 14.0.5 (0)
 -->
<!-- Title: setup Pages: 1 -->
<svg width="658pt" height="287pt"
 viewBox="0.00 0.00 658.00 287.00" xmlns="http://www.w3.org/2000/svg" xmlns:xlink="http://www.w3.org/1999/xlink">
<g id="graph0" class="graph" transform="scale(1 1) rotate(0) translate(4 282.63)">
<title>setup</title>
<!-- Node1 -->
<g id="Node000001" class="node">
<title>Node1</title>
<g id="a_Node000001"><a xlink:title="Inicializações principais (ADC, PWM, entradas e rádio).">
<polygon fill="#999999" stroke="#666666" points="43,-173.75 0,-173.75 0,-153 43,-153 43,-173.75"/>
<text xml:space="preserve" text-anchor="middle" x="21.5" y="-160.25" font-family="Helvetica,sans-Serif" font-size="10.00">setup</text>
</a>
</g>
</g>
<!-- Node2 -->
<g id="Node000002" class="node">
<title>Node2</title>
<g id="a_Node000002"><a xlink:href="controle_8c.html#af5e0a217880b6f6976ff1c2b1297f7a3" target="_top" xlink:title="Inicializa o ADC do AVR para leitura dos analógicos.">
<polygon fill="white" stroke="#666666" points="152,-268.75 86.5,-268.75 86.5,-248 152,-248 152,-268.75"/>
<text xml:space="preserve" text-anchor="middle" x="119.25" y="-255.25" font-family="Helvetica,sans-Serif" font-size="10.00">adc_setup</text>
</a>
</g>
</g>
<!-- Node1&#45;&gt;Node2 -->
<g id="edge1_Node000001_Node000002" class="edge">
<title>Node1&#45;&gt;Node2</title>
<g id="a_edge1_Node000001_Node000002"><a xlink:title=" ">
<path fill="none" stroke="#63b8ff" d="M29.19,-173.96C38.88,-188.73 57.99,-215.81 79,-234.38 81.81,-236.86 84.92,-239.24 88.11,-241.48"/>
<polygon fill="#63b8ff" stroke="#63b8ff" points="86.17,-244.39 96.48,-246.86 89.96,-238.51 86.17,-244.39"/>
</a>
</g>
</g>
<!-- Node3 -->
<g id="Node000003" class="node">
<title>Node3</title>
<g id="a_Node000003"><a xlink:href="carrinho_2nrf24__avr_8c.html#ab6fb4c1aa834152310116e7dec65d8e3" target="_top" xlink:title=" ">
<polygon fill="white" stroke="#666666" points="156.12,-154.75 82.38,-154.75 82.38,-134 156.12,-134 156.12,-154.75"/>
<text xml:space="preserve" text-anchor="middle" x="119.25" y="-141.25" font-family="Helvetica,sans-Serif" font-size="10.00">nrf24_begin</text>
</a>
</g>
</g>
<!-- Node1&#45;&gt;Node3 -->
<g id="edge2_Node000001_Node000003" class="edge">
<title>Node1&#45;&gt;Node3</title>
<g id="a_edge2_Node000001_Node000003"><a xlink:title=" ">
<path fill="none" stroke="#63b8ff" d="M43.28,-159.25C51.42,-157.64 61.12,-155.71 70.8,-153.79"/>
<polygon fill="#63b8ff" stroke="#63b8ff" points="71.45,-157.23 80.58,-151.85 70.09,-150.36 71.45,-157.23"/>
</a>
</g>
</g>
<!-- Node14 -->
<g id="Node000014" class="node">
<title>Node14</title>
<g id="a_Node000014"><a xlink:href="carrinho_2nrf24__avr_8c.html#a21d638882f746748de35324bdc21f448" target="_top" xlink:title=" ">
<polygon fill="white" stroke="#666666" points="322.5,-212.75 195.5,-212.75 195.5,-192 322.5,-192 322.5,-212.75"/>
<text xml:space="preserve" text-anchor="middle" x="259" y="-199.25" font-family="Helvetica,sans-Serif" font-size="10.00">nrf24_openWritingPipe</text>
</a>
</g>
</g>
<!-- Node1&#45;&gt;Node14 -->
<g id="edge17_Node000001_Node000014" class="edge">
<title>Node1&#45;&gt;Node14</title>
<g id="a_edge17_Node000001_Node000014"><a xlink:title=" ">
<path fill="none" stroke="#63b8ff" d="M43.4,-166.84C74.68,-172.02 135.21,-182.04 184.03,-190.13"/>
<polygon fill="#63b8ff" stroke="#63b8ff" points="183.28,-193.55 193.71,-191.73 184.42,-186.64 183.28,-193.55"/>
</a>
</g>
</g>
<!-- Node15 -->
<g id="Node000015" class="node">
<title>Node15</title>
<g id="a_Node000015"><a xlink:href="carrinho_2nrf24__avr_8c.html#a33899bc3c0f4d2293f37c306d0b8e297" target="_top" xlink:title=" ">
<polygon fill="white" stroke="#666666" points="315,-251.75 203,-251.75 203,-231 315,-231 315,-251.75"/>
<text xml:space="preserve" text-anchor="middle" x="259" y="-238.25" font-family="Helvetica,sans-Serif" font-size="10.00">nrf24_stopListening</text>
</a>
</g>
</g>
<!-- Node1&#45;&gt;Node15 -->
<g id="edge19_Node000001_Node000015" class="edge">
<title>Node1&#45;&gt;Node15</title>
<g id="a_edge19_Node000001_Node000015"><a xlink:title=" ">
<path fill="none" stroke="#63b8ff" d="M40.32,-174.18C51.21,-180.43 65.57,-188.09 79,-193.38 116.28,-208.05 159.64,-219.81 194.35,-228.01"/>
<polygon fill="#63b8ff" stroke="#63b8ff" points="193.29,-231.36 203.83,-230.21 194.87,-224.54 193.29,-231.36"/>
</a>
</g>
</g>
<!-- Node17 -->
<g id="Node000017" class="node">
<title>Node17</title>
<g id="a_Node000017"><a xlink:href="controle_8c.html#a6b11f55ddc2f9d1125c97a47e4a799f6" target="_top" xlink:title="Configura PWM dos pinos LED1 e LED2.">
<polygon fill="white" stroke="#666666" points="155.38,-115.75 83.12,-115.75 83.12,-95 155.38,-95 155.38,-115.75"/>
<text xml:space="preserve" text-anchor="middle" x="119.25" y="-102.25" font-family="Helvetica,sans-Serif" font-size="10.00">pwm_setup</text>
</a>
</g>
</g>
<!-- Node1&#45;&gt;Node17 -->
<g id="edge26_Node000001_Node000017" class="edge">
<title>Node1&#45;&gt;Node17</title>
<g id="a_edge26_Node000001_Node000017"><a xlink:title=" ">
<path fill="none" stroke="#63b8ff" d="M37.53,-152.54C48.73,-144.65 64.53,-133.89 79,-125.38 81.28,-124.03 83.66,-122.69 86.07,-121.37"/>
<polygon fill="#63b8ff" stroke="#63b8ff" points="87.45,-124.6 94.65,-116.83 84.18,-118.41 87.45,-124.6"/>
</a>
</g>
</g>
<!-- Node18 -->
<g id="Node000018" class="node">
<title>Node18</title>
<g id="a_Node000018"><a xlink:href="controle_8c.html#a4f423fe45bf39bb0e907e6287b57eb55" target="_top" xlink:title=" ">
<polygon fill="white" stroke="#666666" points="159.5,-76.75 79,-76.75 79,-56 159.5,-56 159.5,-76.75"/>
<text xml:space="preserve" text-anchor="middle" x="119.25" y="-63.25" font-family="Helvetica,sans-Serif" font-size="10.00">timer0_setup</text>
</a>
</g>
</g>
<!-- Node1&#45;&gt;Node18 -->
<g id="edge27_Node000001_Node000018" class="edge">
<title>Node1&#45;&gt;Node18</title>
<g id="a_edge27_Node000001_Node000018"><a xlink:title=" ">
<path fill="none" stroke="#63b8ff" d="M28.17,-152.69C37.15,-136.59 56.01,-105.92 79,-86.38 80.27,-85.29 81.62,-84.25 83.01,-83.24"/>
<polygon fill="#63b8ff" stroke="#63b8ff" points="84.75,-86.28 91.38,-78.02 81.04,-80.35 84.75,-86.28"/>
</a>
</g>
</g>
<!-- Node4 -->
<g id="Node000004" class="node">
<title>Node4</title>
<g id="a_Node000004"><a xlink:href="carrinho_2nrf24__avr_8c.html#a77c5f7c57c01266d04faea3052a47f49" target="_top" xlink:title=" ">
<polygon fill="white" stroke="#666666" points="414.25,-270.75 364.5,-270.75 364.5,-250 414.25,-250 414.25,-270.75"/>
<text xml:space="preserve" text-anchor="middle" x="389.38" y="-257.25" font-family="Helvetica,sans-Serif" font-size="10.00">ce_low</text>
</a>
</g>
</g>
<!-- Node3&#45;&gt;Node4 -->
<g id="edge3_Node000003_Node000004" class="edge">
<title>Node3&#45;&gt;Node4</title>
<g id="a_edge3_Node000003_Node000004"><a xlink:title=" ">
<path fill="none" stroke="#63b8ff" d="M123.31,-154.95C130.89,-178.97 153.1,-237.34 195.5,-260.38 244.88,-287.2 312.41,-278.85 353.07,-269.92"/>
<polygon fill="#63b8ff" stroke="#63b8ff" points="353.62,-273.39 362.56,-267.7 352.03,-266.57 353.62,-273.39"/>
</a>
</g>
</g>
<!-- Node6 -->
<g id="Node000006" class="node">
<title>Node6</title>
<g id="a_Node000006"><a xlink:href="carrinho_2nrf24__avr_8c.html#adaef88bc02a8e805de3b3a82bf317549" target="_top" xlink:title=" ">
<polygon fill="white" stroke="#666666" points="522.5,-153.75 463.75,-153.75 463.75,-133 522.5,-133 522.5,-153.75"/>
<text xml:space="preserve" text-anchor="middle" x="493.12" y="-140.25" font-family="Helvetica,sans-Serif" font-size="10.00">csn_high</text>
</a>
</g>
</g>
<!-- Node3&#45;&gt;Node6 -->
<g id="edge5_Node000003_Node000006" class="edge">
<title>Node3&#45;&gt;Node6</title>
<g id="a_edge5_Node000003_Node000006"><a xlink:title=" ">
<path fill="none" stroke="#63b8ff" d="M156.42,-136.25C168.75,-133.86 182.66,-131.56 195.5,-130.38 287.03,-121.93 394.97,-131.56 452.04,-138.18"/>
<polygon fill="#63b8ff" stroke="#63b8ff" points="451.58,-141.65 461.93,-139.36 452.41,-134.7 451.58,-141.65"/>
</a>
</g>
</g>
<!-- Node7 -->
<g id="Node000007" class="node">
<title>Node7</title>
<g id="a_Node000007"><a xlink:href="carrinho_2nrf24__avr_8c.html#a023289d1e49bf7f3b61e0e1c5312c8cf" target="_top" xlink:title=" ">
<polygon fill="white" stroke="#666666" points="307.12,-59.75 210.88,-59.75 210.88,-39 307.12,-39 307.12,-59.75"/>
<text xml:space="preserve" text-anchor="middle" x="259" y="-46.25" font-family="Helvetica,sans-Serif" font-size="10.00">nrf24_init_hwspi</text>
</a>
</g>
</g>
<!-- Node3&#45;&gt;Node7 -->
<g id="edge7_Node000003_Node000007" class="edge">
<title>Node3&#45;&gt;Node7</title>
<g id="a_edge7_Node000003_Node000007"><a xlink:title=" ">
<path fill="none" stroke="#63b8ff" d="M145.89,-133.59C150.68,-130.96 155.45,-127.88 159.5,-124.38 180.47,-106.21 173.61,-90.42 195.5,-73.38 199.53,-70.24 204.02,-67.47 208.69,-65.04"/>
<polygon fill="#63b8ff" stroke="#63b8ff" points="210.11,-68.24 217.72,-60.87 207.17,-61.88 210.11,-68.24"/>
</a>
</g>
</g>
<!-- Node9 -->
<g id="Node000009" class="node">
<title>Node9</title>
<g id="a_Node000009"><a xlink:href="carrinho_2nrf24__avr_8c.html#aaf2900e7932ebbf7f0ecdc6bce5840e1" target="_top" xlink:title=" ">
<polygon fill="white" stroke="#666666" points="319.5,-173.75 198.5,-173.75 198.5,-153 319.5,-153 319.5,-173.75"/>
<text xml:space="preserve" text-anchor="middle" x="259" y="-160.25" font-family="Helvetica,sans-Serif" font-size="10.00">nrf24_setPayloadSize</text>
</a>
</g>
</g>
<!-- Node3&#45;&gt;Node9 -->
<g id="edge9_Node000003_Node000009" class="edge">
<title>Node3&#45;&gt;Node9</title>
<g id="a_edge9_Node000003_Node000009"><a xlink:title=" ">
<path fill="none" stroke="#63b8ff" d="M156.44,-149.37C165.81,-150.66 176.22,-152.1 186.72,-153.54"/>
<polygon fill="#63b8ff" stroke="#63b8ff" points="186.2,-157 196.58,-154.9 187.15,-150.07 186.2,-157"/>
</a>
</g>
</g>
<!-- Node10 -->
<g id="Node000010" class="node">
<title>Node10</title>
<g id="a_Node000010"><a xlink:href="carrinho_2nrf24__avr_8c.html#a08bc978021db604d02a6da754f73e7e2" target="_top" xlink:title=" ">
<polygon fill="white" stroke="#666666" points="420.25,-192.75 358.5,-192.75 358.5,-172 420.25,-172 420.25,-192.75"/>
<text xml:space="preserve" text-anchor="middle" x="389.38" y="-179.25" font-family="Helvetica,sans-Serif" font-size="10.00">write_reg</text>
</a>
</g>
</g>
<!-- Node3&#45;&gt;Node10 -->
<g id="edge16_Node000003_Node000010" class="edge">
<title>Node3&#45;&gt;Node10</title>
<g id="a_edge16_Node000003_Node000010"><a xlink:title=" ">
<path fill="none" stroke="#63b8ff" d="M156.42,-138.83C197.46,-133.8 266.03,-129.25 322.5,-144.38 337.84,-148.48 353.32,-157.12 365.41,-165.13"/>
<polygon fill="#63b8ff" stroke="#63b8ff" points="363.24,-167.88 373.45,-170.72 367.24,-162.14 363.24,-167.88"/>
</a>
</g>
</g>
<!-- Node13 -->
<g id="Node000013" class="node">
<title>Node13</title>
<g id="a_Node000013"><a xlink:href="carrinho_2nrf24__avr_8c.html#aa3db4917fa58896ce0a8027a30795033" target="_top" xlink:title=" ">
<polygon fill="white" stroke="#666666" points="293.62,-20.75 224.38,-20.75 224.38,0 293.62,0 293.62,-20.75"/>
<text xml:space="preserve" text-anchor="middle" x="259" y="-7.25" font-family="Helvetica,sans-Serif" font-size="10.00">pinMode_d</text>
</a>
</g>
</g>
<!-- Node3&#45;&gt;Node13 -->
<g id="edge15_Node000003_Node000013" class="edge">
<title>Node3&#45;&gt;Node13</title>
<g id="a_edge15_Node000003_Node000013"><a xlink:title=" ">
<path fill="none" stroke="#63b8ff" d="M147.84,-133.64C152.14,-131.08 156.23,-128.01 159.5,-124.38 189.42,-91.12 162.99,-61.11 195.5,-30.38 200.61,-25.55 206.88,-21.88 213.46,-19.11"/>
<polygon fill="#63b8ff" stroke="#63b8ff" points="214.24,-22.54 222.51,-15.93 211.92,-15.94 214.24,-22.54"/>
</a>
</g>
</g>
<!-- Node5 -->
<g id="Node000005" class="node">
<title>Node5</title>
<g id="a_Node000005"><a xlink:href="carrinho_2nrf24__avr_8c.html#a019970fc17b6b18fa4e45e0baf22c93f" target="_top" xlink:title=" ">
<polygon fill="white" stroke="#666666" points="650.25,-231.75 566,-231.75 566,-211 650.25,-211 650.25,-231.75"/>
<text xml:space="preserve" text-anchor="middle" x="608.12" y="-218.25" font-family="Helvetica,sans-Serif" font-size="10.00">digitalWrite_d</text>
</a>
</g>
</g>
<!-- Node4&#45;&gt;Node5 -->
<g id="edge4_Node000004_Node000005" class="edge">
<title>Node4&#45;&gt;Node5</title>
<g id="a_edge4_Node000004_Node000005"><a xlink:title=" ">
<path fill="none" stroke="#63b8ff" d="M414.71,-257.63C442.67,-254.31 489.86,-248.17 530,-240.38 538.28,-238.77 547.01,-236.84 555.5,-234.84"/>
<polygon fill="#63b8ff" stroke="#63b8ff" points="556.1,-238.3 564.99,-232.55 554.45,-231.49 556.1,-238.3"/>
</a>
</g>
</g>
<!-- Node6&#45;&gt;Node5 -->
<g id="edge6_Node000006_Node000005" class="edge">
<title>Node6&#45;&gt;Node5</title>
<g id="a_edge6_Node000006_Node000005"><a xlink:title=" ">
<path fill="none" stroke="#63b8ff" d="M514.52,-154.11C519.66,-156.99 525.1,-160.19 530,-163.38 549.31,-175.93 570.12,-191.73 585.25,-203.66"/>
<polygon fill="#63b8ff" stroke="#63b8ff" points="582.69,-206.1 592.69,-209.59 587.05,-200.62 582.69,-206.1"/>
</a>
</g>
</g>
<!-- Node8 -->
<g id="Node000008" class="node">
<title>Node8</title>
<g id="a_Node000008"><a xlink:href="carrinho_2nrf24__avr_8c.html#aa653f4dc3541758224a53eef3f04d490" target="_top" xlink:title=" ">
<polygon fill="white" stroke="#666666" points="415,-59.75 363.75,-59.75 363.75,-39 415,-39 415,-59.75"/>
<text xml:space="preserve" text-anchor="middle" x="389.38" y="-46.25" font-family="Helvetica,sans-Serif" font-size="10.00">spi_init</text>
</a>
</g>
</g>
<!-- Node7&#45;&gt;Node8 -->
<g id="edge8_Node000007_Node000008" class="edge">
<title>Node7&#45;&gt;Node8</title>
<g id="a_edge8_Node000007_Node000008"><a xlink:title=" ">
<path fill="none" stroke="#63b8ff" d="M307.44,-49.38C322.28,-49.38 338.41,-49.38 352.33,-49.38"/>
<polygon fill="#63b8ff" stroke="#63b8ff" points="351.92,-52.88 361.92,-49.38 351.92,-45.88 351.92,-52.88"/>
</a>
</g>
</g>
<!-- Node9&#45;&gt;Node10 -->
<g id="edge10_Node000009_Node000010" class="edge">
<title>Node9&#45;&gt;Node10</title>
<g id="a_edge10_Node000009_Node000010"><a xlink:title=" ">
<path fill="none" stroke="#63b8ff" d="M319.68,-172.21C328.86,-173.57 338.17,-174.94 346.84,-176.23"/>
<polygon fill="#63b8ff" stroke="#63b8ff" points="346.3,-179.69 356.71,-177.69 347.33,-172.76 346.3,-179.69"/>
</a>
</g>
</g>
<!-- Node10&#45;&gt;Node6 -->
<g id="edge11_Node000010_Node000006" class="edge">
<title>Node10&#45;&gt;Node6</title>
<g id="a_edge11_Node000010_Node000006"><a xlink:title=" ">
<path fill="none" stroke="#63b8ff" d="M418.72,-171.51C429.41,-167.41 441.77,-162.67 453.26,-158.27"/>
<polygon fill="#63b8ff" stroke="#63b8ff" points="454.44,-161.57 462.52,-154.72 451.93,-155.03 454.44,-161.57"/>
</a>
</g>
</g>
<!-- Node11 -->
<g id="Node000011" class="node">
<title>Node11</title>
<g id="a_Node000011"><a xlink:href="carrinho_2nrf24__avr_8c.html#a42f8c1120431b7c37e116a4e1eac1cc2" target="_top" xlink:title=" ">
<polygon fill="white" stroke="#666666" points="520.62,-231.75 465.62,-231.75 465.62,-211 520.62,-211 520.62,-231.75"/>
<text xml:space="preserve" text-anchor="middle" x="493.12" y="-218.25" font-family="Helvetica,sans-Serif" font-size="10.00">csn_low</text>
</a>
</g>
</g>
<!-- Node10&#45;&gt;Node11 -->
<g id="edge12_Node000010_Node000011" class="edge">
<title>Node10&#45;&gt;Node11</title>
<g id="a_edge12_Node000010_Node000011"><a xlink:title=" ">
<path fill="none" stroke="#63b8ff" d="M418.72,-193.24C429.88,-197.52 442.86,-202.49 454.78,-207.06"/>
<polygon fill="#63b8ff" stroke="#63b8ff" points="453.33,-210.25 463.92,-210.56 455.83,-203.72 453.33,-210.25"/>
</a>
</g>
</g>
<!-- Node12 -->
<g id="Node000012" class="node">
<title>Node12</title>
<g id="a_Node000012"><a xlink:href="carrinho_2nrf24__avr_8c.html#a8d161d483c095113df5b69798e9cd725" target="_top" xlink:title=" ">
<polygon fill="white" stroke="#666666" points="530,-192.75 456.25,-192.75 456.25,-172 530,-172 530,-192.75"/>
<text xml:space="preserve" text-anchor="middle" x="493.12" y="-179.25" font-family="Helvetica,sans-Serif" font-size="10.00">spi_transfer</text>
</a>
</g>
</g>
<!-- Node10&#45;&gt;Node12 -->
<g id="edge14_Node000010_Node000012" class="edge">
<title>Node10&#45;&gt;Node12</title>
<g id="a_edge14_Node000010_Node000012"><a xlink:title=" ">
<path fill="none" stroke="#63b8ff" d="M420.63,-182.38C428.19,-182.38 436.49,-182.38 444.67,-182.38"/>
<polygon fill="#63b8ff" stroke="#63b8ff" points="444.55,-185.88 454.55,-182.38 444.55,-178.88 444.55,-185.88"/>
</a>
</g>
</g>
<!-- Node11&#45;&gt;Node5 -->
<g id="edge13_Node000011_Node000005" class="edge">
<title>Node11&#45;&gt;Node5</title>
<g id="a_edge13_Node000011_Node000005"><a xlink:title=" ">
<path fill="none" stroke="#63b8ff" d="M520.9,-221.38C530.89,-221.38 542.61,-221.38 554.13,-221.38"/>
<polygon fill="#63b8ff" stroke="#63b8ff" points="554,-224.88 564,-221.38 554,-217.88 554,-224.88"/>
</a>
</g>
</g>
<!-- Node14&#45;&gt;Node10 -->
<g id="edge18_Node000014_Node000010" class="edge">
<title>Node14&#45;&gt;Node10</title>
<g id="a_edge18_Node000014_Node000010"><a xlink:title=" ">
<path fill="none" stroke="#63b8ff" d="M322.68,-192.61C330.88,-191.33 339.12,-190.05 346.84,-188.85"/>
<polygon fill="#63b8ff" stroke="#63b8ff" points="347.28,-192.32 356.62,-187.32 346.2,-185.4 347.28,-192.32"/>
</a>
</g>
</g>
<!-- Node15&#45;&gt;Node4 -->
<g id="edge20_Node000015_Node000004" class="edge">
<title>Node15&#45;&gt;Node4</title>
<g id="a_edge20_Node000015_Node000004"><a xlink:title=" ">
<path fill="none" stroke="#63b8ff" d="M315.19,-249.54C328.03,-251.44 341.37,-253.42 353.08,-255.15"/>
<polygon fill="#63b8ff" stroke="#63b8ff" points="352.27,-258.57 362.67,-256.57 353.3,-251.64 352.27,-258.57"/>
</a>
</g>
</g>
<!-- Node15&#45;&gt;Node10 -->
<g id="edge25_Node000015_Node000010" class="edge">
<title>Node15&#45;&gt;Node10</title>
<g id="a_edge25_Node000015_Node000010"><a xlink:title=" ">
<path fill="none" stroke="#63b8ff" d="M298.52,-230.55C306.57,-227.87 314.91,-224.78 322.5,-221.38 336.28,-215.18 350.82,-206.8 362.72,-199.39"/>
<polygon fill="#63b8ff" stroke="#63b8ff" points="364.58,-202.35 371.13,-194.03 360.82,-196.45 364.58,-202.35"/>
</a>
</g>
</g>
<!-- Node16 -->
<g id="Node000016" class="node">
<title>Node16</title>
<g id="a_Node000016"><a xlink:href="carrinho_2nrf24__avr_8c.html#abefdb1d58b989853c0646a6c8b18b7d3" target="_top" xlink:title=" ">
<polygon fill="white" stroke="#666666" points="418.75,-231.75 360,-231.75 360,-211 418.75,-211 418.75,-231.75"/>
<text xml:space="preserve" text-anchor="middle" x="389.38" y="-218.25" font-family="Helvetica,sans-Serif" font-size="10.00">read_reg</text>
</a>
</g>
</g>
<!-- Node15&#45;&gt;Node16 -->
<g id="edge21_Node000015_Node000016" class="edge">
<title>Node15&#45;&gt;Node16</title>
<g id="a_edge21_Node000015_Node000016"><a xlink:title=" ">
<path fill="none" stroke="#63b8ff" d="M315.19,-232.78C326.35,-231.04 337.88,-229.24 348.39,-227.6"/>
<polygon fill="#63b8ff" stroke="#63b8ff" points="348.92,-231.06 358.26,-226.07 347.84,-224.15 348.92,-231.06"/>
</a>
</g>
</g>
<!-- Node16&#45;&gt;Node6 -->
<g id="edge22_Node000016_Node000006" class="edge">
<title>Node16&#45;&gt;Node6</title>
<g id="a_edge22_Node000016_Node000006"><a xlink:title=" ">
<path fill="none" stroke="#63b8ff" d="M407.91,-210.58C412.09,-207.76 416.43,-204.6 420.25,-201.38 438.03,-186.37 437.88,-177.65 456.25,-163.38 457.72,-162.23 459.27,-161.11 460.85,-160.03"/>
<polygon fill="#63b8ff" stroke="#63b8ff" points="462.28,-163.26 468.92,-155 458.58,-157.32 462.28,-163.26"/>
</a>
</g>
</g>
<!-- Node16&#45;&gt;Node11 -->
<g id="edge23_Node000016_Node000011" class="edge">
<title>Node16&#45;&gt;Node11</title>
<g id="a_edge23_Node000016_Node000011"><a xlink:title=" ">
<path fill="none" stroke="#63b8ff" d="M418.99,-221.38C429.92,-221.38 442.56,-221.38 454.23,-221.38"/>
<polygon fill="#63b8ff" stroke="#63b8ff" points="453.96,-224.88 463.96,-221.38 453.96,-217.88 453.96,-224.88"/>
</a>
</g>
</g>
<!-- Node16&#45;&gt;Node12 -->
<g id="edge24_Node000016_Node000012" class="edge">
<title>Node16&#45;&gt;Node12</title>
<g id="a_edge24_Node000016_Node000012"><a xlink:title=" ">
<path fill="none" stroke="#63b8ff" d="M418.72,-210.51C429.41,-206.41 441.77,-201.67 453.26,-197.27"/>
<polygon fill="#63b8ff" stroke="#63b8ff" points="454.44,-200.57 462.52,-193.72 451.93,-194.03 454.44,-200.57"/>
</a>
</g>
</g>
</g>
</svg>
