<?xml version="1.0" encoding="UTF-8" standalone="no"?>
<!DOCTYPE svg PUBLIC "-//W3C//DTD SVG 1.1//EN"
 "http://www.w3.org/Graphics/SVG/1.1/DTD/svg11.dtd">
<!-- Generated by graphviz version 14.0.4 (0)
 -->
<!-- Title: controle/RF24_config.h Pages: 1 -->
<svg width="246pt" height="142pt"
 viewBox="0.00 0.00 246.00 142.00" xmlns="http://www.w3.org/2000/svg" xmlns:xlink="http://www.w3.org/1999/xlink">

<svg id="main" version="1.1" xmlns="http://www.w3.org/2000/svg" xmlns:xlink="http://www.w3.org/1999/xlink" xml:space="preserve">

<style type="text/css"><![CDATA[
.node, .edge {opacity: 0.7;}
.node.selected, .edge.selected {opacity: 1;}
.edge:hover path { stroke: red; }
.edge:hover polygon { stroke: red; fill: red; }
]]></style>
<script type="application/ecmascript" xlink:href="svg.min.js"/>
<svg id="graph" class="graph">
<g id="graph0" class="graph" transform="scale(1 1) rotate(0) translate(4 138.25)">
<title>controle/RF24_config.h</title>
<!-- Node1 -->
<g id="Node000001" class="node">
<title>Node1</title>
<g id="a_Node000001"><a xlink:title=" ">
<polygon fill="#999999" stroke="#666666" points="162.62,-134.25 34.88,-134.25 34.88,-113.5 162.62,-113.5 162.62,-134.25"/>
<text xml:space="preserve" text-anchor="middle" x="98.75" y="-120.75" font-family="Helvetica,sans-Serif" font-size="10.00">controle/RF24_config.h</text>
</a>
</g>
</g>
<!-- Node2 -->
<g id="Node000002" class="node">
<title>Node2</title>
<g id="a_Node000002"><a xlink:href="controle_2nrf24__avr_8c.html" target="_top" xlink:title=" ">
<polygon fill="white" stroke="#666666" points="113.5,-20.75 0,-20.75 0,0 113.5,0 113.5,-20.75"/>
<text xml:space="preserve" text-anchor="middle" x="56.75" y="-7.25" font-family="Helvetica,sans-Serif" font-size="10.00">controle/nrf24_avr.c</text>
</a>
</g>
</g>
<!-- Node1&#45;&gt;Node2 -->
<g id="edge1_Node000001_Node000002" class="edge">
<title>Node1&#45;&gt;Node2</title>
<g id="a_edge1_Node000001_Node000002"><a xlink:title=" ">
<path fill="none" stroke="#63b8ff" d="M87.69,-103.07C83.59,-95.26 79.13,-86.1 75.75,-77.5 68.06,-57.93 61.96,-34.02 58.9,-20.98"/>
<polygon fill="#63b8ff" stroke="#63b8ff" points="84.52,-104.57 92.35,-111.7 90.67,-101.24 84.52,-104.57"/>
</a>
</g>
</g>
<!-- Node3 -->
<g id="Node000003" class="node">
<title>Node3</title>
<g id="a_Node000003"><a xlink:href="controle_2nrf24__avr_8h.html" target="_top" xlink:title=" ">
<polygon fill="white" stroke="#666666" points="198.88,-77.5 84.62,-77.5 84.62,-56.75 198.88,-56.75 198.88,-77.5"/>
<text xml:space="preserve" text-anchor="middle" x="141.75" y="-64" font-family="Helvetica,sans-Serif" font-size="10.00">controle/nrf24_avr.h</text>
</a>
</g>
</g>
<!-- Node1&#45;&gt;Node3 -->
<g id="edge2_Node000001_Node000003" class="edge">
<title>Node1&#45;&gt;Node3</title>
<g id="a_edge2_Node000001_Node000003"><a xlink:title=" ">
<path fill="none" stroke="#63b8ff" d="M113.41,-104.21C120.37,-95.34 128.4,-85.12 134.13,-77.83"/>
<polygon fill="#63b8ff" stroke="#63b8ff" points="110.8,-101.87 107.37,-111.9 116.3,-106.19 110.8,-101.87"/>
</a>
</g>
</g>
<!-- Node3&#45;&gt;Node2 -->
<g id="edge4_Node000003_Node000002" class="edge">
<title>Node3&#45;&gt;Node2</title>
<g id="a_edge4_Node000003_Node000002"><a xlink:title=" ">
<path fill="none" stroke="#63b8ff" d="M117.08,-50.23C102.44,-40.8 84.35,-29.15 71.81,-21.08"/>
<polygon fill="#63b8ff" stroke="#63b8ff" points="114.98,-53.04 125.28,-55.52 118.77,-47.16 114.98,-53.04"/>
</a>
</g>
</g>
<!-- Node4 -->
<g id="Node000004" class="node">
<title>Node4</title>
<g id="a_Node000004"><a xlink:href="controle_8c.html" target="_top" xlink:title=" ">
<polygon fill="white" stroke="#666666" points="238.12,-20.75 131.38,-20.75 131.38,0 238.12,0 238.12,-20.75"/>
<text xml:space="preserve" text-anchor="middle" x="184.75" y="-7.25" font-family="Helvetica,sans-Serif" font-size="10.00">controle/controle.c</text>
</a>
</g>
</g>
<!-- Node3&#45;&gt;Node4 -->
<g id="edge3_Node000003_Node000004" class="edge">
<title>Node3&#45;&gt;Node4</title>
<g id="a_edge3_Node000003_Node000004"><a xlink:title=" ">
<path fill="none" stroke="#63b8ff" d="M156.41,-47.46C163.37,-38.59 171.4,-28.37 177.13,-21.08"/>
<polygon fill="#63b8ff" stroke="#63b8ff" points="153.8,-45.12 150.37,-55.15 159.3,-49.44 153.8,-45.12"/>
</a>
</g>
</g>
</g>
</svg>
</svg>

<style type='text/css'>
<![CDATA[
[data-mouse-over-selected='false'] { opacity: 0.7; }
[data-mouse-over-selected='true']  { opacity: 1.0; }
]]>
</style>
<script type="application/ecmascript"><![CDATA[
document.addEventListener('DOMContentLoaded', (event) => {
  highlightEdges();
  highlightAdjacentNodes();
});
]]></script>
</svg>
