<?xml version="1.0" encoding="UTF-8" standalone="no"?>
<!DOCTYPE svg PUBLIC "-//W3C//DTD SVG 1.1//EN"
 "http://www.w3.org/Graphics/SVG/1.1/DTD/svg11.dtd">
<!-- Generated by graphviz version 14.0.4 (0)
 -->
<!-- Title: nrf24_read Pages: 1 -->
<svg width="425pt" height="107pt"
 viewBox="0.00 0.00 425.00 107.00" xmlns="http://www.w3.org/2000/svg" xmlns:xlink="http://www.w3.org/1999/xlink">

<svg id="main" version="1.1" xmlns="http://www.w3.org/2000/svg" xmlns:xlink="http://www.w3.org/1999/xlink" xml:space="preserve">

<style type="text/css"><![CDATA[
.node, .edge {opacity: 0.7;}
.node.selected, .edge.selected {opacity: 1;}
.edge:hover path { stroke: red; }
.edge:hover polygon { stroke: red; fill: red; }
]]></style>
<script type="application/ecmascript" xlink:href="svg.min.js"/>
<svg id="graph" class="graph">
<g id="graph0" class="graph" transform="scale(1 1) rotate(0) translate(4 102.75)">
<title>nrf24_read</title>
<!-- Node1 -->
<g id="Node000001" class="node">
<title>Node1</title>
<g id="a_Node000001"><a xlink:title=" ">
<polygon fill="#999999" stroke="#666666" points="68.5,-58.75 0,-58.75 0,-38 68.5,-38 68.5,-58.75"/>
<text xml:space="preserve" text-anchor="middle" x="34.25" y="-45.25" font-family="Helvetica,sans-Serif" font-size="10.00">nrf24_read</text>
</a>
</g>
</g>
<!-- Node2 -->
<g id="Node000002" class="node">
<title>Node2</title>
<g id="a_Node000002"><a xlink:href="carrinho_2nrf24__avr_8c.html#ac4a676257b5b86b05f4ea608636cb2cf" target="_top" xlink:title=" ">
<polygon fill="white" stroke="#666666" points="186.5,-78.75 104.5,-78.75 104.5,-58 186.5,-58 186.5,-78.75"/>
<text xml:space="preserve" text-anchor="middle" x="145.5" y="-65.25" font-family="Helvetica,sans-Serif" font-size="10.00">read_payload</text>
</a>
</g>
</g>
<!-- Node1&#45;&gt;Node2 -->
<g id="edge1_Node000001_Node000002" class="edge">
<title>Node1&#45;&gt;Node2</title>
<g id="a_edge1_Node000001_Node000002"><a xlink:title=" ">
<path fill="none" stroke="#63b8ff" d="M68.92,-54.54C76.59,-55.94 84.91,-57.47 93.14,-58.97"/>
<polygon fill="#63b8ff" stroke="#63b8ff" points="92.26,-62.37 102.73,-60.73 93.53,-55.49 92.26,-62.37"/>
</a>
</g>
</g>
<!-- Node7 -->
<g id="Node000007" class="node">
<title>Node7</title>
<g id="a_Node000007"><a xlink:href="carrinho_2nrf24__avr_8c.html#a08bc978021db604d02a6da754f73e7e2" target="_top" xlink:title=" ">
<polygon fill="white" stroke="#666666" points="176.38,-39.75 114.62,-39.75 114.62,-19 176.38,-19 176.38,-39.75"/>
<text xml:space="preserve" text-anchor="middle" x="145.5" y="-26.25" font-family="Helvetica,sans-Serif" font-size="10.00">write_reg</text>
</a>
</g>
</g>
<!-- Node1&#45;&gt;Node7 -->
<g id="edge7_Node000001_Node000007" class="edge">
<title>Node1&#45;&gt;Node7</title>
<g id="a_edge7_Node000001_Node000007"><a xlink:title=" ">
<path fill="none" stroke="#63b8ff" d="M68.92,-42.52C79.83,-40.62 92.05,-38.5 103.44,-36.52"/>
<polygon fill="#63b8ff" stroke="#63b8ff" points="103.72,-40.02 112.97,-34.86 102.52,-33.12 103.72,-40.02"/>
</a>
</g>
</g>
<!-- Node3 -->
<g id="Node000003" class="node">
<title>Node3</title>
<g id="a_Node000003"><a xlink:href="carrinho_2nrf24__avr_8c.html#adaef88bc02a8e805de3b3a82bf317549" target="_top" xlink:title=" ">
<polygon fill="white" stroke="#666666" points="288.75,-59.75 230,-59.75 230,-39 288.75,-39 288.75,-59.75"/>
<text xml:space="preserve" text-anchor="middle" x="259.38" y="-46.25" font-family="Helvetica,sans-Serif" font-size="10.00">csn_high</text>
</a>
</g>
</g>
<!-- Node2&#45;&gt;Node3 -->
<g id="edge2_Node000002_Node000003" class="edge">
<title>Node2&#45;&gt;Node3</title>
<g id="a_edge2_Node000002_Node000003"><a xlink:title=" ">
<path fill="none" stroke="#63b8ff" d="M186.89,-61.52C197.17,-59.77 208.2,-57.9 218.46,-56.15"/>
<polygon fill="#63b8ff" stroke="#63b8ff" points="218.85,-59.64 228.13,-54.51 217.68,-52.74 218.85,-59.64"/>
</a>
</g>
</g>
<!-- Node5 -->
<g id="Node000005" class="node">
<title>Node5</title>
<g id="a_Node000005"><a xlink:href="carrinho_2nrf24__avr_8c.html#a42f8c1120431b7c37e116a4e1eac1cc2" target="_top" xlink:title=" ">
<polygon fill="white" stroke="#666666" points="286.88,-98.75 231.88,-98.75 231.88,-78 286.88,-78 286.88,-98.75"/>
<text xml:space="preserve" text-anchor="middle" x="259.38" y="-85.25" font-family="Helvetica,sans-Serif" font-size="10.00">csn_low</text>
</a>
</g>
</g>
<!-- Node2&#45;&gt;Node5 -->
<g id="edge4_Node000002_Node000005" class="edge">
<title>Node2&#45;&gt;Node5</title>
<g id="a_edge4_Node000002_Node000005"><a xlink:title=" ">
<path fill="none" stroke="#63b8ff" d="M186.89,-75.6C197.83,-77.55 209.63,-79.66 220.43,-81.59"/>
<polygon fill="#63b8ff" stroke="#63b8ff" points="219.72,-85.02 230.18,-83.33 220.95,-78.13 219.72,-85.02"/>
</a>
</g>
</g>
<!-- Node6 -->
<g id="Node000006" class="node">
<title>Node6</title>
<g id="a_Node000006"><a xlink:href="carrinho_2nrf24__avr_8c.html#a8d161d483c095113df5b69798e9cd725" target="_top" xlink:title=" ">
<polygon fill="white" stroke="#666666" points="296.25,-20.75 222.5,-20.75 222.5,0 296.25,0 296.25,-20.75"/>
<text xml:space="preserve" text-anchor="middle" x="259.38" y="-7.25" font-family="Helvetica,sans-Serif" font-size="10.00">spi_transfer</text>
</a>
</g>
</g>
<!-- Node2&#45;&gt;Node6 -->
<g id="edge6_Node000002_Node000006" class="edge">
<title>Node2&#45;&gt;Node6</title>
<g id="a_edge6_Node000002_Node000006"><a xlink:title=" ">
<path fill="none" stroke="#63b8ff" d="M168.13,-57.67C174.1,-54.69 180.56,-51.43 186.5,-48.38 200.23,-41.31 215.35,-33.35 228.16,-26.54"/>
<polygon fill="#63b8ff" stroke="#63b8ff" points="229.78,-29.65 236.97,-21.86 226.49,-23.47 229.78,-29.65"/>
</a>
</g>
</g>
<!-- Node4 -->
<g id="Node000004" class="node">
<title>Node4</title>
<g id="a_Node000004"><a xlink:href="carrinho_2nrf24__avr_8c.html#a019970fc17b6b18fa4e45e0baf22c93f" target="_top" xlink:title=" ">
<polygon fill="white" stroke="#666666" points="416.5,-78.75 332.25,-78.75 332.25,-58 416.5,-58 416.5,-78.75"/>
<text xml:space="preserve" text-anchor="middle" x="374.38" y="-65.25" font-family="Helvetica,sans-Serif" font-size="10.00">digitalWrite_d</text>
</a>
</g>
</g>
<!-- Node3&#45;&gt;Node4 -->
<g id="edge3_Node000003_Node000004" class="edge">
<title>Node3&#45;&gt;Node4</title>
<g id="a_edge3_Node000003_Node000004"><a xlink:title=" ">
<path fill="none" stroke="#63b8ff" d="M289.18,-54.22C298.79,-55.83 309.82,-57.69 320.66,-59.51"/>
<polygon fill="#63b8ff" stroke="#63b8ff" points="319.89,-62.93 330.33,-61.14 321.05,-56.03 319.89,-62.93"/>
</a>
</g>
</g>
<!-- Node5&#45;&gt;Node4 -->
<g id="edge5_Node000005_Node000004" class="edge">
<title>Node5&#45;&gt;Node4</title>
<g id="a_edge5_Node000005_Node000004"><a xlink:title=" ">
<path fill="none" stroke="#63b8ff" d="M287.15,-83.64C297.24,-81.85 309.1,-79.75 320.74,-77.69"/>
<polygon fill="#63b8ff" stroke="#63b8ff" points="321.04,-81.19 330.27,-76 319.82,-74.3 321.04,-81.19"/>
</a>
</g>
</g>
<!-- Node7&#45;&gt;Node3 -->
<g id="edge8_Node000007_Node000003" class="edge">
<title>Node7&#45;&gt;Node3</title>
<g id="a_edge8_Node000007_Node000003"><a xlink:title=" ">
<path fill="none" stroke="#63b8ff" d="M176.77,-34.79C189.62,-37.08 204.76,-39.79 218.49,-42.25"/>
<polygon fill="#63b8ff" stroke="#63b8ff" points="217.67,-45.65 228.13,-43.97 218.9,-38.76 217.67,-45.65"/>
</a>
</g>
</g>
<!-- Node7&#45;&gt;Node5 -->
<g id="edge9_Node000007_Node000005" class="edge">
<title>Node7&#45;&gt;Node5</title>
<g id="a_edge9_Node000007_Node000005"><a xlink:title=" ">
<path fill="none" stroke="#63b8ff" d="M168.57,-40.25C174.42,-43.17 180.72,-46.36 186.5,-49.38 200.61,-56.73 216.13,-65.11 229.14,-72.22"/>
<polygon fill="#63b8ff" stroke="#63b8ff" points="227.17,-75.13 237.62,-76.88 230.53,-69 227.17,-75.13"/>
</a>
</g>
</g>
<!-- Node7&#45;&gt;Node6 -->
<g id="edge10_Node000007_Node000006" class="edge">
<title>Node7&#45;&gt;Node6</title>
<g id="a_edge10_Node000007_Node000006"><a xlink:title=" ">
<path fill="none" stroke="#63b8ff" d="M176.77,-24.23C187.26,-22.45 199.28,-20.41 210.81,-18.45"/>
<polygon fill="#63b8ff" stroke="#63b8ff" points="211.34,-21.91 220.61,-16.79 210.17,-15.01 211.34,-21.91"/>
</a>
</g>
</g>
</g>
</svg>
</svg>

<style type='text/css'>
<![CDATA[
[data-mouse-over-selected='false'] { opacity: 0.7; }
[data-mouse-over-selected='true']  { opacity: 1.0; }
]]>
</style>
<script type="application/ecmascript"><![CDATA[
document.addEventListener('DOMContentLoaded', (event) => {
  highlightEdges();
  highlightAdjacentNodes();
});
]]></script>
</svg>
