<?xml version="1.0" encoding="UTF-8" standalone="no"?>
<!DOCTYPE svg PUBLIC "-//W3C//DTD SVG 1.1//EN"
 "http://www.w3.org/Graphics/SVG/1.1/DTD/svg11.dtd">
<!-- Generated by graphviz version 14.0.4 (0)
 -->
<!-- Title: nrf24_setPayloadSize Pages: 1 -->
<svg width="316pt" height="68pt"
 viewBox="0.00 0.00 316.00 68.00" xmlns="http://www.w3.org/2000/svg" xmlns:xlink="http://www.w3.org/1999/xlink">
<g id="graph0" class="graph" transform="scale(1 1) rotate(0) translate(4 63.75)">
<title>nrf24_setPayloadSize</title>
<!-- Node1 -->
<g id="Node000001" class="node">
<title>Node1</title>
<g id="a_Node000001"><a xlink:title=" ">
<polygon fill="#999999" stroke="#666666" points="307.5,-40.75 186.5,-40.75 186.5,-20 307.5,-20 307.5,-40.75"/>
<text xml:space="preserve" text-anchor="middle" x="247" y="-27.25" font-family="Helvetica,sans-Serif" font-size="10.00">nrf24_setPayloadSize</text>
</a>
</g>
</g>
<!-- Node2 -->
<g id="Node000002" class="node">
<title>Node2</title>
<g id="a_Node000002"><a xlink:href="main_8c.html#a840291bc02cba5474a4cb46a9b9566fe" target="_top" xlink:title=" ">
<polygon fill="white" stroke="#666666" points="40.75,-59.75 0,-59.75 0,-39 40.75,-39 40.75,-59.75"/>
<text xml:space="preserve" text-anchor="middle" x="20.38" y="-46.25" font-family="Helvetica,sans-Serif" font-size="10.00">main</text>
</a>
</g>
</g>
<!-- Node1&#45;&gt;Node2 -->
<g id="edge1_Node000001_Node000002" class="edge">
<title>Node1&#45;&gt;Node2</title>
<g id="a_edge1_Node000001_Node000002"><a xlink:title=" ">
<path fill="none" stroke="#63b8ff" d="M174.81,-36.4C128.2,-40.34 70.61,-45.21 41,-47.71"/>
<polygon fill="#63b8ff" stroke="#63b8ff" points="174.92,-39.9 184.59,-35.57 174.33,-32.92 174.92,-39.9"/>
</a>
</g>
</g>
<!-- Node3 -->
<g id="Node000003" class="node">
<title>Node3</title>
<g id="a_Node000003"><a xlink:href="carrinho_2nrf24__avr_8c.html#ab6fb4c1aa834152310116e7dec65d8e3" target="_top" xlink:title=" ">
<polygon fill="white" stroke="#666666" points="150.5,-21.75 76.75,-21.75 76.75,-1 150.5,-1 150.5,-21.75"/>
<text xml:space="preserve" text-anchor="middle" x="113.62" y="-8.25" font-family="Helvetica,sans-Serif" font-size="10.00">nrf24_begin</text>
</a>
</g>
</g>
<!-- Node1&#45;&gt;Node3 -->
<g id="edge2_Node000001_Node000003" class="edge">
<title>Node1&#45;&gt;Node3</title>
<g id="a_edge2_Node000001_Node000003"><a xlink:title=" ">
<path fill="none" stroke="#63b8ff" d="M174.76,-20.07C166.48,-18.87 158.31,-17.69 150.8,-16.61"/>
<polygon fill="#63b8ff" stroke="#63b8ff" points="174.18,-23.52 184.58,-21.49 175.19,-16.6 174.18,-23.52"/>
</a>
</g>
</g>
<!-- Node3&#45;&gt;Node2 -->
<g id="edge4_Node000003_Node000002" class="edge">
<title>Node3&#45;&gt;Node2</title>
<g id="a_edge4_Node000003_Node000002"><a xlink:title=" ">
<path fill="none" stroke="#63b8ff" d="M76.13,-26.57C64.23,-31.53 51.46,-36.85 41.25,-41.1"/>
<polygon fill="#63b8ff" stroke="#63b8ff" points="77.44,-29.82 85.32,-22.74 74.75,-23.36 77.44,-29.82"/>
</a>
</g>
</g>
<!-- Node4 -->
<g id="Node000004" class="node">
<title>Node4</title>
<g id="a_Node000004"><a xlink:href="carrinho_8c.html#ae66f6b31b5ad750f1fe042a706a4e3d4" target="_top" xlink:title=" ">
<polygon fill="white" stroke="#666666" points="40.75,-20.75 0,-20.75 0,0 40.75,0 40.75,-20.75"/>
<text xml:space="preserve" text-anchor="middle" x="20.38" y="-7.25" font-family="Helvetica,sans-Serif" font-size="10.00">main</text>
</a>
</g>
</g>
<!-- Node3&#45;&gt;Node4 -->
<g id="edge3_Node000003_Node000004" class="edge">
<title>Node3&#45;&gt;Node4</title>
<g id="a_edge3_Node000003_Node000004"><a xlink:title=" ">
<path fill="none" stroke="#63b8ff" d="M64.87,-10.85C56.45,-10.76 48.13,-10.67 41.05,-10.59"/>
<polygon fill="#63b8ff" stroke="#63b8ff" points="64.75,-14.35 74.78,-10.96 64.82,-7.35 64.75,-14.35"/>
</a>
</g>
</g>
</g>
</svg>
