<?xml version="1.0" encoding="UTF-8" standalone="no"?>
<!DOCTYPE svg PUBLIC "-//W3C//DTD SVG 1.1//EN"
 "http://www.w3.org/Graphics/SVG/1.1/DTD/svg11.dtd">
<!-- Generated by graphviz version 14.0.4 (0)
 -->
<!-- Title: controle/nrf24_avr.c Pages: 1 -->
<svg width="440pt" height="142pt"
 viewBox="0.00 0.00 440.00 142.00" xmlns="http://www.w3.org/2000/svg" xmlns:xlink="http://www.w3.org/1999/xlink">

<svg id="main" version="1.1" xmlns="http://www.w3.org/2000/svg" xmlns:xlink="http://www.w3.org/1999/xlink" xml:space="preserve">

<style type="text/css"><![CDATA[
.node, .edge {opacity: 0.7;}
.node.selected, .edge.selected {opacity: 1;}
.edge:hover path { stroke: red; }
.edge:hover polygon { stroke: red; fill: red; }
]]></style>
<script type="application/ecmascript" xlink:href="svg.min.js"/>
<svg id="graph" class="graph">
<g id="graph0" class="graph" transform="scale(1 1) rotate(0) translate(4 138.25)">
<title>controle/nrf24_avr.c</title>
<!-- Node1 -->
<g id="Node000001" class="node">
<title>Node1</title>
<g id="a_Node000001"><a xlink:title=" ">
<polygon fill="#999999" stroke="#666666" points="268.12,-134.25 154.62,-134.25 154.62,-113.5 268.12,-113.5 268.12,-134.25"/>
<text xml:space="preserve" text-anchor="middle" x="211.38" y="-120.75" font-family="Helvetica,sans-Serif" font-size="10.00">controle/nrf24_avr.c</text>
</a>
</g>
</g>
<!-- Node2 -->
<g id="Node000002" class="node">
<title>Node2</title>
<g id="a_Node000002"><a xlink:title=" ">
<polygon fill="#e0e0e0" stroke="#999999" points="52.75,-77.5 0,-77.5 0,-56.75 52.75,-56.75 52.75,-77.5"/>
<text xml:space="preserve" text-anchor="middle" x="26.38" y="-64" font-family="Helvetica,sans-Serif" font-size="10.00">avr/io.h</text>
</a>
</g>
</g>
<!-- Node1&#45;&gt;Node2 -->
<g id="edge1_Node000001_Node000002" class="edge">
<title>Node1&#45;&gt;Node2</title>
<g id="a_edge1_Node000001_Node000002"><a xlink:title=" ">
<path fill="none" stroke="#63b8ff" d="M178.3,-113.09C146.18,-103.58 97.48,-89.17 63.92,-79.24"/>
<polygon fill="#63b8ff" stroke="#63b8ff" points="65.2,-75.96 54.62,-76.48 63.21,-82.68 65.2,-75.96"/>
</a>
</g>
</g>
<!-- Node3 -->
<g id="Node000003" class="node">
<title>Node3</title>
<g id="a_Node000003"><a xlink:title=" ">
<polygon fill="#e0e0e0" stroke="#999999" points="140,-77.5 70.75,-77.5 70.75,-56.75 140,-56.75 140,-77.5"/>
<text xml:space="preserve" text-anchor="middle" x="105.38" y="-64" font-family="Helvetica,sans-Serif" font-size="10.00">util/delay.h</text>
</a>
</g>
</g>
<!-- Node1&#45;&gt;Node3 -->
<g id="edge2_Node000001_Node000003" class="edge">
<title>Node1&#45;&gt;Node3</title>
<g id="a_edge2_Node000001_Node000003"><a xlink:title=" ">
<path fill="none" stroke="#63b8ff" d="M192.42,-113.09C176.3,-104.76 152.87,-92.66 134.38,-83.11"/>
<polygon fill="#63b8ff" stroke="#63b8ff" points="136,-80 125.51,-78.52 132.79,-86.22 136,-80"/>
</a>
</g>
</g>
<!-- Node4 -->
<g id="Node000004" class="node">
<title>Node4</title>
<g id="a_Node000004"><a xlink:title=" ">
<polygon fill="#e0e0e0" stroke="#999999" points="210.75,-77.5 158,-77.5 158,-56.75 210.75,-56.75 210.75,-77.5"/>
<text xml:space="preserve" text-anchor="middle" x="184.38" y="-64" font-family="Helvetica,sans-Serif" font-size="10.00">string.h</text>
</a>
</g>
</g>
<!-- Node1&#45;&gt;Node4 -->
<g id="edge3_Node000001_Node000004" class="edge">
<title>Node1&#45;&gt;Node4</title>
<g id="a_edge3_Node000001_Node000004"><a xlink:title=" ">
<path fill="none" stroke="#63b8ff" d="M206.55,-113.09C203.13,-106.16 198.43,-96.62 194.23,-88.11"/>
<polygon fill="#63b8ff" stroke="#63b8ff" points="197.39,-86.61 189.83,-79.19 191.11,-89.7 197.39,-86.61"/>
</a>
</g>
</g>
<!-- Node5 -->
<g id="Node000005" class="node">
<title>Node5</title>
<g id="a_Node000005"><a xlink:href="controle_2nrf24__avr_8h.html" target="_top" xlink:title=" ">
<polygon fill="white" stroke="#666666" points="338.12,-77.5 266.62,-77.5 266.62,-56.75 338.12,-56.75 338.12,-77.5"/>
<text xml:space="preserve" text-anchor="middle" x="302.38" y="-64" font-family="Helvetica,sans-Serif" font-size="10.00">nrf24_avr.h</text>
</a>
</g>
</g>
<!-- Node1&#45;&gt;Node5 -->
<g id="edge4_Node000001_Node000005" class="edge">
<title>Node1&#45;&gt;Node5</title>
<g id="a_edge4_Node000001_Node000005"><a xlink:title=" ">
<path fill="none" stroke="#63b8ff" d="M227.64,-113.09C241.23,-104.91 260.85,-93.11 276.58,-83.65"/>
<polygon fill="#63b8ff" stroke="#63b8ff" points="278.19,-86.76 284.95,-78.61 274.58,-80.77 278.19,-86.76"/>
</a>
</g>
</g>
<!-- Node7 -->
<g id="Node000007" class="node">
<title>Node7</title>
<g id="a_Node000007"><a xlink:href="controle_2nRF24L01_8h.html" target="_top" xlink:title=" ">
<polygon fill="white" stroke="#666666" points="257.88,-20.75 184.88,-20.75 184.88,0 257.88,0 257.88,-20.75"/>
<text xml:space="preserve" text-anchor="middle" x="221.38" y="-7.25" font-family="Helvetica,sans-Serif" font-size="10.00">nRF24L01.h</text>
</a>
</g>
</g>
<!-- Node1&#45;&gt;Node7 -->
<g id="edge8_Node000001_Node000007" class="edge">
<title>Node1&#45;&gt;Node7</title>
<g id="a_edge8_Node000001_Node000007"><a xlink:title=" ">
<path fill="none" stroke="#63b8ff" d="M213.5,-113.2C215.41,-104.05 218.1,-89.91 219.38,-77.5 220.92,-62.42 221.41,-45.31 221.51,-32.27"/>
<polygon fill="#63b8ff" stroke="#63b8ff" points="225.01,-32.34 221.52,-22.33 218.01,-32.33 225.01,-32.34"/>
</a>
</g>
</g>
<!-- Node8 -->
<g id="Node000008" class="node">
<title>Node8</title>
<g id="a_Node000008"><a xlink:href="controle_2RF24__config_8h.html" target="_top" xlink:title=" ">
<polygon fill="white" stroke="#666666" points="431.88,-20.75 346.88,-20.75 346.88,0 431.88,0 431.88,-20.75"/>
<text xml:space="preserve" text-anchor="middle" x="389.38" y="-7.25" font-family="Helvetica,sans-Serif" font-size="10.00">RF24_config.h</text>
</a>
</g>
</g>
<!-- Node1&#45;&gt;Node8 -->
<g id="edge9_Node000001_Node000008" class="edge">
<title>Node1&#45;&gt;Node8</title>
<g id="a_edge9_Node000001_Node000008"><a xlink:title=" ">
<path fill="none" stroke="#63b8ff" d="M268.16,-113.05C294.31,-106.36 324.53,-95.36 347.38,-77.5 362.91,-65.35 374.33,-45.75 381.3,-31.03"/>
<polygon fill="#63b8ff" stroke="#63b8ff" points="384.31,-32.88 385.15,-22.32 377.91,-30.05 384.31,-32.88"/>
</a>
</g>
</g>
<!-- Node6 -->
<g id="Node000006" class="node">
<title>Node6</title>
<g id="a_Node000006"><a xlink:title=" ">
<polygon fill="#e0e0e0" stroke="#999999" points="328.75,-20.75 276,-20.75 276,0 328.75,0 328.75,-20.75"/>
<text xml:space="preserve" text-anchor="middle" x="302.38" y="-7.25" font-family="Helvetica,sans-Serif" font-size="10.00">stdint.h</text>
</a>
</g>
</g>
<!-- Node5&#45;&gt;Node6 -->
<g id="edge5_Node000005_Node000006" class="edge">
<title>Node5&#45;&gt;Node6</title>
<g id="a_edge5_Node000005_Node000006"><a xlink:title=" ">
<path fill="none" stroke="#63b8ff" d="M302.38,-56.34C302.38,-49.72 302.38,-40.72 302.38,-32.52"/>
<polygon fill="#63b8ff" stroke="#63b8ff" points="305.88,-32.59 302.38,-22.59 298.88,-32.59 305.88,-32.59"/>
</a>
</g>
</g>
<!-- Node5&#45;&gt;Node7 -->
<g id="edge6_Node000005_Node000007" class="edge">
<title>Node5&#45;&gt;Node7</title>
<g id="a_edge6_Node000005_Node000007"><a xlink:title=" ">
<path fill="none" stroke="#63b8ff" d="M287.89,-56.34C276.03,-48.32 259,-36.81 245.14,-27.44"/>
<polygon fill="#63b8ff" stroke="#63b8ff" points="247.23,-24.63 236.98,-21.93 243.31,-30.43 247.23,-24.63"/>
</a>
</g>
</g>
<!-- Node5&#45;&gt;Node8 -->
<g id="edge7_Node000005_Node000008" class="edge">
<title>Node5&#45;&gt;Node8</title>
<g id="a_edge7_Node000005_Node000008"><a xlink:title=" ">
<path fill="none" stroke="#63b8ff" d="M317.93,-56.34C330.8,-48.24 349.32,-36.58 364.28,-27.17"/>
<polygon fill="#63b8ff" stroke="#63b8ff" points="366.08,-30.17 372.67,-21.88 362.35,-24.25 366.08,-30.17"/>
</a>
</g>
</g>
</g>
</svg>
</svg>

<style type='text/css'>
<![CDATA[
[data-mouse-over-selected='false'] { opacity: 0.7; }
[data-mouse-over-selected='true']  { opacity: 1.0; }
]]>
</style>
<script type="application/ecmascript"><![CDATA[
document.addEventListener('DOMContentLoaded', (event) => {
  highlightEdges();
  highlightAdjacentNodes();
});
]]></script>
</svg>
