<?xml version="1.0" encoding="UTF-8" standalone="no"?>
<!DOCTYPE svg PUBLIC "-//W3C//DTD SVG 1.1//EN"
 "http://www.w3.org/Graphics/SVG/1.1/DTD/svg11.dtd">
<!-- Generated by graphviz version 14.0.5 (0)
 -->
<!-- Title: main Pages: 1 -->
<!--zoomable 549 -->

<svg id="main" version="1.1" xmlns="http://www.w3.org/2000/svg" xmlns:xlink="http://www.w3.org/1999/xlink" xml:space="preserve" onload="init(evt)">

<style type="text/css"><![CDATA[
.node, .edge {opacity: 0.7;}
.node.selected, .edge.selected {opacity: 1;}
.edge:hover path { stroke: red; }
.edge:hover polygon { stroke: red; fill: red; }
]]></style>

<defs>
  <circle id="rim" cx="0" cy="0" r="7"/>
  <circle id="rim2" cx="0" cy="0" r="3.5"/>
  <g id="zoomPlus">
    <use xlink:href="#rim" fill="#404040"><set attributeName="fill" to="#808080" begin="zoomplus.mouseover" end="zoomplus.mouseout"/></use>
    <path d="M-4,0h8M0,-4v8" fill="none" stroke="white" stroke-width="1.5" pointer-events="none"/>
  </g>
  <g id="zoomMin">
    <use xlink:href="#rim" fill="#404040"><set attributeName="fill" to="#808080" begin="zoomminus.mouseover" end="zoomminus.mouseout"/></use>
    <path d="M-4,0h8" fill="none" stroke="white" stroke-width="1.5" pointer-events="none"/>
  </g>
  <g id="arrowUp" transform="translate(30 24)">
    <use xlink:href="#rim"/>
    <path pointer-events="none" fill="none" stroke="white" stroke-width="1.5" d="M0,-3.0v7 M-2.5,-0.5L0,-3.0L2.5,-0.5"/>
  </g>
  <g id="arrowRight" transform="rotate(90) translate(36 -43)">
    <use xlink:href="#rim"/>
    <path pointer-events="none" fill="none" stroke="white" stroke-width="1.5" d="M0,-3.0v7 M-2.5,-0.5L0,-3.0L2.5,-0.5"/>
  </g>
  <g id="arrowDown" transform="rotate(180) translate(-30 -48)">
    <use xlink:href="#rim"/>
    <path pointer-events="none" fill="none" stroke="white" stroke-width="1.5" d="M0,-3.0v7 M-2.5,-0.5L0,-3.0L2.5,-0.5"/>
  </g>
  <g id="arrowLeft" transform="rotate(270) translate(-36 17)">
    <use xlink:href="#rim"/>
    <path pointer-events="none" fill="none" stroke="white" stroke-width="1.5" d="M0,-3.0v7 M-2.5,-0.5L0,-3.0L2.5,-0.5"/>
  </g>
  <g id="resetDef">
    <use xlink:href="#rim2" fill="#404040"><set attributeName="fill" to="#808080" begin="reset.mouseover" end="reset.mouseout"/></use>
  </g>
</defs>
<script type="application/ecmascript">
var viewWidth = 759;
var viewHeight = 549;
var sectionId = 'dynsection-7';
</script>
<script type="application/ecmascript" xlink:href="svg.min.js"/>
<svg id="graph" class="graph">
<g id="viewport">
<title>main</title>
<!-- Node1 -->
<g id="Node000001" class="node">
<title>Node1</title>
<g id="a_Node000001"><a xlink:title="Função principal do firmware.">
<polygon fill="#999999" stroke="#666666" points="40.75,-288.75 0,-288.75 0,-268 40.75,-268 40.75,-288.75"/>
<text xml:space="preserve" text-anchor="middle" x="20.38" y="-275.25" font-family="Helvetica,sans-Serif" font-size="10.00">main</text>
</a>
</g>
</g>
<!-- Node2 -->
<g id="Node000002" class="node">
<title>Node2</title>
<g id="a_Node000002"><a xlink:href="controle_8c.html#afe461d27b9c48d5921c00d521181f12f" target="_top" xlink:title="Loop principal: lê controles, aplica deadzone, envia por RF e atualiza LEDs.">
<polygon fill="white" stroke="#666666" points="116.75,-423.75 79.75,-423.75 79.75,-403 116.75,-403 116.75,-423.75"/>
<text xml:space="preserve" text-anchor="middle" x="98.25" y="-410.25" font-family="Helvetica,sans-Serif" font-size="10.00">loop</text>
</a>
</g>
</g>
<!-- Node1&#45;&gt;Node2 -->
<g id="edge1_Node000001_Node000002" class="edge">
<title>Node1&#45;&gt;Node2</title>
<g id="a_edge1_Node000001_Node000002"><a xlink:title=" ">
<path fill="none" stroke="#63b8ff" d="M27.33,-288.97C39.91,-311.35 69.37,-363.76 85.75,-392.91"/>
<polygon fill="#63b8ff" stroke="#63b8ff" points="82.63,-394.51 90.58,-401.51 88.73,-391.08 82.63,-394.51"/>
</a>
</g>
</g>
<!-- Node20 -->
<g id="Node000020" class="node">
<title>Node20</title>
<g id="a_Node000020"><a xlink:href="controle_8c.html#a4fc01d736fe50cf5b977f755b675f11d" target="_top" xlink:title="Inicializações principais (ADC, PWM, entradas e rádio).">
<polygon fill="white" stroke="#666666" points="119.75,-173.75 76.75,-173.75 76.75,-153 119.75,-153 119.75,-173.75"/>
<text xml:space="preserve" text-anchor="middle" x="98.25" y="-160.25" font-family="Helvetica,sans-Serif" font-size="10.00">setup</text>
</a>
</g>
</g>
<!-- Node1&#45;&gt;Node20 -->
<g id="edge34_Node000001_Node000020" class="edge">
<title>Node1&#45;&gt;Node20</title>
<g id="a_edge34_Node000001_Node000020"><a xlink:title=" ">
<path fill="none" stroke="#63b8ff" d="M28.38,-267.76C41.02,-248.59 67.87,-207.91 84.05,-183.38"/>
<polygon fill="#63b8ff" stroke="#63b8ff" points="86.85,-185.5 89.43,-175.23 81,-181.64 86.85,-185.5"/>
</a>
</g>
</g>
<!-- Node3 -->
<g id="Node000003" class="node">
<title>Node3</title>
<g id="a_Node000003"><a xlink:href="controle_8c.html#a3785cfdfc42be12ee699c8b8b4e4d01f" target="_top" xlink:title="Retorna valor absoluto de um inteiro.">
<polygon fill="white" stroke="#666666" points="221.62,-540.75 170.38,-540.75 170.38,-520 221.62,-520 221.62,-540.75"/>
<text xml:space="preserve" text-anchor="middle" x="196" y="-527.25" font-family="Helvetica,sans-Serif" font-size="10.00">abs_int</text>
</a>
</g>
</g>
<!-- Node2&#45;&gt;Node3 -->
<g id="edge2_Node000002_Node000003" class="edge">
<title>Node2&#45;&gt;Node3</title>
<g id="a_edge2_Node000002_Node000003"><a xlink:title=" ">
<path fill="none" stroke="#63b8ff" d="M103.1,-424.01C110.56,-443.39 128.7,-484.8 155.75,-510.38 157.16,-511.71 158.68,-512.98 160.28,-514.18"/>
<polygon fill="#63b8ff" stroke="#63b8ff" points="158.33,-517.09 168.65,-519.51 162.09,-511.19 158.33,-517.09"/>
</a>
</g>
</g>
<!-- Node4 -->
<g id="Node000004" class="node">
<title>Node4</title>
<g id="a_Node000004"><a xlink:href="controle_8c.html#a7c3d687942e3acba4e53cac61d9e71ea" target="_top" xlink:title="Lê o ADC em um canal específico.">
<polygon fill="white" stroke="#666666" points="226.12,-501.75 165.88,-501.75 165.88,-481 226.12,-481 226.12,-501.75"/>
<text xml:space="preserve" text-anchor="middle" x="196" y="-488.25" font-family="Helvetica,sans-Serif" font-size="10.00">adc_read</text>
</a>
</g>
</g>
<!-- Node2&#45;&gt;Node4 -->
<g id="edge3_Node000002_Node000004" class="edge">
<title>Node2&#45;&gt;Node4</title>
<g id="a_edge3_Node000002_Node000004"><a xlink:title=" ">
<path fill="none" stroke="#63b8ff" d="M107.58,-423.82C117.91,-436.28 136.51,-457.2 155.75,-471.38 157.32,-472.53 158.96,-473.65 160.65,-474.74"/>
<polygon fill="#63b8ff" stroke="#63b8ff" points="158.89,-477.76 169.29,-479.75 162.4,-471.71 158.89,-477.76"/>
</a>
</g>
</g>
<!-- Node5 -->
<g id="Node000005" class="node">
<title>Node5</title>
<g id="a_Node000005"><a xlink:href="controle_8c.html#a2d443dafac1b8dfb9be2bc8b797d6820" target="_top" xlink:title=" ">
<polygon fill="white" stroke="#666666" points="231,-462.75 161,-462.75 161,-442 231,-442 231,-462.75"/>
<text xml:space="preserve" text-anchor="middle" x="196" y="-449.25" font-family="Helvetica,sans-Serif" font-size="10.00">delay20ms</text>
</a>
</g>
</g>
<!-- Node2&#45;&gt;Node5 -->
<g id="edge4_Node000002_Node000005" class="edge">
<title>Node2&#45;&gt;Node5</title>
<g id="a_edge4_Node000002_Node000005"><a xlink:title=" ">
<path fill="none" stroke="#63b8ff" d="M116.81,-420.53C128.34,-425.22 143.86,-431.54 158.03,-437.32"/>
<polygon fill="#63b8ff" stroke="#63b8ff" points="156.53,-440.48 167.11,-441.01 159.17,-434 156.53,-440.48"/>
</a>
</g>
</g>
<!-- Node6 -->
<g id="Node000006" class="node">
<title>Node6</title>
<g id="a_Node000006"><a xlink:href="controle_8c.html#aada2d75bc8a8c6eb845bd940eadfa3fd" target="_top" xlink:title="Função equivalente ao map() do Arduino.">
<polygon fill="white" stroke="#666666" points="214.88,-423.75 177.12,-423.75 177.12,-403 214.88,-403 214.88,-423.75"/>
<text xml:space="preserve" text-anchor="middle" x="196" y="-410.25" font-family="Helvetica,sans-Serif" font-size="10.00">map</text>
</a>
</g>
</g>
<!-- Node2&#45;&gt;Node6 -->
<g id="edge5_Node000002_Node000006" class="edge">
<title>Node2&#45;&gt;Node6</title>
<g id="a_edge5_Node000002_Node000006"><a xlink:title=" ">
<path fill="none" stroke="#63b8ff" d="M116.81,-413.38C130.41,-413.38 149.54,-413.38 165.48,-413.38"/>
<polygon fill="#63b8ff" stroke="#63b8ff" points="165.39,-416.88 175.39,-413.38 165.39,-409.88 165.39,-416.88"/>
</a>
</g>
</g>
<!-- Node7 -->
<g id="Node000007" class="node">
<title>Node7</title>
<g id="a_Node000007"><a xlink:href="carrinho_2nrf24__avr_8c.html#a8232e1982aabc6f52408c318402cb578" target="_top" xlink:title=" ">
<polygon fill="white" stroke="#666666" points="231.75,-384.75 160.25,-384.75 160.25,-364 231.75,-364 231.75,-384.75"/>
<text xml:space="preserve" text-anchor="middle" x="196" y="-371.25" font-family="Helvetica,sans-Serif" font-size="10.00">nrf24_write</text>
</a>
</g>
</g>
<!-- Node2&#45;&gt;Node7 -->
<g id="edge6_Node000002_Node000007" class="edge">
<title>Node2&#45;&gt;Node7</title>
<g id="a_edge6_Node000002_Node000007"><a xlink:title=" ">
<path fill="none" stroke="#63b8ff" d="M116.81,-406.22C128.34,-401.53 143.86,-395.21 158.03,-389.43"/>
<polygon fill="#63b8ff" stroke="#63b8ff" points="159.17,-392.75 167.11,-385.74 156.53,-386.27 159.17,-392.75"/>
</a>
</g>
</g>
<!-- Node19 -->
<g id="Node000019" class="node">
<title>Node19</title>
<g id="a_Node000019"><a xlink:href="controle_8c.html#a0bf689abd3a20724062e39ce568130b1" target="_top" xlink:title="Escreve valor PWM em LED1 ou LED2.">
<polygon fill="white" stroke="#666666" points="231,-345.75 161,-345.75 161,-325 231,-325 231,-345.75"/>
<text xml:space="preserve" text-anchor="middle" x="196" y="-332.25" font-family="Helvetica,sans-Serif" font-size="10.00">pwm_write</text>
</a>
</g>
</g>
<!-- Node2&#45;&gt;Node19 -->
<g id="edge33_Node000002_Node000019" class="edge">
<title>Node2&#45;&gt;Node19</title>
<g id="a_edge33_Node000002_Node000019"><a xlink:title=" ">
<path fill="none" stroke="#63b8ff" d="M107.58,-402.93C117.91,-390.47 136.51,-369.55 155.75,-355.38 157.32,-354.22 158.96,-353.1 160.65,-352.01"/>
<polygon fill="#63b8ff" stroke="#63b8ff" points="162.4,-355.04 169.29,-347 158.89,-348.99 162.4,-355.04"/>
</a>
</g>
</g>
<!-- Node8 -->
<g id="Node000008" class="node">
<title>Node8</title>
<g id="a_Node000008"><a xlink:href="carrinho_2nrf24__avr_8c.html#a5336963072afb877d785bed84eb6b5f4" target="_top" xlink:title=" ">
<polygon fill="white" stroke="#666666" points="620.62,-480.75 567.12,-480.75 567.12,-460 620.62,-460 620.62,-480.75"/>
<text xml:space="preserve" text-anchor="middle" x="593.88" y="-467.25" font-family="Helvetica,sans-Serif" font-size="10.00">ce_high</text>
</a>
</g>
</g>
<!-- Node7&#45;&gt;Node8 -->
<g id="edge7_Node000007_Node000008" class="edge">
<title>Node7&#45;&gt;Node8</title>
<g id="a_edge7_Node000007_Node000008"><a xlink:title=" ">
<path fill="none" stroke="#63b8ff" d="M222.64,-385.16C227.43,-387.79 232.2,-390.87 236.25,-394.38 257.22,-412.54 248.13,-431.66 272.25,-445.38 362.99,-496.97 492.19,-486.54 555.29,-477.16"/>
<polygon fill="#63b8ff" stroke="#63b8ff" points="555.8,-480.62 565.14,-475.61 554.72,-473.71 555.8,-480.62"/>
</a>
</g>
</g>
<!-- Node10 -->
<g id="Node000010" class="node">
<title>Node10</title>
<g id="a_Node000010"><a xlink:href="carrinho_2nrf24__avr_8c.html#a77c5f7c57c01266d04faea3052a47f49" target="_top" xlink:title=" ">
<polygon fill="white" stroke="#666666" points="503,-221.75 453.25,-221.75 453.25,-201 503,-201 503,-221.75"/>
<text xml:space="preserve" text-anchor="middle" x="478.12" y="-208.25" font-family="Helvetica,sans-Serif" font-size="10.00">ce_low</text>
</a>
</g>
</g>
<!-- Node7&#45;&gt;Node10 -->
<g id="edge9_Node000007_Node000010" class="edge">
<title>Node7&#45;&gt;Node10</title>
<g id="a_edge9_Node000007_Node000010"><a xlink:title=" ">
<path fill="none" stroke="#63b8ff" d="M225.32,-363.67C229.42,-361.13 233.26,-358.06 236.25,-354.38 275.07,-306.46 224.15,-258.96 272.25,-220.38 320.3,-181.82 397,-191.28 441.66,-201.45"/>
<polygon fill="#63b8ff" stroke="#63b8ff" points="440.81,-204.85 451.35,-203.81 442.46,-198.04 440.81,-204.85"/>
</a>
</g>
</g>
<!-- Node11 -->
<g id="Node000011" class="node">
<title>Node11</title>
<g id="a_Node000011"><a xlink:href="carrinho_2nrf24__avr_8c.html#a617ab4b2604d6f482796e35da85369ad" target="_top" xlink:title=" ">
<polygon fill="white" stroke="#666666" points="521,-424.75 435.25,-424.75 435.25,-404 521,-404 521,-424.75"/>
<text xml:space="preserve" text-anchor="middle" x="478.12" y="-411.25" font-family="Helvetica,sans-Serif" font-size="10.00">nrf24_flush_tx</text>
</a>
</g>
</g>
<!-- Node7&#45;&gt;Node11 -->
<g id="edge11_Node000007_Node000011" class="edge">
<title>Node7&#45;&gt;Node11</title>
<g id="a_edge11_Node000007_Node000011"><a xlink:title=" ">
<path fill="none" stroke="#63b8ff" d="M220.36,-385.11C225.72,-387.9 231.3,-391.05 236.25,-394.38 253.78,-406.14 252.46,-418.03 272.25,-425.38 322.87,-444.17 385.39,-436.85 427.96,-427.75"/>
<polygon fill="#63b8ff" stroke="#63b8ff" points="428.68,-431.17 437.66,-425.55 427.13,-424.34 428.68,-431.17"/>
</a>
</g>
</g>
<!-- Node15 -->
<g id="Node000015" class="node">
<title>Node15</title>
<g id="a_Node000015"><a xlink:href="carrinho_2nrf24__avr_8c.html#a33899bc3c0f4d2293f37c306d0b8e297" target="_top" xlink:title=" ">
<polygon fill="white" stroke="#666666" points="391.75,-327.75 279.75,-327.75 279.75,-307 391.75,-307 391.75,-327.75"/>
<text xml:space="preserve" text-anchor="middle" x="335.75" y="-314.25" font-family="Helvetica,sans-Serif" font-size="10.00">nrf24_stopListening</text>
</a>
</g>
</g>
<!-- Node7&#45;&gt;Node15 -->
<g id="edge17_Node000007_Node000015" class="edge">
<title>Node7&#45;&gt;Node15</title>
<g id="a_edge17_Node000007_Node000015"><a xlink:title=" ">
<path fill="none" stroke="#63b8ff" d="M220.94,-363.54C235.67,-356.95 254.97,-348.48 272.25,-341.38 279.63,-338.34 287.55,-335.21 295.18,-332.25"/>
<polygon fill="#63b8ff" stroke="#63b8ff" points="296.21,-335.6 304.29,-328.75 293.7,-329.07 296.21,-335.6"/>
</a>
</g>
</g>
<!-- Node16 -->
<g id="Node000016" class="node">
<title>Node16</title>
<g id="a_Node000016"><a xlink:href="carrinho_2nrf24__avr_8c.html#abefdb1d58b989853c0646a6c8b18b7d3" target="_top" xlink:title=" ">
<polygon fill="white" stroke="#666666" points="507.5,-346.75 448.75,-346.75 448.75,-326 507.5,-326 507.5,-346.75"/>
<text xml:space="preserve" text-anchor="middle" x="478.12" y="-333.25" font-family="Helvetica,sans-Serif" font-size="10.00">read_reg</text>
</a>
</g>
</g>
<!-- Node7&#45;&gt;Node16 -->
<g id="edge27_Node000007_Node000016" class="edge">
<title>Node7&#45;&gt;Node16</title>
<g id="a_edge27_Node000007_Node000016"><a xlink:title=" ">
<path fill="none" stroke="#63b8ff" d="M232.18,-377.45C272.91,-380.11 341.74,-381.8 399.25,-369.38 408.28,-367.42 427.26,-359.41 444.22,-351.77"/>
<polygon fill="#63b8ff" stroke="#63b8ff" points="445.39,-355.09 453.03,-347.75 442.48,-348.72 445.39,-355.09"/>
</a>
</g>
</g>
<!-- Node17 -->
<g id="Node000017" class="node">
<title>Node17</title>
<g id="a_Node000017"><a xlink:href="carrinho_2nrf24__avr_8c.html#a08bc978021db604d02a6da754f73e7e2" target="_top" xlink:title=" ">
<polygon fill="white" stroke="#666666" points="509,-307.75 447.25,-307.75 447.25,-287 509,-287 509,-307.75"/>
<text xml:space="preserve" text-anchor="middle" x="478.12" y="-294.25" font-family="Helvetica,sans-Serif" font-size="10.00">write_reg</text>
</a>
</g>
</g>
<!-- Node7&#45;&gt;Node17 -->
<g id="edge32_Node000007_Node000017" class="edge">
<title>Node7&#45;&gt;Node17</title>
<g id="a_edge32_Node000007_Node000017"><a xlink:title=" ">
<path fill="none" stroke="#63b8ff" d="M232.18,-371C273.19,-366.33 342.58,-356.15 399.25,-336.38 416.33,-330.42 419.08,-325.5 435.25,-317.38 437.99,-316 440.84,-314.59 443.71,-313.19"/>
<polygon fill="#63b8ff" stroke="#63b8ff" points="445.16,-316.37 452.64,-308.87 442.12,-310.07 445.16,-316.37"/>
</a>
</g>
</g>
<!-- Node18 -->
<g id="Node000018" class="node">
<title>Node18</title>
<g id="a_Node000018"><a xlink:href="carrinho_2nrf24__avr_8c.html#a3c9fd94e9894bf0792d4ff5891c16436" target="_top" xlink:title=" ">
<polygon fill="white" stroke="#666666" points="520.62,-385.75 435.62,-385.75 435.62,-365 520.62,-365 520.62,-385.75"/>
<text xml:space="preserve" text-anchor="middle" x="478.12" y="-372.25" font-family="Helvetica,sans-Serif" font-size="10.00">write_payload</text>
</a>
</g>
</g>
<!-- Node7&#45;&gt;Node18 -->
<g id="edge28_Node000007_Node000018" class="edge">
<title>Node7&#45;&gt;Node18</title>
<g id="a_edge28_Node000007_Node000018"><a xlink:title=" ">
<path fill="none" stroke="#63b8ff" d="M218.91,-385.19C237.1,-393.93 261.64,-405.15 272.25,-407.38 327.49,-418.96 343.87,-418.31 399.25,-407.38 408.16,-405.62 426.76,-398.03 443.54,-390.69"/>
<polygon fill="#63b8ff" stroke="#63b8ff" points="444.55,-394.07 452.28,-386.81 441.72,-387.67 444.55,-394.07"/>
</a>
</g>
</g>
<!-- Node9 -->
<g id="Node000009" class="node">
<title>Node9</title>
<g id="a_Node000009"><a xlink:href="carrinho_2nrf24__avr_8c.html#a019970fc17b6b18fa4e45e0baf22c93f" target="_top" xlink:title=" ">
<polygon fill="white" stroke="#666666" points="751,-326.75 666.75,-326.75 666.75,-306 751,-306 751,-326.75"/>
<text xml:space="preserve" text-anchor="middle" x="708.88" y="-313.25" font-family="Helvetica,sans-Serif" font-size="10.00">digitalWrite_d</text>
</a>
</g>
</g>
<!-- Node8&#45;&gt;Node9 -->
<g id="edge8_Node000008_Node000009" class="edge">
<title>Node8&#45;&gt;Node9</title>
<g id="a_edge8_Node000008_Node000009"><a xlink:title=" ">
<path fill="none" stroke="#63b8ff" d="M602.64,-459.79C621.35,-434.29 669.15,-369.15 693.36,-336.16"/>
<polygon fill="#63b8ff" stroke="#63b8ff" points="696.06,-338.39 699.16,-328.25 690.42,-334.25 696.06,-338.39"/>
</a>
</g>
</g>
<!-- Node10&#45;&gt;Node9 -->
<g id="edge10_Node000010_Node000009" class="edge">
<title>Node10&#45;&gt;Node9</title>
<g id="a_edge10_Node000010_Node000009"><a xlink:title=" ">
<path fill="none" stroke="#63b8ff" d="M503.43,-221.74C533.49,-234.65 586.16,-257.55 630.75,-278.38 645.95,-285.47 662.66,-293.66 676.63,-300.61"/>
<polygon fill="#63b8ff" stroke="#63b8ff" points="674.85,-303.63 685.36,-304.97 677.98,-297.37 674.85,-303.63"/>
</a>
</g>
</g>
<!-- Node12 -->
<g id="Node000012" class="node">
<title>Node12</title>
<g id="a_Node000012"><a xlink:href="carrinho_2nrf24__avr_8c.html#adaef88bc02a8e805de3b3a82bf317549" target="_top" xlink:title=" ">
<polygon fill="white" stroke="#666666" points="623.25,-307.75 564.5,-307.75 564.5,-287 623.25,-287 623.25,-307.75"/>
<text xml:space="preserve" text-anchor="middle" x="593.88" y="-294.25" font-family="Helvetica,sans-Serif" font-size="10.00">csn_high</text>
</a>
</g>
</g>
<!-- Node11&#45;&gt;Node12 -->
<g id="edge12_Node000011_Node000012" class="edge">
<title>Node11&#45;&gt;Node12</title>
<g id="a_edge12_Node000011_Node000012"><a xlink:title=" ">
<path fill="none" stroke="#63b8ff" d="M508.33,-403.68C512.94,-401.12 517.37,-398.04 521,-394.38 547.6,-367.55 531.26,-345.02 557,-317.38 557.83,-316.49 558.7,-315.63 559.61,-314.8"/>
<polygon fill="#63b8ff" stroke="#63b8ff" points="561.43,-317.82 567.38,-309.05 557.26,-312.19 561.43,-317.82"/>
</a>
</g>
</g>
<!-- Node13 -->
<g id="Node000013" class="node">
<title>Node13</title>
<g id="a_Node000013"><a xlink:href="carrinho_2nrf24__avr_8c.html#a42f8c1120431b7c37e116a4e1eac1cc2" target="_top" xlink:title=" ">
<polygon fill="white" stroke="#666666" points="621.38,-346.75 566.38,-346.75 566.38,-326 621.38,-326 621.38,-346.75"/>
<text xml:space="preserve" text-anchor="middle" x="593.88" y="-333.25" font-family="Helvetica,sans-Serif" font-size="10.00">csn_low</text>
</a>
</g>
</g>
<!-- Node11&#45;&gt;Node13 -->
<g id="edge14_Node000011_Node000013" class="edge">
<title>Node11&#45;&gt;Node13</title>
<g id="a_edge14_Node000011_Node000013"><a xlink:title=" ">
<path fill="none" stroke="#63b8ff" d="M505.66,-403.52C510.94,-400.86 516.31,-397.79 521,-394.38 539.81,-380.69 538.63,-370.65 557,-356.38 558.47,-355.23 560.02,-354.11 561.6,-353.03"/>
<polygon fill="#63b8ff" stroke="#63b8ff" points="563.03,-356.26 569.67,-348 559.33,-350.32 563.03,-356.26"/>
</a>
</g>
</g>
<!-- Node14 -->
<g id="Node000014" class="node">
<title>Node14</title>
<g id="a_Node000014"><a xlink:href="carrinho_2nrf24__avr_8c.html#a8d161d483c095113df5b69798e9cd725" target="_top" xlink:title=" ">
<polygon fill="white" stroke="#666666" points="630.75,-385.75 557,-385.75 557,-365 630.75,-365 630.75,-385.75"/>
<text xml:space="preserve" text-anchor="middle" x="593.88" y="-372.25" font-family="Helvetica,sans-Serif" font-size="10.00">spi_transfer</text>
</a>
</g>
</g>
<!-- Node11&#45;&gt;Node14 -->
<g id="edge16_Node000011_Node000014" class="edge">
<title>Node11&#45;&gt;Node14</title>
<g id="a_edge16_Node000011_Node000014"><a xlink:title=" ">
<path fill="none" stroke="#63b8ff" d="M510.81,-403.51C523.14,-399.29 537.44,-394.38 550.62,-389.86"/>
<polygon fill="#63b8ff" stroke="#63b8ff" points="551.6,-393.23 559.93,-386.67 549.33,-386.6 551.6,-393.23"/>
</a>
</g>
</g>
<!-- Node12&#45;&gt;Node9 -->
<g id="edge13_Node000012_Node000009" class="edge">
<title>Node12&#45;&gt;Node9</title>
<g id="a_edge13_Node000012_Node000009"><a xlink:title=" ">
<path fill="none" stroke="#63b8ff" d="M623.68,-302.22C633.29,-303.83 644.32,-305.69 655.16,-307.51"/>
<polygon fill="#63b8ff" stroke="#63b8ff" points="654.39,-310.93 664.83,-309.14 655.55,-304.03 654.39,-310.93"/>
</a>
</g>
</g>
<!-- Node13&#45;&gt;Node9 -->
<g id="edge15_Node000013_Node000009" class="edge">
<title>Node13&#45;&gt;Node9</title>
<g id="a_edge15_Node000013_Node000009"><a xlink:title=" ">
<path fill="none" stroke="#63b8ff" d="M621.65,-331.64C631.74,-329.85 643.6,-327.75 655.24,-325.69"/>
<polygon fill="#63b8ff" stroke="#63b8ff" points="655.54,-329.19 664.77,-324 654.32,-322.3 655.54,-329.19"/>
</a>
</g>
</g>
<!-- Node15&#45;&gt;Node10 -->
<g id="edge18_Node000015_Node000010" class="edge">
<title>Node15&#45;&gt;Node10</title>
<g id="a_edge18_Node000015_Node000010"><a xlink:title=" ">
<path fill="none" stroke="#63b8ff" d="M380.78,-306.54C387.23,-304.04 393.6,-301.02 399.25,-297.38 426.23,-279.99 449.8,-250.92 463.75,-231.46"/>
<polygon fill="#63b8ff" stroke="#63b8ff" points="466.61,-233.47 469.44,-223.26 460.86,-229.48 466.61,-233.47"/>
</a>
</g>
</g>
<!-- Node15&#45;&gt;Node16 -->
<g id="edge19_Node000015_Node000016" class="edge">
<title>Node15&#45;&gt;Node16</title>
<g id="a_edge19_Node000015_Node000016"><a xlink:title=" ">
<path fill="none" stroke="#63b8ff" d="M392.23,-324.88C407.32,-326.93 423.35,-329.1 437.38,-331"/>
<polygon fill="#63b8ff" stroke="#63b8ff" points="436.74,-334.44 447.12,-332.31 437.68,-327.5 436.74,-334.44"/>
</a>
</g>
</g>
<!-- Node15&#45;&gt;Node17 -->
<g id="edge23_Node000015_Node000017" class="edge">
<title>Node15&#45;&gt;Node17</title>
<g id="a_edge23_Node000015_Node000017"><a xlink:title=" ">
<path fill="none" stroke="#63b8ff" d="M392.23,-309.47C406.84,-307.39 422.34,-305.18 436.04,-303.23"/>
<polygon fill="#63b8ff" stroke="#63b8ff" points="436.16,-306.75 445.57,-301.87 435.17,-299.82 436.16,-306.75"/>
</a>
</g>
</g>
<!-- Node16&#45;&gt;Node12 -->
<g id="edge20_Node000016_Node000012" class="edge">
<title>Node16&#45;&gt;Node12</title>
<g id="a_edge20_Node000016_Node000012"><a xlink:title=" ">
<path fill="none" stroke="#63b8ff" d="M507.83,-326.53C521.7,-321.78 538.57,-315.99 553.62,-310.83"/>
<polygon fill="#63b8ff" stroke="#63b8ff" points="554.42,-314.26 562.75,-307.7 552.15,-307.64 554.42,-314.26"/>
</a>
</g>
</g>
<!-- Node16&#45;&gt;Node13 -->
<g id="edge21_Node000016_Node000013" class="edge">
<title>Node16&#45;&gt;Node13</title>
<g id="a_edge21_Node000016_Node000013"><a xlink:title=" ">
<path fill="none" stroke="#63b8ff" d="M507.83,-336.38C522.09,-336.38 539.52,-336.38 554.88,-336.38"/>
<polygon fill="#63b8ff" stroke="#63b8ff" points="554.62,-339.88 564.62,-336.38 554.62,-332.88 554.62,-339.88"/>
</a>
</g>
</g>
<!-- Node16&#45;&gt;Node14 -->
<g id="edge22_Node000016_Node000014" class="edge">
<title>Node16&#45;&gt;Node14</title>
<g id="a_edge22_Node000016_Node000014"><a xlink:title=" ">
<path fill="none" stroke="#63b8ff" d="M507.83,-346.22C520.84,-350.68 536.47,-356.04 550.77,-360.94"/>
<polygon fill="#63b8ff" stroke="#63b8ff" points="549.35,-364.15 559.95,-364.09 551.62,-357.53 549.35,-364.15"/>
</a>
</g>
</g>
<!-- Node17&#45;&gt;Node12 -->
<g id="edge24_Node000017_Node000012" class="edge">
<title>Node17&#45;&gt;Node12</title>
<g id="a_edge24_Node000017_Node000012"><a xlink:title=" ">
<path fill="none" stroke="#63b8ff" d="M509.31,-297.38C522.71,-297.38 538.66,-297.38 553.02,-297.38"/>
<polygon fill="#63b8ff" stroke="#63b8ff" points="552.61,-300.88 562.61,-297.38 552.61,-293.88 552.61,-300.88"/>
</a>
</g>
</g>
<!-- Node17&#45;&gt;Node13 -->
<g id="edge25_Node000017_Node000013" class="edge">
<title>Node17&#45;&gt;Node13</title>
<g id="a_edge25_Node000017_Node000013"><a xlink:title=" ">
<path fill="none" stroke="#63b8ff" d="M509.31,-307.72C523.5,-312.59 540.57,-318.44 555.56,-323.58"/>
<polygon fill="#63b8ff" stroke="#63b8ff" points="554.02,-326.75 564.61,-326.69 556.29,-320.13 554.02,-326.75"/>
</a>
</g>
</g>
<!-- Node17&#45;&gt;Node14 -->
<g id="edge26_Node000017_Node000014" class="edge">
<title>Node17&#45;&gt;Node14</title>
<g id="a_edge26_Node000017_Node000014"><a xlink:title=" ">
<path fill="none" stroke="#63b8ff" d="M505.66,-308.23C510.94,-310.89 516.31,-313.96 521,-317.38 539.81,-331.06 538.63,-341.1 557,-355.38 558.47,-356.52 560.02,-357.64 561.6,-358.72"/>
<polygon fill="#63b8ff" stroke="#63b8ff" points="559.33,-361.43 569.67,-363.75 563.03,-355.49 559.33,-361.43"/>
</a>
</g>
</g>
<!-- Node18&#45;&gt;Node12 -->
<g id="edge29_Node000018_Node000012" class="edge">
<title>Node18&#45;&gt;Node12</title>
<g id="a_edge29_Node000018_Node000012"><a xlink:title=" ">
<path fill="none" stroke="#63b8ff" d="M505.66,-364.52C510.94,-361.86 516.31,-358.79 521,-355.38 539.81,-341.69 538.63,-331.65 557,-317.38 558.47,-316.23 560.02,-315.11 561.6,-314.03"/>
<polygon fill="#63b8ff" stroke="#63b8ff" points="563.03,-317.26 569.67,-309 559.33,-311.32 563.03,-317.26"/>
</a>
</g>
</g>
<!-- Node18&#45;&gt;Node13 -->
<g id="edge30_Node000018_Node000013" class="edge">
<title>Node18&#45;&gt;Node13</title>
<g id="a_edge30_Node000018_Node000013"><a xlink:title=" ">
<path fill="none" stroke="#63b8ff" d="M510.81,-364.51C524.64,-359.77 540.96,-354.17 555.39,-349.23"/>
<polygon fill="#63b8ff" stroke="#63b8ff" points="556.22,-352.64 564.55,-346.09 553.95,-346.02 556.22,-352.64"/>
</a>
</g>
</g>
<!-- Node18&#45;&gt;Node14 -->
<g id="edge31_Node000018_Node000014" class="edge">
<title>Node18&#45;&gt;Node14</title>
<g id="a_edge31_Node000018_Node000014"><a xlink:title=" ">
<path fill="none" stroke="#63b8ff" d="M520.84,-375.38C528.85,-375.38 537.3,-375.38 545.48,-375.38"/>
<polygon fill="#63b8ff" stroke="#63b8ff" points="545.28,-378.88 555.28,-375.38 545.28,-371.88 545.28,-378.88"/>
</a>
</g>
</g>
<!-- Node20&#45;&gt;Node15 -->
<g id="edge47_Node000020_Node000015" class="edge">
<title>Node20&#45;&gt;Node15</title>
<g id="a_edge47_Node000020_Node000015"><a xlink:title=" ">
<path fill="none" stroke="#63b8ff" d="M105.8,-174.12C115.33,-189.08 134.25,-216.37 155.75,-234.38 194.59,-266.9 248.3,-289.55 286.73,-302.88"/>
<polygon fill="#63b8ff" stroke="#63b8ff" points="285.61,-306.19 296.2,-306.07 287.84,-299.56 285.61,-306.19"/>
</a>
</g>
</g>
<!-- Node21 -->
<g id="Node000021" class="node">
<title>Node21</title>
<g id="a_Node000021"><a xlink:href="controle_8c.html#af5e0a217880b6f6976ff1c2b1297f7a3" target="_top" xlink:title="Inicializa o ADC do AVR para leitura dos analógicos.">
<polygon fill="white" stroke="#666666" points="228.75,-134.75 163.25,-134.75 163.25,-114 228.75,-114 228.75,-134.75"/>
<text xml:space="preserve" text-anchor="middle" x="196" y="-121.25" font-family="Helvetica,sans-Serif" font-size="10.00">adc_setup</text>
</a>
</g>
</g>
<!-- Node20&#45;&gt;Node21 -->
<g id="edge35_Node000020_Node000021" class="edge">
<title>Node20&#45;&gt;Node21</title>
<g id="a_edge35_Node000020_Node000021"><a xlink:title=" ">
<path fill="none" stroke="#63b8ff" d="M120.03,-154.91C131.11,-150.4 145.09,-144.7 157.96,-139.46"/>
<polygon fill="#63b8ff" stroke="#63b8ff" points="159.09,-142.78 167.03,-135.77 156.45,-136.3 159.09,-142.78"/>
</a>
</g>
</g>
<!-- Node22 -->
<g id="Node000022" class="node">
<title>Node22</title>
<g id="a_Node000022"><a xlink:href="carrinho_2nrf24__avr_8c.html#ab6fb4c1aa834152310116e7dec65d8e3" target="_top" xlink:title=" ">
<polygon fill="white" stroke="#666666" points="232.88,-173.75 159.12,-173.75 159.12,-153 232.88,-153 232.88,-173.75"/>
<text xml:space="preserve" text-anchor="middle" x="196" y="-160.25" font-family="Helvetica,sans-Serif" font-size="10.00">nrf24_begin</text>
</a>
</g>
</g>
<!-- Node20&#45;&gt;Node22 -->
<g id="edge36_Node000020_Node000022" class="edge">
<title>Node20&#45;&gt;Node22</title>
<g id="a_edge36_Node000020_Node000022"><a xlink:title=" ">
<path fill="none" stroke="#63b8ff" d="M120.03,-163.38C128.17,-163.38 137.87,-163.38 147.55,-163.38"/>
<polygon fill="#63b8ff" stroke="#63b8ff" points="147.3,-166.88 157.3,-163.38 147.3,-159.88 147.3,-166.88"/>
</a>
</g>
</g>
<!-- Node27 -->
<g id="Node000027" class="node">
<title>Node27</title>
<g id="a_Node000027"><a xlink:href="carrinho_2nrf24__avr_8c.html#a21d638882f746748de35324bdc21f448" target="_top" xlink:title=" ">
<polygon fill="white" stroke="#666666" points="399.25,-288.75 272.25,-288.75 272.25,-268 399.25,-268 399.25,-288.75"/>
<text xml:space="preserve" text-anchor="middle" x="335.75" y="-275.25" font-family="Helvetica,sans-Serif" font-size="10.00">nrf24_openWritingPipe</text>
</a>
</g>
</g>
<!-- Node20&#45;&gt;Node27 -->
<g id="edge45_Node000020_Node000027" class="edge">
<title>Node20&#45;&gt;Node27</title>
<g id="a_edge45_Node000020_Node000027"><a xlink:title=" ">
<path fill="none" stroke="#63b8ff" d="M116.37,-174.24C146.81,-193.21 212.75,-232.8 272.25,-258.38 276.79,-260.33 281.58,-262.19 286.42,-263.94"/>
<polygon fill="#63b8ff" stroke="#63b8ff" points="284.95,-267.14 295.54,-267.09 287.23,-260.52 284.95,-267.14"/>
</a>
</g>
</g>
<!-- Node28 -->
<g id="Node000028" class="node">
<title>Node28</title>
<g id="a_Node000028"><a xlink:href="controle_8c.html#a6b11f55ddc2f9d1125c97a47e4a799f6" target="_top" xlink:title="Configura PWM dos pinos LED1 e LED2.">
<polygon fill="white" stroke="#666666" points="232.12,-95.75 159.88,-95.75 159.88,-75 232.12,-75 232.12,-95.75"/>
<text xml:space="preserve" text-anchor="middle" x="196" y="-82.25" font-family="Helvetica,sans-Serif" font-size="10.00">pwm_setup</text>
</a>
</g>
</g>
<!-- Node20&#45;&gt;Node28 -->
<g id="edge48_Node000020_Node000028" class="edge">
<title>Node20&#45;&gt;Node28</title>
<g id="a_edge48_Node000020_Node000028"><a xlink:title=" ">
<path fill="none" stroke="#63b8ff" d="M107.58,-152.93C117.91,-140.47 136.51,-119.55 155.75,-105.38 157.32,-104.22 158.96,-103.1 160.65,-102.01"/>
<polygon fill="#63b8ff" stroke="#63b8ff" points="162.4,-105.04 169.29,-97 158.89,-98.99 162.4,-105.04"/>
</a>
</g>
</g>
<!-- Node29 -->
<g id="Node000029" class="node">
<title>Node29</title>
<g id="a_Node000029"><a xlink:href="controle_8c.html#a4f423fe45bf39bb0e907e6287b57eb55" target="_top" xlink:title=" ">
<polygon fill="white" stroke="#666666" points="236.25,-56.75 155.75,-56.75 155.75,-36 236.25,-36 236.25,-56.75"/>
<text xml:space="preserve" text-anchor="middle" x="196" y="-43.25" font-family="Helvetica,sans-Serif" font-size="10.00">timer0_setup</text>
</a>
</g>
</g>
<!-- Node20&#45;&gt;Node29 -->
<g id="edge49_Node000020_Node000029" class="edge">
<title>Node20&#45;&gt;Node29</title>
<g id="a_edge49_Node000020_Node000029"><a xlink:title=" ">
<path fill="none" stroke="#63b8ff" d="M103.1,-152.74C110.56,-133.36 128.7,-91.95 155.75,-66.38 156.93,-65.26 158.19,-64.19 159.5,-63.17"/>
<polygon fill="#63b8ff" stroke="#63b8ff" points="161.01,-66.36 167.44,-57.94 157.16,-60.52 161.01,-66.36"/>
</a>
</g>
</g>
<!-- Node22&#45;&gt;Node10 -->
<g id="edge37_Node000022_Node000010" class="edge">
<title>Node22&#45;&gt;Node10</title>
<g id="a_edge37_Node000022_Node000010"><a xlink:title=" ">
<path fill="none" stroke="#63b8ff" d="M232.85,-152.54C274.19,-141.92 343.6,-129.93 399.25,-149.38 423.8,-157.95 446.39,-177.87 460.85,-192.83"/>
<polygon fill="#63b8ff" stroke="#63b8ff" points="457.98,-194.88 467.34,-199.83 463.11,-190.12 457.98,-194.88"/>
</a>
</g>
</g>
<!-- Node22&#45;&gt;Node12 -->
<g id="edge38_Node000022_Node000012" class="edge">
<title>Node22&#45;&gt;Node12</title>
<g id="a_edge38_Node000022_Node000012"><a xlink:title=" ">
<path fill="none" stroke="#63b8ff" d="M219.46,-152.61C234.11,-146.2 253.87,-138.68 272.25,-135.38 327.8,-125.37 344.15,-123.12 399.25,-135.38 457.57,-148.35 475.46,-153.69 521,-192.38 549.07,-216.22 571.06,-253.54 582.99,-276.67"/>
<polygon fill="#63b8ff" stroke="#63b8ff" points="579.75,-278.02 587.34,-285.41 586.02,-274.9 579.75,-278.02"/>
</a>
</g>
</g>
<!-- Node22&#45;&gt;Node17 -->
<g id="edge44_Node000022_Node000017" class="edge">
<title>Node22&#45;&gt;Node17</title>
<g id="a_edge44_Node000022_Node000017"><a xlink:title=" ">
<path fill="none" stroke="#63b8ff" d="M233.11,-167.96C275.31,-174.54 346.13,-189.45 399.25,-220.38 424.76,-235.23 447.97,-260.38 462.29,-277.88"/>
<polygon fill="#63b8ff" stroke="#63b8ff" points="459.39,-279.86 468.34,-285.52 464.87,-275.51 459.39,-279.86"/>
</a>
</g>
</g>
<!-- Node23 -->
<g id="Node000023" class="node">
<title>Node23</title>
<g id="a_Node000023"><a xlink:href="carrinho_2nrf24__avr_8c.html#a023289d1e49bf7f3b61e0e1c5312c8cf" target="_top" xlink:title=" ">
<polygon fill="white" stroke="#666666" points="383.88,-59.75 287.62,-59.75 287.62,-39 383.88,-39 383.88,-59.75"/>
<text xml:space="preserve" text-anchor="middle" x="335.75" y="-46.25" font-family="Helvetica,sans-Serif" font-size="10.00">nrf24_init_hwspi</text>
</a>
</g>
</g>
<!-- Node22&#45;&gt;Node23 -->
<g id="edge39_Node000022_Node000023" class="edge">
<title>Node22&#45;&gt;Node23</title>
<g id="a_edge39_Node000022_Node000023"><a xlink:title=" ">
<path fill="none" stroke="#63b8ff" d="M223.86,-152.56C228.33,-149.99 232.67,-146.94 236.25,-143.38 261.03,-118.68 246.21,-96.74 272.25,-73.38 275.61,-70.36 279.39,-67.71 283.38,-65.38"/>
<polygon fill="#63b8ff" stroke="#63b8ff" points="284.91,-68.53 292.28,-60.91 281.77,-62.27 284.91,-68.53"/>
</a>
</g>
</g>
<!-- Node25 -->
<g id="Node000025" class="node">
<title>Node25</title>
<g id="a_Node000025"><a xlink:href="carrinho_2nrf24__avr_8c.html#aaf2900e7932ebbf7f0ecdc6bce5840e1" target="_top" xlink:title=" ">
<polygon fill="white" stroke="#666666" points="396.25,-249.75 275.25,-249.75 275.25,-229 396.25,-229 396.25,-249.75"/>
<text xml:space="preserve" text-anchor="middle" x="335.75" y="-236.25" font-family="Helvetica,sans-Serif" font-size="10.00">nrf24_setPayloadSize</text>
</a>
</g>
</g>
<!-- Node22&#45;&gt;Node25 -->
<g id="edge41_Node000022_Node000025" class="edge">
<title>Node22&#45;&gt;Node25</title>
<g id="a_edge41_Node000022_Node000025"><a xlink:title=" ">
<path fill="none" stroke="#63b8ff" d="M216.44,-174.1C239.62,-186.89 278.58,-208.39 305.42,-223.19"/>
<polygon fill="#63b8ff" stroke="#63b8ff" points="303.63,-226.2 314.08,-227.97 307.01,-220.08 303.63,-226.2"/>
</a>
</g>
</g>
<!-- Node26 -->
<g id="Node000026" class="node">
<title>Node26</title>
<g id="a_Node000026"><a xlink:href="carrinho_2nrf24__avr_8c.html#aa3db4917fa58896ce0a8027a30795033" target="_top" xlink:title=" ">
<polygon fill="white" stroke="#666666" points="370.38,-20.75 301.12,-20.75 301.12,0 370.38,0 370.38,-20.75"/>
<text xml:space="preserve" text-anchor="middle" x="335.75" y="-7.25" font-family="Helvetica,sans-Serif" font-size="10.00">pinMode_d</text>
</a>
</g>
</g>
<!-- Node22&#45;&gt;Node26 -->
<g id="edge43_Node000022_Node000026" class="edge">
<title>Node22&#45;&gt;Node26</title>
<g id="a_edge43_Node000022_Node000026"><a xlink:title=" ">
<path fill="none" stroke="#63b8ff" d="M225.17,-152.55C229.3,-150.03 233.18,-146.99 236.25,-143.38 270.37,-103.2 235,-67.67 272.25,-30.38 277.27,-25.35 283.55,-21.59 290.18,-18.77"/>
<polygon fill="#63b8ff" stroke="#63b8ff" points="291.04,-22.17 299.33,-15.57 288.73,-15.56 291.04,-22.17"/>
</a>
</g>
</g>
<!-- Node24 -->
<g id="Node000024" class="node">
<title>Node24</title>
<g id="a_Node000024"><a xlink:href="carrinho_2nrf24__avr_8c.html#aa653f4dc3541758224a53eef3f04d490" target="_top" xlink:title=" ">
<polygon fill="white" stroke="#666666" points="503.75,-59.75 452.5,-59.75 452.5,-39 503.75,-39 503.75,-59.75"/>
<text xml:space="preserve" text-anchor="middle" x="478.12" y="-46.25" font-family="Helvetica,sans-Serif" font-size="10.00">spi_init</text>
</a>
</g>
</g>
<!-- Node23&#45;&gt;Node24 -->
<g id="edge40_Node000023_Node000024" class="edge">
<title>Node23&#45;&gt;Node24</title>
<g id="a_edge40_Node000023_Node000024"><a xlink:title=" ">
<path fill="none" stroke="#63b8ff" d="M384.27,-49.38C402.76,-49.38 423.59,-49.38 440.83,-49.38"/>
<polygon fill="#63b8ff" stroke="#63b8ff" points="440.61,-52.88 450.61,-49.38 440.61,-45.88 440.61,-52.88"/>
</a>
</g>
</g>
<!-- Node25&#45;&gt;Node17 -->
<g id="edge42_Node000025_Node000017" class="edge">
<title>Node25&#45;&gt;Node17</title>
<g id="a_edge42_Node000025_Node000017"><a xlink:title=" ">
<path fill="none" stroke="#63b8ff" d="M373.75,-250.24C382.21,-252.99 391.11,-256.11 399.25,-259.38 415.27,-265.81 432.57,-274.11 446.79,-281.31"/>
<polygon fill="#63b8ff" stroke="#63b8ff" points="445.15,-284.4 455.65,-285.86 448.35,-278.18 445.15,-284.4"/>
</a>
</g>
</g>
<!-- Node27&#45;&gt;Node17 -->
<g id="edge46_Node000027_Node000017" class="edge">
<title>Node27&#45;&gt;Node17</title>
<g id="a_edge46_Node000027_Node000017"><a xlink:title=" ">
<path fill="none" stroke="#63b8ff" d="M399.55,-286.87C411.79,-288.53 424.34,-290.23 435.68,-291.77"/>
<polygon fill="#63b8ff" stroke="#63b8ff" points="435.11,-295.22 445.49,-293.09 436.05,-288.28 435.11,-295.22"/>
</a>
</g>
</g>
</g>
</svg>

<g id="navigator" transform="translate(0 0)" fill="#404254">
  <rect fill="#f2f5e9" fill-opacity="0.5" stroke="#606060" stroke-width=".5" x="0" y="0" width="60" height="60"/>
  <use id="zoomplus" xlink:href="#zoomPlus" x="17" y="9" onmousedown="handleZoom(evt,'in')"/>
  <use id="zoomminus" xlink:href="#zoomMin" x="42" y="9" onmousedown="handleZoom(evt,'out')"/>
  <use id="reset" xlink:href="#resetDef" x="30" y="36" onmousedown="handleReset()"/>
   <use id="arrowup" xlink:href="#arrowUp" x="0" y="0" onmousedown="handlePan(0,-1)"/>
  <use id="arrowright" xlink:href="#arrowRight" x="0" y="0" onmousedown="handlePan(1,0)"/>
  <use id="arrowdown" xlink:href="#arrowDown" x="0" y="0" onmousedown="handlePan(0,1)"/>
  <use id="arrowleft" xlink:href="#arrowLeft" x="0" y="0" onmousedown="handlePan(-1,0)"/>
</g>
<svg viewBox="0 0 15 15" width="100%" height="30px" preserveAspectRatio="xMaxYMin meet">
 <g id="arrow_out" transform="scale(0.3 0.3)">
  <a xlink:href="controle_8c_ae66f6b31b5ad750f1fe042a706a4e3d4_cgraph_org.svg" target="_base">
   <rect id="button" ry="5" rx="5" y="6" x="6" height="38" width="38"
        fill="#f2f5e9" fill-opacity="0.5" stroke="#606060" stroke-width="1.0"/>
   <path id="arrow"
     d="M 11.500037,31.436501 C 11.940474,20.09759 22.043105,11.32322 32.158766,21.979434 L 37.068811,17.246167 C 37.068811,17.246167 37.088388,32 37.088388,32 L 22.160133,31.978069 C 22.160133,31.978069 26.997745,27.140456 26.997745,27.140456 C 18.528582,18.264221 13.291696,25.230495 11.500037,31.436501 z"
     style="fill:#404040;"/>
  </a>
 </g>
</svg>

<style type='text/css'>
<![CDATA[
[data-mouse-over-selected='false'] { opacity: 0.7; }
[data-mouse-over-selected='true']  { opacity: 1.0; }
]]>
</style>
<script type="application/ecmascript"><![CDATA[
document.addEventListener('DOMContentLoaded', (event) => {
  highlightEdges();
  highlightAdjacentNodes();
});
]]></script>
</svg>
