<?xml version="1.0" encoding="UTF-8" standalone="no"?>
<!DOCTYPE svg PUBLIC "-//W3C//DTD SVG 1.1//EN"
 "http://www.w3.org/Graphics/SVG/1.1/DTD/svg11.dtd">
<!-- Generated by graphviz version 14.0.4 (0)
 -->
<!-- Title: nrf24_stopListening Pages: 1 -->
<svg width="448pt" height="145pt"
 viewBox="0.00 0.00 448.00 145.00" xmlns="http://www.w3.org/2000/svg" xmlns:xlink="http://www.w3.org/1999/xlink">
<g id="graph0" class="graph" transform="scale(1 1) rotate(0) translate(4 140.75)">
<title>nrf24_stopListening</title>
<!-- Node1 -->
<g id="Node000001" class="node">
<title>Node1</title>
<g id="a_Node000001"><a xlink:title=" ">
<polygon fill="#999999" stroke="#666666" points="112,-59.75 0,-59.75 0,-39 112,-39 112,-59.75"/>
<text xml:space="preserve" text-anchor="middle" x="56" y="-46.25" font-family="Helvetica,sans-Serif" font-size="10.00">nrf24_stopListening</text>
</a>
</g>
</g>
<!-- Node2 -->
<g id="Node000002" class="node">
<title>Node2</title>
<g id="a_Node000002"><a xlink:href="carrinho_2nrf24__avr_8c.html#a77c5f7c57c01266d04faea3052a47f49" target="_top" xlink:title=" ">
<polygon fill="white" stroke="#666666" points="203.75,-20.75 154,-20.75 154,0 203.75,0 203.75,-20.75"/>
<text xml:space="preserve" text-anchor="middle" x="178.88" y="-7.25" font-family="Helvetica,sans-Serif" font-size="10.00">ce_low</text>
</a>
</g>
</g>
<!-- Node1&#45;&gt;Node2 -->
<g id="edge1_Node000001_Node000002" class="edge">
<title>Node1&#45;&gt;Node2</title>
<g id="a_edge1_Node000001_Node000002"><a xlink:title=" ">
<path fill="none" stroke="#63b8ff" d="M90.67,-38.51C106.9,-33.27 126.36,-26.99 142.78,-21.7"/>
<polygon fill="#63b8ff" stroke="#63b8ff" points="143.7,-25.08 152.14,-18.68 141.55,-18.42 143.7,-25.08"/>
</a>
</g>
</g>
<!-- Node4 -->
<g id="Node000004" class="node">
<title>Node4</title>
<g id="a_Node000004"><a xlink:href="carrinho_2nrf24__avr_8c.html#abefdb1d58b989853c0646a6c8b18b7d3" target="_top" xlink:title=" ">
<polygon fill="white" stroke="#666666" points="208.25,-98.75 149.5,-98.75 149.5,-78 208.25,-78 208.25,-98.75"/>
<text xml:space="preserve" text-anchor="middle" x="178.88" y="-85.25" font-family="Helvetica,sans-Serif" font-size="10.00">read_reg</text>
</a>
</g>
</g>
<!-- Node1&#45;&gt;Node4 -->
<g id="edge3_Node000001_Node000004" class="edge">
<title>Node1&#45;&gt;Node4</title>
<g id="a_edge3_Node000001_Node000004"><a xlink:title=" ">
<path fill="none" stroke="#63b8ff" d="M90.67,-60.24C105.51,-65.03 123.05,-70.69 138.49,-75.67"/>
<polygon fill="#63b8ff" stroke="#63b8ff" points="137.26,-78.95 147.86,-78.69 139.41,-72.29 137.26,-78.95"/>
</a>
</g>
</g>
<!-- Node8 -->
<g id="Node000008" class="node">
<title>Node8</title>
<g id="a_Node000008"><a xlink:href="carrinho_2nrf24__avr_8c.html#a08bc978021db604d02a6da754f73e7e2" target="_top" xlink:title=" ">
<polygon fill="white" stroke="#666666" points="209.75,-59.75 148,-59.75 148,-39 209.75,-39 209.75,-59.75"/>
<text xml:space="preserve" text-anchor="middle" x="178.88" y="-46.25" font-family="Helvetica,sans-Serif" font-size="10.00">write_reg</text>
</a>
</g>
</g>
<!-- Node1&#45;&gt;Node8 -->
<g id="edge9_Node000001_Node000008" class="edge">
<title>Node1&#45;&gt;Node8</title>
<g id="a_edge9_Node000001_Node000008"><a xlink:title=" ">
<path fill="none" stroke="#63b8ff" d="M112.48,-49.38C120.56,-49.38 128.76,-49.38 136.49,-49.38"/>
<polygon fill="#63b8ff" stroke="#63b8ff" points="136.28,-52.88 146.28,-49.38 136.28,-45.88 136.28,-52.88"/>
</a>
</g>
</g>
<!-- Node3 -->
<g id="Node000003" class="node">
<title>Node3</title>
<g id="a_Node000003"><a xlink:href="carrinho_2nrf24__avr_8c.html#a019970fc17b6b18fa4e45e0baf22c93f" target="_top" xlink:title=" ">
<polygon fill="white" stroke="#666666" points="439.75,-58.75 355.5,-58.75 355.5,-38 439.75,-38 439.75,-58.75"/>
<text xml:space="preserve" text-anchor="middle" x="397.62" y="-45.25" font-family="Helvetica,sans-Serif" font-size="10.00">digitalWrite_d</text>
</a>
</g>
</g>
<!-- Node2&#45;&gt;Node3 -->
<g id="edge2_Node000002_Node000003" class="edge">
<title>Node2&#45;&gt;Node3</title>
<g id="a_edge2_Node000002_Node000003"><a xlink:title=" ">
<path fill="none" stroke="#63b8ff" d="M204.22,-12.89C232.18,-15.97 279.37,-21.72 319.5,-29.38 327.79,-30.96 336.52,-32.87 345.01,-34.86"/>
<polygon fill="#63b8ff" stroke="#63b8ff" points="343.96,-38.21 354.5,-37.15 345.6,-31.4 343.96,-38.21"/>
</a>
</g>
</g>
<!-- Node5 -->
<g id="Node000005" class="node">
<title>Node5</title>
<g id="a_Node000005"><a xlink:href="carrinho_2nrf24__avr_8c.html#adaef88bc02a8e805de3b3a82bf317549" target="_top" xlink:title=" ">
<polygon fill="white" stroke="#666666" points="312,-58.75 253.25,-58.75 253.25,-38 312,-38 312,-58.75"/>
<text xml:space="preserve" text-anchor="middle" x="282.62" y="-45.25" font-family="Helvetica,sans-Serif" font-size="10.00">csn_high</text>
</a>
</g>
</g>
<!-- Node4&#45;&gt;Node5 -->
<g id="edge4_Node000004_Node000005" class="edge">
<title>Node4&#45;&gt;Node5</title>
<g id="a_edge4_Node000004_Node000005"><a xlink:title=" ">
<path fill="none" stroke="#63b8ff" d="M207.41,-77.55C218.49,-73.19 231.47,-68.09 243.44,-63.39"/>
<polygon fill="#63b8ff" stroke="#63b8ff" points="244.63,-66.68 252.66,-59.76 242.07,-60.16 244.63,-66.68"/>
</a>
</g>
</g>
<!-- Node6 -->
<g id="Node000006" class="node">
<title>Node6</title>
<g id="a_Node000006"><a xlink:href="carrinho_2nrf24__avr_8c.html#a42f8c1120431b7c37e116a4e1eac1cc2" target="_top" xlink:title=" ">
<polygon fill="white" stroke="#666666" points="310.12,-97.75 255.12,-97.75 255.12,-77 310.12,-77 310.12,-97.75"/>
<text xml:space="preserve" text-anchor="middle" x="282.62" y="-84.25" font-family="Helvetica,sans-Serif" font-size="10.00">csn_low</text>
</a>
</g>
</g>
<!-- Node4&#45;&gt;Node6 -->
<g id="edge6_Node000004_Node000006" class="edge">
<title>Node4&#45;&gt;Node6</title>
<g id="a_edge6_Node000004_Node000006"><a xlink:title=" ">
<path fill="none" stroke="#63b8ff" d="M208.49,-88.09C219.42,-87.99 232.06,-87.86 243.73,-87.75"/>
<polygon fill="#63b8ff" stroke="#63b8ff" points="243.49,-91.25 253.46,-87.65 243.42,-84.25 243.49,-91.25"/>
</a>
</g>
</g>
<!-- Node7 -->
<g id="Node000007" class="node">
<title>Node7</title>
<g id="a_Node000007"><a xlink:href="carrinho_2nrf24__avr_8c.html#a8d161d483c095113df5b69798e9cd725" target="_top" xlink:title=" ">
<polygon fill="white" stroke="#666666" points="319.5,-136.75 245.75,-136.75 245.75,-116 319.5,-116 319.5,-136.75"/>
<text xml:space="preserve" text-anchor="middle" x="282.62" y="-123.25" font-family="Helvetica,sans-Serif" font-size="10.00">spi_transfer</text>
</a>
</g>
</g>
<!-- Node4&#45;&gt;Node7 -->
<g id="edge8_Node000004_Node000007" class="edge">
<title>Node4&#45;&gt;Node7</title>
<g id="a_edge8_Node000004_Node000007"><a xlink:title=" ">
<path fill="none" stroke="#63b8ff" d="M208.49,-99.06C218.8,-102.91 230.64,-107.33 241.74,-111.48"/>
<polygon fill="#63b8ff" stroke="#63b8ff" points="240.51,-114.76 251.1,-114.98 242.96,-108.2 240.51,-114.76"/>
</a>
</g>
</g>
<!-- Node5&#45;&gt;Node3 -->
<g id="edge5_Node000005_Node000003" class="edge">
<title>Node5&#45;&gt;Node3</title>
<g id="a_edge5_Node000005_Node000003"><a xlink:title=" ">
<path fill="none" stroke="#63b8ff" d="M312.43,-48.38C321.94,-48.38 332.84,-48.38 343.57,-48.38"/>
<polygon fill="#63b8ff" stroke="#63b8ff" points="343.56,-51.88 353.56,-48.38 343.56,-44.88 343.56,-51.88"/>
</a>
</g>
</g>
<!-- Node6&#45;&gt;Node3 -->
<g id="edge7_Node000006_Node000003" class="edge">
<title>Node6&#45;&gt;Node3</title>
<g id="a_edge7_Node000006_Node000003"><a xlink:title=" ">
<path fill="none" stroke="#63b8ff" d="M310.4,-78.13C323.64,-73.56 339.91,-67.95 354.75,-62.83"/>
<polygon fill="#63b8ff" stroke="#63b8ff" points="355.49,-66.28 363.8,-59.7 353.2,-59.66 355.49,-66.28"/>
</a>
</g>
</g>
<!-- Node8&#45;&gt;Node5 -->
<g id="edge10_Node000008_Node000005" class="edge">
<title>Node8&#45;&gt;Node5</title>
<g id="a_edge10_Node000008_Node000005"><a xlink:title=" ">
<path fill="none" stroke="#63b8ff" d="M210.13,-49.08C220,-48.98 231.12,-48.87 241.6,-48.77"/>
<polygon fill="#63b8ff" stroke="#63b8ff" points="241.58,-52.27 251.54,-48.67 241.51,-45.27 241.58,-52.27"/>
</a>
</g>
</g>
<!-- Node8&#45;&gt;Node6 -->
<g id="edge11_Node000008_Node000006" class="edge">
<title>Node8&#45;&gt;Node6</title>
<g id="a_edge11_Node000008_Node000006"><a xlink:title=" ">
<path fill="none" stroke="#63b8ff" d="M208.76,-60.16C219.71,-64.25 232.35,-68.97 243.99,-73.32"/>
<polygon fill="#63b8ff" stroke="#63b8ff" points="242.75,-76.59 253.34,-76.81 245.2,-70.04 242.75,-76.59"/>
</a>
</g>
</g>
<!-- Node8&#45;&gt;Node7 -->
<g id="edge12_Node000008_Node000007" class="edge">
<title>Node8&#45;&gt;Node7</title>
<g id="a_edge12_Node000008_Node000007"><a xlink:title=" ">
<path fill="none" stroke="#63b8ff" d="M197.38,-60.2C201.56,-63.03 205.91,-66.18 209.75,-69.38 227.38,-84.06 227.54,-92.42 245.75,-106.38 247.23,-107.51 248.78,-108.62 250.37,-109.7"/>
<polygon fill="#63b8ff" stroke="#63b8ff" points="248.11,-112.41 258.45,-114.71 251.8,-106.46 248.11,-112.41"/>
</a>
</g>
</g>
</g>
</svg>
