<?xml version="1.0" encoding="UTF-8" standalone="no"?>
<!DOCTYPE svg PUBLIC "-//W3C//DTD SVG 1.1//EN"
 "http://www.w3.org/Graphics/SVG/1.1/DTD/svg11.dtd">
<!-- Generated by graphviz version 14.0.4 (0)
 -->
<!-- Title: main Pages: 1 -->
<!--zoomable 414 -->

<svg id="main" version="1.1" xmlns="http://www.w3.org/2000/svg" xmlns:xlink="http://www.w3.org/1999/xlink" xml:space="preserve" onload="init(evt)">

<style type="text/css"><![CDATA[
.node, .edge {opacity: 0.7;}
.node.selected, .edge.selected {opacity: 1;}
.edge:hover path { stroke: red; }
.edge:hover polygon { stroke: red; fill: red; }
]]></style>

<defs>
  <circle id="rim" cx="0" cy="0" r="7"/>
  <circle id="rim2" cx="0" cy="0" r="3.5"/>
  <g id="zoomPlus">
    <use xlink:href="#rim" fill="#404040"><set attributeName="fill" to="#808080" begin="zoomplus.mouseover" end="zoomplus.mouseout"/></use>
    <path d="M-4,0h8M0,-4v8" fill="none" stroke="white" stroke-width="1.5" pointer-events="none"/>
  </g>
  <g id="zoomMin">
    <use xlink:href="#rim" fill="#404040"><set attributeName="fill" to="#808080" begin="zoomminus.mouseover" end="zoomminus.mouseout"/></use>
    <path d="M-4,0h8" fill="none" stroke="white" stroke-width="1.5" pointer-events="none"/>
  </g>
  <g id="arrowUp" transform="translate(30 24)">
    <use xlink:href="#rim"/>
    <path pointer-events="none" fill="none" stroke="white" stroke-width="1.5" d="M0,-3.0v7 M-2.5,-0.5L0,-3.0L2.5,-0.5"/>
  </g>
  <g id="arrowRight" transform="rotate(90) translate(36 -43)">
    <use xlink:href="#rim"/>
    <path pointer-events="none" fill="none" stroke="white" stroke-width="1.5" d="M0,-3.0v7 M-2.5,-0.5L0,-3.0L2.5,-0.5"/>
  </g>
  <g id="arrowDown" transform="rotate(180) translate(-30 -48)">
    <use xlink:href="#rim"/>
    <path pointer-events="none" fill="none" stroke="white" stroke-width="1.5" d="M0,-3.0v7 M-2.5,-0.5L0,-3.0L2.5,-0.5"/>
  </g>
  <g id="arrowLeft" transform="rotate(270) translate(-36 17)">
    <use xlink:href="#rim"/>
    <path pointer-events="none" fill="none" stroke="white" stroke-width="1.5" d="M0,-3.0v7 M-2.5,-0.5L0,-3.0L2.5,-0.5"/>
  </g>
  <g id="resetDef">
    <use xlink:href="#rim2" fill="#404040"><set attributeName="fill" to="#808080" begin="reset.mouseover" end="reset.mouseout"/></use>
  </g>
</defs>
<script type="application/ecmascript">
var viewWidth = 721;
var viewHeight = 414;
var sectionId = 'dynsection-1';
</script>
<script type="application/ecmascript" xlink:href="svg.min.js"/>
<svg id="graph" class="graph">
<g id="viewport">
<title>main</title>
<!-- Node1 -->
<g id="Node000001" class="node">
<title>Node1</title>
<g id="a_Node000001"><a xlink:title=" ">
<polygon fill="#999999" stroke="#666666" points="40.75,-292.06 0,-292.06 0,-271.31 40.75,-271.31 40.75,-292.06"/>
<text xml:space="preserve" text-anchor="middle" x="20.38" y="-278.56" font-family="Helvetica,sans-Serif" font-size="10.00">main</text>
</a>
</g>
</g>
<!-- Node2 -->
<g id="Node000002" class="node">
<title>Node2</title>
<g id="a_Node000002"><a xlink:href="nrf24__avr_8c.html#a0f64caa74329fd5799a33f30bd8ebf82" target="_top" xlink:title=" ">
<polygon fill="white" stroke="#666666" points="188.38,-406.06 96.62,-406.06 96.62,-385.31 188.38,-385.31 188.38,-406.06"/>
<text xml:space="preserve" text-anchor="middle" x="142.5" y="-392.56" font-family="Helvetica,sans-Serif" font-size="10.00">nrf24_available</text>
</a>
</g>
</g>
<!-- Node1&#45;&gt;Node2 -->
<g id="edge1_Node000001_Node000002" class="edge">
<title>Node1&#45;&gt;Node2</title>
<g id="a_edge1_Node000001_Node000002"><a xlink:title=" ">
<path fill="none" stroke="#63b8ff" d="M25.26,-292.43C32.54,-311.12 49.94,-349.69 76.75,-371.68 80.66,-374.89 85.04,-377.7 89.63,-380.14"/>
<polygon fill="#63b8ff" stroke="#63b8ff" points="88,-383.24 98.54,-384.3 90.96,-376.9 88,-383.24"/>
</a>
</g>
</g>
<!-- Node8 -->
<g id="Node000008" class="node">
<title>Node8</title>
<g id="a_Node000008"><a xlink:href="nrf24__avr_8c.html#ab6fb4c1aa834152310116e7dec65d8e3" target="_top" xlink:title=" ">
<polygon fill="white" stroke="#666666" points="179.38,-139.06 105.62,-139.06 105.62,-118.31 179.38,-118.31 179.38,-139.06"/>
<text xml:space="preserve" text-anchor="middle" x="142.5" y="-125.56" font-family="Helvetica,sans-Serif" font-size="10.00">nrf24_begin</text>
</a>
</g>
</g>
<!-- Node1&#45;&gt;Node8 -->
<g id="edge8_Node000001_Node000008" class="edge">
<title>Node1&#45;&gt;Node8</title>
<g id="a_edge8_Node000001_Node000008"><a xlink:title=" ">
<path fill="none" stroke="#63b8ff" d="M26.7,-271.01C35.74,-253.39 55.2,-217.5 76.75,-190.68 89.66,-174.62 106.54,-158.58 119.83,-146.84"/>
<polygon fill="#63b8ff" stroke="#63b8ff" points="121.95,-149.64 127.22,-140.45 117.37,-144.35 121.95,-149.64"/>
</a>
</g>
</g>
<!-- Node12 -->
<g id="Node000012" class="node">
<title>Node12</title>
<g id="a_Node000012"><a xlink:href="nrf24__avr_8c.html#aaf2900e7932ebbf7f0ecdc6bce5840e1" target="_top" xlink:title=" ">
<polygon fill="white" stroke="#666666" points="365.25,-215.06 244.25,-215.06 244.25,-194.31 365.25,-194.31 365.25,-215.06"/>
<text xml:space="preserve" text-anchor="middle" x="304.75" y="-201.56" font-family="Helvetica,sans-Serif" font-size="10.00">nrf24_setPayloadSize</text>
</a>
</g>
</g>
<!-- Node1&#45;&gt;Node12 -->
<g id="edge31_Node000001_Node000012" class="edge">
<title>Node1&#45;&gt;Node12</title>
<g id="a_edge31_Node000001_Node000012"><a xlink:title=" ">
<path fill="none" stroke="#63b8ff" d="M28.05,-270.86C37.17,-257.17 54.9,-234.13 76.75,-223.68 125.1,-200.56 185.87,-196.6 232.36,-197.99"/>
<polygon fill="#63b8ff" stroke="#63b8ff" points="232.22,-201.48 242.35,-198.38 232.5,-194.49 232.22,-201.48"/>
</a>
</g>
</g>
<!-- Node15 -->
<g id="Node000015" class="node">
<title>Node15</title>
<g id="a_Node000015"><a xlink:href="nrf24__avr_8c.html#a5af2f11537aed8a56d8489355af0ff16" target="_top" xlink:title=" ">
<polygon fill="white" stroke="#666666" points="208.25,-253.06 76.75,-253.06 76.75,-232.31 208.25,-232.31 208.25,-253.06"/>
<text xml:space="preserve" text-anchor="middle" x="142.5" y="-239.56" font-family="Helvetica,sans-Serif" font-size="10.00">nrf24_openReadingPipe</text>
</a>
</g>
</g>
<!-- Node1&#45;&gt;Node15 -->
<g id="edge21_Node000001_Node000015" class="edge">
<title>Node1&#45;&gt;Node15</title>
<g id="a_edge21_Node000001_Node000015"><a xlink:title=" ">
<path fill="none" stroke="#63b8ff" d="M41.06,-274.76C51.62,-271.1 64.86,-266.56 76.75,-262.68 82.62,-260.77 88.81,-258.8 94.94,-256.88"/>
<polygon fill="#63b8ff" stroke="#63b8ff" points="95.86,-260.25 104.37,-253.94 93.78,-253.57 95.86,-260.25"/>
</a>
</g>
</g>
<!-- Node16 -->
<g id="Node000016" class="node">
<title>Node16</title>
<g id="a_Node000016"><a xlink:href="nrf24__avr_8c.html#aa0767db791fc0b45ebadab011c1900bf" target="_top" xlink:title=" ">
<polygon fill="white" stroke="#666666" points="339,-329.06 270.5,-329.06 270.5,-308.31 339,-308.31 339,-329.06"/>
<text xml:space="preserve" text-anchor="middle" x="304.75" y="-315.56" font-family="Helvetica,sans-Serif" font-size="10.00">nrf24_read</text>
</a>
</g>
</g>
<!-- Node1&#45;&gt;Node16 -->
<g id="edge23_Node000001_Node000016" class="edge">
<title>Node1&#45;&gt;Node16</title>
<g id="a_edge23_Node000001_Node000016"><a xlink:title=" ">
<path fill="none" stroke="#63b8ff" d="M41.03,-289.78C51.46,-293.73 64.61,-298.16 76.75,-300.68 139.06,-313.63 212.77,-317.41 258.9,-318.44"/>
<polygon fill="#63b8ff" stroke="#63b8ff" points="258.72,-321.93 268.79,-318.62 258.85,-314.93 258.72,-321.93"/>
</a>
</g>
</g>
<!-- Node18 -->
<g id="Node000018" class="node">
<title>Node18</title>
<g id="a_Node000018"><a xlink:href="nrf24__avr_8c.html#a49aa88b1042d6d62114cfbca271d9e2b" target="_top" xlink:title=" ">
<polygon fill="white" stroke="#666666" points="193.25,-292.06 91.75,-292.06 91.75,-271.31 193.25,-271.31 193.25,-292.06"/>
<text xml:space="preserve" text-anchor="middle" x="142.5" y="-278.56" font-family="Helvetica,sans-Serif" font-size="10.00">nrf24_setChannel</text>
</a>
</g>
</g>
<!-- Node1&#45;&gt;Node18 -->
<g id="edge29_Node000001_Node000018" class="edge">
<title>Node1&#45;&gt;Node18</title>
<g id="a_edge29_Node000001_Node000018"><a xlink:title=" ">
<path fill="none" stroke="#63b8ff" d="M41.21,-281.68C51.99,-281.68 65.97,-281.68 80.05,-281.68"/>
<polygon fill="#63b8ff" stroke="#63b8ff" points="79.79,-285.18 89.79,-281.68 79.79,-278.18 79.79,-285.18"/>
</a>
</g>
</g>
<!-- Node19 -->
<g id="Node000019" class="node">
<title>Node19</title>
<g id="a_Node000019"><a xlink:href="nrf24__avr_8c.html#a71c5628e9583f6a6fd0871b3ae1bf6df" target="_top" xlink:title=" ">
<polygon fill="white" stroke="#666666" points="361.5,-368.06 248,-368.06 248,-347.31 361.5,-347.31 361.5,-368.06"/>
<text xml:space="preserve" text-anchor="middle" x="304.75" y="-354.56" font-family="Helvetica,sans-Serif" font-size="10.00">nrf24_startListening</text>
</a>
</g>
</g>
<!-- Node1&#45;&gt;Node19 -->
<g id="edge32_Node000001_Node000019" class="edge">
<title>Node1&#45;&gt;Node19</title>
<g id="a_edge32_Node000001_Node000019"><a xlink:title=" ">
<path fill="none" stroke="#63b8ff" d="M32.24,-292.28C42.73,-301.85 59.53,-315.5 76.75,-322.68 127.64,-343.91 189.79,-352.42 236.18,-355.75"/>
<polygon fill="#63b8ff" stroke="#63b8ff" points="235.9,-359.24 246.11,-356.4 236.35,-352.26 235.9,-359.24"/>
</a>
</g>
</g>
<!-- Node3 -->
<g id="Node000003" class="node">
<title>Node3</title>
<g id="a_Node000003"><a xlink:href="nrf24__avr_8c.html#abefdb1d58b989853c0646a6c8b18b7d3" target="_top" xlink:title=" ">
<polygon fill="white" stroke="#666666" points="471.62,-349.06 412.88,-349.06 412.88,-328.31 471.62,-328.31 471.62,-349.06"/>
<text xml:space="preserve" text-anchor="middle" x="442.25" y="-335.56" font-family="Helvetica,sans-Serif" font-size="10.00">read_reg</text>
</a>
</g>
</g>
<!-- Node2&#45;&gt;Node3 -->
<g id="edge2_Node000002_Node000003" class="edge">
<title>Node2&#45;&gt;Node3</title>
<g id="a_edge2_Node000002_Node000003"><a xlink:title=" ">
<path fill="none" stroke="#63b8ff" d="M188.56,-396.74C234,-396.68 305.74,-393.45 365.25,-376.68 382.62,-371.79 400.74,-362.9 414.93,-354.95"/>
<polygon fill="#63b8ff" stroke="#63b8ff" points="416.3,-358.2 423.19,-350.15 412.78,-352.15 416.3,-358.2"/>
</a>
</g>
</g>
<!-- Node4 -->
<g id="Node000004" class="node">
<title>Node4</title>
<g id="a_Node000004"><a xlink:href="nrf24__avr_8c.html#adaef88bc02a8e805de3b3a82bf317549" target="_top" xlink:title=" ">
<polygon fill="white" stroke="#666666" points="585.5,-270.06 526.75,-270.06 526.75,-249.31 585.5,-249.31 585.5,-270.06"/>
<text xml:space="preserve" text-anchor="middle" x="556.12" y="-256.56" font-family="Helvetica,sans-Serif" font-size="10.00">csn_high</text>
</a>
</g>
</g>
<!-- Node3&#45;&gt;Node4 -->
<g id="edge3_Node000003_Node000004" class="edge">
<title>Node3&#45;&gt;Node4</title>
<g id="a_edge3_Node000003_Node000004"><a xlink:title=" ">
<path fill="none" stroke="#63b8ff" d="M468.19,-327.97C473.38,-325.26 478.66,-322.14 483.25,-318.68 502.11,-304.51 500.72,-294.28 519.25,-279.68 520.71,-278.53 522.25,-277.41 523.84,-276.31"/>
<polygon fill="#63b8ff" stroke="#63b8ff" points="525.27,-279.54 531.89,-271.27 521.56,-273.61 525.27,-279.54"/>
</a>
</g>
</g>
<!-- Node6 -->
<g id="Node000006" class="node">
<title>Node6</title>
<g id="a_Node000006"><a xlink:href="nrf24__avr_8c.html#a42f8c1120431b7c37e116a4e1eac1cc2" target="_top" xlink:title=" ">
<polygon fill="white" stroke="#666666" points="583.62,-309.06 528.62,-309.06 528.62,-288.31 583.62,-288.31 583.62,-309.06"/>
<text xml:space="preserve" text-anchor="middle" x="556.12" y="-295.56" font-family="Helvetica,sans-Serif" font-size="10.00">csn_low</text>
</a>
</g>
</g>
<!-- Node3&#45;&gt;Node6 -->
<g id="edge5_Node000003_Node000006" class="edge">
<title>Node3&#45;&gt;Node6</title>
<g id="a_edge5_Node000003_Node000006"><a xlink:title=" ">
<path fill="none" stroke="#63b8ff" d="M472.06,-328.38C486.02,-323.39 502.96,-317.34 517.89,-312"/>
<polygon fill="#63b8ff" stroke="#63b8ff" points="518.67,-315.44 526.91,-308.77 516.31,-308.84 518.67,-315.44"/>
</a>
</g>
</g>
<!-- Node7 -->
<g id="Node000007" class="node">
<title>Node7</title>
<g id="a_Node000007"><a xlink:href="nrf24__avr_8c.html#a8d161d483c095113df5b69798e9cd725" target="_top" xlink:title=" ">
<polygon fill="white" stroke="#666666" points="593,-348.06 519.25,-348.06 519.25,-327.31 593,-327.31 593,-348.06"/>
<text xml:space="preserve" text-anchor="middle" x="556.12" y="-334.56" font-family="Helvetica,sans-Serif" font-size="10.00">spi_transfer</text>
</a>
</g>
</g>
<!-- Node3&#45;&gt;Node7 -->
<g id="edge7_Node000003_Node000007" class="edge">
<title>Node3&#45;&gt;Node7</title>
<g id="a_edge7_Node000003_Node000007"><a xlink:title=" ">
<path fill="none" stroke="#63b8ff" d="M472.06,-338.43C482.85,-338.33 495.43,-338.22 507.47,-338.11"/>
<polygon fill="#63b8ff" stroke="#63b8ff" points="507.31,-341.61 517.27,-338.02 507.24,-334.61 507.31,-341.61"/>
</a>
</g>
</g>
<!-- Node5 -->
<g id="Node000005" class="node">
<title>Node5</title>
<g id="a_Node000005"><a xlink:href="nrf24__avr_8c.html#a019970fc17b6b18fa4e45e0baf22c93f" target="_top" xlink:title=" ">
<polygon fill="white" stroke="#666666" points="713.25,-289.06 629,-289.06 629,-268.31 713.25,-268.31 713.25,-289.06"/>
<text xml:space="preserve" text-anchor="middle" x="671.12" y="-275.56" font-family="Helvetica,sans-Serif" font-size="10.00">digitalWrite_d</text>
</a>
</g>
</g>
<!-- Node4&#45;&gt;Node5 -->
<g id="edge4_Node000004_Node000005" class="edge">
<title>Node4&#45;&gt;Node5</title>
<g id="a_edge4_Node000004_Node000005"><a xlink:title=" ">
<path fill="none" stroke="#63b8ff" d="M585.93,-264.53C595.54,-266.14 606.57,-268 617.41,-269.82"/>
<polygon fill="#63b8ff" stroke="#63b8ff" points="616.64,-273.24 627.08,-271.45 617.8,-266.34 616.64,-273.24"/>
</a>
</g>
</g>
<!-- Node6&#45;&gt;Node5 -->
<g id="edge6_Node000006_Node000005" class="edge">
<title>Node6&#45;&gt;Node5</title>
<g id="a_edge6_Node000006_Node000005"><a xlink:title=" ">
<path fill="none" stroke="#63b8ff" d="M583.9,-293.94C593.99,-292.16 605.85,-290.06 617.49,-288"/>
<polygon fill="#63b8ff" stroke="#63b8ff" points="617.79,-291.5 627.02,-286.31 616.57,-284.61 617.79,-291.5"/>
</a>
</g>
</g>
<!-- Node8&#45;&gt;Node4 -->
<g id="edge11_Node000008_Node000004" class="edge">
<title>Node8&#45;&gt;Node4</title>
<g id="a_edge11_Node000008_Node000004"><a xlink:title=" ">
<path fill="none" stroke="#63b8ff" d="M179.81,-125.68C224.56,-123.17 302.38,-122.71 365.25,-142.68 432.76,-164.13 500.75,-214.68 534.05,-241.78"/>
<polygon fill="#63b8ff" stroke="#63b8ff" points="531.77,-244.43 541.7,-248.1 536.23,-239.03 531.77,-244.43"/>
</a>
</g>
</g>
<!-- Node9 -->
<g id="Node000009" class="node">
<title>Node9</title>
<g id="a_Node000009"><a xlink:href="nrf24__avr_8c.html#a77c5f7c57c01266d04faea3052a47f49" target="_top" xlink:title=" ">
<polygon fill="white" stroke="#666666" points="581,-137.06 531.25,-137.06 531.25,-116.31 581,-116.31 581,-137.06"/>
<text xml:space="preserve" text-anchor="middle" x="556.12" y="-123.56" font-family="Helvetica,sans-Serif" font-size="10.00">ce_low</text>
</a>
</g>
</g>
<!-- Node8&#45;&gt;Node9 -->
<g id="edge9_Node000008_Node000009" class="edge">
<title>Node8&#45;&gt;Node9</title>
<g id="a_edge9_Node000008_Node000009"><a xlink:title=" ">
<path fill="none" stroke="#63b8ff" d="M150.48,-117.91C164.95,-96.73 200.51,-50.19 244.25,-32.68 342.87,6.78 388.02,14.38 483.25,-32.68 513.82,-47.79 534.96,-82.82 546.05,-105.58"/>
<polygon fill="#63b8ff" stroke="#63b8ff" points="542.81,-106.93 550.17,-114.55 549.17,-104 542.81,-106.93"/>
</a>
</g>
</g>
<!-- Node10 -->
<g id="Node000010" class="node">
<title>Node10</title>
<g id="a_Node000010"><a xlink:href="nrf24__avr_8c.html#a023289d1e49bf7f3b61e0e1c5312c8cf" target="_top" xlink:title=" ">
<polygon fill="white" stroke="#666666" points="352.88,-62.06 256.62,-62.06 256.62,-41.31 352.88,-41.31 352.88,-62.06"/>
<text xml:space="preserve" text-anchor="middle" x="304.75" y="-48.56" font-family="Helvetica,sans-Serif" font-size="10.00">nrf24_init_hwspi</text>
</a>
</g>
</g>
<!-- Node8&#45;&gt;Node10 -->
<g id="edge12_Node000008_Node000010" class="edge">
<title>Node8&#45;&gt;Node10</title>
<g id="a_edge12_Node000008_Node000010"><a xlink:title=" ">
<path fill="none" stroke="#63b8ff" d="M160.1,-117.98C179.66,-105.69 213.42,-85.44 244.25,-71.68 248.33,-69.86 252.63,-68.11 256.98,-66.46"/>
<polygon fill="#63b8ff" stroke="#63b8ff" points="258.14,-69.76 266.35,-63.06 255.76,-63.18 258.14,-69.76"/>
</a>
</g>
</g>
<!-- Node8&#45;&gt;Node12 -->
<g id="edge14_Node000008_Node000012" class="edge">
<title>Node8&#45;&gt;Node12</title>
<g id="a_edge14_Node000008_Node000012"><a xlink:title=" ">
<path fill="none" stroke="#63b8ff" d="M162.92,-139.4C183.02,-150.31 215.44,-167.47 244.25,-180.68 250.83,-183.7 257.9,-186.73 264.79,-189.58"/>
<polygon fill="#63b8ff" stroke="#63b8ff" points="263.39,-192.78 273.97,-193.29 266.02,-186.3 263.39,-192.78"/>
</a>
</g>
</g>
<!-- Node13 -->
<g id="Node000013" class="node">
<title>Node13</title>
<g id="a_Node000013"><a xlink:href="nrf24__avr_8c.html#a08bc978021db604d02a6da754f73e7e2" target="_top" xlink:title=" ">
<polygon fill="white" stroke="#666666" points="473.12,-271.06 411.38,-271.06 411.38,-250.31 473.12,-250.31 473.12,-271.06"/>
<text xml:space="preserve" text-anchor="middle" x="442.25" y="-257.56" font-family="Helvetica,sans-Serif" font-size="10.00">write_reg</text>
</a>
</g>
</g>
<!-- Node8&#45;&gt;Node13 -->
<g id="edge20_Node000008_Node000013" class="edge">
<title>Node8&#45;&gt;Node13</title>
<g id="a_edge20_Node000008_Node000013"><a xlink:title=" ">
<path fill="none" stroke="#63b8ff" d="M179.84,-132.14C225.64,-137.77 305.58,-151.9 365.25,-185.68 390.16,-199.79 412.67,-224.16 426.61,-241.29"/>
<polygon fill="#63b8ff" stroke="#63b8ff" points="423.56,-243.07 432.5,-248.76 429.06,-238.74 423.56,-243.07"/>
</a>
</g>
</g>
<!-- Node14 -->
<g id="Node000014" class="node">
<title>Node14</title>
<g id="a_Node000014"><a xlink:href="nrf24__avr_8c.html#aa3db4917fa58896ce0a8027a30795033" target="_top" xlink:title=" ">
<polygon fill="white" stroke="#666666" points="339.38,-101.06 270.12,-101.06 270.12,-80.31 339.38,-80.31 339.38,-101.06"/>
<text xml:space="preserve" text-anchor="middle" x="304.75" y="-87.56" font-family="Helvetica,sans-Serif" font-size="10.00">pinMode_d</text>
</a>
</g>
</g>
<!-- Node8&#45;&gt;Node14 -->
<g id="edge19_Node000008_Node000014" class="edge">
<title>Node8&#45;&gt;Node14</title>
<g id="a_edge19_Node000008_Node000014"><a xlink:title=" ">
<path fill="none" stroke="#63b8ff" d="M179.86,-120.06C203.25,-114.52 233.8,-107.27 258.72,-101.36"/>
<polygon fill="#63b8ff" stroke="#63b8ff" points="259.33,-104.82 268.25,-99.1 257.71,-98 259.33,-104.82"/>
</a>
</g>
</g>
<!-- Node9&#45;&gt;Node5 -->
<g id="edge10_Node000009_Node000005" class="edge">
<title>Node9&#45;&gt;Node5</title>
<g id="a_edge10_Node000009_Node000005"><a xlink:title=" ">
<path fill="none" stroke="#63b8ff" d="M564.89,-137.13C583.6,-162.3 631.4,-226.59 655.61,-259.15"/>
<polygon fill="#63b8ff" stroke="#63b8ff" points="652.63,-261.01 661.4,-266.95 658.24,-256.84 652.63,-261.01"/>
</a>
</g>
</g>
<!-- Node11 -->
<g id="Node000011" class="node">
<title>Node11</title>
<g id="a_Node000011"><a xlink:href="nrf24__avr_8c.html#aa653f4dc3541758224a53eef3f04d490" target="_top" xlink:title=" ">
<polygon fill="white" stroke="#666666" points="467.88,-62.06 416.62,-62.06 416.62,-41.31 467.88,-41.31 467.88,-62.06"/>
<text xml:space="preserve" text-anchor="middle" x="442.25" y="-48.56" font-family="Helvetica,sans-Serif" font-size="10.00">spi_init</text>
</a>
</g>
</g>
<!-- Node10&#45;&gt;Node11 -->
<g id="edge13_Node000010_Node000011" class="edge">
<title>Node10&#45;&gt;Node11</title>
<g id="a_edge13_Node000010_Node000011"><a xlink:title=" ">
<path fill="none" stroke="#63b8ff" d="M353.14,-51.68C370.05,-51.68 388.82,-51.68 404.68,-51.68"/>
<polygon fill="#63b8ff" stroke="#63b8ff" points="404.64,-55.18 414.64,-51.68 404.64,-48.18 404.64,-55.18"/>
</a>
</g>
</g>
<!-- Node12&#45;&gt;Node13 -->
<g id="edge15_Node000012_Node000013" class="edge">
<title>Node12&#45;&gt;Node13</title>
<g id="a_edge15_Node000012_Node000013"><a xlink:title=" ">
<path fill="none" stroke="#63b8ff" d="M332.74,-215.47C342.94,-219.57 354.64,-224.31 365.25,-228.68 378.49,-234.14 392.98,-240.22 405.73,-245.6"/>
<polygon fill="#63b8ff" stroke="#63b8ff" points="403.99,-248.66 414.56,-249.33 406.72,-242.21 403.99,-248.66"/>
</a>
</g>
</g>
<!-- Node13&#45;&gt;Node4 -->
<g id="edge16_Node000013_Node000004" class="edge">
<title>Node13&#45;&gt;Node4</title>
<g id="a_edge16_Node000013_Node000004"><a xlink:title=" ">
<path fill="none" stroke="#63b8ff" d="M473.52,-260.41C486.37,-260.3 501.51,-260.16 515.24,-260.04"/>
<polygon fill="#63b8ff" stroke="#63b8ff" points="514.89,-263.54 524.85,-259.95 514.82,-256.54 514.89,-263.54"/>
</a>
</g>
</g>
<!-- Node13&#45;&gt;Node6 -->
<g id="edge17_Node000013_Node000006" class="edge">
<title>Node13&#45;&gt;Node6</title>
<g id="a_edge17_Node000013_Node000006"><a xlink:title=" ">
<path fill="none" stroke="#63b8ff" d="M473.52,-270.97C487.14,-275.59 503.34,-281.09 517.71,-285.97"/>
<polygon fill="#63b8ff" stroke="#63b8ff" points="516.23,-289.17 526.83,-289.07 518.49,-282.54 516.23,-289.17"/>
</a>
</g>
</g>
<!-- Node13&#45;&gt;Node7 -->
<g id="edge18_Node000013_Node000007" class="edge">
<title>Node13&#45;&gt;Node7</title>
<g id="a_edge18_Node000013_Node000007"><a xlink:title=" ">
<path fill="none" stroke="#63b8ff" d="M468.12,-271.49C473.31,-274.19 478.61,-277.29 483.25,-280.68 501.77,-294.23 501.04,-303.73 519.25,-317.68 520.73,-318.82 522.28,-319.93 523.87,-321.01"/>
<polygon fill="#63b8ff" stroke="#63b8ff" points="521.61,-323.72 531.95,-326.02 525.3,-317.77 521.61,-323.72"/>
</a>
</g>
</g>
<!-- Node15&#45;&gt;Node13 -->
<g id="edge22_Node000015_Node000013" class="edge">
<title>Node15&#45;&gt;Node13</title>
<g id="a_edge22_Node000015_Node000013"><a xlink:title=" ">
<path fill="none" stroke="#63b8ff" d="M208.47,-246.61C266.61,-250.13 350.1,-255.17 399.68,-258.17"/>
<polygon fill="#63b8ff" stroke="#63b8ff" points="399.22,-261.65 409.42,-258.76 399.64,-254.66 399.22,-261.65"/>
</a>
</g>
</g>
<!-- Node16&#45;&gt;Node13 -->
<g id="edge28_Node000016_Node000013" class="edge">
<title>Node16&#45;&gt;Node13</title>
<g id="a_edge28_Node000016_Node000013"><a xlink:title=" ">
<path fill="none" stroke="#63b8ff" d="M333.09,-307.9C343.23,-303.84 354.79,-299.13 365.25,-294.68 379.07,-288.81 394.19,-282.1 407.28,-276.2"/>
<polygon fill="#63b8ff" stroke="#63b8ff" points="408.68,-279.41 416.35,-272.1 405.8,-273.04 408.68,-279.41"/>
</a>
</g>
</g>
<!-- Node17 -->
<g id="Node000017" class="node">
<title>Node17</title>
<g id="a_Node000017"><a xlink:href="nrf24__avr_8c.html#ac4a676257b5b86b05f4ea608636cb2cf" target="_top" xlink:title=" ">
<polygon fill="white" stroke="#666666" points="483.25,-310.06 401.25,-310.06 401.25,-289.31 483.25,-289.31 483.25,-310.06"/>
<text xml:space="preserve" text-anchor="middle" x="442.25" y="-296.56" font-family="Helvetica,sans-Serif" font-size="10.00">read_payload</text>
</a>
</g>
</g>
<!-- Node16&#45;&gt;Node17 -->
<g id="edge24_Node000016_Node000017" class="edge">
<title>Node16&#45;&gt;Node17</title>
<g id="a_edge24_Node000016_Node000017"><a xlink:title=" ">
<path fill="none" stroke="#63b8ff" d="M339.24,-313.99C354.4,-311.86 372.66,-309.3 389.51,-306.94"/>
<polygon fill="#63b8ff" stroke="#63b8ff" points="389.99,-310.41 399.4,-305.55 389.01,-303.47 389.99,-310.41"/>
</a>
</g>
</g>
<!-- Node17&#45;&gt;Node4 -->
<g id="edge25_Node000017_Node000004" class="edge">
<title>Node17&#45;&gt;Node4</title>
<g id="a_edge25_Node000017_Node000004"><a xlink:title=" ">
<path fill="none" stroke="#63b8ff" d="M473.52,-288.86C486.49,-284.22 501.81,-278.74 515.66,-273.8"/>
<polygon fill="#63b8ff" stroke="#63b8ff" points="516.7,-277.14 524.94,-270.48 514.35,-270.55 516.7,-277.14"/>
</a>
</g>
</g>
<!-- Node17&#45;&gt;Node6 -->
<g id="edge26_Node000017_Node000006" class="edge">
<title>Node17&#45;&gt;Node6</title>
<g id="a_edge26_Node000017_Node000006"><a xlink:title=" ">
<path fill="none" stroke="#63b8ff" d="M483.64,-299.32C494.58,-299.23 506.38,-299.12 517.18,-299.02"/>
<polygon fill="#63b8ff" stroke="#63b8ff" points="516.94,-302.53 526.9,-298.94 516.87,-295.53 516.94,-302.53"/>
</a>
</g>
</g>
<!-- Node17&#45;&gt;Node7 -->
<g id="edge27_Node000017_Node000007" class="edge">
<title>Node17&#45;&gt;Node7</title>
<g id="a_edge27_Node000017_Node000007"><a xlink:title=" ">
<path fill="none" stroke="#63b8ff" d="M475.01,-310.47C486.7,-314.44 500.14,-319.01 512.62,-323.25"/>
<polygon fill="#63b8ff" stroke="#63b8ff" points="511.26,-326.48 521.85,-326.38 513.51,-319.85 511.26,-326.48"/>
</a>
</g>
</g>
<!-- Node18&#45;&gt;Node13 -->
<g id="edge30_Node000018_Node000013" class="edge">
<title>Node18&#45;&gt;Node13</title>
<g id="a_edge30_Node000018_Node000013"><a xlink:title=" ">
<path fill="none" stroke="#63b8ff" d="M193.71,-278.45C238.66,-275.51 306.37,-271 365.25,-266.68 376.42,-265.87 388.51,-264.93 399.69,-264.05"/>
<polygon fill="#63b8ff" stroke="#63b8ff" points="399.73,-267.56 409.42,-263.28 399.18,-260.58 399.73,-267.56"/>
</a>
</g>
</g>
<!-- Node19&#45;&gt;Node3 -->
<g id="edge35_Node000019_Node000003" class="edge">
<title>Node19&#45;&gt;Node3</title>
<g id="a_edge35_Node000019_Node000003"><a xlink:title=" ">
<path fill="none" stroke="#63b8ff" d="M361.65,-349.85C374.9,-347.99 388.79,-346.04 401.18,-344.3"/>
<polygon fill="#63b8ff" stroke="#63b8ff" points="401.62,-347.78 411.04,-342.92 400.65,-340.84 401.62,-347.78"/>
</a>
</g>
</g>
<!-- Node19&#45;&gt;Node13 -->
<g id="edge36_Node000019_Node000013" class="edge">
<title>Node19&#45;&gt;Node13</title>
<g id="a_edge36_Node000019_Node000013"><a xlink:title=" ">
<path fill="none" stroke="#63b8ff" d="M349.47,-346.9C355.1,-344.42 360.54,-341.39 365.25,-337.68 388.81,-319.17 379.03,-300.79 401.25,-280.68 402.47,-279.58 403.77,-278.52 405.12,-277.5"/>
<polygon fill="#63b8ff" stroke="#63b8ff" points="406.74,-280.62 413.28,-272.28 402.97,-274.72 406.74,-280.62"/>
</a>
</g>
</g>
<!-- Node20 -->
<g id="Node000020" class="node">
<title>Node20</title>
<g id="a_Node000020"><a xlink:href="nrf24__avr_8c.html#a5336963072afb877d785bed84eb6b5f4" target="_top" xlink:title=" ">
<polygon fill="white" stroke="#666666" points="582.88,-387.06 529.38,-387.06 529.38,-366.31 582.88,-366.31 582.88,-387.06"/>
<text xml:space="preserve" text-anchor="middle" x="556.12" y="-373.56" font-family="Helvetica,sans-Serif" font-size="10.00">ce_high</text>
</a>
</g>
</g>
<!-- Node19&#45;&gt;Node20 -->
<g id="edge33_Node000019_Node000020" class="edge">
<title>Node19&#45;&gt;Node20</title>
<g id="a_edge33_Node000019_Node000020"><a xlink:title=" ">
<path fill="none" stroke="#63b8ff" d="M361.71,-361.95C409.29,-365.57 476.28,-370.68 517.63,-373.83"/>
<polygon fill="#63b8ff" stroke="#63b8ff" points="517.34,-377.32 527.58,-374.59 517.87,-370.34 517.34,-377.32"/>
</a>
</g>
</g>
<!-- Node20&#45;&gt;Node5 -->
<g id="edge34_Node000020_Node000005" class="edge">
<title>Node20&#45;&gt;Node5</title>
<g id="a_edge34_Node000020_Node000005"><a xlink:title=" ">
<path fill="none" stroke="#63b8ff" d="M578.62,-366C583.51,-363.22 588.57,-360.05 593,-356.68 616.16,-339.09 639.13,-314.73 653.9,-297.93"/>
<polygon fill="#63b8ff" stroke="#63b8ff" points="656.33,-300.48 660.22,-290.62 651.04,-295.9 656.33,-300.48"/>
</a>
</g>
</g>
</g>
</svg>

<g id="navigator" transform="translate(0 0)" fill="#404254">
  <rect fill="#f2f5e9" fill-opacity="0.5" stroke="#606060" stroke-width=".5" x="0" y="0" width="60" height="60"/>
  <use id="zoomplus" xlink:href="#zoomPlus" x="17" y="9" onmousedown="handleZoom(evt,'in')"/>
  <use id="zoomminus" xlink:href="#zoomMin" x="42" y="9" onmousedown="handleZoom(evt,'out')"/>
  <use id="reset" xlink:href="#resetDef" x="30" y="36" onmousedown="handleReset()"/>
   <use id="arrowup" xlink:href="#arrowUp" x="0" y="0" onmousedown="handlePan(0,-1)"/>
  <use id="arrowright" xlink:href="#arrowRight" x="0" y="0" onmousedown="handlePan(1,0)"/>
  <use id="arrowdown" xlink:href="#arrowDown" x="0" y="0" onmousedown="handlePan(0,1)"/>
  <use id="arrowleft" xlink:href="#arrowLeft" x="0" y="0" onmousedown="handlePan(-1,0)"/>
</g>
<svg viewBox="0 0 15 15" width="100%" height="30px" preserveAspectRatio="xMaxYMin meet">
 <g id="arrow_out" transform="scale(0.3 0.3)">
  <a xlink:href="main_8c_a840291bc02cba5474a4cb46a9b9566fe_cgraph_org.svg" target="_base">
   <rect id="button" ry="5" rx="5" y="6" x="6" height="38" width="38"
        fill="#f2f5e9" fill-opacity="0.5" stroke="#606060" stroke-width="1.0"/>
   <path id="arrow"
     d="M 11.500037,31.436501 C 11.940474,20.09759 22.043105,11.32322 32.158766,21.979434 L 37.068811,17.246167 C 37.068811,17.246167 37.088388,32 37.088388,32 L 22.160133,31.978069 C 22.160133,31.978069 26.997745,27.140456 26.997745,27.140456 C 18.528582,18.264221 13.291696,25.230495 11.500037,31.436501 z"
     style="fill:#404040;"/>
  </a>
 </g>
</svg>

<style type='text/css'>
<![CDATA[
[data-mouse-over-selected='false'] { opacity: 0.7; }
[data-mouse-over-selected='true']  { opacity: 1.0; }
]]>
</style>
<script type="application/ecmascript"><![CDATA[
document.addEventListener('DOMContentLoaded', (event) => {
  highlightEdges();
  highlightAdjacentNodes();
});
]]></script>
</svg>
