<?xml version="1.0" encoding="UTF-8" standalone="no"?>
<!DOCTYPE svg PUBLIC "-//W3C//DTD SVG 1.1//EN"
 "http://www.w3.org/Graphics/SVG/1.1/DTD/svg11.dtd">
<!-- Generated by graphviz version 14.0.4 (0)
 -->
<!-- Title: main.c Pages: 1 -->
<svg width="341pt" height="142pt"
 viewBox="0.00 0.00 341.00 142.00" xmlns="http://www.w3.org/2000/svg" xmlns:xlink="http://www.w3.org/1999/xlink">

<svg id="main" version="1.1" xmlns="http://www.w3.org/2000/svg" xmlns:xlink="http://www.w3.org/1999/xlink" xml:space="preserve">

<style type="text/css"><![CDATA[
.node, .edge {opacity: 0.7;}
.node.selected, .edge.selected {opacity: 1;}
.edge:hover path { stroke: red; }
.edge:hover polygon { stroke: red; fill: red; }
]]></style>
<script type="application/ecmascript" xlink:href="svg.min.js"/>
<svg id="graph" class="graph">
<g id="graph0" class="graph" transform="scale(1 1) rotate(0) translate(4 138.25)">
<title>main.c</title>
<!-- Node1 -->
<g id="Node000001" class="node">
<title>Node1</title>
<g id="a_Node000001"><a xlink:title=" ">
<polygon fill="#999999" stroke="#666666" points="129.88,-134.25 80.88,-134.25 80.88,-113.5 129.88,-113.5 129.88,-134.25"/>
<text xml:space="preserve" text-anchor="middle" x="105.38" y="-120.75" font-family="Helvetica,sans-Serif" font-size="10.00">main.c</text>
</a>
</g>
</g>
<!-- Node2 -->
<g id="Node000002" class="node">
<title>Node2</title>
<g id="a_Node000002"><a xlink:title=" ">
<polygon fill="#e0e0e0" stroke="#999999" points="52.75,-77.5 0,-77.5 0,-56.75 52.75,-56.75 52.75,-77.5"/>
<text xml:space="preserve" text-anchor="middle" x="26.38" y="-64" font-family="Helvetica,sans-Serif" font-size="10.00">avr/io.h</text>
</a>
</g>
</g>
<!-- Node1&#45;&gt;Node2 -->
<g id="edge1_Node000001_Node000002" class="edge">
<title>Node1&#45;&gt;Node2</title>
<g id="a_edge1_Node000001_Node000002"><a xlink:title=" ">
<path fill="none" stroke="#63b8ff" d="M91.25,-113.09C79.68,-105.07 63.07,-93.56 49.56,-84.19"/>
<polygon fill="#63b8ff" stroke="#63b8ff" points="51.83,-81.51 41.62,-78.69 47.85,-87.26 51.83,-81.51"/>
</a>
</g>
</g>
<!-- Node3 -->
<g id="Node000003" class="node">
<title>Node3</title>
<g id="a_Node000003"><a xlink:title=" ">
<polygon fill="#e0e0e0" stroke="#999999" points="140,-77.5 70.75,-77.5 70.75,-56.75 140,-56.75 140,-77.5"/>
<text xml:space="preserve" text-anchor="middle" x="105.38" y="-64" font-family="Helvetica,sans-Serif" font-size="10.00">util/delay.h</text>
</a>
</g>
</g>
<!-- Node1&#45;&gt;Node3 -->
<g id="edge2_Node000001_Node000003" class="edge">
<title>Node1&#45;&gt;Node3</title>
<g id="a_edge2_Node000001_Node000003"><a xlink:title=" ">
<path fill="none" stroke="#63b8ff" d="M105.38,-113.09C105.38,-106.47 105.38,-97.47 105.38,-89.27"/>
<polygon fill="#63b8ff" stroke="#63b8ff" points="108.88,-89.34 105.38,-79.34 101.88,-89.34 108.88,-89.34"/>
</a>
</g>
</g>
<!-- Node4 -->
<g id="Node000004" class="node">
<title>Node4</title>
<g id="a_Node000004"><a xlink:href="nrf24__avr_8h.html" target="_top" xlink:title=" ">
<polygon fill="white" stroke="#666666" points="229.12,-77.5 157.62,-77.5 157.62,-56.75 229.12,-56.75 229.12,-77.5"/>
<text xml:space="preserve" text-anchor="middle" x="193.38" y="-64" font-family="Helvetica,sans-Serif" font-size="10.00">nrf24_avr.h</text>
</a>
</g>
</g>
<!-- Node1&#45;&gt;Node4 -->
<g id="edge3_Node000001_Node000004" class="edge">
<title>Node1&#45;&gt;Node4</title>
<g id="a_edge3_Node000001_Node000004"><a xlink:title=" ">
<path fill="none" stroke="#63b8ff" d="M121.11,-113.09C134.25,-104.91 153.22,-93.11 168.43,-83.65"/>
<polygon fill="#63b8ff" stroke="#63b8ff" points="169.85,-86.88 176.49,-78.63 166.15,-80.94 169.85,-86.88"/>
</a>
</g>
</g>
<!-- Node5 -->
<g id="Node000005" class="node">
<title>Node5</title>
<g id="a_Node000005"><a xlink:title=" ">
<polygon fill="#e0e0e0" stroke="#999999" points="138.75,-20.75 86,-20.75 86,0 138.75,0 138.75,-20.75"/>
<text xml:space="preserve" text-anchor="middle" x="112.38" y="-7.25" font-family="Helvetica,sans-Serif" font-size="10.00">stdint.h</text>
</a>
</g>
</g>
<!-- Node4&#45;&gt;Node5 -->
<g id="edge4_Node000004_Node000005" class="edge">
<title>Node4&#45;&gt;Node5</title>
<g id="a_edge4_Node000004_Node000005"><a xlink:title=" ">
<path fill="none" stroke="#63b8ff" d="M178.89,-56.34C167.03,-48.32 150,-36.81 136.14,-27.44"/>
<polygon fill="#63b8ff" stroke="#63b8ff" points="138.23,-24.63 127.98,-21.93 134.31,-30.43 138.23,-24.63"/>
</a>
</g>
</g>
<!-- Node6 -->
<g id="Node000006" class="node">
<title>Node6</title>
<g id="a_Node000006"><a xlink:href="nRF24L01_8h.html" target="_top" xlink:title=" ">
<polygon fill="white" stroke="#666666" points="229.88,-20.75 156.88,-20.75 156.88,0 229.88,0 229.88,-20.75"/>
<text xml:space="preserve" text-anchor="middle" x="193.38" y="-7.25" font-family="Helvetica,sans-Serif" font-size="10.00">nRF24L01.h</text>
</a>
</g>
</g>
<!-- Node4&#45;&gt;Node6 -->
<g id="edge5_Node000004_Node000006" class="edge">
<title>Node4&#45;&gt;Node6</title>
<g id="a_edge5_Node000004_Node000006"><a xlink:title=" ">
<path fill="none" stroke="#63b8ff" d="M193.38,-56.34C193.38,-49.72 193.38,-40.72 193.38,-32.52"/>
<polygon fill="#63b8ff" stroke="#63b8ff" points="196.88,-32.59 193.38,-22.59 189.88,-32.59 196.88,-32.59"/>
</a>
</g>
</g>
<!-- Node7 -->
<g id="Node000007" class="node">
<title>Node7</title>
<g id="a_Node000007"><a xlink:href="RF24__config_8h.html" target="_top" xlink:title=" ">
<polygon fill="white" stroke="#666666" points="332.88,-20.75 247.88,-20.75 247.88,0 332.88,0 332.88,-20.75"/>
<text xml:space="preserve" text-anchor="middle" x="290.38" y="-7.25" font-family="Helvetica,sans-Serif" font-size="10.00">RF24_config.h</text>
</a>
</g>
</g>
<!-- Node4&#45;&gt;Node7 -->
<g id="edge6_Node000004_Node000007" class="edge">
<title>Node4&#45;&gt;Node7</title>
<g id="a_edge6_Node000004_Node000007"><a xlink:title=" ">
<path fill="none" stroke="#63b8ff" d="M210.72,-56.34C225.34,-48.08 246.51,-36.13 263.35,-26.63"/>
<polygon fill="#63b8ff" stroke="#63b8ff" points="264.88,-29.79 271.87,-21.82 261.44,-23.69 264.88,-29.79"/>
</a>
</g>
</g>
</g>
</svg>
</svg>

<style type='text/css'>
<![CDATA[
[data-mouse-over-selected='false'] { opacity: 0.7; }
[data-mouse-over-selected='true']  { opacity: 1.0; }
]]>
</style>
<script type="application/ecmascript"><![CDATA[
document.addEventListener('DOMContentLoaded', (event) => {
  highlightEdges();
  highlightAdjacentNodes();
});
]]></script>
</svg>
