<?xml version="1.0" encoding="UTF-8" standalone="no"?>
<!DOCTYPE svg PUBLIC "-//W3C//DTD SVG 1.1//EN"
 "http://www.w3.org/Graphics/SVG/1.1/DTD/svg11.dtd">
<!-- Generated by graphviz version 14.0.4 (0)
 -->
<!-- Title: nrf24_write Pages: 1 -->
<svg width="579pt" height="257pt"
 viewBox="0.00 0.00 579.00 257.00" xmlns="http://www.w3.org/2000/svg" xmlns:xlink="http://www.w3.org/1999/xlink">
<g id="graph0" class="graph" transform="scale(1 1) rotate(0) translate(4 252.75)">
<title>nrf24_write</title>
<!-- Node1 -->
<g id="Node000001" class="node">
<title>Node1</title>
<g id="a_Node000001"><a xlink:title=" ">
<polygon fill="#999999" stroke="#666666" points="71.5,-134.75 0,-134.75 0,-114 71.5,-114 71.5,-134.75"/>
<text xml:space="preserve" text-anchor="middle" x="35.75" y="-121.25" font-family="Helvetica,sans-Serif" font-size="10.00">nrf24_write</text>
</a>
</g>
</g>
<!-- Node2 -->
<g id="Node000002" class="node">
<title>Node2</title>
<g id="a_Node000002"><a xlink:href="nrf24__avr_8c.html#a5336963072afb877d785bed84eb6b5f4" target="_top" xlink:title=" ">
<polygon fill="white" stroke="#666666" points="190.25,-248.75 136.75,-248.75 136.75,-228 190.25,-228 190.25,-248.75"/>
<text xml:space="preserve" text-anchor="middle" x="163.5" y="-235.25" font-family="Helvetica,sans-Serif" font-size="10.00">ce_high</text>
</a>
</g>
</g>
<!-- Node1&#45;&gt;Node2 -->
<g id="edge1_Node000001_Node000002" class="edge">
<title>Node1&#45;&gt;Node2</title>
<g id="a_edge1_Node000001_Node000002"><a xlink:title=" ">
<path fill="none" stroke="#63b8ff" d="M42.82,-135.22C53.64,-153.7 77.94,-191.52 107.5,-214.38 113.13,-218.72 119.66,-222.46 126.22,-225.6"/>
<polygon fill="#63b8ff" stroke="#63b8ff" points="124.47,-228.65 135.04,-229.44 127.27,-222.24 124.47,-228.65"/>
</a>
</g>
</g>
<!-- Node4 -->
<g id="Node000004" class="node">
<title>Node4</title>
<g id="a_Node000004"><a xlink:href="nrf24__avr_8c.html#a77c5f7c57c01266d04faea3052a47f49" target="_top" xlink:title=" ">
<polygon fill="white" stroke="#666666" points="323.25,-176.75 273.5,-176.75 273.5,-156 323.25,-156 323.25,-176.75"/>
<text xml:space="preserve" text-anchor="middle" x="298.38" y="-163.25" font-family="Helvetica,sans-Serif" font-size="10.00">ce_low</text>
</a>
</g>
</g>
<!-- Node1&#45;&gt;Node4 -->
<g id="edge3_Node000001_Node000004" class="edge">
<title>Node1&#45;&gt;Node4</title>
<g id="a_edge3_Node000001_Node000004"><a xlink:title=" ">
<path fill="none" stroke="#63b8ff" d="M53.4,-135.15C67.26,-143.47 87.84,-154.39 107.5,-159.38 159.98,-172.67 223.22,-171.8 261.84,-169.45"/>
<polygon fill="#63b8ff" stroke="#63b8ff" points="261.99,-172.95 271.73,-168.78 261.51,-165.97 261.99,-172.95"/>
</a>
</g>
</g>
<!-- Node5 -->
<g id="Node000005" class="node">
<title>Node5</title>
<g id="a_Node000005"><a xlink:href="nrf24__avr_8c.html#a617ab4b2604d6f482796e35da85369ad" target="_top" xlink:title=" ">
<polygon fill="white" stroke="#666666" points="341.25,-20.75 255.5,-20.75 255.5,0 341.25,0 341.25,-20.75"/>
<text xml:space="preserve" text-anchor="middle" x="298.38" y="-7.25" font-family="Helvetica,sans-Serif" font-size="10.00">nrf24_flush_tx</text>
</a>
</g>
</g>
<!-- Node1&#45;&gt;Node5 -->
<g id="edge5_Node000001_Node000005" class="edge">
<title>Node1&#45;&gt;Node5</title>
<g id="a_edge5_Node000001_Node000005"><a xlink:title=" ">
<path fill="none" stroke="#63b8ff" d="M44.84,-113.6C56.83,-98.44 80.76,-71.04 107.5,-56.38 150,-33.07 204.21,-21.45 243.82,-15.73"/>
<polygon fill="#63b8ff" stroke="#63b8ff" points="244.16,-19.22 253.6,-14.41 243.22,-12.28 244.16,-19.22"/>
</a>
</g>
</g>
<!-- Node9 -->
<g id="Node000009" class="node">
<title>Node9</title>
<g id="a_Node000009"><a xlink:href="nrf24__avr_8c.html#a33899bc3c0f4d2293f37c306d0b8e297" target="_top" xlink:title=" ">
<polygon fill="white" stroke="#666666" points="219.5,-134.75 107.5,-134.75 107.5,-114 219.5,-114 219.5,-134.75"/>
<text xml:space="preserve" text-anchor="middle" x="163.5" y="-121.25" font-family="Helvetica,sans-Serif" font-size="10.00">nrf24_stopListening</text>
</a>
</g>
</g>
<!-- Node1&#45;&gt;Node9 -->
<g id="edge11_Node000001_Node000009" class="edge">
<title>Node1&#45;&gt;Node9</title>
<g id="a_edge11_Node000001_Node000009"><a xlink:title=" ">
<path fill="none" stroke="#63b8ff" d="M71.78,-124.38C79.37,-124.38 87.65,-124.38 96.01,-124.38"/>
<polygon fill="#63b8ff" stroke="#63b8ff" points="95.89,-127.88 105.89,-124.38 95.89,-120.88 95.89,-127.88"/>
</a>
</g>
</g>
<!-- Node10 -->
<g id="Node000010" class="node">
<title>Node10</title>
<g id="a_Node000010"><a xlink:href="nrf24__avr_8c.html#abefdb1d58b989853c0646a6c8b18b7d3" target="_top" xlink:title=" ">
<polygon fill="white" stroke="#666666" points="327.75,-98.75 269,-98.75 269,-78 327.75,-78 327.75,-98.75"/>
<text xml:space="preserve" text-anchor="middle" x="298.38" y="-85.25" font-family="Helvetica,sans-Serif" font-size="10.00">read_reg</text>
</a>
</g>
</g>
<!-- Node1&#45;&gt;Node10 -->
<g id="edge21_Node000001_Node000010" class="edge">
<title>Node1&#45;&gt;Node10</title>
<g id="a_edge21_Node000001_Node000010"><a xlink:title=" ">
<path fill="none" stroke="#63b8ff" d="M71.75,-113.69C83.06,-110.58 95.73,-107.47 107.5,-105.38 158.74,-96.27 218.66,-91.94 257.28,-89.95"/>
<polygon fill="#63b8ff" stroke="#63b8ff" points="257.21,-93.46 267.03,-89.48 256.87,-86.46 257.21,-93.46"/>
</a>
</g>
</g>
<!-- Node11 -->
<g id="Node000011" class="node">
<title>Node11</title>
<g id="a_Node000011"><a xlink:href="nrf24__avr_8c.html#a08bc978021db604d02a6da754f73e7e2" target="_top" xlink:title=" ">
<polygon fill="white" stroke="#666666" points="329.25,-137.75 267.5,-137.75 267.5,-117 329.25,-117 329.25,-137.75"/>
<text xml:space="preserve" text-anchor="middle" x="298.38" y="-124.25" font-family="Helvetica,sans-Serif" font-size="10.00">write_reg</text>
</a>
</g>
</g>
<!-- Node1&#45;&gt;Node11 -->
<g id="edge26_Node000001_Node000011" class="edge">
<title>Node1&#45;&gt;Node11</title>
<g id="a_edge26_Node000001_Node000011"><a xlink:title=" ">
<path fill="none" stroke="#63b8ff" d="M69.86,-135.19C81.61,-138.51 95.02,-141.73 107.5,-143.38 156.85,-149.89 169.98,-148.41 219.5,-143.38 231.57,-142.15 244.53,-139.88 256.35,-137.42"/>
<polygon fill="#63b8ff" stroke="#63b8ff" points="256.77,-140.92 265.79,-135.37 255.27,-134.08 256.77,-140.92"/>
</a>
</g>
</g>
<!-- Node12 -->
<g id="Node000012" class="node">
<title>Node12</title>
<g id="a_Node000012"><a xlink:href="nrf24__avr_8c.html#a3c9fd94e9894bf0792d4ff5891c16436" target="_top" xlink:title=" ">
<polygon fill="white" stroke="#666666" points="340.88,-59.75 255.88,-59.75 255.88,-39 340.88,-39 340.88,-59.75"/>
<text xml:space="preserve" text-anchor="middle" x="298.38" y="-46.25" font-family="Helvetica,sans-Serif" font-size="10.00">write_payload</text>
</a>
</g>
</g>
<!-- Node1&#45;&gt;Node12 -->
<g id="edge22_Node000001_Node000012" class="edge">
<title>Node1&#45;&gt;Node12</title>
<g id="a_edge22_Node000001_Node000012"><a xlink:title=" ">
<path fill="none" stroke="#63b8ff" d="M54.48,-113.66C68.45,-105.65 88.64,-94.98 107.5,-88.38 152.45,-72.64 205.74,-62.39 244.4,-56.36"/>
<polygon fill="#63b8ff" stroke="#63b8ff" points="244.54,-59.88 253.9,-54.92 243.49,-52.96 244.54,-59.88"/>
</a>
</g>
</g>
<!-- Node3 -->
<g id="Node000003" class="node">
<title>Node3</title>
<g id="a_Node000003"><a xlink:href="nrf24__avr_8c.html#a019970fc17b6b18fa4e45e0baf22c93f" target="_top" xlink:title=" ">
<polygon fill="white" stroke="#666666" points="571.25,-137.75 487,-137.75 487,-117 571.25,-117 571.25,-137.75"/>
<text xml:space="preserve" text-anchor="middle" x="529.12" y="-124.25" font-family="Helvetica,sans-Serif" font-size="10.00">digitalWrite_d</text>
</a>
</g>
</g>
<!-- Node2&#45;&gt;Node3 -->
<g id="edge2_Node000002_Node000003" class="edge">
<title>Node2&#45;&gt;Node3</title>
<g id="a_edge2_Node000002_Node000003"><a xlink:title=" ">
<path fill="none" stroke="#63b8ff" d="M190.73,-233.6C241.82,-223.88 357.83,-199.77 451,-165.38 467.29,-159.36 484.7,-150.96 498.86,-143.59"/>
<polygon fill="#63b8ff" stroke="#63b8ff" points="500.45,-146.71 507.63,-138.92 497.16,-140.53 500.45,-146.71"/>
</a>
</g>
</g>
<!-- Node4&#45;&gt;Node3 -->
<g id="edge4_Node000004_Node000003" class="edge">
<title>Node4&#45;&gt;Node3</title>
<g id="a_edge4_Node000004_Node000003"><a xlink:title=" ">
<path fill="none" stroke="#63b8ff" d="M323.67,-164.01C353.72,-160.88 406.38,-154.79 451,-146.38 459.39,-144.79 468.22,-142.87 476.81,-140.85"/>
<polygon fill="#63b8ff" stroke="#63b8ff" points="477.51,-144.28 486.41,-138.53 475.87,-137.48 477.51,-144.28"/>
</a>
</g>
</g>
<!-- Node6 -->
<g id="Node000006" class="node">
<title>Node6</title>
<g id="a_Node000006"><a xlink:href="nrf24__avr_8c.html#adaef88bc02a8e805de3b3a82bf317549" target="_top" xlink:title=" ">
<polygon fill="white" stroke="#666666" points="443.5,-59.75 384.75,-59.75 384.75,-39 443.5,-39 443.5,-59.75"/>
<text xml:space="preserve" text-anchor="middle" x="414.12" y="-46.25" font-family="Helvetica,sans-Serif" font-size="10.00">csn_high</text>
</a>
</g>
</g>
<!-- Node5&#45;&gt;Node6 -->
<g id="edge6_Node000005_Node000006" class="edge">
<title>Node5&#45;&gt;Node6</title>
<g id="a_edge6_Node000005_Node000006"><a xlink:title=" ">
<path fill="none" stroke="#63b8ff" d="M331.06,-21.24C344.24,-25.76 359.67,-31.05 373.58,-35.82"/>
<polygon fill="#63b8ff" stroke="#63b8ff" points="372.31,-39.08 382.9,-39.01 374.58,-32.46 372.31,-39.08"/>
</a>
</g>
</g>
<!-- Node7 -->
<g id="Node000007" class="node">
<title>Node7</title>
<g id="a_Node000007"><a xlink:href="nrf24__avr_8c.html#a42f8c1120431b7c37e116a4e1eac1cc2" target="_top" xlink:title=" ">
<polygon fill="white" stroke="#666666" points="441.62,-98.75 386.62,-98.75 386.62,-78 441.62,-78 441.62,-98.75"/>
<text xml:space="preserve" text-anchor="middle" x="414.12" y="-85.25" font-family="Helvetica,sans-Serif" font-size="10.00">csn_low</text>
</a>
</g>
</g>
<!-- Node5&#45;&gt;Node7 -->
<g id="edge8_Node000005_Node000007" class="edge">
<title>Node5&#45;&gt;Node7</title>
<g id="a_edge8_Node000005_Node000007"><a xlink:title=" ">
<path fill="none" stroke="#63b8ff" d="M325.91,-21.23C331.19,-23.89 336.56,-26.96 341.25,-30.38 360.06,-44.06 358.88,-54.1 377.25,-68.38 378.72,-69.52 380.27,-70.64 381.85,-71.72"/>
<polygon fill="#63b8ff" stroke="#63b8ff" points="379.58,-74.43 389.92,-76.75 383.28,-68.49 379.58,-74.43"/>
</a>
</g>
</g>
<!-- Node8 -->
<g id="Node000008" class="node">
<title>Node8</title>
<g id="a_Node000008"><a xlink:href="nrf24__avr_8c.html#a8d161d483c095113df5b69798e9cd725" target="_top" xlink:title=" ">
<polygon fill="white" stroke="#666666" points="451,-137.75 377.25,-137.75 377.25,-117 451,-117 451,-137.75"/>
<text xml:space="preserve" text-anchor="middle" x="414.12" y="-124.25" font-family="Helvetica,sans-Serif" font-size="10.00">spi_transfer</text>
</a>
</g>
</g>
<!-- Node5&#45;&gt;Node8 -->
<g id="edge10_Node000005_Node000008" class="edge">
<title>Node5&#45;&gt;Node8</title>
<g id="a_edge10_Node000005_Node000008"><a xlink:title=" ">
<path fill="none" stroke="#63b8ff" d="M328.58,-21.07C333.19,-23.63 337.62,-26.71 341.25,-30.38 367.85,-57.2 351.51,-79.73 377.25,-107.38 378.08,-108.26 378.95,-109.12 379.86,-109.95"/>
<polygon fill="#63b8ff" stroke="#63b8ff" points="377.51,-112.56 387.63,-115.7 381.68,-106.93 377.51,-112.56"/>
</a>
</g>
</g>
<!-- Node6&#45;&gt;Node3 -->
<g id="edge7_Node000006_Node000003" class="edge">
<title>Node6&#45;&gt;Node3</title>
<g id="a_edge7_Node000006_Node000003"><a xlink:title=" ">
<path fill="none" stroke="#63b8ff" d="M435.52,-60.11C440.66,-62.99 446.1,-66.19 451,-69.38 470.31,-81.93 491.12,-97.73 506.25,-109.66"/>
<polygon fill="#63b8ff" stroke="#63b8ff" points="503.69,-112.1 513.69,-115.59 508.05,-106.62 503.69,-112.1"/>
</a>
</g>
</g>
<!-- Node7&#45;&gt;Node3 -->
<g id="edge9_Node000007_Node000003" class="edge">
<title>Node7&#45;&gt;Node3</title>
<g id="a_edge9_Node000007_Node000003"><a xlink:title=" ">
<path fill="none" stroke="#63b8ff" d="M441.9,-97.62C455.14,-102.19 471.41,-107.8 486.25,-112.92"/>
<polygon fill="#63b8ff" stroke="#63b8ff" points="484.7,-116.09 495.3,-116.05 486.99,-109.47 484.7,-116.09"/>
</a>
</g>
</g>
<!-- Node9&#45;&gt;Node4 -->
<g id="edge12_Node000009_Node000004" class="edge">
<title>Node9&#45;&gt;Node4</title>
<g id="a_edge12_Node000009_Node000004"><a xlink:title=" ">
<path fill="none" stroke="#63b8ff" d="M198.72,-135.19C218.26,-141.37 242.71,-149.1 262.38,-155.31"/>
<polygon fill="#63b8ff" stroke="#63b8ff" points="261.3,-158.64 271.89,-158.32 263.41,-151.97 261.3,-158.64"/>
</a>
</g>
</g>
<!-- Node9&#45;&gt;Node10 -->
<g id="edge13_Node000009_Node000010" class="edge">
<title>Node9&#45;&gt;Node10</title>
<g id="a_edge13_Node000009_Node000010"><a xlink:title=" ">
<path fill="none" stroke="#63b8ff" d="M204.37,-113.57C221.3,-108.99 240.99,-103.65 257.88,-99.08"/>
<polygon fill="#63b8ff" stroke="#63b8ff" points="258.32,-102.58 267.05,-96.59 256.49,-95.83 258.32,-102.58"/>
</a>
</g>
</g>
<!-- Node9&#45;&gt;Node11 -->
<g id="edge17_Node000009_Node000011" class="edge">
<title>Node9&#45;&gt;Node11</title>
<g id="a_edge17_Node000009_Node000011"><a xlink:title=" ">
<path fill="none" stroke="#63b8ff" d="M219.7,-125.62C231.76,-125.89 244.34,-126.18 255.77,-126.44"/>
<polygon fill="#63b8ff" stroke="#63b8ff" points="255.61,-129.93 265.68,-126.66 255.76,-122.93 255.61,-129.93"/>
</a>
</g>
</g>
<!-- Node10&#45;&gt;Node6 -->
<g id="edge14_Node000010_Node000006" class="edge">
<title>Node10&#45;&gt;Node6</title>
<g id="a_edge14_Node000010_Node000006"><a xlink:title=" ">
<path fill="none" stroke="#63b8ff" d="M328.08,-78.53C341.95,-73.78 358.82,-67.99 373.87,-62.83"/>
<polygon fill="#63b8ff" stroke="#63b8ff" points="374.67,-66.26 383,-59.7 372.4,-59.64 374.67,-66.26"/>
</a>
</g>
</g>
<!-- Node10&#45;&gt;Node7 -->
<g id="edge15_Node000010_Node000007" class="edge">
<title>Node10&#45;&gt;Node7</title>
<g id="a_edge15_Node000010_Node000007"><a xlink:title=" ">
<path fill="none" stroke="#63b8ff" d="M328.08,-88.38C342.34,-88.38 359.77,-88.38 375.13,-88.38"/>
<polygon fill="#63b8ff" stroke="#63b8ff" points="374.87,-91.88 384.87,-88.38 374.87,-84.88 374.87,-91.88"/>
</a>
</g>
</g>
<!-- Node10&#45;&gt;Node8 -->
<g id="edge16_Node000010_Node000008" class="edge">
<title>Node10&#45;&gt;Node8</title>
<g id="a_edge16_Node000010_Node000008"><a xlink:title=" ">
<path fill="none" stroke="#63b8ff" d="M328.08,-98.22C341.09,-102.68 356.72,-108.04 371.02,-112.94"/>
<polygon fill="#63b8ff" stroke="#63b8ff" points="369.6,-116.15 380.2,-116.09 371.87,-109.53 369.6,-116.15"/>
</a>
</g>
</g>
<!-- Node11&#45;&gt;Node6 -->
<g id="edge18_Node000011_Node000006" class="edge">
<title>Node11&#45;&gt;Node6</title>
<g id="a_edge18_Node000011_Node000006"><a xlink:title=" ">
<path fill="none" stroke="#63b8ff" d="M325.91,-116.52C331.19,-113.86 336.56,-110.79 341.25,-107.38 360.06,-93.69 358.88,-83.65 377.25,-69.38 378.72,-68.23 380.27,-67.11 381.85,-66.03"/>
<polygon fill="#63b8ff" stroke="#63b8ff" points="383.28,-69.26 389.92,-61 379.58,-63.32 383.28,-69.26"/>
</a>
</g>
</g>
<!-- Node11&#45;&gt;Node7 -->
<g id="edge19_Node000011_Node000007" class="edge">
<title>Node11&#45;&gt;Node7</title>
<g id="a_edge19_Node000011_Node000007"><a xlink:title=" ">
<path fill="none" stroke="#63b8ff" d="M329.56,-117.03C343.75,-112.16 360.82,-106.31 375.81,-101.17"/>
<polygon fill="#63b8ff" stroke="#63b8ff" points="376.54,-104.62 384.86,-98.06 374.27,-98 376.54,-104.62"/>
</a>
</g>
</g>
<!-- Node11&#45;&gt;Node8 -->
<g id="edge20_Node000011_Node000008" class="edge">
<title>Node11&#45;&gt;Node8</title>
<g id="a_edge20_Node000011_Node000008"><a xlink:title=" ">
<path fill="none" stroke="#63b8ff" d="M329.56,-127.38C340.63,-127.38 353.45,-127.38 365.67,-127.38"/>
<polygon fill="#63b8ff" stroke="#63b8ff" points="365.62,-130.88 375.62,-127.38 365.62,-123.88 365.62,-130.88"/>
</a>
</g>
</g>
<!-- Node12&#45;&gt;Node6 -->
<g id="edge23_Node000012_Node000006" class="edge">
<title>Node12&#45;&gt;Node6</title>
<g id="a_edge23_Node000012_Node000006"><a xlink:title=" ">
<path fill="none" stroke="#63b8ff" d="M341.09,-49.38C351.59,-49.38 362.84,-49.38 373.25,-49.38"/>
<polygon fill="#63b8ff" stroke="#63b8ff" points="373.05,-52.88 383.05,-49.38 373.05,-45.88 373.05,-52.88"/>
</a>
</g>
</g>
<!-- Node12&#45;&gt;Node7 -->
<g id="edge24_Node000012_Node000007" class="edge">
<title>Node12&#45;&gt;Node7</title>
<g id="a_edge24_Node000012_Node000007"><a xlink:title=" ">
<path fill="none" stroke="#63b8ff" d="M331.06,-60.24C344.89,-64.98 361.21,-70.58 375.64,-75.52"/>
<polygon fill="#63b8ff" stroke="#63b8ff" points="374.2,-78.73 384.8,-78.66 376.47,-72.11 374.2,-78.73"/>
</a>
</g>
</g>
<!-- Node12&#45;&gt;Node8 -->
<g id="edge25_Node000012_Node000008" class="edge">
<title>Node12&#45;&gt;Node8</title>
<g id="a_edge25_Node000012_Node000008"><a xlink:title=" ">
<path fill="none" stroke="#63b8ff" d="M325.91,-60.23C331.19,-62.89 336.56,-65.96 341.25,-69.38 360.06,-83.06 358.88,-93.1 377.25,-107.38 378.72,-108.52 380.27,-109.64 381.85,-110.72"/>
<polygon fill="#63b8ff" stroke="#63b8ff" points="379.58,-113.43 389.92,-115.75 383.28,-107.49 379.58,-113.43"/>
</a>
</g>
</g>
</g>
</svg>
