<?xml version="1.0" encoding="UTF-8" standalone="no"?>
<!DOCTYPE svg PUBLIC "-//W3C//DTD SVG 1.1//EN"
 "http://www.w3.org/Graphics/SVG/1.1/DTD/svg11.dtd">
<!-- Generated by graphviz version 14.0.4 (0)
 -->
<!-- Title: nrf24_setChannel Pages: 1 -->
<svg width="437pt" height="107pt"
 viewBox="0.00 0.00 437.00 107.00" xmlns="http://www.w3.org/2000/svg" xmlns:xlink="http://www.w3.org/1999/xlink">
<g id="graph0" class="graph" transform="scale(1 1) rotate(0) translate(4 102.75)">
<title>nrf24_setChannel</title>
<!-- Node1 -->
<g id="Node000001" class="node">
<title>Node1</title>
<g id="a_Node000001"><a xlink:title=" ">
<polygon fill="#999999" stroke="#666666" points="101.5,-59.75 0,-59.75 0,-39 101.5,-39 101.5,-59.75"/>
<text xml:space="preserve" text-anchor="middle" x="50.75" y="-46.25" font-family="Helvetica,sans-Serif" font-size="10.00">nrf24_setChannel</text>
</a>
</g>
</g>
<!-- Node2 -->
<g id="Node000002" class="node">
<title>Node2</title>
<g id="a_Node000002"><a xlink:href="nrf24__avr_8c.html#a08bc978021db604d02a6da754f73e7e2" target="_top" xlink:title=" ">
<polygon fill="white" stroke="#666666" points="199.25,-59.75 137.5,-59.75 137.5,-39 199.25,-39 199.25,-59.75"/>
<text xml:space="preserve" text-anchor="middle" x="168.38" y="-46.25" font-family="Helvetica,sans-Serif" font-size="10.00">write_reg</text>
</a>
</g>
</g>
<!-- Node1&#45;&gt;Node2 -->
<g id="edge1_Node000001_Node000002" class="edge">
<title>Node1&#45;&gt;Node2</title>
<g id="a_edge1_Node000001_Node000002"><a xlink:title=" ">
<path fill="none" stroke="#63b8ff" d="M101.79,-49.38C109.82,-49.38 118.05,-49.38 125.84,-49.38"/>
<polygon fill="#63b8ff" stroke="#63b8ff" points="125.75,-52.88 135.75,-49.38 125.75,-45.88 125.75,-52.88"/>
</a>
</g>
</g>
<!-- Node3 -->
<g id="Node000003" class="node">
<title>Node3</title>
<g id="a_Node000003"><a xlink:href="nrf24__avr_8c.html#adaef88bc02a8e805de3b3a82bf317549" target="_top" xlink:title=" ">
<polygon fill="white" stroke="#666666" points="301.5,-98.75 242.75,-98.75 242.75,-78 301.5,-78 301.5,-98.75"/>
<text xml:space="preserve" text-anchor="middle" x="272.12" y="-85.25" font-family="Helvetica,sans-Serif" font-size="10.00">csn_high</text>
</a>
</g>
</g>
<!-- Node2&#45;&gt;Node3 -->
<g id="edge2_Node000002_Node000003" class="edge">
<title>Node2&#45;&gt;Node3</title>
<g id="a_edge2_Node000002_Node000003"><a xlink:title=" ">
<path fill="none" stroke="#63b8ff" d="M197.72,-60.24C208.41,-64.34 220.77,-69.08 232.26,-73.48"/>
<polygon fill="#63b8ff" stroke="#63b8ff" points="230.93,-76.72 241.52,-77.03 233.44,-70.18 230.93,-76.72"/>
</a>
</g>
</g>
<!-- Node5 -->
<g id="Node000005" class="node">
<title>Node5</title>
<g id="a_Node000005"><a xlink:href="nrf24__avr_8c.html#a42f8c1120431b7c37e116a4e1eac1cc2" target="_top" xlink:title=" ">
<polygon fill="white" stroke="#666666" points="299.62,-59.75 244.62,-59.75 244.62,-39 299.62,-39 299.62,-59.75"/>
<text xml:space="preserve" text-anchor="middle" x="272.12" y="-46.25" font-family="Helvetica,sans-Serif" font-size="10.00">csn_low</text>
</a>
</g>
</g>
<!-- Node2&#45;&gt;Node5 -->
<g id="edge4_Node000002_Node000005" class="edge">
<title>Node2&#45;&gt;Node5</title>
<g id="a_edge4_Node000002_Node000005"><a xlink:title=" ">
<path fill="none" stroke="#63b8ff" d="M199.63,-49.38C210.04,-49.38 221.84,-49.38 232.8,-49.38"/>
<polygon fill="#63b8ff" stroke="#63b8ff" points="232.76,-52.88 242.76,-49.38 232.76,-45.88 232.76,-52.88"/>
</a>
</g>
</g>
<!-- Node6 -->
<g id="Node000006" class="node">
<title>Node6</title>
<g id="a_Node000006"><a xlink:href="nrf24__avr_8c.html#a8d161d483c095113df5b69798e9cd725" target="_top" xlink:title=" ">
<polygon fill="white" stroke="#666666" points="309,-20.75 235.25,-20.75 235.25,0 309,0 309,-20.75"/>
<text xml:space="preserve" text-anchor="middle" x="272.12" y="-7.25" font-family="Helvetica,sans-Serif" font-size="10.00">spi_transfer</text>
</a>
</g>
</g>
<!-- Node2&#45;&gt;Node6 -->
<g id="edge6_Node000002_Node000006" class="edge">
<title>Node2&#45;&gt;Node6</title>
<g id="a_edge6_Node000002_Node000006"><a xlink:title=" ">
<path fill="none" stroke="#63b8ff" d="M197.72,-38.51C208.41,-34.41 220.77,-29.67 232.26,-25.27"/>
<polygon fill="#63b8ff" stroke="#63b8ff" points="233.44,-28.57 241.52,-21.72 230.93,-22.03 233.44,-28.57"/>
</a>
</g>
</g>
<!-- Node4 -->
<g id="Node000004" class="node">
<title>Node4</title>
<g id="a_Node000004"><a xlink:href="nrf24__avr_8c.html#a019970fc17b6b18fa4e45e0baf22c93f" target="_top" xlink:title=" ">
<polygon fill="white" stroke="#666666" points="429.25,-78.75 345,-78.75 345,-58 429.25,-58 429.25,-78.75"/>
<text xml:space="preserve" text-anchor="middle" x="387.12" y="-65.25" font-family="Helvetica,sans-Serif" font-size="10.00">digitalWrite_d</text>
</a>
</g>
</g>
<!-- Node3&#45;&gt;Node4 -->
<g id="edge3_Node000003_Node000004" class="edge">
<title>Node3&#45;&gt;Node4</title>
<g id="a_edge3_Node000003_Node000004"><a xlink:title=" ">
<path fill="none" stroke="#63b8ff" d="M301.93,-83.28C311.54,-81.58 322.57,-79.62 333.41,-77.7"/>
<polygon fill="#63b8ff" stroke="#63b8ff" points="333.85,-81.18 343.09,-75.99 332.63,-74.29 333.85,-81.18"/>
</a>
</g>
</g>
<!-- Node5&#45;&gt;Node4 -->
<g id="edge5_Node000005_Node000004" class="edge">
<title>Node5&#45;&gt;Node4</title>
<g id="a_edge5_Node000005_Node000004"><a xlink:title=" ">
<path fill="none" stroke="#63b8ff" d="M299.9,-53.88C309.99,-55.57 321.85,-57.57 333.49,-59.52"/>
<polygon fill="#63b8ff" stroke="#63b8ff" points="332.58,-62.92 343.02,-61.13 333.74,-56.02 332.58,-62.92"/>
</a>
</g>
</g>
</g>
</svg>
