<?xml version="1.0" encoding="UTF-8" standalone="no"?>
<!DOCTYPE svg PUBLIC "-//W3C//DTD SVG 1.1//EN"
 "http://www.w3.org/Graphics/SVG/1.1/DTD/svg11.dtd">
<!-- Generated by graphviz version 14.0.4 (0)
 -->
<!-- Title: carrinho/nRF24L01.h Pages: 1 -->
<svg width="388pt" height="142pt"
 viewBox="0.00 0.00 388.00 142.00" xmlns="http://www.w3.org/2000/svg" xmlns:xlink="http://www.w3.org/1999/xlink">
<g id="graph0" class="graph" transform="scale(1 1) rotate(0) translate(4 138.25)">
<title>carrinho/nRF24L01.h</title>
<!-- Node1 -->
<g id="Node000001" class="node">
<title>Node1</title>
<g id="a_Node000001"><a xlink:title=" ">
<polygon fill="#999999" stroke="#666666" points="242.62,-134.25 126.88,-134.25 126.88,-113.5 242.62,-113.5 242.62,-134.25"/>
<text xml:space="preserve" text-anchor="middle" x="184.75" y="-120.75" font-family="Helvetica,sans-Serif" font-size="10.00">carrinho/nRF24L01.h</text>
</a>
</g>
</g>
<!-- Node2 -->
<g id="Node000002" class="node">
<title>Node2</title>
<g id="a_Node000002"><a xlink:href="nrf24__avr_8c.html" target="_top" xlink:title=" ">
<polygon fill="white" stroke="#666666" points="113.5,-20.75 0,-20.75 0,0 113.5,0 113.5,-20.75"/>
<text xml:space="preserve" text-anchor="middle" x="56.75" y="-7.25" font-family="Helvetica,sans-Serif" font-size="10.00">carrinho/nrf24_avr.c</text>
</a>
</g>
</g>
<!-- Node1&#45;&gt;Node2 -->
<g id="edge1_Node000001_Node000002" class="edge">
<title>Node1&#45;&gt;Node2</title>
<g id="a_edge1_Node000001_Node000002"><a xlink:title=" ">
<path fill="none" stroke="#63b8ff" d="M159.1,-107.1C146.48,-98.87 131.31,-88.3 118.75,-77.5 97.51,-59.24 75.83,-34.41 64.59,-20.97"/>
<polygon fill="#63b8ff" stroke="#63b8ff" points="157,-109.9 167.31,-112.33 160.76,-104 157,-109.9"/>
</a>
</g>
</g>
<!-- Node3 -->
<g id="Node000003" class="node">
<title>Node3</title>
<g id="a_Node000003"><a xlink:href="nrf24__avr_8h.html" target="_top" xlink:title=" ">
<polygon fill="white" stroke="#666666" points="241.88,-77.5 127.62,-77.5 127.62,-56.75 241.88,-56.75 241.88,-77.5"/>
<text xml:space="preserve" text-anchor="middle" x="184.75" y="-64" font-family="Helvetica,sans-Serif" font-size="10.00">carrinho/nrf24_avr.h</text>
</a>
</g>
</g>
<!-- Node1&#45;&gt;Node3 -->
<g id="edge2_Node000001_Node000003" class="edge">
<title>Node1&#45;&gt;Node3</title>
<g id="a_edge2_Node000001_Node000003"><a xlink:title=" ">
<path fill="none" stroke="#63b8ff" d="M184.75,-101.63C184.75,-93.41 184.75,-84.43 184.75,-77.83"/>
<polygon fill="#63b8ff" stroke="#63b8ff" points="181.25,-101.57 184.75,-111.57 188.25,-101.57 181.25,-101.57"/>
</a>
</g>
</g>
<!-- Node7 -->
<g id="Node000007" class="node">
<title>Node7</title>
<g id="a_Node000007"><a xlink:href="controle_8c.html" target="_top" xlink:title=" ">
<polygon fill="white" stroke="#666666" points="367.12,-77.5 260.38,-77.5 260.38,-56.75 367.12,-56.75 367.12,-77.5"/>
<text xml:space="preserve" text-anchor="middle" x="313.75" y="-64" font-family="Helvetica,sans-Serif" font-size="10.00">controle/controle.c</text>
</a>
</g>
</g>
<!-- Node1&#45;&gt;Node7 -->
<g id="edge7_Node000001_Node000007" class="edge">
<title>Node1&#45;&gt;Node7</title>
<g id="a_edge7_Node000001_Node000007"><a xlink:title=" ">
<path fill="none" stroke="#63b8ff" d="M218.4,-108.59C241.22,-98.91 270.77,-86.37 290.89,-77.83"/>
<polygon fill="#63b8ff" stroke="#63b8ff" points="217.04,-105.37 209.21,-112.5 219.78,-111.81 217.04,-105.37"/>
</a>
</g>
</g>
<!-- Node3&#45;&gt;Node2 -->
<g id="edge4_Node000003_Node000002" class="edge">
<title>Node3&#45;&gt;Node2</title>
<g id="a_edge4_Node000003_Node000002"><a xlink:title=" ">
<path fill="none" stroke="#63b8ff" d="M151.36,-51.84C128.72,-42.16 99.4,-29.62 79.44,-21.08"/>
<polygon fill="#63b8ff" stroke="#63b8ff" points="149.9,-55.03 160.47,-55.74 152.66,-48.59 149.9,-55.03"/>
</a>
</g>
</g>
<!-- Node4 -->
<g id="Node000004" class="node">
<title>Node4</title>
<g id="a_Node000004"><a xlink:href="carrinho_8c.html" target="_top" xlink:title=" ">
<polygon fill="white" stroke="#666666" points="238.12,-20.75 131.38,-20.75 131.38,0 238.12,0 238.12,-20.75"/>
<text xml:space="preserve" text-anchor="middle" x="184.75" y="-7.25" font-family="Helvetica,sans-Serif" font-size="10.00">carrinho/carrinho.c</text>
</a>
</g>
</g>
<!-- Node3&#45;&gt;Node4 -->
<g id="edge3_Node000003_Node000004" class="edge">
<title>Node3&#45;&gt;Node4</title>
<g id="a_edge3_Node000003_Node000004"><a xlink:title=" ">
<path fill="none" stroke="#63b8ff" d="M184.75,-44.88C184.75,-36.66 184.75,-27.68 184.75,-21.08"/>
<polygon fill="#63b8ff" stroke="#63b8ff" points="181.25,-44.82 184.75,-54.82 188.25,-44.82 181.25,-44.82"/>
</a>
</g>
</g>
<!-- Node5 -->
<g id="Node000005" class="node">
<title>Node5</title>
<g id="a_Node000005"><a xlink:href="codigo_8c.html" target="_top" xlink:title=" ">
<polygon fill="white" stroke="#666666" points="313,-20.75 256.5,-20.75 256.5,0 313,0 313,-20.75"/>
<text xml:space="preserve" text-anchor="middle" x="284.75" y="-7.25" font-family="Helvetica,sans-Serif" font-size="10.00">codigo.c</text>
</a>
</g>
</g>
<!-- Node3&#45;&gt;Node5 -->
<g id="edge5_Node000003_Node000005" class="edge">
<title>Node3&#45;&gt;Node5</title>
<g id="a_edge5_Node000003_Node000005"><a xlink:title=" ">
<path fill="none" stroke="#63b8ff" d="M212.29,-51.04C229.77,-41.48 251.86,-29.38 267.03,-21.08"/>
<polygon fill="#63b8ff" stroke="#63b8ff" points="211.05,-47.74 203.96,-55.61 214.41,-53.88 211.05,-47.74"/>
</a>
</g>
</g>
<!-- Node6 -->
<g id="Node000006" class="node">
<title>Node6</title>
<g id="a_Node000006"><a xlink:href="main_8c.html" target="_top" xlink:title=" ">
<polygon fill="white" stroke="#666666" points="380.25,-20.75 331.25,-20.75 331.25,0 380.25,0 380.25,-20.75"/>
<text xml:space="preserve" text-anchor="middle" x="355.75" y="-7.25" font-family="Helvetica,sans-Serif" font-size="10.00">main.c</text>
</a>
</g>
</g>
<!-- Node3&#45;&gt;Node6 -->
<g id="edge6_Node000003_Node000006" class="edge">
<title>Node3&#45;&gt;Node6</title>
<g id="a_edge6_Node000003_Node000006"><a xlink:title=" ">
<path fill="none" stroke="#63b8ff" d="M225.94,-52.94C258.72,-42.44 303.51,-28.1 330.99,-19.3"/>
<polygon fill="#63b8ff" stroke="#63b8ff" points="225.22,-49.49 216.76,-55.88 227.35,-56.16 225.22,-49.49"/>
</a>
</g>
</g>
</g>
</svg>
