<?xml version="1.0" encoding="UTF-8" standalone="no"?>
<!DOCTYPE svg PUBLIC "-//W3C//DTD SVG 1.1//EN"
 "http://www.w3.org/Graphics/SVG/1.1/DTD/svg11.dtd">
<!-- Generated by graphviz version 14.0.4 (0)
 -->
<!-- Title: carrinho/nrf24_avr.h Pages: 1 -->
<svg width="388pt" height="86pt"
 viewBox="0.00 0.00 388.00 86.00" xmlns="http://www.w3.org/2000/svg" xmlns:xlink="http://www.w3.org/1999/xlink">
<g id="graph0" class="graph" transform="scale(1 1) rotate(0) translate(4 81.5)">
<title>carrinho/nrf24_avr.h</title>
<!-- Node1 -->
<g id="Node000001" class="node">
<title>Node1</title>
<g id="a_Node000001"><a xlink:title=" ">
<polygon fill="#999999" stroke="#666666" points="289.5,-77.5 175.25,-77.5 175.25,-56.75 289.5,-56.75 289.5,-77.5"/>
<text xml:space="preserve" text-anchor="middle" x="232.38" y="-64" font-family="Helvetica,sans-Serif" font-size="10.00">carrinho/nrf24_avr.h</text>
</a>
</g>
</g>
<!-- Node2 -->
<g id="Node000002" class="node">
<title>Node2</title>
<g id="a_Node000002"><a xlink:href="carrinho_8c.html" target="_top" xlink:title=" ">
<polygon fill="white" stroke="#666666" points="106.75,-20.75 0,-20.75 0,0 106.75,0 106.75,-20.75"/>
<text xml:space="preserve" text-anchor="middle" x="53.38" y="-7.25" font-family="Helvetica,sans-Serif" font-size="10.00">carrinho/carrinho.c</text>
</a>
</g>
</g>
<!-- Node1&#45;&gt;Node2 -->
<g id="edge1_Node000001_Node000002" class="edge">
<title>Node1&#45;&gt;Node2</title>
<g id="a_edge1_Node000001_Node000002"><a xlink:title=" ">
<path fill="none" stroke="#63b8ff" d="M189.55,-53.03C157.54,-43.24 114.46,-30.06 85.4,-21.17"/>
<polygon fill="#63b8ff" stroke="#63b8ff" points="188.34,-56.32 198.93,-55.89 190.39,-49.62 188.34,-56.32"/>
</a>
</g>
</g>
<!-- Node3 -->
<g id="Node000003" class="node">
<title>Node3</title>
<g id="a_Node000003"><a xlink:href="nrf24__avr_8c.html" target="_top" xlink:title=" ">
<polygon fill="white" stroke="#666666" points="238.12,-20.75 124.62,-20.75 124.62,0 238.12,0 238.12,-20.75"/>
<text xml:space="preserve" text-anchor="middle" x="181.38" y="-7.25" font-family="Helvetica,sans-Serif" font-size="10.00">carrinho/nrf24_avr.c</text>
</a>
</g>
</g>
<!-- Node1&#45;&gt;Node3 -->
<g id="edge2_Node000001_Node000003" class="edge">
<title>Node1&#45;&gt;Node3</title>
<g id="a_edge2_Node000001_Node000003"><a xlink:title=" ">
<path fill="none" stroke="#63b8ff" d="M215.51,-48.02C207.14,-39.03 197.35,-28.53 190.41,-21.08"/>
<polygon fill="#63b8ff" stroke="#63b8ff" points="212.85,-50.3 222.23,-55.23 217.97,-45.53 212.85,-50.3"/>
</a>
</g>
</g>
<!-- Node4 -->
<g id="Node000004" class="node">
<title>Node4</title>
<g id="a_Node000004"><a xlink:href="codigo_8c.html" target="_top" xlink:title=" ">
<polygon fill="white" stroke="#666666" points="312.62,-20.75 256.12,-20.75 256.12,0 312.62,0 312.62,-20.75"/>
<text xml:space="preserve" text-anchor="middle" x="284.38" y="-7.25" font-family="Helvetica,sans-Serif" font-size="10.00">codigo.c</text>
</a>
</g>
</g>
<!-- Node1&#45;&gt;Node4 -->
<g id="edge3_Node000001_Node000004" class="edge">
<title>Node1&#45;&gt;Node4</title>
<g id="a_edge3_Node000001_Node000004"><a xlink:title=" ">
<path fill="none" stroke="#63b8ff" d="M249.57,-48.02C258.11,-39.03 268.08,-28.53 275.16,-21.08"/>
<polygon fill="#63b8ff" stroke="#63b8ff" points="247.06,-45.58 242.71,-55.24 252.14,-50.4 247.06,-45.58"/>
</a>
</g>
</g>
<!-- Node5 -->
<g id="Node000005" class="node">
<title>Node5</title>
<g id="a_Node000005"><a xlink:href="main_8c.html" target="_top" xlink:title=" ">
<polygon fill="white" stroke="#666666" points="379.88,-20.75 330.88,-20.75 330.88,0 379.88,0 379.88,-20.75"/>
<text xml:space="preserve" text-anchor="middle" x="355.38" y="-7.25" font-family="Helvetica,sans-Serif" font-size="10.00">main.c</text>
</a>
</g>
</g>
<!-- Node1&#45;&gt;Node5 -->
<g id="edge4_Node000001_Node000005" class="edge">
<title>Node1&#45;&gt;Node5</title>
<g id="a_edge4_Node000001_Node000005"><a xlink:title=" ">
<path fill="none" stroke="#63b8ff" d="M264.76,-51.71C286.47,-42.05 314.48,-29.58 333.58,-21.08"/>
<polygon fill="#63b8ff" stroke="#63b8ff" points="263.46,-48.46 255.75,-55.72 266.31,-54.85 263.46,-48.46"/>
</a>
</g>
</g>
</g>
</svg>
