<?xml version="1.0" encoding="UTF-8" standalone="no"?>
<!DOCTYPE svg PUBLIC "-//W3C//DTD SVG 1.1//EN"
 "http://www.w3.org/Graphics/SVG/1.1/DTD/svg11.dtd">
<!-- Generated by graphviz version 14.0.4 (0)
 -->
<!-- Title: nrf24_available Pages: 1 -->
<svg width="425pt" height="107pt"
 viewBox="0.00 0.00 425.00 107.00" xmlns="http://www.w3.org/2000/svg" xmlns:xlink="http://www.w3.org/1999/xlink">
<g id="graph0" class="graph" transform="scale(1 1) rotate(0) translate(4 102.75)">
<title>nrf24_available</title>
<!-- Node1 -->
<g id="Node000001" class="node">
<title>Node1</title>
<g id="a_Node000001"><a xlink:title=" ">
<polygon fill="#999999" stroke="#666666" points="91.75,-59.75 0,-59.75 0,-39 91.75,-39 91.75,-59.75"/>
<text xml:space="preserve" text-anchor="middle" x="45.88" y="-46.25" font-family="Helvetica,sans-Serif" font-size="10.00">nrf24_available</text>
</a>
</g>
</g>
<!-- Node2 -->
<g id="Node000002" class="node">
<title>Node2</title>
<g id="a_Node000002"><a xlink:href="nrf24__avr_8c.html#abefdb1d58b989853c0646a6c8b18b7d3" target="_top" xlink:title=" ">
<polygon fill="white" stroke="#666666" points="186.5,-59.75 127.75,-59.75 127.75,-39 186.5,-39 186.5,-59.75"/>
<text xml:space="preserve" text-anchor="middle" x="157.12" y="-46.25" font-family="Helvetica,sans-Serif" font-size="10.00">read_reg</text>
</a>
</g>
</g>
<!-- Node1&#45;&gt;Node2 -->
<g id="edge1_Node000001_Node000002" class="edge">
<title>Node1&#45;&gt;Node2</title>
<g id="a_edge1_Node000001_Node000002"><a xlink:title=" ">
<path fill="none" stroke="#63b8ff" d="M91.94,-49.38C99.9,-49.38 108.15,-49.38 115.96,-49.38"/>
<polygon fill="#63b8ff" stroke="#63b8ff" points="115.89,-52.88 125.89,-49.38 115.89,-45.88 115.89,-52.88"/>
</a>
</g>
</g>
<!-- Node3 -->
<g id="Node000003" class="node">
<title>Node3</title>
<g id="a_Node000003"><a xlink:href="nrf24__avr_8c.html#adaef88bc02a8e805de3b3a82bf317549" target="_top" xlink:title=" ">
<polygon fill="white" stroke="#666666" points="288.75,-98.75 230,-98.75 230,-78 288.75,-78 288.75,-98.75"/>
<text xml:space="preserve" text-anchor="middle" x="259.38" y="-85.25" font-family="Helvetica,sans-Serif" font-size="10.00">csn_high</text>
</a>
</g>
</g>
<!-- Node2&#45;&gt;Node3 -->
<g id="edge2_Node000002_Node000003" class="edge">
<title>Node2&#45;&gt;Node3</title>
<g id="a_edge2_Node000002_Node000003"><a xlink:title=" ">
<path fill="none" stroke="#63b8ff" d="M186.05,-60.24C196.59,-64.34 208.76,-69.08 220.09,-73.48"/>
<polygon fill="#63b8ff" stroke="#63b8ff" points="218.6,-76.66 229.19,-77.02 221.14,-70.13 218.6,-76.66"/>
</a>
</g>
</g>
<!-- Node5 -->
<g id="Node000005" class="node">
<title>Node5</title>
<g id="a_Node000005"><a xlink:href="nrf24__avr_8c.html#a42f8c1120431b7c37e116a4e1eac1cc2" target="_top" xlink:title=" ">
<polygon fill="white" stroke="#666666" points="286.88,-59.75 231.88,-59.75 231.88,-39 286.88,-39 286.88,-59.75"/>
<text xml:space="preserve" text-anchor="middle" x="259.38" y="-46.25" font-family="Helvetica,sans-Serif" font-size="10.00">csn_low</text>
</a>
</g>
</g>
<!-- Node2&#45;&gt;Node5 -->
<g id="edge4_Node000002_Node000005" class="edge">
<title>Node2&#45;&gt;Node5</title>
<g id="a_edge4_Node000002_Node000005"><a xlink:title=" ">
<path fill="none" stroke="#63b8ff" d="M186.85,-49.38C197.33,-49.38 209.34,-49.38 220.5,-49.38"/>
<polygon fill="#63b8ff" stroke="#63b8ff" points="220.19,-52.88 230.19,-49.38 220.19,-45.88 220.19,-52.88"/>
</a>
</g>
</g>
<!-- Node6 -->
<g id="Node000006" class="node">
<title>Node6</title>
<g id="a_Node000006"><a xlink:href="nrf24__avr_8c.html#a8d161d483c095113df5b69798e9cd725" target="_top" xlink:title=" ">
<polygon fill="white" stroke="#666666" points="296.25,-20.75 222.5,-20.75 222.5,0 296.25,0 296.25,-20.75"/>
<text xml:space="preserve" text-anchor="middle" x="259.38" y="-7.25" font-family="Helvetica,sans-Serif" font-size="10.00">spi_transfer</text>
</a>
</g>
</g>
<!-- Node2&#45;&gt;Node6 -->
<g id="edge6_Node000002_Node000006" class="edge">
<title>Node2&#45;&gt;Node6</title>
<g id="a_edge6_Node000002_Node000006"><a xlink:title=" ">
<path fill="none" stroke="#63b8ff" d="M186.05,-38.51C196.59,-34.41 208.76,-29.67 220.09,-25.27"/>
<polygon fill="#63b8ff" stroke="#63b8ff" points="221.14,-28.62 229.19,-21.73 218.6,-22.09 221.14,-28.62"/>
</a>
</g>
</g>
<!-- Node4 -->
<g id="Node000004" class="node">
<title>Node4</title>
<g id="a_Node000004"><a xlink:href="nrf24__avr_8c.html#a019970fc17b6b18fa4e45e0baf22c93f" target="_top" xlink:title=" ">
<polygon fill="white" stroke="#666666" points="416.5,-78.75 332.25,-78.75 332.25,-58 416.5,-58 416.5,-78.75"/>
<text xml:space="preserve" text-anchor="middle" x="374.38" y="-65.25" font-family="Helvetica,sans-Serif" font-size="10.00">digitalWrite_d</text>
</a>
</g>
</g>
<!-- Node3&#45;&gt;Node4 -->
<g id="edge3_Node000003_Node000004" class="edge">
<title>Node3&#45;&gt;Node4</title>
<g id="a_edge3_Node000003_Node000004"><a xlink:title=" ">
<path fill="none" stroke="#63b8ff" d="M289.18,-83.28C298.79,-81.58 309.82,-79.62 320.66,-77.7"/>
<polygon fill="#63b8ff" stroke="#63b8ff" points="321.1,-81.18 330.34,-75.99 319.88,-74.29 321.1,-81.18"/>
</a>
</g>
</g>
<!-- Node5&#45;&gt;Node4 -->
<g id="edge5_Node000005_Node000004" class="edge">
<title>Node5&#45;&gt;Node4</title>
<g id="a_edge5_Node000005_Node000004"><a xlink:title=" ">
<path fill="none" stroke="#63b8ff" d="M287.15,-53.88C297.24,-55.57 309.1,-57.57 320.74,-59.52"/>
<polygon fill="#63b8ff" stroke="#63b8ff" points="319.83,-62.92 330.27,-61.13 320.99,-56.02 319.83,-62.92"/>
</a>
</g>
</g>
</g>
</svg>
