<?xml version="1.0" encoding="UTF-8" standalone="no"?>
<!DOCTYPE svg PUBLIC "-//W3C//DTD SVG 1.1//EN"
 "http://www.w3.org/Graphics/SVG/1.1/DTD/svg11.dtd">
<!-- Generated by graphviz version 14.0.4 (0)
 -->
<!-- Title: csn_high Pages: 1 -->
<!--zoomable 496 -->

<svg id="main" version="1.1" xmlns="http://www.w3.org/2000/svg" xmlns:xlink="http://www.w3.org/1999/xlink" xml:space="preserve" onload="init(evt)">

<style type="text/css"><![CDATA[
.node, .edge {opacity: 0.7;}
.node.selected, .edge.selected {opacity: 1;}
.edge:hover path { stroke: red; }
.edge:hover polygon { stroke: red; fill: red; }
]]></style>

<defs>
  <circle id="rim" cx="0" cy="0" r="7"/>
  <circle id="rim2" cx="0" cy="0" r="3.5"/>
  <g id="zoomPlus">
    <use xlink:href="#rim" fill="#404040"><set attributeName="fill" to="#808080" begin="zoomplus.mouseover" end="zoomplus.mouseout"/></use>
    <path d="M-4,0h8M0,-4v8" fill="none" stroke="white" stroke-width="1.5" pointer-events="none"/>
  </g>
  <g id="zoomMin">
    <use xlink:href="#rim" fill="#404040"><set attributeName="fill" to="#808080" begin="zoomminus.mouseover" end="zoomminus.mouseout"/></use>
    <path d="M-4,0h8" fill="none" stroke="white" stroke-width="1.5" pointer-events="none"/>
  </g>
  <g id="arrowUp" transform="translate(30 24)">
    <use xlink:href="#rim"/>
    <path pointer-events="none" fill="none" stroke="white" stroke-width="1.5" d="M0,-3.0v7 M-2.5,-0.5L0,-3.0L2.5,-0.5"/>
  </g>
  <g id="arrowRight" transform="rotate(90) translate(36 -43)">
    <use xlink:href="#rim"/>
    <path pointer-events="none" fill="none" stroke="white" stroke-width="1.5" d="M0,-3.0v7 M-2.5,-0.5L0,-3.0L2.5,-0.5"/>
  </g>
  <g id="arrowDown" transform="rotate(180) translate(-30 -48)">
    <use xlink:href="#rim"/>
    <path pointer-events="none" fill="none" stroke="white" stroke-width="1.5" d="M0,-3.0v7 M-2.5,-0.5L0,-3.0L2.5,-0.5"/>
  </g>
  <g id="arrowLeft" transform="rotate(270) translate(-36 17)">
    <use xlink:href="#rim"/>
    <path pointer-events="none" fill="none" stroke="white" stroke-width="1.5" d="M0,-3.0v7 M-2.5,-0.5L0,-3.0L2.5,-0.5"/>
  </g>
  <g id="resetDef">
    <use xlink:href="#rim2" fill="#404040"><set attributeName="fill" to="#808080" begin="reset.mouseover" end="reset.mouseout"/></use>
  </g>
</defs>
<script type="application/ecmascript">
var viewWidth = 603;
var viewHeight = 496;
var sectionId = 'dynsection-6';
</script>
<script type="application/ecmascript" xlink:href="svg.min.js"/>
<svg id="graph" class="graph">
<g id="viewport">
<title>csn_high</title>
<!-- Node1 -->
<g id="Node000001" class="node">
<title>Node1</title>
<g id="a_Node000001"><a xlink:title=" ">
<polygon fill="#999999" stroke="#666666" points="595.25,-316.36 536.5,-316.36 536.5,-295.61 595.25,-295.61 595.25,-316.36"/>
<text xml:space="preserve" text-anchor="middle" x="565.88" y="-302.86" font-family="Helvetica,sans-Serif" font-size="10.00">csn_high</text>
</a>
</g>
</g>
<!-- Node2 -->
<g id="Node000002" class="node">
<title>Node2</title>
<g id="a_Node000002"><a xlink:href="nrf24__avr_8c.html#ab6fb4c1aa834152310116e7dec65d8e3" target="_top" xlink:title=" ">
<polygon fill="white" stroke="#666666" points="179.38,-125.36 105.62,-125.36 105.62,-104.61 179.38,-104.61 179.38,-125.36"/>
<text xml:space="preserve" text-anchor="middle" x="142.5" y="-111.86" font-family="Helvetica,sans-Serif" font-size="10.00">nrf24_begin</text>
</a>
</g>
</g>
<!-- Node1&#45;&gt;Node2 -->
<g id="edge1_Node000001_Node000002" class="edge">
<title>Node1&#45;&gt;Node2</title>
<g id="a_edge1_Node000001_Node000002"><a xlink:title=" ">
<path fill="none" stroke="#63b8ff" d="M559.06,-284.46C542.04,-226.5 486.07,-68.26 371.25,-19.99 319.22,1.89 292.02,10.07 244.25,-19.99 212.96,-39.68 236.26,-70.85 208.25,-94.99 200.23,-101.9 189.85,-106.43 179.75,-109.39"/>
<polygon fill="#63b8ff" stroke="#63b8ff" points="555.61,-285.11 561.7,-293.78 562.35,-283.2 555.61,-285.11"/>
</a>
</g>
</g>
<!-- Node5 -->
<g id="Node000005" class="node">
<title>Node5</title>
<g id="a_Node000005"><a xlink:href="nrf24__avr_8c.html#a9351c150d32184a95db9ab4a802ed860" target="_top" xlink:title=" ">
<polygon fill="white" stroke="#666666" points="496.75,-431.36 411,-431.36 411,-410.61 496.75,-410.61 496.75,-431.36"/>
<text xml:space="preserve" text-anchor="middle" x="453.88" y="-417.86" font-family="Helvetica,sans-Serif" font-size="10.00">nrf24_flush_rx</text>
</a>
</g>
</g>
<!-- Node1&#45;&gt;Node5 -->
<g id="edge4_Node000001_Node000005" class="edge">
<title>Node1&#45;&gt;Node5</title>
<g id="a_edge4_Node000001_Node000005"><a xlink:title=" ">
<path fill="none" stroke="#63b8ff" d="M554.04,-326.69C542.78,-346.66 523.58,-376.75 500.5,-396.99 494.58,-402.18 487.33,-406.64 480.38,-410.25"/>
<polygon fill="#63b8ff" stroke="#63b8ff" points="557.01,-328.55 558.73,-318.09 550.87,-325.19 557.01,-328.55"/>
</a>
</g>
</g>
<!-- Node6 -->
<g id="Node000006" class="node">
<title>Node6</title>
<g id="a_Node000006"><a xlink:href="nrf24__avr_8c.html#a617ab4b2604d6f482796e35da85369ad" target="_top" xlink:title=" ">
<polygon fill="white" stroke="#666666" points="350.62,-468.36 264.88,-468.36 264.88,-447.61 350.62,-447.61 350.62,-468.36"/>
<text xml:space="preserve" text-anchor="middle" x="307.75" y="-454.86" font-family="Helvetica,sans-Serif" font-size="10.00">nrf24_flush_tx</text>
</a>
</g>
</g>
<!-- Node1&#45;&gt;Node6 -->
<g id="edge5_Node000001_Node000006" class="edge">
<title>Node1&#45;&gt;Node6</title>
<g id="a_edge5_Node000001_Node000006"><a xlink:title=" ">
<path fill="none" stroke="#63b8ff" d="M547.34,-324.89C535.12,-337.24 517.93,-353.05 500.5,-363.99 462.59,-387.77 445.81,-379.26 407.25,-401.99 389.55,-412.42 388.84,-420.37 371.25,-430.99 360.93,-437.22 348.91,-442.77 338.18,-447.19"/>
<polygon fill="#63b8ff" stroke="#63b8ff" points="549.83,-327.35 554.25,-317.72 544.79,-322.49 549.83,-327.35"/>
</a>
</g>
</g>
<!-- Node8 -->
<g id="Node000008" class="node">
<title>Node8</title>
<g id="a_Node000008"><a xlink:href="nrf24__avr_8c.html#a9a23f602a6077c795322702d0a42f48c" target="_top" xlink:title=" ">
<polygon fill="white" stroke="#666666" points="500.5,-355.36 407.25,-355.36 407.25,-334.61 500.5,-334.61 500.5,-355.36"/>
<text xml:space="preserve" text-anchor="middle" x="453.88" y="-341.86" font-family="Helvetica,sans-Serif" font-size="10.00">nrf24_getStatus</text>
</a>
</g>
</g>
<!-- Node1&#45;&gt;Node8 -->
<g id="edge7_Node000001_Node000008" class="edge">
<title>Node1&#45;&gt;Node8</title>
<g id="a_edge7_Node000001_Node000008"><a xlink:title=" ">
<path fill="none" stroke="#63b8ff" d="M525.52,-319.94C512.28,-324.63 497.72,-329.8 485.27,-334.21"/>
<polygon fill="#63b8ff" stroke="#63b8ff" points="526.58,-323.28 534.83,-316.64 524.24,-316.68 526.58,-323.28"/>
</a>
</g>
</g>
<!-- Node9 -->
<g id="Node000009" class="node">
<title>Node9</title>
<g id="a_Node000009"><a xlink:href="nrf24__avr_8c.html#ac4a676257b5b86b05f4ea608636cb2cf" target="_top" xlink:title=" ">
<polygon fill="white" stroke="#666666" points="494.88,-277.36 412.88,-277.36 412.88,-256.61 494.88,-256.61 494.88,-277.36"/>
<text xml:space="preserve" text-anchor="middle" x="453.88" y="-263.86" font-family="Helvetica,sans-Serif" font-size="10.00">read_payload</text>
</a>
</g>
</g>
<!-- Node1&#45;&gt;Node9 -->
<g id="edge8_Node000001_Node000009" class="edge">
<title>Node1&#45;&gt;Node9</title>
<g id="a_edge8_Node000001_Node000009"><a xlink:title=" ">
<path fill="none" stroke="#63b8ff" d="M525.52,-292.04C512.28,-287.34 497.72,-282.18 485.27,-277.76"/>
<polygon fill="#63b8ff" stroke="#63b8ff" points="524.24,-295.29 534.83,-295.34 526.58,-288.7 524.24,-295.29"/>
</a>
</g>
</g>
<!-- Node12 -->
<g id="Node000012" class="node">
<title>Node12</title>
<g id="a_Node000012"><a xlink:href="nrf24__avr_8c.html#abefdb1d58b989853c0646a6c8b18b7d3" target="_top" xlink:title=" ">
<polygon fill="white" stroke="#666666" points="483.25,-316.36 424.5,-316.36 424.5,-295.61 483.25,-295.61 483.25,-316.36"/>
<text xml:space="preserve" text-anchor="middle" x="453.88" y="-302.86" font-family="Helvetica,sans-Serif" font-size="10.00">read_reg</text>
</a>
</g>
</g>
<!-- Node1&#45;&gt;Node12 -->
<g id="edge13_Node000001_Node000012" class="edge">
<title>Node1&#45;&gt;Node12</title>
<g id="a_edge13_Node000001_Node000012"><a xlink:title=" ">
<path fill="none" stroke="#63b8ff" d="M524.75,-305.99C511.16,-305.99 496.26,-305.99 483.73,-305.99"/>
<polygon fill="#63b8ff" stroke="#63b8ff" points="524.75,-309.49 534.75,-305.99 524.75,-302.49 524.75,-309.49"/>
</a>
</g>
</g>
<!-- Node16 -->
<g id="Node000016" class="node">
<title>Node16</title>
<g id="a_Node000016"><a xlink:href="nrf24__avr_8c.html#a31d6889b046799ad06c03ce52c9bb640" target="_top" xlink:title=" ">
<polygon fill="white" stroke="#666666" points="493.75,-238.36 414,-238.36 414,-217.61 493.75,-217.61 493.75,-238.36"/>
<text xml:space="preserve" text-anchor="middle" x="453.88" y="-224.86" font-family="Helvetica,sans-Serif" font-size="10.00">read_reg_buf</text>
</a>
</g>
</g>
<!-- Node1&#45;&gt;Node16 -->
<g id="edge23_Node000001_Node000016" class="edge">
<title>Node1&#45;&gt;Node16</title>
<g id="a_edge23_Node000001_Node000016"><a xlink:title=" ">
<path fill="none" stroke="#63b8ff" d="M547.25,-287.23C534.98,-274.94 517.79,-259.15 500.5,-247.99 495.12,-244.52 489.04,-241.38 483.11,-238.68"/>
<polygon fill="#63b8ff" stroke="#63b8ff" points="544.7,-289.63 554.18,-294.36 549.72,-284.75 544.7,-289.63"/>
</a>
</g>
</g>
<!-- Node17 -->
<g id="Node000017" class="node">
<title>Node17</title>
<g id="a_Node000017"><a xlink:href="nrf24__avr_8c.html#a3c9fd94e9894bf0792d4ff5891c16436" target="_top" xlink:title=" ">
<polygon fill="white" stroke="#666666" points="496.38,-488.36 411.38,-488.36 411.38,-467.61 496.38,-467.61 496.38,-488.36"/>
<text xml:space="preserve" text-anchor="middle" x="453.88" y="-474.86" font-family="Helvetica,sans-Serif" font-size="10.00">write_payload</text>
</a>
</g>
</g>
<!-- Node1&#45;&gt;Node17 -->
<g id="edge24_Node000001_Node000017" class="edge">
<title>Node1&#45;&gt;Node17</title>
<g id="a_edge24_Node000001_Node000017"><a xlink:title=" ">
<path fill="none" stroke="#63b8ff" d="M557.83,-327.42C547.98,-355.27 528.14,-404.52 500.5,-439.99 492.26,-450.56 480.62,-460.19 471.17,-467.11"/>
<polygon fill="#63b8ff" stroke="#63b8ff" points="561.12,-328.6 561.05,-318.01 554.5,-326.33 561.12,-328.6"/>
</a>
</g>
</g>
<!-- Node18 -->
<g id="Node000018" class="node">
<title>Node18</title>
<g id="a_Node000018"><a xlink:href="nrf24__avr_8c.html#a08bc978021db604d02a6da754f73e7e2" target="_top" xlink:title=" ">
<polygon fill="white" stroke="#666666" points="484.75,-181.36 423,-181.36 423,-160.61 484.75,-160.61 484.75,-181.36"/>
<text xml:space="preserve" text-anchor="middle" x="453.88" y="-167.86" font-family="Helvetica,sans-Serif" font-size="10.00">write_reg</text>
</a>
</g>
</g>
<!-- Node1&#45;&gt;Node18 -->
<g id="edge26_Node000001_Node000018" class="edge">
<title>Node1&#45;&gt;Node18</title>
<g id="a_edge26_Node000001_Node000018"><a xlink:title=" ">
<path fill="none" stroke="#63b8ff" d="M553.66,-285.53C541.89,-265.02 522.12,-233.09 500.5,-208.99 491.28,-198.7 479.21,-188.77 469.8,-181.65"/>
<polygon fill="#63b8ff" stroke="#63b8ff" points="550.5,-287.06 558.45,-294.06 556.6,-283.62 550.5,-287.06"/>
</a>
</g>
</g>
<!-- Node3 -->
<g id="Node000003" class="node">
<title>Node3</title>
<g id="a_Node000003"><a xlink:href="carrinho_8c.html#ae66f6b31b5ad750f1fe042a706a4e3d4" target="_top" xlink:title=" ">
<polygon fill="white" stroke="#666666" points="40.75,-124.36 0,-124.36 0,-103.61 40.75,-103.61 40.75,-124.36"/>
<text xml:space="preserve" text-anchor="middle" x="20.38" y="-110.86" font-family="Helvetica,sans-Serif" font-size="10.00">main</text>
</a>
</g>
</g>
<!-- Node2&#45;&gt;Node3 -->
<g id="edge2_Node000002_Node000003" class="edge">
<title>Node2&#45;&gt;Node3</title>
<g id="a_edge2_Node000002_Node000003"><a xlink:title=" ">
<path fill="none" stroke="#63b8ff" d="M93.71,-114.59C75.4,-114.44 55.5,-114.27 41.22,-114.15"/>
<polygon fill="#63b8ff" stroke="#63b8ff" points="93.59,-118.09 103.62,-114.67 93.65,-111.09 93.59,-118.09"/>
</a>
</g>
</g>
<!-- Node4 -->
<g id="Node000004" class="node">
<title>Node4</title>
<g id="a_Node000004"><a xlink:href="main_8c.html#a840291bc02cba5474a4cb46a9b9566fe" target="_top" xlink:title=" ">
<polygon fill="white" stroke="#666666" points="40.75,-163.36 0,-163.36 0,-142.61 40.75,-142.61 40.75,-163.36"/>
<text xml:space="preserve" text-anchor="middle" x="20.38" y="-149.86" font-family="Helvetica,sans-Serif" font-size="10.00">main</text>
</a>
</g>
</g>
<!-- Node2&#45;&gt;Node4 -->
<g id="edge3_Node000002_Node000004" class="edge">
<title>Node2&#45;&gt;Node4</title>
<g id="a_edge3_Node000002_Node000004"><a xlink:title=" ">
<path fill="none" stroke="#63b8ff" d="M96.44,-129.24C77.28,-135.3 55.95,-142.05 40.94,-146.8"/>
<polygon fill="#63b8ff" stroke="#63b8ff" points="97.48,-132.58 105.96,-126.23 95.37,-125.91 97.48,-132.58"/>
</a>
</g>
</g>
<!-- Node7 -->
<g id="Node000007" class="node">
<title>Node7</title>
<g id="a_Node000007"><a xlink:href="nrf24__avr_8c.html#a8232e1982aabc6f52408c318402cb578" target="_top" xlink:title=" ">
<polygon fill="white" stroke="#666666" points="178.25,-430.36 106.75,-430.36 106.75,-409.61 178.25,-409.61 178.25,-430.36"/>
<text xml:space="preserve" text-anchor="middle" x="142.5" y="-416.86" font-family="Helvetica,sans-Serif" font-size="10.00">nrf24_write</text>
</a>
</g>
</g>
<!-- Node6&#45;&gt;Node7 -->
<g id="edge6_Node000006_Node000007" class="edge">
<title>Node6&#45;&gt;Node7</title>
<g id="a_edge6_Node000006_Node000007"><a xlink:title=" ">
<path fill="none" stroke="#63b8ff" d="M253.7,-445.64C229.04,-439.9 200.41,-433.23 178.51,-428.14"/>
<polygon fill="#63b8ff" stroke="#63b8ff" points="252.7,-449 263.23,-447.86 254.29,-442.18 252.7,-449"/>
</a>
</g>
</g>
<!-- Node10 -->
<g id="Node000010" class="node">
<title>Node10</title>
<g id="a_Node000010"><a xlink:href="nrf24__avr_8c.html#aa0767db791fc0b45ebadab011c1900bf" target="_top" xlink:title=" ">
<polygon fill="white" stroke="#666666" points="342,-202.36 273.5,-202.36 273.5,-181.61 342,-181.61 342,-202.36"/>
<text xml:space="preserve" text-anchor="middle" x="307.75" y="-188.86" font-family="Helvetica,sans-Serif" font-size="10.00">nrf24_read</text>
</a>
</g>
</g>
<!-- Node9&#45;&gt;Node10 -->
<g id="edge9_Node000009_Node000010" class="edge">
<title>Node9&#45;&gt;Node10</title>
<g id="a_edge9_Node000009_Node000010"><a xlink:title=" ">
<path fill="none" stroke="#63b8ff" d="M416.79,-251.56C413.55,-250.05 410.33,-248.52 407.25,-246.99 378.48,-232.69 346.15,-214.14 326.63,-202.65"/>
<polygon fill="#63b8ff" stroke="#63b8ff" points="415.16,-254.66 425.72,-255.58 418.04,-248.28 415.16,-254.66"/>
</a>
</g>
</g>
<!-- Node10&#45;&gt;Node4 -->
<g id="edge12_Node000010_Node000004" class="edge">
<title>Node10&#45;&gt;Node4</title>
<g id="a_edge12_Node000010_Node000004"><a xlink:title=" ">
<path fill="none" stroke="#63b8ff" d="M261.82,-188.97C215.26,-185.4 140.53,-178.46 76.75,-166.99 64.84,-164.85 51.71,-161.57 41.22,-158.72"/>
<polygon fill="#63b8ff" stroke="#63b8ff" points="261.28,-192.43 271.51,-189.69 261.8,-185.45 261.28,-192.43"/>
</a>
</g>
</g>
<!-- Node11 -->
<g id="Node000011" class="node">
<title>Node11</title>
<g id="a_Node000011"><a xlink:href="carrinho_8c.html#afe461d27b9c48d5921c00d521181f12f" target="_top" xlink:title=" ">
<polygon fill="white" stroke="#666666" points="161,-239.36 124,-239.36 124,-218.61 161,-218.61 161,-239.36"/>
<text xml:space="preserve" text-anchor="middle" x="142.5" y="-225.86" font-family="Helvetica,sans-Serif" font-size="10.00">loop</text>
</a>
</g>
</g>
<!-- Node10&#45;&gt;Node11 -->
<g id="edge10_Node000010_Node000011" class="edge">
<title>Node10&#45;&gt;Node11</title>
<g id="a_edge10_Node000010_Node000011"><a xlink:title=" ">
<path fill="none" stroke="#63b8ff" d="M262.48,-202.02C229.2,-209.56 185.35,-219.5 161.26,-224.96"/>
<polygon fill="#63b8ff" stroke="#63b8ff" points="262.86,-205.52 271.84,-199.9 261.32,-198.7 262.86,-205.52"/>
</a>
</g>
</g>
<!-- Node11&#45;&gt;Node3 -->
<g id="edge11_Node000011_Node000003" class="edge">
<title>Node11&#45;&gt;Node3</title>
<g id="a_edge11_Node000011_Node000003"><a xlink:title=" ">
<path fill="none" stroke="#63b8ff" d="M122.26,-210.57C96.84,-186.23 52.88,-144.15 32.43,-124.57"/>
<polygon fill="#63b8ff" stroke="#63b8ff" points="119.68,-212.94 129.32,-217.33 124.52,-207.88 119.68,-212.94"/>
</a>
</g>
</g>
<!-- Node12&#45;&gt;Node7 -->
<g id="edge22_Node000012_Node000007" class="edge">
<title>Node12&#45;&gt;Node7</title>
<g id="a_edge22_Node000012_Node000007"><a xlink:title=" ">
<path fill="none" stroke="#63b8ff" d="M414.52,-320.22C411.91,-321.94 409.45,-323.86 407.25,-325.99 380.66,-351.68 401.7,-380.01 371.25,-400.99 313.42,-440.83 226.68,-434.66 178.66,-427.06"/>
<polygon fill="#63b8ff" stroke="#63b8ff" points="416.03,-323.38 423.09,-315.48 412.64,-317.25 416.03,-323.38"/>
</a>
</g>
</g>
<!-- Node13 -->
<g id="Node000013" class="node">
<title>Node13</title>
<g id="a_Node000013"><a xlink:href="nrf24__avr_8c.html#a0f64caa74329fd5799a33f30bd8ebf82" target="_top" xlink:title=" ">
<polygon fill="white" stroke="#666666" points="353.62,-278.36 261.88,-278.36 261.88,-257.61 353.62,-257.61 353.62,-278.36"/>
<text xml:space="preserve" text-anchor="middle" x="307.75" y="-264.86" font-family="Helvetica,sans-Serif" font-size="10.00">nrf24_available</text>
</a>
</g>
</g>
<!-- Node12&#45;&gt;Node13 -->
<g id="edge14_Node000012_Node000013" class="edge">
<title>Node12&#45;&gt;Node13</title>
<g id="a_edge14_Node000012_Node000013"><a xlink:title=" ">
<path fill="none" stroke="#63b8ff" d="M413,-295.47C393.33,-290.29 369.63,-284.04 349.8,-278.81"/>
<polygon fill="#63b8ff" stroke="#63b8ff" points="412.03,-298.84 422.59,-298 413.81,-292.07 412.03,-298.84"/>
</a>
</g>
</g>
<!-- Node14 -->
<g id="Node000014" class="node">
<title>Node14</title>
<g id="a_Node000014"><a xlink:href="nrf24__avr_8c.html#a71c5628e9583f6a6fd0871b3ae1bf6df" target="_top" xlink:title=" ">
<polygon fill="white" stroke="#666666" points="199.25,-278.36 85.75,-278.36 85.75,-257.61 199.25,-257.61 199.25,-278.36"/>
<text xml:space="preserve" text-anchor="middle" x="142.5" y="-264.86" font-family="Helvetica,sans-Serif" font-size="10.00">nrf24_startListening</text>
</a>
</g>
</g>
<!-- Node12&#45;&gt;Node14 -->
<g id="edge17_Node000012_Node000014" class="edge">
<title>Node12&#45;&gt;Node14</title>
<g id="a_edge17_Node000012_Node000014"><a xlink:title=" ">
<path fill="none" stroke="#63b8ff" d="M412.67,-303.47C370.56,-300.57 302.57,-295.12 244.25,-286.99 228.47,-284.79 211.41,-281.8 195.89,-278.85"/>
<polygon fill="#63b8ff" stroke="#63b8ff" points="412.37,-306.96 422.58,-304.14 412.84,-299.97 412.37,-306.96"/>
</a>
</g>
</g>
<!-- Node15 -->
<g id="Node000015" class="node">
<title>Node15</title>
<g id="a_Node000015"><a xlink:href="nrf24__avr_8c.html#a33899bc3c0f4d2293f37c306d0b8e297" target="_top" xlink:title=" ">
<polygon fill="white" stroke="#666666" points="363.75,-392.36 251.75,-392.36 251.75,-371.61 363.75,-371.61 363.75,-392.36"/>
<text xml:space="preserve" text-anchor="middle" x="307.75" y="-378.86" font-family="Helvetica,sans-Serif" font-size="10.00">nrf24_stopListening</text>
</a>
</g>
</g>
<!-- Node12&#45;&gt;Node15 -->
<g id="edge20_Node000012_Node000015" class="edge">
<title>Node12&#45;&gt;Node15</title>
<g id="a_edge20_Node000012_Node000015"><a xlink:title=" ">
<path fill="none" stroke="#63b8ff" d="M414.38,-321.8C411.92,-323.13 409.52,-324.53 407.25,-325.99 389.23,-337.54 389.54,-346.86 371.25,-357.99 362.71,-363.18 352.86,-367.6 343.53,-371.17"/>
<polygon fill="#63b8ff" stroke="#63b8ff" points="415.89,-324.95 423.3,-317.38 412.78,-318.68 415.89,-324.95"/>
</a>
</g>
</g>
<!-- Node13&#45;&gt;Node4 -->
<g id="edge16_Node000013_Node000004" class="edge">
<title>Node13&#45;&gt;Node4</title>
<g id="a_edge16_Node000013_Node000004"><a xlink:title=" ">
<path fill="none" stroke="#63b8ff" d="M272.69,-283.06C224.65,-301.8 136.23,-326.77 76.75,-286.99 34.07,-258.44 24.25,-190.3 22.02,-163.79"/>
<polygon fill="#63b8ff" stroke="#63b8ff" points="273.79,-286.39 281.75,-279.4 271.16,-279.9 273.79,-286.39"/>
</a>
</g>
</g>
<!-- Node13&#45;&gt;Node11 -->
<g id="edge15_Node000013_Node000011" class="edge">
<title>Node13&#45;&gt;Node11</title>
<g id="a_edge15_Node000013_Node000011"><a xlink:title=" ">
<path fill="none" stroke="#63b8ff" d="M250.89,-254.64C219.55,-247.16 182.55,-238.32 161.18,-233.21"/>
<polygon fill="#63b8ff" stroke="#63b8ff" points="249.7,-257.96 260.24,-256.88 251.32,-251.15 249.7,-257.96"/>
</a>
</g>
</g>
<!-- Node14&#45;&gt;Node3 -->
<g id="edge18_Node000014_Node000003" class="edge">
<title>Node14&#45;&gt;Node3</title>
<g id="a_edge18_Node000014_Node000003"><a xlink:title=" ">
<path fill="none" stroke="#63b8ff" d="M80.07,-250.97C78.92,-250.03 77.81,-249.04 76.75,-247.99 39.06,-210.54 67.96,-179.62 40.75,-133.99 38.77,-130.67 36.13,-127.47 33.45,-124.64"/>
<polygon fill="#63b8ff" stroke="#63b8ff" points="78.14,-253.89 88.43,-256.41 81.95,-248.02 78.14,-253.89"/>
</a>
</g>
</g>
<!-- Node14&#45;&gt;Node4 -->
<g id="edge19_Node000014_Node000004" class="edge">
<title>Node14&#45;&gt;Node4</title>
<g id="a_edge19_Node000014_Node000004"><a xlink:title=" ">
<path fill="none" stroke="#63b8ff" d="M82.31,-251.9C80.37,-250.69 78.51,-249.39 76.75,-247.99 48.05,-225.19 31.25,-183.15 24.65,-163.56"/>
<polygon fill="#63b8ff" stroke="#63b8ff" points="80.65,-254.99 91.13,-256.53 83.9,-248.79 80.65,-254.99"/>
</a>
</g>
</g>
<!-- Node15&#45;&gt;Node7 -->
<g id="edge21_Node000015_Node000007" class="edge">
<title>Node15&#45;&gt;Node7</title>
<g id="a_edge21_Node000015_Node000007"><a xlink:title=" ">
<path fill="none" stroke="#63b8ff" d="M249.44,-395.33C225.81,-400.83 199.18,-407.03 178.53,-411.83"/>
<polygon fill="#63b8ff" stroke="#63b8ff" points="249.99,-398.79 258.93,-393.12 248.4,-391.98 249.99,-398.79"/>
</a>
</g>
</g>
<!-- Node17&#45;&gt;Node7 -->
<g id="edge25_Node000017_Node000007" class="edge">
<title>Node17&#45;&gt;Node7</title>
<g id="a_edge25_Node000017_Node000007"><a xlink:title=" ">
<path fill="none" stroke="#63b8ff" d="M399.62,-485.04C356.87,-488.97 295.71,-490.67 244.25,-476.99 210.26,-467.95 175.66,-444.63 157.17,-430.78"/>
<polygon fill="#63b8ff" stroke="#63b8ff" points="399.78,-488.54 409.39,-484.06 399.09,-481.57 399.78,-488.54"/>
</a>
</g>
</g>
<!-- Node18&#45;&gt;Node2 -->
<g id="edge27_Node000018_Node000002" class="edge">
<title>Node18&#45;&gt;Node2</title>
<g id="a_edge27_Node000018_Node000002"><a xlink:title=" ">
<path fill="none" stroke="#63b8ff" d="M424.25,-155.09C408.98,-147.37 389.6,-138.76 371.25,-133.99 305.2,-116.81 225.1,-114.14 179.64,-114.23"/>
<polygon fill="#63b8ff" stroke="#63b8ff" points="422.27,-158.01 432.76,-159.53 425.51,-151.8 422.27,-158.01"/>
</a>
</g>
</g>
<!-- Node18&#45;&gt;Node7 -->
<g id="edge41_Node000018_Node000007" class="edge">
<title>Node18&#45;&gt;Node7</title>
<g id="a_edge41_Node000018_Node000007"><a xlink:title=" ">
<path fill="none" stroke="#63b8ff" d="M427.66,-188.64C420.44,-194.53 412.99,-201.51 407.25,-208.99 384.01,-239.28 396.92,-258.72 371.25,-286.99 363.19,-295.86 215.79,-379.28 162.51,-409.3"/>
<polygon fill="#63b8ff" stroke="#63b8ff" points="429.54,-191.61 435.33,-182.74 425.27,-186.07 429.54,-191.61"/>
</a>
</g>
</g>
<!-- Node18&#45;&gt;Node10 -->
<g id="edge32_Node000018_Node000010" class="edge">
<title>Node18&#45;&gt;Node10</title>
<g id="a_edge32_Node000018_Node000010"><a xlink:title=" ">
<path fill="none" stroke="#63b8ff" d="M411.38,-177.03C389.51,-180.22 363.04,-184.08 342.45,-187.08"/>
<polygon fill="#63b8ff" stroke="#63b8ff" points="411.77,-180.51 421.16,-175.61 410.76,-173.59 411.77,-180.51"/>
</a>
</g>
</g>
<!-- Node18&#45;&gt;Node14 -->
<g id="edge39_Node000018_Node000014" class="edge">
<title>Node18&#45;&gt;Node14</title>
<g id="a_edge39_Node000018_Node000014"><a xlink:title=" ">
<path fill="none" stroke="#63b8ff" d="M424.01,-186.98C408.68,-195 389.31,-204.38 371.25,-210.99 314.21,-231.84 246.42,-247.73 199.71,-257.37"/>
<polygon fill="#63b8ff" stroke="#63b8ff" points="425.4,-190.21 432.58,-182.41 422.11,-184.03 425.4,-190.21"/>
</a>
</g>
</g>
<!-- Node18&#45;&gt;Node15 -->
<g id="edge40_Node000018_Node000015" class="edge">
<title>Node18&#45;&gt;Node15</title>
<g id="a_edge40_Node000018_Node000015"><a xlink:title=" ">
<path fill="none" stroke="#63b8ff" d="M426.39,-188.26C419.25,-194.08 412.15,-201.11 407.25,-208.99 371.25,-266.83 416.2,-306.8 371.25,-357.99 366.34,-363.58 359.98,-367.87 353.2,-371.17"/>
<polygon fill="#63b8ff" stroke="#63b8ff" points="428.18,-191.29 434.08,-182.49 423.98,-185.69 428.18,-191.29"/>
</a>
</g>
</g>
<!-- Node19 -->
<g id="Node000019" class="node">
<title>Node19</title>
<g id="a_Node000019"><a xlink:href="nrf24__avr_8c.html#a5af2f11537aed8a56d8489355af0ff16" target="_top" xlink:title=" ">
<polygon fill="white" stroke="#666666" points="208.25,-47.36 76.75,-47.36 76.75,-26.61 208.25,-26.61 208.25,-47.36"/>
<text xml:space="preserve" text-anchor="middle" x="142.5" y="-33.86" font-family="Helvetica,sans-Serif" font-size="10.00">nrf24_openReadingPipe</text>
</a>
</g>
</g>
<!-- Node18&#45;&gt;Node19 -->
<g id="edge28_Node000018_Node000019" class="edge">
<title>Node18&#45;&gt;Node19</title>
<g id="a_edge28_Node000018_Node000019"><a xlink:title=" ">
<path fill="none" stroke="#63b8ff" d="M448.48,-149.24C440.2,-114.68 418.67,-48.26 371.25,-19.99 306.88,18.39 213.42,-9.17 168.91,-26.22"/>
<polygon fill="#63b8ff" stroke="#63b8ff" points="445.05,-149.92 450.63,-158.92 451.88,-148.4 445.05,-149.92"/>
</a>
</g>
</g>
<!-- Node20 -->
<g id="Node000020" class="node">
<title>Node20</title>
<g id="a_Node000020"><a xlink:href="nrf24__avr_8c.html#a21d638882f746748de35324bdc21f448" target="_top" xlink:title=" ">
<polygon fill="white" stroke="#666666" points="371.25,-49.36 244.25,-49.36 244.25,-28.61 371.25,-28.61 371.25,-49.36"/>
<text xml:space="preserve" text-anchor="middle" x="307.75" y="-35.86" font-family="Helvetica,sans-Serif" font-size="10.00">nrf24_openWritingPipe</text>
</a>
</g>
</g>
<!-- Node18&#45;&gt;Node20 -->
<g id="edge31_Node000018_Node000020" class="edge">
<title>Node18&#45;&gt;Node20</title>
<g id="a_edge31_Node000018_Node000020"><a xlink:title=" ">
<path fill="none" stroke="#63b8ff" d="M442.02,-150.36C428.42,-126.33 403.01,-86.88 371.25,-62.99 364.01,-57.54 355.37,-53.18 346.87,-49.75"/>
<polygon fill="#63b8ff" stroke="#63b8ff" points="438.81,-151.79 446.69,-158.88 444.95,-148.43 438.81,-151.79"/>
</a>
</g>
</g>
<!-- Node21 -->
<g id="Node000021" class="node">
<title>Node21</title>
<g id="a_Node000021"><a xlink:href="nrf24__avr_8c.html#a49aa88b1042d6d62114cfbca271d9e2b" target="_top" xlink:title=" ">
<polygon fill="white" stroke="#666666" points="193.25,-86.36 91.75,-86.36 91.75,-65.61 193.25,-65.61 193.25,-86.36"/>
<text xml:space="preserve" text-anchor="middle" x="142.5" y="-72.86" font-family="Helvetica,sans-Serif" font-size="10.00">nrf24_setChannel</text>
</a>
</g>
</g>
<!-- Node18&#45;&gt;Node21 -->
<g id="edge33_Node000018_Node000021" class="edge">
<title>Node18&#45;&gt;Node21</title>
<g id="a_edge33_Node000018_Node000021"><a xlink:title=" ">
<path fill="none" stroke="#63b8ff" d="M433.51,-152.91C417.91,-139.41 394.76,-121.69 371.25,-111.99 313.34,-88.09 241.12,-79.96 193.73,-77.25"/>
<polygon fill="#63b8ff" stroke="#63b8ff" points="430.85,-155.23 440.64,-159.27 435.51,-150 430.85,-155.23"/>
</a>
</g>
</g>
<!-- Node22 -->
<g id="Node000022" class="node">
<title>Node22</title>
<g id="a_Node000022"><a xlink:href="nrf24__avr_8c.html#aaf2900e7932ebbf7f0ecdc6bce5840e1" target="_top" xlink:title=" ">
<polygon fill="white" stroke="#666666" points="368.25,-163.36 247.25,-163.36 247.25,-142.61 368.25,-142.61 368.25,-163.36"/>
<text xml:space="preserve" text-anchor="middle" x="307.75" y="-149.86" font-family="Helvetica,sans-Serif" font-size="10.00">nrf24_setPayloadSize</text>
</a>
</g>
</g>
<!-- Node18&#45;&gt;Node22 -->
<g id="edge36_Node000018_Node000022" class="edge">
<title>Node18&#45;&gt;Node22</title>
<g id="a_edge36_Node000018_Node000022"><a xlink:title=" ">
<path fill="none" stroke="#63b8ff" d="M411.44,-165.81C398.1,-164.15 383.03,-162.26 368.63,-160.47"/>
<polygon fill="#63b8ff" stroke="#63b8ff" points="410.8,-169.26 421.16,-167.03 411.67,-162.31 410.8,-169.26"/>
</a>
</g>
</g>
<!-- Node19&#45;&gt;Node3 -->
<g id="edge29_Node000019_Node000003" class="edge">
<title>Node19&#45;&gt;Node3</title>
<g id="a_edge29_Node000019_Node000003"><a xlink:title=" ">
<path fill="none" stroke="#63b8ff" d="M85.48,-52.28C82.46,-53.72 79.52,-55.29 76.75,-56.99 56.75,-69.24 38.89,-90.36 29.15,-103.16"/>
<polygon fill="#63b8ff" stroke="#63b8ff" points="86.75,-55.54 94.6,-48.43 84.03,-49.09 86.75,-55.54"/>
</a>
</g>
</g>
<!-- Node19&#45;&gt;Node4 -->
<g id="edge30_Node000019_Node000004" class="edge">
<title>Node19&#45;&gt;Node4</title>
<g id="a_edge30_Node000019_Node000004"><a xlink:title=" ">
<path fill="none" stroke="#63b8ff" d="M81.37,-53.41C79.76,-54.53 78.22,-55.72 76.75,-56.99 48.5,-81.46 62.04,-102.27 40.75,-132.99 38.55,-136.17 35.83,-139.31 33.13,-142.13"/>
<polygon fill="#63b8ff" stroke="#63b8ff" points="82.91,-56.56 89.86,-48.57 79.44,-50.48 82.91,-56.56"/>
</a>
</g>
</g>
<!-- Node21&#45;&gt;Node3 -->
<g id="edge34_Node000021_Node000003" class="edge">
<title>Node21&#45;&gt;Node3</title>
<g id="a_edge34_Node000021_Node000003"><a xlink:title=" ">
<path fill="none" stroke="#63b8ff" d="M95.65,-90.06C89.3,-92.03 82.86,-94.05 76.75,-95.99 64.9,-99.74 51.65,-104.05 41.09,-107.5"/>
<polygon fill="#63b8ff" stroke="#63b8ff" points="96.22,-93.54 104.74,-87.24 94.15,-86.86 96.22,-93.54"/>
</a>
</g>
</g>
<!-- Node21&#45;&gt;Node4 -->
<g id="edge35_Node000021_Node000004" class="edge">
<title>Node21&#45;&gt;Node4</title>
<g id="a_edge35_Node000021_Node000004"><a xlink:title=" ">
<path fill="none" stroke="#63b8ff" d="M85.48,-91.28C82.46,-92.72 79.52,-94.29 76.75,-95.99 76.41,-96.2 47.64,-125.87 31.71,-142.31"/>
<polygon fill="#63b8ff" stroke="#63b8ff" points="86.75,-94.54 94.6,-87.43 84.03,-88.09 86.75,-94.54"/>
</a>
</g>
</g>
<!-- Node22&#45;&gt;Node2 -->
<g id="edge38_Node000022_Node000002" class="edge">
<title>Node22&#45;&gt;Node2</title>
<g id="a_edge38_Node000022_Node000002"><a xlink:title=" ">
<path fill="none" stroke="#63b8ff" d="M249.33,-139.62C226.22,-134.24 200.26,-128.2 179.84,-123.45"/>
<polygon fill="#63b8ff" stroke="#63b8ff" points="248.4,-143 258.93,-141.86 249.99,-136.18 248.4,-143"/>
</a>
</g>
</g>
<!-- Node22&#45;&gt;Node4 -->
<g id="edge37_Node000022_Node000004" class="edge">
<title>Node22&#45;&gt;Node4</title>
<g id="a_edge37_Node000022_Node000004"><a xlink:title=" ">
<path fill="none" stroke="#63b8ff" d="M235.64,-152.99C171.31,-152.99 80.8,-152.99 41.21,-152.99"/>
<polygon fill="#63b8ff" stroke="#63b8ff" points="235.41,-156.49 245.41,-152.99 235.41,-149.49 235.41,-156.49"/>
</a>
</g>
</g>
</g>
</svg>

<g id="navigator" transform="translate(0 0)" fill="#404254">
  <rect fill="#f2f5e9" fill-opacity="0.5" stroke="#606060" stroke-width=".5" x="0" y="0" width="60" height="60"/>
  <use id="zoomplus" xlink:href="#zoomPlus" x="17" y="9" onmousedown="handleZoom(evt,'in')"/>
  <use id="zoomminus" xlink:href="#zoomMin" x="42" y="9" onmousedown="handleZoom(evt,'out')"/>
  <use id="reset" xlink:href="#resetDef" x="30" y="36" onmousedown="handleReset()"/>
   <use id="arrowup" xlink:href="#arrowUp" x="0" y="0" onmousedown="handlePan(0,-1)"/>
  <use id="arrowright" xlink:href="#arrowRight" x="0" y="0" onmousedown="handlePan(1,0)"/>
  <use id="arrowdown" xlink:href="#arrowDown" x="0" y="0" onmousedown="handlePan(0,1)"/>
  <use id="arrowleft" xlink:href="#arrowLeft" x="0" y="0" onmousedown="handlePan(-1,0)"/>
</g>
<svg viewBox="0 0 15 15" width="100%" height="30px" preserveAspectRatio="xMaxYMin meet">
 <g id="arrow_out" transform="scale(0.3 0.3)">
  <a xlink:href="nrf24__avr_8c_adaef88bc02a8e805de3b3a82bf317549_icgraph_org.svg" target="_base">
   <rect id="button" ry="5" rx="5" y="6" x="6" height="38" width="38"
        fill="#f2f5e9" fill-opacity="0.5" stroke="#606060" stroke-width="1.0"/>
   <path id="arrow"
     d="M 11.500037,31.436501 C 11.940474,20.09759 22.043105,11.32322 32.158766,21.979434 L 37.068811,17.246167 C 37.068811,17.246167 37.088388,32 37.088388,32 L 22.160133,31.978069 C 22.160133,31.978069 26.997745,27.140456 26.997745,27.140456 C 18.528582,18.264221 13.291696,25.230495 11.500037,31.436501 z"
     style="fill:#404040;"/>
  </a>
 </g>
</svg>

<style type='text/css'>
<![CDATA[
[data-mouse-over-selected='false'] { opacity: 0.7; }
[data-mouse-over-selected='true']  { opacity: 1.0; }
]]>
</style>
<script type="application/ecmascript"><![CDATA[
document.addEventListener('DOMContentLoaded', (event) => {
  highlightEdges();
  highlightAdjacentNodes();
});
]]></script>
</svg>
