<?xml version="1.0" encoding="UTF-8" standalone="no"?>
<!DOCTYPE svg PUBLIC "-//W3C//DTD SVG 1.1//EN"
 "http://www.w3.org/Graphics/SVG/1.1/DTD/svg11.dtd">
<!-- Generated by graphviz version 14.0.4 (0)
 -->
<!-- Title: write_payload Pages: 1 -->
<svg width="323pt" height="107pt"
 viewBox="0.00 0.00 323.00 107.00" xmlns="http://www.w3.org/2000/svg" xmlns:xlink="http://www.w3.org/1999/xlink">
<g id="graph0" class="graph" transform="scale(1 1) rotate(0) translate(4 102.75)">
<title>write_payload</title>
<!-- Node1 -->
<g id="Node000001" class="node">
<title>Node1</title>
<g id="a_Node000001"><a xlink:title=" ">
<polygon fill="#999999" stroke="#666666" points="85,-59.75 0,-59.75 0,-39 85,-39 85,-59.75"/>
<text xml:space="preserve" text-anchor="middle" x="42.5" y="-46.25" font-family="Helvetica,sans-Serif" font-size="10.00">write_payload</text>
</a>
</g>
</g>
<!-- Node2 -->
<g id="Node000002" class="node">
<title>Node2</title>
<g id="a_Node000002"><a xlink:href="nrf24__avr_8c.html#adaef88bc02a8e805de3b3a82bf317549" target="_top" xlink:title=" ">
<polygon fill="white" stroke="#666666" points="187.25,-98.75 128.5,-98.75 128.5,-78 187.25,-78 187.25,-98.75"/>
<text xml:space="preserve" text-anchor="middle" x="157.88" y="-85.25" font-family="Helvetica,sans-Serif" font-size="10.00">csn_high</text>
</a>
</g>
</g>
<!-- Node1&#45;&gt;Node2 -->
<g id="edge1_Node000001_Node000002" class="edge">
<title>Node1&#45;&gt;Node2</title>
<g id="a_edge1_Node000001_Node000002"><a xlink:title=" ">
<path fill="none" stroke="#63b8ff" d="M75.08,-60.24C88.21,-64.76 103.6,-70.05 117.46,-74.82"/>
<polygon fill="#63b8ff" stroke="#63b8ff" points="116.15,-78.07 126.75,-78.01 118.43,-71.45 116.15,-78.07"/>
</a>
</g>
</g>
<!-- Node4 -->
<g id="Node000004" class="node">
<title>Node4</title>
<g id="a_Node000004"><a xlink:href="nrf24__avr_8c.html#a42f8c1120431b7c37e116a4e1eac1cc2" target="_top" xlink:title=" ">
<polygon fill="white" stroke="#666666" points="185.38,-59.75 130.38,-59.75 130.38,-39 185.38,-39 185.38,-59.75"/>
<text xml:space="preserve" text-anchor="middle" x="157.88" y="-46.25" font-family="Helvetica,sans-Serif" font-size="10.00">csn_low</text>
</a>
</g>
</g>
<!-- Node1&#45;&gt;Node4 -->
<g id="edge3_Node000001_Node000004" class="edge">
<title>Node1&#45;&gt;Node4</title>
<g id="a_edge3_Node000001_Node000004"><a xlink:title=" ">
<path fill="none" stroke="#63b8ff" d="M85.39,-49.38C96.21,-49.38 107.8,-49.38 118.43,-49.38"/>
<polygon fill="#63b8ff" stroke="#63b8ff" points="118.42,-52.88 128.42,-49.38 118.42,-45.88 118.42,-52.88"/>
</a>
</g>
</g>
<!-- Node5 -->
<g id="Node000005" class="node">
<title>Node5</title>
<g id="a_Node000005"><a xlink:href="nrf24__avr_8c.html#a8d161d483c095113df5b69798e9cd725" target="_top" xlink:title=" ">
<polygon fill="white" stroke="#666666" points="194.75,-20.75 121,-20.75 121,0 194.75,0 194.75,-20.75"/>
<text xml:space="preserve" text-anchor="middle" x="157.88" y="-7.25" font-family="Helvetica,sans-Serif" font-size="10.00">spi_transfer</text>
</a>
</g>
</g>
<!-- Node1&#45;&gt;Node5 -->
<g id="edge5_Node000001_Node000005" class="edge">
<title>Node1&#45;&gt;Node5</title>
<g id="a_edge5_Node000001_Node000005"><a xlink:title=" ">
<path fill="none" stroke="#63b8ff" d="M75.08,-38.51C87.37,-34.29 101.62,-29.38 114.76,-24.86"/>
<polygon fill="#63b8ff" stroke="#63b8ff" points="115.71,-28.24 124.03,-21.67 113.44,-21.62 115.71,-28.24"/>
</a>
</g>
</g>
<!-- Node3 -->
<g id="Node000003" class="node">
<title>Node3</title>
<g id="a_Node000003"><a xlink:href="nrf24__avr_8c.html#a019970fc17b6b18fa4e45e0baf22c93f" target="_top" xlink:title=" ">
<polygon fill="white" stroke="#666666" points="315,-78.75 230.75,-78.75 230.75,-58 315,-58 315,-78.75"/>
<text xml:space="preserve" text-anchor="middle" x="272.88" y="-65.25" font-family="Helvetica,sans-Serif" font-size="10.00">digitalWrite_d</text>
</a>
</g>
</g>
<!-- Node2&#45;&gt;Node3 -->
<g id="edge2_Node000002_Node000003" class="edge">
<title>Node2&#45;&gt;Node3</title>
<g id="a_edge2_Node000002_Node000003"><a xlink:title=" ">
<path fill="none" stroke="#63b8ff" d="M187.68,-83.28C197.29,-81.58 208.32,-79.62 219.16,-77.7"/>
<polygon fill="#63b8ff" stroke="#63b8ff" points="219.6,-81.18 228.84,-75.99 218.38,-74.29 219.6,-81.18"/>
</a>
</g>
</g>
<!-- Node4&#45;&gt;Node3 -->
<g id="edge4_Node000004_Node000003" class="edge">
<title>Node4&#45;&gt;Node3</title>
<g id="a_edge4_Node000004_Node000003"><a xlink:title=" ">
<path fill="none" stroke="#63b8ff" d="M185.65,-53.88C195.74,-55.57 207.6,-57.57 219.24,-59.52"/>
<polygon fill="#63b8ff" stroke="#63b8ff" points="218.33,-62.92 228.77,-61.13 219.49,-56.02 218.33,-62.92"/>
</a>
</g>
</g>
</g>
</svg>
