<?xml version="1.0" encoding="UTF-8" standalone="no"?>
<!DOCTYPE svg PUBLIC "-//W3C//DTD SVG 1.1//EN"
 "http://www.w3.org/Graphics/SVG/1.1/DTD/svg11.dtd">
<!-- Generated by graphviz version 14.0.4 (0)
 -->
<!-- Title: read_reg Pages: 1 -->
<svg width="297pt" height="107pt"
 viewBox="0.00 0.00 297.00 107.00" xmlns="http://www.w3.org/2000/svg" xmlns:xlink="http://www.w3.org/1999/xlink">
<g id="graph0" class="graph" transform="scale(1 1) rotate(0) translate(4 102.75)">
<title>read_reg</title>
<!-- Node1 -->
<g id="Node000001" class="node">
<title>Node1</title>
<g id="a_Node000001"><a xlink:title=" ">
<polygon fill="#999999" stroke="#666666" points="58.75,-59.75 0,-59.75 0,-39 58.75,-39 58.75,-59.75"/>
<text xml:space="preserve" text-anchor="middle" x="29.38" y="-46.25" font-family="Helvetica,sans-Serif" font-size="10.00">read_reg</text>
</a>
</g>
</g>
<!-- Node2 -->
<g id="Node000002" class="node">
<title>Node2</title>
<g id="a_Node000002"><a xlink:href="nrf24__avr_8c.html#adaef88bc02a8e805de3b3a82bf317549" target="_top" xlink:title=" ">
<polygon fill="white" stroke="#666666" points="161,-98.75 102.25,-98.75 102.25,-78 161,-78 161,-98.75"/>
<text xml:space="preserve" text-anchor="middle" x="131.62" y="-85.25" font-family="Helvetica,sans-Serif" font-size="10.00">csn_high</text>
</a>
</g>
</g>
<!-- Node1&#45;&gt;Node2 -->
<g id="edge1_Node000001_Node000002" class="edge">
<title>Node1&#45;&gt;Node2</title>
<g id="a_edge1_Node000001_Node000002"><a xlink:title=" ">
<path fill="none" stroke="#63b8ff" d="M58.3,-60.24C68.84,-64.34 81.01,-69.08 92.34,-73.48"/>
<polygon fill="#63b8ff" stroke="#63b8ff" points="90.85,-76.66 101.44,-77.02 93.39,-70.13 90.85,-76.66"/>
</a>
</g>
</g>
<!-- Node4 -->
<g id="Node000004" class="node">
<title>Node4</title>
<g id="a_Node000004"><a xlink:href="nrf24__avr_8c.html#a42f8c1120431b7c37e116a4e1eac1cc2" target="_top" xlink:title=" ">
<polygon fill="white" stroke="#666666" points="159.12,-59.75 104.12,-59.75 104.12,-39 159.12,-39 159.12,-59.75"/>
<text xml:space="preserve" text-anchor="middle" x="131.62" y="-46.25" font-family="Helvetica,sans-Serif" font-size="10.00">csn_low</text>
</a>
</g>
</g>
<!-- Node1&#45;&gt;Node4 -->
<g id="edge3_Node000001_Node000004" class="edge">
<title>Node1&#45;&gt;Node4</title>
<g id="a_edge3_Node000001_Node000004"><a xlink:title=" ">
<path fill="none" stroke="#63b8ff" d="M59.1,-49.38C69.58,-49.38 81.59,-49.38 92.75,-49.38"/>
<polygon fill="#63b8ff" stroke="#63b8ff" points="92.44,-52.88 102.44,-49.38 92.44,-45.88 92.44,-52.88"/>
</a>
</g>
</g>
<!-- Node5 -->
<g id="Node000005" class="node">
<title>Node5</title>
<g id="a_Node000005"><a xlink:href="nrf24__avr_8c.html#a8d161d483c095113df5b69798e9cd725" target="_top" xlink:title=" ">
<polygon fill="white" stroke="#666666" points="168.5,-20.75 94.75,-20.75 94.75,0 168.5,0 168.5,-20.75"/>
<text xml:space="preserve" text-anchor="middle" x="131.62" y="-7.25" font-family="Helvetica,sans-Serif" font-size="10.00">spi_transfer</text>
</a>
</g>
</g>
<!-- Node1&#45;&gt;Node5 -->
<g id="edge5_Node000001_Node000005" class="edge">
<title>Node1&#45;&gt;Node5</title>
<g id="a_edge5_Node000001_Node000005"><a xlink:title=" ">
<path fill="none" stroke="#63b8ff" d="M58.3,-38.51C68.84,-34.41 81.01,-29.67 92.34,-25.27"/>
<polygon fill="#63b8ff" stroke="#63b8ff" points="93.39,-28.62 101.44,-21.73 90.85,-22.09 93.39,-28.62"/>
</a>
</g>
</g>
<!-- Node3 -->
<g id="Node000003" class="node">
<title>Node3</title>
<g id="a_Node000003"><a xlink:href="nrf24__avr_8c.html#a019970fc17b6b18fa4e45e0baf22c93f" target="_top" xlink:title=" ">
<polygon fill="white" stroke="#666666" points="288.75,-78.75 204.5,-78.75 204.5,-58 288.75,-58 288.75,-78.75"/>
<text xml:space="preserve" text-anchor="middle" x="246.62" y="-65.25" font-family="Helvetica,sans-Serif" font-size="10.00">digitalWrite_d</text>
</a>
</g>
</g>
<!-- Node2&#45;&gt;Node3 -->
<g id="edge2_Node000002_Node000003" class="edge">
<title>Node2&#45;&gt;Node3</title>
<g id="a_edge2_Node000002_Node000003"><a xlink:title=" ">
<path fill="none" stroke="#63b8ff" d="M161.43,-83.28C171.04,-81.58 182.07,-79.62 192.91,-77.7"/>
<polygon fill="#63b8ff" stroke="#63b8ff" points="193.35,-81.18 202.59,-75.99 192.13,-74.29 193.35,-81.18"/>
</a>
</g>
</g>
<!-- Node4&#45;&gt;Node3 -->
<g id="edge4_Node000004_Node000003" class="edge">
<title>Node4&#45;&gt;Node3</title>
<g id="a_edge4_Node000004_Node000003"><a xlink:title=" ">
<path fill="none" stroke="#63b8ff" d="M159.4,-53.88C169.49,-55.57 181.35,-57.57 192.99,-59.52"/>
<polygon fill="#63b8ff" stroke="#63b8ff" points="192.08,-62.92 202.52,-61.13 193.24,-56.02 192.08,-62.92"/>
</a>
</g>
</g>
</g>
</svg>
