<?xml version="1.0" encoding="UTF-8" standalone="no"?>
<!DOCTYPE svg PUBLIC "-//W3C//DTD SVG 1.1//EN"
 "http://www.w3.org/Graphics/SVG/1.1/DTD/svg11.dtd">
<!-- Generated by graphviz version 14.0.4 (0)
 -->
<!-- Title: ce_low Pages: 1 -->
<svg width="313pt" height="116pt"
 viewBox="0.00 0.00 313.00 116.00" xmlns="http://www.w3.org/2000/svg" xmlns:xlink="http://www.w3.org/1999/xlink">
<g id="graph0" class="graph" transform="scale(1 1) rotate(0) translate(4 111.75)">
<title>ce_low</title>
<!-- Node1 -->
<g id="Node000001" class="node">
<title>Node1</title>
<g id="a_Node000001"><a xlink:title=" ">
<polygon fill="#999999" stroke="#666666" points="305.25,-39.75 255.5,-39.75 255.5,-19 305.25,-19 305.25,-39.75"/>
<text xml:space="preserve" text-anchor="middle" x="280.38" y="-26.25" font-family="Helvetica,sans-Serif" font-size="10.00">ce_low</text>
</a>
</g>
</g>
<!-- Node2 -->
<g id="Node000002" class="node">
<title>Node2</title>
<g id="a_Node000002"><a xlink:href="nrf24__avr_8c.html#ab6fb4c1aa834152310116e7dec65d8e3" target="_top" xlink:title=" ">
<polygon fill="white" stroke="#666666" points="200.38,-78.75 126.62,-78.75 126.62,-58 200.38,-58 200.38,-78.75"/>
<text xml:space="preserve" text-anchor="middle" x="163.5" y="-65.25" font-family="Helvetica,sans-Serif" font-size="10.00">nrf24_begin</text>
</a>
</g>
</g>
<!-- Node1&#45;&gt;Node2 -->
<g id="edge1_Node000001_Node000002" class="edge">
<title>Node1&#45;&gt;Node2</title>
<g id="a_edge1_Node000001_Node000002"><a xlink:title=" ">
<path fill="none" stroke="#63b8ff" d="M244.38,-41.26C229.05,-46.46 211.19,-52.52 196.25,-57.6"/>
<polygon fill="#63b8ff" stroke="#63b8ff" points="245.24,-44.66 253.58,-38.13 242.99,-38.03 245.24,-44.66"/>
</a>
</g>
</g>
<!-- Node5 -->
<g id="Node000005" class="node">
<title>Node5</title>
<g id="a_Node000005"><a xlink:href="nrf24__avr_8c.html#a33899bc3c0f4d2293f37c306d0b8e297" target="_top" xlink:title=" ">
<polygon fill="white" stroke="#666666" points="219.5,-39.75 107.5,-39.75 107.5,-19 219.5,-19 219.5,-39.75"/>
<text xml:space="preserve" text-anchor="middle" x="163.5" y="-26.25" font-family="Helvetica,sans-Serif" font-size="10.00">nrf24_stopListening</text>
</a>
</g>
</g>
<!-- Node1&#45;&gt;Node5 -->
<g id="edge4_Node000001_Node000005" class="edge">
<title>Node1&#45;&gt;Node5</title>
<g id="a_edge4_Node000001_Node000005"><a xlink:title=" ">
<path fill="none" stroke="#63b8ff" d="M243.6,-29.38C235.96,-29.38 227.72,-29.38 219.55,-29.38"/>
<polygon fill="#63b8ff" stroke="#63b8ff" points="243.5,-32.88 253.5,-29.38 243.5,-25.88 243.5,-32.88"/>
</a>
</g>
</g>
<!-- Node6 -->
<g id="Node000006" class="node">
<title>Node6</title>
<g id="a_Node000006"><a xlink:href="nrf24__avr_8c.html#a8232e1982aabc6f52408c318402cb578" target="_top" xlink:title=" ">
<polygon fill="white" stroke="#666666" points="71.5,-20.75 0,-20.75 0,0 71.5,0 71.5,-20.75"/>
<text xml:space="preserve" text-anchor="middle" x="35.75" y="-7.25" font-family="Helvetica,sans-Serif" font-size="10.00">nrf24_write</text>
</a>
</g>
</g>
<!-- Node1&#45;&gt;Node6 -->
<g id="edge6_Node000001_Node000006" class="edge">
<title>Node1&#45;&gt;Node6</title>
<g id="a_edge6_Node000001_Node000006"><a xlink:title=" ">
<path fill="none" stroke="#63b8ff" d="M244.17,-16.23C236.17,-13.8 227.63,-11.63 219.5,-10.38 168.55,-2.48 108.65,-4.61 71.69,-7.22"/>
<polygon fill="#63b8ff" stroke="#63b8ff" points="242.99,-19.53 253.58,-19.31 245.16,-12.87 242.99,-19.53"/>
</a>
</g>
</g>
<!-- Node3 -->
<g id="Node000003" class="node">
<title>Node3</title>
<g id="a_Node000003"><a xlink:href="carrinho_8c.html#ae66f6b31b5ad750f1fe042a706a4e3d4" target="_top" xlink:title=" ">
<polygon fill="white" stroke="#666666" points="56.12,-107.75 15.38,-107.75 15.38,-87 56.12,-87 56.12,-107.75"/>
<text xml:space="preserve" text-anchor="middle" x="35.75" y="-94.25" font-family="Helvetica,sans-Serif" font-size="10.00">main</text>
</a>
</g>
</g>
<!-- Node2&#45;&gt;Node3 -->
<g id="edge2_Node000002_Node000003" class="edge">
<title>Node2&#45;&gt;Node3</title>
<g id="a_edge2_Node000002_Node000003"><a xlink:title=" ">
<path fill="none" stroke="#63b8ff" d="M115.09,-79.31C94.7,-84.01 71.99,-89.25 56.29,-92.87"/>
<polygon fill="#63b8ff" stroke="#63b8ff" points="115.7,-82.76 124.65,-77.1 114.12,-75.94 115.7,-82.76"/>
</a>
</g>
</g>
<!-- Node4 -->
<g id="Node000004" class="node">
<title>Node4</title>
<g id="a_Node000004"><a xlink:href="main_8c.html#a840291bc02cba5474a4cb46a9b9566fe" target="_top" xlink:title=" ">
<polygon fill="white" stroke="#666666" points="56.12,-68.75 15.38,-68.75 15.38,-48 56.12,-48 56.12,-68.75"/>
<text xml:space="preserve" text-anchor="middle" x="35.75" y="-55.25" font-family="Helvetica,sans-Serif" font-size="10.00">main</text>
</a>
</g>
</g>
<!-- Node2&#45;&gt;Node4 -->
<g id="edge3_Node000002_Node000004" class="edge">
<title>Node2&#45;&gt;Node4</title>
<g id="a_edge3_Node000002_Node000004"><a xlink:title=" ">
<path fill="none" stroke="#63b8ff" d="M114.81,-64.58C94.49,-62.97 71.92,-61.17 56.29,-59.93"/>
<polygon fill="#63b8ff" stroke="#63b8ff" points="114.37,-68.06 124.62,-65.36 114.93,-61.08 114.37,-68.06"/>
</a>
</g>
</g>
<!-- Node5&#45;&gt;Node6 -->
<g id="edge5_Node000005_Node000006" class="edge">
<title>Node5&#45;&gt;Node6</title>
<g id="a_edge5_Node000005_Node000006"><a xlink:title=" ">
<path fill="none" stroke="#63b8ff" d="M96.03,-19.33C87.73,-18.08 79.51,-16.84 71.96,-15.69"/>
<polygon fill="#63b8ff" stroke="#63b8ff" points="95.44,-22.78 105.85,-20.82 96.48,-15.86 95.44,-22.78"/>
</a>
</g>
</g>
</g>
</svg>
