<?xml version="1.0" encoding="UTF-8" standalone="no"?>
<!DOCTYPE svg PUBLIC "-//W3C//DTD SVG 1.1//EN"
 "http://www.w3.org/Graphics/SVG/1.1/DTD/svg11.dtd">
<!-- Generated by graphviz version 14.0.4 (0)
 -->
<!-- Title: write_reg Pages: 1 -->
<svg width="477pt" height="335pt"
 viewBox="0.00 0.00 477.00 335.00" xmlns="http://www.w3.org/2000/svg" xmlns:xlink="http://www.w3.org/1999/xlink">

<svg id="main" version="1.1" xmlns="http://www.w3.org/2000/svg" xmlns:xlink="http://www.w3.org/1999/xlink" xml:space="preserve">

<style type="text/css"><![CDATA[
.node, .edge {opacity: 0.7;}
.node.selected, .edge.selected {opacity: 1;}
.edge:hover path { stroke: red; }
.edge:hover polygon { stroke: red; fill: red; }
]]></style>
<script type="application/ecmascript" xlink:href="svg.min.js"/>
<svg id="graph" class="graph">
<g id="graph0" class="graph" transform="scale(1 1) rotate(0) translate(4 331.1)">
<title>write_reg</title>
<!-- Node1 -->
<g id="Node000001" class="node">
<title>Node1</title>
<g id="a_Node000001"><a xlink:title=" ">
<polygon fill="#999999" stroke="#666666" points="469,-172.75 407.25,-172.75 407.25,-152 469,-152 469,-172.75"/>
<text xml:space="preserve" text-anchor="middle" x="438.12" y="-159.25" font-family="Helvetica,sans-Serif" font-size="10.00">write_reg</text>
</a>
</g>
</g>
<!-- Node2 -->
<g id="Node000002" class="node">
<title>Node2</title>
<g id="a_Node000002"><a xlink:href="nrf24__avr_8c.html#ab6fb4c1aa834152310116e7dec65d8e3" target="_top" xlink:title=" ">
<polygon fill="white" stroke="#666666" points="179.38,-248.75 105.62,-248.75 105.62,-228 179.38,-228 179.38,-248.75"/>
<text xml:space="preserve" text-anchor="middle" x="142.5" y="-235.25" font-family="Helvetica,sans-Serif" font-size="10.00">nrf24_begin</text>
</a>
</g>
</g>
<!-- Node1&#45;&gt;Node2 -->
<g id="edge1_Node000001_Node000002" class="edge">
<title>Node1&#45;&gt;Node2</title>
<g id="a_edge1_Node000001_Node000002"><a xlink:title=" ">
<path fill="none" stroke="#63b8ff" d="M421.18,-181.44C408.99,-194.57 390.96,-211.08 371.25,-219.38 307.98,-246 226.21,-245.31 179.85,-242.07"/>
<polygon fill="#63b8ff" stroke="#63b8ff" points="423.62,-183.97 427.64,-174.16 418.38,-179.32 423.62,-183.97"/>
</a>
</g>
</g>
<!-- Node5 -->
<g id="Node000005" class="node">
<title>Node5</title>
<g id="a_Node000005"><a xlink:href="nrf24__avr_8c.html#a5af2f11537aed8a56d8489355af0ff16" target="_top" xlink:title=" ">
<polygon fill="white" stroke="#666666" points="208.25,-172.75 76.75,-172.75 76.75,-152 208.25,-152 208.25,-172.75"/>
<text xml:space="preserve" text-anchor="middle" x="142.5" y="-159.25" font-family="Helvetica,sans-Serif" font-size="10.00">nrf24_openReadingPipe</text>
</a>
</g>
</g>
<!-- Node1&#45;&gt;Node5 -->
<g id="edge4_Node000001_Node000005" class="edge">
<title>Node1&#45;&gt;Node5</title>
<g id="a_edge4_Node000001_Node000005"><a xlink:title=" ">
<path fill="none" stroke="#63b8ff" d="M395.45,-162.38C346.73,-162.38 265.51,-162.38 208.48,-162.38"/>
<polygon fill="#63b8ff" stroke="#63b8ff" points="395.29,-165.88 405.29,-162.38 395.29,-158.88 395.29,-165.88"/>
</a>
</g>
</g>
<!-- Node6 -->
<g id="Node000006" class="node">
<title>Node6</title>
<g id="a_Node000006"><a xlink:href="nrf24__avr_8c.html#a21d638882f746748de35324bdc21f448" target="_top" xlink:title=" ">
<polygon fill="white" stroke="#666666" points="371.25,-96.75 244.25,-96.75 244.25,-76 371.25,-76 371.25,-96.75"/>
<text xml:space="preserve" text-anchor="middle" x="307.75" y="-83.25" font-family="Helvetica,sans-Serif" font-size="10.00">nrf24_openWritingPipe</text>
</a>
</g>
</g>
<!-- Node1&#45;&gt;Node6 -->
<g id="edge7_Node000001_Node000006" class="edge">
<title>Node1&#45;&gt;Node6</title>
<g id="a_edge7_Node000001_Node000006"><a xlink:title=" ">
<path fill="none" stroke="#63b8ff" d="M417.49,-144.28C404.95,-133.41 387.96,-119.89 371.25,-110.38 362.26,-105.26 351.97,-100.8 342.36,-97.16"/>
<polygon fill="#63b8ff" stroke="#63b8ff" points="414.83,-146.6 424.63,-150.63 419.48,-141.37 414.83,-146.6"/>
</a>
</g>
</g>
<!-- Node7 -->
<g id="Node000007" class="node">
<title>Node7</title>
<g id="a_Node000007"><a xlink:href="nrf24__avr_8c.html#aa0767db791fc0b45ebadab011c1900bf" target="_top" xlink:title=" ">
<polygon fill="white" stroke="#666666" points="342,-210.75 273.5,-210.75 273.5,-190 342,-190 342,-210.75"/>
<text xml:space="preserve" text-anchor="middle" x="307.75" y="-197.25" font-family="Helvetica,sans-Serif" font-size="10.00">nrf24_read</text>
</a>
</g>
</g>
<!-- Node1&#45;&gt;Node7 -->
<g id="edge8_Node000001_Node000007" class="edge">
<title>Node1&#45;&gt;Node7</title>
<g id="a_edge8_Node000001_Node000007"><a xlink:title=" ">
<path fill="none" stroke="#63b8ff" d="M396.06,-174.53C378.69,-179.67 358.73,-185.58 342.27,-190.45"/>
<polygon fill="#63b8ff" stroke="#63b8ff" points="396.98,-177.91 405.58,-171.71 394.99,-171.2 396.98,-177.91"/>
</a>
</g>
</g>
<!-- Node9 -->
<g id="Node000009" class="node">
<title>Node9</title>
<g id="a_Node000009"><a xlink:href="nrf24__avr_8c.html#a49aa88b1042d6d62114cfbca271d9e2b" target="_top" xlink:title=" ">
<polygon fill="white" stroke="#666666" points="193.25,-324.75 91.75,-324.75 91.75,-304 193.25,-304 193.25,-324.75"/>
<text xml:space="preserve" text-anchor="middle" x="142.5" y="-311.25" font-family="Helvetica,sans-Serif" font-size="10.00">nrf24_setChannel</text>
</a>
</g>
</g>
<!-- Node1&#45;&gt;Node9 -->
<g id="edge12_Node000001_Node000009" class="edge">
<title>Node1&#45;&gt;Node9</title>
<g id="a_edge12_Node000001_Node000009"><a xlink:title=" ">
<path fill="none" stroke="#63b8ff" d="M433.22,-184.04C426.46,-214.57 409.46,-269.4 371.25,-295.38 318.75,-331.07 242.91,-329.57 193.41,-323.42"/>
<polygon fill="#63b8ff" stroke="#63b8ff" points="436.61,-184.93 435.16,-174.43 429.75,-183.54 436.61,-184.93"/>
</a>
</g>
</g>
<!-- Node10 -->
<g id="Node000010" class="node">
<title>Node10</title>
<g id="a_Node000010"><a xlink:href="nrf24__avr_8c.html#aaf2900e7932ebbf7f0ecdc6bce5840e1" target="_top" xlink:title=" ">
<polygon fill="white" stroke="#666666" points="368.25,-286.75 247.25,-286.75 247.25,-266 368.25,-266 368.25,-286.75"/>
<text xml:space="preserve" text-anchor="middle" x="307.75" y="-273.25" font-family="Helvetica,sans-Serif" font-size="10.00">nrf24_setPayloadSize</text>
</a>
</g>
</g>
<!-- Node1&#45;&gt;Node10 -->
<g id="edge15_Node000001_Node000010" class="edge">
<title>Node1&#45;&gt;Node10</title>
<g id="a_edge15_Node000001_Node000010"><a xlink:title=" ">
<path fill="none" stroke="#63b8ff" d="M426.55,-183.11C415.31,-203.31 395.78,-233.62 371.25,-252.38 364.14,-257.81 355.65,-262.15 347.26,-265.56"/>
<polygon fill="#63b8ff" stroke="#63b8ff" points="429.58,-184.88 431.21,-174.41 423.41,-181.58 429.58,-184.88"/>
</a>
</g>
</g>
<!-- Node11 -->
<g id="Node000011" class="node">
<title>Node11</title>
<g id="a_Node000011"><a xlink:href="nrf24__avr_8c.html#a71c5628e9583f6a6fd0871b3ae1bf6df" target="_top" xlink:title=" ">
<polygon fill="white" stroke="#666666" points="199.25,-94.75 85.75,-94.75 85.75,-74 199.25,-74 199.25,-94.75"/>
<text xml:space="preserve" text-anchor="middle" x="142.5" y="-81.25" font-family="Helvetica,sans-Serif" font-size="10.00">nrf24_startListening</text>
</a>
</g>
</g>
<!-- Node1&#45;&gt;Node11 -->
<g id="edge18_Node000001_Node000011" class="edge">
<title>Node1&#45;&gt;Node11</title>
<g id="a_edge18_Node000001_Node000011"><a xlink:title=" ">
<path fill="none" stroke="#63b8ff" d="M395.87,-151.42C339.84,-136.53 240.25,-110.08 184.4,-95.24"/>
<polygon fill="#63b8ff" stroke="#63b8ff" points="394.78,-154.75 405.35,-153.93 396.58,-147.98 394.78,-154.75"/>
</a>
</g>
</g>
<!-- Node12 -->
<g id="Node000012" class="node">
<title>Node12</title>
<g id="a_Node000012"><a xlink:href="nrf24__avr_8c.html#a33899bc3c0f4d2293f37c306d0b8e297" target="_top" xlink:title=" ">
<polygon fill="white" stroke="#666666" points="363.75,-20.75 251.75,-20.75 251.75,0 363.75,0 363.75,-20.75"/>
<text xml:space="preserve" text-anchor="middle" x="307.75" y="-7.25" font-family="Helvetica,sans-Serif" font-size="10.00">nrf24_stopListening</text>
</a>
</g>
</g>
<!-- Node1&#45;&gt;Node12 -->
<g id="edge21_Node000001_Node000012" class="edge">
<title>Node1&#45;&gt;Node12</title>
<g id="a_edge21_Node000001_Node000012"><a xlink:title=" ">
<path fill="none" stroke="#63b8ff" d="M431.31,-140.85C422.66,-112.72 403.83,-63.59 371.25,-34.38 365.11,-28.87 357.56,-24.57 349.87,-21.23"/>
<polygon fill="#63b8ff" stroke="#63b8ff" points="427.92,-141.75 434.07,-150.38 434.64,-139.8 427.92,-141.75"/>
</a>
</g>
</g>
<!-- Node13 -->
<g id="Node000013" class="node">
<title>Node13</title>
<g id="a_Node000013"><a xlink:href="nrf24__avr_8c.html#a8232e1982aabc6f52408c318402cb578" target="_top" xlink:title=" ">
<polygon fill="white" stroke="#666666" points="178.25,-38.75 106.75,-38.75 106.75,-18 178.25,-18 178.25,-38.75"/>
<text xml:space="preserve" text-anchor="middle" x="142.5" y="-25.25" font-family="Helvetica,sans-Serif" font-size="10.00">nrf24_write</text>
</a>
</g>
</g>
<!-- Node1&#45;&gt;Node13 -->
<g id="edge23_Node000001_Node000013" class="edge">
<title>Node1&#45;&gt;Node13</title>
<g id="a_edge23_Node000001_Node000013"><a xlink:title=" ">
<path fill="none" stroke="#63b8ff" d="M428.54,-141.38C418.32,-119.22 399.07,-85.09 371.25,-67.38 339.87,-47.39 234.38,-35.89 178.66,-31.07"/>
<polygon fill="#63b8ff" stroke="#63b8ff" points="425.24,-142.57 432.45,-150.34 431.66,-139.77 425.24,-142.57"/>
</a>
</g>
</g>
<!-- Node3 -->
<g id="Node000003" class="node">
<title>Node3</title>
<g id="a_Node000003"><a xlink:href="carrinho_8c.html#ae66f6b31b5ad750f1fe042a706a4e3d4" target="_top" xlink:title=" ">
<polygon fill="white" stroke="#666666" points="40.75,-172.75 0,-172.75 0,-152 40.75,-152 40.75,-172.75"/>
<text xml:space="preserve" text-anchor="middle" x="20.38" y="-159.25" font-family="Helvetica,sans-Serif" font-size="10.00">main</text>
</a>
</g>
</g>
<!-- Node2&#45;&gt;Node3 -->
<g id="edge2_Node000002_Node000003" class="edge">
<title>Node2&#45;&gt;Node3</title>
<g id="a_edge2_Node000002_Node000003"><a xlink:title=" ">
<path fill="none" stroke="#63b8ff" d="M114.89,-221.54C91.49,-206.73 58.15,-185.64 38.24,-173.05"/>
<polygon fill="#63b8ff" stroke="#63b8ff" points="112.94,-224.45 123.26,-226.84 116.69,-218.53 112.94,-224.45"/>
</a>
</g>
</g>
<!-- Node4 -->
<g id="Node000004" class="node">
<title>Node4</title>
<g id="a_Node000004"><a xlink:href="main_8c.html#a840291bc02cba5474a4cb46a9b9566fe" target="_top" xlink:title=" ">
<polygon fill="white" stroke="#666666" points="40.75,-229.75 0,-229.75 0,-209 40.75,-209 40.75,-229.75"/>
<text xml:space="preserve" text-anchor="middle" x="20.38" y="-216.25" font-family="Helvetica,sans-Serif" font-size="10.00">main</text>
</a>
</g>
</g>
<!-- Node2&#45;&gt;Node4 -->
<g id="edge3_Node000002_Node000004" class="edge">
<title>Node2&#45;&gt;Node4</title>
<g id="a_edge3_Node000002_Node000004"><a xlink:title=" ">
<path fill="none" stroke="#63b8ff" d="M93.97,-230.86C75.59,-227.95 55.57,-224.78 41.22,-222.51"/>
<polygon fill="#63b8ff" stroke="#63b8ff" points="93.21,-234.28 103.64,-232.39 94.31,-227.37 93.21,-234.28"/>
</a>
</g>
</g>
<!-- Node5&#45;&gt;Node3 -->
<g id="edge5_Node000005_Node000003" class="edge">
<title>Node5&#45;&gt;Node3</title>
<g id="a_edge5_Node000005_Node000003"><a xlink:title=" ">
<path fill="none" stroke="#63b8ff" d="M65.14,-162.38C56.32,-162.38 48.01,-162.38 41.05,-162.38"/>
<polygon fill="#63b8ff" stroke="#63b8ff" points="65,-165.88 75,-162.38 65,-158.88 65,-165.88"/>
</a>
</g>
</g>
<!-- Node5&#45;&gt;Node4 -->
<g id="edge6_Node000005_Node000004" class="edge">
<title>Node5&#45;&gt;Node4</title>
<g id="a_edge6_Node000005_Node000004"><a xlink:title=" ">
<path fill="none" stroke="#63b8ff" d="M98,-177.25C90.81,-180.06 83.5,-183.15 76.75,-186.38 63.02,-192.94 48.25,-201.85 37.42,-208.75"/>
<polygon fill="#63b8ff" stroke="#63b8ff" points="99.2,-180.54 107.33,-173.74 96.73,-173.99 99.2,-180.54"/>
</a>
</g>
</g>
<!-- Node7&#45;&gt;Node4 -->
<g id="edge11_Node000007_Node000004" class="edge">
<title>Node7&#45;&gt;Node4</title>
<g id="a_edge11_Node000007_Node000004"><a xlink:title=" ">
<path fill="none" stroke="#63b8ff" d="M262,-203.35C198.97,-207.55 86.64,-215.03 41.24,-218.05"/>
<polygon fill="#63b8ff" stroke="#63b8ff" points="261.92,-206.87 271.66,-202.71 261.45,-199.88 261.92,-206.87"/>
</a>
</g>
</g>
<!-- Node8 -->
<g id="Node000008" class="node">
<title>Node8</title>
<g id="a_Node000008"><a xlink:href="carrinho_8c.html#afe461d27b9c48d5921c00d521181f12f" target="_top" xlink:title=" ">
<polygon fill="white" stroke="#666666" points="161,-133.75 124,-133.75 124,-113 161,-113 161,-133.75"/>
<text xml:space="preserve" text-anchor="middle" x="142.5" y="-120.25" font-family="Helvetica,sans-Serif" font-size="10.00">loop</text>
</a>
</g>
</g>
<!-- Node7&#45;&gt;Node8 -->
<g id="edge9_Node000007_Node000008" class="edge">
<title>Node7&#45;&gt;Node8</title>
<g id="a_edge9_Node000007_Node000008"><a xlink:title=" ">
<path fill="none" stroke="#63b8ff" d="M281.01,-183.32C261.61,-171.01 234.03,-154.64 208.25,-143.38 192.94,-136.68 174.69,-131.26 161.48,-127.76"/>
<polygon fill="#63b8ff" stroke="#63b8ff" points="279.04,-186.22 289.34,-188.69 282.83,-180.33 279.04,-186.22"/>
</a>
</g>
</g>
<!-- Node8&#45;&gt;Node3 -->
<g id="edge10_Node000008_Node000003" class="edge">
<title>Node8&#45;&gt;Node3</title>
<g id="a_edge10_Node000008_Node000003"><a xlink:title=" ">
<path fill="none" stroke="#63b8ff" d="M112.64,-132.08C101.41,-135.52 88.46,-139.56 76.75,-143.38 64.86,-147.25 51.62,-151.79 41.06,-155.46"/>
<polygon fill="#63b8ff" stroke="#63b8ff" points="113.59,-135.45 122.14,-129.19 111.55,-128.75 113.59,-135.45"/>
</a>
</g>
</g>
<!-- Node9&#45;&gt;Node3 -->
<g id="edge13_Node000009_Node000003" class="edge">
<title>Node9&#45;&gt;Node3</title>
<g id="a_edge13_Node000009_Node000003"><a xlink:title=" ">
<path fill="none" stroke="#63b8ff" d="M117.74,-296.57C104.7,-286.06 88.77,-271.99 76.75,-257.38 64.86,-242.93 38.72,-194.92 27.12,-173.2"/>
<polygon fill="#63b8ff" stroke="#63b8ff" points="115.42,-299.19 125.45,-302.61 119.74,-293.68 115.42,-299.19"/>
</a>
</g>
</g>
<!-- Node9&#45;&gt;Node4 -->
<g id="edge14_Node000009_Node000004" class="edge">
<title>Node9&#45;&gt;Node4</title>
<g id="a_edge14_Node000009_Node000004"><a xlink:title=" ">
<path fill="none" stroke="#63b8ff" d="M91.56,-299.15C86.34,-296.61 81.29,-293.7 76.75,-290.38 54.04,-273.76 35.89,-245.41 27.11,-230.04"/>
<polygon fill="#63b8ff" stroke="#63b8ff" points="89.77,-302.18 100.34,-302.97 92.57,-295.77 89.77,-302.18"/>
</a>
</g>
</g>
<!-- Node10&#45;&gt;Node2 -->
<g id="edge17_Node000010_Node000002" class="edge">
<title>Node10&#45;&gt;Node2</title>
<g id="a_edge17_Node000010_Node000002"><a xlink:title=" ">
<path fill="none" stroke="#63b8ff" d="M249.33,-263.01C226.22,-257.63 200.26,-251.59 179.84,-246.83"/>
<polygon fill="#63b8ff" stroke="#63b8ff" points="248.4,-266.39 258.93,-265.24 249.99,-259.57 248.4,-266.39"/>
</a>
</g>
</g>
<!-- Node10&#45;&gt;Node4 -->
<g id="edge16_Node000010_Node000004" class="edge">
<title>Node10&#45;&gt;Node4</title>
<g id="a_edge16_Node000010_Node000004"><a xlink:title=" ">
<path fill="none" stroke="#63b8ff" d="M235.38,-279.81C188.93,-279.81 127.73,-275.52 76.75,-257.38 60.05,-251.43 43.66,-239.15 33.1,-230.15"/>
<polygon fill="#63b8ff" stroke="#63b8ff" points="235.37,-283.31 245.35,-279.73 235.32,-276.31 235.37,-283.31"/>
</a>
</g>
</g>
<!-- Node11&#45;&gt;Node3 -->
<g id="edge19_Node000011_Node000003" class="edge">
<title>Node11&#45;&gt;Node3</title>
<g id="a_edge19_Node000011_Node000003"><a xlink:title=" ">
<path fill="none" stroke="#63b8ff" d="M85.46,-99.64C82.44,-101.09 79.52,-102.66 76.75,-104.38 56.39,-116.97 38.39,-138.83 28.77,-151.81"/>
<polygon fill="#63b8ff" stroke="#63b8ff" points="86.73,-102.9 94.58,-95.78 84,-96.45 86.73,-102.9"/>
</a>
</g>
</g>
<!-- Node11&#45;&gt;Node4 -->
<g id="edge20_Node000011_Node000004" class="edge">
<title>Node11&#45;&gt;Node4</title>
<g id="a_edge20_Node000011_Node000004"><a xlink:title=" ">
<path fill="none" stroke="#63b8ff" d="M81.37,-100.79C79.76,-101.91 78.21,-103.1 76.75,-104.38 48.26,-129.19 57.33,-147.43 40.75,-181.38 36.2,-190.69 30.83,-201.18 26.9,-208.78"/>
<polygon fill="#63b8ff" stroke="#63b8ff" points="82.91,-103.94 89.85,-95.94 79.43,-97.87 82.91,-103.94"/>
</a>
</g>
</g>
<!-- Node12&#45;&gt;Node13 -->
<g id="edge22_Node000012_Node000013" class="edge">
<title>Node12&#45;&gt;Node13</title>
<g id="a_edge22_Node000012_Node000013"><a xlink:title=" ">
<path fill="none" stroke="#63b8ff" d="M240.29,-17.7C219.21,-20.03 196.73,-22.51 178.75,-24.49"/>
<polygon fill="#63b8ff" stroke="#63b8ff" points="240.42,-21.21 249.98,-16.63 239.65,-14.25 240.42,-21.21"/>
</a>
</g>
</g>
</g>
</svg>
</svg>

<style type='text/css'>
<![CDATA[
[data-mouse-over-selected='false'] { opacity: 0.7; }
[data-mouse-over-selected='true']  { opacity: 1.0; }
]]>
</style>
<script type="application/ecmascript"><![CDATA[
document.addEventListener('DOMContentLoaded', (event) => {
  highlightEdges();
  highlightAdjacentNodes();
});
]]></script>
</svg>
