<?xml version="1.0" encoding="UTF-8" standalone="no"?>
<!DOCTYPE svg PUBLIC "-//W3C//DTD SVG 1.1//EN"
 "http://www.w3.org/Graphics/SVG/1.1/DTD/svg11.dtd">
<!-- Generated by graphviz version 14.0.4 (0)
 -->
<!-- Title: digitalWrite_d Pages: 1 -->
<!--zoomable 586 -->

<svg id="main" version="1.1" xmlns="http://www.w3.org/2000/svg" xmlns:xlink="http://www.w3.org/1999/xlink" xml:space="preserve" onload="init(evt)">

<style type="text/css"><![CDATA[
.node, .edge {opacity: 0.7;}
.node.selected, .edge.selected {opacity: 1;}
.edge:hover path { stroke: red; }
.edge:hover polygon { stroke: red; fill: red; }
]]></style>

<defs>
  <circle id="rim" cx="0" cy="0" r="7"/>
  <circle id="rim2" cx="0" cy="0" r="3.5"/>
  <g id="zoomPlus">
    <use xlink:href="#rim" fill="#404040"><set attributeName="fill" to="#808080" begin="zoomplus.mouseover" end="zoomplus.mouseout"/></use>
    <path d="M-4,0h8M0,-4v8" fill="none" stroke="white" stroke-width="1.5" pointer-events="none"/>
  </g>
  <g id="zoomMin">
    <use xlink:href="#rim" fill="#404040"><set attributeName="fill" to="#808080" begin="zoomminus.mouseover" end="zoomminus.mouseout"/></use>
    <path d="M-4,0h8" fill="none" stroke="white" stroke-width="1.5" pointer-events="none"/>
  </g>
  <g id="arrowUp" transform="translate(30 24)">
    <use xlink:href="#rim"/>
    <path pointer-events="none" fill="none" stroke="white" stroke-width="1.5" d="M0,-3.0v7 M-2.5,-0.5L0,-3.0L2.5,-0.5"/>
  </g>
  <g id="arrowRight" transform="rotate(90) translate(36 -43)">
    <use xlink:href="#rim"/>
    <path pointer-events="none" fill="none" stroke="white" stroke-width="1.5" d="M0,-3.0v7 M-2.5,-0.5L0,-3.0L2.5,-0.5"/>
  </g>
  <g id="arrowDown" transform="rotate(180) translate(-30 -48)">
    <use xlink:href="#rim"/>
    <path pointer-events="none" fill="none" stroke="white" stroke-width="1.5" d="M0,-3.0v7 M-2.5,-0.5L0,-3.0L2.5,-0.5"/>
  </g>
  <g id="arrowLeft" transform="rotate(270) translate(-36 17)">
    <use xlink:href="#rim"/>
    <path pointer-events="none" fill="none" stroke="white" stroke-width="1.5" d="M0,-3.0v7 M-2.5,-0.5L0,-3.0L2.5,-0.5"/>
  </g>
  <g id="resetDef">
    <use xlink:href="#rim2" fill="#404040"><set attributeName="fill" to="#808080" begin="reset.mouseover" end="reset.mouseout"/></use>
  </g>
</defs>
<script type="application/ecmascript">
var viewWidth = 724;
var viewHeight = 586;
var sectionId = 'dynsection-9';
</script>
<script type="application/ecmascript" xlink:href="svg.min.js"/>
<svg id="graph" class="graph">
<g id="viewport">
<title>digitalWrite_d</title>
<!-- Node1 -->
<g id="Node000001" class="node">
<title>Node1</title>
<g id="a_Node000001"><a xlink:title=" ">
<polygon fill="#999999" stroke="#666666" points="715.5,-353.5 631.25,-353.5 631.25,-332.75 715.5,-332.75 715.5,-353.5"/>
<text xml:space="preserve" text-anchor="middle" x="673.38" y="-340" font-family="Helvetica,sans-Serif" font-size="10.00">digitalWrite_d</text>
</a>
</g>
</g>
<!-- Node2 -->
<g id="Node000002" class="node">
<title>Node2</title>
<g id="a_Node000002"><a xlink:href="nrf24__avr_8c.html#a5336963072afb877d785bed84eb6b5f4" target="_top" xlink:title=" ">
<polygon fill="white" stroke="#666666" points="480.62,-529.5 427.12,-529.5 427.12,-508.75 480.62,-508.75 480.62,-529.5"/>
<text xml:space="preserve" text-anchor="middle" x="453.88" y="-516" font-family="Helvetica,sans-Serif" font-size="10.00">ce_high</text>
</a>
</g>
</g>
<!-- Node1&#45;&gt;Node2 -->
<g id="edge1_Node000001_Node000002" class="edge">
<title>Node1&#45;&gt;Node2</title>
<g id="a_edge1_Node000001_Node000002"><a xlink:title=" ">
<path fill="none" stroke="#63b8ff" d="M658.14,-362.82C643.59,-382.2 619.73,-412.02 595.25,-434.12 557.35,-468.35 545.14,-474.32 500.5,-499.12 494.3,-502.57 487.39,-505.86 480.86,-508.74"/>
<polygon fill="#63b8ff" stroke="#63b8ff" points="660.83,-365.08 663.95,-354.95 655.2,-360.92 660.83,-365.08"/>
</a>
</g>
</g>
<!-- Node7 -->
<g id="Node000007" class="node">
<title>Node7</title>
<g id="a_Node000007"><a xlink:href="nrf24__avr_8c.html#a77c5f7c57c01266d04faea3052a47f49" target="_top" xlink:title=" ">
<polygon fill="white" stroke="#666666" points="478.75,-490.5 429,-490.5 429,-469.75 478.75,-469.75 478.75,-490.5"/>
<text xml:space="preserve" text-anchor="middle" x="453.88" y="-477" font-family="Helvetica,sans-Serif" font-size="10.00">ce_low</text>
</a>
</g>
</g>
<!-- Node1&#45;&gt;Node7 -->
<g id="edge6_Node000001_Node000007" class="edge">
<title>Node1&#45;&gt;Node7</title>
<g id="a_edge6_Node000001_Node000007"><a xlink:title=" ">
<path fill="none" stroke="#63b8ff" d="M649.68,-360.58C617.6,-384.79 556.6,-429.08 500.5,-460.12 493.69,-463.89 486.03,-467.48 478.96,-470.55"/>
<polygon fill="#63b8ff" stroke="#63b8ff" points="651.63,-363.5 657.47,-354.66 647.39,-357.92 651.63,-363.5"/>
</a>
</g>
</g>
<!-- Node10 -->
<g id="Node000010" class="node">
<title>Node10</title>
<g id="a_Node000010"><a xlink:href="nrf24__avr_8c.html#adaef88bc02a8e805de3b3a82bf317549" target="_top" xlink:title=" ">
<polygon fill="white" stroke="#666666" points="595.25,-295.5 536.5,-295.5 536.5,-274.75 595.25,-274.75 595.25,-295.5"/>
<text xml:space="preserve" text-anchor="middle" x="565.88" y="-282" font-family="Helvetica,sans-Serif" font-size="10.00">csn_high</text>
</a>
</g>
</g>
<!-- Node1&#45;&gt;Node10 -->
<g id="edge13_Node000001_Node000010" class="edge">
<title>Node1&#45;&gt;Node10</title>
<g id="a_edge13_Node000001_Node000010"><a xlink:title=" ">
<path fill="none" stroke="#63b8ff" d="M643.01,-326.98C624.97,-317.06 602.34,-304.62 586.46,-295.89"/>
<polygon fill="#63b8ff" stroke="#63b8ff" points="641.25,-330.01 651.7,-331.76 644.62,-323.87 641.25,-330.01"/>
</a>
</g>
</g>
<!-- Node26 -->
<g id="Node000026" class="node">
<title>Node26</title>
<g id="a_Node000026"><a xlink:href="nrf24__avr_8c.html#a42f8c1120431b7c37e116a4e1eac1cc2" target="_top" xlink:title=" ">
<polygon fill="white" stroke="#666666" points="593.38,-334.5 538.38,-334.5 538.38,-313.75 593.38,-313.75 593.38,-334.5"/>
<text xml:space="preserve" text-anchor="middle" x="565.88" y="-321" font-family="Helvetica,sans-Serif" font-size="10.00">csn_low</text>
</a>
</g>
</g>
<!-- Node1&#45;&gt;Node26 -->
<g id="edge50_Node000001_Node000026" class="edge">
<title>Node1&#45;&gt;Node26</title>
<g id="a_edge50_Node000001_Node000026"><a xlink:title=" ">
<path fill="none" stroke="#63b8ff" d="M619.92,-333.68C610.78,-332.03 601.63,-330.38 593.56,-328.93"/>
<polygon fill="#63b8ff" stroke="#63b8ff" points="619.03,-337.07 629.49,-335.4 620.27,-330.18 619.03,-337.07"/>
</a>
</g>
</g>
<!-- Node3 -->
<g id="Node000003" class="node">
<title>Node3</title>
<g id="a_Node000003"><a xlink:href="nrf24__avr_8c.html#a71c5628e9583f6a6fd0871b3ae1bf6df" target="_top" xlink:title=" ">
<polygon fill="white" stroke="#666666" points="364.5,-350.5 251,-350.5 251,-329.75 364.5,-329.75 364.5,-350.5"/>
<text xml:space="preserve" text-anchor="middle" x="307.75" y="-337" font-family="Helvetica,sans-Serif" font-size="10.00">nrf24_startListening</text>
</a>
</g>
</g>
<!-- Node2&#45;&gt;Node3 -->
<g id="edge2_Node000002_Node000003" class="edge">
<title>Node2&#45;&gt;Node3</title>
<g id="a_edge2_Node000002_Node000003"><a xlink:title=" ">
<path fill="none" stroke="#63b8ff" d="M416.99,-507.35C413.35,-505.06 409.99,-502.34 407.25,-499.12 365.87,-450.54 415.09,-406.5 371.25,-360.12 367.73,-356.4 363.51,-353.36 358.96,-350.89"/>
<polygon fill="#63b8ff" stroke="#63b8ff" points="415.2,-510.37 425.7,-511.79 418.37,-504.13 415.2,-510.37"/>
</a>
</g>
</g>
<!-- Node6 -->
<g id="Node000006" class="node">
<title>Node6</title>
<g id="a_Node000006"><a xlink:href="nrf24__avr_8c.html#a8232e1982aabc6f52408c318402cb578" target="_top" xlink:title=" ">
<polygon fill="white" stroke="#666666" points="178.25,-503.5 106.75,-503.5 106.75,-482.75 178.25,-482.75 178.25,-503.5"/>
<text xml:space="preserve" text-anchor="middle" x="142.5" y="-490" font-family="Helvetica,sans-Serif" font-size="10.00">nrf24_write</text>
</a>
</g>
</g>
<!-- Node2&#45;&gt;Node6 -->
<g id="edge5_Node000002_Node000006" class="edge">
<title>Node2&#45;&gt;Node6</title>
<g id="a_edge5_Node000002_Node000006"><a xlink:title=" ">
<path fill="none" stroke="#63b8ff" d="M430.11,-536.6C414.48,-547.44 392.76,-560.37 371.25,-566.12 316.72,-580.7 297.94,-583.53 244.25,-566.12 206.03,-553.73 170.16,-520.81 153.41,-503.73"/>
<polygon fill="#63b8ff" stroke="#63b8ff" points="432.14,-539.44 438.2,-530.75 428.04,-533.77 432.14,-539.44"/>
</a>
</g>
</g>
<!-- Node4 -->
<g id="Node000004" class="node">
<title>Node4</title>
<g id="a_Node000004"><a xlink:href="carrinho_8c.html#ae66f6b31b5ad750f1fe042a706a4e3d4" target="_top" xlink:title=" ">
<polygon fill="white" stroke="#666666" points="40.75,-236.5 0,-236.5 0,-215.75 40.75,-215.75 40.75,-236.5"/>
<text xml:space="preserve" text-anchor="middle" x="20.38" y="-223" font-family="Helvetica,sans-Serif" font-size="10.00">main</text>
</a>
</g>
</g>
<!-- Node3&#45;&gt;Node4 -->
<g id="edge3_Node000003_Node000004" class="edge">
<title>Node3&#45;&gt;Node4</title>
<g id="a_edge3_Node000003_Node000004"><a xlink:title=" ">
<path fill="none" stroke="#63b8ff" d="M239.34,-348.56C190.56,-351.25 125.01,-347.51 76.75,-317.12 46.7,-298.2 30.58,-256.48 24.39,-236.79"/>
<polygon fill="#63b8ff" stroke="#63b8ff" points="239.48,-352.06 249.22,-347.9 239.01,-345.07 239.48,-352.06"/>
</a>
</g>
</g>
<!-- Node5 -->
<g id="Node000005" class="node">
<title>Node5</title>
<g id="a_Node000005"><a xlink:href="main_8c.html#a840291bc02cba5474a4cb46a9b9566fe" target="_top" xlink:title=" ">
<polygon fill="white" stroke="#666666" points="40.75,-160.5 0,-160.5 0,-139.75 40.75,-139.75 40.75,-160.5"/>
<text xml:space="preserve" text-anchor="middle" x="20.38" y="-147" font-family="Helvetica,sans-Serif" font-size="10.00">main</text>
</a>
</g>
</g>
<!-- Node3&#45;&gt;Node5 -->
<g id="edge4_Node000003_Node000005" class="edge">
<title>Node3&#45;&gt;Node5</title>
<g id="a_edge4_Node000003_Node000005"><a xlink:title=" ">
<path fill="none" stroke="#63b8ff" d="M250.28,-326.7C182.73,-310.6 78.44,-285.57 76.75,-284.12 66.72,-275.52 35.88,-190.86 25.12,-160.71"/>
<polygon fill="#63b8ff" stroke="#63b8ff" points="249.19,-330.04 259.73,-328.95 250.81,-323.23 249.19,-330.04"/>
</a>
</g>
</g>
<!-- Node7&#45;&gt;Node6 -->
<g id="edge12_Node000007_Node000006" class="edge">
<title>Node7&#45;&gt;Node6</title>
<g id="a_edge12_Node000007_Node000006"><a xlink:title=" ">
<path fill="none" stroke="#63b8ff" d="M418.79,-492.84C414.73,-494.99 410.78,-497.42 407.25,-500.12 386.93,-515.72 394.33,-534.03 371.25,-545.12 320.38,-569.57 299.1,-558.44 244.25,-545.12 211.54,-537.18 177.58,-516.65 158.63,-503.89"/>
<polygon fill="#63b8ff" stroke="#63b8ff" points="420.01,-496.14 427.57,-488.71 417.03,-489.8 420.01,-496.14"/>
</a>
</g>
</g>
<!-- Node8 -->
<g id="Node000008" class="node">
<title>Node8</title>
<g id="a_Node000008"><a xlink:href="nrf24__avr_8c.html#ab6fb4c1aa834152310116e7dec65d8e3" target="_top" xlink:title=" ">
<polygon fill="white" stroke="#666666" points="179.38,-121.5 105.62,-121.5 105.62,-100.75 179.38,-100.75 179.38,-121.5"/>
<text xml:space="preserve" text-anchor="middle" x="142.5" y="-108" font-family="Helvetica,sans-Serif" font-size="10.00">nrf24_begin</text>
</a>
</g>
</g>
<!-- Node7&#45;&gt;Node8 -->
<g id="edge7_Node000007_Node000008" class="edge">
<title>Node7&#45;&gt;Node8</title>
<g id="a_edge7_Node000007_Node000008"><a xlink:title=" ">
<path fill="none" stroke="#63b8ff" d="M417.31,-476.95C369.79,-470.68 286.65,-452.18 244.25,-398.12 170.35,-303.91 285.63,-222.5 208.25,-131.12 201.03,-122.59 190.25,-117.64 179.55,-114.78"/>
<polygon fill="#63b8ff" stroke="#63b8ff" points="416.73,-480.41 427.07,-478.12 417.56,-473.46 416.73,-480.41"/>
</a>
</g>
</g>
<!-- Node9 -->
<g id="Node000009" class="node">
<title>Node9</title>
<g id="a_Node000009"><a xlink:href="nrf24__avr_8c.html#a33899bc3c0f4d2293f37c306d0b8e297" target="_top" xlink:title=" ">
<polygon fill="white" stroke="#666666" points="363.75,-389.5 251.75,-389.5 251.75,-368.75 363.75,-368.75 363.75,-389.5"/>
<text xml:space="preserve" text-anchor="middle" x="307.75" y="-376" font-family="Helvetica,sans-Serif" font-size="10.00">nrf24_stopListening</text>
</a>
</g>
</g>
<!-- Node7&#45;&gt;Node9 -->
<g id="edge10_Node000007_Node000009" class="edge">
<title>Node7&#45;&gt;Node9</title>
<g id="a_edge10_Node000007_Node000009"><a xlink:title=" ">
<path fill="none" stroke="#63b8ff" d="M418.42,-466.25C414.57,-464.34 410.77,-462.29 407.25,-460.12 372.72,-438.92 337.23,-406.64 319.79,-389.95"/>
<polygon fill="#63b8ff" stroke="#63b8ff" points="416.65,-469.29 427.2,-470.3 419.59,-462.93 416.65,-469.29"/>
</a>
</g>
</g>
<!-- Node8&#45;&gt;Node4 -->
<g id="edge8_Node000008_Node000004" class="edge">
<title>Node8&#45;&gt;Node4</title>
<g id="a_edge8_Node000008_Node000004"><a xlink:title=" ">
<path fill="none" stroke="#63b8ff" d="M94.47,-121.03C88.13,-123.64 82,-126.95 76.75,-131.12 48.05,-153.92 31.25,-195.96 24.65,-215.55"/>
<polygon fill="#63b8ff" stroke="#63b8ff" points="95.55,-124.36 103.83,-117.74 93.23,-117.75 95.55,-124.36"/>
</a>
</g>
</g>
<!-- Node8&#45;&gt;Node5 -->
<g id="edge9_Node000008_Node000005" class="edge">
<title>Node8&#45;&gt;Node5</title>
<g id="a_edge9_Node000008_Node000005"><a xlink:title=" ">
<path fill="none" stroke="#63b8ff" d="M94.94,-125.32C88.81,-127.24 82.62,-129.21 76.75,-131.12 64.86,-135 51.62,-139.53 41.06,-143.2"/>
<polygon fill="#63b8ff" stroke="#63b8ff" points="95.86,-128.69 104.37,-122.38 93.78,-122.01 95.86,-128.69"/>
</a>
</g>
</g>
<!-- Node9&#45;&gt;Node6 -->
<g id="edge11_Node000009_Node000006" class="edge">
<title>Node9&#45;&gt;Node6</title>
<g id="a_edge11_Node000009_Node000006"><a xlink:title=" ">
<path fill="none" stroke="#63b8ff" d="M261.34,-394.3C255.43,-396.92 249.58,-399.87 244.25,-403.12 206.61,-426.09 169.92,-463.86 153.08,-482.31"/>
<polygon fill="#63b8ff" stroke="#63b8ff" points="262.65,-397.55 270.56,-390.51 259.98,-391.08 262.65,-397.55"/>
</a>
</g>
</g>
<!-- Node10&#45;&gt;Node8 -->
<g id="edge14_Node000010_Node000008" class="edge">
<title>Node10&#45;&gt;Node8</title>
<g id="a_edge14_Node000010_Node000008"><a xlink:title=" ">
<path fill="none" stroke="#63b8ff" d="M558.08,-263.57C539.23,-208.23 480.4,-62.25 371.25,-16.12 319.26,5.85 296.71,4.71 244.25,-16.12 200.68,-33.43 165.03,-79.49 150.51,-100.46"/>
<polygon fill="#63b8ff" stroke="#63b8ff" points="554.75,-264.64 561.2,-273.05 561.4,-262.46 554.75,-264.64"/>
</a>
</g>
</g>
<!-- Node11 -->
<g id="Node000011" class="node">
<title>Node11</title>
<g id="a_Node000011"><a xlink:href="nrf24__avr_8c.html#a9351c150d32184a95db9ab4a802ed860" target="_top" xlink:title=" ">
<polygon fill="white" stroke="#666666" points="496.75,-412.5 411,-412.5 411,-391.75 496.75,-391.75 496.75,-412.5"/>
<text xml:space="preserve" text-anchor="middle" x="453.88" y="-399" font-family="Helvetica,sans-Serif" font-size="10.00">nrf24_flush_rx</text>
</a>
</g>
</g>
<!-- Node10&#45;&gt;Node11 -->
<g id="edge15_Node000010_Node000011" class="edge">
<title>Node10&#45;&gt;Node11</title>
<g id="a_edge15_Node000010_Node000011"><a xlink:title=" ">
<path fill="none" stroke="#63b8ff" d="M538.18,-303.23C537.6,-303.85 537.04,-304.48 536.5,-305.12 512.25,-334.09 527.53,-355.74 500.5,-382.12 496.79,-385.75 492.31,-388.77 487.63,-391.28"/>
<polygon fill="#63b8ff" stroke="#63b8ff" points="540.22,-306.1 545.44,-296.89 535.61,-300.83 540.22,-306.1"/>
</a>
</g>
</g>
<!-- Node12 -->
<g id="Node000012" class="node">
<title>Node12</title>
<g id="a_Node000012"><a xlink:href="nrf24__avr_8c.html#a617ab4b2604d6f482796e35da85369ad" target="_top" xlink:title=" ">
<polygon fill="white" stroke="#666666" points="496.75,-373.5 411,-373.5 411,-352.75 496.75,-352.75 496.75,-373.5"/>
<text xml:space="preserve" text-anchor="middle" x="453.88" y="-360" font-family="Helvetica,sans-Serif" font-size="10.00">nrf24_flush_tx</text>
</a>
</g>
</g>
<!-- Node10&#45;&gt;Node12 -->
<g id="edge16_Node000010_Node000012" class="edge">
<title>Node10&#45;&gt;Node12</title>
<g id="a_edge16_Node000010_Node000012"><a xlink:title=" ">
<path fill="none" stroke="#63b8ff" d="M539.39,-302.71C538.4,-303.51 537.43,-304.31 536.5,-305.12 518.91,-320.34 519.53,-329.74 500.5,-343.12 495.55,-346.61 489.89,-349.68 484.29,-352.31"/>
<polygon fill="#63b8ff" stroke="#63b8ff" points="541.46,-305.53 547.34,-296.71 537.25,-299.94 541.46,-305.53"/>
</a>
</g>
</g>
<!-- Node13 -->
<g id="Node000013" class="node">
<title>Node13</title>
<g id="a_Node000013"><a xlink:href="nrf24__avr_8c.html#a9a23f602a6077c795322702d0a42f48c" target="_top" xlink:title=" ">
<polygon fill="white" stroke="#666666" points="500.5,-451.5 407.25,-451.5 407.25,-430.75 500.5,-430.75 500.5,-451.5"/>
<text xml:space="preserve" text-anchor="middle" x="453.88" y="-438" font-family="Helvetica,sans-Serif" font-size="10.00">nrf24_getStatus</text>
</a>
</g>
</g>
<!-- Node10&#45;&gt;Node13 -->
<g id="edge18_Node000010_Node000013" class="edge">
<title>Node10&#45;&gt;Node13</title>
<g id="a_edge18_Node000010_Node000013"><a xlink:title=" ">
<path fill="none" stroke="#63b8ff" d="M537.75,-303.51C537.32,-304.04 536.9,-304.57 536.5,-305.12 504.75,-348.78 536.47,-380.87 500.5,-421.12 497.16,-424.86 492.99,-427.94 488.54,-430.45"/>
<polygon fill="#63b8ff" stroke="#63b8ff" points="539.93,-306.26 544.82,-296.86 535.14,-301.16 539.93,-306.26"/>
</a>
</g>
</g>
<!-- Node14 -->
<g id="Node000014" class="node">
<title>Node14</title>
<g id="a_Node000014"><a xlink:href="nrf24__avr_8c.html#ac4a676257b5b86b05f4ea608636cb2cf" target="_top" xlink:title=" ">
<polygon fill="white" stroke="#666666" points="494.88,-178.5 412.88,-178.5 412.88,-157.75 494.88,-157.75 494.88,-178.5"/>
<text xml:space="preserve" text-anchor="middle" x="453.88" y="-165" font-family="Helvetica,sans-Serif" font-size="10.00">read_payload</text>
</a>
</g>
</g>
<!-- Node10&#45;&gt;Node14 -->
<g id="edge19_Node000010_Node000014" class="edge">
<title>Node10&#45;&gt;Node14</title>
<g id="a_edge19_Node000010_Node000014"><a xlink:title=" ">
<path fill="none" stroke="#63b8ff" d="M555.33,-263.98C544.66,-242.4 525.55,-209.18 500.5,-188.12 496.26,-184.56 491.29,-181.53 486.22,-178.99"/>
<polygon fill="#63b8ff" stroke="#63b8ff" points="552.15,-265.44 559.6,-272.98 558.47,-262.44 552.15,-265.44"/>
</a>
</g>
</g>
<!-- Node17 -->
<g id="Node000017" class="node">
<title>Node17</title>
<g id="a_Node000017"><a xlink:href="nrf24__avr_8c.html#abefdb1d58b989853c0646a6c8b18b7d3" target="_top" xlink:title=" ">
<polygon fill="white" stroke="#666666" points="483.25,-295.5 424.5,-295.5 424.5,-274.75 483.25,-274.75 483.25,-295.5"/>
<text xml:space="preserve" text-anchor="middle" x="453.88" y="-282" font-family="Helvetica,sans-Serif" font-size="10.00">read_reg</text>
</a>
</g>
</g>
<!-- Node10&#45;&gt;Node17 -->
<g id="edge24_Node000010_Node000017" class="edge">
<title>Node10&#45;&gt;Node17</title>
<g id="a_edge24_Node000010_Node000017"><a xlink:title=" ">
<path fill="none" stroke="#63b8ff" d="M524.75,-285.12C511.16,-285.12 496.26,-285.12 483.73,-285.12"/>
<polygon fill="#63b8ff" stroke="#63b8ff" points="524.75,-288.62 534.75,-285.12 524.75,-281.62 524.75,-288.62"/>
</a>
</g>
</g>
<!-- Node19 -->
<g id="Node000019" class="node">
<title>Node19</title>
<g id="a_Node000019"><a xlink:href="nrf24__avr_8c.html#a31d6889b046799ad06c03ce52c9bb640" target="_top" xlink:title=" ">
<polygon fill="white" stroke="#666666" points="493.75,-256.5 414,-256.5 414,-235.75 493.75,-235.75 493.75,-256.5"/>
<text xml:space="preserve" text-anchor="middle" x="453.88" y="-243" font-family="Helvetica,sans-Serif" font-size="10.00">read_reg_buf</text>
</a>
</g>
</g>
<!-- Node10&#45;&gt;Node19 -->
<g id="edge31_Node000010_Node000019" class="edge">
<title>Node10&#45;&gt;Node19</title>
<g id="a_edge31_Node000010_Node000019"><a xlink:title=" ">
<path fill="none" stroke="#63b8ff" d="M525.52,-271.17C512.28,-266.48 497.72,-261.31 485.27,-256.9"/>
<polygon fill="#63b8ff" stroke="#63b8ff" points="524.24,-274.43 534.83,-274.47 526.58,-267.83 524.24,-274.43"/>
</a>
</g>
</g>
<!-- Node20 -->
<g id="Node000020" class="node">
<title>Node20</title>
<g id="a_Node000020"><a xlink:href="nrf24__avr_8c.html#a3c9fd94e9894bf0792d4ff5891c16436" target="_top" xlink:title=" ">
<polygon fill="white" stroke="#666666" points="496.38,-334.5 411.38,-334.5 411.38,-313.75 496.38,-313.75 496.38,-334.5"/>
<text xml:space="preserve" text-anchor="middle" x="453.88" y="-321" font-family="Helvetica,sans-Serif" font-size="10.00">write_payload</text>
</a>
</g>
</g>
<!-- Node10&#45;&gt;Node20 -->
<g id="edge32_Node000010_Node000020" class="edge">
<title>Node10&#45;&gt;Node20</title>
<g id="a_edge32_Node000010_Node000020"><a xlink:title=" ">
<path fill="none" stroke="#63b8ff" d="M525.52,-299.08C512.28,-303.77 497.72,-308.93 485.27,-313.35"/>
<polygon fill="#63b8ff" stroke="#63b8ff" points="526.58,-302.41 534.83,-295.77 524.24,-295.82 526.58,-302.41"/>
</a>
</g>
</g>
<!-- Node21 -->
<g id="Node000021" class="node">
<title>Node21</title>
<g id="a_Node000021"><a xlink:href="nrf24__avr_8c.html#a08bc978021db604d02a6da754f73e7e2" target="_top" xlink:title=" ">
<polygon fill="white" stroke="#666666" points="484.75,-217.5 423,-217.5 423,-196.75 484.75,-196.75 484.75,-217.5"/>
<text xml:space="preserve" text-anchor="middle" x="453.88" y="-204" font-family="Helvetica,sans-Serif" font-size="10.00">write_reg</text>
</a>
</g>
</g>
<!-- Node10&#45;&gt;Node21 -->
<g id="edge34_Node000010_Node000021" class="edge">
<title>Node10&#45;&gt;Node21</title>
<g id="a_edge34_Node000010_Node000021"><a xlink:title=" ">
<path fill="none" stroke="#63b8ff" d="M547.25,-266.37C534.98,-254.08 517.79,-238.28 500.5,-227.12 495.12,-223.65 489.04,-220.52 483.11,-217.81"/>
<polygon fill="#63b8ff" stroke="#63b8ff" points="544.7,-268.77 554.18,-273.5 549.72,-263.89 544.7,-268.77"/>
</a>
</g>
</g>
<!-- Node12&#45;&gt;Node6 -->
<g id="edge17_Node000012_Node000006" class="edge">
<title>Node12&#45;&gt;Node6</title>
<g id="a_edge17_Node000012_Node000006"><a xlink:title=" ">
<path fill="none" stroke="#63b8ff" d="M409.88,-380.42C408.96,-381.28 408.08,-382.18 407.25,-383.12 369.41,-426.26 417.14,-472.66 371.25,-507.12 310.43,-552.8 212.73,-522.08 167.68,-503.87"/>
<polygon fill="#63b8ff" stroke="#63b8ff" points="411.86,-383.31 417.92,-374.63 407.76,-377.63 411.86,-383.31"/>
</a>
</g>
</g>
<!-- Node15 -->
<g id="Node000015" class="node">
<title>Node15</title>
<g id="a_Node000015"><a xlink:href="nrf24__avr_8c.html#aa0767db791fc0b45ebadab011c1900bf" target="_top" xlink:title=" ">
<polygon fill="white" stroke="#666666" points="342,-45.5 273.5,-45.5 273.5,-24.75 342,-24.75 342,-45.5"/>
<text xml:space="preserve" text-anchor="middle" x="307.75" y="-32" font-family="Helvetica,sans-Serif" font-size="10.00">nrf24_read</text>
</a>
</g>
</g>
<!-- Node14&#45;&gt;Node15 -->
<g id="edge20_Node000014_Node000015" class="edge">
<title>Node14&#45;&gt;Node15</title>
<g id="a_edge20_Node000014_Node000015"><a xlink:title=" ">
<path fill="none" stroke="#63b8ff" d="M443.07,-147.33C430.09,-121.98 404.87,-79.51 371.25,-55.12 362.77,-48.97 352.31,-44.66 342.39,-41.65"/>
<polygon fill="#63b8ff" stroke="#63b8ff" points="439.78,-148.57 447.35,-155.99 446.06,-145.47 439.78,-148.57"/>
</a>
</g>
</g>
<!-- Node15&#45;&gt;Node5 -->
<g id="edge23_Node000015_Node000005" class="edge">
<title>Node15&#45;&gt;Node5</title>
<g id="a_edge23_Node000015_Node000005"><a xlink:title=" ">
<path fill="none" stroke="#63b8ff" d="M262.13,-29.56C212.87,-25.73 133.09,-26.56 76.75,-62.12 47.59,-80.52 31.12,-120.45 24.63,-139.54"/>
<polygon fill="#63b8ff" stroke="#63b8ff" points="261.58,-33.03 271.85,-30.42 262.2,-26.05 261.58,-33.03"/>
</a>
</g>
</g>
<!-- Node16 -->
<g id="Node000016" class="node">
<title>Node16</title>
<g id="a_Node000016"><a xlink:href="carrinho_8c.html#afe461d27b9c48d5921c00d521181f12f" target="_top" xlink:title=" ">
<polygon fill="white" stroke="#666666" points="161,-275.5 124,-275.5 124,-254.75 161,-254.75 161,-275.5"/>
<text xml:space="preserve" text-anchor="middle" x="142.5" y="-262" font-family="Helvetica,sans-Serif" font-size="10.00">loop</text>
</a>
</g>
</g>
<!-- Node15&#45;&gt;Node16 -->
<g id="edge21_Node000015_Node000016" class="edge">
<title>Node15&#45;&gt;Node16</title>
<g id="a_edge21_Node000015_Node000016"><a xlink:title=" ">
<path fill="none" stroke="#63b8ff" d="M262.75,-42.53C255.77,-45.45 249.22,-49.5 244.25,-55.12 187.31,-119.5 265.52,-181.03 208.25,-245.12 196.41,-258.37 176.01,-262.95 161.27,-264.48"/>
<polygon fill="#63b8ff" stroke="#63b8ff" points="263.38,-46.02 271.73,-39.5 261.14,-39.38 263.38,-46.02"/>
</a>
</g>
</g>
<!-- Node16&#45;&gt;Node4 -->
<g id="edge22_Node000016_Node000004" class="edge">
<title>Node16&#45;&gt;Node4</title>
<g id="a_edge22_Node000016_Node000004"><a xlink:title=" ">
<path fill="none" stroke="#63b8ff" d="M112.64,-256.42C101.41,-252.98 88.46,-248.94 76.75,-245.12 64.86,-241.25 51.62,-236.71 41.06,-233.04"/>
<polygon fill="#63b8ff" stroke="#63b8ff" points="111.55,-259.75 122.14,-259.31 113.59,-253.05 111.55,-259.75"/>
</a>
</g>
</g>
<!-- Node17&#45;&gt;Node3 -->
<g id="edge28_Node000017_Node000003" class="edge">
<title>Node17&#45;&gt;Node3</title>
<g id="a_edge28_Node000017_Node000003"><a xlink:title=" ">
<path fill="none" stroke="#63b8ff" d="M413.78,-300.04C389.58,-309.28 359.06,-320.92 337.17,-329.28"/>
<polygon fill="#63b8ff" stroke="#63b8ff" points="414.89,-303.36 422.99,-296.53 412.4,-296.82 414.89,-303.36"/>
</a>
</g>
</g>
<!-- Node17&#45;&gt;Node6 -->
<g id="edge30_Node000017_Node000006" class="edge">
<title>Node17&#45;&gt;Node6</title>
<g id="a_edge30_Node000017_Node000006"><a xlink:title=" ">
<path fill="none" stroke="#63b8ff" d="M414.33,-299.16C411.76,-300.94 409.36,-302.91 407.25,-305.12 376.6,-337.14 404.34,-368.64 371.25,-398.12 327.71,-436.92 297.9,-408.26 244.25,-431.12 211.38,-445.14 176.65,-468.74 157.77,-482.43"/>
<polygon fill="#63b8ff" stroke="#63b8ff" points="415.84,-302.33 422.82,-294.36 412.4,-296.24 415.84,-302.33"/>
</a>
</g>
</g>
<!-- Node17&#45;&gt;Node9 -->
<g id="edge29_Node000017_Node000009" class="edge">
<title>Node17&#45;&gt;Node9</title>
<g id="a_edge29_Node000017_Node000009"><a xlink:title=" ">
<path fill="none" stroke="#63b8ff" d="M414.36,-300C411.85,-301.57 409.45,-303.28 407.25,-305.12 385.15,-323.66 394.28,-341.75 371.25,-359.12 366.34,-362.83 360.72,-365.86 354.91,-368.34"/>
<polygon fill="#63b8ff" stroke="#63b8ff" points="415.91,-303.15 423.06,-295.33 412.6,-296.98 415.91,-303.15"/>
</a>
</g>
</g>
<!-- Node18 -->
<g id="Node000018" class="node">
<title>Node18</title>
<g id="a_Node000018"><a xlink:href="nrf24__avr_8c.html#a0f64caa74329fd5799a33f30bd8ebf82" target="_top" xlink:title=" ">
<polygon fill="white" stroke="#666666" points="353.62,-274.5 261.88,-274.5 261.88,-253.75 353.62,-253.75 353.62,-274.5"/>
<text xml:space="preserve" text-anchor="middle" x="307.75" y="-261" font-family="Helvetica,sans-Serif" font-size="10.00">nrf24_available</text>
</a>
</g>
</g>
<!-- Node17&#45;&gt;Node18 -->
<g id="edge25_Node000017_Node000018" class="edge">
<title>Node17&#45;&gt;Node18</title>
<g id="a_edge25_Node000017_Node000018"><a xlink:title=" ">
<path fill="none" stroke="#63b8ff" d="M412.89,-279.3C394.61,-276.63 372.86,-273.46 353.98,-270.71"/>
<polygon fill="#63b8ff" stroke="#63b8ff" points="412.16,-282.73 422.56,-280.71 413.17,-275.8 412.16,-282.73"/>
</a>
</g>
</g>
<!-- Node18&#45;&gt;Node5 -->
<g id="edge27_Node000018_Node000005" class="edge">
<title>Node18&#45;&gt;Node5</title>
<g id="a_edge27_Node000018_Node000005"><a xlink:title=" ">
<path fill="none" stroke="#63b8ff" d="M281.41,-247.15C262.03,-234.75 234.29,-218.22 208.25,-207.12 152.29,-183.27 134.76,-187.45 76.75,-169.12 64.83,-165.36 51.58,-160.82 41.03,-157.13"/>
<polygon fill="#63b8ff" stroke="#63b8ff" points="279.44,-250.04 289.73,-252.56 283.25,-244.17 279.44,-250.04"/>
</a>
</g>
</g>
<!-- Node18&#45;&gt;Node16 -->
<g id="edge26_Node000018_Node000016" class="edge">
<title>Node18&#45;&gt;Node16</title>
<g id="a_edge26_Node000018_Node000016"><a xlink:title=" ">
<path fill="none" stroke="#63b8ff" d="M250.48,-264.47C219.23,-264.66 182.46,-264.88 161.18,-265.01"/>
<polygon fill="#63b8ff" stroke="#63b8ff" points="250.22,-267.97 260.2,-264.41 250.17,-260.97 250.22,-267.97"/>
</a>
</g>
</g>
<!-- Node20&#45;&gt;Node6 -->
<g id="edge33_Node000020_Node000006" class="edge">
<title>Node20&#45;&gt;Node6</title>
<g id="a_edge33_Node000020_Node000006"><a xlink:title=" ">
<path fill="none" stroke="#63b8ff" d="M410.49,-341.14C409.36,-342.09 408.27,-343.08 407.25,-344.12 377.97,-374.02 402.65,-403.46 371.25,-431.12 316.36,-479.47 227.29,-490.54 178.39,-492.81"/>
<polygon fill="#63b8ff" stroke="#63b8ff" points="412.34,-344.12 418.72,-335.66 408.46,-338.29 412.34,-344.12"/>
</a>
</g>
</g>
<!-- Node21&#45;&gt;Node3 -->
<g id="edge47_Node000021_Node000003" class="edge">
<title>Node21&#45;&gt;Node3</title>
<g id="a_edge47_Node000021_Node000003"><a xlink:title=" ">
<path fill="none" stroke="#63b8ff" d="M413.05,-222.13C410.97,-223.65 409.01,-225.31 407.25,-227.12 377.52,-257.73 401.69,-286.22 371.25,-316.12 365.61,-321.66 358.56,-325.95 351.24,-329.27"/>
<polygon fill="#63b8ff" stroke="#63b8ff" points="414.67,-225.24 421.47,-217.12 411.09,-219.22 414.67,-225.24"/>
</a>
</g>
</g>
<!-- Node21&#45;&gt;Node6 -->
<g id="edge49_Node000021_Node000006" class="edge">
<title>Node21&#45;&gt;Node6</title>
<g id="a_edge49_Node000021_Node000006"><a xlink:title=" ">
<path fill="none" stroke="#63b8ff" d="M413.25,-222.65C411.14,-224.04 409.12,-225.53 407.25,-227.12 384.74,-246.33 394.89,-265.33 371.25,-283.12 324.17,-318.55 290.58,-284.73 244.25,-321.12 187.37,-365.8 156.21,-452.17 146.69,-482.38"/>
<polygon fill="#63b8ff" stroke="#63b8ff" points="414.58,-225.92 421.59,-217.97 411.16,-219.81 414.58,-225.92"/>
</a>
</g>
</g>
<!-- Node21&#45;&gt;Node8 -->
<g id="edge35_Node000021_Node000008" class="edge">
<title>Node21&#45;&gt;Node8</title>
<g id="a_edge35_Node000021_Node000008"><a xlink:title=" ">
<path fill="none" stroke="#63b8ff" d="M413.25,-191.59C411.14,-190.21 409.12,-188.72 407.25,-187.12 384.74,-167.92 396.57,-146.42 371.25,-131.12 311.8,-95.2 227.2,-99.05 179.62,-105.07"/>
<polygon fill="#63b8ff" stroke="#63b8ff" points="411.16,-194.43 421.59,-196.27 414.58,-188.33 411.16,-194.43"/>
</a>
</g>
</g>
<!-- Node21&#45;&gt;Node9 -->
<g id="edge48_Node000021_Node000009" class="edge">
<title>Node21&#45;&gt;Node9</title>
<g id="a_edge48_Node000021_Node000009"><a xlink:title=" ">
<path fill="none" stroke="#63b8ff" d="M413.44,-221.39C411.18,-223.1 409.08,-225 407.25,-227.12 367.52,-273.16 413.3,-315.2 371.25,-359.12 367.7,-362.83 363.47,-365.85 358.91,-368.31"/>
<polygon fill="#63b8ff" stroke="#63b8ff" points="414.77,-224.68 421.53,-216.51 411.16,-218.68 414.77,-224.68"/>
</a>
</g>
</g>
<!-- Node21&#45;&gt;Node15 -->
<g id="edge40_Node000021_Node000015" class="edge">
<title>Node21&#45;&gt;Node15</title>
<g id="a_edge40_Node000021_Node000015"><a xlink:title=" ">
<path fill="none" stroke="#63b8ff" d="M413.44,-192.85C411.18,-191.15 409.08,-189.24 407.25,-187.12 367.52,-141.09 413.3,-99.05 371.25,-55.12 363.61,-47.14 352.78,-42.34 342.29,-39.45"/>
<polygon fill="#63b8ff" stroke="#63b8ff" points="411.16,-195.56 421.53,-197.74 414.77,-189.57 411.16,-195.56"/>
</a>
</g>
</g>
<!-- Node22 -->
<g id="Node000022" class="node">
<title>Node22</title>
<g id="a_Node000022"><a xlink:href="nrf24__avr_8c.html#a5af2f11537aed8a56d8489355af0ff16" target="_top" xlink:title=" ">
<polygon fill="white" stroke="#666666" points="208.25,-236.5 76.75,-236.5 76.75,-215.75 208.25,-215.75 208.25,-236.5"/>
<text xml:space="preserve" text-anchor="middle" x="142.5" y="-223" font-family="Helvetica,sans-Serif" font-size="10.00">nrf24_openReadingPipe</text>
</a>
</g>
</g>
<!-- Node21&#45;&gt;Node22 -->
<g id="edge36_Node000021_Node000022" class="edge">
<title>Node21&#45;&gt;Node22</title>
<g id="a_edge36_Node000021_Node000022"><a xlink:title=" ">
<path fill="none" stroke="#63b8ff" d="M411.21,-209.68C359.18,-212.88 269.62,-218.38 208.54,-222.13"/>
<polygon fill="#63b8ff" stroke="#63b8ff" points="411.37,-213.18 421.14,-209.07 410.94,-206.19 411.37,-213.18"/>
</a>
</g>
</g>
<!-- Node23 -->
<g id="Node000023" class="node">
<title>Node23</title>
<g id="a_Node000023"><a xlink:href="nrf24__avr_8c.html#a21d638882f746748de35324bdc21f448" target="_top" xlink:title=" ">
<polygon fill="white" stroke="#666666" points="371.25,-160.5 244.25,-160.5 244.25,-139.75 371.25,-139.75 371.25,-160.5"/>
<text xml:space="preserve" text-anchor="middle" x="307.75" y="-147" font-family="Helvetica,sans-Serif" font-size="10.00">nrf24_openWritingPipe</text>
</a>
</g>
</g>
<!-- Node21&#45;&gt;Node23 -->
<g id="edge39_Node000021_Node000023" class="edge">
<title>Node21&#45;&gt;Node23</title>
<g id="a_edge39_Node000021_Node000023"><a xlink:title=" ">
<path fill="none" stroke="#63b8ff" d="M416.2,-192.13C402.16,-186.44 385.98,-179.93 371.25,-174.12 360.11,-169.73 347.82,-164.99 337.1,-160.89"/>
<polygon fill="#63b8ff" stroke="#63b8ff" points="414.47,-195.21 425.05,-195.73 417.11,-188.73 414.47,-195.21"/>
</a>
</g>
</g>
<!-- Node24 -->
<g id="Node000024" class="node">
<title>Node24</title>
<g id="a_Node000024"><a xlink:href="nrf24__avr_8c.html#a49aa88b1042d6d62114cfbca271d9e2b" target="_top" xlink:title=" ">
<polygon fill="white" stroke="#666666" points="193.25,-160.5 91.75,-160.5 91.75,-139.75 193.25,-139.75 193.25,-160.5"/>
<text xml:space="preserve" text-anchor="middle" x="142.5" y="-147" font-family="Helvetica,sans-Serif" font-size="10.00">nrf24_setChannel</text>
</a>
</g>
</g>
<!-- Node21&#45;&gt;Node24 -->
<g id="edge41_Node000021_Node000024" class="edge">
<title>Node21&#45;&gt;Node24</title>
<g id="a_edge41_Node000021_Node000024"><a xlink:title=" ">
<path fill="none" stroke="#63b8ff" d="M411.63,-199.69C369.53,-192.08 302.32,-179.89 244.25,-169.12 227.8,-166.07 209.84,-162.7 193.71,-159.66"/>
<polygon fill="#63b8ff" stroke="#63b8ff" points="410.85,-203.11 421.32,-201.44 412.1,-196.22 410.85,-203.11"/>
</a>
</g>
</g>
<!-- Node25 -->
<g id="Node000025" class="node">
<title>Node25</title>
<g id="a_Node000025"><a xlink:href="nrf24__avr_8c.html#aaf2900e7932ebbf7f0ecdc6bce5840e1" target="_top" xlink:title=" ">
<polygon fill="white" stroke="#666666" points="368.25,-84.5 247.25,-84.5 247.25,-63.75 368.25,-63.75 368.25,-84.5"/>
<text xml:space="preserve" text-anchor="middle" x="307.75" y="-71" font-family="Helvetica,sans-Serif" font-size="10.00">nrf24_setPayloadSize</text>
</a>
</g>
</g>
<!-- Node21&#45;&gt;Node25 -->
<g id="edge44_Node000021_Node000025" class="edge">
<title>Node21&#45;&gt;Node25</title>
<g id="a_edge44_Node000021_Node000025"><a xlink:title=" ">
<path fill="none" stroke="#63b8ff" d="M413.05,-192.12C410.97,-190.6 409.01,-188.94 407.25,-187.12 377.52,-156.52 401.69,-128.03 371.25,-98.12 365.61,-92.58 358.56,-88.29 351.24,-84.98"/>
<polygon fill="#63b8ff" stroke="#63b8ff" points="411.09,-195.02 421.47,-197.13 414.67,-189.01 411.09,-195.02"/>
</a>
</g>
</g>
<!-- Node22&#45;&gt;Node4 -->
<g id="edge37_Node000022_Node000004" class="edge">
<title>Node22&#45;&gt;Node4</title>
<g id="a_edge37_Node000022_Node000004"><a xlink:title=" ">
<path fill="none" stroke="#63b8ff" d="M65.14,-226.12C56.32,-226.12 48.01,-226.12 41.05,-226.12"/>
<polygon fill="#63b8ff" stroke="#63b8ff" points="65,-229.62 75,-226.12 65,-222.62 65,-229.62"/>
</a>
</g>
</g>
<!-- Node22&#45;&gt;Node5 -->
<g id="edge38_Node000022_Node000005" class="edge">
<title>Node22&#45;&gt;Node5</title>
<g id="a_edge38_Node000022_Node000005"><a xlink:title=" ">
<path fill="none" stroke="#63b8ff" d="M94.39,-211.21C88.27,-208.55 82.23,-205.52 76.75,-202.12 58.14,-190.6 40.38,-172.15 30.19,-160.61"/>
<polygon fill="#63b8ff" stroke="#63b8ff" points="92.7,-214.3 103.28,-214.79 95.31,-207.81 92.7,-214.3"/>
</a>
</g>
</g>
<!-- Node24&#45;&gt;Node4 -->
<g id="edge42_Node000024_Node000004" class="edge">
<title>Node24&#45;&gt;Node4</title>
<g id="a_edge42_Node000024_Node000004"><a xlink:title=" ">
<path fill="none" stroke="#63b8ff" d="M114.89,-166.96C91.49,-181.76 58.15,-202.86 38.24,-215.45"/>
<polygon fill="#63b8ff" stroke="#63b8ff" points="116.69,-169.96 123.26,-161.66 112.94,-164.05 116.69,-169.96"/>
</a>
</g>
</g>
<!-- Node24&#45;&gt;Node5 -->
<g id="edge43_Node000024_Node000005" class="edge">
<title>Node24&#45;&gt;Node5</title>
<g id="a_edge43_Node000024_Node000005"><a xlink:title=" ">
<path fill="none" stroke="#63b8ff" d="M80.01,-150.12C65.94,-150.12 51.98,-150.12 41.22,-150.12"/>
<polygon fill="#63b8ff" stroke="#63b8ff" points="79.74,-153.62 89.74,-150.12 79.74,-146.62 79.74,-153.62"/>
</a>
</g>
</g>
<!-- Node25&#45;&gt;Node5 -->
<g id="edge45_Node000025_Node000005" class="edge">
<title>Node25&#45;&gt;Node5</title>
<g id="a_edge45_Node000025_Node000005"><a xlink:title=" ">
<path fill="none" stroke="#63b8ff" d="M235.71,-66.91C188.45,-65.1 126.22,-68.63 76.75,-92.12 54.87,-102.51 37.15,-125.57 28.04,-139.28"/>
<polygon fill="#63b8ff" stroke="#63b8ff" points="235.41,-70.4 245.56,-67.38 235.74,-63.4 235.41,-70.4"/>
</a>
</g>
</g>
<!-- Node25&#45;&gt;Node8 -->
<g id="edge46_Node000025_Node000008" class="edge">
<title>Node25&#45;&gt;Node8</title>
<g id="a_edge46_Node000025_Node000008"><a xlink:title=" ">
<path fill="none" stroke="#63b8ff" d="M248.13,-87.41C225.31,-92.58 199.87,-98.35 179.79,-102.9"/>
<polygon fill="#63b8ff" stroke="#63b8ff" points="248.64,-90.88 257.62,-85.26 247.09,-84.06 248.64,-90.88"/>
</a>
</g>
</g>
<!-- Node26&#45;&gt;Node11 -->
<g id="edge51_Node000026_Node000011" class="edge">
<title>Node26&#45;&gt;Node11</title>
<g id="a_edge51_Node000026_Node000011"><a xlink:title=" ">
<path fill="none" stroke="#63b8ff" d="M547.25,-342.88C534.98,-355.17 517.79,-370.96 500.5,-382.12 495.12,-385.59 489.04,-388.73 483.11,-391.43"/>
<polygon fill="#63b8ff" stroke="#63b8ff" points="549.72,-345.36 554.18,-335.75 544.7,-340.48 549.72,-345.36"/>
</a>
</g>
</g>
<!-- Node26&#45;&gt;Node12 -->
<g id="edge52_Node000026_Node000012" class="edge">
<title>Node26&#45;&gt;Node12</title>
<g id="a_edge52_Node000026_Node000012"><a xlink:title=" ">
<path fill="none" stroke="#63b8ff" d="M527.41,-337.41C513.71,-342.26 498.4,-347.69 485.39,-352.3"/>
<polygon fill="#63b8ff" stroke="#63b8ff" points="528.28,-340.81 536.54,-334.17 525.94,-334.21 528.28,-340.81"/>
</a>
</g>
</g>
<!-- Node26&#45;&gt;Node13 -->
<g id="edge53_Node000026_Node000013" class="edge">
<title>Node26&#45;&gt;Node13</title>
<g id="a_edge53_Node000026_Node000013"><a xlink:title=" ">
<path fill="none" stroke="#63b8ff" d="M555.33,-345.27C544.66,-366.85 525.55,-400.07 500.5,-421.12 496.26,-424.68 491.29,-427.72 486.22,-430.26"/>
<polygon fill="#63b8ff" stroke="#63b8ff" points="558.47,-346.81 559.6,-336.27 552.15,-343.81 558.47,-346.81"/>
</a>
</g>
</g>
<!-- Node26&#45;&gt;Node14 -->
<g id="edge54_Node000026_Node000014" class="edge">
<title>Node26&#45;&gt;Node14</title>
<g id="a_edge54_Node000026_Node000014"><a xlink:title=" ">
<path fill="none" stroke="#63b8ff" d="M537.75,-305.74C537.32,-305.21 536.9,-304.67 536.5,-304.12 504.75,-260.47 536.47,-228.37 500.5,-188.12 497.16,-184.38 492.99,-181.31 488.54,-178.8"/>
<polygon fill="#63b8ff" stroke="#63b8ff" points="535.14,-308.09 544.82,-312.38 539.93,-302.98 535.14,-308.09"/>
</a>
</g>
</g>
<!-- Node26&#45;&gt;Node17 -->
<g id="edge55_Node000026_Node000017" class="edge">
<title>Node26&#45;&gt;Node17</title>
<g id="a_edge55_Node000026_Node000017"><a xlink:title=" ">
<path fill="none" stroke="#63b8ff" d="M527.39,-310.83C513.01,-305.73 496.84,-300 483.43,-295.25"/>
<polygon fill="#63b8ff" stroke="#63b8ff" points="525.94,-314.03 536.54,-314.08 528.28,-307.44 525.94,-314.03"/>
</a>
</g>
</g>
<!-- Node26&#45;&gt;Node19 -->
<g id="edge56_Node000026_Node000019" class="edge">
<title>Node26&#45;&gt;Node19</title>
<g id="a_edge56_Node000026_Node000019"><a xlink:title=" ">
<path fill="none" stroke="#63b8ff" d="M539.39,-306.54C538.4,-305.74 537.43,-304.93 536.5,-304.12 518.91,-288.9 519.53,-279.5 500.5,-266.12 495.55,-262.64 489.89,-259.57 484.29,-256.94"/>
<polygon fill="#63b8ff" stroke="#63b8ff" points="537.25,-309.31 547.34,-312.53 541.46,-303.72 537.25,-309.31"/>
</a>
</g>
</g>
<!-- Node26&#45;&gt;Node20 -->
<g id="edge57_Node000026_Node000020" class="edge">
<title>Node26&#45;&gt;Node20</title>
<g id="a_edge57_Node000026_Node000020"><a xlink:title=" ">
<path fill="none" stroke="#63b8ff" d="M526.59,-324.12C516.87,-324.12 506.39,-324.12 496.51,-324.12"/>
<polygon fill="#63b8ff" stroke="#63b8ff" points="526.45,-327.62 536.45,-324.12 526.45,-320.62 526.45,-327.62"/>
</a>
</g>
</g>
<!-- Node26&#45;&gt;Node21 -->
<g id="edge58_Node000026_Node000021" class="edge">
<title>Node26&#45;&gt;Node21</title>
<g id="a_edge58_Node000026_Node000021"><a xlink:title=" ">
<path fill="none" stroke="#63b8ff" d="M538.18,-306.01C537.6,-305.39 537.04,-304.76 536.5,-304.12 512.25,-275.16 527.53,-253.51 500.5,-227.12 496.04,-222.77 490.49,-219.29 484.8,-216.53"/>
<polygon fill="#63b8ff" stroke="#63b8ff" points="535.61,-308.41 545.44,-312.36 540.22,-303.14 535.61,-308.41"/>
</a>
</g>
</g>
</g>
</svg>

<g id="navigator" transform="translate(0 0)" fill="#404254">
  <rect fill="#f2f5e9" fill-opacity="0.5" stroke="#606060" stroke-width=".5" x="0" y="0" width="60" height="60"/>
  <use id="zoomplus" xlink:href="#zoomPlus" x="17" y="9" onmousedown="handleZoom(evt,'in')"/>
  <use id="zoomminus" xlink:href="#zoomMin" x="42" y="9" onmousedown="handleZoom(evt,'out')"/>
  <use id="reset" xlink:href="#resetDef" x="30" y="36" onmousedown="handleReset()"/>
   <use id="arrowup" xlink:href="#arrowUp" x="0" y="0" onmousedown="handlePan(0,-1)"/>
  <use id="arrowright" xlink:href="#arrowRight" x="0" y="0" onmousedown="handlePan(1,0)"/>
  <use id="arrowdown" xlink:href="#arrowDown" x="0" y="0" onmousedown="handlePan(0,1)"/>
  <use id="arrowleft" xlink:href="#arrowLeft" x="0" y="0" onmousedown="handlePan(-1,0)"/>
</g>
<svg viewBox="0 0 15 15" width="100%" height="30px" preserveAspectRatio="xMaxYMin meet">
 <g id="arrow_out" transform="scale(0.3 0.3)">
  <a xlink:href="nrf24__avr_8c_a019970fc17b6b18fa4e45e0baf22c93f_icgraph_org.svg" target="_base">
   <rect id="button" ry="5" rx="5" y="6" x="6" height="38" width="38"
        fill="#f2f5e9" fill-opacity="0.5" stroke="#606060" stroke-width="1.0"/>
   <path id="arrow"
     d="M 11.500037,31.436501 C 11.940474,20.09759 22.043105,11.32322 32.158766,21.979434 L 37.068811,17.246167 C 37.068811,17.246167 37.088388,32 37.088388,32 L 22.160133,31.978069 C 22.160133,31.978069 26.997745,27.140456 26.997745,27.140456 C 18.528582,18.264221 13.291696,25.230495 11.500037,31.436501 z"
     style="fill:#404040;"/>
  </a>
 </g>
</svg>

<style type='text/css'>
<![CDATA[
[data-mouse-over-selected='false'] { opacity: 0.7; }
[data-mouse-over-selected='true']  { opacity: 1.0; }
]]>
</style>
<script type="application/ecmascript"><![CDATA[
document.addEventListener('DOMContentLoaded', (event) => {
  highlightEdges();
  highlightAdjacentNodes();
});
]]></script>
</svg>
