<?xml version="1.0" encoding="UTF-8" standalone="no"?>
<!DOCTYPE svg PUBLIC "-//W3C//DTD SVG 1.1//EN"
 "http://www.w3.org/Graphics/SVG/1.1/DTD/svg11.dtd">
<!-- Generated by graphviz version 14.0.4 (0)
 -->
<!-- Title: read_reg Pages: 1 -->
<svg width="401pt" height="144pt"
 viewBox="0.00 0.00 401.00 144.00" xmlns="http://www.w3.org/2000/svg" xmlns:xlink="http://www.w3.org/1999/xlink">

<svg id="main" version="1.1" xmlns="http://www.w3.org/2000/svg" xmlns:xlink="http://www.w3.org/1999/xlink" xml:space="preserve">

<style type="text/css"><![CDATA[
.node, .edge {opacity: 0.7;}
.node.selected, .edge.selected {opacity: 1;}
.edge:hover path { stroke: red; }
.edge:hover polygon { stroke: red; fill: red; }
]]></style>
<script type="application/ecmascript" xlink:href="svg.min.js"/>
<svg id="graph" class="graph">
<g id="graph0" class="graph" transform="scale(1 1) rotate(0) translate(4 139.75)">
<title>read_reg</title>
<!-- Node1 -->
<g id="Node000001" class="node">
<title>Node1</title>
<g id="a_Node000001"><a xlink:title=" ">
<polygon fill="#999999" stroke="#666666" points="392.5,-58.75 333.75,-58.75 333.75,-38 392.5,-38 392.5,-58.75"/>
<text xml:space="preserve" text-anchor="middle" x="363.12" y="-45.25" font-family="Helvetica,sans-Serif" font-size="10.00">read_reg</text>
</a>
</g>
</g>
<!-- Node2 -->
<g id="Node000002" class="node">
<title>Node2</title>
<g id="a_Node000002"><a xlink:href="nrf24__avr_8c.html#a0f64caa74329fd5799a33f30bd8ebf82" target="_top" xlink:title=" ">
<polygon fill="white" stroke="#666666" points="286.88,-117.75 195.12,-117.75 195.12,-97 286.88,-97 286.88,-117.75"/>
<text xml:space="preserve" text-anchor="middle" x="241" y="-104.25" font-family="Helvetica,sans-Serif" font-size="10.00">nrf24_available</text>
</a>
</g>
</g>
<!-- Node1&#45;&gt;Node2 -->
<g id="edge1_Node000001_Node000002" class="edge">
<title>Node1&#45;&gt;Node2</title>
<g id="a_edge1_Node000001_Node000002"><a xlink:title=" ">
<path fill="none" stroke="#63b8ff" d="M336.76,-65.36C325.17,-72.69 311.07,-81.03 297.75,-87.38 290.69,-90.74 282.91,-93.86 275.46,-96.6"/>
<polygon fill="#63b8ff" stroke="#63b8ff" points="338.45,-68.43 344.95,-60.07 334.65,-62.55 338.45,-68.43"/>
</a>
</g>
</g>
<!-- Node6 -->
<g id="Node000006" class="node">
<title>Node6</title>
<g id="a_Node000006"><a xlink:href="nrf24__avr_8c.html#a71c5628e9583f6a6fd0871b3ae1bf6df" target="_top" xlink:title=" ">
<polygon fill="white" stroke="#666666" points="297.75,-78.75 184.25,-78.75 184.25,-58 297.75,-58 297.75,-78.75"/>
<text xml:space="preserve" text-anchor="middle" x="241" y="-65.25" font-family="Helvetica,sans-Serif" font-size="10.00">nrf24_startListening</text>
</a>
</g>
</g>
<!-- Node1&#45;&gt;Node6 -->
<g id="edge5_Node000001_Node000006" class="edge">
<title>Node1&#45;&gt;Node6</title>
<g id="a_edge5_Node000001_Node000006"><a xlink:title=" ">
<path fill="none" stroke="#63b8ff" d="M322.04,-55.05C314.28,-56.34 306.01,-57.72 297.85,-59.08"/>
<polygon fill="#63b8ff" stroke="#63b8ff" points="322.57,-58.51 331.86,-53.41 321.42,-51.6 322.57,-58.51"/>
</a>
</g>
</g>
<!-- Node7 -->
<g id="Node000007" class="node">
<title>Node7</title>
<g id="a_Node000007"><a xlink:href="nrf24__avr_8c.html#a33899bc3c0f4d2293f37c306d0b8e297" target="_top" xlink:title=" ">
<polygon fill="white" stroke="#666666" points="297,-39.75 185,-39.75 185,-19 297,-19 297,-39.75"/>
<text xml:space="preserve" text-anchor="middle" x="241" y="-26.25" font-family="Helvetica,sans-Serif" font-size="10.00">nrf24_stopListening</text>
</a>
</g>
</g>
<!-- Node1&#45;&gt;Node7 -->
<g id="edge8_Node000001_Node000007" class="edge">
<title>Node1&#45;&gt;Node7</title>
<g id="a_edge8_Node000001_Node000007"><a xlink:title=" ">
<path fill="none" stroke="#63b8ff" d="M322.16,-42.05C314.21,-40.8 305.73,-39.46 297.37,-38.13"/>
<polygon fill="#63b8ff" stroke="#63b8ff" points="321.43,-45.48 331.86,-43.59 322.53,-38.57 321.43,-45.48"/>
</a>
</g>
</g>
<!-- Node8 -->
<g id="Node000008" class="node">
<title>Node8</title>
<g id="a_Node000008"><a xlink:href="nrf24__avr_8c.html#a8232e1982aabc6f52408c318402cb578" target="_top" xlink:title=" ">
<polygon fill="white" stroke="#666666" points="148.25,-20.75 76.75,-20.75 76.75,0 148.25,0 148.25,-20.75"/>
<text xml:space="preserve" text-anchor="middle" x="112.5" y="-7.25" font-family="Helvetica,sans-Serif" font-size="10.00">nrf24_write</text>
</a>
</g>
</g>
<!-- Node1&#45;&gt;Node8 -->
<g id="edge10_Node000001_Node000008" class="edge">
<title>Node1&#45;&gt;Node8</title>
<g id="a_edge10_Node000001_Node000008"><a xlink:title=" ">
<path fill="none" stroke="#63b8ff" d="M339.74,-31.13C327.94,-23.13 312.81,-14.49 297.75,-10.38 247.3,3.4 186.13,-0.42 148.52,-4.98"/>
<polygon fill="#63b8ff" stroke="#63b8ff" points="337.39,-33.76 347.56,-36.71 341.45,-28.06 337.39,-33.76"/>
</a>
</g>
</g>
<!-- Node3 -->
<g id="Node000003" class="node">
<title>Node3</title>
<g id="a_Node000003"><a xlink:href="carrinho_8c.html#afe461d27b9c48d5921c00d521181f12f" target="_top" xlink:title=" ">
<polygon fill="white" stroke="#666666" points="131,-135.75 94,-135.75 94,-115 131,-115 131,-135.75"/>
<text xml:space="preserve" text-anchor="middle" x="112.5" y="-122.25" font-family="Helvetica,sans-Serif" font-size="10.00">loop</text>
</a>
</g>
</g>
<!-- Node2&#45;&gt;Node3 -->
<g id="edge2_Node000002_Node000003" class="edge">
<title>Node2&#45;&gt;Node3</title>
<g id="a_edge2_Node000002_Node000003"><a xlink:title=" ">
<path fill="none" stroke="#63b8ff" d="M183.48,-115.42C164.71,-118.09 145.15,-120.87 131.5,-122.81"/>
<polygon fill="#63b8ff" stroke="#63b8ff" points="183.78,-118.91 193.19,-114.04 182.8,-111.98 183.78,-118.91"/>
</a>
</g>
</g>
<!-- Node5 -->
<g id="Node000005" class="node">
<title>Node5</title>
<g id="a_Node000005"><a xlink:href="main_8c.html#a840291bc02cba5474a4cb46a9b9566fe" target="_top" xlink:title=" ">
<polygon fill="white" stroke="#666666" points="132.88,-96.75 92.12,-96.75 92.12,-76 132.88,-76 132.88,-96.75"/>
<text xml:space="preserve" text-anchor="middle" x="112.5" y="-83.25" font-family="Helvetica,sans-Serif" font-size="10.00">main</text>
</a>
</g>
</g>
<!-- Node2&#45;&gt;Node5 -->
<g id="edge4_Node000002_Node000005" class="edge">
<title>Node2&#45;&gt;Node5</title>
<g id="a_edge4_Node000002_Node000005"><a xlink:title=" ">
<path fill="none" stroke="#63b8ff" d="M183.33,-97.97C165.35,-94.98 146.64,-91.88 133.12,-89.63"/>
<polygon fill="#63b8ff" stroke="#63b8ff" points="182.76,-101.42 193.19,-99.6 183.9,-94.51 182.76,-101.42"/>
</a>
</g>
</g>
<!-- Node4 -->
<g id="Node000004" class="node">
<title>Node4</title>
<g id="a_Node000004"><a xlink:href="carrinho_8c.html#ae66f6b31b5ad750f1fe042a706a4e3d4" target="_top" xlink:title=" ">
<polygon fill="white" stroke="#666666" points="40.75,-96.75 0,-96.75 0,-76 40.75,-76 40.75,-96.75"/>
<text xml:space="preserve" text-anchor="middle" x="20.38" y="-83.25" font-family="Helvetica,sans-Serif" font-size="10.00">main</text>
</a>
</g>
</g>
<!-- Node3&#45;&gt;Node4 -->
<g id="edge3_Node000003_Node000004" class="edge">
<title>Node3&#45;&gt;Node4</title>
<g id="a_edge3_Node000003_Node000004"><a xlink:title=" ">
<path fill="none" stroke="#63b8ff" d="M83.32,-113.18C69.59,-107.24 53.4,-100.23 41.02,-94.88"/>
<polygon fill="#63b8ff" stroke="#63b8ff" points="81.74,-116.31 92.31,-117.07 84.52,-109.89 81.74,-116.31"/>
</a>
</g>
</g>
<!-- Node6&#45;&gt;Node4 -->
<g id="edge6_Node000006_Node000004" class="edge">
<title>Node6&#45;&gt;Node4</title>
<g id="a_edge6_Node000006_Node000004"><a xlink:title=" ">
<path fill="none" stroke="#63b8ff" d="M172.61,-62.81C143.02,-61.69 107.97,-62.17 76.75,-67.38 64.62,-69.4 51.58,-73.75 41.21,-77.78"/>
<polygon fill="#63b8ff" stroke="#63b8ff" points="172.43,-66.31 182.58,-63.27 172.75,-59.32 172.43,-66.31"/>
</a>
</g>
</g>
<!-- Node6&#45;&gt;Node5 -->
<g id="edge7_Node000006_Node000005" class="edge">
<title>Node6&#45;&gt;Node5</title>
<g id="a_edge7_Node000006_Node000005"><a xlink:title=" ">
<path fill="none" stroke="#63b8ff" d="M172.72,-77.95C158.25,-80.01 144.08,-82.02 133.22,-83.57"/>
<polygon fill="#63b8ff" stroke="#63b8ff" points="172.87,-81.46 182.28,-76.59 171.89,-74.53 172.87,-81.46"/>
</a>
</g>
</g>
<!-- Node7&#45;&gt;Node8 -->
<g id="edge9_Node000007_Node000008" class="edge">
<title>Node7&#45;&gt;Node8</title>
<g id="a_edge9_Node000007_Node000008"><a xlink:title=" ">
<path fill="none" stroke="#63b8ff" d="M173.29,-19.36C164.75,-18.07 156.3,-16.8 148.55,-15.64"/>
<polygon fill="#63b8ff" stroke="#63b8ff" points="172.61,-22.79 183.02,-20.82 173.65,-15.87 172.61,-22.79"/>
</a>
</g>
</g>
</g>
</svg>
</svg>

<style type='text/css'>
<![CDATA[
[data-mouse-over-selected='false'] { opacity: 0.7; }
[data-mouse-over-selected='true']  { opacity: 1.0; }
]]>
</style>
<script type="application/ecmascript"><![CDATA[
document.addEventListener('DOMContentLoaded', (event) => {
  highlightEdges();
  highlightAdjacentNodes();
});
]]></script>
</svg>
