<?xml version="1.0" encoding="UTF-8" standalone="no"?>
<!DOCTYPE svg PUBLIC "-//W3C//DTD SVG 1.1//EN"
 "http://www.w3.org/Graphics/SVG/1.1/DTD/svg11.dtd">
<!-- Generated by graphviz version 14.0.4 (0)
 -->
<!-- Title: spi_transfer Pages: 1 -->
<svg width="618pt" height="524pt"
 viewBox="0.00 0.00 618.00 524.00" xmlns="http://www.w3.org/2000/svg" xmlns:xlink="http://www.w3.org/1999/xlink">
<g id="graph0" class="graph" transform="scale(1 1) rotate(0) translate(4 520.03)">
<title>spi_transfer</title>
<!-- Node1 -->
<g id="Node000001" class="node">
<title>Node1</title>
<g id="a_Node000001"><a xlink:title=" ">
<polygon fill="#999999" stroke="#666666" points="610.25,-268.03 536.5,-268.03 536.5,-247.28 610.25,-247.28 610.25,-268.03"/>
<text xml:space="preserve" text-anchor="middle" x="573.38" y="-254.53" font-family="Helvetica,sans-Serif" font-size="10.00">spi_transfer</text>
</a>
</g>
</g>
<!-- Node2 -->
<g id="Node000002" class="node">
<title>Node2</title>
<g id="a_Node000002"><a xlink:href="nrf24__avr_8c.html#a9351c150d32184a95db9ab4a802ed860" target="_top" xlink:title=" ">
<polygon fill="white" stroke="#666666" points="496.75,-422.03 411,-422.03 411,-401.28 496.75,-401.28 496.75,-422.03"/>
<text xml:space="preserve" text-anchor="middle" x="453.88" y="-408.53" font-family="Helvetica,sans-Serif" font-size="10.00">nrf24_flush_rx</text>
</a>
</g>
</g>
<!-- Node1&#45;&gt;Node2 -->
<g id="edge1_Node000001_Node000002" class="edge">
<title>Node1&#45;&gt;Node2</title>
<g id="a_edge1_Node000001_Node000002"><a xlink:title=" ">
<path fill="none" stroke="#63b8ff" d="M565.03,-278.98C554.49,-306.92 532.74,-356.07 500.5,-387.65 495.13,-392.91 488.37,-397.31 481.71,-400.83"/>
<polygon fill="#63b8ff" stroke="#63b8ff" points="568.22,-280.43 568.34,-269.84 561.64,-278.05 568.22,-280.43"/>
</a>
</g>
</g>
<!-- Node3 -->
<g id="Node000003" class="node">
<title>Node3</title>
<g id="a_Node000003"><a xlink:href="nrf24__avr_8c.html#a617ab4b2604d6f482796e35da85369ad" target="_top" xlink:title=" ">
<polygon fill="white" stroke="#666666" points="350.62,-516.03 264.88,-516.03 264.88,-495.28 350.62,-495.28 350.62,-516.03"/>
<text xml:space="preserve" text-anchor="middle" x="307.75" y="-502.53" font-family="Helvetica,sans-Serif" font-size="10.00">nrf24_flush_tx</text>
</a>
</g>
</g>
<!-- Node1&#45;&gt;Node3 -->
<g id="edge2_Node000001_Node000003" class="edge">
<title>Node1&#45;&gt;Node3</title>
<g id="a_edge2_Node000001_Node000003"><a xlink:title=" ">
<path fill="none" stroke="#63b8ff" d="M561.58,-278.31C549.35,-299.95 527.55,-333.65 500.5,-354.65 465.15,-382.09 439.76,-361.9 407.25,-392.65 380.1,-418.34 396.43,-441.03 371.25,-468.65 361.05,-479.83 346.68,-488.66 334.29,-494.89"/>
<polygon fill="#63b8ff" stroke="#63b8ff" points="564.5,-280.27 566.22,-269.82 558.35,-276.92 564.5,-280.27"/>
</a>
</g>
</g>
<!-- Node5 -->
<g id="Node000005" class="node">
<title>Node5</title>
<g id="a_Node000005"><a xlink:href="nrf24__avr_8c.html#a9a23f602a6077c795322702d0a42f48c" target="_top" xlink:title=" ">
<polygon fill="white" stroke="#666666" points="500.5,-152.03 407.25,-152.03 407.25,-131.28 500.5,-131.28 500.5,-152.03"/>
<text xml:space="preserve" text-anchor="middle" x="453.88" y="-138.53" font-family="Helvetica,sans-Serif" font-size="10.00">nrf24_getStatus</text>
</a>
</g>
</g>
<!-- Node1&#45;&gt;Node5 -->
<g id="edge4_Node000001_Node000005" class="edge">
<title>Node1&#45;&gt;Node5</title>
<g id="a_edge4_Node000001_Node000005"><a xlink:title=" ">
<path fill="none" stroke="#63b8ff" d="M561.26,-237.06C548.86,-215.75 527.03,-182.7 500.5,-161.65 496.03,-158.11 490.83,-155.06 485.58,-152.49"/>
<polygon fill="#63b8ff" stroke="#63b8ff" points="558.16,-238.69 566.11,-245.69 564.26,-235.26 558.16,-238.69"/>
</a>
</g>
</g>
<!-- Node6 -->
<g id="Node000006" class="node">
<title>Node6</title>
<g id="a_Node000006"><a xlink:href="nrf24__avr_8c.html#ac4a676257b5b86b05f4ea608636cb2cf" target="_top" xlink:title=" ">
<polygon fill="white" stroke="#666666" points="494.88,-191.03 412.88,-191.03 412.88,-170.28 494.88,-170.28 494.88,-191.03"/>
<text xml:space="preserve" text-anchor="middle" x="453.88" y="-177.53" font-family="Helvetica,sans-Serif" font-size="10.00">read_payload</text>
</a>
</g>
</g>
<!-- Node1&#45;&gt;Node6 -->
<g id="edge5_Node000001_Node000006" class="edge">
<title>Node1&#45;&gt;Node6</title>
<g id="a_edge5_Node000001_Node000006"><a xlink:title=" ">
<path fill="none" stroke="#63b8ff" d="M552.59,-239.66C538.69,-227.62 519.3,-211.97 500.5,-200.65 494.87,-197.26 488.56,-194.12 482.47,-191.38"/>
<polygon fill="#63b8ff" stroke="#63b8ff" points="549.91,-241.97 559.73,-245.97 554.55,-236.72 549.91,-241.97"/>
</a>
</g>
</g>
<!-- Node11 -->
<g id="Node000011" class="node">
<title>Node11</title>
<g id="a_Node000011"><a xlink:href="nrf24__avr_8c.html#abefdb1d58b989853c0646a6c8b18b7d3" target="_top" xlink:title=" ">
<polygon fill="white" stroke="#666666" points="483.25,-307.03 424.5,-307.03 424.5,-286.28 483.25,-286.28 483.25,-307.03"/>
<text xml:space="preserve" text-anchor="middle" x="453.88" y="-293.53" font-family="Helvetica,sans-Serif" font-size="10.00">read_reg</text>
</a>
</g>
</g>
<!-- Node1&#45;&gt;Node11 -->
<g id="edge10_Node000001_Node000011" class="edge">
<title>Node1&#45;&gt;Node11</title>
<g id="a_edge10_Node000001_Node000011"><a xlink:title=" ">
<path fill="none" stroke="#63b8ff" d="M528.91,-272.08C513.73,-277.12 497.09,-282.64 483.44,-287.17"/>
<polygon fill="#63b8ff" stroke="#63b8ff" points="529.82,-275.46 538.21,-268.99 527.61,-268.82 529.82,-275.46"/>
</a>
</g>
</g>
<!-- Node15 -->
<g id="Node000015" class="node">
<title>Node15</title>
<g id="a_Node000015"><a xlink:href="nrf24__avr_8c.html#a31d6889b046799ad06c03ce52c9bb640" target="_top" xlink:title=" ">
<polygon fill="white" stroke="#666666" points="493.75,-113.03 414,-113.03 414,-92.28 493.75,-92.28 493.75,-113.03"/>
<text xml:space="preserve" text-anchor="middle" x="453.88" y="-99.53" font-family="Helvetica,sans-Serif" font-size="10.00">read_reg_buf</text>
</a>
</g>
</g>
<!-- Node1&#45;&gt;Node15 -->
<g id="edge20_Node000001_Node000015" class="edge">
<title>Node1&#45;&gt;Node15</title>
<g id="a_edge20_Node000001_Node000015"><a xlink:title=" ">
<path fill="none" stroke="#63b8ff" d="M566,-236.41C556.26,-207.22 535.08,-154.69 500.5,-122.65 496.57,-119.01 491.86,-115.96 486.99,-113.42"/>
<polygon fill="#63b8ff" stroke="#63b8ff" points="562.56,-237.12 568.92,-245.59 569.23,-235 562.56,-237.12"/>
</a>
</g>
</g>
<!-- Node16 -->
<g id="Node000016" class="node">
<title>Node16</title>
<g id="a_Node000016"><a xlink:href="nrf24__avr_8c.html#a3c9fd94e9894bf0792d4ff5891c16436" target="_top" xlink:title=" ">
<polygon fill="white" stroke="#666666" points="496.38,-346.03 411.38,-346.03 411.38,-325.28 496.38,-325.28 496.38,-346.03"/>
<text xml:space="preserve" text-anchor="middle" x="453.88" y="-332.53" font-family="Helvetica,sans-Serif" font-size="10.00">write_payload</text>
</a>
</g>
</g>
<!-- Node1&#45;&gt;Node16 -->
<g id="edge21_Node000001_Node000016" class="edge">
<title>Node1&#45;&gt;Node16</title>
<g id="a_edge21_Node000001_Node000016"><a xlink:title=" ">
<path fill="none" stroke="#63b8ff" d="M553.13,-275.55C539.23,-287.87 519.61,-304.04 500.5,-315.65 494.88,-319.07 488.58,-322.22 482.49,-324.96"/>
<polygon fill="#63b8ff" stroke="#63b8ff" points="555.18,-278.41 560.25,-269.11 550.49,-273.22 555.18,-278.41"/>
</a>
</g>
</g>
<!-- Node17 -->
<g id="Node000017" class="node">
<title>Node17</title>
<g id="a_Node000017"><a xlink:href="nrf24__avr_8c.html#a08bc978021db604d02a6da754f73e7e2" target="_top" xlink:title=" ">
<polygon fill="white" stroke="#666666" points="484.75,-230.03 423,-230.03 423,-209.28 484.75,-209.28 484.75,-230.03"/>
<text xml:space="preserve" text-anchor="middle" x="453.88" y="-216.53" font-family="Helvetica,sans-Serif" font-size="10.00">write_reg</text>
</a>
</g>
</g>
<!-- Node1&#45;&gt;Node17 -->
<g id="edge23_Node000001_Node000017" class="edge">
<title>Node1&#45;&gt;Node17</title>
<g id="a_edge23_Node000001_Node000017"><a xlink:title=" ">
<path fill="none" stroke="#63b8ff" d="M528.31,-243.4C513.91,-238.74 498.25,-233.68 485.1,-229.43"/>
<polygon fill="#63b8ff" stroke="#63b8ff" points="526.99,-246.65 537.58,-246.4 529.14,-239.99 526.99,-246.65"/>
</a>
</g>
</g>
<!-- Node4 -->
<g id="Node000004" class="node">
<title>Node4</title>
<g id="a_Node000004"><a xlink:href="nrf24__avr_8c.html#a8232e1982aabc6f52408c318402cb578" target="_top" xlink:title=" ">
<polygon fill="white" stroke="#666666" points="178.25,-440.03 106.75,-440.03 106.75,-419.28 178.25,-419.28 178.25,-440.03"/>
<text xml:space="preserve" text-anchor="middle" x="142.5" y="-426.53" font-family="Helvetica,sans-Serif" font-size="10.00">nrf24_write</text>
</a>
</g>
</g>
<!-- Node3&#45;&gt;Node4 -->
<g id="edge3_Node000003_Node000004" class="edge">
<title>Node3&#45;&gt;Node4</title>
<g id="a_edge3_Node000003_Node000004"><a xlink:title=" ">
<path fill="none" stroke="#63b8ff" d="M266.09,-490.78C258.76,-487.89 251.23,-484.78 244.25,-481.65 215.33,-468.69 182.94,-451.46 162.88,-440.46"/>
<polygon fill="#63b8ff" stroke="#63b8ff" points="264.59,-493.96 275.18,-494.29 267.11,-487.43 264.59,-493.96"/>
</a>
</g>
</g>
<!-- Node7 -->
<g id="Node000007" class="node">
<title>Node7</title>
<g id="a_Node000007"><a xlink:href="nrf24__avr_8c.html#aa0767db791fc0b45ebadab011c1900bf" target="_top" xlink:title=" ">
<polygon fill="white" stroke="#666666" points="342,-98.03 273.5,-98.03 273.5,-77.28 342,-77.28 342,-98.03"/>
<text xml:space="preserve" text-anchor="middle" x="307.75" y="-84.53" font-family="Helvetica,sans-Serif" font-size="10.00">nrf24_read</text>
</a>
</g>
</g>
<!-- Node6&#45;&gt;Node7 -->
<g id="edge6_Node000006_Node000007" class="edge">
<title>Node6&#45;&gt;Node7</title>
<g id="a_edge6_Node000006_Node000007"><a xlink:title=" ">
<path fill="none" stroke="#63b8ff" d="M412.54,-164.45C410.7,-163.26 408.92,-161.99 407.25,-160.65 386.16,-143.76 392.73,-128.05 371.25,-111.65 362.75,-105.16 352.29,-100.24 342.37,-96.59"/>
<polygon fill="#63b8ff" stroke="#63b8ff" points="410.4,-167.26 420.83,-169.11 413.82,-161.16 410.4,-167.26"/>
</a>
</g>
</g>
<!-- Node8 -->
<g id="Node000008" class="node">
<title>Node8</title>
<g id="a_Node000008"><a xlink:href="carrinho_8c.html#afe461d27b9c48d5921c00d521181f12f" target="_top" xlink:title=" ">
<polygon fill="white" stroke="#666666" points="161,-290.03 124,-290.03 124,-269.28 161,-269.28 161,-290.03"/>
<text xml:space="preserve" text-anchor="middle" x="142.5" y="-276.53" font-family="Helvetica,sans-Serif" font-size="10.00">loop</text>
</a>
</g>
</g>
<!-- Node7&#45;&gt;Node8 -->
<g id="edge7_Node000007_Node000008" class="edge">
<title>Node7&#45;&gt;Node8</title>
<g id="a_edge7_Node000007_Node000008"><a xlink:title=" ">
<path fill="none" stroke="#63b8ff" d="M283.08,-105.39C270.38,-115.78 255.14,-129.78 244.25,-144.65 221.7,-175.46 231.07,-192.04 208.25,-222.65 194.28,-241.38 173.3,-258.45 159.03,-268.93"/>
<polygon fill="#63b8ff" stroke="#63b8ff" points="284.94,-108.38 290.6,-99.43 280.59,-102.9 284.94,-108.38"/>
</a>
</g>
</g>
<!-- Node10 -->
<g id="Node000010" class="node">
<title>Node10</title>
<g id="a_Node000010"><a xlink:href="main_8c.html#a840291bc02cba5474a4cb46a9b9566fe" target="_top" xlink:title=" ">
<polygon fill="white" stroke="#666666" points="40.75,-136.03 0,-136.03 0,-115.28 40.75,-115.28 40.75,-136.03"/>
<text xml:space="preserve" text-anchor="middle" x="20.38" y="-122.53" font-family="Helvetica,sans-Serif" font-size="10.00">main</text>
</a>
</g>
</g>
<!-- Node7&#45;&gt;Node10 -->
<g id="edge9_Node000007_Node000010" class="edge">
<title>Node7&#45;&gt;Node10</title>
<g id="a_edge9_Node000007_Node000010"><a xlink:title=" ">
<path fill="none" stroke="#63b8ff" d="M262.01,-88.08C215.31,-89.28 140.2,-93.36 76.75,-106.65 64.61,-109.19 51.47,-113.63 41.03,-117.57"/>
<polygon fill="#63b8ff" stroke="#63b8ff" points="261.81,-91.58 271.73,-87.86 261.65,-84.59 261.81,-91.58"/>
</a>
</g>
</g>
<!-- Node9 -->
<g id="Node000009" class="node">
<title>Node9</title>
<g id="a_Node000009"><a xlink:href="carrinho_8c.html#ae66f6b31b5ad750f1fe042a706a4e3d4" target="_top" xlink:title=" ">
<polygon fill="white" stroke="#666666" points="40.75,-175.03 0,-175.03 0,-154.28 40.75,-154.28 40.75,-175.03"/>
<text xml:space="preserve" text-anchor="middle" x="20.38" y="-161.53" font-family="Helvetica,sans-Serif" font-size="10.00">main</text>
</a>
</g>
</g>
<!-- Node8&#45;&gt;Node9 -->
<g id="edge8_Node000008_Node000009" class="edge">
<title>Node8&#45;&gt;Node9</title>
<g id="a_edge8_Node000008_Node000009"><a xlink:title=" ">
<path fill="none" stroke="#63b8ff" d="M112.72,-273.46C100.65,-269.8 87.05,-264.15 76.75,-255.65 49.78,-233.42 32.45,-194.41 25.23,-175.52"/>
<polygon fill="#63b8ff" stroke="#63b8ff" points="111.65,-276.8 122.21,-276.01 113.46,-270.04 111.65,-276.8"/>
</a>
</g>
</g>
<!-- Node11&#45;&gt;Node4 -->
<g id="edge19_Node000011_Node000004" class="edge">
<title>Node11&#45;&gt;Node4</title>
<g id="a_edge19_Node000011_Node000004"><a xlink:title=" ">
<path fill="none" stroke="#63b8ff" d="M414.32,-310.68C411.76,-312.46 409.36,-314.44 407.25,-316.65 376.37,-349.03 407.02,-383.79 371.25,-410.65 341.74,-432.81 234.89,-432.8 178.65,-431.14"/>
<polygon fill="#63b8ff" stroke="#63b8ff" points="415.83,-313.85 422.81,-305.88 412.38,-307.76 415.83,-313.85"/>
</a>
</g>
</g>
<!-- Node12 -->
<g id="Node000012" class="node">
<title>Node12</title>
<g id="a_Node000012"><a xlink:href="nrf24__avr_8c.html#a0f64caa74329fd5799a33f30bd8ebf82" target="_top" xlink:title=" ">
<polygon fill="white" stroke="#666666" points="353.62,-326.03 261.88,-326.03 261.88,-305.28 353.62,-305.28 353.62,-326.03"/>
<text xml:space="preserve" text-anchor="middle" x="307.75" y="-312.53" font-family="Helvetica,sans-Serif" font-size="10.00">nrf24_available</text>
</a>
</g>
</g>
<!-- Node11&#45;&gt;Node12 -->
<g id="edge11_Node000011_Node000012" class="edge">
<title>Node11&#45;&gt;Node12</title>
<g id="a_edge11_Node000011_Node000012"><a xlink:title=" ">
<path fill="none" stroke="#63b8ff" d="M412.89,-301.92C394.61,-304.33 372.86,-307.2 353.98,-309.69"/>
<polygon fill="#63b8ff" stroke="#63b8ff" points="413.1,-305.43 422.55,-300.65 412.18,-298.49 413.1,-305.43"/>
</a>
</g>
</g>
<!-- Node13 -->
<g id="Node000013" class="node">
<title>Node13</title>
<g id="a_Node000013"><a xlink:href="nrf24__avr_8c.html#a71c5628e9583f6a6fd0871b3ae1bf6df" target="_top" xlink:title=" ">
<polygon fill="white" stroke="#666666" points="199.25,-214.03 85.75,-214.03 85.75,-193.28 199.25,-193.28 199.25,-214.03"/>
<text xml:space="preserve" text-anchor="middle" x="142.5" y="-200.53" font-family="Helvetica,sans-Serif" font-size="10.00">nrf24_startListening</text>
</a>
</g>
</g>
<!-- Node11&#45;&gt;Node13 -->
<g id="edge14_Node000011_Node000013" class="edge">
<title>Node11&#45;&gt;Node13</title>
<g id="a_edge14_Node000011_Node000013"><a xlink:title=" ">
<path fill="none" stroke="#63b8ff" d="M413.39,-284.78C352.81,-266.57 237.82,-232.01 179.44,-214.46"/>
<polygon fill="#63b8ff" stroke="#63b8ff" points="412.01,-288.02 422.6,-287.55 414.03,-281.32 412.01,-288.02"/>
</a>
</g>
</g>
<!-- Node14 -->
<g id="Node000014" class="node">
<title>Node14</title>
<g id="a_Node000014"><a xlink:href="nrf24__avr_8c.html#a33899bc3c0f4d2293f37c306d0b8e297" target="_top" xlink:title=" ">
<polygon fill="white" stroke="#666666" points="363.75,-402.03 251.75,-402.03 251.75,-381.28 363.75,-381.28 363.75,-402.03"/>
<text xml:space="preserve" text-anchor="middle" x="307.75" y="-388.53" font-family="Helvetica,sans-Serif" font-size="10.00">nrf24_stopListening</text>
</a>
</g>
</g>
<!-- Node11&#45;&gt;Node14 -->
<g id="edge17_Node000011_Node000014" class="edge">
<title>Node11&#45;&gt;Node14</title>
<g id="a_edge17_Node000011_Node000014"><a xlink:title=" ">
<path fill="none" stroke="#63b8ff" d="M413.96,-311.88C411.6,-313.36 409.34,-314.95 407.25,-316.65 385.76,-334.2 393.14,-350.61 371.25,-367.65 364.28,-373.08 355.94,-377.4 347.66,-380.79"/>
<polygon fill="#63b8ff" stroke="#63b8ff" points="415.53,-315.01 422.67,-307.19 412.21,-308.85 415.53,-315.01"/>
</a>
</g>
</g>
<!-- Node12&#45;&gt;Node8 -->
<g id="edge12_Node000012_Node000008" class="edge">
<title>Node12&#45;&gt;Node8</title>
<g id="a_edge12_Node000012_Node000008"><a xlink:title=" ">
<path fill="none" stroke="#63b8ff" d="M250.48,-303.24C219.23,-296.35 182.46,-288.24 161.18,-283.55"/>
<polygon fill="#63b8ff" stroke="#63b8ff" points="249.71,-306.66 260.23,-305.39 251.22,-299.82 249.71,-306.66"/>
</a>
</g>
</g>
<!-- Node12&#45;&gt;Node10 -->
<g id="edge13_Node000012_Node000010" class="edge">
<title>Node12&#45;&gt;Node10</title>
<g id="a_edge13_Node000012_Node000010"><a xlink:title=" ">
<path fill="none" stroke="#63b8ff" d="M280.64,-298.91C261.25,-287.02 233.84,-271.33 208.25,-260.65 152.11,-237.23 122.99,-262.19 76.75,-222.65 48.04,-198.1 62.19,-176.76 40.75,-145.65 38.56,-142.47 35.84,-139.32 33.14,-136.5"/>
<polygon fill="#63b8ff" stroke="#63b8ff" points="278.63,-301.78 288.97,-304.1 282.34,-295.84 278.63,-301.78"/>
</a>
</g>
</g>
<!-- Node13&#45;&gt;Node9 -->
<g id="edge15_Node000013_Node000009" class="edge">
<title>Node13&#45;&gt;Node9</title>
<g id="a_edge15_Node000013_Node000009"><a xlink:title=" ">
<path fill="none" stroke="#63b8ff" d="M94.94,-189.46C88.81,-187.54 82.62,-185.57 76.75,-183.65 64.86,-179.78 51.62,-175.24 41.06,-171.57"/>
<polygon fill="#63b8ff" stroke="#63b8ff" points="93.78,-192.77 104.37,-192.4 95.86,-186.08 93.78,-192.77"/>
</a>
</g>
</g>
<!-- Node13&#45;&gt;Node10 -->
<g id="edge16_Node000013_Node000010" class="edge">
<title>Node13&#45;&gt;Node10</title>
<g id="a_edge16_Node000013_Node000010"><a xlink:title=" ">
<path fill="none" stroke="#63b8ff" d="M85.45,-188.4C82.44,-186.95 79.51,-185.37 76.75,-183.65 56.99,-171.37 56.84,-162.45 40.75,-145.65 37.81,-142.58 34.6,-139.26 31.65,-136.22"/>
<polygon fill="#63b8ff" stroke="#63b8ff" points="83.99,-191.58 94.56,-192.27 86.72,-185.14 83.99,-191.58"/>
</a>
</g>
</g>
<!-- Node14&#45;&gt;Node4 -->
<g id="edge18_Node000014_Node000004" class="edge">
<title>Node14&#45;&gt;Node4</title>
<g id="a_edge18_Node000014_Node000004"><a xlink:title=" ">
<path fill="none" stroke="#63b8ff" d="M249.44,-404.99C225.81,-410.49 199.18,-416.69 178.53,-421.5"/>
<polygon fill="#63b8ff" stroke="#63b8ff" points="249.99,-408.46 258.93,-402.78 248.4,-401.64 249.99,-408.46"/>
</a>
</g>
</g>
<!-- Node16&#45;&gt;Node4 -->
<g id="edge22_Node000016_Node000004" class="edge">
<title>Node16&#45;&gt;Node4</title>
<g id="a_edge22_Node000016_Node000004"><a xlink:title=" ">
<path fill="none" stroke="#63b8ff" d="M415.65,-352.3C412.6,-354.51 409.74,-356.96 407.25,-359.65 379.69,-389.49 405.16,-421.29 371.25,-443.65 308.74,-484.87 214.39,-457.6 169.29,-440.5"/>
<polygon fill="#63b8ff" stroke="#63b8ff" points="417.26,-355.42 423.91,-347.17 413.57,-349.47 417.26,-355.42"/>
</a>
</g>
</g>
<!-- Node17&#45;&gt;Node4 -->
<g id="edge40_Node000017_Node000004" class="edge">
<title>Node17&#45;&gt;Node4</title>
<g id="a_edge40_Node000017_Node000004"><a xlink:title=" ">
<path fill="none" stroke="#63b8ff" d="M436.58,-239.32C427.64,-250.37 416.51,-264.54 407.25,-277.65 389.96,-302.13 395.12,-316.54 371.25,-334.65 324.32,-370.27 298.45,-349.56 244.25,-372.65 213,-385.97 179.11,-406.54 159.67,-418.99"/>
<polygon fill="#63b8ff" stroke="#63b8ff" points="439.2,-241.64 442.82,-231.68 433.78,-237.21 439.2,-241.64"/>
</a>
</g>
</g>
<!-- Node17&#45;&gt;Node7 -->
<g id="edge31_Node000017_Node000007" class="edge">
<title>Node17&#45;&gt;Node7</title>
<g id="a_edge31_Node000017_Node000007"><a xlink:title=" ">
<path fill="none" stroke="#63b8ff" d="M413.06,-204.64C410.97,-203.12 409.02,-201.46 407.25,-199.65 377.74,-169.4 401.45,-141.21 371.25,-111.65 363.36,-103.93 352.72,-98.63 342.45,-95.03"/>
<polygon fill="#63b8ff" stroke="#63b8ff" points="411.1,-207.55 421.48,-209.64 414.67,-201.53 411.1,-207.55"/>
</a>
</g>
</g>
<!-- Node17&#45;&gt;Node13 -->
<g id="edge38_Node000017_Node000013" class="edge">
<title>Node17&#45;&gt;Node13</title>
<g id="a_edge38_Node000017_Node000013"><a xlink:title=" ">
<path fill="none" stroke="#63b8ff" d="M411.32,-220.07C369.18,-220.21 302.1,-219.64 244.25,-215.65 229.75,-214.65 214.14,-213.05 199.63,-211.34"/>
<polygon fill="#63b8ff" stroke="#63b8ff" points="411.28,-223.57 421.26,-220.02 411.25,-216.57 411.28,-223.57"/>
</a>
</g>
</g>
<!-- Node17&#45;&gt;Node14 -->
<g id="edge39_Node000017_Node000014" class="edge">
<title>Node17&#45;&gt;Node14</title>
<g id="a_edge39_Node000017_Node000014"><a xlink:title=" ">
<path fill="none" stroke="#63b8ff" d="M435.27,-239.1C426.1,-249.91 415.18,-263.92 407.25,-277.65 385.71,-314.96 401.92,-337.4 371.25,-367.65 365.62,-373.2 358.57,-377.5 351.26,-380.81"/>
<polygon fill="#63b8ff" stroke="#63b8ff" points="437.83,-241.49 441.77,-231.66 432.56,-236.89 437.83,-241.49"/>
</a>
</g>
</g>
<!-- Node18 -->
<g id="Node000018" class="node">
<title>Node18</title>
<g id="a_Node000018"><a xlink:href="nrf24__avr_8c.html#ab6fb4c1aa834152310116e7dec65d8e3" target="_top" xlink:title=" ">
<polygon fill="white" stroke="#666666" points="179.38,-60.03 105.62,-60.03 105.62,-39.28 179.38,-39.28 179.38,-60.03"/>
<text xml:space="preserve" text-anchor="middle" x="142.5" y="-46.53" font-family="Helvetica,sans-Serif" font-size="10.00">nrf24_begin</text>
</a>
</g>
</g>
<!-- Node17&#45;&gt;Node18 -->
<g id="edge24_Node000017_Node000018" class="edge">
<title>Node17&#45;&gt;Node18</title>
<g id="a_edge24_Node000017_Node000018"><a xlink:title=" ">
<path fill="none" stroke="#63b8ff" d="M413.45,-205.38C411.18,-203.67 409.08,-201.77 407.25,-199.65 367.76,-153.98 417.71,-107.22 371.25,-68.65 317.22,-23.79 229.03,-31.88 179.74,-41.15"/>
<polygon fill="#63b8ff" stroke="#63b8ff" points="411.16,-208.09 421.53,-210.26 414.78,-202.1 411.16,-208.09"/>
</a>
</g>
</g>
<!-- Node19 -->
<g id="Node000019" class="node">
<title>Node19</title>
<g id="a_Node000019"><a xlink:href="nrf24__avr_8c.html#a5af2f11537aed8a56d8489355af0ff16" target="_top" xlink:title=" ">
<polygon fill="white" stroke="#666666" points="208.25,-175.03 76.75,-175.03 76.75,-154.28 208.25,-154.28 208.25,-175.03"/>
<text xml:space="preserve" text-anchor="middle" x="142.5" y="-161.53" font-family="Helvetica,sans-Serif" font-size="10.00">nrf24_openReadingPipe</text>
</a>
</g>
</g>
<!-- Node17&#45;&gt;Node19 -->
<g id="edge27_Node000017_Node000019" class="edge">
<title>Node17&#45;&gt;Node19</title>
<g id="a_edge27_Node000017_Node000019"><a xlink:title=" ">
<path fill="none" stroke="#63b8ff" d="M411.64,-212.36C369.55,-204.9 302.35,-192.99 244.25,-182.65 231.3,-180.35 217.43,-177.87 204.23,-175.52"/>
<polygon fill="#63b8ff" stroke="#63b8ff" points="410.87,-215.77 421.33,-214.07 412.09,-208.88 410.87,-215.77"/>
</a>
</g>
</g>
<!-- Node20 -->
<g id="Node000020" class="node">
<title>Node20</title>
<g id="a_Node000020"><a xlink:href="nrf24__avr_8c.html#a21d638882f746748de35324bdc21f448" target="_top" xlink:title=" ">
<polygon fill="white" stroke="#666666" points="371.25,-174.03 244.25,-174.03 244.25,-153.28 371.25,-153.28 371.25,-174.03"/>
<text xml:space="preserve" text-anchor="middle" x="307.75" y="-160.53" font-family="Helvetica,sans-Serif" font-size="10.00">nrf24_openWritingPipe</text>
</a>
</g>
</g>
<!-- Node17&#45;&gt;Node20 -->
<g id="edge30_Node000017_Node000020" class="edge">
<title>Node17&#45;&gt;Node20</title>
<g id="a_edge30_Node000017_Node000020"><a xlink:title=" ">
<path fill="none" stroke="#63b8ff" d="M414.78,-204.65C401.07,-199.27 385.47,-193.17 371.25,-187.65 360.09,-183.32 347.79,-178.59 337.08,-174.48"/>
<polygon fill="#63b8ff" stroke="#63b8ff" points="413.32,-207.84 423.9,-208.24 415.88,-201.32 413.32,-207.84"/>
</a>
</g>
</g>
<!-- Node21 -->
<g id="Node000021" class="node">
<title>Node21</title>
<g id="a_Node000021"><a xlink:href="nrf24__avr_8c.html#a49aa88b1042d6d62114cfbca271d9e2b" target="_top" xlink:title=" ">
<polygon fill="white" stroke="#666666" points="193.25,-136.03 91.75,-136.03 91.75,-115.28 193.25,-115.28 193.25,-136.03"/>
<text xml:space="preserve" text-anchor="middle" x="142.5" y="-122.53" font-family="Helvetica,sans-Serif" font-size="10.00">nrf24_setChannel</text>
</a>
</g>
</g>
<!-- Node17&#45;&gt;Node21 -->
<g id="edge32_Node000017_Node000021" class="edge">
<title>Node17&#45;&gt;Node21</title>
<g id="a_edge32_Node000017_Node000021"><a xlink:title=" ">
<path fill="none" stroke="#63b8ff" d="M413.26,-204.1C411.15,-202.72 409.13,-201.24 407.25,-199.65 384.95,-180.78 396.35,-159.6 371.25,-144.65 317.05,-112.37 242.32,-112.86 193.47,-117.86"/>
<polygon fill="#63b8ff" stroke="#63b8ff" points="411.18,-206.95 421.62,-208.77 414.6,-200.84 411.18,-206.95"/>
</a>
</g>
</g>
<!-- Node22 -->
<g id="Node000022" class="node">
<title>Node22</title>
<g id="a_Node000022"><a xlink:href="nrf24__avr_8c.html#aaf2900e7932ebbf7f0ecdc6bce5840e1" target="_top" xlink:title=" ">
<polygon fill="white" stroke="#666666" points="368.25,-22.03 247.25,-22.03 247.25,-1.28 368.25,-1.28 368.25,-22.03"/>
<text xml:space="preserve" text-anchor="middle" x="307.75" y="-8.53" font-family="Helvetica,sans-Serif" font-size="10.00">nrf24_setPayloadSize</text>
</a>
</g>
</g>
<!-- Node17&#45;&gt;Node22 -->
<g id="edge35_Node000017_Node000022" class="edge">
<title>Node17&#45;&gt;Node22</title>
<g id="a_edge35_Node000017_Node000022"><a xlink:title=" ">
<path fill="none" stroke="#63b8ff" d="M413.32,-205.49C411.08,-203.75 409.03,-201.82 407.25,-199.65 359.93,-141.95 419.9,-92.24 371.25,-35.65 366.4,-30.01 360.07,-25.69 353.3,-22.38"/>
<polygon fill="#63b8ff" stroke="#63b8ff" points="410.99,-208.17 421.35,-210.41 414.65,-202.2 410.99,-208.17"/>
</a>
</g>
</g>
<!-- Node18&#45;&gt;Node9 -->
<g id="edge25_Node000018_Node000009" class="edge">
<title>Node18&#45;&gt;Node9</title>
<g id="a_edge25_Node000018_Node000009"><a xlink:title=" ">
<path fill="none" stroke="#63b8ff" d="M120.18,-67.57C107.34,-78.57 90.8,-93.1 76.75,-106.65 60,-122.8 56.84,-127.85 40.75,-144.65 37.81,-147.72 34.6,-151.05 31.65,-154.09"/>
<polygon fill="#63b8ff" stroke="#63b8ff" points="122.28,-70.38 127.63,-61.23 117.75,-65.04 122.28,-70.38"/>
</a>
</g>
</g>
<!-- Node18&#45;&gt;Node10 -->
<g id="edge26_Node000018_Node000010" class="edge">
<title>Node18&#45;&gt;Node10</title>
<g id="a_edge26_Node000018_Node000010"><a xlink:title=" ">
<path fill="none" stroke="#63b8ff" d="M94.83,-64.37C88.56,-67.08 82.37,-70.18 76.75,-73.65 58.14,-85.18 40.38,-103.62 30.19,-115.16"/>
<polygon fill="#63b8ff" stroke="#63b8ff" points="95.97,-67.69 103.95,-60.73 93.37,-61.19 95.97,-67.69"/>
</a>
</g>
</g>
<!-- Node19&#45;&gt;Node9 -->
<g id="edge28_Node000019_Node000009" class="edge">
<title>Node19&#45;&gt;Node9</title>
<g id="a_edge28_Node000019_Node000009"><a xlink:title=" ">
<path fill="none" stroke="#63b8ff" d="M65.14,-164.65C56.32,-164.65 48.01,-164.65 41.05,-164.65"/>
<polygon fill="#63b8ff" stroke="#63b8ff" points="65,-168.15 75,-164.65 65,-161.15 65,-168.15"/>
</a>
</g>
</g>
<!-- Node19&#45;&gt;Node10 -->
<g id="edge29_Node000019_Node000010" class="edge">
<title>Node19&#45;&gt;Node10</title>
<g id="a_edge29_Node000019_Node000010"><a xlink:title=" ">
<path fill="none" stroke="#63b8ff" d="M94.94,-150.46C88.81,-148.54 82.62,-146.57 76.75,-144.65 64.86,-140.78 51.62,-136.24 41.06,-132.57"/>
<polygon fill="#63b8ff" stroke="#63b8ff" points="93.78,-153.77 104.37,-153.4 95.86,-147.08 93.78,-153.77"/>
</a>
</g>
</g>
<!-- Node21&#45;&gt;Node9 -->
<g id="edge33_Node000021_Node000009" class="edge">
<title>Node21&#45;&gt;Node9</title>
<g id="a_edge33_Node000021_Node000009"><a xlink:title=" ">
<path fill="none" stroke="#63b8ff" d="M94.94,-139.85C88.81,-141.77 82.62,-143.74 76.75,-145.65 64.86,-149.53 51.62,-154.06 41.06,-157.73"/>
<polygon fill="#63b8ff" stroke="#63b8ff" points="95.86,-143.22 104.37,-136.91 93.78,-136.54 95.86,-143.22"/>
</a>
</g>
</g>
<!-- Node21&#45;&gt;Node10 -->
<g id="edge34_Node000021_Node000010" class="edge">
<title>Node21&#45;&gt;Node10</title>
<g id="a_edge34_Node000021_Node000010"><a xlink:title=" ">
<path fill="none" stroke="#63b8ff" d="M80.01,-125.65C65.94,-125.65 51.98,-125.65 41.22,-125.65"/>
<polygon fill="#63b8ff" stroke="#63b8ff" points="79.74,-129.15 89.74,-125.65 79.74,-122.15 79.74,-129.15"/>
</a>
</g>
</g>
<!-- Node22&#45;&gt;Node10 -->
<g id="edge36_Node000022_Node000010" class="edge">
<title>Node22&#45;&gt;Node10</title>
<g id="a_edge36_Node000022_Node000010"><a xlink:title=" ">
<path fill="none" stroke="#63b8ff" d="M235.43,-1.27C187.07,2.08 123.65,-1.07 76.75,-30.65 45.59,-50.31 29.94,-94.32 24.12,-114.8"/>
<polygon fill="#63b8ff" stroke="#63b8ff" points="235,-4.74 245.25,-2.07 235.56,2.23 235,-4.74"/>
</a>
</g>
</g>
<!-- Node22&#45;&gt;Node18 -->
<g id="edge37_Node000022_Node000018" class="edge">
<title>Node22&#45;&gt;Node18</title>
<g id="a_edge37_Node000022_Node000018"><a xlink:title=" ">
<path fill="none" stroke="#63b8ff" d="M249.33,-25.02C226.22,-30.4 200.26,-36.44 179.84,-41.19"/>
<polygon fill="#63b8ff" stroke="#63b8ff" points="249.99,-28.46 258.93,-22.78 248.4,-21.64 249.99,-28.46"/>
</a>
</g>
</g>
</g>
</svg>
